<?xml version="1.0" encoding="utf-8" standalone="no"?>
<!DOCTYPE svg PUBLIC "-//W3C//DTD SVG 1.1//EN"
  "http://www.w3.org/Graphics/SVG/1.1/DTD/svg11.dtd">
<!-- Created with matplotlib (http://matplotlib.org/) -->
<svg height="432pt" version="1.1" viewBox="0 0 576 432" width="576pt" xmlns="http://www.w3.org/2000/svg" xmlns:xlink="http://www.w3.org/1999/xlink">
 <defs>
  <style type="text/css">
*{stroke-linecap:butt;stroke-linejoin:round;}
  </style>
 </defs>
 <g id="figure_1">
  <g id="patch_1">
   <path d="M 0 432 
L 576 432 
L 576 0 
L 0 0 
z
" style="fill:#ffffff;"/>
  </g>
  <g id="axes_1">
   <g id="patch_2">
    <path d="M 72 345.6 
L 518.4 345.6 
L 518.4 51.84 
L 72 51.84 
z
" style="fill:#ffffff;"/>
   </g>
   <g id="matplotlib.axis_1">
    <g id="xtick_1">
     <g id="line2d_1">
      <path clip-path="url(#p438bdccea2)" d="M 92.290909 345.6 
L 92.290909 51.84 
" style="fill:none;stroke:#b0b0b0;stroke-linecap:square;stroke-width:0.8;"/>
     </g>
     <g id="line2d_2">
      <defs>
       <path d="M 0 0 
L 0 3.5 
" id="m397069d9fd" style="stroke:#000000;stroke-width:0.8;"/>
      </defs>
      <g>
       <use style="stroke:#000000;stroke-width:0.8;" x="92.290909" xlink:href="#m397069d9fd" y="345.6"/>
      </g>
     </g>
     <g id="text_1">
      <!-- Jan -->
      <defs>
       <path d="M 9.8125 72.90625 
L 19.671875 72.90625 
L 19.671875 5.078125 
Q 19.671875 -8.109375 14.671875 -14.0625 
Q 9.671875 -20.015625 -1.421875 -20.015625 
L -5.171875 -20.015625 
L -5.171875 -11.71875 
L -2.09375 -11.71875 
Q 4.4375 -11.71875 7.125 -8.046875 
Q 9.8125 -4.390625 9.8125 5.078125 
z
" id="DejaVuSans-4a"/>
       <path d="M 34.28125 27.484375 
Q 23.390625 27.484375 19.1875 25 
Q 14.984375 22.515625 14.984375 16.5 
Q 14.984375 11.71875 18.140625 8.90625 
Q 21.296875 6.109375 26.703125 6.109375 
Q 34.1875 6.109375 38.703125 11.40625 
Q 43.21875 16.703125 43.21875 25.484375 
L 43.21875 27.484375 
z
M 52.203125 31.203125 
L 52.203125 0 
L 43.21875 0 
L 43.21875 8.296875 
Q 40.140625 3.328125 35.546875 0.953125 
Q 30.953125 -1.421875 24.3125 -1.421875 
Q 15.921875 -1.421875 10.953125 3.296875 
Q 6 8.015625 6 15.921875 
Q 6 25.140625 12.171875 29.828125 
Q 18.359375 34.515625 30.609375 34.515625 
L 43.21875 34.515625 
L 43.21875 35.40625 
Q 43.21875 41.609375 39.140625 45 
Q 35.0625 48.390625 27.6875 48.390625 
Q 23 48.390625 18.546875 47.265625 
Q 14.109375 46.140625 10.015625 43.890625 
L 10.015625 52.203125 
Q 14.9375 54.109375 19.578125 55.046875 
Q 24.21875 56 28.609375 56 
Q 40.484375 56 46.34375 49.84375 
Q 52.203125 43.703125 52.203125 31.203125 
" id="DejaVuSans-61"/>
       <path d="M 54.890625 33.015625 
L 54.890625 0 
L 45.90625 0 
L 45.90625 32.71875 
Q 45.90625 40.484375 42.875 44.328125 
Q 39.84375 48.1875 33.796875 48.1875 
Q 26.515625 48.1875 22.3125 43.546875 
Q 18.109375 38.921875 18.109375 30.90625 
L 18.109375 0 
L 9.078125 0 
L 9.078125 54.6875 
L 18.109375 54.6875 
L 18.109375 46.1875 
Q 21.34375 51.125 25.703125 53.5625 
Q 30.078125 56 35.796875 56 
Q 45.21875 56 50.046875 50.171875 
Q 54.890625 44.34375 54.890625 33.015625 
" id="DejaVuSans-6e"/>
      </defs>
      <g transform="translate(77.900742 366.888252)rotate(-30)scale(0.1 -0.1)">
       <use xlink:href="#DejaVuSans-4a"/>
       <use x="29.492188" xlink:href="#DejaVuSans-61"/>
       <use x="90.771484" xlink:href="#DejaVuSans-6e"/>
      </g>
     </g>
    </g>
    <g id="xtick_2">
     <g id="line2d_3">
      <path clip-path="url(#p438bdccea2)" d="M 192.630569 345.6 
L 192.630569 51.84 
" style="fill:none;stroke:#b0b0b0;stroke-linecap:square;stroke-width:0.8;"/>
     </g>
     <g id="line2d_4">
      <g>
       <use style="stroke:#000000;stroke-width:0.8;" x="192.630569" xlink:href="#m397069d9fd" y="345.6"/>
      </g>
     </g>
     <g id="text_2">
      <!-- Apr -->
      <defs>
       <path d="M 34.1875 63.1875 
L 20.796875 26.90625 
L 47.609375 26.90625 
z
M 28.609375 72.90625 
L 39.796875 72.90625 
L 67.578125 0 
L 57.328125 0 
L 50.6875 18.703125 
L 17.828125 18.703125 
L 11.1875 0 
L 0.78125 0 
z
" id="DejaVuSans-41"/>
       <path d="M 18.109375 8.203125 
L 18.109375 -20.796875 
L 9.078125 -20.796875 
L 9.078125 54.6875 
L 18.109375 54.6875 
L 18.109375 46.390625 
Q 20.953125 51.265625 25.265625 53.625 
Q 29.59375 56 35.59375 56 
Q 45.5625 56 51.78125 48.09375 
Q 58.015625 40.1875 58.015625 27.296875 
Q 58.015625 14.40625 51.78125 6.484375 
Q 45.5625 -1.421875 35.59375 -1.421875 
Q 29.59375 -1.421875 25.265625 0.953125 
Q 20.953125 3.328125 18.109375 8.203125 
M 48.6875 27.296875 
Q 48.6875 37.203125 44.609375 42.84375 
Q 40.53125 48.484375 33.40625 48.484375 
Q 26.265625 48.484375 22.1875 42.84375 
Q 18.109375 37.203125 18.109375 27.296875 
Q 18.109375 17.390625 22.1875 11.75 
Q 26.265625 6.109375 33.40625 6.109375 
Q 40.53125 6.109375 44.609375 11.75 
Q 48.6875 17.390625 48.6875 27.296875 
" id="DejaVuSans-70"/>
       <path d="M 41.109375 46.296875 
Q 39.59375 47.171875 37.8125 47.578125 
Q 36.03125 48 33.890625 48 
Q 26.265625 48 22.1875 43.046875 
Q 18.109375 38.09375 18.109375 28.8125 
L 18.109375 0 
L 9.078125 0 
L 9.078125 54.6875 
L 18.109375 54.6875 
L 18.109375 46.1875 
Q 20.953125 51.171875 25.484375 53.578125 
Q 30.03125 56 36.53125 56 
Q 37.453125 56 38.578125 55.875 
Q 39.703125 55.765625 41.0625 55.515625 
z
" id="DejaVuSans-72"/>
      </defs>
      <g transform="translate(176.608486 367.83044)rotate(-30)scale(0.1 -0.1)">
       <use xlink:href="#DejaVuSans-41"/>
       <use x="68.408203" xlink:href="#DejaVuSans-70"/>
       <use x="131.884766" xlink:href="#DejaVuSans-72"/>
      </g>
     </g>
    </g>
    <g id="xtick_3">
     <g id="line2d_5">
      <path clip-path="url(#p438bdccea2)" d="M 294.085115 345.6 
L 294.085115 51.84 
" style="fill:none;stroke:#b0b0b0;stroke-linecap:square;stroke-width:0.8;"/>
     </g>
     <g id="line2d_6">
      <g>
       <use style="stroke:#000000;stroke-width:0.8;" x="294.085115" xlink:href="#m397069d9fd" y="345.6"/>
      </g>
     </g>
     <g id="text_3">
      <!-- Jul -->
      <defs>
       <path d="M 8.5 21.578125 
L 8.5 54.6875 
L 17.484375 54.6875 
L 17.484375 21.921875 
Q 17.484375 14.15625 20.5 10.265625 
Q 23.53125 6.390625 29.59375 6.390625 
Q 36.859375 6.390625 41.078125 11.03125 
Q 45.3125 15.671875 45.3125 23.6875 
L 45.3125 54.6875 
L 54.296875 54.6875 
L 54.296875 0 
L 45.3125 0 
L 45.3125 8.40625 
Q 42.046875 3.421875 37.71875 1 
Q 33.40625 -1.421875 27.6875 -1.421875 
Q 18.265625 -1.421875 13.375 4.4375 
Q 8.5 10.296875 8.5 21.578125 
M 31.109375 56 
z
" id="DejaVuSans-75"/>
       <path d="M 9.421875 75.984375 
L 18.40625 75.984375 
L 18.40625 0 
L 9.421875 0 
z
" id="DejaVuSans-6c"/>
      </defs>
      <g transform="translate(282.596133 365.213252)rotate(-30)scale(0.1 -0.1)">
       <use xlink:href="#DejaVuSans-4a"/>
       <use x="29.492188" xlink:href="#DejaVuSans-75"/>
       <use x="92.871094" xlink:href="#DejaVuSans-6c"/>
      </g>
     </g>
    </g>
    <g id="xtick_4">
     <g id="line2d_7">
      <path clip-path="url(#p438bdccea2)" d="M 396.654545 345.6 
L 396.654545 51.84 
" style="fill:none;stroke:#b0b0b0;stroke-linecap:square;stroke-width:0.8;"/>
     </g>
     <g id="line2d_8">
      <g>
       <use style="stroke:#000000;stroke-width:0.8;" x="396.654545" xlink:href="#m397069d9fd" y="345.6"/>
      </g>
     </g>
     <g id="text_4">
      <!-- Oct -->
      <defs>
       <path d="M 39.40625 66.21875 
Q 28.65625 66.21875 22.328125 58.203125 
Q 16.015625 50.203125 16.015625 36.375 
Q 16.015625 22.609375 22.328125 14.59375 
Q 28.65625 6.59375 39.40625 6.59375 
Q 50.140625 6.59375 56.421875 14.59375 
Q 62.703125 22.609375 62.703125 36.375 
Q 62.703125 50.203125 56.421875 58.203125 
Q 50.140625 66.21875 39.40625 66.21875 
M 39.40625 74.21875 
Q 54.734375 74.21875 63.90625 63.9375 
Q 73.09375 53.65625 73.09375 36.375 
Q 73.09375 19.140625 63.90625 8.859375 
Q 54.734375 -1.421875 39.40625 -1.421875 
Q 24.03125 -1.421875 14.8125 8.828125 
Q 5.609375 19.09375 5.609375 36.375 
Q 5.609375 53.65625 14.8125 63.9375 
Q 24.03125 74.21875 39.40625 74.21875 
" id="DejaVuSans-4f"/>
       <path d="M 48.78125 52.59375 
L 48.78125 44.1875 
Q 44.96875 46.296875 41.140625 47.34375 
Q 37.3125 48.390625 33.40625 48.390625 
Q 24.65625 48.390625 19.8125 42.84375 
Q 14.984375 37.3125 14.984375 27.296875 
Q 14.984375 17.28125 19.8125 11.734375 
Q 24.65625 6.203125 33.40625 6.203125 
Q 37.3125 6.203125 41.140625 7.25 
Q 44.96875 8.296875 48.78125 10.40625 
L 48.78125 2.09375 
Q 45.015625 0.34375 40.984375 -0.53125 
Q 36.96875 -1.421875 32.421875 -1.421875 
Q 20.0625 -1.421875 12.78125 6.34375 
Q 5.515625 14.109375 5.515625 27.296875 
Q 5.515625 40.671875 12.859375 48.328125 
Q 20.21875 56 33.015625 56 
Q 37.15625 56 41.109375 55.140625 
Q 45.0625 54.296875 48.78125 52.59375 
" id="DejaVuSans-63"/>
       <path d="M 18.3125 70.21875 
L 18.3125 54.6875 
L 36.8125 54.6875 
L 36.8125 47.703125 
L 18.3125 47.703125 
L 18.3125 18.015625 
Q 18.3125 11.328125 20.140625 9.421875 
Q 21.96875 7.515625 27.59375 7.515625 
L 36.8125 7.515625 
L 36.8125 0 
L 27.59375 0 
Q 17.1875 0 13.234375 3.875 
Q 9.28125 7.765625 9.28125 18.015625 
L 9.28125 47.703125 
L 2.6875 47.703125 
L 2.6875 54.6875 
L 9.28125 54.6875 
L 9.28125 70.21875 
z
" id="DejaVuSans-74"/>
      </defs>
      <g transform="translate(380.640581 367.825752)rotate(-30)scale(0.1 -0.1)">
       <use xlink:href="#DejaVuSans-4f"/>
       <use x="78.710938" xlink:href="#DejaVuSans-63"/>
       <use x="133.691406" xlink:href="#DejaVuSans-74"/>
      </g>
     </g>
    </g>
    <g id="xtick_5">
     <g id="line2d_9">
      <path clip-path="url(#p438bdccea2)" d="M 499.223976 345.6 
L 499.223976 51.84 
" style="fill:none;stroke:#b0b0b0;stroke-linecap:square;stroke-width:0.8;"/>
     </g>
     <g id="line2d_10">
      <g>
       <use style="stroke:#000000;stroke-width:0.8;" x="499.223976" xlink:href="#m397069d9fd" y="345.6"/>
      </g>
     </g>
     <g id="text_5">
      <!-- Jan -->
      <g transform="translate(484.833809 366.888252)rotate(-30)scale(0.1 -0.1)">
       <use xlink:href="#DejaVuSans-4a"/>
       <use x="29.492188" xlink:href="#DejaVuSans-61"/>
       <use x="90.771484" xlink:href="#DejaVuSans-6e"/>
      </g>
     </g>
    </g>
   </g>
   <g id="matplotlib.axis_2">
    <g id="ytick_1">
     <g id="line2d_11">
      <path clip-path="url(#p438bdccea2)" d="M 72 321.992572 
L 518.4 321.992572 
" style="fill:none;stroke:#b0b0b0;stroke-linecap:square;stroke-width:0.8;"/>
     </g>
     <g id="line2d_12">
      <defs>
       <path d="M 0 0 
L -3.5 0 
" id="m5b302c923c" style="stroke:#000000;stroke-width:0.8;"/>
      </defs>
      <g>
       <use style="stroke:#000000;stroke-width:0.8;" x="72" xlink:href="#m5b302c923c" y="321.992572"/>
      </g>
     </g>
     <g id="text_6">
      <!-- −6 -->
      <defs>
       <path d="M 10.59375 35.5 
L 73.1875 35.5 
L 73.1875 27.203125 
L 10.59375 27.203125 
z
" id="DejaVuSans-2212"/>
       <path d="M 33.015625 40.375 
Q 26.375 40.375 22.484375 35.828125 
Q 18.609375 31.296875 18.609375 23.390625 
Q 18.609375 15.53125 22.484375 10.953125 
Q 26.375 6.390625 33.015625 6.390625 
Q 39.65625 6.390625 43.53125 10.953125 
Q 47.40625 15.53125 47.40625 23.390625 
Q 47.40625 31.296875 43.53125 35.828125 
Q 39.65625 40.375 33.015625 40.375 
M 52.59375 71.296875 
L 52.59375 62.3125 
Q 48.875 64.0625 45.09375 64.984375 
Q 41.3125 65.921875 37.59375 65.921875 
Q 27.828125 65.921875 22.671875 59.328125 
Q 17.53125 52.734375 16.796875 39.40625 
Q 19.671875 43.65625 24.015625 45.921875 
Q 28.375 48.1875 33.59375 48.1875 
Q 44.578125 48.1875 50.953125 41.515625 
Q 57.328125 34.859375 57.328125 23.390625 
Q 57.328125 12.15625 50.6875 5.359375 
Q 44.046875 -1.421875 33.015625 -1.421875 
Q 20.359375 -1.421875 13.671875 8.265625 
Q 6.984375 17.96875 6.984375 36.375 
Q 6.984375 53.65625 15.1875 63.9375 
Q 23.390625 74.21875 37.203125 74.21875 
Q 40.921875 74.21875 44.703125 73.484375 
Q 48.484375 72.75 52.59375 71.296875 
" id="DejaVuSans-36"/>
      </defs>
      <g transform="translate(50.257812 325.791791)scale(0.1 -0.1)">
       <use xlink:href="#DejaVuSans-2212"/>
       <use x="83.789062" xlink:href="#DejaVuSans-36"/>
      </g>
     </g>
    </g>
    <g id="ytick_2">
     <g id="line2d_13">
      <path clip-path="url(#p438bdccea2)" d="M 72 288.175123 
L 518.4 288.175123 
" style="fill:none;stroke:#b0b0b0;stroke-linecap:square;stroke-width:0.8;"/>
     </g>
     <g id="line2d_14">
      <g>
       <use style="stroke:#000000;stroke-width:0.8;" x="72" xlink:href="#m5b302c923c" y="288.175123"/>
      </g>
     </g>
     <g id="text_7">
      <!-- −4 -->
      <defs>
       <path d="M 37.796875 64.3125 
L 12.890625 25.390625 
L 37.796875 25.390625 
z
M 35.203125 72.90625 
L 47.609375 72.90625 
L 47.609375 25.390625 
L 58.015625 25.390625 
L 58.015625 17.1875 
L 47.609375 17.1875 
L 47.609375 0 
L 37.796875 0 
L 37.796875 17.1875 
L 4.890625 17.1875 
L 4.890625 26.703125 
z
" id="DejaVuSans-34"/>
      </defs>
      <g transform="translate(50.257812 291.974342)scale(0.1 -0.1)">
       <use xlink:href="#DejaVuSans-2212"/>
       <use x="83.789062" xlink:href="#DejaVuSans-34"/>
      </g>
     </g>
    </g>
    <g id="ytick_3">
     <g id="line2d_15">
      <path clip-path="url(#p438bdccea2)" d="M 72 254.357674 
L 518.4 254.357674 
" style="fill:none;stroke:#b0b0b0;stroke-linecap:square;stroke-width:0.8;"/>
     </g>
     <g id="line2d_16">
      <g>
       <use style="stroke:#000000;stroke-width:0.8;" x="72" xlink:href="#m5b302c923c" y="254.357674"/>
      </g>
     </g>
     <g id="text_8">
      <!-- −2 -->
      <defs>
       <path d="M 19.1875 8.296875 
L 53.609375 8.296875 
L 53.609375 0 
L 7.328125 0 
L 7.328125 8.296875 
Q 12.9375 14.109375 22.625 23.890625 
Q 32.328125 33.6875 34.8125 36.53125 
Q 39.546875 41.84375 41.421875 45.53125 
Q 43.3125 49.21875 43.3125 52.78125 
Q 43.3125 58.59375 39.234375 62.25 
Q 35.15625 65.921875 28.609375 65.921875 
Q 23.96875 65.921875 18.8125 64.3125 
Q 13.671875 62.703125 7.8125 59.421875 
L 7.8125 69.390625 
Q 13.765625 71.78125 18.9375 73 
Q 24.125 74.21875 28.421875 74.21875 
Q 39.75 74.21875 46.484375 68.546875 
Q 53.21875 62.890625 53.21875 53.421875 
Q 53.21875 48.921875 51.53125 44.890625 
Q 49.859375 40.875 45.40625 35.40625 
Q 44.1875 33.984375 37.640625 27.21875 
Q 31.109375 20.453125 19.1875 8.296875 
" id="DejaVuSans-32"/>
      </defs>
      <g transform="translate(50.257812 258.156892)scale(0.1 -0.1)">
       <use xlink:href="#DejaVuSans-2212"/>
       <use x="83.789062" xlink:href="#DejaVuSans-32"/>
      </g>
     </g>
    </g>
    <g id="ytick_4">
     <g id="line2d_17">
      <path clip-path="url(#p438bdccea2)" d="M 72 220.540224 
L 518.4 220.540224 
" style="fill:none;stroke:#b0b0b0;stroke-linecap:square;stroke-width:0.8;"/>
     </g>
     <g id="line2d_18">
      <g>
       <use style="stroke:#000000;stroke-width:0.8;" x="72" xlink:href="#m5b302c923c" y="220.540224"/>
      </g>
     </g>
     <g id="text_9">
      <!-- 0 -->
      <defs>
       <path d="M 31.78125 66.40625 
Q 24.171875 66.40625 20.328125 58.90625 
Q 16.5 51.421875 16.5 36.375 
Q 16.5 21.390625 20.328125 13.890625 
Q 24.171875 6.390625 31.78125 6.390625 
Q 39.453125 6.390625 43.28125 13.890625 
Q 47.125 21.390625 47.125 36.375 
Q 47.125 51.421875 43.28125 58.90625 
Q 39.453125 66.40625 31.78125 66.40625 
M 31.78125 74.21875 
Q 44.046875 74.21875 50.515625 64.515625 
Q 56.984375 54.828125 56.984375 36.375 
Q 56.984375 17.96875 50.515625 8.265625 
Q 44.046875 -1.421875 31.78125 -1.421875 
Q 19.53125 -1.421875 13.0625 8.265625 
Q 6.59375 17.96875 6.59375 36.375 
Q 6.59375 54.828125 13.0625 64.515625 
Q 19.53125 74.21875 31.78125 74.21875 
" id="DejaVuSans-30"/>
      </defs>
      <g transform="translate(58.6375 224.339443)scale(0.1 -0.1)">
       <use xlink:href="#DejaVuSans-30"/>
      </g>
     </g>
    </g>
    <g id="ytick_5">
     <g id="line2d_19">
      <path clip-path="url(#p438bdccea2)" d="M 72 186.722775 
L 518.4 186.722775 
" style="fill:none;stroke:#b0b0b0;stroke-linecap:square;stroke-width:0.8;"/>
     </g>
     <g id="line2d_20">
      <g>
       <use style="stroke:#000000;stroke-width:0.8;" x="72" xlink:href="#m5b302c923c" y="186.722775"/>
      </g>
     </g>
     <g id="text_10">
      <!-- 2 -->
      <g transform="translate(58.6375 190.521993)scale(0.1 -0.1)">
       <use xlink:href="#DejaVuSans-32"/>
      </g>
     </g>
    </g>
    <g id="ytick_6">
     <g id="line2d_21">
      <path clip-path="url(#p438bdccea2)" d="M 72 152.905325 
L 518.4 152.905325 
" style="fill:none;stroke:#b0b0b0;stroke-linecap:square;stroke-width:0.8;"/>
     </g>
     <g id="line2d_22">
      <g>
       <use style="stroke:#000000;stroke-width:0.8;" x="72" xlink:href="#m5b302c923c" y="152.905325"/>
      </g>
     </g>
     <g id="text_11">
      <!-- 4 -->
      <g transform="translate(58.6375 156.704544)scale(0.1 -0.1)">
       <use xlink:href="#DejaVuSans-34"/>
      </g>
     </g>
    </g>
    <g id="ytick_7">
     <g id="line2d_23">
      <path clip-path="url(#p438bdccea2)" d="M 72 119.087876 
L 518.4 119.087876 
" style="fill:none;stroke:#b0b0b0;stroke-linecap:square;stroke-width:0.8;"/>
     </g>
     <g id="line2d_24">
      <g>
       <use style="stroke:#000000;stroke-width:0.8;" x="72" xlink:href="#m5b302c923c" y="119.087876"/>
      </g>
     </g>
     <g id="text_12">
      <!-- 6 -->
      <g transform="translate(58.6375 122.887095)scale(0.1 -0.1)">
       <use xlink:href="#DejaVuSans-36"/>
      </g>
     </g>
    </g>
    <g id="ytick_8">
     <g id="line2d_25">
      <path clip-path="url(#p438bdccea2)" d="M 72 85.270426 
L 518.4 85.270426 
" style="fill:none;stroke:#b0b0b0;stroke-linecap:square;stroke-width:0.8;"/>
     </g>
     <g id="line2d_26">
      <g>
       <use style="stroke:#000000;stroke-width:0.8;" x="72" xlink:href="#m5b302c923c" y="85.270426"/>
      </g>
     </g>
     <g id="text_13">
      <!-- 8 -->
      <defs>
       <path d="M 31.78125 34.625 
Q 24.75 34.625 20.71875 30.859375 
Q 16.703125 27.09375 16.703125 20.515625 
Q 16.703125 13.921875 20.71875 10.15625 
Q 24.75 6.390625 31.78125 6.390625 
Q 38.8125 6.390625 42.859375 10.171875 
Q 46.921875 13.96875 46.921875 20.515625 
Q 46.921875 27.09375 42.890625 30.859375 
Q 38.875 34.625 31.78125 34.625 
M 21.921875 38.8125 
Q 15.578125 40.375 12.03125 44.71875 
Q 8.5 49.078125 8.5 55.328125 
Q 8.5 64.0625 14.71875 69.140625 
Q 20.953125 74.21875 31.78125 74.21875 
Q 42.671875 74.21875 48.875 69.140625 
Q 55.078125 64.0625 55.078125 55.328125 
Q 55.078125 49.078125 51.53125 44.71875 
Q 48 40.375 41.703125 38.8125 
Q 48.828125 37.15625 52.796875 32.3125 
Q 56.78125 27.484375 56.78125 20.515625 
Q 56.78125 9.90625 50.3125 4.234375 
Q 43.84375 -1.421875 31.78125 -1.421875 
Q 19.734375 -1.421875 13.25 4.234375 
Q 6.78125 9.90625 6.78125 20.515625 
Q 6.78125 27.484375 10.78125 32.3125 
Q 14.796875 37.15625 21.921875 38.8125 
M 18.3125 54.390625 
Q 18.3125 48.734375 21.84375 45.5625 
Q 25.390625 42.390625 31.78125 42.390625 
Q 38.140625 42.390625 41.71875 45.5625 
Q 45.3125 48.734375 45.3125 54.390625 
Q 45.3125 60.0625 41.71875 63.234375 
Q 38.140625 66.40625 31.78125 66.40625 
Q 25.390625 66.40625 21.84375 63.234375 
Q 18.3125 60.0625 18.3125 54.390625 
" id="DejaVuSans-38"/>
      </defs>
      <g transform="translate(58.6375 89.069645)scale(0.1 -0.1)">
       <use xlink:href="#DejaVuSans-38"/>
      </g>
     </g>
    </g>
    <g id="ytick_9">
     <g id="line2d_27">
      <path clip-path="url(#p438bdccea2)" d="M 72 51.452977 
L 518.4 51.452977 
" style="fill:none;stroke:#b0b0b0;stroke-linecap:square;stroke-width:0.8;"/>
     </g>
     <g id="line2d_28">
      <g>
       <use style="stroke:#000000;stroke-width:0.8;" x="72" xlink:href="#m5b302c923c" y="51.452977"/>
      </g>
     </g>
     <g id="text_14">
      <!-- 10 -->
      <defs>
       <path d="M 12.40625 8.296875 
L 28.515625 8.296875 
L 28.515625 63.921875 
L 10.984375 60.40625 
L 10.984375 69.390625 
L 28.421875 72.90625 
L 38.28125 72.90625 
L 38.28125 8.296875 
L 54.390625 8.296875 
L 54.390625 0 
L 12.40625 0 
z
" id="DejaVuSans-31"/>
      </defs>
      <g transform="translate(52.275 55.252196)scale(0.1 -0.1)">
       <use xlink:href="#DejaVuSans-31"/>
       <use x="63.623047" xlink:href="#DejaVuSans-30"/>
      </g>
     </g>
    </g>
   </g>
   <g id="line2d_29">
    <path clip-path="url(#p438bdccea2)" d="M 92.290909 226.89879 
L 93.405794 242.217329 
L 94.520679 233.348598 
L 95.635564 240.913504 
L 96.75045 234.392467 
L 97.865335 231.894471 
L 98.98022 238.850672 
L 100.095105 244.108165 
L 101.20999 230.355675 
L 102.324875 230.957014 
L 103.43976 232.946969 
L 104.554645 232.686482 
L 105.66953 229.110253 
L 106.784416 229.74634 
L 107.899301 239.659937 
L 109.014186 233.878765 
L 110.129071 229.842146 
L 111.243956 234.345307 
L 112.358841 236.106482 
L 113.473726 229.011625 
L 114.588611 236.319649 
L 115.703497 235.779618 
L 116.818382 238.295526 
L 117.933267 233.683742 
L 119.048152 239.460554 
L 120.163037 242.858151 
L 121.277922 241.722193 
L 122.392807 245.789695 
L 123.507692 257.785356 
L 124.622577 232.117343 
L 125.737463 239.746724 
L 126.852348 225.642848 
L 127.967233 248.471359 
L 129.082118 231.501812 
L 130.197003 231.180057 
L 131.311888 235.697094 
L 132.426773 228.941928 
L 135.771429 246.669225 
L 136.886314 246.828749 
L 138.001199 229.174815 
L 139.116084 247.536844 
L 140.230969 236.276072 
L 141.345854 234.269241 
L 142.460739 230.895583 
L 143.575624 230.479274 
L 144.690509 250.524551 
L 145.805395 247.751922 
L 146.92028 230.666012 
L 148.035165 232.83846 
L 149.15005 232.042628 
L 150.264935 233.977315 
L 151.37982 238.433198 
L 152.494705 228.010341 
L 153.60959 236.397981 
L 154.724476 241.058028 
L 155.839361 228.93537 
L 156.954246 236.984054 
L 158.069131 236.146551 
L 159.184016 237.654331 
L 160.298901 274.040638 
L 161.413786 235.474922 
L 162.528671 227.68995 
L 163.643556 247.136288 
L 164.758442 235.009967 
L 165.873327 230.950186 
L 166.988212 232.715925 
L 168.103097 248.089423 
L 169.217982 238.519985 
L 170.332867 237.863831 
L 171.447752 242.573937 
L 172.562637 226.68222 
L 173.677522 235.54908 
L 174.792408 236.667813 
L 175.907293 234.964553 
L 177.022178 243.110358 
L 178.137063 243.697397 
L 179.251948 240.434251 
L 180.366833 229.813583 
L 181.481718 237.766307 
L 182.596603 239.29931 
L 183.711489 237.397598 
L 184.826374 229.017173 
L 185.941259 256.304478 
L 187.056144 245.66346 
L 188.171029 245.46354 
L 189.285914 243.865561 
L 190.400799 254.125085 
L 191.515684 232.283301 
L 192.630569 231.593399 
L 193.745455 236.476915 
L 194.86034 242.568586 
L 195.975225 236.047025 
L 197.09011 236.369216 
L 198.204995 272.577438 
L 199.31988 234.601236 
L 200.434765 255.050995 
L 201.54965 249.274971 
L 202.664535 242.576285 
L 203.779421 252.03168 
L 204.894306 238.1852 
L 206.009191 249.625673 
L 207.124076 252.446821 
L 208.238961 283.158245 
L 209.353846 246.101008 
L 210.468731 254.65718 
L 211.583616 245.2906 
L 212.698501 254.790308 
L 213.813387 247.454317 
L 214.928272 243.022691 
L 216.043157 252.98381 
L 217.158042 237.607765 
L 218.272927 234.34455 
L 219.387812 268.422739 
L 220.502697 266.266594 
L 221.617582 251.145745 
L 222.732468 248.722059 
L 223.847353 235.656485 
L 224.962238 253.638959 
L 226.077123 233.646891 
L 227.192008 266.126033 
L 228.306893 284.339174 
L 229.421778 272.436413 
L 230.536663 255.595465 
L 231.651548 263.410606 
L 232.766434 242.939682 
L 233.881319 255.110015 
L 234.996204 252.363009 
L 236.111089 260.426553 
L 237.225974 245.065172 
L 238.340859 242.279979 
L 239.455744 259.024408 
L 240.570629 289.348485 
L 241.685514 306.376689 
L 242.8004 245.911266 
L 243.915285 304.500959 
L 245.03017 238.572223 
L 246.145055 237.585869 
L 247.25994 233.188572 
L 248.374825 253.696865 
L 249.48971 264.640907 
L 250.604595 245.44851 
L 251.719481 277.895375 
L 252.834366 252.601201 
L 253.949251 246.704824 
L 255.064136 278.767668 
L 256.179021 274.876173 
L 257.293906 239.541812 
L 259.523676 256.689171 
L 260.638561 255.213265 
L 261.753447 265.964294 
L 262.868332 253.252374 
L 263.983217 272.237185 
L 265.098102 231.485138 
L 266.212987 253.531522 
L 267.327872 236.633895 
L 268.442757 263.665039 
L 269.557642 267.247537 
L 270.672527 243.339034 
L 271.787413 277.894234 
L 275.132068 251.108336 
L 276.246953 248.578339 
L 278.476723 266.104953 
L 279.591608 255.099452 
L 280.706494 237.315729 
L 281.821379 236.659893 
L 282.936264 244.812553 
L 284.051149 250.732603 
L 285.166034 230.685561 
L 286.280919 263.277522 
L 287.395804 262.296619 
L 288.510689 253.290937 
L 289.625574 233.100249 
L 290.74046 268.874737 
L 292.97023 248.833747 
L 294.085115 229.546495 
L 296.314885 246.80299 
L 297.42977 239.571105 
L 298.544655 254.255117 
L 299.65954 247.214799 
L 300.774426 229.81572 
L 301.889311 252.036999 
L 303.004196 242.814145 
L 304.119081 227.372323 
L 305.233966 228.838883 
L 306.348851 296.414478 
L 307.463736 241.651152 
L 308.578621 238.368412 
L 309.693506 253.345764 
L 310.808392 232.181271 
L 311.923277 234.101341 
L 313.038162 278.682931 
L 314.153047 286.728538 
L 315.267932 304.042045 
L 316.382817 232.002896 
L 317.497702 240.976287 
L 318.612587 256.943655 
L 319.727473 250.44362 
L 320.842358 275.72534 
L 321.957243 234.089172 
L 323.072128 242.353 
L 324.187013 246.454847 
L 325.301898 258.721362 
L 326.416783 247.786624 
L 327.531668 246.696391 
L 328.646553 238.303118 
L 329.761439 253.262382 
L 330.876324 239.674142 
L 331.991209 250.776999 
L 333.106094 250.489093 
L 334.220979 232.984168 
L 335.335864 245.717199 
L 336.450749 254.232002 
L 337.565634 245.42794 
L 338.680519 240.014851 
L 339.795405 253.205905 
L 340.91029 250.503467 
L 342.025175 266.53686 
L 343.14006 241.832659 
L 344.254945 249.449054 
L 345.36983 228.107196 
L 347.5996 287.006189 
L 348.714486 250.31732 
L 349.829371 248.477872 
L 350.944256 245.172161 
L 352.059141 225.774562 
L 353.174026 267.440051 
L 354.288911 241.483221 
L 355.403796 242.69098 
L 356.518681 245.215679 
L 357.633566 243.979089 
L 358.748452 229.86151 
L 359.863337 242.764074 
L 360.978222 236.265393 
L 362.093107 237.099713 
L 363.207992 251.893228 
L 364.322877 240.681674 
L 365.437762 245.904731 
L 366.552647 240.011349 
L 367.667532 250.451354 
L 368.782418 258.108622 
L 369.897303 251.919223 
L 371.012188 249.840867 
L 372.127073 236.115775 
L 373.241958 259.354454 
L 374.356843 266.053252 
L 375.471728 240.301557 
L 376.586613 263.673371 
L 377.701499 237.645597 
L 378.816384 253.667071 
L 379.931269 332.247273 
L 381.046154 256.435093 
L 382.161039 244.005019 
L 384.390809 239.921227 
L 385.505694 254.533985 
L 386.620579 255.68002 
L 387.735465 236.313994 
L 388.85035 237.769745 
L 389.965235 252.427184 
L 391.08012 233.035532 
L 392.195005 246.641775 
L 393.30989 232.160387 
L 394.424775 251.446536 
L 395.53966 262.716621 
L 396.654545 239.402319 
L 397.769431 257.571685 
L 398.884316 253.972302 
L 399.999201 261.108089 
L 401.114086 252.753538 
L 402.228971 249.810599 
L 403.343856 254.267621 
L 404.458741 234.252694 
L 405.573626 249.037845 
L 406.688511 239.620628 
L 407.803397 233.79787 
L 408.918282 237.589386 
L 410.033167 260.766957 
L 411.148052 253.125098 
L 412.262937 298.109306 
L 413.377822 243.509683 
L 414.492707 242.245965 
L 415.607592 236.130422 
L 416.722478 234.959016 
L 417.837363 253.691384 
L 418.952248 244.031191 
L 420.067133 237.978277 
L 421.182018 234.323133 
L 422.296903 269.117838 
L 423.411788 237.561627 
L 424.526673 234.196659 
L 425.641558 244.36526 
L 426.756444 290.974495 
L 427.871329 246.818977 
L 428.986214 232.824008 
L 430.101099 237.660029 
L 431.215984 270.545674 
L 432.330869 240.153648 
L 433.445754 247.275659 
L 434.560639 240.525556 
L 435.675524 236.152658 
L 436.79041 232.238075 
L 437.905295 235.096494 
L 439.02018 239.099562 
L 440.135065 233.968197 
L 441.24995 236.211487 
L 442.364835 231.806168 
L 443.47972 241.183863 
L 444.594605 233.933508 
L 445.709491 232.825497 
L 446.824376 233.500579 
L 447.939261 240.538236 
L 449.054146 229.275095 
L 450.169031 234.623134 
L 451.283916 247.087744 
L 452.398801 256.283303 
L 453.513686 253.243028 
L 454.628571 231.946705 
L 455.743457 232.343589 
L 456.858342 233.000303 
L 457.973227 250.896868 
L 459.088112 234.736881 
L 460.202997 238.727284 
L 461.317882 239.834483 
L 462.432767 236.048262 
L 463.547652 227.639302 
L 464.662537 238.643775 
L 465.777423 237.411785 
L 466.892308 230.951366 
L 468.007193 238.529901 
L 469.122078 235.74801 
L 470.236963 246.239147 
L 471.351848 230.219717 
L 472.466733 231.273069 
L 473.581618 237.12476 
L 474.696503 229.618647 
L 475.811389 229.947553 
L 476.926274 252.526244 
L 478.041159 234.193517 
L 479.156044 231.511587 
L 480.270929 225.230202 
L 481.385814 233.75697 
L 482.500699 237.106877 
L 483.615584 233.720132 
L 484.73047 234.529622 
L 485.845355 256.998237 
L 488.075125 227.642488 
L 489.19001 252.201811 
L 490.304895 238.09334 
L 491.41978 232.655501 
L 492.534665 239.696 
L 493.64955 236.620006 
L 494.764436 230.391643 
L 495.879321 241.194325 
L 496.994206 227.15036 
L 498.109091 238.795089 
L 498.109091 238.795089 
" style="fill:none;stroke:#1f77b4;stroke-linecap:square;stroke-width:1.5;"/>
   </g>
   <g id="line2d_30">
    <path clip-path="url(#p438bdccea2)" d="M 92.290909 217.029439 
L 93.405794 213.402865 
L 94.520679 214.764935 
L 95.635564 209.909741 
L 96.75045 211.221531 
L 97.865335 213.64764 
L 98.98022 212.140069 
L 100.095105 208.857885 
L 101.20999 213.97755 
L 102.324875 215.717039 
L 103.43976 213.648925 
L 104.554645 214.698818 
L 105.66953 217.717614 
L 106.784416 214.79708 
L 107.899301 211.38476 
L 109.014186 212.664541 
L 110.129071 216.142166 
L 111.243956 212.041062 
L 112.358841 213.352378 
L 113.473726 215.389295 
L 114.588611 212.33612 
L 115.703497 210.204799 
L 116.818382 211.319523 
L 117.933267 212.69804 
L 119.048152 208.82662 
L 120.163037 209.811004 
L 121.277922 209.515946 
L 122.392807 209.873129 
L 123.507692 211.482143 
L 124.622577 216.601198 
L 125.737463 214.076557 
L 126.852348 217.390073 
L 127.967233 210.826451 
L 129.082118 213.78001 
L 130.197003 215.388482 
L 131.311888 212.466955 
L 132.426773 216.274334 
L 133.541658 213.322534 
L 134.656543 205.972339 
L 135.771429 207.317222 
L 136.886314 209.942698 
L 138.001199 215.058978 
L 139.116084 204.723553 
L 140.230969 209.384253 
L 141.345854 204.953644 
L 142.460739 213.091157 
L 143.575624 215.454126 
L 144.690509 205.348386 
L 145.805395 208.233729 
L 146.92028 209.282945 
L 148.035165 211.319523 
L 149.15005 215.421575 
L 150.264935 210.071278 
L 151.37982 210.796674 
L 152.494705 216.110833 
L 153.60959 211.715686 
L 154.724476 209.121611 
L 155.839361 216.110495 
L 156.954246 211.091394 
L 158.069131 211.419883 
L 159.184016 208.762059 
L 160.298901 203.082529 
L 161.413786 211.548802 
L 162.528671 215.027984 
L 163.643556 208.270205 
L 164.758442 212.895444 
L 165.873327 215.649636 
L 166.988212 212.796708 
L 168.103097 206.855145 
L 169.217982 211.024126 
L 170.332867 212.23779 
L 171.447752 210.402203 
L 172.562637 215.158797 
L 173.677522 211.745259 
L 174.792408 211.877629 
L 175.907293 211.778555 
L 177.022178 202.627963 
L 178.137063 204.394455 
L 179.251948 206.990019 
L 180.366833 215.715686 
L 181.481718 210.925525 
L 182.596603 196.945456 
L 183.711489 206.13726 
L 184.826374 214.370058 
L 185.941259 204.360956 
L 187.056144 206.824015 
L 188.171029 203.967027 
L 189.285914 207.086183 
L 190.400799 201.078908 
L 191.515684 210.695908 
L 192.630569 213.058674 
L 193.745455 193.996025 
L 194.86034 202.561034 
L 195.975225 209.447122 
L 197.09011 208.202126 
L 198.204995 193.637083 
L 199.31988 206.464531 
L 200.434765 205.120189 
L 201.54965 205.019017 
L 202.664535 205.216557 
L 203.779421 197.995686 
L 204.894306 208.071041 
L 206.009191 208.173364 
L 207.124076 205.54349 
L 208.238961 192.753126 
L 209.353846 205.971459 
L 210.468731 203.678127 
L 211.583616 202.130831 
L 212.698501 191.957079 
L 213.813387 201.638233 
L 214.928272 200.852472 
L 216.043157 204.595379 
L 217.158042 210.693945 
L 218.272927 211.976975 
L 219.387812 189.30609 
L 220.502697 188.18805 
L 221.617582 202.656387 
L 222.732468 198.490247 
L 223.847353 206.858664 
L 224.962238 199.346254 
L 226.077123 211.582639 
L 227.192008 196.126737 
L 228.306893 194.42325 
L 229.421778 204.457459 
L 230.536663 201.443874 
L 231.651548 203.351262 
L 232.766434 202.526791 
L 233.881319 192.84584 
L 234.996204 201.413285 
L 236.111089 193.931667 
L 237.225974 197.308797 
L 238.340859 212.66515 
L 239.455744 197.408074 
L 240.570629 192.643359 
L 241.685514 188.415367 
L 242.8004 192.155769 
L 243.915285 185.667265 
L 245.03017 201.640196 
L 246.145055 204.658789 
L 247.25994 210.959362 
L 248.374825 193.240649 
L 249.48971 191.235404 
L 250.604595 197.178524 
L 251.719481 192.940312 
L 252.834366 201.608863 
L 253.949251 207.643816 
L 255.064136 187.465631 
L 256.179021 197.731758 
L 257.293906 206.956385 
L 258.408791 205.809854 
L 259.523676 200.096554 
L 260.638561 202.849325 
L 261.753447 202.171909 
L 262.868332 202.558936 
L 263.983217 202.09422 
L 265.098102 212.403794 
L 266.212987 207.511852 
L 267.327872 207.543523 
L 268.442757 187.367639 
L 269.557642 194.09131 
L 270.672527 207.186002 
L 271.787413 191.111426 
L 272.902298 201.049403 
L 274.017183 202.036697 
L 275.132068 205.612179 
L 276.246953 206.235049 
L 277.361838 200.653916 
L 278.476723 198.66268 
L 279.591608 204.596326 
L 280.706494 208.856261 
L 281.821379 214.24141 
L 282.936264 206.003604 
L 284.051149 203.15318 
L 285.166034 215.682525 
L 286.280919 202.006176 
L 287.395804 211.685638 
L 288.510689 213.023822 
L 289.625574 215.092883 
L 290.74046 200.688701 
L 291.855345 209.450506 
L 292.97023 210.926473 
L 294.085115 215.422184 
L 295.2 211.8779 
L 296.314885 210.992455 
L 297.42977 212.303704 
L 298.544655 208.135805 
L 299.65954 209.778047 
L 300.774426 215.946115 
L 301.889311 208.92759 
L 303.004196 211.254082 
L 304.119081 216.203579 
L 305.233966 215.256789 
L 306.348851 194.524626 
L 307.463736 213.289442 
L 308.578621 213.220076 
L 309.693506 204.890978 
L 310.808392 214.207303 
L 311.923277 214.075948 
L 313.038162 202.687652 
L 314.153047 187.789721 
L 315.267932 197.644865 
L 316.382817 214.141794 
L 317.497702 206.793426 
L 318.612587 196.326104 
L 319.727473 198.191399 
L 320.842358 200.289935 
L 321.957243 210.893177 
L 323.072128 213.221497 
L 324.187013 209.845924 
L 325.301898 201.082157 
L 326.416783 210.141591 
L 327.531668 200.62414 
L 328.646553 209.319557 
L 329.761439 206.136651 
L 330.876324 208.299982 
L 331.991209 209.122829 
L 333.106094 208.269664 
L 334.220979 213.68168 
L 335.335864 206.662631 
L 336.450749 206.363274 
L 338.680519 213.616645 
L 339.795405 208.664812 
L 340.91029 198.294805 
L 343.14006 209.614615 
L 344.254945 206.365524 
L 345.36983 214.764868 
L 346.484715 202.393677 
L 347.5996 191.433756 
L 348.714486 202.693133 
L 349.829371 209.186916 
L 350.944256 208.82574 
L 352.059141 217.521698 
L 353.174026 202.730083 
L 354.288911 213.518924 
L 355.403796 212.535825 
L 356.518681 207.744176 
L 357.633566 211.484647 
L 358.748452 217.291878 
L 359.863337 212.369145 
L 360.978222 209.810734 
L 362.093107 210.829496 
L 363.207992 205.119986 
L 364.322877 212.863976 
L 365.437762 211.681646 
L 367.667532 211.614378 
L 368.782418 202.988598 
L 369.897303 204.818973 
L 371.012188 202.629195 
L 372.127073 213.799508 
L 373.241958 198.194039 
L 374.356843 193.374576 
L 375.471728 207.22011 
L 376.586613 202.628302 
L 377.701499 205.446513 
L 378.816384 209.518992 
L 379.931269 198.72 
L 381.046154 202.558733 
L 382.161039 203.184581 
L 383.275924 209.831434 
L 384.390809 206.693336 
L 385.505694 194.488352 
L 386.620579 204.229872 
L 387.735465 212.10772 
L 388.85035 210.663898 
L 389.965235 204.429171 
L 391.08012 214.337439 
L 392.195005 211.321215 
L 393.30989 215.159 
L 394.424775 209.053125 
L 395.53966 206.167172 
L 396.654545 212.043363 
L 397.769431 200.812476 
L 398.884316 210.234981 
L 399.999201 195.536824 
L 401.114086 207.222614 
L 402.228971 207.710949 
L 403.343856 204.787978 
L 404.458741 211.746545 
L 405.573626 206.067556 
L 406.688511 207.579661 
L 407.803397 210.990966 
L 408.918282 210.040622 
L 410.033167 200.693167 
L 411.148052 199.311673 
L 412.262937 204.6954 
L 413.377822 211.812053 
L 414.492707 211.616611 
L 415.607592 211.876885 
L 416.722478 213.353935 
L 417.837363 209.843962 
L 418.952248 209.940668 
L 420.067133 209.844165 
L 421.182018 213.716261 
L 422.296903 198.387112 
L 423.411788 213.258109 
L 424.526673 215.322094 
L 425.641558 207.514559 
L 426.756444 194.586547 
L 427.871329 202.457087 
L 428.986214 211.747695 
L 430.101099 211.123336 
L 431.215984 202.697059 
L 432.330869 209.998966 
L 433.445754 204.463144 
L 434.560639 213.38784 
L 436.79041 216.175936 
L 437.905295 213.452671 
L 439.02018 208.925356 
L 440.135065 212.102168 
L 441.24995 211.189318 
L 442.364835 214.731369 
L 443.47972 208.661157 
L 444.594605 209.679514 
L 445.709491 208.533457 
L 446.824376 214.2071 
L 447.939261 211.155955 
L 449.054146 215.322162 
L 451.283916 207.843048 
L 452.398801 212.799754 
L 453.513686 205.678296 
L 454.628571 213.091496 
L 456.858342 215.094439 
L 457.973227 204.098113 
L 459.088112 209.515879 
L 460.202997 211.123472 
L 461.317882 213.322061 
L 462.432767 212.267292 
L 463.547652 214.961596 
L 464.662537 213.001889 
L 465.777423 211.778961 
L 466.892308 214.107551 
L 468.007193 211.132338 
L 469.122078 210.99435 
L 470.236963 211.934085 
L 472.466733 214.731843 
L 473.581618 211.714941 
L 474.696503 215.126517 
L 475.811389 216.438984 
L 476.926274 209.582673 
L 478.041159 212.195641 
L 479.156044 214.134779 
L 480.270929 218.210754 
L 481.385814 214.208115 
L 482.500699 210.763108 
L 483.615584 214.731098 
L 484.73047 212.074696 
L 485.845355 208.63084 
L 488.075125 213.15829 
L 489.19001 202.532273 
L 490.304895 212.830816 
L 491.41978 211.71264 
L 492.534665 212.928537 
L 493.64955 212.338624 
L 494.764436 216.338691 
L 495.879321 210.172721 
L 496.994206 213.025987 
L 498.109091 212.534878 
L 498.109091 212.534878 
" style="fill:none;stroke:#ff7f0e;stroke-linecap:square;stroke-width:1.5;"/>
   </g>
   <g id="line2d_31">
    <path clip-path="url(#p438bdccea2)" d="M 92.290909 207.160087 
L 93.405794 184.588402 
L 94.520679 196.181273 
L 95.635564 178.905977 
L 96.75045 188.050595 
L 97.865335 195.400808 
L 98.98022 185.429465 
L 100.095105 173.607606 
L 101.20999 197.599424 
L 102.324875 200.477064 
L 103.43976 194.350882 
L 104.554645 196.711154 
L 105.66953 206.324975 
L 106.784416 199.847821 
L 107.899301 183.109584 
L 109.014186 191.450317 
L 110.129071 202.442187 
L 111.243956 189.736816 
L 112.358841 190.598275 
L 113.473726 201.766964 
L 114.588611 188.35259 
L 115.703497 184.62998 
L 116.818382 184.343519 
L 117.933267 191.712337 
L 119.048152 178.192686 
L 120.163037 176.763857 
L 121.277922 177.3097 
L 122.392807 173.956563 
L 123.507692 165.17893 
L 124.622577 201.085054 
L 125.737463 188.406389 
L 126.852348 209.137297 
L 127.967233 173.181543 
L 129.082118 196.058207 
L 130.197003 199.596908 
L 131.311888 189.236815 
L 132.426773 203.606739 
L 133.541658 191.778939 
L 134.656543 171.694212 
L 135.771429 167.965219 
L 136.886314 173.056647 
L 138.001199 200.943142 
L 139.116084 161.910261 
L 140.230969 182.492434 
L 141.345854 175.638047 
L 142.460739 195.286731 
L 143.575624 200.428978 
L 144.690509 160.17222 
L 145.805395 168.715536 
L 146.92028 187.899878 
L 148.035165 189.800586 
L 149.15005 198.800521 
L 150.264935 186.165241 
L 151.37982 183.160151 
L 152.494705 204.211326 
L 153.60959 187.03339 
L 154.724476 177.185193 
L 155.839361 203.28562 
L 156.954246 185.198735 
L 158.069131 186.693216 
L 159.184016 179.869787 
L 160.298901 132.124419 
L 161.413786 187.622681 
L 162.528671 202.366017 
L 163.643556 169.404123 
L 164.758442 190.780922 
L 165.873327 200.349086 
L 166.988212 192.877491 
L 168.103097 165.620867 
L 169.217982 183.528268 
L 170.332867 186.611748 
L 171.447752 178.23047 
L 172.562637 203.635374 
L 173.677522 187.941439 
L 174.792408 187.087445 
L 175.907293 188.592556 
L 177.022178 162.145569 
L 178.137063 165.091513 
L 179.251948 173.545786 
L 180.366833 201.617789 
L 181.481718 184.084744 
L 182.596603 154.591601 
L 183.711489 174.876923 
L 184.826374 199.722944 
L 185.941259 152.417434 
L 187.056144 167.984569 
L 188.171029 162.470513 
L 189.285914 170.306805 
L 190.400799 148.032732 
L 191.515684 189.108515 
L 192.630569 194.523949 
L 193.745455 151.515134 
L 194.86034 162.553482 
L 195.975225 182.847219 
L 197.09011 180.035035 
L 198.204995 114.696727 
L 199.31988 178.327826 
L 200.434765 155.189384 
L 201.54965 160.763063 
L 202.664535 167.856829 
L 203.779421 143.959693 
L 204.894306 177.956883 
L 206.009191 166.721056 
L 207.124076 158.640158 
L 208.238961 102.348008 
L 209.353846 165.841911 
L 210.468731 152.699074 
L 211.583616 158.971062 
L 212.698501 129.12385 
L 213.813387 155.822149 
L 214.928272 158.682252 
L 216.043157 156.206947 
L 217.158042 183.780126 
L 218.272927 189.609399 
L 219.387812 110.189441 
L 220.502697 110.109506 
L 221.617582 154.167028 
L 222.732468 148.258435 
L 223.847353 178.060842 
L 224.962238 145.053549 
L 226.077123 189.518387 
L 227.192008 126.127441 
L 228.306893 104.507326 
L 229.421778 136.478505 
L 230.536663 147.292282 
L 231.651548 143.291918 
L 232.766434 162.113901 
L 233.881319 130.581664 
L 234.996204 150.463561 
L 236.111089 127.436781 
L 237.225974 149.552421 
L 238.340859 183.050321 
L 239.455744 135.79174 
L 240.570629 95.938234 
L 241.685514 70.454046 
L 242.8004 138.400272 
L 243.915285 66.833572 
L 245.03017 164.708168 
L 246.145055 171.731709 
L 247.25994 188.730152 
L 248.374825 132.784433 
L 249.48971 117.829902 
L 250.604595 148.908539 
L 251.719481 107.98525 
L 252.834366 150.616524 
L 253.949251 168.582808 
L 255.064136 96.163594 
L 256.179021 120.587344 
L 257.293906 174.370957 
L 258.408791 163.789848 
L 259.523676 143.503937 
L 260.638561 150.485385 
L 261.753447 138.379524 
L 262.868332 151.865498 
L 263.983217 131.951255 
L 265.098102 193.322449 
L 266.212987 161.492182 
L 267.327872 178.453152 
L 268.442757 111.070239 
L 269.557642 120.935083 
L 270.672527 171.032971 
L 271.787413 104.328617 
L 272.902298 133.048303 
L 274.017183 143.958504 
L 275.132068 160.116021 
L 276.246953 163.891759 
L 277.361838 143.504102 
L 278.476723 131.220408 
L 279.591608 154.093199 
L 280.706494 180.396794 
L 281.821379 191.822928 
L 282.936264 167.194656 
L 284.051149 155.573758 
L 285.166034 200.67949 
L 286.280919 140.73483 
L 287.395804 161.074658 
L 288.510689 172.756706 
L 289.625574 197.085516 
L 290.74046 132.502665 
L 291.855345 159.663344 
L 292.97023 173.019199 
L 294.085115 201.297874 
L 295.2 185.800497 
L 296.314885 175.181919 
L 297.42977 185.036303 
L 298.544655 162.016493 
L 299.65954 172.341295 
L 300.774426 202.07651 
L 301.889311 165.81818 
L 303.004196 179.69402 
L 304.119081 205.034836 
L 305.233966 201.674695 
L 306.348851 92.634773 
L 307.463736 184.927731 
L 308.578621 188.07174 
L 309.693506 156.436192 
L 310.808392 196.233334 
L 311.923277 194.050554 
L 313.038162 126.692373 
L 314.153047 88.850905 
L 315.267932 91.247686 
L 316.382817 196.280692 
L 317.497702 172.610565 
L 318.612587 135.708553 
L 319.727473 145.939178 
L 320.842358 124.854529 
L 321.957243 187.697182 
L 323.072128 184.089995 
L 324.187013 173.237001 
L 325.301898 143.442952 
L 326.416783 172.496558 
L 327.531668 154.551889 
L 328.646553 180.335996 
L 329.761439 159.01092 
L 330.876324 176.925822 
L 331.991209 167.468659 
L 333.106094 166.050235 
L 334.220979 194.379191 
L 335.335864 167.608062 
L 336.450749 158.494546 
L 337.565634 174.236579 
L 338.680519 187.218439 
L 339.795405 164.123719 
L 340.91029 146.086143 
L 342.025175 141.213662 
L 343.14006 177.396571 
L 344.254945 163.281995 
L 345.36983 201.42254 
L 347.5996 95.861323 
L 348.714486 155.068947 
L 349.829371 169.89596 
L 350.944256 172.479319 
L 352.059141 209.268835 
L 353.174026 138.020116 
L 354.288911 185.554627 
L 355.403796 182.380671 
L 356.518681 170.272674 
L 357.633566 178.990205 
L 358.748452 204.722246 
L 359.863337 181.974215 
L 360.978222 183.356074 
L 362.093107 184.55928 
L 363.207992 158.346745 
L 364.322877 185.046278 
L 365.437762 177.458561 
L 366.552647 183.215377 
L 367.667532 172.777402 
L 368.782418 147.868574 
L 369.897303 157.718723 
L 371.012188 155.417523 
L 372.127073 191.48324 
L 373.241958 137.033623 
L 374.356843 120.695899 
L 375.471728 174.138663 
L 376.586613 141.583233 
L 377.701499 173.247429 
L 378.816384 165.370912 
L 379.931269 65.192727 
L 381.046154 148.682373 
L 382.161039 162.364144 
L 383.275924 177.748602 
L 384.390809 173.465446 
L 385.505694 134.44272 
L 386.620579 152.779723 
L 387.735465 187.901447 
L 388.85035 183.558051 
L 389.965235 156.431159 
L 391.08012 195.639346 
L 392.195005 176.000654 
L 393.30989 198.157614 
L 394.424775 166.659714 
L 395.53966 149.617723 
L 396.654545 184.684406 
L 397.769431 144.053267 
L 398.884316 166.49766 
L 399.999201 129.965558 
L 401.114086 161.69169 
L 402.228971 165.611298 
L 403.343856 155.308336 
L 404.458741 189.240396 
L 405.573626 163.097267 
L 407.803397 188.184062 
L 408.918282 182.491858 
L 410.033167 140.619378 
L 411.148052 145.498248 
L 412.262937 111.281495 
L 413.377822 180.114424 
L 414.492707 180.987257 
L 415.607592 187.623348 
L 416.722478 191.748854 
L 417.837363 165.996539 
L 418.952248 175.850144 
L 420.067133 181.710052 
L 421.182018 193.109388 
L 422.296903 127.656386 
L 423.411788 188.954591 
L 424.526673 196.44753 
L 425.641558 170.663858 
L 426.756444 98.198599 
L 427.871329 158.095197 
L 428.986214 190.671383 
L 430.101099 184.586643 
L 431.215984 134.848443 
L 432.330869 179.844285 
L 433.445754 161.650629 
L 434.560639 186.250123 
L 436.79041 200.113797 
L 437.905295 191.808849 
L 439.02018 178.751151 
L 440.135065 190.236139 
L 441.24995 186.167149 
L 442.364835 197.65657 
L 443.47972 176.138452 
L 444.594605 185.42552 
L 445.709491 184.241417 
L 446.824376 194.91362 
L 447.939261 181.773674 
L 449.054146 201.369229 
L 450.169031 188.807967 
L 451.283916 168.598351 
L 452.398801 169.316204 
L 453.513686 158.113564 
L 454.628571 194.236286 
L 455.743457 195.808712 
L 456.858342 197.188576 
L 457.973227 157.299358 
L 459.088112 184.294876 
L 460.202997 183.519659 
L 461.317882 186.809638 
L 462.432767 188.486322 
L 463.547652 202.283889 
L 464.662537 187.360002 
L 465.777423 186.146136 
L 466.892308 197.263737 
L 468.007193 183.734775 
L 469.122078 186.24069 
L 470.236963 177.629024 
L 471.351848 196.450612 
L 472.466733 198.190617 
L 473.581618 186.305123 
L 474.696503 200.634387 
L 475.811389 202.930415 
L 476.926274 166.639101 
L 478.041159 190.197766 
L 479.156044 196.75797 
L 480.270929 211.191306 
L 481.385814 194.65926 
L 482.500699 184.419339 
L 483.615584 195.742064 
L 484.73047 189.619769 
L 485.845355 160.263442 
L 488.075125 198.674092 
L 489.19001 152.862734 
L 490.304895 187.568292 
L 491.41978 190.769779 
L 492.534665 186.161074 
L 493.64955 188.057241 
L 494.764436 202.285739 
L 495.879321 179.151117 
L 496.994206 198.901614 
L 498.109091 186.274667 
L 498.109091 186.274667 
" style="fill:none;stroke:#2ca02c;stroke-linecap:square;stroke-width:1.5;"/>
   </g>
   <g id="patch_3">
    <path d="M 72 345.6 
L 72 51.84 
" style="fill:none;stroke:#000000;stroke-linecap:square;stroke-linejoin:miter;stroke-width:0.8;"/>
   </g>
   <g id="patch_4">
    <path d="M 518.4 345.6 
L 518.4 51.84 
" style="fill:none;stroke:#000000;stroke-linecap:square;stroke-linejoin:miter;stroke-width:0.8;"/>
   </g>
   <g id="patch_5">
    <path d="M 72 345.6 
L 518.4 345.6 
" style="fill:none;stroke:#000000;stroke-linecap:square;stroke-linejoin:miter;stroke-width:0.8;"/>
   </g>
   <g id="patch_6">
    <path d="M 72 51.84 
L 518.4 51.84 
" style="fill:none;stroke:#000000;stroke-linecap:square;stroke-linejoin:miter;stroke-width:0.8;"/>
   </g>
   <g id="text_15">
    <!-- Mean+-std   PRCP of USW00024057 -->
    <defs>
     <path d="M 9.8125 72.90625 
L 24.515625 72.90625 
L 43.109375 23.296875 
L 61.8125 72.90625 
L 76.515625 72.90625 
L 76.515625 0 
L 66.890625 0 
L 66.890625 64.015625 
L 48.09375 14.015625 
L 38.1875 14.015625 
L 19.390625 64.015625 
L 19.390625 0 
L 9.8125 0 
z
" id="DejaVuSans-4d"/>
     <path d="M 56.203125 29.59375 
L 56.203125 25.203125 
L 14.890625 25.203125 
Q 15.484375 15.921875 20.484375 11.0625 
Q 25.484375 6.203125 34.421875 6.203125 
Q 39.59375 6.203125 44.453125 7.46875 
Q 49.3125 8.734375 54.109375 11.28125 
L 54.109375 2.78125 
Q 49.265625 0.734375 44.1875 -0.34375 
Q 39.109375 -1.421875 33.890625 -1.421875 
Q 20.796875 -1.421875 13.15625 6.1875 
Q 5.515625 13.8125 5.515625 26.8125 
Q 5.515625 40.234375 12.765625 48.109375 
Q 20.015625 56 32.328125 56 
Q 43.359375 56 49.78125 48.890625 
Q 56.203125 41.796875 56.203125 29.59375 
M 47.21875 32.234375 
Q 47.125 39.59375 43.09375 43.984375 
Q 39.0625 48.390625 32.421875 48.390625 
Q 24.90625 48.390625 20.390625 44.140625 
Q 15.875 39.890625 15.1875 32.171875 
z
" id="DejaVuSans-65"/>
     <path d="M 46 62.703125 
L 46 35.5 
L 73.1875 35.5 
L 73.1875 27.203125 
L 46 27.203125 
L 46 0 
L 37.796875 0 
L 37.796875 27.203125 
L 10.59375 27.203125 
L 10.59375 35.5 
L 37.796875 35.5 
L 37.796875 62.703125 
z
" id="DejaVuSans-2b"/>
     <path d="M 4.890625 31.390625 
L 31.203125 31.390625 
L 31.203125 23.390625 
L 4.890625 23.390625 
z
" id="DejaVuSans-2d"/>
     <path d="M 44.28125 53.078125 
L 44.28125 44.578125 
Q 40.484375 46.53125 36.375 47.5 
Q 32.28125 48.484375 27.875 48.484375 
Q 21.1875 48.484375 17.84375 46.4375 
Q 14.5 44.390625 14.5 40.28125 
Q 14.5 37.15625 16.890625 35.375 
Q 19.28125 33.59375 26.515625 31.984375 
L 29.59375 31.296875 
Q 39.15625 29.25 43.1875 25.515625 
Q 47.21875 21.78125 47.21875 15.09375 
Q 47.21875 7.46875 41.1875 3.015625 
Q 35.15625 -1.421875 24.609375 -1.421875 
Q 20.21875 -1.421875 15.453125 -0.5625 
Q 10.6875 0.296875 5.421875 2 
L 5.421875 11.28125 
Q 10.40625 8.6875 15.234375 7.390625 
Q 20.0625 6.109375 24.8125 6.109375 
Q 31.15625 6.109375 34.5625 8.28125 
Q 37.984375 10.453125 37.984375 14.40625 
Q 37.984375 18.0625 35.515625 20.015625 
Q 33.0625 21.96875 24.703125 23.78125 
L 21.578125 24.515625 
Q 13.234375 26.265625 9.515625 29.90625 
Q 5.8125 33.546875 5.8125 39.890625 
Q 5.8125 47.609375 11.28125 51.796875 
Q 16.75 56 26.8125 56 
Q 31.78125 56 36.171875 55.265625 
Q 40.578125 54.546875 44.28125 53.078125 
" id="DejaVuSans-73"/>
     <path d="M 45.40625 46.390625 
L 45.40625 75.984375 
L 54.390625 75.984375 
L 54.390625 0 
L 45.40625 0 
L 45.40625 8.203125 
Q 42.578125 3.328125 38.25 0.953125 
Q 33.9375 -1.421875 27.875 -1.421875 
Q 17.96875 -1.421875 11.734375 6.484375 
Q 5.515625 14.40625 5.515625 27.296875 
Q 5.515625 40.1875 11.734375 48.09375 
Q 17.96875 56 27.875 56 
Q 33.9375 56 38.25 53.625 
Q 42.578125 51.265625 45.40625 46.390625 
M 14.796875 27.296875 
Q 14.796875 17.390625 18.875 11.75 
Q 22.953125 6.109375 30.078125 6.109375 
Q 37.203125 6.109375 41.296875 11.75 
Q 45.40625 17.390625 45.40625 27.296875 
Q 45.40625 37.203125 41.296875 42.84375 
Q 37.203125 48.484375 30.078125 48.484375 
Q 22.953125 48.484375 18.875 42.84375 
Q 14.796875 37.203125 14.796875 27.296875 
" id="DejaVuSans-64"/>
     <path id="DejaVuSans-20"/>
     <path d="M 19.671875 64.796875 
L 19.671875 37.40625 
L 32.078125 37.40625 
Q 38.96875 37.40625 42.71875 40.96875 
Q 46.484375 44.53125 46.484375 51.125 
Q 46.484375 57.671875 42.71875 61.234375 
Q 38.96875 64.796875 32.078125 64.796875 
z
M 9.8125 72.90625 
L 32.078125 72.90625 
Q 44.34375 72.90625 50.609375 67.359375 
Q 56.890625 61.8125 56.890625 51.125 
Q 56.890625 40.328125 50.609375 34.8125 
Q 44.34375 29.296875 32.078125 29.296875 
L 19.671875 29.296875 
L 19.671875 0 
L 9.8125 0 
z
" id="DejaVuSans-50"/>
     <path d="M 44.390625 34.1875 
Q 47.5625 33.109375 50.5625 29.59375 
Q 53.5625 26.078125 56.59375 19.921875 
L 66.609375 0 
L 56 0 
L 46.6875 18.703125 
Q 43.0625 26.03125 39.671875 28.421875 
Q 36.28125 30.8125 30.421875 30.8125 
L 19.671875 30.8125 
L 19.671875 0 
L 9.8125 0 
L 9.8125 72.90625 
L 32.078125 72.90625 
Q 44.578125 72.90625 50.734375 67.671875 
Q 56.890625 62.453125 56.890625 51.90625 
Q 56.890625 45.015625 53.6875 40.46875 
Q 50.484375 35.9375 44.390625 34.1875 
M 19.671875 64.796875 
L 19.671875 38.921875 
L 32.078125 38.921875 
Q 39.203125 38.921875 42.84375 42.21875 
Q 46.484375 45.515625 46.484375 51.90625 
Q 46.484375 58.296875 42.84375 61.546875 
Q 39.203125 64.796875 32.078125 64.796875 
z
" id="DejaVuSans-52"/>
     <path d="M 64.40625 67.28125 
L 64.40625 56.890625 
Q 59.421875 61.53125 53.78125 63.8125 
Q 48.140625 66.109375 41.796875 66.109375 
Q 29.296875 66.109375 22.65625 58.46875 
Q 16.015625 50.828125 16.015625 36.375 
Q 16.015625 21.96875 22.65625 14.328125 
Q 29.296875 6.6875 41.796875 6.6875 
Q 48.140625 6.6875 53.78125 8.984375 
Q 59.421875 11.28125 64.40625 15.921875 
L 64.40625 5.609375 
Q 59.234375 2.09375 53.4375 0.328125 
Q 47.65625 -1.421875 41.21875 -1.421875 
Q 24.65625 -1.421875 15.125 8.703125 
Q 5.609375 18.84375 5.609375 36.375 
Q 5.609375 53.953125 15.125 64.078125 
Q 24.65625 74.21875 41.21875 74.21875 
Q 47.75 74.21875 53.53125 72.484375 
Q 59.328125 70.75 64.40625 67.28125 
" id="DejaVuSans-43"/>
     <path d="M 30.609375 48.390625 
Q 23.390625 48.390625 19.1875 42.75 
Q 14.984375 37.109375 14.984375 27.296875 
Q 14.984375 17.484375 19.15625 11.84375 
Q 23.34375 6.203125 30.609375 6.203125 
Q 37.796875 6.203125 41.984375 11.859375 
Q 46.1875 17.53125 46.1875 27.296875 
Q 46.1875 37.015625 41.984375 42.703125 
Q 37.796875 48.390625 30.609375 48.390625 
M 30.609375 56 
Q 42.328125 56 49.015625 48.375 
Q 55.71875 40.765625 55.71875 27.296875 
Q 55.71875 13.875 49.015625 6.21875 
Q 42.328125 -1.421875 30.609375 -1.421875 
Q 18.84375 -1.421875 12.171875 6.21875 
Q 5.515625 13.875 5.515625 27.296875 
Q 5.515625 40.765625 12.171875 48.375 
Q 18.84375 56 30.609375 56 
" id="DejaVuSans-6f"/>
     <path d="M 37.109375 75.984375 
L 37.109375 68.5 
L 28.515625 68.5 
Q 23.6875 68.5 21.796875 66.546875 
Q 19.921875 64.59375 19.921875 59.515625 
L 19.921875 54.6875 
L 34.71875 54.6875 
L 34.71875 47.703125 
L 19.921875 47.703125 
L 19.921875 0 
L 10.890625 0 
L 10.890625 47.703125 
L 2.296875 47.703125 
L 2.296875 54.6875 
L 10.890625 54.6875 
L 10.890625 58.5 
Q 10.890625 67.625 15.140625 71.796875 
Q 19.390625 75.984375 28.609375 75.984375 
z
" id="DejaVuSans-66"/>
     <path d="M 8.6875 72.90625 
L 18.609375 72.90625 
L 18.609375 28.609375 
Q 18.609375 16.890625 22.84375 11.734375 
Q 27.09375 6.59375 36.625 6.59375 
Q 46.09375 6.59375 50.34375 11.734375 
Q 54.59375 16.890625 54.59375 28.609375 
L 54.59375 72.90625 
L 64.5 72.90625 
L 64.5 27.390625 
Q 64.5 13.140625 57.4375 5.859375 
Q 50.390625 -1.421875 36.625 -1.421875 
Q 22.796875 -1.421875 15.734375 5.859375 
Q 8.6875 13.140625 8.6875 27.390625 
z
" id="DejaVuSans-55"/>
     <path d="M 53.515625 70.515625 
L 53.515625 60.890625 
Q 47.90625 63.578125 42.921875 64.890625 
Q 37.9375 66.21875 33.296875 66.21875 
Q 25.25 66.21875 20.875 63.09375 
Q 16.5 59.96875 16.5 54.203125 
Q 16.5 49.359375 19.40625 46.890625 
Q 22.3125 44.4375 30.421875 42.921875 
L 36.375 41.703125 
Q 47.40625 39.59375 52.65625 34.296875 
Q 57.90625 29 57.90625 20.125 
Q 57.90625 9.515625 50.796875 4.046875 
Q 43.703125 -1.421875 29.984375 -1.421875 
Q 24.8125 -1.421875 18.96875 -0.25 
Q 13.140625 0.921875 6.890625 3.21875 
L 6.890625 13.375 
Q 12.890625 10.015625 18.65625 8.296875 
Q 24.421875 6.59375 29.984375 6.59375 
Q 38.421875 6.59375 43.015625 9.90625 
Q 47.609375 13.234375 47.609375 19.390625 
Q 47.609375 24.75 44.3125 27.78125 
Q 41.015625 30.8125 33.5 32.328125 
L 27.484375 33.5 
Q 16.453125 35.6875 11.515625 40.375 
Q 6.59375 45.0625 6.59375 53.421875 
Q 6.59375 63.09375 13.40625 68.65625 
Q 20.21875 74.21875 32.171875 74.21875 
Q 37.3125 74.21875 42.625 73.28125 
Q 47.953125 72.359375 53.515625 70.515625 
" id="DejaVuSans-53"/>
     <path d="M 3.328125 72.90625 
L 13.28125 72.90625 
L 28.609375 11.28125 
L 43.890625 72.90625 
L 54.984375 72.90625 
L 70.3125 11.28125 
L 85.59375 72.90625 
L 95.609375 72.90625 
L 77.296875 0 
L 64.890625 0 
L 49.515625 63.28125 
L 33.984375 0 
L 21.578125 0 
z
" id="DejaVuSans-57"/>
     <path d="M 10.796875 72.90625 
L 49.515625 72.90625 
L 49.515625 64.59375 
L 19.828125 64.59375 
L 19.828125 46.734375 
Q 21.96875 47.46875 24.109375 47.828125 
Q 26.265625 48.1875 28.421875 48.1875 
Q 40.625 48.1875 47.75 41.5 
Q 54.890625 34.8125 54.890625 23.390625 
Q 54.890625 11.625 47.5625 5.09375 
Q 40.234375 -1.421875 26.90625 -1.421875 
Q 22.3125 -1.421875 17.546875 -0.640625 
Q 12.796875 0.140625 7.71875 1.703125 
L 7.71875 11.625 
Q 12.109375 9.234375 16.796875 8.0625 
Q 21.484375 6.890625 26.703125 6.890625 
Q 35.15625 6.890625 40.078125 11.328125 
Q 45.015625 15.765625 45.015625 23.390625 
Q 45.015625 31 40.078125 35.4375 
Q 35.15625 39.890625 26.703125 39.890625 
Q 22.75 39.890625 18.8125 39.015625 
Q 14.890625 38.140625 10.796875 36.28125 
z
" id="DejaVuSans-35"/>
     <path d="M 8.203125 72.90625 
L 55.078125 72.90625 
L 55.078125 68.703125 
L 28.609375 0 
L 18.3125 0 
L 43.21875 64.59375 
L 8.203125 64.59375 
z
" id="DejaVuSans-37"/>
    </defs>
    <g transform="translate(186.792188 45.84)scale(0.12 -0.12)">
     <use xlink:href="#DejaVuSans-4d"/>
     <use x="86.279297" xlink:href="#DejaVuSans-65"/>
     <use x="147.802734" xlink:href="#DejaVuSans-61"/>
     <use x="209.082031" xlink:href="#DejaVuSans-6e"/>
     <use x="272.460938" xlink:href="#DejaVuSans-2b"/>
     <use x="356.25" xlink:href="#DejaVuSans-2d"/>
     <use x="392.333984" xlink:href="#DejaVuSans-73"/>
     <use x="444.433594" xlink:href="#DejaVuSans-74"/>
     <use x="483.642578" xlink:href="#DejaVuSans-64"/>
     <use x="547.119141" xlink:href="#DejaVuSans-20"/>
     <use x="578.90625" xlink:href="#DejaVuSans-20"/>
     <use x="610.693359" xlink:href="#DejaVuSans-20"/>
     <use x="642.480469" xlink:href="#DejaVuSans-50"/>
     <use x="702.783203" xlink:href="#DejaVuSans-52"/>
     <use x="772.1875" xlink:href="#DejaVuSans-43"/>
     <use x="842.011719" xlink:href="#DejaVuSans-50"/>
     <use x="902.314453" xlink:href="#DejaVuSans-20"/>
     <use x="934.101562" xlink:href="#DejaVuSans-6f"/>
     <use x="995.283203" xlink:href="#DejaVuSans-66"/>
     <use x="1030.488281" xlink:href="#DejaVuSans-20"/>
     <use x="1062.275391" xlink:href="#DejaVuSans-55"/>
     <use x="1135.46875" xlink:href="#DejaVuSans-53"/>
     <use x="1198.945312" xlink:href="#DejaVuSans-57"/>
     <use x="1297.822266" xlink:href="#DejaVuSans-30"/>
     <use x="1361.445312" xlink:href="#DejaVuSans-30"/>
     <use x="1425.068359" xlink:href="#DejaVuSans-30"/>
     <use x="1488.691406" xlink:href="#DejaVuSans-32"/>
     <use x="1552.314453" xlink:href="#DejaVuSans-34"/>
     <use x="1615.9375" xlink:href="#DejaVuSans-30"/>
     <use x="1679.560547" xlink:href="#DejaVuSans-35"/>
     <use x="1743.183594" xlink:href="#DejaVuSans-37"/>
    </g>
   </g>
   <g id="legend_1">
    <g id="patch_7">
     <path d="M 473.0375 103.874375 
L 511.4 103.874375 
Q 513.4 103.874375 513.4 101.874375 
L 513.4 58.84 
Q 513.4 56.84 511.4 56.84 
L 473.0375 56.84 
Q 471.0375 56.84 471.0375 58.84 
L 471.0375 101.874375 
Q 471.0375 103.874375 473.0375 103.874375 
z
" style="fill:#ffffff;opacity:0.8;stroke:#cccccc;stroke-linejoin:miter;"/>
    </g>
    <g id="line2d_32">
     <path d="M 475.0375 64.938437 
L 495.0375 64.938437 
" style="fill:none;stroke:#1f77b4;stroke-linecap:square;stroke-width:1.5;"/>
    </g>
    <g id="line2d_33"/>
    <g id="text_16">
     <!-- 0 -->
     <g transform="translate(503.0375 68.438437)scale(0.1 -0.1)">
      <use xlink:href="#DejaVuSans-30"/>
     </g>
    </g>
    <g id="line2d_34">
     <path d="M 475.0375 79.616562 
L 495.0375 79.616562 
" style="fill:none;stroke:#ff7f0e;stroke-linecap:square;stroke-width:1.5;"/>
    </g>
    <g id="line2d_35"/>
    <g id="text_17">
     <!-- 1 -->
     <g transform="translate(503.0375 83.116562)scale(0.1 -0.1)">
      <use xlink:href="#DejaVuSans-31"/>
     </g>
    </g>
    <g id="line2d_36">
     <path d="M 475.0375 94.294687 
L 495.0375 94.294687 
" style="fill:none;stroke:#2ca02c;stroke-linecap:square;stroke-width:1.5;"/>
    </g>
    <g id="line2d_37"/>
    <g id="text_18">
     <!-- 2 -->
     <g transform="translate(503.0375 97.794687)scale(0.1 -0.1)">
      <use xlink:href="#DejaVuSans-32"/>
     </g>
    </g>
   </g>
  </g>
 </g>
 <defs>
  <clipPath id="p438bdccea2">
   <rect height="293.76" width="446.4" x="72" y="51.84"/>
  </clipPath>
 </defs>
</svg>
