<?xml version="1.0" encoding="utf-8" standalone="no"?>
<!DOCTYPE svg PUBLIC "-//W3C//DTD SVG 1.1//EN"
  "http://www.w3.org/Graphics/SVG/1.1/DTD/svg11.dtd">
<!-- Created with matplotlib (http://matplotlib.org/) -->
<svg height="432pt" version="1.1" viewBox="0 0 720 432" width="720pt" xmlns="http://www.w3.org/2000/svg" xmlns:xlink="http://www.w3.org/1999/xlink">
 <defs>
  <style type="text/css">
*{stroke-linecap:butt;stroke-linejoin:round;}
  </style>
 </defs>
 <g id="figure_1">
  <g id="patch_1">
   <path d="M 0 432 
L 720 432 
L 720 0 
L 0 0 
z
" style="fill:#ffffff;"/>
  </g>
  <g id="axes_1">
   <g id="patch_2">
    <path d="M 90 185.367273 
L 648 185.367273 
L 648 51.84 
L 90 51.84 
z
" style="fill:#ffffff;"/>
   </g>
   <g id="matplotlib.axis_1">
    <g id="xtick_1">
     <g id="line2d_1">
      <path clip-path="url(#pbc60ee1c06)" d="M 115.363636 185.367273 
L 115.363636 51.84 
" style="fill:none;stroke:#b0b0b0;stroke-linecap:square;stroke-width:0.8;"/>
     </g>
     <g id="line2d_2">
      <defs>
       <path d="M 0 0 
L 0 3.5 
" id="m1c008dec24" style="stroke:#000000;stroke-width:0.8;"/>
      </defs>
      <g>
       <use style="stroke:#000000;stroke-width:0.8;" x="115.363636" xlink:href="#m1c008dec24" y="185.367273"/>
      </g>
     </g>
    </g>
    <g id="xtick_2">
     <g id="line2d_3">
      <path clip-path="url(#pbc60ee1c06)" d="M 240.788212 185.367273 
L 240.788212 51.84 
" style="fill:none;stroke:#b0b0b0;stroke-linecap:square;stroke-width:0.8;"/>
     </g>
     <g id="line2d_4">
      <g>
       <use style="stroke:#000000;stroke-width:0.8;" x="240.788212" xlink:href="#m1c008dec24" y="185.367273"/>
      </g>
     </g>
    </g>
    <g id="xtick_3">
     <g id="line2d_5">
      <path clip-path="url(#pbc60ee1c06)" d="M 367.606394 185.367273 
L 367.606394 51.84 
" style="fill:none;stroke:#b0b0b0;stroke-linecap:square;stroke-width:0.8;"/>
     </g>
     <g id="line2d_6">
      <g>
       <use style="stroke:#000000;stroke-width:0.8;" x="367.606394" xlink:href="#m1c008dec24" y="185.367273"/>
      </g>
     </g>
    </g>
    <g id="xtick_4">
     <g id="line2d_7">
      <path clip-path="url(#pbc60ee1c06)" d="M 495.818182 185.367273 
L 495.818182 51.84 
" style="fill:none;stroke:#b0b0b0;stroke-linecap:square;stroke-width:0.8;"/>
     </g>
     <g id="line2d_8">
      <g>
       <use style="stroke:#000000;stroke-width:0.8;" x="495.818182" xlink:href="#m1c008dec24" y="185.367273"/>
      </g>
     </g>
    </g>
    <g id="xtick_5">
     <g id="line2d_9">
      <path clip-path="url(#pbc60ee1c06)" d="M 624.02997 185.367273 
L 624.02997 51.84 
" style="fill:none;stroke:#b0b0b0;stroke-linecap:square;stroke-width:0.8;"/>
     </g>
     <g id="line2d_10">
      <g>
       <use style="stroke:#000000;stroke-width:0.8;" x="624.02997" xlink:href="#m1c008dec24" y="185.367273"/>
      </g>
     </g>
    </g>
   </g>
   <g id="matplotlib.axis_2">
    <g id="ytick_1">
     <g id="line2d_11">
      <path clip-path="url(#pbc60ee1c06)" d="M 90 180.697904 
L 648 180.697904 
" style="fill:none;stroke:#b0b0b0;stroke-linecap:square;stroke-width:0.8;"/>
     </g>
     <g id="line2d_12">
      <defs>
       <path d="M 0 0 
L -3.5 0 
" id="m41de5c6e0d" style="stroke:#000000;stroke-width:0.8;"/>
      </defs>
      <g>
       <use style="stroke:#000000;stroke-width:0.8;" x="90" xlink:href="#m41de5c6e0d" y="180.697904"/>
      </g>
     </g>
     <g id="text_1">
      <!-- 6 -->
      <defs>
       <path d="M 33.015625 40.375 
Q 26.375 40.375 22.484375 35.828125 
Q 18.609375 31.296875 18.609375 23.390625 
Q 18.609375 15.53125 22.484375 10.953125 
Q 26.375 6.390625 33.015625 6.390625 
Q 39.65625 6.390625 43.53125 10.953125 
Q 47.40625 15.53125 47.40625 23.390625 
Q 47.40625 31.296875 43.53125 35.828125 
Q 39.65625 40.375 33.015625 40.375 
M 52.59375 71.296875 
L 52.59375 62.3125 
Q 48.875 64.0625 45.09375 64.984375 
Q 41.3125 65.921875 37.59375 65.921875 
Q 27.828125 65.921875 22.671875 59.328125 
Q 17.53125 52.734375 16.796875 39.40625 
Q 19.671875 43.65625 24.015625 45.921875 
Q 28.375 48.1875 33.59375 48.1875 
Q 44.578125 48.1875 50.953125 41.515625 
Q 57.328125 34.859375 57.328125 23.390625 
Q 57.328125 12.15625 50.6875 5.359375 
Q 44.046875 -1.421875 33.015625 -1.421875 
Q 20.359375 -1.421875 13.671875 8.265625 
Q 6.984375 17.96875 6.984375 36.375 
Q 6.984375 53.65625 15.1875 63.9375 
Q 23.390625 74.21875 37.203125 74.21875 
Q 40.921875 74.21875 44.703125 73.484375 
Q 48.484375 72.75 52.59375 71.296875 
" id="DejaVuSans-36"/>
      </defs>
      <g transform="translate(76.6375 184.497123)scale(0.1 -0.1)">
       <use xlink:href="#DejaVuSans-36"/>
      </g>
     </g>
    </g>
    <g id="ytick_2">
     <g id="line2d_13">
      <path clip-path="url(#pbc60ee1c06)" d="M 90 156.158566 
L 648 156.158566 
" style="fill:none;stroke:#b0b0b0;stroke-linecap:square;stroke-width:0.8;"/>
     </g>
     <g id="line2d_14">
      <g>
       <use style="stroke:#000000;stroke-width:0.8;" x="90" xlink:href="#m41de5c6e0d" y="156.158566"/>
      </g>
     </g>
     <g id="text_2">
      <!-- 8 -->
      <defs>
       <path d="M 31.78125 34.625 
Q 24.75 34.625 20.71875 30.859375 
Q 16.703125 27.09375 16.703125 20.515625 
Q 16.703125 13.921875 20.71875 10.15625 
Q 24.75 6.390625 31.78125 6.390625 
Q 38.8125 6.390625 42.859375 10.171875 
Q 46.921875 13.96875 46.921875 20.515625 
Q 46.921875 27.09375 42.890625 30.859375 
Q 38.875 34.625 31.78125 34.625 
M 21.921875 38.8125 
Q 15.578125 40.375 12.03125 44.71875 
Q 8.5 49.078125 8.5 55.328125 
Q 8.5 64.0625 14.71875 69.140625 
Q 20.953125 74.21875 31.78125 74.21875 
Q 42.671875 74.21875 48.875 69.140625 
Q 55.078125 64.0625 55.078125 55.328125 
Q 55.078125 49.078125 51.53125 44.71875 
Q 48 40.375 41.703125 38.8125 
Q 48.828125 37.15625 52.796875 32.3125 
Q 56.78125 27.484375 56.78125 20.515625 
Q 56.78125 9.90625 50.3125 4.234375 
Q 43.84375 -1.421875 31.78125 -1.421875 
Q 19.734375 -1.421875 13.25 4.234375 
Q 6.78125 9.90625 6.78125 20.515625 
Q 6.78125 27.484375 10.78125 32.3125 
Q 14.796875 37.15625 21.921875 38.8125 
M 18.3125 54.390625 
Q 18.3125 48.734375 21.84375 45.5625 
Q 25.390625 42.390625 31.78125 42.390625 
Q 38.140625 42.390625 41.71875 45.5625 
Q 45.3125 48.734375 45.3125 54.390625 
Q 45.3125 60.0625 41.71875 63.234375 
Q 38.140625 66.40625 31.78125 66.40625 
Q 25.390625 66.40625 21.84375 63.234375 
Q 18.3125 60.0625 18.3125 54.390625 
" id="DejaVuSans-38"/>
      </defs>
      <g transform="translate(76.6375 159.957785)scale(0.1 -0.1)">
       <use xlink:href="#DejaVuSans-38"/>
      </g>
     </g>
    </g>
    <g id="ytick_3">
     <g id="line2d_15">
      <path clip-path="url(#pbc60ee1c06)" d="M 90 131.619229 
L 648 131.619229 
" style="fill:none;stroke:#b0b0b0;stroke-linecap:square;stroke-width:0.8;"/>
     </g>
     <g id="line2d_16">
      <g>
       <use style="stroke:#000000;stroke-width:0.8;" x="90" xlink:href="#m41de5c6e0d" y="131.619229"/>
      </g>
     </g>
     <g id="text_3">
      <!-- 10 -->
      <defs>
       <path d="M 12.40625 8.296875 
L 28.515625 8.296875 
L 28.515625 63.921875 
L 10.984375 60.40625 
L 10.984375 69.390625 
L 28.421875 72.90625 
L 38.28125 72.90625 
L 38.28125 8.296875 
L 54.390625 8.296875 
L 54.390625 0 
L 12.40625 0 
z
" id="DejaVuSans-31"/>
       <path d="M 31.78125 66.40625 
Q 24.171875 66.40625 20.328125 58.90625 
Q 16.5 51.421875 16.5 36.375 
Q 16.5 21.390625 20.328125 13.890625 
Q 24.171875 6.390625 31.78125 6.390625 
Q 39.453125 6.390625 43.28125 13.890625 
Q 47.125 21.390625 47.125 36.375 
Q 47.125 51.421875 43.28125 58.90625 
Q 39.453125 66.40625 31.78125 66.40625 
M 31.78125 74.21875 
Q 44.046875 74.21875 50.515625 64.515625 
Q 56.984375 54.828125 56.984375 36.375 
Q 56.984375 17.96875 50.515625 8.265625 
Q 44.046875 -1.421875 31.78125 -1.421875 
Q 19.53125 -1.421875 13.0625 8.265625 
Q 6.59375 17.96875 6.59375 36.375 
Q 6.59375 54.828125 13.0625 64.515625 
Q 19.53125 74.21875 31.78125 74.21875 
" id="DejaVuSans-30"/>
      </defs>
      <g transform="translate(70.275 135.418447)scale(0.1 -0.1)">
       <use xlink:href="#DejaVuSans-31"/>
       <use x="63.623047" xlink:href="#DejaVuSans-30"/>
      </g>
     </g>
    </g>
    <g id="ytick_4">
     <g id="line2d_17">
      <path clip-path="url(#pbc60ee1c06)" d="M 90 107.079891 
L 648 107.079891 
" style="fill:none;stroke:#b0b0b0;stroke-linecap:square;stroke-width:0.8;"/>
     </g>
     <g id="line2d_18">
      <g>
       <use style="stroke:#000000;stroke-width:0.8;" x="90" xlink:href="#m41de5c6e0d" y="107.079891"/>
      </g>
     </g>
     <g id="text_4">
      <!-- 12 -->
      <defs>
       <path d="M 19.1875 8.296875 
L 53.609375 8.296875 
L 53.609375 0 
L 7.328125 0 
L 7.328125 8.296875 
Q 12.9375 14.109375 22.625 23.890625 
Q 32.328125 33.6875 34.8125 36.53125 
Q 39.546875 41.84375 41.421875 45.53125 
Q 43.3125 49.21875 43.3125 52.78125 
Q 43.3125 58.59375 39.234375 62.25 
Q 35.15625 65.921875 28.609375 65.921875 
Q 23.96875 65.921875 18.8125 64.3125 
Q 13.671875 62.703125 7.8125 59.421875 
L 7.8125 69.390625 
Q 13.765625 71.78125 18.9375 73 
Q 24.125 74.21875 28.421875 74.21875 
Q 39.75 74.21875 46.484375 68.546875 
Q 53.21875 62.890625 53.21875 53.421875 
Q 53.21875 48.921875 51.53125 44.890625 
Q 49.859375 40.875 45.40625 35.40625 
Q 44.1875 33.984375 37.640625 27.21875 
Q 31.109375 20.453125 19.1875 8.296875 
" id="DejaVuSans-32"/>
      </defs>
      <g transform="translate(70.275 110.87911)scale(0.1 -0.1)">
       <use xlink:href="#DejaVuSans-31"/>
       <use x="63.623047" xlink:href="#DejaVuSans-32"/>
      </g>
     </g>
    </g>
    <g id="ytick_5">
     <g id="line2d_19">
      <path clip-path="url(#pbc60ee1c06)" d="M 90 82.540553 
L 648 82.540553 
" style="fill:none;stroke:#b0b0b0;stroke-linecap:square;stroke-width:0.8;"/>
     </g>
     <g id="line2d_20">
      <g>
       <use style="stroke:#000000;stroke-width:0.8;" x="90" xlink:href="#m41de5c6e0d" y="82.540553"/>
      </g>
     </g>
     <g id="text_5">
      <!-- 14 -->
      <defs>
       <path d="M 37.796875 64.3125 
L 12.890625 25.390625 
L 37.796875 25.390625 
z
M 35.203125 72.90625 
L 47.609375 72.90625 
L 47.609375 25.390625 
L 58.015625 25.390625 
L 58.015625 17.1875 
L 47.609375 17.1875 
L 47.609375 0 
L 37.796875 0 
L 37.796875 17.1875 
L 4.890625 17.1875 
L 4.890625 26.703125 
z
" id="DejaVuSans-34"/>
      </defs>
      <g transform="translate(70.275 86.339772)scale(0.1 -0.1)">
       <use xlink:href="#DejaVuSans-31"/>
       <use x="63.623047" xlink:href="#DejaVuSans-34"/>
      </g>
     </g>
    </g>
    <g id="ytick_6">
     <g id="line2d_21">
      <path clip-path="url(#pbc60ee1c06)" d="M 90 58.001215 
L 648 58.001215 
" style="fill:none;stroke:#b0b0b0;stroke-linecap:square;stroke-width:0.8;"/>
     </g>
     <g id="line2d_22">
      <g>
       <use style="stroke:#000000;stroke-width:0.8;" x="90" xlink:href="#m41de5c6e0d" y="58.001215"/>
      </g>
     </g>
     <g id="text_6">
      <!-- 16 -->
      <g transform="translate(70.275 61.800434)scale(0.1 -0.1)">
       <use xlink:href="#DejaVuSans-31"/>
       <use x="63.623047" xlink:href="#DejaVuSans-36"/>
      </g>
     </g>
    </g>
   </g>
   <g id="line2d_23">
    <path clip-path="url(#pbc60ee1c06)" d="M 115.363636 178.199024 
L 116.757243 179.297851 
L 118.150849 179.228638 
L 119.544456 178.726663 
L 120.938062 177.692019 
L 122.331668 178.005022 
L 123.725275 174.580019 
L 125.118881 173.873463 
L 126.512488 173.765606 
L 127.906094 174.386341 
L 130.693307 174.724655 
L 132.086913 175.409243 
L 133.480519 175.579008 
L 136.267732 176.897349 
L 137.661339 177.276298 
L 139.054945 176.409943 
L 140.448551 175.901586 
L 141.842158 175.254774 
L 143.235764 175.35624 
L 144.629371 175.648084 
L 146.022977 175.17122 
L 147.416583 174.134475 
L 148.81019 172.835388 
L 150.203796 172.762966 
L 151.597403 172.200141 
L 152.991009 170.543448 
L 154.384615 169.670363 
L 155.778222 168.499152 
L 157.171828 167.595827 
L 158.565435 167.939665 
L 159.959041 167.176843 
L 161.352647 166.565252 
L 162.746254 166.172264 
L 164.13986 166.295594 
L 165.533467 166.692038 
L 166.927073 166.756519 
L 169.714286 166.43474 
L 171.107892 165.298237 
L 172.501499 164.346363 
L 173.895105 163.700874 
L 175.288711 163.30777 
L 176.682318 162.375215 
L 178.075924 162.196851 
L 179.46953 161.327735 
L 180.863137 161.239901 
L 182.256743 161.460407 
L 183.65035 160.94942 
L 185.043956 160.148514 
L 186.437562 159.965371 
L 187.831169 158.816643 
L 189.224775 158.440453 
L 190.618382 158.303826 
L 192.011988 156.728505 
L 193.405594 154.240536 
L 194.799201 152.385633 
L 196.192807 152.327459 
L 197.586414 152.573844 
L 198.98002 153.28303 
L 200.373626 152.080392 
L 201.767233 149.866301 
L 203.160839 149.356755 
L 204.554446 149.961605 
L 205.948052 150.853451 
L 207.341658 150.267325 
L 208.735265 149.915143 
L 211.522478 150.726612 
L 212.916084 150.126136 
L 214.30969 147.970058 
L 215.703297 144.734831 
L 217.096903 144.553358 
L 218.490509 144.772292 
L 219.884116 143.597544 
L 222.671329 141.709805 
L 224.064935 139.7841 
L 225.458541 138.372559 
L 226.852148 136.011816 
L 228.245754 135.842467 
L 229.639361 135.470131 
L 231.032967 135.549993 
L 232.426573 135.178695 
L 233.82018 135.274791 
L 235.213786 133.853868 
L 236.607393 131.797898 
L 238.000999 128.871717 
L 239.394605 126.649157 
L 240.788212 124.834225 
L 242.181818 122.216333 
L 243.575425 119.864524 
L 244.969031 118.165337 
L 246.362637 115.517712 
L 247.756244 111.97484 
L 249.14985 111.234416 
L 250.543457 109.776921 
L 253.330669 105.946685 
L 256.117882 102.46376 
L 257.511489 102.388403 
L 258.905095 102.650271 
L 260.298701 99.997602 
L 261.692308 97.905893 
L 263.085914 96.313036 
L 264.47952 94.035778 
L 267.266733 90.373986 
L 268.66034 88.019278 
L 270.053946 86.700178 
L 271.447552 86.69633 
L 272.841159 87.463051 
L 274.234765 85.381245 
L 275.628372 81.446189 
L 277.021978 78.848239 
L 278.415584 77.625136 
L 279.809191 75.894144 
L 282.596404 73.971193 
L 283.99001 70.822539 
L 285.383616 69.245706 
L 286.777223 67.479643 
L 288.170829 65.298963 
L 289.564436 63.794256 
L 290.958042 61.760045 
L 292.351648 61.529133 
L 295.138861 60.548794 
L 297.926074 60.562958 
L 299.31968 60.020302 
L 300.713287 59.699876 
L 302.106893 59.19401 
L 303.5005 60.64368 
L 304.894106 61.86235 
L 307.681319 60.542677 
L 309.074925 60.581686 
L 310.468531 60.873897 
L 311.862138 59.031547 
L 313.255744 58.192637 
L 314.649351 57.909421 
L 316.042957 58.261253 
L 318.83017 60.543194 
L 320.223776 60.937747 
L 321.617383 63.441036 
L 323.010989 65.574959 
L 324.404595 68.066595 
L 325.798202 71.073101 
L 327.191808 73.208202 
L 328.585415 74.895369 
L 329.979021 75.852048 
L 331.372627 78.092864 
L 334.15984 85.559947 
L 336.947053 90.782824 
L 338.340659 93.939544 
L 339.734266 96.780125 
L 341.127872 100.929503 
L 342.521479 104.186352 
L 343.915085 106.057687 
L 346.702298 112.449835 
L 348.095904 115.172199 
L 349.48951 117.420771 
L 352.276723 123.420425 
L 353.67033 126.082928 
L 355.063936 127.525474 
L 356.457542 129.51741 
L 359.244755 135.792407 
L 360.638362 137.635436 
L 362.031968 139.075569 
L 364.819181 143.945461 
L 367.606394 146.882097 
L 369 149.479874 
L 370.393606 150.074931 
L 371.787213 149.872241 
L 373.180819 149.020797 
L 374.574426 149.906464 
L 375.968032 151.099137 
L 377.361638 152.050635 
L 378.755245 152.331416 
L 380.148851 151.612795 
L 381.542458 151.868138 
L 384.32967 151.693326 
L 385.723277 152.203137 
L 387.116883 153.075498 
L 388.51049 153.364033 
L 389.904096 154.517924 
L 391.297702 154.758192 
L 392.691309 155.370918 
L 394.084915 155.186521 
L 395.478521 153.96485 
L 398.265734 153.364984 
L 399.659341 154.033227 
L 401.052947 154.241487 
L 403.84016 152.954365 
L 405.233766 152.743084 
L 406.627373 152.213143 
L 408.020979 151.123898 
L 409.414585 150.99313 
L 410.808192 151.428363 
L 413.595405 152.810481 
L 414.989011 153.079321 
L 416.382617 153.201866 
L 417.776224 153.032503 
L 419.16983 153.019785 
L 420.563437 153.543838 
L 421.957043 155.310757 
L 423.350649 157.478684 
L 424.744256 158.7105 
L 426.137862 158.747555 
L 427.531469 160.087161 
L 428.925075 161.715589 
L 430.318681 163.945772 
L 431.712288 165.086994 
L 433.105894 165.322914 
L 434.4995 165.705592 
L 435.893107 165.249219 
L 438.68032 164.722225 
L 440.073926 162.897861 
L 441.467532 162.580997 
L 444.254745 162.421026 
L 445.648352 162.624603 
L 447.041958 162.134665 
L 448.435564 160.9485 
L 449.829171 158.989799 
L 452.616384 157.602366 
L 454.00999 156.362616 
L 455.403596 156.408458 
L 456.797203 155.531558 
L 458.190809 155.16517 
L 460.978022 155.091649 
L 462.371628 155.441442 
L 463.765235 156.354415 
L 465.158841 157.120878 
L 466.552448 164.85248 
L 469.33966 163.891153 
L 470.733267 162.978151 
L 473.52048 158.058262 
L 474.914086 156.889234 
L 476.307692 155.488718 
L 477.701299 154.431315 
L 479.094905 153.581619 
L 480.488511 153.178994 
L 481.882118 153.290934 
L 483.275724 154.17029 
L 484.669331 154.115857 
L 487.456543 153.467555 
L 488.85015 152.591797 
L 490.243756 152.390953 
L 491.637363 152.431895 
L 493.030969 153.461789 
L 495.818182 154.384039 
L 497.211788 156.154081 
L 498.605395 156.742954 
L 499.999001 156.862643 
L 501.392607 157.180851 
L 502.786214 156.884186 
L 504.17982 157.706746 
L 505.573427 157.724958 
L 506.967033 157.496388 
L 508.360639 158.626328 
L 509.754246 159.345105 
L 511.147852 160.473745 
L 513.935065 161.071125 
L 516.722278 162.830534 
L 518.115884 163.310451 
L 519.509491 163.201987 
L 520.903097 162.41924 
L 522.296703 162.697806 
L 523.69031 147.29433 
L 525.083916 147.1762 
L 526.477522 147.349126 
L 527.871129 147.77751 
L 529.264735 148.711936 
L 530.658342 150.775977 
L 532.051948 152.277613 
L 533.445554 153.331308 
L 534.839161 153.42914 
L 536.232767 154.04462 
L 537.626374 154.533769 
L 540.413586 153.740247 
L 541.807193 154.295729 
L 543.200799 155.046721 
L 545.988012 154.20952 
L 547.381618 154.763492 
L 548.775225 154.927564 
L 550.168831 155.309798 
L 551.562438 155.552164 
L 552.956044 155.100258 
L 554.34965 155.946864 
L 555.743257 157.00112 
L 558.53047 156.372301 
L 559.924076 156.737793 
L 561.317682 155.66218 
L 562.711289 156.518518 
L 564.104895 157.729282 
L 565.498501 158.087697 
L 566.892108 159.433507 
L 568.285714 160.012913 
L 569.679321 161.23843 
L 572.466533 163.251919 
L 576.647353 164.538974 
L 578.040959 165.951756 
L 580.828172 166.842328 
L 582.221778 167.024591 
L 583.615385 167.435185 
L 585.008991 168.379948 
L 586.402597 169.637019 
L 587.796204 169.52882 
L 589.18981 169.963944 
L 590.583417 170.972755 
L 591.977023 171.796783 
L 593.370629 173.058121 
L 594.764236 173.145248 
L 596.157842 173.417115 
L 597.551449 174.096969 
L 598.945055 174.292296 
L 600.338661 174.028481 
L 601.732268 174.558881 
L 603.125874 175.757187 
L 605.913087 176.300845 
L 607.306693 175.972233 
L 608.7003 175.93303 
L 610.093906 176.187084 
L 611.487512 176.928828 
L 612.881119 176.804061 
L 614.274725 177.31718 
L 615.668332 177.492195 
L 617.061938 177.410668 
L 618.455544 178.167626 
L 619.849151 178.638815 
L 621.242757 178.968329 
L 622.636364 178.883988 
L 622.636364 178.883988 
" style="fill:none;stroke:#1f77b4;stroke-linecap:square;stroke-width:1.5;"/>
   </g>
   <g id="patch_3">
    <path d="M 90 185.367273 
L 90 51.84 
" style="fill:none;stroke:#000000;stroke-linecap:square;stroke-linejoin:miter;stroke-width:0.8;"/>
   </g>
   <g id="patch_4">
    <path d="M 648 185.367273 
L 648 51.84 
" style="fill:none;stroke:#000000;stroke-linecap:square;stroke-linejoin:miter;stroke-width:0.8;"/>
   </g>
   <g id="patch_5">
    <path d="M 90 185.367273 
L 648 185.367273 
" style="fill:none;stroke:#000000;stroke-linecap:square;stroke-linejoin:miter;stroke-width:0.8;"/>
   </g>
   <g id="patch_6">
    <path d="M 90 51.84 
L 648 51.84 
" style="fill:none;stroke:#000000;stroke-linecap:square;stroke-linejoin:miter;stroke-width:0.8;"/>
   </g>
   <g id="text_7">
    <!-- PRCP Mean -->
    <defs>
     <path d="M 19.671875 64.796875 
L 19.671875 37.40625 
L 32.078125 37.40625 
Q 38.96875 37.40625 42.71875 40.96875 
Q 46.484375 44.53125 46.484375 51.125 
Q 46.484375 57.671875 42.71875 61.234375 
Q 38.96875 64.796875 32.078125 64.796875 
z
M 9.8125 72.90625 
L 32.078125 72.90625 
Q 44.34375 72.90625 50.609375 67.359375 
Q 56.890625 61.8125 56.890625 51.125 
Q 56.890625 40.328125 50.609375 34.8125 
Q 44.34375 29.296875 32.078125 29.296875 
L 19.671875 29.296875 
L 19.671875 0 
L 9.8125 0 
z
" id="DejaVuSans-50"/>
     <path d="M 44.390625 34.1875 
Q 47.5625 33.109375 50.5625 29.59375 
Q 53.5625 26.078125 56.59375 19.921875 
L 66.609375 0 
L 56 0 
L 46.6875 18.703125 
Q 43.0625 26.03125 39.671875 28.421875 
Q 36.28125 30.8125 30.421875 30.8125 
L 19.671875 30.8125 
L 19.671875 0 
L 9.8125 0 
L 9.8125 72.90625 
L 32.078125 72.90625 
Q 44.578125 72.90625 50.734375 67.671875 
Q 56.890625 62.453125 56.890625 51.90625 
Q 56.890625 45.015625 53.6875 40.46875 
Q 50.484375 35.9375 44.390625 34.1875 
M 19.671875 64.796875 
L 19.671875 38.921875 
L 32.078125 38.921875 
Q 39.203125 38.921875 42.84375 42.21875 
Q 46.484375 45.515625 46.484375 51.90625 
Q 46.484375 58.296875 42.84375 61.546875 
Q 39.203125 64.796875 32.078125 64.796875 
z
" id="DejaVuSans-52"/>
     <path d="M 64.40625 67.28125 
L 64.40625 56.890625 
Q 59.421875 61.53125 53.78125 63.8125 
Q 48.140625 66.109375 41.796875 66.109375 
Q 29.296875 66.109375 22.65625 58.46875 
Q 16.015625 50.828125 16.015625 36.375 
Q 16.015625 21.96875 22.65625 14.328125 
Q 29.296875 6.6875 41.796875 6.6875 
Q 48.140625 6.6875 53.78125 8.984375 
Q 59.421875 11.28125 64.40625 15.921875 
L 64.40625 5.609375 
Q 59.234375 2.09375 53.4375 0.328125 
Q 47.65625 -1.421875 41.21875 -1.421875 
Q 24.65625 -1.421875 15.125 8.703125 
Q 5.609375 18.84375 5.609375 36.375 
Q 5.609375 53.953125 15.125 64.078125 
Q 24.65625 74.21875 41.21875 74.21875 
Q 47.75 74.21875 53.53125 72.484375 
Q 59.328125 70.75 64.40625 67.28125 
" id="DejaVuSans-43"/>
     <path id="DejaVuSans-20"/>
     <path d="M 9.8125 72.90625 
L 24.515625 72.90625 
L 43.109375 23.296875 
L 61.8125 72.90625 
L 76.515625 72.90625 
L 76.515625 0 
L 66.890625 0 
L 66.890625 64.015625 
L 48.09375 14.015625 
L 38.1875 14.015625 
L 19.390625 64.015625 
L 19.390625 0 
L 9.8125 0 
z
" id="DejaVuSans-4d"/>
     <path d="M 56.203125 29.59375 
L 56.203125 25.203125 
L 14.890625 25.203125 
Q 15.484375 15.921875 20.484375 11.0625 
Q 25.484375 6.203125 34.421875 6.203125 
Q 39.59375 6.203125 44.453125 7.46875 
Q 49.3125 8.734375 54.109375 11.28125 
L 54.109375 2.78125 
Q 49.265625 0.734375 44.1875 -0.34375 
Q 39.109375 -1.421875 33.890625 -1.421875 
Q 20.796875 -1.421875 13.15625 6.1875 
Q 5.515625 13.8125 5.515625 26.8125 
Q 5.515625 40.234375 12.765625 48.109375 
Q 20.015625 56 32.328125 56 
Q 43.359375 56 49.78125 48.890625 
Q 56.203125 41.796875 56.203125 29.59375 
M 47.21875 32.234375 
Q 47.125 39.59375 43.09375 43.984375 
Q 39.0625 48.390625 32.421875 48.390625 
Q 24.90625 48.390625 20.390625 44.140625 
Q 15.875 39.890625 15.1875 32.171875 
z
" id="DejaVuSans-65"/>
     <path d="M 34.28125 27.484375 
Q 23.390625 27.484375 19.1875 25 
Q 14.984375 22.515625 14.984375 16.5 
Q 14.984375 11.71875 18.140625 8.90625 
Q 21.296875 6.109375 26.703125 6.109375 
Q 34.1875 6.109375 38.703125 11.40625 
Q 43.21875 16.703125 43.21875 25.484375 
L 43.21875 27.484375 
z
M 52.203125 31.203125 
L 52.203125 0 
L 43.21875 0 
L 43.21875 8.296875 
Q 40.140625 3.328125 35.546875 0.953125 
Q 30.953125 -1.421875 24.3125 -1.421875 
Q 15.921875 -1.421875 10.953125 3.296875 
Q 6 8.015625 6 15.921875 
Q 6 25.140625 12.171875 29.828125 
Q 18.359375 34.515625 30.609375 34.515625 
L 43.21875 34.515625 
L 43.21875 35.40625 
Q 43.21875 41.609375 39.140625 45 
Q 35.0625 48.390625 27.6875 48.390625 
Q 23 48.390625 18.546875 47.265625 
Q 14.109375 46.140625 10.015625 43.890625 
L 10.015625 52.203125 
Q 14.9375 54.109375 19.578125 55.046875 
Q 24.21875 56 28.609375 56 
Q 40.484375 56 46.34375 49.84375 
Q 52.203125 43.703125 52.203125 31.203125 
" id="DejaVuSans-61"/>
     <path d="M 54.890625 33.015625 
L 54.890625 0 
L 45.90625 0 
L 45.90625 32.71875 
Q 45.90625 40.484375 42.875 44.328125 
Q 39.84375 48.1875 33.796875 48.1875 
Q 26.515625 48.1875 22.3125 43.546875 
Q 18.109375 38.921875 18.109375 30.90625 
L 18.109375 0 
L 9.078125 0 
L 9.078125 54.6875 
L 18.109375 54.6875 
L 18.109375 46.1875 
Q 21.34375 51.125 25.703125 53.5625 
Q 30.078125 56 35.796875 56 
Q 45.21875 56 50.046875 50.171875 
Q 54.890625 44.34375 54.890625 33.015625 
" id="DejaVuSans-6e"/>
    </defs>
    <g transform="translate(335.155312 45.84)scale(0.12 -0.12)">
     <use xlink:href="#DejaVuSans-50"/>
     <use x="60.302734" xlink:href="#DejaVuSans-52"/>
     <use x="129.707031" xlink:href="#DejaVuSans-43"/>
     <use x="199.53125" xlink:href="#DejaVuSans-50"/>
     <use x="259.833984" xlink:href="#DejaVuSans-20"/>
     <use x="291.621094" xlink:href="#DejaVuSans-4d"/>
     <use x="377.900391" xlink:href="#DejaVuSans-65"/>
     <use x="439.423828" xlink:href="#DejaVuSans-61"/>
     <use x="500.703125" xlink:href="#DejaVuSans-6e"/>
    </g>
   </g>
   <g id="legend_1">
    <g id="patch_7">
     <path d="M 581.753125 74.518125 
L 641 74.518125 
Q 643 74.518125 643 72.518125 
L 643 58.84 
Q 643 56.84 641 56.84 
L 581.753125 56.84 
Q 579.753125 56.84 579.753125 58.84 
L 579.753125 72.518125 
Q 579.753125 74.518125 581.753125 74.518125 
z
" style="fill:#ffffff;opacity:0.8;stroke:#cccccc;stroke-linejoin:miter;"/>
    </g>
    <g id="line2d_24">
     <path d="M 583.753125 64.938437 
L 603.753125 64.938437 
" style="fill:none;stroke:#1f77b4;stroke-linecap:square;stroke-width:1.5;"/>
    </g>
    <g id="line2d_25"/>
    <g id="text_8">
     <!-- Mean -->
     <g transform="translate(611.753125 68.438437)scale(0.1 -0.1)">
      <use xlink:href="#DejaVuSans-4d"/>
      <use x="86.279297" xlink:href="#DejaVuSans-65"/>
      <use x="147.802734" xlink:href="#DejaVuSans-61"/>
      <use x="209.082031" xlink:href="#DejaVuSans-6e"/>
     </g>
    </g>
   </g>
  </g>
  <g id="axes_2">
   <g id="patch_8">
    <path d="M 90 345.6 
L 648 345.6 
L 648 212.072727 
L 90 212.072727 
z
" style="fill:#ffffff;"/>
   </g>
   <g id="matplotlib.axis_3">
    <g id="xtick_6">
     <g id="line2d_26">
      <path clip-path="url(#p7b05e6692e)" d="M 115.363636 345.6 
L 115.363636 212.072727 
" style="fill:none;stroke:#b0b0b0;stroke-linecap:square;stroke-width:0.8;"/>
     </g>
     <g id="line2d_27">
      <g>
       <use style="stroke:#000000;stroke-width:0.8;" x="115.363636" xlink:href="#m1c008dec24" y="345.6"/>
      </g>
     </g>
     <g id="text_9">
      <!-- Jan -->
      <defs>
       <path d="M 9.8125 72.90625 
L 19.671875 72.90625 
L 19.671875 5.078125 
Q 19.671875 -8.109375 14.671875 -14.0625 
Q 9.671875 -20.015625 -1.421875 -20.015625 
L -5.171875 -20.015625 
L -5.171875 -11.71875 
L -2.09375 -11.71875 
Q 4.4375 -11.71875 7.125 -8.046875 
Q 9.8125 -4.390625 9.8125 5.078125 
z
" id="DejaVuSans-4a"/>
      </defs>
      <g transform="translate(100.97347 366.888252)rotate(-30)scale(0.1 -0.1)">
       <use xlink:href="#DejaVuSans-4a"/>
       <use x="29.492188" xlink:href="#DejaVuSans-61"/>
       <use x="90.771484" xlink:href="#DejaVuSans-6e"/>
      </g>
     </g>
    </g>
    <g id="xtick_7">
     <g id="line2d_28">
      <path clip-path="url(#p7b05e6692e)" d="M 240.788212 345.6 
L 240.788212 212.072727 
" style="fill:none;stroke:#b0b0b0;stroke-linecap:square;stroke-width:0.8;"/>
     </g>
     <g id="line2d_29">
      <g>
       <use style="stroke:#000000;stroke-width:0.8;" x="240.788212" xlink:href="#m1c008dec24" y="345.6"/>
      </g>
     </g>
     <g id="text_10">
      <!-- Apr -->
      <defs>
       <path d="M 34.1875 63.1875 
L 20.796875 26.90625 
L 47.609375 26.90625 
z
M 28.609375 72.90625 
L 39.796875 72.90625 
L 67.578125 0 
L 57.328125 0 
L 50.6875 18.703125 
L 17.828125 18.703125 
L 11.1875 0 
L 0.78125 0 
z
" id="DejaVuSans-41"/>
       <path d="M 18.109375 8.203125 
L 18.109375 -20.796875 
L 9.078125 -20.796875 
L 9.078125 54.6875 
L 18.109375 54.6875 
L 18.109375 46.390625 
Q 20.953125 51.265625 25.265625 53.625 
Q 29.59375 56 35.59375 56 
Q 45.5625 56 51.78125 48.09375 
Q 58.015625 40.1875 58.015625 27.296875 
Q 58.015625 14.40625 51.78125 6.484375 
Q 45.5625 -1.421875 35.59375 -1.421875 
Q 29.59375 -1.421875 25.265625 0.953125 
Q 20.953125 3.328125 18.109375 8.203125 
M 48.6875 27.296875 
Q 48.6875 37.203125 44.609375 42.84375 
Q 40.53125 48.484375 33.40625 48.484375 
Q 26.265625 48.484375 22.1875 42.84375 
Q 18.109375 37.203125 18.109375 27.296875 
Q 18.109375 17.390625 22.1875 11.75 
Q 26.265625 6.109375 33.40625 6.109375 
Q 40.53125 6.109375 44.609375 11.75 
Q 48.6875 17.390625 48.6875 27.296875 
" id="DejaVuSans-70"/>
       <path d="M 41.109375 46.296875 
Q 39.59375 47.171875 37.8125 47.578125 
Q 36.03125 48 33.890625 48 
Q 26.265625 48 22.1875 43.046875 
Q 18.109375 38.09375 18.109375 28.8125 
L 18.109375 0 
L 9.078125 0 
L 9.078125 54.6875 
L 18.109375 54.6875 
L 18.109375 46.1875 
Q 20.953125 51.171875 25.484375 53.578125 
Q 30.03125 56 36.53125 56 
Q 37.453125 56 38.578125 55.875 
Q 39.703125 55.765625 41.0625 55.515625 
z
" id="DejaVuSans-72"/>
      </defs>
      <g transform="translate(224.766129 367.83044)rotate(-30)scale(0.1 -0.1)">
       <use xlink:href="#DejaVuSans-41"/>
       <use x="68.408203" xlink:href="#DejaVuSans-70"/>
       <use x="131.884766" xlink:href="#DejaVuSans-72"/>
      </g>
     </g>
    </g>
    <g id="xtick_8">
     <g id="line2d_30">
      <path clip-path="url(#p7b05e6692e)" d="M 367.606394 345.6 
L 367.606394 212.072727 
" style="fill:none;stroke:#b0b0b0;stroke-linecap:square;stroke-width:0.8;"/>
     </g>
     <g id="line2d_31">
      <g>
       <use style="stroke:#000000;stroke-width:0.8;" x="367.606394" xlink:href="#m1c008dec24" y="345.6"/>
      </g>
     </g>
     <g id="text_11">
      <!-- Jul -->
      <defs>
       <path d="M 8.5 21.578125 
L 8.5 54.6875 
L 17.484375 54.6875 
L 17.484375 21.921875 
Q 17.484375 14.15625 20.5 10.265625 
Q 23.53125 6.390625 29.59375 6.390625 
Q 36.859375 6.390625 41.078125 11.03125 
Q 45.3125 15.671875 45.3125 23.6875 
L 45.3125 54.6875 
L 54.296875 54.6875 
L 54.296875 0 
L 45.3125 0 
L 45.3125 8.40625 
Q 42.046875 3.421875 37.71875 1 
Q 33.40625 -1.421875 27.6875 -1.421875 
Q 18.265625 -1.421875 13.375 4.4375 
Q 8.5 10.296875 8.5 21.578125 
M 31.109375 56 
z
" id="DejaVuSans-75"/>
       <path d="M 9.421875 75.984375 
L 18.40625 75.984375 
L 18.40625 0 
L 9.421875 0 
z
" id="DejaVuSans-6c"/>
      </defs>
      <g transform="translate(356.117412 365.213252)rotate(-30)scale(0.1 -0.1)">
       <use xlink:href="#DejaVuSans-4a"/>
       <use x="29.492188" xlink:href="#DejaVuSans-75"/>
       <use x="92.871094" xlink:href="#DejaVuSans-6c"/>
      </g>
     </g>
    </g>
    <g id="xtick_9">
     <g id="line2d_32">
      <path clip-path="url(#p7b05e6692e)" d="M 495.818182 345.6 
L 495.818182 212.072727 
" style="fill:none;stroke:#b0b0b0;stroke-linecap:square;stroke-width:0.8;"/>
     </g>
     <g id="line2d_33">
      <g>
       <use style="stroke:#000000;stroke-width:0.8;" x="495.818182" xlink:href="#m1c008dec24" y="345.6"/>
      </g>
     </g>
     <g id="text_12">
      <!-- Oct -->
      <defs>
       <path d="M 39.40625 66.21875 
Q 28.65625 66.21875 22.328125 58.203125 
Q 16.015625 50.203125 16.015625 36.375 
Q 16.015625 22.609375 22.328125 14.59375 
Q 28.65625 6.59375 39.40625 6.59375 
Q 50.140625 6.59375 56.421875 14.59375 
Q 62.703125 22.609375 62.703125 36.375 
Q 62.703125 50.203125 56.421875 58.203125 
Q 50.140625 66.21875 39.40625 66.21875 
M 39.40625 74.21875 
Q 54.734375 74.21875 63.90625 63.9375 
Q 73.09375 53.65625 73.09375 36.375 
Q 73.09375 19.140625 63.90625 8.859375 
Q 54.734375 -1.421875 39.40625 -1.421875 
Q 24.03125 -1.421875 14.8125 8.828125 
Q 5.609375 19.09375 5.609375 36.375 
Q 5.609375 53.65625 14.8125 63.9375 
Q 24.03125 74.21875 39.40625 74.21875 
" id="DejaVuSans-4f"/>
       <path d="M 48.78125 52.59375 
L 48.78125 44.1875 
Q 44.96875 46.296875 41.140625 47.34375 
Q 37.3125 48.390625 33.40625 48.390625 
Q 24.65625 48.390625 19.8125 42.84375 
Q 14.984375 37.3125 14.984375 27.296875 
Q 14.984375 17.28125 19.8125 11.734375 
Q 24.65625 6.203125 33.40625 6.203125 
Q 37.3125 6.203125 41.140625 7.25 
Q 44.96875 8.296875 48.78125 10.40625 
L 48.78125 2.09375 
Q 45.015625 0.34375 40.984375 -0.53125 
Q 36.96875 -1.421875 32.421875 -1.421875 
Q 20.0625 -1.421875 12.78125 6.34375 
Q 5.515625 14.109375 5.515625 27.296875 
Q 5.515625 40.671875 12.859375 48.328125 
Q 20.21875 56 33.015625 56 
Q 37.15625 56 41.109375 55.140625 
Q 45.0625 54.296875 48.78125 52.59375 
" id="DejaVuSans-63"/>
       <path d="M 18.3125 70.21875 
L 18.3125 54.6875 
L 36.8125 54.6875 
L 36.8125 47.703125 
L 18.3125 47.703125 
L 18.3125 18.015625 
Q 18.3125 11.328125 20.140625 9.421875 
Q 21.96875 7.515625 27.59375 7.515625 
L 36.8125 7.515625 
L 36.8125 0 
L 27.59375 0 
Q 17.1875 0 13.234375 3.875 
Q 9.28125 7.765625 9.28125 18.015625 
L 9.28125 47.703125 
L 2.6875 47.703125 
L 2.6875 54.6875 
L 9.28125 54.6875 
L 9.28125 70.21875 
z
" id="DejaVuSans-74"/>
      </defs>
      <g transform="translate(479.804218 367.825752)rotate(-30)scale(0.1 -0.1)">
       <use xlink:href="#DejaVuSans-4f"/>
       <use x="78.710938" xlink:href="#DejaVuSans-63"/>
       <use x="133.691406" xlink:href="#DejaVuSans-74"/>
      </g>
     </g>
    </g>
    <g id="xtick_10">
     <g id="line2d_34">
      <path clip-path="url(#p7b05e6692e)" d="M 624.02997 345.6 
L 624.02997 212.072727 
" style="fill:none;stroke:#b0b0b0;stroke-linecap:square;stroke-width:0.8;"/>
     </g>
     <g id="line2d_35">
      <g>
       <use style="stroke:#000000;stroke-width:0.8;" x="624.02997" xlink:href="#m1c008dec24" y="345.6"/>
      </g>
     </g>
     <g id="text_13">
      <!-- Jan -->
      <g transform="translate(609.639803 366.888252)rotate(-30)scale(0.1 -0.1)">
       <use xlink:href="#DejaVuSans-4a"/>
       <use x="29.492188" xlink:href="#DejaVuSans-61"/>
       <use x="90.771484" xlink:href="#DejaVuSans-6e"/>
      </g>
     </g>
    </g>
   </g>
   <g id="matplotlib.axis_4">
    <g id="ytick_7">
     <g id="line2d_36">
      <path clip-path="url(#p7b05e6692e)" d="M 90 335.35067 
L 648 335.35067 
" style="fill:none;stroke:#b0b0b0;stroke-linecap:square;stroke-width:0.8;"/>
     </g>
     <g id="line2d_37">
      <g>
       <use style="stroke:#000000;stroke-width:0.8;" x="90" xlink:href="#m41de5c6e0d" y="335.35067"/>
      </g>
     </g>
     <g id="text_14">
      <!-- −0.10 -->
      <defs>
       <path d="M 10.59375 35.5 
L 73.1875 35.5 
L 73.1875 27.203125 
L 10.59375 27.203125 
z
" id="DejaVuSans-2212"/>
       <path d="M 10.6875 12.40625 
L 21 12.40625 
L 21 0 
L 10.6875 0 
z
" id="DejaVuSans-2e"/>
      </defs>
      <g transform="translate(52.354687 339.149888)scale(0.1 -0.1)">
       <use xlink:href="#DejaVuSans-2212"/>
       <use x="83.789062" xlink:href="#DejaVuSans-30"/>
       <use x="147.412109" xlink:href="#DejaVuSans-2e"/>
       <use x="179.199219" xlink:href="#DejaVuSans-31"/>
       <use x="242.822266" xlink:href="#DejaVuSans-30"/>
      </g>
     </g>
    </g>
    <g id="ytick_8">
     <g id="line2d_38">
      <path clip-path="url(#p7b05e6692e)" d="M 90 310.281903 
L 648 310.281903 
" style="fill:none;stroke:#b0b0b0;stroke-linecap:square;stroke-width:0.8;"/>
     </g>
     <g id="line2d_39">
      <g>
       <use style="stroke:#000000;stroke-width:0.8;" x="90" xlink:href="#m41de5c6e0d" y="310.281903"/>
      </g>
     </g>
     <g id="text_15">
      <!-- −0.05 -->
      <defs>
       <path d="M 10.796875 72.90625 
L 49.515625 72.90625 
L 49.515625 64.59375 
L 19.828125 64.59375 
L 19.828125 46.734375 
Q 21.96875 47.46875 24.109375 47.828125 
Q 26.265625 48.1875 28.421875 48.1875 
Q 40.625 48.1875 47.75 41.5 
Q 54.890625 34.8125 54.890625 23.390625 
Q 54.890625 11.625 47.5625 5.09375 
Q 40.234375 -1.421875 26.90625 -1.421875 
Q 22.3125 -1.421875 17.546875 -0.640625 
Q 12.796875 0.140625 7.71875 1.703125 
L 7.71875 11.625 
Q 12.109375 9.234375 16.796875 8.0625 
Q 21.484375 6.890625 26.703125 6.890625 
Q 35.15625 6.890625 40.078125 11.328125 
Q 45.015625 15.765625 45.015625 23.390625 
Q 45.015625 31 40.078125 35.4375 
Q 35.15625 39.890625 26.703125 39.890625 
Q 22.75 39.890625 18.8125 39.015625 
Q 14.890625 38.140625 10.796875 36.28125 
z
" id="DejaVuSans-35"/>
      </defs>
      <g transform="translate(52.354687 314.081122)scale(0.1 -0.1)">
       <use xlink:href="#DejaVuSans-2212"/>
       <use x="83.789062" xlink:href="#DejaVuSans-30"/>
       <use x="147.412109" xlink:href="#DejaVuSans-2e"/>
       <use x="179.199219" xlink:href="#DejaVuSans-30"/>
       <use x="242.822266" xlink:href="#DejaVuSans-35"/>
      </g>
     </g>
    </g>
    <g id="ytick_9">
     <g id="line2d_40">
      <path clip-path="url(#p7b05e6692e)" d="M 90 285.213137 
L 648 285.213137 
" style="fill:none;stroke:#b0b0b0;stroke-linecap:square;stroke-width:0.8;"/>
     </g>
     <g id="line2d_41">
      <g>
       <use style="stroke:#000000;stroke-width:0.8;" x="90" xlink:href="#m41de5c6e0d" y="285.213137"/>
      </g>
     </g>
     <g id="text_16">
      <!-- 0.00 -->
      <g transform="translate(60.734375 289.012355)scale(0.1 -0.1)">
       <use xlink:href="#DejaVuSans-30"/>
       <use x="63.623047" xlink:href="#DejaVuSans-2e"/>
       <use x="95.410156" xlink:href="#DejaVuSans-30"/>
       <use x="159.033203" xlink:href="#DejaVuSans-30"/>
      </g>
     </g>
    </g>
    <g id="ytick_10">
     <g id="line2d_42">
      <path clip-path="url(#p7b05e6692e)" d="M 90 260.14437 
L 648 260.14437 
" style="fill:none;stroke:#b0b0b0;stroke-linecap:square;stroke-width:0.8;"/>
     </g>
     <g id="line2d_43">
      <g>
       <use style="stroke:#000000;stroke-width:0.8;" x="90" xlink:href="#m41de5c6e0d" y="260.14437"/>
      </g>
     </g>
     <g id="text_17">
      <!-- 0.05 -->
      <g transform="translate(60.734375 263.943589)scale(0.1 -0.1)">
       <use xlink:href="#DejaVuSans-30"/>
       <use x="63.623047" xlink:href="#DejaVuSans-2e"/>
       <use x="95.410156" xlink:href="#DejaVuSans-30"/>
       <use x="159.033203" xlink:href="#DejaVuSans-35"/>
      </g>
     </g>
    </g>
    <g id="ytick_11">
     <g id="line2d_44">
      <path clip-path="url(#p7b05e6692e)" d="M 90 235.075604 
L 648 235.075604 
" style="fill:none;stroke:#b0b0b0;stroke-linecap:square;stroke-width:0.8;"/>
     </g>
     <g id="line2d_45">
      <g>
       <use style="stroke:#000000;stroke-width:0.8;" x="90" xlink:href="#m41de5c6e0d" y="235.075604"/>
      </g>
     </g>
     <g id="text_18">
      <!-- 0.10 -->
      <g transform="translate(60.734375 238.874822)scale(0.1 -0.1)">
       <use xlink:href="#DejaVuSans-30"/>
       <use x="63.623047" xlink:href="#DejaVuSans-2e"/>
       <use x="95.410156" xlink:href="#DejaVuSans-31"/>
       <use x="159.033203" xlink:href="#DejaVuSans-30"/>
      </g>
     </g>
    </g>
   </g>
   <g id="line2d_46">
    <path clip-path="url(#p7b05e6692e)" d="M 115.363636 258.591019 
L 116.757243 259.296225 
L 118.150849 259.318816 
L 120.938062 258.883651 
L 122.331668 259.297511 
L 123.725275 256.547663 
L 125.118881 256.208727 
L 127.906094 255.996925 
L 130.693307 255.266592 
L 133.480519 255.562667 
L 136.267732 256.657649 
L 137.661339 256.825374 
L 139.054945 256.851627 
L 140.448551 256.525365 
L 141.842158 256.498616 
L 143.235764 257.331147 
L 144.629371 257.559942 
L 146.022977 257.14804 
L 147.416583 255.956131 
L 148.81019 255.296313 
L 150.203796 255.465496 
L 151.597403 254.87783 
L 155.778222 252.110312 
L 158.565435 252.185874 
L 159.959041 251.201759 
L 162.746254 251.272577 
L 165.533467 252.420871 
L 166.927073 252.662043 
L 169.714286 252.434435 
L 171.107892 252.272756 
L 172.501499 251.368568 
L 173.895105 250.278005 
L 175.288711 249.972616 
L 178.075924 249.655553 
L 179.46953 248.851779 
L 180.863137 249.035221 
L 182.256743 249.526235 
L 183.65035 249.353161 
L 187.831169 249.839379 
L 189.224775 249.167627 
L 190.618382 248.345556 
L 192.011988 247.153603 
L 193.405594 246.406933 
L 194.799201 245.837895 
L 196.192807 245.874245 
L 197.586414 245.625678 
L 198.98002 246.026356 
L 200.373626 245.680423 
L 201.767233 245.19431 
L 203.160839 245.198916 
L 204.554446 246.361206 
L 205.948052 247.142176 
L 207.341658 247.488967 
L 210.128871 249.428285 
L 211.522478 250.816052 
L 212.916084 251.511786 
L 215.703297 251.333637 
L 218.490509 252.778723 
L 219.884116 253.28906 
L 221.277722 253.345998 
L 222.671329 252.829978 
L 226.852148 252.028866 
L 228.245754 251.993437 
L 229.639361 252.366146 
L 231.032967 253.461872 
L 232.426573 254.112039 
L 233.82018 254.481825 
L 235.213786 253.89032 
L 236.607393 254.009498 
L 238.000999 253.323695 
L 239.394605 253.125838 
L 240.788212 253.208326 
L 242.181818 252.524067 
L 243.575425 252.326952 
L 246.362637 251.269471 
L 247.756244 251.429519 
L 249.14985 251.72334 
L 251.937063 251.01684 
L 253.330669 250.257097 
L 254.724276 250.243382 
L 258.905095 250.882733 
L 260.298701 250.548093 
L 263.085914 248.865984 
L 264.47952 248.612928 
L 265.873127 248.13208 
L 267.266733 248.342124 
L 270.053946 248.088388 
L 272.841159 248.925268 
L 274.234765 248.706013 
L 275.628372 248.02596 
L 277.021978 247.113241 
L 278.415584 246.779053 
L 282.596404 247.196356 
L 283.99001 247.487403 
L 286.777223 248.37329 
L 289.564436 247.716373 
L 290.958042 247.24966 
L 292.351648 248.140079 
L 295.138861 248.951336 
L 300.713287 249.440003 
L 302.106893 250.219137 
L 303.5005 251.442863 
L 304.894106 252.145506 
L 306.287712 252.48593 
L 307.681319 252.684029 
L 310.468531 254.336942 
L 311.862138 254.704224 
L 313.255744 254.840332 
L 314.649351 255.440924 
L 316.042957 255.744656 
L 317.436563 256.52193 
L 320.223776 258.876808 
L 324.404595 261.776078 
L 325.798202 262.566464 
L 327.191808 263.762913 
L 331.372627 265.091982 
L 332.766234 266.079635 
L 334.15984 266.868138 
L 335.553447 267.399249 
L 336.947053 268.193699 
L 338.340659 268.748129 
L 342.521479 268.757789 
L 343.915085 268.99735 
L 345.308691 269.538171 
L 346.702298 270.241617 
L 348.095904 271.135199 
L 350.883117 271.460778 
L 353.67033 272.485724 
L 355.063936 272.617493 
L 356.457542 273.178392 
L 357.851149 273.866862 
L 359.244755 274.197518 
L 362.031968 274.680334 
L 363.425574 275.38265 
L 366.212787 276.223953 
L 367.606394 276.472328 
L 369 276.426666 
L 370.393606 276.117452 
L 373.180819 275.900392 
L 374.574426 275.887606 
L 375.968032 276.023337 
L 377.361638 276.388726 
L 380.148851 276.304997 
L 382.936064 276.299934 
L 384.32967 276.43187 
L 385.723277 276.693388 
L 387.116883 276.690027 
L 392.691309 277.618073 
L 394.084915 277.669863 
L 395.478521 277.561118 
L 396.872128 277.634062 
L 399.659341 278.481197 
L 402.446553 278.359823 
L 403.84016 278.161822 
L 406.627373 277.978103 
L 408.020979 278.09003 
L 409.414585 278.016542 
L 410.808192 277.771762 
L 412.201798 277.974813 
L 414.989011 277.668223 
L 416.382617 277.646043 
L 417.776224 277.941154 
L 419.16983 277.829333 
L 420.563437 277.93147 
L 421.957043 278.403349 
L 426.137862 278.972027 
L 427.531469 279.435693 
L 430.318681 279.65097 
L 433.105894 279.974594 
L 434.4995 279.729886 
L 435.893107 279.35542 
L 437.286713 278.788562 
L 440.073926 278.542403 
L 441.467532 278.566864 
L 442.861139 278.462268 
L 447.041958 278.518272 
L 448.435564 278.184582 
L 449.829171 277.612875 
L 452.616384 276.912991 
L 455.403596 277.166016 
L 456.797203 276.838633 
L 459.584416 276.750081 
L 462.371628 276.020341 
L 463.765235 275.939166 
L 465.158841 275.708902 
L 466.552448 292.355696 
L 469.33966 292.617396 
L 470.733267 292.843728 
L 474.914086 293.019558 
L 476.307692 292.991115 
L 477.701299 293.074332 
L 479.094905 293.280164 
L 483.275724 293.029089 
L 484.669331 293.173565 
L 488.85015 293.125823 
L 490.243756 293.200598 
L 495.818182 293.01373 
L 498.605395 292.422996 
L 499.999001 292.411391 
L 501.392607 292.234046 
L 508.360639 292.195005 
L 511.147852 291.915719 
L 512.541459 291.546098 
L 516.722278 290.965251 
L 522.296703 290.612653 
L 523.69031 266.104416 
L 525.083916 265.640436 
L 526.477522 264.081366 
L 527.871129 263.411973 
L 529.264735 262.9315 
L 530.658342 262.721671 
L 532.051948 262.054365 
L 533.445554 261.764069 
L 534.839161 261.218726 
L 536.232767 261.015424 
L 539.01998 259.986065 
L 541.807193 258.467512 
L 544.594406 257.255077 
L 545.988012 255.907561 
L 547.381618 255.210905 
L 548.775225 254.054599 
L 552.956044 251.903777 
L 554.34965 251.934675 
L 555.743257 251.785481 
L 557.136863 250.712515 
L 558.53047 249.88525 
L 559.924076 249.581876 
L 561.317682 248.469728 
L 562.711289 248.415986 
L 564.104895 247.850778 
L 565.498501 247.565211 
L 566.892108 247.715274 
L 568.285714 247.259971 
L 569.679321 247.090077 
L 571.072927 247.370067 
L 572.466533 247.835269 
L 573.86014 248.465156 
L 575.253746 248.919926 
L 578.040959 249.677613 
L 579.434565 250.336196 
L 580.828172 250.378219 
L 582.221778 250.592147 
L 583.615385 251.88202 
L 585.008991 252.478542 
L 586.402597 252.815313 
L 587.796204 252.705476 
L 590.583417 254.257424 
L 591.977023 254.720603 
L 593.370629 254.807161 
L 594.764236 254.670268 
L 596.157842 254.384144 
L 598.945055 255.388062 
L 601.732268 255.834468 
L 603.125874 256.462192 
L 604.519481 256.153596 
L 605.913087 256.830212 
L 607.306693 256.823229 
L 608.7003 256.679104 
L 610.093906 256.82292 
L 611.487512 257.278212 
L 612.881119 256.995883 
L 614.274725 257.33083 
L 617.061938 257.411608 
L 618.455544 257.850561 
L 619.849151 258.074292 
L 621.242757 258.588656 
L 622.636364 258.511717 
L 622.636364 258.511717 
" style="fill:none;stroke:#1f77b4;stroke-linecap:square;stroke-width:1.5;"/>
   </g>
   <g id="line2d_47">
    <path clip-path="url(#p7b05e6692e)" d="M 115.363636 303.299086 
L 116.757243 301.421297 
L 118.150849 301.673753 
L 120.938062 301.894619 
L 122.331668 302.063037 
L 125.118881 301.650376 
L 126.512488 302.174981 
L 127.906094 302.474751 
L 129.2997 301.402022 
L 130.693307 301.503473 
L 132.086913 301.445974 
L 134.874126 300.804071 
L 136.267732 300.683374 
L 137.661339 300.841332 
L 139.054945 301.836039 
L 140.448551 302.315519 
L 141.842158 303.689647 
L 143.235764 303.894212 
L 144.629371 303.624309 
L 146.022977 304.08474 
L 147.416583 304.366231 
L 148.81019 304.271635 
L 150.203796 304.823786 
L 151.597403 305.730516 
L 152.991009 307.103771 
L 154.384615 307.74945 
L 155.778222 308.269115 
L 158.565435 307.792649 
L 159.959041 308.731051 
L 161.352647 309.214416 
L 162.746254 310.322946 
L 164.13986 310.261038 
L 165.533467 310.434303 
L 166.927073 310.150608 
L 168.320679 310.146353 
L 169.714286 310.517001 
L 172.501499 310.13197 
L 173.895105 309.429621 
L 175.288711 308.422599 
L 176.682318 309.275399 
L 178.075924 309.065654 
L 179.46953 309.65741 
L 180.863137 309.430072 
L 182.256743 309.772815 
L 183.65035 309.577007 
L 186.437562 309.478193 
L 189.224775 308.16491 
L 190.618382 308.095808 
L 192.011988 307.818751 
L 193.405594 307.998027 
L 194.799201 307.948363 
L 196.192807 307.318799 
L 197.586414 306.857244 
L 198.98002 306.102716 
L 200.373626 306.383668 
L 201.767233 306.10637 
L 203.160839 305.527914 
L 205.948052 304.618413 
L 207.341658 303.381977 
L 208.735265 301.575425 
L 210.128871 300.690425 
L 212.916084 299.335342 
L 214.30969 298.879916 
L 215.703297 298.269151 
L 218.490509 295.879879 
L 219.884116 294.293911 
L 224.064935 293.829767 
L 225.458541 294.212911 
L 226.852148 293.520684 
L 228.245754 292.101247 
L 229.639361 291.327762 
L 231.032967 291.61806 
L 232.426573 291.275445 
L 233.82018 290.093472 
L 235.213786 289.668635 
L 236.607393 288.143482 
L 239.394605 285.800568 
L 240.788212 284.977547 
L 242.181818 284.519099 
L 243.575425 282.410325 
L 244.969031 281.348586 
L 246.362637 281.257829 
L 247.756244 280.117589 
L 249.14985 280.427259 
L 251.937063 278.842612 
L 253.330669 277.27895 
L 254.724276 276.599887 
L 256.117882 275.540751 
L 257.511489 274.087193 
L 258.905095 273.342734 
L 261.692308 272.155787 
L 263.085914 272.023366 
L 264.47952 269.099249 
L 267.266733 266.911091 
L 268.66034 266.688174 
L 270.053946 263.913818 
L 271.447552 262.073381 
L 272.841159 260.713202 
L 274.234765 258.574288 
L 275.628372 255.916451 
L 277.021978 254.275465 
L 278.415584 253.337087 
L 279.809191 251.086469 
L 281.202797 249.925847 
L 282.596404 248.496778 
L 283.99001 246.904225 
L 285.383616 244.584005 
L 286.777223 244.085818 
L 288.170829 242.567049 
L 289.564436 241.455789 
L 292.351648 239.704333 
L 293.745255 238.256663 
L 297.926074 234.68991 
L 299.31968 232.183684 
L 300.713287 232.168307 
L 302.106893 231.032674 
L 306.287712 227.102824 
L 307.681319 226.371121 
L 309.074925 224.966027 
L 310.468531 224.421071 
L 311.862138 222.058731 
L 313.255744 220.711905 
L 314.649351 219.716955 
L 317.436563 219.967123 
L 318.83017 219.648487 
L 320.223776 218.142149 
L 321.617383 219.228051 
L 323.010989 219.893098 
L 324.404595 219.282289 
L 325.798202 219.203828 
L 327.191808 219.90955 
L 328.585415 220.854852 
L 329.979021 222.324058 
L 331.372627 224.499049 
L 332.766234 227.143738 
L 334.15984 228.486222 
L 335.553447 229.548274 
L 336.947053 230.302272 
L 338.340659 230.925036 
L 339.734266 232.067026 
L 342.521479 236.046752 
L 343.915085 237.052254 
L 348.095904 241.040762 
L 349.48951 241.801368 
L 350.883117 242.90675 
L 352.276723 244.747449 
L 355.063936 247.401721 
L 356.457542 249.310869 
L 357.851149 250.87468 
L 360.638362 253.565167 
L 362.031968 254.515949 
L 363.425574 255.188856 
L 364.819181 255.47925 
L 367.606394 258.361165 
L 369 260.503407 
L 370.393606 262.163836 
L 371.787213 263.33065 
L 373.180819 263.677043 
L 374.574426 264.513843 
L 375.968032 265.123207 
L 377.361638 266.516432 
L 378.755245 267.35269 
L 380.148851 267.979922 
L 381.542458 268.403759 
L 384.32967 269.752085 
L 385.723277 270.946201 
L 387.116883 270.982237 
L 388.51049 270.461988 
L 389.904096 270.421024 
L 391.297702 270.519782 
L 392.691309 270.947451 
L 394.084915 271.689912 
L 395.478521 271.988544 
L 396.872128 271.778157 
L 398.265734 272.240028 
L 399.659341 272.321281 
L 401.052947 272.903358 
L 402.446553 273.113413 
L 403.84016 272.979668 
L 405.233766 273.039519 
L 406.627373 272.869659 
L 409.414585 272.88843 
L 410.808192 273.221061 
L 412.201798 273.051897 
L 413.595405 273.575525 
L 414.989011 273.863771 
L 416.382617 274.422898 
L 417.776224 274.684911 
L 419.16983 274.748812 
L 420.563437 275.022151 
L 421.957043 275.561501 
L 423.350649 275.773183 
L 424.744256 275.770536 
L 427.531469 277.063201 
L 428.925075 277.511039 
L 430.318681 278.264 
L 431.712288 278.641891 
L 433.105894 278.169068 
L 434.4995 277.892764 
L 435.893107 277.811232 
L 437.286713 278.019067 
L 438.68032 277.962929 
L 440.073926 278.472563 
L 441.467532 278.648487 
L 442.861139 278.337582 
L 445.648352 279.011833 
L 447.041958 278.537243 
L 449.829171 278.005011 
L 451.222777 277.995463 
L 452.616384 277.683486 
L 454.00999 277.858058 
L 455.403596 277.891447 
L 458.190809 279.716636 
L 459.584416 280.191875 
L 460.978022 280.423962 
L 463.765235 281.403859 
L 465.158841 281.174453 
L 466.552448 271.338227 
L 467.946054 271.471491 
L 469.33966 271.903949 
L 470.733267 272.457307 
L 472.126873 271.51619 
L 473.52048 271.161528 
L 474.914086 270.315923 
L 476.307692 270.512572 
L 477.701299 270.279591 
L 479.094905 270.474238 
L 480.488511 270.326032 
L 483.275724 269.630659 
L 484.669331 269.902455 
L 487.456543 269.915957 
L 488.85015 270.15973 
L 490.243756 270.654543 
L 491.637363 270.604805 
L 493.030969 270.774289 
L 494.424575 271.245677 
L 495.818182 271.917613 
L 497.211788 271.869543 
L 498.605395 271.610979 
L 499.999001 272.353429 
L 501.392607 272.623158 
L 502.786214 272.580558 
L 504.17982 273.396291 
L 508.360639 274.798732 
L 509.754246 275.590326 
L 511.147852 276.12971 
L 512.541459 275.226183 
L 513.935065 274.761749 
L 515.328671 274.931101 
L 516.722278 274.827367 
L 518.115884 275.390047 
L 519.509491 275.605886 
L 520.903097 275.633454 
L 522.296703 276.196166 
L 523.69031 293.453252 
L 525.083916 293.826615 
L 526.477522 294.688234 
L 527.871129 295.286021 
L 529.264735 296.824939 
L 530.658342 297.390955 
L 532.051948 298.528839 
L 533.445554 299.132516 
L 534.839161 300.233695 
L 536.232767 300.715818 
L 537.626374 301.341001 
L 539.01998 301.560068 
L 541.807193 302.300973 
L 543.200799 303.16167 
L 545.988012 303.912985 
L 547.381618 303.666547 
L 548.775225 304.474088 
L 551.562438 305.178094 
L 552.956044 304.705761 
L 554.34965 306.347021 
L 557.136863 307.969216 
L 558.53047 307.998781 
L 559.924076 308.215734 
L 561.317682 308.910531 
L 564.104895 309.886742 
L 565.498501 309.075652 
L 568.285714 309.082991 
L 569.679321 309.867488 
L 571.072927 309.711113 
L 572.466533 309.439931 
L 573.86014 308.939781 
L 575.253746 308.637905 
L 576.647353 307.167517 
L 578.040959 307.055058 
L 579.434565 306.655938 
L 580.828172 307.15732 
L 583.615385 306.864462 
L 586.402597 306.308224 
L 587.796204 306.435299 
L 589.18981 305.788982 
L 590.583417 306.003313 
L 591.977023 305.51399 
L 593.370629 303.327935 
L 594.764236 302.994628 
L 596.157842 303.232732 
L 597.551449 302.88118 
L 598.945055 302.933531 
L 600.338661 302.779064 
L 601.732268 303.743021 
L 603.125874 304.110718 
L 604.519481 304.11329 
L 605.913087 303.764078 
L 607.306693 304.331311 
L 608.7003 305.065816 
L 610.093906 305.256419 
L 611.487512 304.952113 
L 612.881119 304.763545 
L 614.274725 304.448786 
L 615.668332 304.326908 
L 617.061938 304.36064 
L 618.455544 304.567025 
L 621.242757 303.944978 
L 622.636364 303.85546 
L 622.636364 303.85546 
" style="fill:none;stroke:#ff7f0e;stroke-linecap:square;stroke-width:1.5;"/>
   </g>
   <g id="line2d_48">
    <path clip-path="url(#p7b05e6692e)" d="M 115.363636 264.214178 
L 116.757243 269.209696 
L 118.150849 270.398891 
L 119.544456 270.937014 
L 120.938062 270.345736 
L 122.331668 271.000551 
L 123.725275 281.875314 
L 125.118881 281.405229 
L 126.512488 281.86933 
L 127.906094 282.515507 
L 129.2997 284.081226 
L 130.693307 283.171122 
L 133.480519 284.555767 
L 134.874126 283.763443 
L 137.661339 282.988678 
L 140.448551 283.381126 
L 141.842158 285.483636 
L 143.235764 284.399395 
L 144.629371 284.75678 
L 146.022977 285.248568 
L 147.416583 284.559182 
L 148.81019 286.047756 
L 150.203796 287.70706 
L 151.597403 288.912965 
L 152.991009 294.368399 
L 154.384615 296.89641 
L 155.778222 298.928196 
L 157.171828 299.023823 
L 159.959041 301.147296 
L 161.352647 301.30038 
L 162.746254 301.09456 
L 164.13986 300.736455 
L 165.533467 299.257733 
L 166.927073 298.42648 
L 168.320679 298.19515 
L 169.714286 297.75872 
L 172.501499 295.940537 
L 175.288711 294.693319 
L 176.682318 294.118486 
L 178.075924 294.856122 
L 179.46953 293.968999 
L 180.863137 293.721 
L 182.256743 294.155887 
L 185.043956 292.698464 
L 186.437562 293.131505 
L 187.831169 295.297151 
L 189.224775 295.223913 
L 190.618382 295.70367 
L 192.011988 296.373429 
L 194.799201 295.102239 
L 196.192807 295.800003 
L 197.586414 295.686588 
L 198.98002 294.716908 
L 200.373626 294.719332 
L 201.767233 294.035671 
L 203.160839 292.344394 
L 204.554446 292.573364 
L 207.341658 289.697722 
L 208.735265 289.23504 
L 210.128871 287.031063 
L 211.522478 286.539225 
L 212.916084 284.984212 
L 214.30969 286.078365 
L 215.703297 286.301961 
L 217.096903 285.606909 
L 218.490509 285.983657 
L 219.884116 287.375603 
L 221.277722 287.66286 
L 222.671329 288.339477 
L 224.064935 289.507053 
L 225.458541 290.523934 
L 226.852148 291.234282 
L 228.245754 293.599018 
L 229.639361 294.162755 
L 231.032967 294.31244 
L 232.426573 295.633167 
L 235.213786 296.586526 
L 236.607393 297.500018 
L 238.000999 299.711961 
L 239.394605 301.104952 
L 240.788212 301.811011 
L 243.575425 306.338838 
L 244.969031 307.83255 
L 246.362637 310.524581 
L 249.14985 312.615944 
L 250.543457 315.876087 
L 251.937063 317.378814 
L 253.330669 317.331558 
L 254.724276 319.319136 
L 257.511489 322.375618 
L 258.905095 324.653328 
L 260.298701 328.342248 
L 263.085914 333.530537 
L 264.47952 336.782391 
L 265.873127 337.713162 
L 267.266733 339.287764 
L 268.66034 339.530579 
L 270.053946 338.850732 
L 271.447552 336.816469 
L 272.841159 335.764085 
L 277.021978 337.812224 
L 278.415584 338.882526 
L 279.809191 339.260118 
L 281.202797 338.244338 
L 282.596404 336.532924 
L 283.99001 335.608445 
L 285.383616 335.954928 
L 286.777223 336.571782 
L 288.170829 335.953321 
L 289.564436 334.377643 
L 290.958042 333.493484 
L 292.351648 332.220125 
L 295.138861 328.862501 
L 296.532468 325.184008 
L 297.926074 323.602637 
L 299.31968 322.220955 
L 300.713287 320.10493 
L 302.106893 318.290592 
L 303.5005 314.312415 
L 304.894106 312.809452 
L 306.287712 309.874521 
L 307.681319 305.148627 
L 309.074925 301.153711 
L 310.468531 299.96268 
L 311.862138 295.741822 
L 313.255744 290.945177 
L 314.649351 289.042345 
L 317.436563 278.956724 
L 320.223776 271.480778 
L 321.617383 266.810648 
L 323.010989 265.664473 
L 325.798202 258.430557 
L 329.979021 253.935363 
L 331.372627 251.057312 
L 332.766234 246.979277 
L 335.553447 241.354485 
L 336.947053 240.190482 
L 338.340659 240.87441 
L 339.734266 242.279774 
L 341.127872 241.38655 
L 342.521479 239.137829 
L 343.915085 238.335676 
L 346.702298 237.988487 
L 348.095904 238.245653 
L 349.48951 238.280965 
L 350.883117 237.979331 
L 352.276723 237.319634 
L 353.67033 237.689106 
L 355.063936 236.306241 
L 356.457542 236.084972 
L 357.851149 236.147403 
L 359.244755 235.174108 
L 360.638362 235.803 
L 362.031968 235.559809 
L 363.425574 236.428782 
L 364.819181 237.919064 
L 366.212787 238.275326 
L 367.606394 238.857021 
L 369 241.340951 
L 370.393606 242.531519 
L 371.787213 242.728978 
L 373.180819 244.404617 
L 374.574426 246.32325 
L 375.968032 247.612442 
L 377.361638 248.142539 
L 378.755245 249.085454 
L 380.148851 248.992008 
L 381.542458 249.974991 
L 382.936064 251.636755 
L 384.32967 252.969779 
L 387.116883 256.013283 
L 388.51049 256.943907 
L 389.904096 257.447777 
L 391.297702 257.521215 
L 392.691309 258.231135 
L 395.478521 259.293629 
L 396.872128 259.580054 
L 398.265734 260.223758 
L 399.659341 261.056157 
L 401.052947 260.899114 
L 402.446553 261.360339 
L 403.84016 261.403487 
L 405.233766 261.125137 
L 408.020979 262.018621 
L 409.414585 263.621349 
L 410.808192 263.783614 
L 412.201798 265.536138 
L 413.595405 265.83838 
L 414.989011 265.812148 
L 416.382617 266.104802 
L 417.776224 266.794055 
L 419.16983 268.560458 
L 420.563437 269.446028 
L 421.957043 270.595742 
L 423.350649 271.998082 
L 424.744256 272.793855 
L 426.137862 272.690714 
L 427.531469 273.755372 
L 428.925075 273.756497 
L 430.318681 273.03352 
L 431.712288 272.931951 
L 433.105894 273.108055 
L 434.4995 274.492068 
L 435.893107 275.215425 
L 437.286713 276.262886 
L 438.68032 276.44159 
L 440.073926 275.946702 
L 441.467532 275.280574 
L 442.861139 275.089971 
L 444.254745 274.179321 
L 445.648352 274.796554 
L 448.435564 274.245593 
L 449.829171 274.6529 
L 452.616384 275.155376 
L 454.00999 274.840095 
L 455.403596 274.68765 
L 458.190809 277.237861 
L 459.584416 276.849194 
L 460.978022 276.876541 
L 462.371628 277.399884 
L 463.765235 277.568019 
L 465.158841 277.604209 
L 466.552448 279.099266 
L 467.946054 279.470639 
L 469.33966 279.710293 
L 470.733267 279.034462 
L 473.52048 278.54721 
L 476.307692 276.459266 
L 480.488511 276.013818 
L 481.882118 276.127 
L 483.275724 276.595308 
L 484.669331 276.328416 
L 486.062937 276.417647 
L 487.456543 276.677168 
L 488.85015 277.257987 
L 490.243756 276.900302 
L 491.637363 276.410184 
L 494.424575 275.978655 
L 495.818182 275.805088 
L 497.211788 275.804639 
L 498.605395 275.3985 
L 499.999001 275.597194 
L 501.392607 276.788648 
L 502.786214 276.672341 
L 504.17982 277.412771 
L 505.573427 277.407428 
L 508.360639 276.917742 
L 509.754246 276.359052 
L 511.147852 276.083918 
L 512.541459 275.108751 
L 513.935065 274.471551 
L 515.328671 274.444228 
L 516.722278 274.742325 
L 518.115884 274.902242 
L 520.903097 274.493039 
L 522.296703 274.516648 
L 523.69031 267.322128 
L 525.083916 266.214935 
L 526.477522 264.237485 
L 527.871129 264.117799 
L 529.264735 264.17363 
L 530.658342 264.464636 
L 533.445554 268.667376 
L 534.839161 268.729637 
L 539.01998 268.170574 
L 540.413586 267.748652 
L 541.807193 267.541597 
L 543.200799 266.926432 
L 544.594406 265.556962 
L 545.988012 263.023938 
L 547.381618 263.294063 
L 548.775225 262.173819 
L 550.168831 261.250307 
L 551.562438 260.943348 
L 552.956044 260.395725 
L 554.34965 257.675878 
L 555.743257 257.904217 
L 557.136863 257.098139 
L 558.53047 256.746898 
L 559.924076 257.070607 
L 561.317682 256.628635 
L 562.711289 256.42463 
L 564.104895 255.963402 
L 565.498501 255.192569 
L 566.892108 255.817631 
L 568.285714 255.314693 
L 569.679321 256.023654 
L 573.86014 255.414823 
L 575.253746 255.145806 
L 576.647353 257.715807 
L 578.040959 257.500253 
L 579.434565 257.508052 
L 580.828172 256.387699 
L 582.221778 256.077138 
L 583.615385 256.590775 
L 585.008991 256.195179 
L 586.402597 256.314316 
L 587.796204 256.246195 
L 589.18981 254.782466 
L 590.583417 252.437884 
L 591.977023 251.334985 
L 593.370629 250.521478 
L 594.764236 250.169573 
L 596.157842 250.419804 
L 597.551449 251.027142 
L 601.732268 252.200139 
L 603.125874 253.698796 
L 604.519481 252.582436 
L 605.913087 253.349392 
L 607.306693 252.858178 
L 608.7003 252.71073 
L 610.093906 253.22169 
L 611.487512 254.843903 
L 614.274725 256.183921 
L 618.455544 259.03362 
L 619.849151 259.555969 
L 622.636364 262.126369 
L 622.636364 262.126369 
" style="fill:none;stroke:#2ca02c;stroke-linecap:square;stroke-width:1.5;"/>
   </g>
   <g id="line2d_49">
    <path clip-path="url(#p7b05e6692e)" d="M 115.363636 305.964314 
L 116.757243 301.044539 
L 118.150849 300.378095 
L 119.544456 300.520658 
L 120.938062 300.338866 
L 122.331668 300.001001 
L 123.725275 298.771131 
L 125.118881 299.23733 
L 126.512488 299.10837 
L 127.906094 298.30458 
L 129.2997 296.802104 
L 130.693307 297.028239 
L 132.086913 295.715678 
L 133.480519 293.274602 
L 134.874126 292.259163 
L 136.267732 291.749849 
L 137.661339 291.681472 
L 139.054945 291.349175 
L 140.448551 290.58466 
L 143.235764 289.94454 
L 144.629371 290.0641 
L 146.022977 288.817463 
L 147.416583 288.709709 
L 150.203796 287.1657 
L 151.597403 286.319734 
L 152.991009 282.992539 
L 154.384615 281.115592 
L 155.778222 278.159277 
L 157.171828 277.385539 
L 158.565435 275.801221 
L 159.959041 274.796759 
L 161.352647 273.156192 
L 162.746254 273.223832 
L 164.13986 272.815176 
L 165.533467 273.492418 
L 166.927073 273.329726 
L 168.320679 272.530749 
L 169.714286 273.148789 
L 171.107892 273.638527 
L 172.501499 274.308373 
L 173.895105 274.521299 
L 175.288711 274.916098 
L 176.682318 274.60066 
L 179.46953 274.552035 
L 182.256743 272.935359 
L 185.043956 273.541329 
L 186.437562 272.73805 
L 187.831169 270.395562 
L 189.224775 269.960269 
L 192.011988 268.596436 
L 193.405594 267.430105 
L 194.799201 267.95404 
L 196.192807 267.839258 
L 197.586414 268.084687 
L 198.98002 267.271437 
L 200.373626 268.580059 
L 201.767233 269.431799 
L 203.160839 270.034201 
L 204.554446 269.608139 
L 205.948052 270.000706 
L 207.341658 270.508783 
L 208.735265 270.555746 
L 210.128871 271.790262 
L 211.522478 272.003042 
L 212.916084 274.016215 
L 214.30969 271.637521 
L 215.703297 271.979672 
L 218.490509 273.076115 
L 219.884116 271.222412 
L 221.277722 270.450148 
L 222.671329 270.334225 
L 224.064935 268.875961 
L 225.458541 269.041097 
L 228.245754 267.28558 
L 229.639361 265.842377 
L 231.032967 264.001209 
L 232.426573 262.573622 
L 233.82018 262.830842 
L 235.213786 261.670943 
L 236.607393 260.788446 
L 238.000999 260.062701 
L 239.394605 258.814369 
L 240.788212 258.387822 
L 242.181818 258.433923 
L 243.575425 258.859582 
L 244.969031 259.412744 
L 246.362637 257.964048 
L 247.756244 257.661588 
L 249.14985 259.0426 
L 250.543457 260.789095 
L 251.937063 260.313094 
L 253.330669 259.628007 
L 254.724276 259.697996 
L 256.117882 259.586008 
L 257.511489 257.98502 
L 258.905095 256.847197 
L 260.298701 256.931775 
L 261.692308 256.25076 
L 264.47952 256.404747 
L 265.873127 257.548926 
L 267.266733 259.175472 
L 268.66034 259.931333 
L 270.053946 265.093618 
L 271.447552 268.534893 
L 272.841159 269.722238 
L 274.234765 270.672645 
L 275.628372 271.867015 
L 277.021978 275.081058 
L 279.809191 278.619661 
L 281.202797 281.722319 
L 282.596404 282.780597 
L 283.99001 284.828885 
L 285.383616 288.855216 
L 286.777223 290.388616 
L 289.564436 294.514091 
L 290.958042 297.142737 
L 293.745255 303.059352 
L 295.138861 307.0996 
L 296.532468 309.123156 
L 297.926074 310.314661 
L 299.31968 310.261424 
L 300.713287 310.574802 
L 302.106893 311.562618 
L 303.5005 312.747213 
L 304.894106 314.683708 
L 306.287712 315.21602 
L 307.681319 315.477624 
L 309.074925 317.607908 
L 310.468531 317.307256 
L 313.255744 320.448315 
L 314.649351 321.352043 
L 316.042957 323.39983 
L 317.436563 323.330493 
L 318.83017 323.848623 
L 320.223776 323.419716 
L 321.617383 322.594552 
L 323.010989 322.095036 
L 325.798202 320.691178 
L 327.191808 318.764145 
L 328.585415 317.608026 
L 329.979021 316.829269 
L 331.372627 316.68151 
L 334.15984 313.736162 
L 335.553447 311.576601 
L 336.947053 309.063453 
L 338.340659 307.367725 
L 339.734266 306.890089 
L 341.127872 303.442462 
L 342.521479 301.517107 
L 343.915085 299.385629 
L 345.308691 298.121282 
L 346.702298 296.021431 
L 348.095904 293.140853 
L 352.276723 283.617689 
L 355.063936 280.130329 
L 356.457542 278.885818 
L 359.244755 277.527384 
L 360.638362 277.915671 
L 362.031968 277.413286 
L 363.425574 276.382142 
L 364.819181 272.877916 
L 366.212787 268.598349 
L 367.606394 267.590608 
L 369 264.08104 
L 370.393606 259.61182 
L 371.787213 255.747531 
L 373.180819 253.49108 
L 374.574426 251.842332 
L 375.968032 250.68086 
L 378.755245 247.501584 
L 380.148851 245.336493 
L 381.542458 244.14547 
L 384.32967 241.485085 
L 385.723277 239.670903 
L 387.116883 238.49909 
L 388.51049 236.535647 
L 389.904096 236.106386 
L 391.297702 235.211905 
L 392.691309 234.523187 
L 395.478521 233.536711 
L 396.872128 232.644392 
L 398.265734 232.523576 
L 401.052947 232.756459 
L 402.446553 232.374358 
L 403.84016 232.257167 
L 405.233766 232.340468 
L 406.627373 231.04202 
L 408.020979 230.467153 
L 409.414585 229.601189 
L 412.201798 229.289533 
L 413.595405 229.935008 
L 414.989011 230.733198 
L 416.382617 230.907606 
L 417.776224 230.538258 
L 419.16983 230.45617 
L 420.563437 230.740368 
L 421.957043 232.86219 
L 423.350649 235.844666 
L 424.744256 236.393837 
L 426.137862 237.471992 
L 427.531469 238.959865 
L 428.925075 241.332519 
L 430.318681 243.384799 
L 431.712288 244.781463 
L 433.105894 245.804822 
L 434.4995 247.595144 
L 435.893107 247.947837 
L 437.286713 247.350827 
L 438.68032 247.052984 
L 440.073926 245.988485 
L 441.467532 246.820733 
L 442.861139 247.209813 
L 444.254745 247.143907 
L 445.648352 248.083086 
L 447.041958 247.626798 
L 448.435564 247.705582 
L 452.616384 250.351539 
L 454.00999 249.764819 
L 455.403596 250.539532 
L 456.797203 249.516858 
L 458.190809 247.997059 
L 459.584416 247.809136 
L 460.978022 246.813448 
L 462.371628 246.425387 
L 463.765235 247.427751 
L 465.158841 248.728045 
L 466.552448 252.930591 
L 469.33966 253.003704 
L 472.126873 252.628628 
L 473.52048 251.625966 
L 474.914086 252.261283 
L 476.307692 252.589751 
L 477.701299 253.773542 
L 479.094905 253.488639 
L 480.488511 253.341797 
L 481.882118 254.263236 
L 483.275724 256.830761 
L 484.669331 259.126051 
L 487.456543 260.069804 
L 488.85015 259.897085 
L 491.637363 259.905926 
L 493.030969 261.547772 
L 495.818182 263.781682 
L 497.211788 266.516596 
L 498.605395 267.352904 
L 499.999001 269.284227 
L 501.392607 270.894869 
L 502.786214 271.893795 
L 504.17982 273.241156 
L 505.573427 273.09691 
L 506.967033 272.279773 
L 509.754246 272.307897 
L 512.541459 272.52933 
L 513.935065 273.157107 
L 515.328671 273.933645 
L 516.722278 274.543314 
L 518.115884 274.886814 
L 519.509491 275.633302 
L 520.903097 276.038933 
L 522.296703 276.692258 
L 523.69031 277.049354 
L 525.083916 278.639007 
L 526.477522 281.625912 
L 527.871129 283.069391 
L 529.264735 284.254107 
L 530.658342 285.928505 
L 532.051948 285.230971 
L 537.626374 287.87779 
L 539.01998 287.589257 
L 540.413586 287.447458 
L 541.807193 288.162542 
L 543.200799 288.205821 
L 544.594406 289.253538 
L 545.988012 290.745199 
L 547.381618 291.952557 
L 548.775225 293.668458 
L 550.168831 295.62114 
L 551.562438 296.789044 
L 552.956044 297.243029 
L 555.743257 296.37696 
L 557.136863 296.35001 
L 558.53047 296.882129 
L 559.924076 296.489005 
L 562.711289 296.771275 
L 564.104895 297.482944 
L 565.498501 298.776235 
L 566.892108 299.322956 
L 568.285714 300.615027 
L 569.679321 301.706455 
L 571.072927 302.65528 
L 572.466533 302.443028 
L 573.86014 303.041507 
L 575.253746 304.632664 
L 576.647353 303.255229 
L 579.434565 305.399375 
L 580.828172 305.457273 
L 582.221778 305.862442 
L 583.615385 306.029785 
L 585.008991 306.054883 
L 586.402597 305.618477 
L 587.796204 305.720863 
L 589.18981 306.831795 
L 590.583417 308.896413 
L 591.977023 308.413825 
L 593.370629 311.745341 
L 594.764236 312.282065 
L 596.157842 311.282495 
L 597.551449 311.132786 
L 598.945055 310.686049 
L 600.338661 311.417166 
L 601.732268 310.890052 
L 603.125874 310.207307 
L 604.519481 310.137664 
L 605.913087 309.047386 
L 607.306693 309.280077 
L 608.7003 309.637658 
L 610.093906 309.863539 
L 611.487512 309.576974 
L 612.881119 309.679336 
L 614.274725 309.390971 
L 615.668332 308.304727 
L 617.061938 308.015006 
L 618.455544 307.85096 
L 619.849151 308.223057 
L 621.242757 307.746942 
L 622.636364 307.012062 
L 622.636364 307.012062 
" style="fill:none;stroke:#d62728;stroke-linecap:square;stroke-width:1.5;"/>
   </g>
   <g id="patch_9">
    <path d="M 90 345.6 
L 90 212.072727 
" style="fill:none;stroke:#000000;stroke-linecap:square;stroke-linejoin:miter;stroke-width:0.8;"/>
   </g>
   <g id="patch_10">
    <path d="M 648 345.6 
L 648 212.072727 
" style="fill:none;stroke:#000000;stroke-linecap:square;stroke-linejoin:miter;stroke-width:0.8;"/>
   </g>
   <g id="patch_11">
    <path d="M 90 345.6 
L 648 345.6 
" style="fill:none;stroke:#000000;stroke-linecap:square;stroke-linejoin:miter;stroke-width:0.8;"/>
   </g>
   <g id="patch_12">
    <path d="M 90 212.072727 
L 648 212.072727 
" style="fill:none;stroke:#000000;stroke-linecap:square;stroke-linejoin:miter;stroke-width:0.8;"/>
   </g>
   <g id="text_19">
    <!-- PRCP Eigs -->
    <defs>
     <path d="M 9.8125 72.90625 
L 55.90625 72.90625 
L 55.90625 64.59375 
L 19.671875 64.59375 
L 19.671875 43.015625 
L 54.390625 43.015625 
L 54.390625 34.71875 
L 19.671875 34.71875 
L 19.671875 8.296875 
L 56.78125 8.296875 
L 56.78125 0 
L 9.8125 0 
z
" id="DejaVuSans-45"/>
     <path d="M 9.421875 54.6875 
L 18.40625 54.6875 
L 18.40625 0 
L 9.421875 0 
z
M 9.421875 75.984375 
L 18.40625 75.984375 
L 18.40625 64.59375 
L 9.421875 64.59375 
z
" id="DejaVuSans-69"/>
     <path d="M 45.40625 27.984375 
Q 45.40625 37.75 41.375 43.109375 
Q 37.359375 48.484375 30.078125 48.484375 
Q 22.859375 48.484375 18.828125 43.109375 
Q 14.796875 37.75 14.796875 27.984375 
Q 14.796875 18.265625 18.828125 12.890625 
Q 22.859375 7.515625 30.078125 7.515625 
Q 37.359375 7.515625 41.375 12.890625 
Q 45.40625 18.265625 45.40625 27.984375 
M 54.390625 6.78125 
Q 54.390625 -7.171875 48.1875 -13.984375 
Q 42 -20.796875 29.203125 -20.796875 
Q 24.46875 -20.796875 20.265625 -20.09375 
Q 16.0625 -19.390625 12.109375 -17.921875 
L 12.109375 -9.1875 
Q 16.0625 -11.328125 19.921875 -12.34375 
Q 23.78125 -13.375 27.78125 -13.375 
Q 36.625 -13.375 41.015625 -8.765625 
Q 45.40625 -4.15625 45.40625 5.171875 
L 45.40625 9.625 
Q 42.625 4.78125 38.28125 2.390625 
Q 33.9375 0 27.875 0 
Q 17.828125 0 11.671875 7.65625 
Q 5.515625 15.328125 5.515625 27.984375 
Q 5.515625 40.671875 11.671875 48.328125 
Q 17.828125 56 27.875 56 
Q 33.9375 56 38.28125 53.609375 
Q 42.625 51.21875 45.40625 46.390625 
L 45.40625 54.6875 
L 54.390625 54.6875 
z
" id="DejaVuSans-67"/>
     <path d="M 44.28125 53.078125 
L 44.28125 44.578125 
Q 40.484375 46.53125 36.375 47.5 
Q 32.28125 48.484375 27.875 48.484375 
Q 21.1875 48.484375 17.84375 46.4375 
Q 14.5 44.390625 14.5 40.28125 
Q 14.5 37.15625 16.890625 35.375 
Q 19.28125 33.59375 26.515625 31.984375 
L 29.59375 31.296875 
Q 39.15625 29.25 43.1875 25.515625 
Q 47.21875 21.78125 47.21875 15.09375 
Q 47.21875 7.46875 41.1875 3.015625 
Q 35.15625 -1.421875 24.609375 -1.421875 
Q 20.21875 -1.421875 15.453125 -0.5625 
Q 10.6875 0.296875 5.421875 2 
L 5.421875 11.28125 
Q 10.40625 8.6875 15.234375 7.390625 
Q 20.0625 6.109375 24.8125 6.109375 
Q 31.15625 6.109375 34.5625 8.28125 
Q 37.984375 10.453125 37.984375 14.40625 
Q 37.984375 18.0625 35.515625 20.015625 
Q 33.0625 21.96875 24.703125 23.78125 
L 21.578125 24.515625 
Q 13.234375 26.265625 9.515625 29.90625 
Q 5.8125 33.546875 5.8125 39.890625 
Q 5.8125 47.609375 11.28125 51.796875 
Q 16.75 56 26.8125 56 
Q 31.78125 56 36.171875 55.265625 
Q 40.578125 54.546875 44.28125 53.078125 
" id="DejaVuSans-73"/>
    </defs>
    <g transform="translate(339.110625 206.072727)scale(0.12 -0.12)">
     <use xlink:href="#DejaVuSans-50"/>
     <use x="60.302734" xlink:href="#DejaVuSans-52"/>
     <use x="129.707031" xlink:href="#DejaVuSans-43"/>
     <use x="199.53125" xlink:href="#DejaVuSans-50"/>
     <use x="259.833984" xlink:href="#DejaVuSans-20"/>
     <use x="291.621094" xlink:href="#DejaVuSans-45"/>
     <use x="354.804688" xlink:href="#DejaVuSans-69"/>
     <use x="382.587891" xlink:href="#DejaVuSans-67"/>
     <use x="446.064453" xlink:href="#DejaVuSans-73"/>
    </g>
   </g>
   <g id="legend_2">
    <g id="patch_13">
     <path d="M 342.178906 340.6 
L 395.821094 340.6 
Q 397.821094 340.6 397.821094 338.6 
L 397.821094 280.8875 
Q 397.821094 278.8875 395.821094 278.8875 
L 342.178906 278.8875 
Q 340.178906 278.8875 340.178906 280.8875 
L 340.178906 338.6 
Q 340.178906 340.6 342.178906 340.6 
z
" style="fill:#ffffff;opacity:0.8;stroke:#cccccc;stroke-linejoin:miter;"/>
    </g>
    <g id="line2d_50">
     <path d="M 344.178906 286.985937 
L 364.178906 286.985937 
" style="fill:none;stroke:#1f77b4;stroke-linecap:square;stroke-width:1.5;"/>
    </g>
    <g id="line2d_51"/>
    <g id="text_20">
     <!-- eig1 -->
     <g transform="translate(372.178906 290.485937)scale(0.1 -0.1)">
      <use xlink:href="#DejaVuSans-65"/>
      <use x="61.523438" xlink:href="#DejaVuSans-69"/>
      <use x="89.306641" xlink:href="#DejaVuSans-67"/>
      <use x="152.783203" xlink:href="#DejaVuSans-31"/>
     </g>
    </g>
    <g id="line2d_52">
     <path d="M 344.178906 301.664062 
L 364.178906 301.664062 
" style="fill:none;stroke:#ff7f0e;stroke-linecap:square;stroke-width:1.5;"/>
    </g>
    <g id="line2d_53"/>
    <g id="text_21">
     <!-- eig2 -->
     <g transform="translate(372.178906 305.164062)scale(0.1 -0.1)">
      <use xlink:href="#DejaVuSans-65"/>
      <use x="61.523438" xlink:href="#DejaVuSans-69"/>
      <use x="89.306641" xlink:href="#DejaVuSans-67"/>
      <use x="152.783203" xlink:href="#DejaVuSans-32"/>
     </g>
    </g>
    <g id="line2d_54">
     <path d="M 344.178906 316.342187 
L 364.178906 316.342187 
" style="fill:none;stroke:#2ca02c;stroke-linecap:square;stroke-width:1.5;"/>
    </g>
    <g id="line2d_55"/>
    <g id="text_22">
     <!-- eig3 -->
     <defs>
      <path d="M 40.578125 39.3125 
Q 47.65625 37.796875 51.625 33 
Q 55.609375 28.21875 55.609375 21.1875 
Q 55.609375 10.40625 48.1875 4.484375 
Q 40.765625 -1.421875 27.09375 -1.421875 
Q 22.515625 -1.421875 17.65625 -0.515625 
Q 12.796875 0.390625 7.625 2.203125 
L 7.625 11.71875 
Q 11.71875 9.328125 16.59375 8.109375 
Q 21.484375 6.890625 26.8125 6.890625 
Q 36.078125 6.890625 40.9375 10.546875 
Q 45.796875 14.203125 45.796875 21.1875 
Q 45.796875 27.640625 41.28125 31.265625 
Q 36.765625 34.90625 28.71875 34.90625 
L 20.21875 34.90625 
L 20.21875 43.015625 
L 29.109375 43.015625 
Q 36.375 43.015625 40.234375 45.921875 
Q 44.09375 48.828125 44.09375 54.296875 
Q 44.09375 59.90625 40.109375 62.90625 
Q 36.140625 65.921875 28.71875 65.921875 
Q 24.65625 65.921875 20.015625 65.03125 
Q 15.375 64.15625 9.8125 62.3125 
L 9.8125 71.09375 
Q 15.4375 72.65625 20.34375 73.4375 
Q 25.25 74.21875 29.59375 74.21875 
Q 40.828125 74.21875 47.359375 69.109375 
Q 53.90625 64.015625 53.90625 55.328125 
Q 53.90625 49.265625 50.4375 45.09375 
Q 46.96875 40.921875 40.578125 39.3125 
" id="DejaVuSans-33"/>
     </defs>
     <g transform="translate(372.178906 319.842187)scale(0.1 -0.1)">
      <use xlink:href="#DejaVuSans-65"/>
      <use x="61.523438" xlink:href="#DejaVuSans-69"/>
      <use x="89.306641" xlink:href="#DejaVuSans-67"/>
      <use x="152.783203" xlink:href="#DejaVuSans-33"/>
     </g>
    </g>
    <g id="line2d_56">
     <path d="M 344.178906 331.020312 
L 364.178906 331.020312 
" style="fill:none;stroke:#d62728;stroke-linecap:square;stroke-width:1.5;"/>
    </g>
    <g id="line2d_57"/>
    <g id="text_23">
     <!-- eig4 -->
     <g transform="translate(372.178906 334.520312)scale(0.1 -0.1)">
      <use xlink:href="#DejaVuSans-65"/>
      <use x="61.523438" xlink:href="#DejaVuSans-69"/>
      <use x="89.306641" xlink:href="#DejaVuSans-67"/>
      <use x="152.783203" xlink:href="#DejaVuSans-34"/>
     </g>
    </g>
   </g>
  </g>
 </g>
 <defs>
  <clipPath id="pbc60ee1c06">
   <rect height="133.527273" width="558" x="90" y="51.84"/>
  </clipPath>
  <clipPath id="p7b05e6692e">
   <rect height="133.527273" width="558" x="90" y="212.072727"/>
  </clipPath>
 </defs>
</svg>
