<?xml version="1.0" encoding="utf-8" standalone="no"?>
<!DOCTYPE svg PUBLIC "-//W3C//DTD SVG 1.1//EN"
  "http://www.w3.org/Graphics/SVG/1.1/DTD/svg11.dtd">
<!-- Created with matplotlib (http://matplotlib.org/) -->
<svg height="504pt" version="1.1" viewBox="0 0 720 504" width="720pt" xmlns="http://www.w3.org/2000/svg" xmlns:xlink="http://www.w3.org/1999/xlink">
 <defs>
  <style type="text/css">
*{stroke-linecap:butt;stroke-linejoin:round;}
  </style>
 </defs>
 <g id="figure_1">
  <g id="patch_1">
   <path d="M 0 504 
L 720 504 
L 720 0 
L 0 0 
z
" style="fill:#ffffff;"/>
  </g>
  <g id="axes_1">
   <g id="patch_2">
    <path d="M 90 403.2 
L 648 403.2 
L 648 60.48 
L 90 60.48 
z
" style="fill:#ffffff;"/>
   </g>
   <g id="matplotlib.axis_1">
    <g id="xtick_1">
     <g id="line2d_1">
      <path clip-path="url(#p2242fc2d6a)" d="M 115.363636 403.2 
L 115.363636 60.48 
" style="fill:none;stroke:#b0b0b0;stroke-linecap:square;stroke-width:0.8;"/>
     </g>
     <g id="line2d_2">
      <defs>
       <path d="M 0 0 
L 0 3.5 
" id="m7f44a49097" style="stroke:#000000;stroke-width:0.8;"/>
      </defs>
      <g>
       <use style="stroke:#000000;stroke-width:0.8;" x="115.363636" xlink:href="#m7f44a49097" y="403.2"/>
      </g>
     </g>
     <g id="text_1">
      <!-- Jan -->
      <defs>
       <path d="M 9.8125 72.90625 
L 19.671875 72.90625 
L 19.671875 5.078125 
Q 19.671875 -8.109375 14.671875 -14.0625 
Q 9.671875 -20.015625 -1.421875 -20.015625 
L -5.171875 -20.015625 
L -5.171875 -11.71875 
L -2.09375 -11.71875 
Q 4.4375 -11.71875 7.125 -8.046875 
Q 9.8125 -4.390625 9.8125 5.078125 
z
" id="DejaVuSans-4a"/>
       <path d="M 34.28125 27.484375 
Q 23.390625 27.484375 19.1875 25 
Q 14.984375 22.515625 14.984375 16.5 
Q 14.984375 11.71875 18.140625 8.90625 
Q 21.296875 6.109375 26.703125 6.109375 
Q 34.1875 6.109375 38.703125 11.40625 
Q 43.21875 16.703125 43.21875 25.484375 
L 43.21875 27.484375 
z
M 52.203125 31.203125 
L 52.203125 0 
L 43.21875 0 
L 43.21875 8.296875 
Q 40.140625 3.328125 35.546875 0.953125 
Q 30.953125 -1.421875 24.3125 -1.421875 
Q 15.921875 -1.421875 10.953125 3.296875 
Q 6 8.015625 6 15.921875 
Q 6 25.140625 12.171875 29.828125 
Q 18.359375 34.515625 30.609375 34.515625 
L 43.21875 34.515625 
L 43.21875 35.40625 
Q 43.21875 41.609375 39.140625 45 
Q 35.0625 48.390625 27.6875 48.390625 
Q 23 48.390625 18.546875 47.265625 
Q 14.109375 46.140625 10.015625 43.890625 
L 10.015625 52.203125 
Q 14.9375 54.109375 19.578125 55.046875 
Q 24.21875 56 28.609375 56 
Q 40.484375 56 46.34375 49.84375 
Q 52.203125 43.703125 52.203125 31.203125 
" id="DejaVuSans-61"/>
       <path d="M 54.890625 33.015625 
L 54.890625 0 
L 45.90625 0 
L 45.90625 32.71875 
Q 45.90625 40.484375 42.875 44.328125 
Q 39.84375 48.1875 33.796875 48.1875 
Q 26.515625 48.1875 22.3125 43.546875 
Q 18.109375 38.921875 18.109375 30.90625 
L 18.109375 0 
L 9.078125 0 
L 9.078125 54.6875 
L 18.109375 54.6875 
L 18.109375 46.1875 
Q 21.34375 51.125 25.703125 53.5625 
Q 30.078125 56 35.796875 56 
Q 45.21875 56 50.046875 50.171875 
Q 54.890625 44.34375 54.890625 33.015625 
" id="DejaVuSans-6e"/>
      </defs>
      <g transform="translate(100.97347 424.488252)rotate(-30)scale(0.1 -0.1)">
       <use xlink:href="#DejaVuSans-4a"/>
       <use x="29.492188" xlink:href="#DejaVuSans-61"/>
       <use x="90.771484" xlink:href="#DejaVuSans-6e"/>
      </g>
     </g>
    </g>
    <g id="xtick_2">
     <g id="line2d_3">
      <path clip-path="url(#p2242fc2d6a)" d="M 240.788212 403.2 
L 240.788212 60.48 
" style="fill:none;stroke:#b0b0b0;stroke-linecap:square;stroke-width:0.8;"/>
     </g>
     <g id="line2d_4">
      <g>
       <use style="stroke:#000000;stroke-width:0.8;" x="240.788212" xlink:href="#m7f44a49097" y="403.2"/>
      </g>
     </g>
     <g id="text_2">
      <!-- Apr -->
      <defs>
       <path d="M 34.1875 63.1875 
L 20.796875 26.90625 
L 47.609375 26.90625 
z
M 28.609375 72.90625 
L 39.796875 72.90625 
L 67.578125 0 
L 57.328125 0 
L 50.6875 18.703125 
L 17.828125 18.703125 
L 11.1875 0 
L 0.78125 0 
z
" id="DejaVuSans-41"/>
       <path d="M 18.109375 8.203125 
L 18.109375 -20.796875 
L 9.078125 -20.796875 
L 9.078125 54.6875 
L 18.109375 54.6875 
L 18.109375 46.390625 
Q 20.953125 51.265625 25.265625 53.625 
Q 29.59375 56 35.59375 56 
Q 45.5625 56 51.78125 48.09375 
Q 58.015625 40.1875 58.015625 27.296875 
Q 58.015625 14.40625 51.78125 6.484375 
Q 45.5625 -1.421875 35.59375 -1.421875 
Q 29.59375 -1.421875 25.265625 0.953125 
Q 20.953125 3.328125 18.109375 8.203125 
M 48.6875 27.296875 
Q 48.6875 37.203125 44.609375 42.84375 
Q 40.53125 48.484375 33.40625 48.484375 
Q 26.265625 48.484375 22.1875 42.84375 
Q 18.109375 37.203125 18.109375 27.296875 
Q 18.109375 17.390625 22.1875 11.75 
Q 26.265625 6.109375 33.40625 6.109375 
Q 40.53125 6.109375 44.609375 11.75 
Q 48.6875 17.390625 48.6875 27.296875 
" id="DejaVuSans-70"/>
       <path d="M 41.109375 46.296875 
Q 39.59375 47.171875 37.8125 47.578125 
Q 36.03125 48 33.890625 48 
Q 26.265625 48 22.1875 43.046875 
Q 18.109375 38.09375 18.109375 28.8125 
L 18.109375 0 
L 9.078125 0 
L 9.078125 54.6875 
L 18.109375 54.6875 
L 18.109375 46.1875 
Q 20.953125 51.171875 25.484375 53.578125 
Q 30.03125 56 36.53125 56 
Q 37.453125 56 38.578125 55.875 
Q 39.703125 55.765625 41.0625 55.515625 
z
" id="DejaVuSans-72"/>
      </defs>
      <g transform="translate(224.766129 425.43044)rotate(-30)scale(0.1 -0.1)">
       <use xlink:href="#DejaVuSans-41"/>
       <use x="68.408203" xlink:href="#DejaVuSans-70"/>
       <use x="131.884766" xlink:href="#DejaVuSans-72"/>
      </g>
     </g>
    </g>
    <g id="xtick_3">
     <g id="line2d_5">
      <path clip-path="url(#p2242fc2d6a)" d="M 367.606394 403.2 
L 367.606394 60.48 
" style="fill:none;stroke:#b0b0b0;stroke-linecap:square;stroke-width:0.8;"/>
     </g>
     <g id="line2d_6">
      <g>
       <use style="stroke:#000000;stroke-width:0.8;" x="367.606394" xlink:href="#m7f44a49097" y="403.2"/>
      </g>
     </g>
     <g id="text_3">
      <!-- Jul -->
      <defs>
       <path d="M 8.5 21.578125 
L 8.5 54.6875 
L 17.484375 54.6875 
L 17.484375 21.921875 
Q 17.484375 14.15625 20.5 10.265625 
Q 23.53125 6.390625 29.59375 6.390625 
Q 36.859375 6.390625 41.078125 11.03125 
Q 45.3125 15.671875 45.3125 23.6875 
L 45.3125 54.6875 
L 54.296875 54.6875 
L 54.296875 0 
L 45.3125 0 
L 45.3125 8.40625 
Q 42.046875 3.421875 37.71875 1 
Q 33.40625 -1.421875 27.6875 -1.421875 
Q 18.265625 -1.421875 13.375 4.4375 
Q 8.5 10.296875 8.5 21.578125 
M 31.109375 56 
z
" id="DejaVuSans-75"/>
       <path d="M 9.421875 75.984375 
L 18.40625 75.984375 
L 18.40625 0 
L 9.421875 0 
z
" id="DejaVuSans-6c"/>
      </defs>
      <g transform="translate(356.117412 422.813252)rotate(-30)scale(0.1 -0.1)">
       <use xlink:href="#DejaVuSans-4a"/>
       <use x="29.492188" xlink:href="#DejaVuSans-75"/>
       <use x="92.871094" xlink:href="#DejaVuSans-6c"/>
      </g>
     </g>
    </g>
    <g id="xtick_4">
     <g id="line2d_7">
      <path clip-path="url(#p2242fc2d6a)" d="M 495.818182 403.2 
L 495.818182 60.48 
" style="fill:none;stroke:#b0b0b0;stroke-linecap:square;stroke-width:0.8;"/>
     </g>
     <g id="line2d_8">
      <g>
       <use style="stroke:#000000;stroke-width:0.8;" x="495.818182" xlink:href="#m7f44a49097" y="403.2"/>
      </g>
     </g>
     <g id="text_4">
      <!-- Oct -->
      <defs>
       <path d="M 39.40625 66.21875 
Q 28.65625 66.21875 22.328125 58.203125 
Q 16.015625 50.203125 16.015625 36.375 
Q 16.015625 22.609375 22.328125 14.59375 
Q 28.65625 6.59375 39.40625 6.59375 
Q 50.140625 6.59375 56.421875 14.59375 
Q 62.703125 22.609375 62.703125 36.375 
Q 62.703125 50.203125 56.421875 58.203125 
Q 50.140625 66.21875 39.40625 66.21875 
M 39.40625 74.21875 
Q 54.734375 74.21875 63.90625 63.9375 
Q 73.09375 53.65625 73.09375 36.375 
Q 73.09375 19.140625 63.90625 8.859375 
Q 54.734375 -1.421875 39.40625 -1.421875 
Q 24.03125 -1.421875 14.8125 8.828125 
Q 5.609375 19.09375 5.609375 36.375 
Q 5.609375 53.65625 14.8125 63.9375 
Q 24.03125 74.21875 39.40625 74.21875 
" id="DejaVuSans-4f"/>
       <path d="M 48.78125 52.59375 
L 48.78125 44.1875 
Q 44.96875 46.296875 41.140625 47.34375 
Q 37.3125 48.390625 33.40625 48.390625 
Q 24.65625 48.390625 19.8125 42.84375 
Q 14.984375 37.3125 14.984375 27.296875 
Q 14.984375 17.28125 19.8125 11.734375 
Q 24.65625 6.203125 33.40625 6.203125 
Q 37.3125 6.203125 41.140625 7.25 
Q 44.96875 8.296875 48.78125 10.40625 
L 48.78125 2.09375 
Q 45.015625 0.34375 40.984375 -0.53125 
Q 36.96875 -1.421875 32.421875 -1.421875 
Q 20.0625 -1.421875 12.78125 6.34375 
Q 5.515625 14.109375 5.515625 27.296875 
Q 5.515625 40.671875 12.859375 48.328125 
Q 20.21875 56 33.015625 56 
Q 37.15625 56 41.109375 55.140625 
Q 45.0625 54.296875 48.78125 52.59375 
" id="DejaVuSans-63"/>
       <path d="M 18.3125 70.21875 
L 18.3125 54.6875 
L 36.8125 54.6875 
L 36.8125 47.703125 
L 18.3125 47.703125 
L 18.3125 18.015625 
Q 18.3125 11.328125 20.140625 9.421875 
Q 21.96875 7.515625 27.59375 7.515625 
L 36.8125 7.515625 
L 36.8125 0 
L 27.59375 0 
Q 17.1875 0 13.234375 3.875 
Q 9.28125 7.765625 9.28125 18.015625 
L 9.28125 47.703125 
L 2.6875 47.703125 
L 2.6875 54.6875 
L 9.28125 54.6875 
L 9.28125 70.21875 
z
" id="DejaVuSans-74"/>
      </defs>
      <g transform="translate(479.804218 425.425752)rotate(-30)scale(0.1 -0.1)">
       <use xlink:href="#DejaVuSans-4f"/>
       <use x="78.710938" xlink:href="#DejaVuSans-63"/>
       <use x="133.691406" xlink:href="#DejaVuSans-74"/>
      </g>
     </g>
    </g>
    <g id="xtick_5">
     <g id="line2d_9">
      <path clip-path="url(#p2242fc2d6a)" d="M 624.02997 403.2 
L 624.02997 60.48 
" style="fill:none;stroke:#b0b0b0;stroke-linecap:square;stroke-width:0.8;"/>
     </g>
     <g id="line2d_10">
      <g>
       <use style="stroke:#000000;stroke-width:0.8;" x="624.02997" xlink:href="#m7f44a49097" y="403.2"/>
      </g>
     </g>
     <g id="text_5">
      <!-- Jan -->
      <g transform="translate(609.639803 424.488252)rotate(-30)scale(0.1 -0.1)">
       <use xlink:href="#DejaVuSans-4a"/>
       <use x="29.492188" xlink:href="#DejaVuSans-61"/>
       <use x="90.771484" xlink:href="#DejaVuSans-6e"/>
      </g>
     </g>
    </g>
   </g>
   <g id="matplotlib.axis_2">
    <g id="ytick_1">
     <g id="line2d_11">
      <path clip-path="url(#p2242fc2d6a)" d="M 90 387.621818 
L 648 387.621818 
" style="fill:none;stroke:#b0b0b0;stroke-linecap:square;stroke-width:0.8;"/>
     </g>
     <g id="line2d_12">
      <defs>
       <path d="M 0 0 
L -3.5 0 
" id="maa13d5fd04" style="stroke:#000000;stroke-width:0.8;"/>
      </defs>
      <g>
       <use style="stroke:#000000;stroke-width:0.8;" x="90" xlink:href="#maa13d5fd04" y="387.621818"/>
      </g>
     </g>
     <g id="text_6">
      <!-- 0 -->
      <defs>
       <path d="M 31.78125 66.40625 
Q 24.171875 66.40625 20.328125 58.90625 
Q 16.5 51.421875 16.5 36.375 
Q 16.5 21.390625 20.328125 13.890625 
Q 24.171875 6.390625 31.78125 6.390625 
Q 39.453125 6.390625 43.28125 13.890625 
Q 47.125 21.390625 47.125 36.375 
Q 47.125 51.421875 43.28125 58.90625 
Q 39.453125 66.40625 31.78125 66.40625 
M 31.78125 74.21875 
Q 44.046875 74.21875 50.515625 64.515625 
Q 56.984375 54.828125 56.984375 36.375 
Q 56.984375 17.96875 50.515625 8.265625 
Q 44.046875 -1.421875 31.78125 -1.421875 
Q 19.53125 -1.421875 13.0625 8.265625 
Q 6.59375 17.96875 6.59375 36.375 
Q 6.59375 54.828125 13.0625 64.515625 
Q 19.53125 74.21875 31.78125 74.21875 
" id="DejaVuSans-30"/>
      </defs>
      <g transform="translate(76.6375 391.421037)scale(0.1 -0.1)">
       <use xlink:href="#DejaVuSans-30"/>
      </g>
     </g>
    </g>
    <g id="ytick_2">
     <g id="line2d_13">
      <path clip-path="url(#p2242fc2d6a)" d="M 90 332.263482 
L 648 332.263482 
" style="fill:none;stroke:#b0b0b0;stroke-linecap:square;stroke-width:0.8;"/>
     </g>
     <g id="line2d_14">
      <g>
       <use style="stroke:#000000;stroke-width:0.8;" x="90" xlink:href="#maa13d5fd04" y="332.263482"/>
      </g>
     </g>
     <g id="text_7">
      <!-- 20 -->
      <defs>
       <path d="M 19.1875 8.296875 
L 53.609375 8.296875 
L 53.609375 0 
L 7.328125 0 
L 7.328125 8.296875 
Q 12.9375 14.109375 22.625 23.890625 
Q 32.328125 33.6875 34.8125 36.53125 
Q 39.546875 41.84375 41.421875 45.53125 
Q 43.3125 49.21875 43.3125 52.78125 
Q 43.3125 58.59375 39.234375 62.25 
Q 35.15625 65.921875 28.609375 65.921875 
Q 23.96875 65.921875 18.8125 64.3125 
Q 13.671875 62.703125 7.8125 59.421875 
L 7.8125 69.390625 
Q 13.765625 71.78125 18.9375 73 
Q 24.125 74.21875 28.421875 74.21875 
Q 39.75 74.21875 46.484375 68.546875 
Q 53.21875 62.890625 53.21875 53.421875 
Q 53.21875 48.921875 51.53125 44.890625 
Q 49.859375 40.875 45.40625 35.40625 
Q 44.1875 33.984375 37.640625 27.21875 
Q 31.109375 20.453125 19.1875 8.296875 
" id="DejaVuSans-32"/>
      </defs>
      <g transform="translate(70.275 336.062701)scale(0.1 -0.1)">
       <use xlink:href="#DejaVuSans-32"/>
       <use x="63.623047" xlink:href="#DejaVuSans-30"/>
      </g>
     </g>
    </g>
    <g id="ytick_3">
     <g id="line2d_15">
      <path clip-path="url(#p2242fc2d6a)" d="M 90 276.905146 
L 648 276.905146 
" style="fill:none;stroke:#b0b0b0;stroke-linecap:square;stroke-width:0.8;"/>
     </g>
     <g id="line2d_16">
      <g>
       <use style="stroke:#000000;stroke-width:0.8;" x="90" xlink:href="#maa13d5fd04" y="276.905146"/>
      </g>
     </g>
     <g id="text_8">
      <!-- 40 -->
      <defs>
       <path d="M 37.796875 64.3125 
L 12.890625 25.390625 
L 37.796875 25.390625 
z
M 35.203125 72.90625 
L 47.609375 72.90625 
L 47.609375 25.390625 
L 58.015625 25.390625 
L 58.015625 17.1875 
L 47.609375 17.1875 
L 47.609375 0 
L 37.796875 0 
L 37.796875 17.1875 
L 4.890625 17.1875 
L 4.890625 26.703125 
z
" id="DejaVuSans-34"/>
      </defs>
      <g transform="translate(70.275 280.704364)scale(0.1 -0.1)">
       <use xlink:href="#DejaVuSans-34"/>
       <use x="63.623047" xlink:href="#DejaVuSans-30"/>
      </g>
     </g>
    </g>
    <g id="ytick_4">
     <g id="line2d_17">
      <path clip-path="url(#p2242fc2d6a)" d="M 90 221.546809 
L 648 221.546809 
" style="fill:none;stroke:#b0b0b0;stroke-linecap:square;stroke-width:0.8;"/>
     </g>
     <g id="line2d_18">
      <g>
       <use style="stroke:#000000;stroke-width:0.8;" x="90" xlink:href="#maa13d5fd04" y="221.546809"/>
      </g>
     </g>
     <g id="text_9">
      <!-- 60 -->
      <defs>
       <path d="M 33.015625 40.375 
Q 26.375 40.375 22.484375 35.828125 
Q 18.609375 31.296875 18.609375 23.390625 
Q 18.609375 15.53125 22.484375 10.953125 
Q 26.375 6.390625 33.015625 6.390625 
Q 39.65625 6.390625 43.53125 10.953125 
Q 47.40625 15.53125 47.40625 23.390625 
Q 47.40625 31.296875 43.53125 35.828125 
Q 39.65625 40.375 33.015625 40.375 
M 52.59375 71.296875 
L 52.59375 62.3125 
Q 48.875 64.0625 45.09375 64.984375 
Q 41.3125 65.921875 37.59375 65.921875 
Q 27.828125 65.921875 22.671875 59.328125 
Q 17.53125 52.734375 16.796875 39.40625 
Q 19.671875 43.65625 24.015625 45.921875 
Q 28.375 48.1875 33.59375 48.1875 
Q 44.578125 48.1875 50.953125 41.515625 
Q 57.328125 34.859375 57.328125 23.390625 
Q 57.328125 12.15625 50.6875 5.359375 
Q 44.046875 -1.421875 33.015625 -1.421875 
Q 20.359375 -1.421875 13.671875 8.265625 
Q 6.984375 17.96875 6.984375 36.375 
Q 6.984375 53.65625 15.1875 63.9375 
Q 23.390625 74.21875 37.203125 74.21875 
Q 40.921875 74.21875 44.703125 73.484375 
Q 48.484375 72.75 52.59375 71.296875 
" id="DejaVuSans-36"/>
      </defs>
      <g transform="translate(70.275 225.346028)scale(0.1 -0.1)">
       <use xlink:href="#DejaVuSans-36"/>
       <use x="63.623047" xlink:href="#DejaVuSans-30"/>
      </g>
     </g>
    </g>
    <g id="ytick_5">
     <g id="line2d_19">
      <path clip-path="url(#p2242fc2d6a)" d="M 90 166.188473 
L 648 166.188473 
" style="fill:none;stroke:#b0b0b0;stroke-linecap:square;stroke-width:0.8;"/>
     </g>
     <g id="line2d_20">
      <g>
       <use style="stroke:#000000;stroke-width:0.8;" x="90" xlink:href="#maa13d5fd04" y="166.188473"/>
      </g>
     </g>
     <g id="text_10">
      <!-- 80 -->
      <defs>
       <path d="M 31.78125 34.625 
Q 24.75 34.625 20.71875 30.859375 
Q 16.703125 27.09375 16.703125 20.515625 
Q 16.703125 13.921875 20.71875 10.15625 
Q 24.75 6.390625 31.78125 6.390625 
Q 38.8125 6.390625 42.859375 10.171875 
Q 46.921875 13.96875 46.921875 20.515625 
Q 46.921875 27.09375 42.890625 30.859375 
Q 38.875 34.625 31.78125 34.625 
M 21.921875 38.8125 
Q 15.578125 40.375 12.03125 44.71875 
Q 8.5 49.078125 8.5 55.328125 
Q 8.5 64.0625 14.71875 69.140625 
Q 20.953125 74.21875 31.78125 74.21875 
Q 42.671875 74.21875 48.875 69.140625 
Q 55.078125 64.0625 55.078125 55.328125 
Q 55.078125 49.078125 51.53125 44.71875 
Q 48 40.375 41.703125 38.8125 
Q 48.828125 37.15625 52.796875 32.3125 
Q 56.78125 27.484375 56.78125 20.515625 
Q 56.78125 9.90625 50.3125 4.234375 
Q 43.84375 -1.421875 31.78125 -1.421875 
Q 19.734375 -1.421875 13.25 4.234375 
Q 6.78125 9.90625 6.78125 20.515625 
Q 6.78125 27.484375 10.78125 32.3125 
Q 14.796875 37.15625 21.921875 38.8125 
M 18.3125 54.390625 
Q 18.3125 48.734375 21.84375 45.5625 
Q 25.390625 42.390625 31.78125 42.390625 
Q 38.140625 42.390625 41.71875 45.5625 
Q 45.3125 48.734375 45.3125 54.390625 
Q 45.3125 60.0625 41.71875 63.234375 
Q 38.140625 66.40625 31.78125 66.40625 
Q 25.390625 66.40625 21.84375 63.234375 
Q 18.3125 60.0625 18.3125 54.390625 
" id="DejaVuSans-38"/>
      </defs>
      <g transform="translate(70.275 169.987692)scale(0.1 -0.1)">
       <use xlink:href="#DejaVuSans-38"/>
       <use x="63.623047" xlink:href="#DejaVuSans-30"/>
      </g>
     </g>
    </g>
    <g id="ytick_6">
     <g id="line2d_21">
      <path clip-path="url(#p2242fc2d6a)" d="M 90 110.830137 
L 648 110.830137 
" style="fill:none;stroke:#b0b0b0;stroke-linecap:square;stroke-width:0.8;"/>
     </g>
     <g id="line2d_22">
      <g>
       <use style="stroke:#000000;stroke-width:0.8;" x="90" xlink:href="#maa13d5fd04" y="110.830137"/>
      </g>
     </g>
     <g id="text_11">
      <!-- 100 -->
      <defs>
       <path d="M 12.40625 8.296875 
L 28.515625 8.296875 
L 28.515625 63.921875 
L 10.984375 60.40625 
L 10.984375 69.390625 
L 28.421875 72.90625 
L 38.28125 72.90625 
L 38.28125 8.296875 
L 54.390625 8.296875 
L 54.390625 0 
L 12.40625 0 
z
" id="DejaVuSans-31"/>
      </defs>
      <g transform="translate(63.9125 114.629356)scale(0.1 -0.1)">
       <use xlink:href="#DejaVuSans-31"/>
       <use x="63.623047" xlink:href="#DejaVuSans-30"/>
       <use x="127.246094" xlink:href="#DejaVuSans-30"/>
      </g>
     </g>
    </g>
   </g>
   <g id="line2d_23">
    <path clip-path="url(#p2242fc2d6a)" d="M 115.363636 335.766627 
L 116.757243 351.898392 
L 118.150849 351.898392 
L 119.544456 369.760105 
L 122.331668 369.760105 
L 125.118881 377.307003 
L 126.512488 357.434225 
L 127.906094 344.092001 
L 129.2997 344.092001 
L 130.693307 354.406816 
L 132.086913 354.406816 
L 133.480519 348.611491 
L 134.874126 348.611491 
L 136.267732 305.103298 
L 140.448551 305.103298 
L 141.842158 324.954452 
L 143.235764 338.3183 
L 147.416583 338.3183 
L 148.81019 340.826725 
L 150.203796 340.826725 
L 151.597403 384.351135 
L 155.778222 384.351135 
L 157.171828 374.787766 
L 159.959041 374.787766 
L 161.352647 353.152604 
L 162.746254 237.375834 
L 164.13986 212.464582 
L 165.533467 212.464582 
L 166.927073 208.745194 
L 168.320679 208.745194 
L 169.714286 188.850792 
L 171.107892 180.547042 
L 172.501499 190.061756 
L 173.895105 190.061756 
L 175.288711 185.563891 
L 176.682318 76.058182 
L 178.075924 178.990088 
L 179.46953 207.188241 
L 180.863137 207.188241 
L 182.256743 210.994126 
L 183.65035 210.994126 
L 185.043956 230.888529 
L 186.437562 239.192279 
L 189.224775 239.192279 
L 190.618382 229.072083 
L 192.011988 358.191078 
L 193.405594 369.003253 
L 197.586414 369.003253 
L 198.98002 365.218991 
L 204.554446 365.218991 
L 205.948052 379.820834 
L 207.341658 381.831898 
L 208.735265 367.738228 
L 212.916084 367.738228 
L 214.30969 371.52249 
L 219.884116 371.52249 
L 221.277722 367.738228 
L 222.671329 367.738228 
L 224.064935 383.848369 
L 229.639361 383.848369 
L 231.032967 374.290406 
L 232.426573 373.025382 
L 233.82018 366.732696 
L 235.213786 320.67283 
L 236.607393 324.478716 
L 239.394605 324.478716 
L 240.788212 323.224504 
L 242.181818 314.920753 
L 243.575425 310.37964 
L 244.969031 251.47491 
L 246.362637 261.076121 
L 247.756244 256.491759 
L 249.14985 262.806069 
L 250.543457 308.865935 
L 251.937063 302.551625 
L 253.330669 300.562185 
L 254.724276 300.562185 
L 256.117882 267.822919 
L 257.511489 273.618244 
L 258.905095 278.202607 
L 260.298701 337.064088 
L 261.692308 337.064088 
L 263.085914 342.816165 
L 264.47952 342.816165 
L 265.873127 342.080937 
L 267.266733 348.373623 
L 268.66034 350.384687 
L 270.053946 350.384687 
L 271.447552 384.351135 
L 272.841159 380.577686 
L 274.234765 367.738228 
L 275.628372 356.915241 
L 277.021978 331.268762 
L 278.415584 266.611955 
L 279.809191 258.308205 
L 281.202797 259.000184 
L 285.383616 259.000184 
L 286.777223 253.983335 
L 288.170829 252.772371 
L 289.564436 258.048712 
L 290.958042 263.844038 
L 292.351648 286.246865 
L 293.745255 344.589361 
L 295.138861 352.893112 
L 297.926074 352.893112 
L 299.31968 335.031399 
L 300.713287 335.031399 
L 302.106893 340.048248 
L 304.894106 355.163669 
L 306.287712 360.202142 
L 307.681319 363.467419 
L 309.074925 369.760105 
L 313.255744 369.760105 
L 314.649351 387.621818 
L 323.010989 387.621818 
L 324.404595 349.368343 
L 325.798202 336.026119 
L 327.191808 331.00927 
L 332.766234 331.00927 
L 334.15984 328.976581 
L 335.553447 324.478716 
L 336.947053 324.478716 
L 338.340659 323.224504 
L 339.734266 361.456355 
L 341.127872 374.787766 
L 342.521479 379.820834 
L 343.915085 342.816165 
L 345.308691 317.904913 
L 348.095904 317.904913 
L 349.48951 319.937602 
L 350.883117 324.478716 
L 352.276723 324.478716 
L 353.67033 325.732928 
L 357.851149 325.732928 
L 359.244755 362.710567 
L 360.638362 387.621818 
L 362.031968 386.363551 
L 373.180819 386.363551 
L 374.574426 369.760105 
L 375.968032 369.760105 
L 377.361638 371.014317 
L 378.755245 371.014317 
L 380.148851 370.257465 
L 381.542458 355.661029 
L 384.32967 355.661029 
L 385.723277 353.649964 
L 388.51049 353.649964 
L 389.904096 370.257465 
L 394.084915 370.257465 
L 395.478521 371.014317 
L 396.872128 385.609402 
L 398.265734 385.609402 
L 399.659341 292.993662 
L 401.052947 294.983102 
L 402.446553 284.689912 
L 403.84016 284.689912 
L 405.233766 283.478948 
L 406.627373 276.386161 
L 408.020979 273.877737 
L 413.595405 273.877737 
L 414.989011 366.484016 
L 416.382617 366.484016 
L 417.776224 376.804237 
L 419.16983 376.804237 
L 420.563437 378.058449 
L 421.957043 385.105284 
L 423.350649 383.091517 
L 424.744256 338.3183 
L 426.137862 338.3183 
L 427.531469 298.010511 
L 430.318681 298.010511 
L 431.712288 295.502087 
L 437.286713 295.502087 
L 438.68032 300.0432 
L 440.073926 344.848854 
L 441.467532 344.848854 
L 442.861139 385.105284 
L 445.648352 385.105284 
L 447.041958 385.609402 
L 448.435564 382.337368 
L 455.403596 382.337368 
L 456.797203 380.3236 
L 458.190809 379.572154 
L 460.978022 379.572154 
L 462.371628 381.583218 
L 463.765235 384.853901 
L 466.552448 384.853901 
L 467.946054 384.099752 
L 469.33966 381.583218 
L 470.733267 381.583218 
L 472.126873 383.596986 
L 473.52048 384.351135 
L 481.882118 384.351135 
L 483.275724 385.105284 
L 484.669331 387.621818 
L 490.243756 387.621818 
L 491.637363 378.561215 
L 505.573427 378.561215 
L 506.967033 387.621818 
L 508.360639 384.351135 
L 515.328671 384.351135 
L 516.722278 383.596986 
L 520.903097 383.596986 
L 522.296703 381.080452 
L 523.69031 384.351135 
L 530.658342 384.351135 
L 532.051948 385.105284 
L 536.232767 385.105284 
L 537.626374 387.621818 
L 540.413586 361.456355 
L 552.956044 361.456355 
L 554.34965 374.290406 
L 555.743257 367.240868 
L 557.136863 346.859918 
L 561.317682 346.859918 
L 562.711289 338.534543 
L 569.679321 338.534543 
L 572.466533 379.318068 
L 573.86014 376.041979 
L 576.647353 376.041979 
L 578.040959 384.351135 
L 579.434565 365.218991 
L 582.221778 365.218991 
L 583.615385 330.014549 
L 585.008991 330.014549 
L 586.402597 327.462876 
L 587.796204 327.462876 
L 589.18981 330.749777 
L 590.583417 324.478716 
L 591.977023 324.478716 
L 593.370629 323.224504 
L 594.764236 342.340429 
L 597.551449 342.340429 
L 598.945055 377.555683 
L 600.338661 367.240868 
L 601.732268 337.064088 
L 604.519481 337.064088 
L 605.913087 343.335149 
L 607.306693 343.335149 
L 608.7003 344.589361 
L 610.093906 328.500845 
L 611.487512 328.500845 
L 612.881119 310.639132 
L 614.274725 310.639132 
L 615.668332 320.932322 
L 617.061938 349.887327 
L 618.455544 346.103066 
L 622.636364 346.103066 
L 622.636364 346.103066 
" style="fill:none;stroke:#1f77b4;stroke-linecap:square;stroke-width:1.5;"/>
   </g>
   <g id="line2d_24">
    <path clip-path="url(#p2242fc2d6a)" d="M 115.363636 360.461634 
L 118.150849 360.461634 
L 119.544456 350.060322 
L 120.938062 343.075657 
L 122.331668 343.075657 
L 123.725275 351.509154 
L 125.118881 351.509154 
L 126.512488 357.823464 
L 127.906094 357.823464 
L 129.2997 335.031399 
L 132.086913 338.96703 
L 136.267732 338.96703 
L 137.661339 344.394742 
L 140.448551 344.394742 
L 141.842158 342.686419 
L 147.416583 342.686419 
L 148.81019 353.087731 
L 150.203796 355.055547 
L 152.991009 355.055547 
L 154.384615 343.724387 
L 155.778222 286.160367 
L 157.171828 271.369312 
L 158.565435 294.204626 
L 159.959041 292.215186 
L 161.352647 292.215186 
L 162.746254 281.749 
L 164.13986 277.42413 
L 166.927073 277.42413 
L 168.320679 275.0887 
L 169.714286 206.323267 
L 171.107892 201.306418 
L 178.075924 201.306418 
L 179.46953 206.323267 
L 182.256743 206.323267 
L 183.65035 210.129152 
L 185.043956 269.639364 
L 186.437562 283.392451 
L 187.831169 283.392451 
L 189.224775 285.381891 
L 190.618382 285.381891 
L 192.011988 293.772139 
L 193.405594 298.097009 
L 196.192807 298.097009 
L 197.586414 300.518936 
L 198.98002 369.165435 
L 200.373626 375.890608 
L 201.767233 367.457112 
L 211.522478 367.457112 
L 212.916084 375.101319 
L 214.30969 374.182285 
L 215.703297 375.231066 
L 219.884116 375.231066 
L 221.277722 377.209694 
L 222.671329 377.209694 
L 224.064935 372.203657 
L 225.458541 371.544114 
L 226.852148 368.2464 
L 228.245754 344.13525 
L 229.639361 344.13525 
L 231.032967 352.568747 
L 232.426573 352.568747 
L 233.82018 351.898392 
L 235.213786 347.551897 
L 236.607393 345.173219 
L 238.000999 314.35852 
L 239.394605 314.35852 
L 240.788212 311.287862 
L 242.181818 311.287862 
L 243.575425 313.277303 
L 244.969031 309.990401 
L 246.362637 308.952432 
L 247.756244 308.952432 
L 249.14985 291.177217 
L 250.543457 289.793258 
L 251.937063 289.793258 
L 253.330669 294.810108 
L 254.724276 295.502087 
L 256.117882 298.788988 
L 257.511489 322.921763 
L 258.905095 322.489276 
L 261.692308 322.489276 
L 263.085914 323.181255 
L 264.47952 327.506125 
L 265.873127 326.597902 
L 267.266733 350.709053 
L 268.66034 345.043473 
L 270.053946 334.64216 
L 271.447552 300.778428 
L 272.841159 296.453558 
L 274.234765 299.697211 
L 275.628372 300.778428 
L 277.021978 300.778428 
L 278.415584 318.553644 
L 279.809191 317.256183 
L 282.596404 309.341671 
L 283.99001 306.7035 
L 285.383616 304.973552 
L 286.777223 301.686651 
L 288.170829 302.075889 
L 290.958042 302.075889 
L 292.351648 292.73417 
L 293.745255 292.73417 
L 295.138861 296.021071 
L 296.532468 302.72462 
L 297.926074 308.390199 
L 299.31968 321.840545 
L 300.713287 355.725902 
L 302.106893 360.072396 
L 307.681319 360.072396 
L 309.074925 362.710567 
L 311.862138 370.614267 
L 313.255744 373.252438 
L 314.649351 374.971573 
L 316.042957 378.263881 
L 317.436563 358.234326 
L 318.83017 351.249661 
L 320.223776 348.611491 
L 321.617383 357.974834 
L 325.798202 357.974834 
L 327.191808 356.915241 
L 328.585415 354.536563 
L 329.979021 354.536563 
L 331.372627 353.887832 
L 335.553447 353.887832 
L 336.947053 334.512414 
L 338.340659 321.451307 
L 345.308691 321.451307 
L 346.702298 341.475455 
L 348.095904 348.481744 
L 349.48951 351.119915 
L 353.67033 351.119915 
L 355.063936 350.44956 
L 356.457542 351.509154 
L 357.851149 353.887832 
L 359.244755 353.887832 
L 360.638362 354.536563 
L 364.819181 354.536563 
L 366.212787 373.91198 
L 367.606394 378.263881 
L 371.787213 378.263881 
L 373.180819 377.869236 
L 374.574426 370.225029 
L 377.361638 370.225029 
L 378.755245 369.165435 
L 382.936064 369.165435 
L 384.32967 369.824978 
L 391.297702 369.824978 
L 392.691309 321.321561 
L 394.084915 321.321561 
L 395.478521 315.915473 
L 396.872128 324.608462 
L 398.265734 323.959731 
L 399.659341 320.283592 
L 401.052947 318.942882 
L 402.446553 319.332121 
L 403.84016 326.98714 
L 406.627373 326.98714 
L 408.020979 328.025109 
L 414.989011 328.025109 
L 416.382617 325.689679 
L 417.776224 302.205635 
L 419.16983 302.205635 
L 420.563437 281.143518 
L 421.957043 329.625311 
L 423.350649 329.625311 
L 424.744256 333.733938 
L 426.137862 333.733938 
L 427.531469 334.382668 
L 428.925075 338.058808 
L 430.318681 339.399517 
L 438.68032 339.399517 
L 440.073926 338.3183 
L 441.467532 336.631601 
L 444.254745 336.631601 
L 445.648352 338.96703 
L 447.041958 362.451075 
L 448.435564 362.451075 
L 449.829171 382.480629 
L 451.222777 382.085985 
L 452.616384 382.085985 
L 454.00999 383.40507 
L 459.584416 383.40507 
L 460.978022 383.007722 
L 462.371628 381.69134 
L 467.946054 381.69134 
L 469.33966 382.745527 
L 470.733267 384.459257 
L 477.701299 384.459257 
L 479.094905 385.513444 
L 480.488511 385.908088 
L 483.275724 385.908088 
L 484.669331 381.161544 
L 488.85015 381.161544 
L 490.243756 381.556188 
L 491.637363 382.877976 
L 499.999001 382.877976 
L 501.392607 381.161544 
L 508.360639 381.161544 
L 509.754246 380.766899 
L 512.541459 380.766899 
L 513.935065 385.513444 
L 515.328671 384.194359 
L 529.264735 384.194359 
L 530.658342 385.908088 
L 533.445554 372.203657 
L 537.626374 372.203657 
L 539.01998 372.592895 
L 543.200799 372.592895 
L 544.594406 373.91198 
L 547.381618 373.91198 
L 550.168831 352.568747 
L 554.34965 352.568747 
L 555.743257 348.222252 
L 559.924076 348.222252 
L 562.711289 361.910466 
L 565.498501 361.910466 
L 566.892108 360.202142 
L 571.072927 360.202142 
L 572.466533 350.190068 
L 575.253746 350.190068 
L 576.647353 331.744498 
L 578.040959 342.426926 
L 579.434565 351.768646 
L 582.221778 351.768646 
L 583.615385 348.481744 
L 585.008991 352.828239 
L 586.402597 352.157884 
L 591.977023 352.157884 
L 593.370629 346.751796 
L 594.764236 329.625311 
L 596.157842 331.355259 
L 600.338661 331.355259 
L 601.732268 341.345709 
L 603.125874 332.912212 
L 604.519481 332.912212 
L 605.913087 342.037688 
L 607.306693 342.037688 
L 608.7003 343.335149 
L 611.487512 339.399517 
L 612.881119 342.686419 
L 614.274725 342.686419 
L 615.668332 343.335149 
L 617.061938 337.929062 
L 621.242757 337.929062 
L 622.636364 343.335149 
L 622.636364 343.335149 
" style="fill:none;stroke:#ff7f0e;stroke-linecap:square;stroke-width:1.5;"/>
   </g>
   <g id="line2d_25">
    <path clip-path="url(#p2242fc2d6a)" d="M 115.363636 342.167434 
L 118.150849 342.167434 
L 119.544456 340.134745 
L 120.938062 343.789261 
L 122.331668 339.961751 
L 129.2997 339.961751 
L 130.693307 345.648955 
L 132.086913 345.648955 
L 133.480519 352.006514 
L 134.874126 350.838799 
L 136.267732 350.838799 
L 139.054945 353.520218 
L 141.842158 353.520218 
L 143.235764 350.125195 
L 144.629371 353.77971 
L 146.022977 353.77971 
L 147.416583 346.103066 
L 148.81019 305.016801 
L 150.203796 295.0696 
L 151.597403 295.0696 
L 152.991009 293.685641 
L 155.778222 293.685641 
L 157.171828 295.502087 
L 159.959041 295.502087 
L 161.352647 293.858636 
L 162.746254 249.398972 
L 164.13986 244.81461 
L 165.533467 260.297645 
L 175.288711 260.297645 
L 176.682318 255.107801 
L 178.075924 255.540288 
L 179.46953 254.848309 
L 183.65035 254.848309 
L 185.043956 253.550848 
L 186.437562 256.924246 
L 189.224775 256.924246 
L 190.618382 264.622515 
L 192.011988 305.665531 
L 193.405594 315.655981 
L 194.799201 309.947153 
L 196.192807 311.287862 
L 197.586414 311.287862 
L 198.98002 318.3374 
L 200.373626 321.278312 
L 203.160839 321.278312 
L 204.554446 322.878514 
L 205.948052 369.403303 
L 207.341658 372.625331 
L 215.703297 372.625331 
L 217.096903 369.230308 
L 218.490509 368.787009 
L 219.884116 371.727921 
L 221.277722 356.093516 
L 222.671329 356.807119 
L 225.458541 356.807119 
L 226.852148 356.374632 
L 229.639361 353.152604 
L 231.032967 332.263482 
L 232.426573 332.263482 
L 233.82018 330.230793 
L 236.607393 330.230793 
L 238.000999 333.690689 
L 239.394605 332.99871 
L 240.788212 332.99871 
L 242.181818 320.932322 
L 243.575425 320.0241 
L 249.14985 320.0241 
L 250.543457 321.364809 
L 251.937063 321.105317 
L 257.511489 321.105317 
L 258.905095 318.856385 
L 260.298701 317.68867 
L 261.692308 314.315271 
L 264.47952 300.821677 
L 265.873127 297.924014 
L 268.66034 297.924014 
L 270.053946 298.356501 
L 271.447552 301.297413 
L 272.841159 301.081169 
L 274.234765 319.332121 
L 275.628372 316.650701 
L 277.021978 316.910193 
L 278.415584 315.742478 
L 279.809191 313.493546 
L 281.202797 315.742478 
L 282.596404 316.477706 
L 283.99001 316.477706 
L 285.383616 322.186535 
L 286.777223 323.051509 
L 293.745255 323.051509 
L 295.138861 323.35425 
L 300.713287 323.35425 
L 302.106893 325.559933 
L 303.5005 330.101047 
L 304.894106 333.950181 
L 306.287712 343.075657 
L 307.681319 366.019092 
L 309.074925 368.960004 
L 310.468531 355.379912 
L 311.862138 350.665804 
L 313.255744 348.870983 
L 314.649351 348.870983 
L 316.042957 350.665804 
L 318.83017 356.007018 
L 320.223776 357.088236 
L 321.617383 356.634124 
L 323.010989 358.861433 
L 324.404595 358.428946 
L 327.191808 358.428946 
L 328.585415 364.76488 
L 329.979021 351.6389 
L 331.372627 342.816165 
L 346.702298 342.816165 
L 348.095904 342.340429 
L 352.276723 342.340429 
L 353.67033 355.920521 
L 355.063936 360.656254 
L 356.457542 362.451075 
L 359.244755 362.451075 
L 360.638362 356.547627 
L 362.031968 356.547627 
L 363.425574 357.261231 
L 364.819181 358.861433 
L 366.212787 358.60194 
L 367.606394 353.866208 
L 370.393606 353.866208 
L 371.787213 353.152604 
L 373.180819 366.278585 
L 374.574426 375.122944 
L 384.32967 375.122944 
L 385.723277 342.253932 
L 387.116883 342.253932 
L 388.51049 338.621041 
L 391.297702 338.621041 
L 392.691309 336.112616 
L 394.084915 335.204394 
L 402.446553 335.204394 
L 403.84016 341.086217 
L 408.020979 341.086217 
L 409.414585 339.745507 
L 410.808192 329.063078 
L 412.201798 329.063078 
L 413.595405 314.747758 
L 414.989011 315.482986 
L 416.382617 315.482986 
L 417.776224 314.574764 
L 427.531469 314.574764 
L 428.925075 347.443776 
L 430.318681 347.443776 
L 431.712288 351.098291 
L 434.4995 349.671084 
L 435.893107 352.179508 
L 437.286713 353.066107 
L 441.467532 353.066107 
L 442.861139 352.352503 
L 444.254745 352.093011 
L 451.222777 352.093011 
L 452.616384 353.693213 
L 454.00999 369.316806 
L 455.403596 368.430207 
L 456.797203 382.710388 
L 459.584416 382.710388 
L 460.978022 383.605095 
L 474.914086 383.605095 
L 476.307692 384.318699 
L 477.701299 382.264385 
L 484.669331 382.264385 
L 486.062937 382.977989 
L 487.456543 383.24559 
L 493.030969 383.24559 
L 494.424575 382.085985 
L 495.818182 382.085985 
L 497.211788 382.353586 
L 498.605395 383.24559 
L 501.392607 383.24559 
L 502.786214 382.977989 
L 506.967033 382.977989 
L 508.360639 382.085985 
L 519.509491 382.085985 
L 520.903097 385.299904 
L 523.69031 385.299904 
L 526.477522 376.009542 
L 536.232767 376.009542 
L 537.626374 377.177257 
L 540.413586 377.177257 
L 543.200799 362.710567 
L 544.594406 362.710567 
L 545.988012 362.970059 
L 547.381618 362.970059 
L 548.775225 360.029147 
L 550.168831 360.029147 
L 551.562438 360.915746 
L 558.53047 360.915746 
L 559.924076 359.769655 
L 564.104895 359.769655 
L 565.498501 352.979609 
L 566.892108 352.979609 
L 568.285714 357.542347 
L 569.679321 349.757581 
L 571.072927 349.757581 
L 572.466533 348.870983 
L 575.253746 348.870983 
L 576.647353 346.643675 
L 578.040959 346.643675 
L 579.434565 346.189563 
L 583.615385 346.189563 
L 585.008991 353.433721 
L 586.402597 357.001738 
L 587.796204 345.389462 
L 590.583417 345.389462 
L 591.977023 348.330374 
L 594.764236 348.330374 
L 596.157842 342.599921 
L 597.551449 342.599921 
L 598.945055 336.285611 
L 601.732268 336.285611 
L 603.125874 336.112616 
L 604.519481 334.771907 
L 607.306693 334.771907 
L 608.7003 341.561952 
L 610.093906 337.885813 
L 611.487512 337.885813 
L 612.881119 350.384687 
L 614.274725 350.384687 
L 615.668332 351.271286 
L 618.455544 351.271286 
L 619.849151 353.520218 
L 621.242757 346.47068 
L 622.636364 342.167434 
L 622.636364 342.167434 
" style="fill:none;stroke:#2ca02c;stroke-linecap:square;stroke-width:1.5;"/>
   </g>
   <g id="line2d_26">
    <path clip-path="url(#p2242fc2d6a)" d="M 115.363636 338.015559 
L 116.757243 338.015559 
L 118.150849 339.702258 
L 119.544456 339.702258 
L 120.938062 340.048248 
L 126.512488 340.048248 
L 127.906094 341.907942 
L 129.2997 350.687428 
L 134.874126 350.687428 
L 136.267732 348.135755 
L 137.661339 352.439001 
L 139.054945 352.439001 
L 140.448551 351.44428 
L 141.842158 320.370089 
L 143.235764 312.801567 
L 144.629371 313.839536 
L 147.416583 313.839536 
L 148.81019 308.519945 
L 150.203796 306.271013 
L 151.597403 309.03893 
L 152.991009 309.03893 
L 154.384615 307.827966 
L 155.778222 272.666773 
L 157.171828 269.206877 
L 161.352647 269.206877 
L 162.746254 274.569716 
L 164.13986 278.116109 
L 168.320679 278.116109 
L 169.714286 275.780679 
L 171.107892 275.175198 
L 172.501499 286.333362 
L 176.682318 286.333362 
L 178.075924 285.381891 
L 183.65035 285.381891 
L 185.043956 286.246865 
L 186.437562 286.246865 
L 187.831169 281.921995 
L 192.011988 281.921995 
L 193.405594 284.430419 
L 196.192807 284.430419 
L 197.586414 290.312243 
L 198.98002 321.321561 
L 200.373626 327.895363 
L 201.767233 327.895363 
L 203.160839 328.890083 
L 204.554446 328.890083 
L 205.948052 334.209673 
L 207.341658 336.458606 
L 208.735265 336.458606 
L 210.128871 333.863684 
L 211.522478 334.771907 
L 212.916084 368.2464 
L 214.30969 359.337168 
L 218.490509 359.337168 
L 219.884116 358.991179 
L 221.277722 356.763871 
L 222.671329 355.552907 
L 224.064935 339.745507 
L 225.458541 339.745507 
L 226.852148 342.124186 
L 229.639361 343.205403 
L 231.032967 341.518704 
L 232.426573 340.956471 
L 233.82018 340.956471 
L 235.213786 332.868964 
L 236.607393 332.176985 
L 243.575425 332.176985 
L 244.969031 336.32886 
L 250.543457 336.32886 
L 251.937063 334.64216 
L 253.330669 331.182264 
L 254.724276 328.284601 
L 256.117882 321.408058 
L 257.511489 305.060049 
L 258.905095 302.811117 
L 264.47952 302.811117 
L 265.873127 301.470407 
L 267.266733 302.03264 
L 268.66034 300.345941 
L 270.053946 300.648682 
L 271.447552 312.152836 
L 272.841159 310.466137 
L 275.628372 310.466137 
L 277.021978 310.812127 
L 278.415584 308.217205 
L 279.809191 309.428168 
L 281.202797 325.257192 
L 282.596404 325.257192 
L 283.99001 326.814146 
L 286.777223 326.814146 
L 288.170829 328.500845 
L 289.564436 329.019829 
L 290.958042 329.019829 
L 292.351648 338.145305 
L 293.745255 338.794036 
L 300.713287 338.794036 
L 302.106893 339.010279 
L 303.5005 328.760337 
L 304.894106 325.170695 
L 306.287712 323.829985 
L 307.681319 323.829985 
L 309.074925 325.516685 
L 310.468531 328.976581 
L 311.862138 331.874244 
L 313.255744 338.188554 
L 314.649351 354.341943 
L 316.042957 356.569251 
L 317.436563 356.223262 
L 321.617383 356.223262 
L 323.010989 347.660019 
L 324.404595 342.98916 
L 325.798202 345.021848 
L 327.191808 346.362558 
L 328.585415 347.249157 
L 329.979021 348.935856 
L 334.15984 348.935856 
L 335.553447 353.736462 
L 339.734266 353.736462 
L 341.127872 353.390472 
L 352.276723 353.390472 
L 353.67033 348.935856 
L 357.851149 348.935856 
L 359.244755 348.741237 
L 360.638362 355.077171 
L 362.031968 358.666813 
L 363.425574 360.007523 
L 364.819181 359.466914 
L 369 359.466914 
L 370.393606 360.007523 
L 371.787213 361.218487 
L 373.180819 361.218487 
L 374.574426 361.564476 
L 377.361638 361.564476 
L 378.755245 336.718098 
L 380.148851 346.643675 
L 381.542458 350.557682 
L 382.936064 350.557682 
L 384.32967 350.211692 
L 385.723277 348.330374 
L 387.116883 347.660019 
L 396.872128 347.660019 
L 398.265734 347.984384 
L 401.052947 347.984384 
L 402.446553 346.773421 
L 403.84016 334.771907 
L 405.233766 334.771907 
L 406.627373 323.959731 
L 409.414585 323.959731 
L 410.808192 327.722368 
L 414.989011 327.722368 
L 416.382617 327.938612 
L 417.776224 331.874244 
L 420.563437 331.874244 
L 421.957043 332.393228 
L 424.744256 332.393228 
L 426.137862 331.874244 
L 427.531469 330.966021 
L 434.4995 330.966021 
L 435.893107 355.293415 
L 437.286713 355.077171 
L 438.68032 357.845088 
L 440.073926 357.845088 
L 441.467532 358.191078 
L 442.861139 360.072396 
L 444.254745 360.742751 
L 445.648352 360.742751 
L 447.041958 360.548132 
L 448.435564 359.877777 
L 458.190809 359.877777 
L 459.584416 361.088741 
L 460.978022 373.111879 
L 462.371628 373.111879 
L 463.765235 383.907836 
L 466.552448 383.907836 
L 467.946054 384.583597 
L 469.33966 384.583597 
L 470.733267 382.153561 
L 481.882118 382.153561 
L 483.275724 382.694169 
L 484.669331 383.569956 
L 486.062937 383.569956 
L 487.456543 382.694169 
L 491.637363 382.694169 
L 493.030969 383.234778 
L 494.424575 383.437506 
L 495.818182 383.234778 
L 499.999001 383.234778 
L 501.392607 382.559017 
L 502.786214 382.559017 
L 504.17982 382.761745 
L 505.573427 383.437506 
L 516.722278 383.437506 
L 519.509491 376.420405 
L 526.477522 376.420405 
L 527.871129 378.847738 
L 533.445554 378.847738 
L 536.232767 367.911223 
L 540.413586 367.911223 
L 541.807193 365.683915 
L 543.200799 365.683915 
L 544.594406 366.559701 
L 551.562438 366.559701 
L 552.956044 365.878534 
L 557.136863 365.878534 
L 558.53047 361.43473 
L 561.317682 361.43473 
L 562.711289 351.984889 
L 564.104895 351.984889 
L 565.498501 351.29291 
L 568.285714 351.29291 
L 569.679321 349.606211 
L 571.072927 349.606211 
L 572.466533 349.281845 
L 573.86014 349.281845 
L 576.647353 356.288135 
L 578.040959 356.288135 
L 579.434565 353.520218 
L 580.828172 344.762356 
L 587.796204 344.762356 
L 589.18981 340.437486 
L 590.583417 340.437486 
L 591.977023 341.086217 
L 593.370629 346.578802 
L 594.764236 346.578802 
L 597.551449 344.546113 
L 598.945055 346.773421 
L 601.732268 346.773421 
L 603.125874 344.005504 
L 608.7003 344.005504 
L 610.093906 344.892102 
L 612.881119 344.892102 
L 614.274725 339.572512 
L 615.668332 341.086217 
L 618.455544 341.086217 
L 619.849151 350.557682 
L 621.242757 349.000729 
L 622.636364 349.671084 
L 622.636364 349.671084 
" style="fill:none;stroke:#d62728;stroke-linecap:square;stroke-width:1.5;"/>
   </g>
   <g id="patch_3">
    <path d="M 90 403.2 
L 90 60.48 
" style="fill:none;stroke:#000000;stroke-linecap:square;stroke-linejoin:miter;stroke-width:0.8;"/>
   </g>
   <g id="patch_4">
    <path d="M 648 403.2 
L 648 60.48 
" style="fill:none;stroke:#000000;stroke-linecap:square;stroke-linejoin:miter;stroke-width:0.8;"/>
   </g>
   <g id="patch_5">
    <path d="M 90 403.2 
L 648 403.2 
" style="fill:none;stroke:#000000;stroke-linecap:square;stroke-linejoin:miter;stroke-width:0.8;"/>
   </g>
   <g id="patch_6">
    <path d="M 90 60.48 
L 648 60.48 
" style="fill:none;stroke:#000000;stroke-linecap:square;stroke-linejoin:miter;stroke-width:0.8;"/>
   </g>
   <g id="legend_1">
    <g id="patch_7">
     <path d="M 557.665625 127.1925 
L 641 127.1925 
Q 643 127.1925 643 125.1925 
L 643 67.48 
Q 643 65.48 641 65.48 
L 557.665625 65.48 
Q 555.665625 65.48 555.665625 67.48 
L 555.665625 125.1925 
Q 555.665625 127.1925 557.665625 127.1925 
z
" style="fill:#ffffff;opacity:0.8;stroke:#cccccc;stroke-linejoin:miter;"/>
    </g>
    <g id="line2d_27">
     <path d="M 559.665625 73.578438 
L 579.665625 73.578438 
" style="fill:none;stroke:#1f77b4;stroke-linecap:square;stroke-width:1.5;"/>
    </g>
    <g id="line2d_28"/>
    <g id="text_12">
     <!-- conv = 10 -->
     <defs>
      <path d="M 30.609375 48.390625 
Q 23.390625 48.390625 19.1875 42.75 
Q 14.984375 37.109375 14.984375 27.296875 
Q 14.984375 17.484375 19.15625 11.84375 
Q 23.34375 6.203125 30.609375 6.203125 
Q 37.796875 6.203125 41.984375 11.859375 
Q 46.1875 17.53125 46.1875 27.296875 
Q 46.1875 37.015625 41.984375 42.703125 
Q 37.796875 48.390625 30.609375 48.390625 
M 30.609375 56 
Q 42.328125 56 49.015625 48.375 
Q 55.71875 40.765625 55.71875 27.296875 
Q 55.71875 13.875 49.015625 6.21875 
Q 42.328125 -1.421875 30.609375 -1.421875 
Q 18.84375 -1.421875 12.171875 6.21875 
Q 5.515625 13.875 5.515625 27.296875 
Q 5.515625 40.765625 12.171875 48.375 
Q 18.84375 56 30.609375 56 
" id="DejaVuSans-6f"/>
      <path d="M 2.984375 54.6875 
L 12.5 54.6875 
L 29.59375 8.796875 
L 46.6875 54.6875 
L 56.203125 54.6875 
L 35.6875 0 
L 23.484375 0 
z
" id="DejaVuSans-76"/>
      <path id="DejaVuSans-20"/>
      <path d="M 10.59375 45.40625 
L 73.1875 45.40625 
L 73.1875 37.203125 
L 10.59375 37.203125 
z
M 10.59375 25.484375 
L 73.1875 25.484375 
L 73.1875 17.1875 
L 10.59375 17.1875 
z
" id="DejaVuSans-3d"/>
     </defs>
     <g transform="translate(587.665625 77.078438)scale(0.1 -0.1)">
      <use xlink:href="#DejaVuSans-63"/>
      <use x="54.980469" xlink:href="#DejaVuSans-6f"/>
      <use x="116.162109" xlink:href="#DejaVuSans-6e"/>
      <use x="179.541016" xlink:href="#DejaVuSans-76"/>
      <use x="238.720703" xlink:href="#DejaVuSans-20"/>
      <use x="270.507812" xlink:href="#DejaVuSans-3d"/>
      <use x="354.296875" xlink:href="#DejaVuSans-20"/>
      <use x="386.083984" xlink:href="#DejaVuSans-31"/>
      <use x="449.707031" xlink:href="#DejaVuSans-30"/>
     </g>
    </g>
    <g id="line2d_29">
     <path d="M 559.665625 88.256563 
L 579.665625 88.256563 
" style="fill:none;stroke:#ff7f0e;stroke-linecap:square;stroke-width:1.5;"/>
    </g>
    <g id="line2d_30"/>
    <g id="text_13">
     <!-- conv = 20 -->
     <g transform="translate(587.665625 91.756563)scale(0.1 -0.1)">
      <use xlink:href="#DejaVuSans-63"/>
      <use x="54.980469" xlink:href="#DejaVuSans-6f"/>
      <use x="116.162109" xlink:href="#DejaVuSans-6e"/>
      <use x="179.541016" xlink:href="#DejaVuSans-76"/>
      <use x="238.720703" xlink:href="#DejaVuSans-20"/>
      <use x="270.507812" xlink:href="#DejaVuSans-3d"/>
      <use x="354.296875" xlink:href="#DejaVuSans-20"/>
      <use x="386.083984" xlink:href="#DejaVuSans-32"/>
      <use x="449.707031" xlink:href="#DejaVuSans-30"/>
     </g>
    </g>
    <g id="line2d_31">
     <path d="M 559.665625 102.934687 
L 579.665625 102.934687 
" style="fill:none;stroke:#2ca02c;stroke-linecap:square;stroke-width:1.5;"/>
    </g>
    <g id="line2d_32"/>
    <g id="text_14">
     <!-- conv = 30 -->
     <defs>
      <path d="M 40.578125 39.3125 
Q 47.65625 37.796875 51.625 33 
Q 55.609375 28.21875 55.609375 21.1875 
Q 55.609375 10.40625 48.1875 4.484375 
Q 40.765625 -1.421875 27.09375 -1.421875 
Q 22.515625 -1.421875 17.65625 -0.515625 
Q 12.796875 0.390625 7.625 2.203125 
L 7.625 11.71875 
Q 11.71875 9.328125 16.59375 8.109375 
Q 21.484375 6.890625 26.8125 6.890625 
Q 36.078125 6.890625 40.9375 10.546875 
Q 45.796875 14.203125 45.796875 21.1875 
Q 45.796875 27.640625 41.28125 31.265625 
Q 36.765625 34.90625 28.71875 34.90625 
L 20.21875 34.90625 
L 20.21875 43.015625 
L 29.109375 43.015625 
Q 36.375 43.015625 40.234375 45.921875 
Q 44.09375 48.828125 44.09375 54.296875 
Q 44.09375 59.90625 40.109375 62.90625 
Q 36.140625 65.921875 28.71875 65.921875 
Q 24.65625 65.921875 20.015625 65.03125 
Q 15.375 64.15625 9.8125 62.3125 
L 9.8125 71.09375 
Q 15.4375 72.65625 20.34375 73.4375 
Q 25.25 74.21875 29.59375 74.21875 
Q 40.828125 74.21875 47.359375 69.109375 
Q 53.90625 64.015625 53.90625 55.328125 
Q 53.90625 49.265625 50.4375 45.09375 
Q 46.96875 40.921875 40.578125 39.3125 
" id="DejaVuSans-33"/>
     </defs>
     <g transform="translate(587.665625 106.434687)scale(0.1 -0.1)">
      <use xlink:href="#DejaVuSans-63"/>
      <use x="54.980469" xlink:href="#DejaVuSans-6f"/>
      <use x="116.162109" xlink:href="#DejaVuSans-6e"/>
      <use x="179.541016" xlink:href="#DejaVuSans-76"/>
      <use x="238.720703" xlink:href="#DejaVuSans-20"/>
      <use x="270.507812" xlink:href="#DejaVuSans-3d"/>
      <use x="354.296875" xlink:href="#DejaVuSans-20"/>
      <use x="386.083984" xlink:href="#DejaVuSans-33"/>
      <use x="449.707031" xlink:href="#DejaVuSans-30"/>
     </g>
    </g>
    <g id="line2d_33">
     <path d="M 559.665625 117.612813 
L 579.665625 117.612813 
" style="fill:none;stroke:#d62728;stroke-linecap:square;stroke-width:1.5;"/>
    </g>
    <g id="line2d_34"/>
    <g id="text_15">
     <!-- conv = 40 -->
     <g transform="translate(587.665625 121.112813)scale(0.1 -0.1)">
      <use xlink:href="#DejaVuSans-63"/>
      <use x="54.980469" xlink:href="#DejaVuSans-6f"/>
      <use x="116.162109" xlink:href="#DejaVuSans-6e"/>
      <use x="179.541016" xlink:href="#DejaVuSans-76"/>
      <use x="238.720703" xlink:href="#DejaVuSans-20"/>
      <use x="270.507812" xlink:href="#DejaVuSans-3d"/>
      <use x="354.296875" xlink:href="#DejaVuSans-20"/>
      <use x="386.083984" xlink:href="#DejaVuSans-34"/>
      <use x="449.707031" xlink:href="#DejaVuSans-30"/>
     </g>
    </g>
   </g>
  </g>
 </g>
 <defs>
  <clipPath id="p2242fc2d6a">
   <rect height="342.72" width="558" x="90" y="60.48"/>
  </clipPath>
 </defs>
</svg>
