<?xml version="1.0" encoding="utf-8" standalone="no"?>
<!DOCTYPE svg PUBLIC "-//W3C//DTD SVG 1.1//EN"
  "http://www.w3.org/Graphics/SVG/1.1/DTD/svg11.dtd">
<!-- Created with matplotlib (http://matplotlib.org/) -->
<svg height="432pt" version="1.1" viewBox="0 0 720 432" width="720pt" xmlns="http://www.w3.org/2000/svg" xmlns:xlink="http://www.w3.org/1999/xlink">
 <defs>
  <style type="text/css">
*{stroke-linecap:butt;stroke-linejoin:round;}
  </style>
 </defs>
 <g id="figure_1">
  <g id="patch_1">
   <path d="M 0 432 
L 720 432 
L 720 0 
L 0 0 
z
" style="fill:#ffffff;"/>
  </g>
  <g id="axes_1">
   <g id="patch_2">
    <path d="M 90 185.367273 
L 648 185.367273 
L 648 51.84 
L 90 51.84 
z
" style="fill:#ffffff;"/>
   </g>
   <g id="matplotlib.axis_1">
    <g id="xtick_1">
     <g id="line2d_1">
      <path clip-path="url(#p0018c4fa11)" d="M 115.363636 185.367273 
L 115.363636 51.84 
" style="fill:none;stroke:#b0b0b0;stroke-linecap:square;stroke-width:0.8;"/>
     </g>
     <g id="line2d_2">
      <defs>
       <path d="M 0 0 
L 0 3.5 
" id="m9c5574c1ed" style="stroke:#000000;stroke-width:0.8;"/>
      </defs>
      <g>
       <use style="stroke:#000000;stroke-width:0.8;" x="115.363636" xlink:href="#m9c5574c1ed" y="185.367273"/>
      </g>
     </g>
    </g>
    <g id="xtick_2">
     <g id="line2d_3">
      <path clip-path="url(#p0018c4fa11)" d="M 240.788212 185.367273 
L 240.788212 51.84 
" style="fill:none;stroke:#b0b0b0;stroke-linecap:square;stroke-width:0.8;"/>
     </g>
     <g id="line2d_4">
      <g>
       <use style="stroke:#000000;stroke-width:0.8;" x="240.788212" xlink:href="#m9c5574c1ed" y="185.367273"/>
      </g>
     </g>
    </g>
    <g id="xtick_3">
     <g id="line2d_5">
      <path clip-path="url(#p0018c4fa11)" d="M 367.606394 185.367273 
L 367.606394 51.84 
" style="fill:none;stroke:#b0b0b0;stroke-linecap:square;stroke-width:0.8;"/>
     </g>
     <g id="line2d_6">
      <g>
       <use style="stroke:#000000;stroke-width:0.8;" x="367.606394" xlink:href="#m9c5574c1ed" y="185.367273"/>
      </g>
     </g>
    </g>
    <g id="xtick_4">
     <g id="line2d_7">
      <path clip-path="url(#p0018c4fa11)" d="M 495.818182 185.367273 
L 495.818182 51.84 
" style="fill:none;stroke:#b0b0b0;stroke-linecap:square;stroke-width:0.8;"/>
     </g>
     <g id="line2d_8">
      <g>
       <use style="stroke:#000000;stroke-width:0.8;" x="495.818182" xlink:href="#m9c5574c1ed" y="185.367273"/>
      </g>
     </g>
    </g>
    <g id="xtick_5">
     <g id="line2d_9">
      <path clip-path="url(#p0018c4fa11)" d="M 624.02997 185.367273 
L 624.02997 51.84 
" style="fill:none;stroke:#b0b0b0;stroke-linecap:square;stroke-width:0.8;"/>
     </g>
     <g id="line2d_10">
      <g>
       <use style="stroke:#000000;stroke-width:0.8;" x="624.02997" xlink:href="#m9c5574c1ed" y="185.367273"/>
      </g>
     </g>
    </g>
   </g>
   <g id="matplotlib.axis_2">
    <g id="ytick_1">
     <g id="line2d_11">
      <path clip-path="url(#p0018c4fa11)" d="M 90 179.297851 
L 648 179.297851 
" style="fill:none;stroke:#b0b0b0;stroke-linecap:square;stroke-width:0.8;"/>
     </g>
     <g id="line2d_12">
      <defs>
       <path d="M 0 0 
L -3.5 0 
" id="m79f6d1fd27" style="stroke:#000000;stroke-width:0.8;"/>
      </defs>
      <g>
       <use style="stroke:#000000;stroke-width:0.8;" x="90" xlink:href="#m79f6d1fd27" y="179.297851"/>
      </g>
     </g>
     <g id="text_1">
      <!-- 0 -->
      <defs>
       <path d="M 31.78125 66.40625 
Q 24.171875 66.40625 20.328125 58.90625 
Q 16.5 51.421875 16.5 36.375 
Q 16.5 21.390625 20.328125 13.890625 
Q 24.171875 6.390625 31.78125 6.390625 
Q 39.453125 6.390625 43.28125 13.890625 
Q 47.125 21.390625 47.125 36.375 
Q 47.125 51.421875 43.28125 58.90625 
Q 39.453125 66.40625 31.78125 66.40625 
M 31.78125 74.21875 
Q 44.046875 74.21875 50.515625 64.515625 
Q 56.984375 54.828125 56.984375 36.375 
Q 56.984375 17.96875 50.515625 8.265625 
Q 44.046875 -1.421875 31.78125 -1.421875 
Q 19.53125 -1.421875 13.0625 8.265625 
Q 6.59375 17.96875 6.59375 36.375 
Q 6.59375 54.828125 13.0625 64.515625 
Q 19.53125 74.21875 31.78125 74.21875 
" id="DejaVuSans-30"/>
      </defs>
      <g transform="translate(76.6375 183.09707)scale(0.1 -0.1)">
       <use xlink:href="#DejaVuSans-30"/>
      </g>
     </g>
    </g>
    <g id="ytick_2">
     <g id="line2d_13">
      <path clip-path="url(#p0018c4fa11)" d="M 90 151.763524 
L 648 151.763524 
" style="fill:none;stroke:#b0b0b0;stroke-linecap:square;stroke-width:0.8;"/>
     </g>
     <g id="line2d_14">
      <g>
       <use style="stroke:#000000;stroke-width:0.8;" x="90" xlink:href="#m79f6d1fd27" y="151.763524"/>
      </g>
     </g>
     <g id="text_2">
      <!-- 25 -->
      <defs>
       <path d="M 19.1875 8.296875 
L 53.609375 8.296875 
L 53.609375 0 
L 7.328125 0 
L 7.328125 8.296875 
Q 12.9375 14.109375 22.625 23.890625 
Q 32.328125 33.6875 34.8125 36.53125 
Q 39.546875 41.84375 41.421875 45.53125 
Q 43.3125 49.21875 43.3125 52.78125 
Q 43.3125 58.59375 39.234375 62.25 
Q 35.15625 65.921875 28.609375 65.921875 
Q 23.96875 65.921875 18.8125 64.3125 
Q 13.671875 62.703125 7.8125 59.421875 
L 7.8125 69.390625 
Q 13.765625 71.78125 18.9375 73 
Q 24.125 74.21875 28.421875 74.21875 
Q 39.75 74.21875 46.484375 68.546875 
Q 53.21875 62.890625 53.21875 53.421875 
Q 53.21875 48.921875 51.53125 44.890625 
Q 49.859375 40.875 45.40625 35.40625 
Q 44.1875 33.984375 37.640625 27.21875 
Q 31.109375 20.453125 19.1875 8.296875 
" id="DejaVuSans-32"/>
       <path d="M 10.796875 72.90625 
L 49.515625 72.90625 
L 49.515625 64.59375 
L 19.828125 64.59375 
L 19.828125 46.734375 
Q 21.96875 47.46875 24.109375 47.828125 
Q 26.265625 48.1875 28.421875 48.1875 
Q 40.625 48.1875 47.75 41.5 
Q 54.890625 34.8125 54.890625 23.390625 
Q 54.890625 11.625 47.5625 5.09375 
Q 40.234375 -1.421875 26.90625 -1.421875 
Q 22.3125 -1.421875 17.546875 -0.640625 
Q 12.796875 0.140625 7.71875 1.703125 
L 7.71875 11.625 
Q 12.109375 9.234375 16.796875 8.0625 
Q 21.484375 6.890625 26.703125 6.890625 
Q 35.15625 6.890625 40.078125 11.328125 
Q 45.015625 15.765625 45.015625 23.390625 
Q 45.015625 31 40.078125 35.4375 
Q 35.15625 39.890625 26.703125 39.890625 
Q 22.75 39.890625 18.8125 39.015625 
Q 14.890625 38.140625 10.796875 36.28125 
z
" id="DejaVuSans-35"/>
      </defs>
      <g transform="translate(70.275 155.562742)scale(0.1 -0.1)">
       <use xlink:href="#DejaVuSans-32"/>
       <use x="63.623047" xlink:href="#DejaVuSans-35"/>
      </g>
     </g>
    </g>
    <g id="ytick_3">
     <g id="line2d_15">
      <path clip-path="url(#p0018c4fa11)" d="M 90 124.229196 
L 648 124.229196 
" style="fill:none;stroke:#b0b0b0;stroke-linecap:square;stroke-width:0.8;"/>
     </g>
     <g id="line2d_16">
      <g>
       <use style="stroke:#000000;stroke-width:0.8;" x="90" xlink:href="#m79f6d1fd27" y="124.229196"/>
      </g>
     </g>
     <g id="text_3">
      <!-- 50 -->
      <g transform="translate(70.275 128.028415)scale(0.1 -0.1)">
       <use xlink:href="#DejaVuSans-35"/>
       <use x="63.623047" xlink:href="#DejaVuSans-30"/>
      </g>
     </g>
    </g>
    <g id="ytick_4">
     <g id="line2d_17">
      <path clip-path="url(#p0018c4fa11)" d="M 90 96.694869 
L 648 96.694869 
" style="fill:none;stroke:#b0b0b0;stroke-linecap:square;stroke-width:0.8;"/>
     </g>
     <g id="line2d_18">
      <g>
       <use style="stroke:#000000;stroke-width:0.8;" x="90" xlink:href="#m79f6d1fd27" y="96.694869"/>
      </g>
     </g>
     <g id="text_4">
      <!-- 75 -->
      <defs>
       <path d="M 8.203125 72.90625 
L 55.078125 72.90625 
L 55.078125 68.703125 
L 28.609375 0 
L 18.3125 0 
L 43.21875 64.59375 
L 8.203125 64.59375 
z
" id="DejaVuSans-37"/>
      </defs>
      <g transform="translate(70.275 100.494087)scale(0.1 -0.1)">
       <use xlink:href="#DejaVuSans-37"/>
       <use x="63.623047" xlink:href="#DejaVuSans-35"/>
      </g>
     </g>
    </g>
    <g id="ytick_5">
     <g id="line2d_19">
      <path clip-path="url(#p0018c4fa11)" d="M 90 69.160541 
L 648 69.160541 
" style="fill:none;stroke:#b0b0b0;stroke-linecap:square;stroke-width:0.8;"/>
     </g>
     <g id="line2d_20">
      <g>
       <use style="stroke:#000000;stroke-width:0.8;" x="90" xlink:href="#m79f6d1fd27" y="69.160541"/>
      </g>
     </g>
     <g id="text_5">
      <!-- 100 -->
      <defs>
       <path d="M 12.40625 8.296875 
L 28.515625 8.296875 
L 28.515625 63.921875 
L 10.984375 60.40625 
L 10.984375 69.390625 
L 28.421875 72.90625 
L 38.28125 72.90625 
L 38.28125 8.296875 
L 54.390625 8.296875 
L 54.390625 0 
L 12.40625 0 
z
" id="DejaVuSans-31"/>
      </defs>
      <g transform="translate(63.9125 72.95976)scale(0.1 -0.1)">
       <use xlink:href="#DejaVuSans-31"/>
       <use x="63.623047" xlink:href="#DejaVuSans-30"/>
       <use x="127.246094" xlink:href="#DejaVuSans-30"/>
      </g>
     </g>
    </g>
   </g>
   <g id="line2d_21">
    <path clip-path="url(#p0018c4fa11)" d="M 115.363636 94.342623 
L 116.757243 89.7033 
L 118.150849 86.899182 
L 119.544456 84.571343 
L 122.331668 81.542362 
L 123.725275 83.356434 
L 125.118881 80.113552 
L 126.512488 79.067294 
L 127.906094 78.938835 
L 129.2997 78.391186 
L 130.693307 76.711749 
L 132.086913 79.289822 
L 133.480519 80.844754 
L 136.267732 76.603153 
L 137.661339 78.700814 
L 139.054945 77.471743 
L 140.448551 75.488092 
L 141.842158 76.075858 
L 143.235764 73.049271 
L 144.629371 71.10163 
L 146.022977 68.760804 
L 147.416583 67.71733 
L 148.81019 67.081418 
L 150.203796 67.543632 
L 152.991009 64.661395 
L 154.384615 67.097472 
L 157.171828 71.161805 
L 158.565435 75.183964 
L 159.959041 73.167724 
L 161.352647 69.350243 
L 162.746254 69.591513 
L 164.13986 67.230855 
L 165.533467 68.956686 
L 166.927073 69.281177 
L 168.320679 67.298521 
L 169.714286 64.13725 
L 171.107892 61.836134 
L 172.501499 63.207398 
L 173.895105 63.460179 
L 176.682318 57.909421 
L 178.075924 58.019657 
L 179.46953 63.962097 
L 180.863137 65.997695 
L 182.256743 67.267556 
L 183.65035 68.124991 
L 185.043956 67.180659 
L 186.437562 69.683368 
L 187.831169 71.722938 
L 190.618382 74.659063 
L 192.011988 75.173668 
L 193.405594 76.165237 
L 194.799201 78.018967 
L 196.192807 81.621631 
L 197.586414 84.840714 
L 198.98002 83.477464 
L 200.373626 81.928893 
L 201.767233 81.747531 
L 203.160839 86.606623 
L 204.554446 85.530783 
L 205.948052 84.705004 
L 207.341658 91.587665 
L 208.735265 96.340033 
L 210.128871 95.26641 
L 211.522478 96.900053 
L 212.916084 97.875305 
L 214.30969 103.967413 
L 215.703297 102.775252 
L 217.096903 107.697577 
L 218.490509 114.073319 
L 219.884116 113.359123 
L 221.277722 107.661674 
L 222.671329 107.879391 
L 224.064935 112.300098 
L 225.458541 121.679961 
L 226.852148 126.380373 
L 228.245754 126.283928 
L 229.639361 124.140866 
L 232.426573 128.547543 
L 233.82018 130.183639 
L 235.213786 131.434128 
L 236.607393 129.68765 
L 238.000999 132.694141 
L 239.394605 136.938278 
L 240.788212 138.460931 
L 242.181818 133.504013 
L 243.575425 126.35864 
L 246.362637 139.657575 
L 247.756244 142.155276 
L 249.14985 142.264523 
L 250.543457 149.197013 
L 251.937063 151.911891 
L 253.330669 153.257854 
L 254.724276 151.878497 
L 256.117882 151.587597 
L 257.511489 152.727683 
L 258.905095 158.411195 
L 261.692308 162.959601 
L 263.085914 159.588014 
L 264.47952 157.385649 
L 265.873127 157.227108 
L 267.266733 155.615131 
L 268.66034 160.351121 
L 270.053946 163.302722 
L 271.447552 167.18824 
L 272.841159 168.252915 
L 274.234765 168.483208 
L 275.628372 164.797805 
L 277.021978 169.087205 
L 278.415584 169.369955 
L 279.809191 171.195154 
L 281.202797 171.745972 
L 283.99001 171.524561 
L 285.383616 173.643897 
L 286.777223 173.774868 
L 288.170829 172.90038 
L 289.564436 170.988224 
L 290.958042 172.387854 
L 292.351648 170.026097 
L 293.745255 172.168004 
L 295.138861 175.200779 
L 296.532468 174.911163 
L 297.926074 174.501058 
L 299.31968 175.226624 
L 300.713287 178.15602 
L 302.106893 178.636487 
L 303.5005 177.930784 
L 306.287712 177.322174 
L 307.681319 177.956504 
L 310.468531 178.226972 
L 311.862138 178.57107 
L 313.255744 178.432743 
L 314.649351 179.07094 
L 316.042957 178.840372 
L 317.436563 179.229577 
L 320.223776 179.229633 
L 321.617383 178.773644 
L 324.404595 179.183761 
L 325.798202 178.486921 
L 327.191808 178.505432 
L 328.585415 179.005396 
L 329.979021 179.207925 
L 334.15984 179.208143 
L 335.553447 178.824056 
L 336.947053 179.118289 
L 338.340659 179.297851 
L 345.308691 179.275646 
L 353.67033 179.297851 
L 413.595405 179.297851 
L 414.989011 179.094452 
L 416.382617 179.297851 
L 467.946054 179.297851 
L 469.33966 178.40904 
L 470.733267 178.774071 
L 472.126873 178.865201 
L 473.52048 179.184132 
L 474.914086 176.73817 
L 476.307692 175.095551 
L 477.701299 176.302621 
L 480.488511 177.363055 
L 481.882118 177.678132 
L 483.275724 177.305277 
L 484.669331 176.631038 
L 486.062937 176.902859 
L 487.456543 178.110025 
L 488.85015 178.703488 
L 490.243756 179.024308 
L 491.637363 178.271041 
L 493.030969 178.615108 
L 494.424575 178.833406 
L 495.818182 177.839252 
L 497.211788 177.99262 
L 498.605395 177.922038 
L 499.999001 176.679715 
L 501.392607 176.776429 
L 502.786214 176.48223 
L 504.17982 174.661965 
L 505.573427 174.069046 
L 506.967033 173.989342 
L 508.360639 174.448562 
L 509.754246 174.63284 
L 511.147852 172.911511 
L 512.541459 174.091112 
L 513.935065 173.620633 
L 515.328671 176.590917 
L 516.722278 174.130848 
L 518.115884 172.898275 
L 519.509491 174.414764 
L 520.903097 175.740689 
L 522.296703 176.270669 
L 523.69031 176.566774 
L 525.083916 175.356915 
L 526.477522 172.010998 
L 527.871129 171.434732 
L 529.264735 170.73141 
L 530.658342 169.677713 
L 532.051948 171.147505 
L 533.445554 167.570815 
L 534.839161 158.463235 
L 536.232767 158.876286 
L 537.626374 163.998099 
L 539.01998 163.316647 
L 540.413586 158.345409 
L 541.807193 155.989998 
L 543.200799 158.326326 
L 544.594406 161.200495 
L 545.988012 161.526974 
L 547.381618 163.489373 
L 548.775225 160.233521 
L 550.168831 160.801936 
L 551.562438 158.920133 
L 552.956044 158.533051 
L 554.34965 159.128613 
L 555.743257 155.38608 
L 557.136863 152.812234 
L 558.53047 151.762608 
L 559.924076 150.989611 
L 561.317682 148.128441 
L 562.711289 147.389446 
L 564.104895 146.1947 
L 565.498501 145.49958 
L 566.892108 142.723742 
L 568.285714 143.287297 
L 569.679321 142.253358 
L 571.072927 144.754955 
L 572.466533 144.22053 
L 573.86014 136.616104 
L 576.647353 132.938938 
L 578.040959 133.057227 
L 579.434565 132.93071 
L 580.828172 133.352707 
L 582.221778 130.47281 
L 583.615385 133.001652 
L 585.008991 131.616753 
L 586.402597 128.155179 
L 587.796204 126.28804 
L 589.18981 123.19514 
L 590.583417 119.452224 
L 591.977023 118.065833 
L 593.370629 120.824181 
L 594.764236 121.013337 
L 596.157842 120.737891 
L 597.551449 117.789314 
L 598.945055 116.556017 
L 600.338661 118.309906 
L 601.732268 114.999046 
L 603.125874 113.309543 
L 604.519481 112.007936 
L 605.913087 109.779371 
L 608.7003 108.227561 
L 610.093906 105.333913 
L 611.487512 103.054318 
L 612.881119 102.40137 
L 614.274725 102.844608 
L 615.668332 101.196973 
L 617.061938 98.318247 
L 619.849151 96.26971 
L 621.242757 92.936445 
L 622.636364 89.981127 
L 622.636364 89.981127 
" style="fill:none;stroke:#1f77b4;stroke-linecap:square;stroke-width:1.5;"/>
   </g>
   <g id="patch_3">
    <path d="M 90 185.367273 
L 90 51.84 
" style="fill:none;stroke:#000000;stroke-linecap:square;stroke-linejoin:miter;stroke-width:0.8;"/>
   </g>
   <g id="patch_4">
    <path d="M 648 185.367273 
L 648 51.84 
" style="fill:none;stroke:#000000;stroke-linecap:square;stroke-linejoin:miter;stroke-width:0.8;"/>
   </g>
   <g id="patch_5">
    <path d="M 90 185.367273 
L 648 185.367273 
" style="fill:none;stroke:#000000;stroke-linecap:square;stroke-linejoin:miter;stroke-width:0.8;"/>
   </g>
   <g id="patch_6">
    <path d="M 90 51.84 
L 648 51.84 
" style="fill:none;stroke:#000000;stroke-linecap:square;stroke-linejoin:miter;stroke-width:0.8;"/>
   </g>
   <g id="text_6">
    <!-- SNWD Mean -->
    <defs>
     <path d="M 53.515625 70.515625 
L 53.515625 60.890625 
Q 47.90625 63.578125 42.921875 64.890625 
Q 37.9375 66.21875 33.296875 66.21875 
Q 25.25 66.21875 20.875 63.09375 
Q 16.5 59.96875 16.5 54.203125 
Q 16.5 49.359375 19.40625 46.890625 
Q 22.3125 44.4375 30.421875 42.921875 
L 36.375 41.703125 
Q 47.40625 39.59375 52.65625 34.296875 
Q 57.90625 29 57.90625 20.125 
Q 57.90625 9.515625 50.796875 4.046875 
Q 43.703125 -1.421875 29.984375 -1.421875 
Q 24.8125 -1.421875 18.96875 -0.25 
Q 13.140625 0.921875 6.890625 3.21875 
L 6.890625 13.375 
Q 12.890625 10.015625 18.65625 8.296875 
Q 24.421875 6.59375 29.984375 6.59375 
Q 38.421875 6.59375 43.015625 9.90625 
Q 47.609375 13.234375 47.609375 19.390625 
Q 47.609375 24.75 44.3125 27.78125 
Q 41.015625 30.8125 33.5 32.328125 
L 27.484375 33.5 
Q 16.453125 35.6875 11.515625 40.375 
Q 6.59375 45.0625 6.59375 53.421875 
Q 6.59375 63.09375 13.40625 68.65625 
Q 20.21875 74.21875 32.171875 74.21875 
Q 37.3125 74.21875 42.625 73.28125 
Q 47.953125 72.359375 53.515625 70.515625 
" id="DejaVuSans-53"/>
     <path d="M 9.8125 72.90625 
L 23.09375 72.90625 
L 55.421875 11.921875 
L 55.421875 72.90625 
L 64.984375 72.90625 
L 64.984375 0 
L 51.703125 0 
L 19.390625 60.984375 
L 19.390625 0 
L 9.8125 0 
z
" id="DejaVuSans-4e"/>
     <path d="M 3.328125 72.90625 
L 13.28125 72.90625 
L 28.609375 11.28125 
L 43.890625 72.90625 
L 54.984375 72.90625 
L 70.3125 11.28125 
L 85.59375 72.90625 
L 95.609375 72.90625 
L 77.296875 0 
L 64.890625 0 
L 49.515625 63.28125 
L 33.984375 0 
L 21.578125 0 
z
" id="DejaVuSans-57"/>
     <path d="M 19.671875 64.796875 
L 19.671875 8.109375 
L 31.59375 8.109375 
Q 46.6875 8.109375 53.6875 14.9375 
Q 60.6875 21.78125 60.6875 36.53125 
Q 60.6875 51.171875 53.6875 57.984375 
Q 46.6875 64.796875 31.59375 64.796875 
z
M 9.8125 72.90625 
L 30.078125 72.90625 
Q 51.265625 72.90625 61.171875 64.09375 
Q 71.09375 55.28125 71.09375 36.53125 
Q 71.09375 17.671875 61.125 8.828125 
Q 51.171875 0 30.078125 0 
L 9.8125 0 
z
" id="DejaVuSans-44"/>
     <path id="DejaVuSans-20"/>
     <path d="M 9.8125 72.90625 
L 24.515625 72.90625 
L 43.109375 23.296875 
L 61.8125 72.90625 
L 76.515625 72.90625 
L 76.515625 0 
L 66.890625 0 
L 66.890625 64.015625 
L 48.09375 14.015625 
L 38.1875 14.015625 
L 19.390625 64.015625 
L 19.390625 0 
L 9.8125 0 
z
" id="DejaVuSans-4d"/>
     <path d="M 56.203125 29.59375 
L 56.203125 25.203125 
L 14.890625 25.203125 
Q 15.484375 15.921875 20.484375 11.0625 
Q 25.484375 6.203125 34.421875 6.203125 
Q 39.59375 6.203125 44.453125 7.46875 
Q 49.3125 8.734375 54.109375 11.28125 
L 54.109375 2.78125 
Q 49.265625 0.734375 44.1875 -0.34375 
Q 39.109375 -1.421875 33.890625 -1.421875 
Q 20.796875 -1.421875 13.15625 6.1875 
Q 5.515625 13.8125 5.515625 26.8125 
Q 5.515625 40.234375 12.765625 48.109375 
Q 20.015625 56 32.328125 56 
Q 43.359375 56 49.78125 48.890625 
Q 56.203125 41.796875 56.203125 29.59375 
M 47.21875 32.234375 
Q 47.125 39.59375 43.09375 43.984375 
Q 39.0625 48.390625 32.421875 48.390625 
Q 24.90625 48.390625 20.390625 44.140625 
Q 15.875 39.890625 15.1875 32.171875 
z
" id="DejaVuSans-65"/>
     <path d="M 34.28125 27.484375 
Q 23.390625 27.484375 19.1875 25 
Q 14.984375 22.515625 14.984375 16.5 
Q 14.984375 11.71875 18.140625 8.90625 
Q 21.296875 6.109375 26.703125 6.109375 
Q 34.1875 6.109375 38.703125 11.40625 
Q 43.21875 16.703125 43.21875 25.484375 
L 43.21875 27.484375 
z
M 52.203125 31.203125 
L 52.203125 0 
L 43.21875 0 
L 43.21875 8.296875 
Q 40.140625 3.328125 35.546875 0.953125 
Q 30.953125 -1.421875 24.3125 -1.421875 
Q 15.921875 -1.421875 10.953125 3.296875 
Q 6 8.015625 6 15.921875 
Q 6 25.140625 12.171875 29.828125 
Q 18.359375 34.515625 30.609375 34.515625 
L 43.21875 34.515625 
L 43.21875 35.40625 
Q 43.21875 41.609375 39.140625 45 
Q 35.0625 48.390625 27.6875 48.390625 
Q 23 48.390625 18.546875 47.265625 
Q 14.109375 46.140625 10.015625 43.890625 
L 10.015625 52.203125 
Q 14.9375 54.109375 19.578125 55.046875 
Q 24.21875 56 28.609375 56 
Q 40.484375 56 46.34375 49.84375 
Q 52.203125 43.703125 52.203125 31.203125 
" id="DejaVuSans-61"/>
     <path d="M 54.890625 33.015625 
L 54.890625 0 
L 45.90625 0 
L 45.90625 32.71875 
Q 45.90625 40.484375 42.875 44.328125 
Q 39.84375 48.1875 33.796875 48.1875 
Q 26.515625 48.1875 22.3125 43.546875 
Q 18.109375 38.921875 18.109375 30.90625 
L 18.109375 0 
L 9.078125 0 
L 9.078125 54.6875 
L 18.109375 54.6875 
L 18.109375 46.1875 
Q 21.34375 51.125 25.703125 53.5625 
Q 30.078125 56 35.796875 56 
Q 45.21875 56 50.046875 50.171875 
Q 54.890625 44.34375 54.890625 33.015625 
" id="DejaVuSans-6e"/>
    </defs>
    <g transform="translate(331.894688 45.84)scale(0.12 -0.12)">
     <use xlink:href="#DejaVuSans-53"/>
     <use x="63.476562" xlink:href="#DejaVuSans-4e"/>
     <use x="138.28125" xlink:href="#DejaVuSans-57"/>
     <use x="237.158203" xlink:href="#DejaVuSans-44"/>
     <use x="314.160156" xlink:href="#DejaVuSans-20"/>
     <use x="345.947266" xlink:href="#DejaVuSans-4d"/>
     <use x="432.226562" xlink:href="#DejaVuSans-65"/>
     <use x="493.75" xlink:href="#DejaVuSans-61"/>
     <use x="555.029297" xlink:href="#DejaVuSans-6e"/>
    </g>
   </g>
   <g id="legend_1">
    <g id="patch_7">
     <path d="M 581.753125 74.518125 
L 641 74.518125 
Q 643 74.518125 643 72.518125 
L 643 58.84 
Q 643 56.84 641 56.84 
L 581.753125 56.84 
Q 579.753125 56.84 579.753125 58.84 
L 579.753125 72.518125 
Q 579.753125 74.518125 581.753125 74.518125 
z
" style="fill:#ffffff;opacity:0.8;stroke:#cccccc;stroke-linejoin:miter;"/>
    </g>
    <g id="line2d_22">
     <path d="M 583.753125 64.938437 
L 603.753125 64.938437 
" style="fill:none;stroke:#1f77b4;stroke-linecap:square;stroke-width:1.5;"/>
    </g>
    <g id="line2d_23"/>
    <g id="text_7">
     <!-- Mean -->
     <g transform="translate(611.753125 68.438437)scale(0.1 -0.1)">
      <use xlink:href="#DejaVuSans-4d"/>
      <use x="86.279297" xlink:href="#DejaVuSans-65"/>
      <use x="147.802734" xlink:href="#DejaVuSans-61"/>
      <use x="209.082031" xlink:href="#DejaVuSans-6e"/>
     </g>
    </g>
   </g>
  </g>
  <g id="axes_2">
   <g id="patch_8">
    <path d="M 90 345.6 
L 648 345.6 
L 648 212.072727 
L 90 212.072727 
z
" style="fill:#ffffff;"/>
   </g>
   <g id="matplotlib.axis_3">
    <g id="xtick_6">
     <g id="line2d_24">
      <path clip-path="url(#pa7af2c7152)" d="M 115.363636 345.6 
L 115.363636 212.072727 
" style="fill:none;stroke:#b0b0b0;stroke-linecap:square;stroke-width:0.8;"/>
     </g>
     <g id="line2d_25">
      <g>
       <use style="stroke:#000000;stroke-width:0.8;" x="115.363636" xlink:href="#m9c5574c1ed" y="345.6"/>
      </g>
     </g>
     <g id="text_8">
      <!-- Jan -->
      <defs>
       <path d="M 9.8125 72.90625 
L 19.671875 72.90625 
L 19.671875 5.078125 
Q 19.671875 -8.109375 14.671875 -14.0625 
Q 9.671875 -20.015625 -1.421875 -20.015625 
L -5.171875 -20.015625 
L -5.171875 -11.71875 
L -2.09375 -11.71875 
Q 4.4375 -11.71875 7.125 -8.046875 
Q 9.8125 -4.390625 9.8125 5.078125 
z
" id="DejaVuSans-4a"/>
      </defs>
      <g transform="translate(100.97347 366.888252)rotate(-30)scale(0.1 -0.1)">
       <use xlink:href="#DejaVuSans-4a"/>
       <use x="29.492188" xlink:href="#DejaVuSans-61"/>
       <use x="90.771484" xlink:href="#DejaVuSans-6e"/>
      </g>
     </g>
    </g>
    <g id="xtick_7">
     <g id="line2d_26">
      <path clip-path="url(#pa7af2c7152)" d="M 240.788212 345.6 
L 240.788212 212.072727 
" style="fill:none;stroke:#b0b0b0;stroke-linecap:square;stroke-width:0.8;"/>
     </g>
     <g id="line2d_27">
      <g>
       <use style="stroke:#000000;stroke-width:0.8;" x="240.788212" xlink:href="#m9c5574c1ed" y="345.6"/>
      </g>
     </g>
     <g id="text_9">
      <!-- Apr -->
      <defs>
       <path d="M 34.1875 63.1875 
L 20.796875 26.90625 
L 47.609375 26.90625 
z
M 28.609375 72.90625 
L 39.796875 72.90625 
L 67.578125 0 
L 57.328125 0 
L 50.6875 18.703125 
L 17.828125 18.703125 
L 11.1875 0 
L 0.78125 0 
z
" id="DejaVuSans-41"/>
       <path d="M 18.109375 8.203125 
L 18.109375 -20.796875 
L 9.078125 -20.796875 
L 9.078125 54.6875 
L 18.109375 54.6875 
L 18.109375 46.390625 
Q 20.953125 51.265625 25.265625 53.625 
Q 29.59375 56 35.59375 56 
Q 45.5625 56 51.78125 48.09375 
Q 58.015625 40.1875 58.015625 27.296875 
Q 58.015625 14.40625 51.78125 6.484375 
Q 45.5625 -1.421875 35.59375 -1.421875 
Q 29.59375 -1.421875 25.265625 0.953125 
Q 20.953125 3.328125 18.109375 8.203125 
M 48.6875 27.296875 
Q 48.6875 37.203125 44.609375 42.84375 
Q 40.53125 48.484375 33.40625 48.484375 
Q 26.265625 48.484375 22.1875 42.84375 
Q 18.109375 37.203125 18.109375 27.296875 
Q 18.109375 17.390625 22.1875 11.75 
Q 26.265625 6.109375 33.40625 6.109375 
Q 40.53125 6.109375 44.609375 11.75 
Q 48.6875 17.390625 48.6875 27.296875 
" id="DejaVuSans-70"/>
       <path d="M 41.109375 46.296875 
Q 39.59375 47.171875 37.8125 47.578125 
Q 36.03125 48 33.890625 48 
Q 26.265625 48 22.1875 43.046875 
Q 18.109375 38.09375 18.109375 28.8125 
L 18.109375 0 
L 9.078125 0 
L 9.078125 54.6875 
L 18.109375 54.6875 
L 18.109375 46.1875 
Q 20.953125 51.171875 25.484375 53.578125 
Q 30.03125 56 36.53125 56 
Q 37.453125 56 38.578125 55.875 
Q 39.703125 55.765625 41.0625 55.515625 
z
" id="DejaVuSans-72"/>
      </defs>
      <g transform="translate(224.766129 367.83044)rotate(-30)scale(0.1 -0.1)">
       <use xlink:href="#DejaVuSans-41"/>
       <use x="68.408203" xlink:href="#DejaVuSans-70"/>
       <use x="131.884766" xlink:href="#DejaVuSans-72"/>
      </g>
     </g>
    </g>
    <g id="xtick_8">
     <g id="line2d_28">
      <path clip-path="url(#pa7af2c7152)" d="M 367.606394 345.6 
L 367.606394 212.072727 
" style="fill:none;stroke:#b0b0b0;stroke-linecap:square;stroke-width:0.8;"/>
     </g>
     <g id="line2d_29">
      <g>
       <use style="stroke:#000000;stroke-width:0.8;" x="367.606394" xlink:href="#m9c5574c1ed" y="345.6"/>
      </g>
     </g>
     <g id="text_10">
      <!-- Jul -->
      <defs>
       <path d="M 8.5 21.578125 
L 8.5 54.6875 
L 17.484375 54.6875 
L 17.484375 21.921875 
Q 17.484375 14.15625 20.5 10.265625 
Q 23.53125 6.390625 29.59375 6.390625 
Q 36.859375 6.390625 41.078125 11.03125 
Q 45.3125 15.671875 45.3125 23.6875 
L 45.3125 54.6875 
L 54.296875 54.6875 
L 54.296875 0 
L 45.3125 0 
L 45.3125 8.40625 
Q 42.046875 3.421875 37.71875 1 
Q 33.40625 -1.421875 27.6875 -1.421875 
Q 18.265625 -1.421875 13.375 4.4375 
Q 8.5 10.296875 8.5 21.578125 
M 31.109375 56 
z
" id="DejaVuSans-75"/>
       <path d="M 9.421875 75.984375 
L 18.40625 75.984375 
L 18.40625 0 
L 9.421875 0 
z
" id="DejaVuSans-6c"/>
      </defs>
      <g transform="translate(356.117412 365.213252)rotate(-30)scale(0.1 -0.1)">
       <use xlink:href="#DejaVuSans-4a"/>
       <use x="29.492188" xlink:href="#DejaVuSans-75"/>
       <use x="92.871094" xlink:href="#DejaVuSans-6c"/>
      </g>
     </g>
    </g>
    <g id="xtick_9">
     <g id="line2d_30">
      <path clip-path="url(#pa7af2c7152)" d="M 495.818182 345.6 
L 495.818182 212.072727 
" style="fill:none;stroke:#b0b0b0;stroke-linecap:square;stroke-width:0.8;"/>
     </g>
     <g id="line2d_31">
      <g>
       <use style="stroke:#000000;stroke-width:0.8;" x="495.818182" xlink:href="#m9c5574c1ed" y="345.6"/>
      </g>
     </g>
     <g id="text_11">
      <!-- Oct -->
      <defs>
       <path d="M 39.40625 66.21875 
Q 28.65625 66.21875 22.328125 58.203125 
Q 16.015625 50.203125 16.015625 36.375 
Q 16.015625 22.609375 22.328125 14.59375 
Q 28.65625 6.59375 39.40625 6.59375 
Q 50.140625 6.59375 56.421875 14.59375 
Q 62.703125 22.609375 62.703125 36.375 
Q 62.703125 50.203125 56.421875 58.203125 
Q 50.140625 66.21875 39.40625 66.21875 
M 39.40625 74.21875 
Q 54.734375 74.21875 63.90625 63.9375 
Q 73.09375 53.65625 73.09375 36.375 
Q 73.09375 19.140625 63.90625 8.859375 
Q 54.734375 -1.421875 39.40625 -1.421875 
Q 24.03125 -1.421875 14.8125 8.828125 
Q 5.609375 19.09375 5.609375 36.375 
Q 5.609375 53.65625 14.8125 63.9375 
Q 24.03125 74.21875 39.40625 74.21875 
" id="DejaVuSans-4f"/>
       <path d="M 48.78125 52.59375 
L 48.78125 44.1875 
Q 44.96875 46.296875 41.140625 47.34375 
Q 37.3125 48.390625 33.40625 48.390625 
Q 24.65625 48.390625 19.8125 42.84375 
Q 14.984375 37.3125 14.984375 27.296875 
Q 14.984375 17.28125 19.8125 11.734375 
Q 24.65625 6.203125 33.40625 6.203125 
Q 37.3125 6.203125 41.140625 7.25 
Q 44.96875 8.296875 48.78125 10.40625 
L 48.78125 2.09375 
Q 45.015625 0.34375 40.984375 -0.53125 
Q 36.96875 -1.421875 32.421875 -1.421875 
Q 20.0625 -1.421875 12.78125 6.34375 
Q 5.515625 14.109375 5.515625 27.296875 
Q 5.515625 40.671875 12.859375 48.328125 
Q 20.21875 56 33.015625 56 
Q 37.15625 56 41.109375 55.140625 
Q 45.0625 54.296875 48.78125 52.59375 
" id="DejaVuSans-63"/>
       <path d="M 18.3125 70.21875 
L 18.3125 54.6875 
L 36.8125 54.6875 
L 36.8125 47.703125 
L 18.3125 47.703125 
L 18.3125 18.015625 
Q 18.3125 11.328125 20.140625 9.421875 
Q 21.96875 7.515625 27.59375 7.515625 
L 36.8125 7.515625 
L 36.8125 0 
L 27.59375 0 
Q 17.1875 0 13.234375 3.875 
Q 9.28125 7.765625 9.28125 18.015625 
L 9.28125 47.703125 
L 2.6875 47.703125 
L 2.6875 54.6875 
L 9.28125 54.6875 
L 9.28125 70.21875 
z
" id="DejaVuSans-74"/>
      </defs>
      <g transform="translate(479.804218 367.825752)rotate(-30)scale(0.1 -0.1)">
       <use xlink:href="#DejaVuSans-4f"/>
       <use x="78.710938" xlink:href="#DejaVuSans-63"/>
       <use x="133.691406" xlink:href="#DejaVuSans-74"/>
      </g>
     </g>
    </g>
    <g id="xtick_10">
     <g id="line2d_32">
      <path clip-path="url(#pa7af2c7152)" d="M 624.02997 345.6 
L 624.02997 212.072727 
" style="fill:none;stroke:#b0b0b0;stroke-linecap:square;stroke-width:0.8;"/>
     </g>
     <g id="line2d_33">
      <g>
       <use style="stroke:#000000;stroke-width:0.8;" x="624.02997" xlink:href="#m9c5574c1ed" y="345.6"/>
      </g>
     </g>
     <g id="text_12">
      <!-- Jan -->
      <g transform="translate(609.639803 366.888252)rotate(-30)scale(0.1 -0.1)">
       <use xlink:href="#DejaVuSans-4a"/>
       <use x="29.492188" xlink:href="#DejaVuSans-61"/>
       <use x="90.771484" xlink:href="#DejaVuSans-6e"/>
      </g>
     </g>
    </g>
   </g>
   <g id="matplotlib.axis_4">
    <g id="ytick_6">
     <g id="line2d_34">
      <path clip-path="url(#pa7af2c7152)" d="M 90 314.28556 
L 648 314.28556 
" style="fill:none;stroke:#b0b0b0;stroke-linecap:square;stroke-width:0.8;"/>
     </g>
     <g id="line2d_35">
      <g>
       <use style="stroke:#000000;stroke-width:0.8;" x="90" xlink:href="#m79f6d1fd27" y="314.28556"/>
      </g>
     </g>
     <g id="text_13">
      <!-- −0.1 -->
      <defs>
       <path d="M 10.59375 35.5 
L 73.1875 35.5 
L 73.1875 27.203125 
L 10.59375 27.203125 
z
" id="DejaVuSans-2212"/>
       <path d="M 10.6875 12.40625 
L 21 12.40625 
L 21 0 
L 10.6875 0 
z
" id="DejaVuSans-2e"/>
      </defs>
      <g transform="translate(58.717187 318.084779)scale(0.1 -0.1)">
       <use xlink:href="#DejaVuSans-2212"/>
       <use x="83.789062" xlink:href="#DejaVuSans-30"/>
       <use x="147.412109" xlink:href="#DejaVuSans-2e"/>
       <use x="179.199219" xlink:href="#DejaVuSans-31"/>
      </g>
     </g>
    </g>
    <g id="ytick_7">
     <g id="line2d_36">
      <path clip-path="url(#pa7af2c7152)" d="M 90 278.439438 
L 648 278.439438 
" style="fill:none;stroke:#b0b0b0;stroke-linecap:square;stroke-width:0.8;"/>
     </g>
     <g id="line2d_37">
      <g>
       <use style="stroke:#000000;stroke-width:0.8;" x="90" xlink:href="#m79f6d1fd27" y="278.439438"/>
      </g>
     </g>
     <g id="text_14">
      <!-- 0.0 -->
      <g transform="translate(67.096875 282.238657)scale(0.1 -0.1)">
       <use xlink:href="#DejaVuSans-30"/>
       <use x="63.623047" xlink:href="#DejaVuSans-2e"/>
       <use x="95.410156" xlink:href="#DejaVuSans-30"/>
      </g>
     </g>
    </g>
    <g id="ytick_8">
     <g id="line2d_38">
      <path clip-path="url(#pa7af2c7152)" d="M 90 242.593316 
L 648 242.593316 
" style="fill:none;stroke:#b0b0b0;stroke-linecap:square;stroke-width:0.8;"/>
     </g>
     <g id="line2d_39">
      <g>
       <use style="stroke:#000000;stroke-width:0.8;" x="90" xlink:href="#m79f6d1fd27" y="242.593316"/>
      </g>
     </g>
     <g id="text_15">
      <!-- 0.1 -->
      <g transform="translate(67.096875 246.392534)scale(0.1 -0.1)">
       <use xlink:href="#DejaVuSans-30"/>
       <use x="63.623047" xlink:href="#DejaVuSans-2e"/>
       <use x="95.410156" xlink:href="#DejaVuSans-31"/>
      </g>
     </g>
    </g>
   </g>
   <g id="line2d_40">
    <path clip-path="url(#pa7af2c7152)" d="M 115.363636 255.942532 
L 116.757243 253.872694 
L 118.150849 252.775562 
L 119.544456 250.831321 
L 120.938062 250.249696 
L 122.331668 248.931109 
L 123.725275 250.036709 
L 126.512488 247.510486 
L 127.906094 246.406311 
L 129.2997 245.637346 
L 130.693307 245.223336 
L 132.086913 244.233218 
L 133.480519 243.576984 
L 134.874126 243.398383 
L 136.267732 242.23068 
L 137.661339 244.874522 
L 139.054945 242.640529 
L 140.448551 242.864369 
L 141.842158 241.856514 
L 143.235764 242.425431 
L 144.629371 241.694393 
L 146.022977 239.686312 
L 147.416583 239.072968 
L 148.81019 241.558166 
L 150.203796 242.120928 
L 151.597403 241.373252 
L 152.991009 241.297539 
L 154.384615 241.407262 
L 155.778222 241.164873 
L 157.171828 243.269956 
L 158.565435 242.353524 
L 159.959041 242.998988 
L 161.352647 241.567299 
L 162.746254 242.281712 
L 164.13986 242.440179 
L 165.533467 241.434878 
L 166.927073 241.134689 
L 168.320679 241.106299 
L 171.107892 239.252087 
L 172.501499 236.90563 
L 173.895105 236.613125 
L 175.288711 237.372698 
L 176.682318 239.040859 
L 178.075924 237.368962 
L 179.46953 236.616505 
L 180.863137 236.310416 
L 182.256743 237.501076 
L 183.65035 236.29955 
L 185.043956 238.546669 
L 186.437562 237.813626 
L 187.831169 234.943973 
L 189.224775 235.706401 
L 190.618382 234.61291 
L 192.011988 235.053876 
L 193.405594 234.863701 
L 194.799201 235.153349 
L 196.192807 237.807527 
L 197.586414 238.168499 
L 198.98002 239.51988 
L 200.373626 240.079146 
L 201.767233 238.106696 
L 203.160839 238.385019 
L 204.554446 238.914912 
L 205.948052 240.383832 
L 207.341658 238.618797 
L 208.735265 240.01749 
L 210.128871 241.07564 
L 211.522478 241.334223 
L 212.916084 242.995804 
L 215.703297 245.342362 
L 217.096903 243.997202 
L 218.490509 245.886606 
L 219.884116 245.705663 
L 221.277722 247.569926 
L 222.671329 246.141444 
L 224.064935 246.908813 
L 225.458541 250.247679 
L 226.852148 249.477574 
L 228.245754 250.120453 
L 229.639361 251.275707 
L 231.032967 250.307235 
L 232.426573 251.547229 
L 233.82018 251.82821 
L 235.213786 253.001022 
L 236.607393 251.551795 
L 238.000999 253.637003 
L 239.394605 255.216128 
L 240.788212 253.81869 
L 242.181818 255.346277 
L 243.575425 254.610845 
L 244.969031 254.508855 
L 246.362637 256.10345 
L 247.756244 256.465235 
L 249.14985 256.612053 
L 251.937063 260.175302 
L 253.330669 261.491559 
L 254.724276 261.026009 
L 256.117882 260.710324 
L 257.511489 260.743183 
L 258.905095 263.297751 
L 260.298701 263.523906 
L 261.692308 265.578802 
L 263.085914 265.875115 
L 264.47952 267.614046 
L 265.873127 267.43946 
L 267.266733 267.390648 
L 268.66034 268.329577 
L 270.053946 269.828466 
L 271.447552 271.087086 
L 272.841159 272.910393 
L 274.234765 272.812336 
L 275.628372 272.96495 
L 277.021978 273.336395 
L 278.415584 273.996363 
L 279.809191 274.529825 
L 281.202797 275.268613 
L 282.596404 275.649247 
L 283.99001 275.262907 
L 286.777223 276.666438 
L 288.170829 276.095761 
L 289.564436 274.940221 
L 290.958042 274.99678 
L 292.351648 275.647637 
L 293.745255 275.295347 
L 295.138861 276.379745 
L 296.532468 276.817283 
L 297.926074 276.796161 
L 299.31968 277.282695 
L 300.713287 277.898183 
L 304.894106 278.25436 
L 306.287712 278.00437 
L 307.681319 278.054054 
L 310.468531 278.292308 
L 311.862138 278.461113 
L 314.649351 278.446652 
L 316.042957 278.296355 
L 317.436563 278.423751 
L 320.223776 278.40885 
L 323.010989 278.129506 
L 324.404595 278.362336 
L 325.798202 278.443693 
L 327.191808 278.382066 
L 329.979021 278.445197 
L 334.15984 278.408743 
L 335.553447 278.306485 
L 339.734266 278.422605 
L 343.915085 278.424177 
L 353.67033 278.439438 
L 456.797203 278.439438 
L 458.190809 278.299792 
L 459.584416 278.439438 
L 473.52048 278.441572 
L 474.914086 278.239453 
L 476.307692 277.775643 
L 477.701299 278.450973 
L 479.094905 277.888753 
L 481.882118 278.052172 
L 483.275724 278.318931 
L 486.062937 278.24111 
L 487.456543 278.422976 
L 490.243756 278.410344 
L 491.637363 278.482724 
L 498.605395 278.216191 
L 499.999001 277.993163 
L 501.392607 278.44289 
L 505.573427 277.811332 
L 506.967033 277.73131 
L 509.754246 278.324949 
L 511.147852 278.433202 
L 512.541459 278.218342 
L 513.935065 277.730792 
L 515.328671 278.220246 
L 516.722278 278.27417 
L 518.115884 277.819417 
L 519.509491 277.761185 
L 520.903097 277.902007 
L 522.296703 277.545932 
L 523.69031 277.635167 
L 525.083916 278.405432 
L 526.477522 278.487478 
L 529.264735 278.052665 
L 530.658342 277.601942 
L 532.051948 277.279122 
L 533.445554 277.619734 
L 534.839161 277.797922 
L 536.232767 277.628867 
L 537.626374 278.099923 
L 539.01998 277.993409 
L 540.413586 277.184213 
L 541.807193 276.87385 
L 543.200799 276.948958 
L 544.594406 277.399175 
L 547.381618 277.170037 
L 548.775225 276.65596 
L 550.168831 275.766222 
L 551.562438 275.233864 
L 552.956044 274.568481 
L 554.34965 274.778348 
L 555.743257 274.58134 
L 557.136863 273.788847 
L 558.53047 273.695111 
L 559.924076 274.073089 
L 561.317682 273.934242 
L 562.711289 273.325186 
L 564.104895 273.475401 
L 566.892108 272.503348 
L 568.285714 272.674259 
L 569.679321 272.331103 
L 571.072927 271.791116 
L 572.466533 272.176797 
L 573.86014 270.302703 
L 575.253746 271.006911 
L 576.647353 270.326973 
L 579.434565 269.360606 
L 580.828172 268.568552 
L 582.221778 268.187977 
L 583.615385 268.577783 
L 585.008991 268.055154 
L 586.402597 267.214676 
L 589.18981 266.626932 
L 590.583417 266.488132 
L 591.977023 266.849813 
L 593.370629 267.021719 
L 594.764236 266.656702 
L 596.157842 265.888312 
L 597.551449 265.952067 
L 598.945055 266.319136 
L 600.338661 266.383512 
L 603.125874 265.458694 
L 604.519481 264.681652 
L 605.913087 265.012654 
L 607.306693 264.917898 
L 608.7003 263.737322 
L 610.093906 263.524015 
L 611.487512 262.336907 
L 612.881119 263.211446 
L 614.274725 265.039367 
L 615.668332 263.499232 
L 618.455544 261.582624 
L 619.849151 261.287881 
L 621.242757 260.442608 
L 622.636364 261.427401 
L 622.636364 261.427401 
" style="fill:none;stroke:#1f77b4;stroke-linecap:square;stroke-width:1.5;"/>
   </g>
   <g id="line2d_41">
    <path clip-path="url(#pa7af2c7152)" d="M 115.363636 277.416124 
L 116.757243 277.274663 
L 118.150849 274.182845 
L 119.544456 273.809238 
L 120.938062 273.957354 
L 122.331668 274.632575 
L 123.725275 273.061351 
L 125.118881 275.623992 
L 126.512488 275.883862 
L 127.906094 273.450393 
L 129.2997 272.448591 
L 130.693307 271.244001 
L 132.086913 271.527727 
L 133.480519 272.403472 
L 134.874126 271.366551 
L 136.267732 269.618017 
L 137.661339 270.701287 
L 139.054945 271.201972 
L 140.448551 273.283556 
L 141.842158 274.838396 
L 143.235764 277.00401 
L 144.629371 277.32248 
L 147.416583 272.147746 
L 148.81019 267.445818 
L 150.203796 266.73125 
L 152.991009 269.227188 
L 154.384615 269.59798 
L 155.778222 267.097872 
L 158.565435 266.026644 
L 159.959041 264.227114 
L 161.352647 264.911794 
L 162.746254 264.157146 
L 164.13986 264.678639 
L 165.533467 264.820256 
L 166.927073 266.470203 
L 168.320679 264.547979 
L 169.714286 264.966667 
L 171.107892 266.724353 
L 172.501499 271.052259 
L 173.895105 271.283558 
L 175.288711 272.715235 
L 176.682318 273.813456 
L 178.075924 269.580219 
L 179.46953 275.075633 
L 180.863137 276.123475 
L 182.256743 275.965313 
L 183.65035 279.09174 
L 185.043956 279.939329 
L 186.437562 280.069387 
L 187.831169 285.850867 
L 189.224775 284.940488 
L 190.618382 286.784131 
L 192.011988 287.150323 
L 193.405594 288.518062 
L 194.799201 289.168162 
L 196.192807 288.452484 
L 197.586414 286.906817 
L 198.98002 291.015428 
L 200.373626 291.992007 
L 201.767233 296.20664 
L 203.160839 296.971263 
L 204.554446 299.206033 
L 205.948052 297.864515 
L 208.735265 297.855605 
L 210.128871 300.448291 
L 211.522478 304.487322 
L 212.916084 307.483233 
L 214.30969 307.651504 
L 215.703297 306.20502 
L 217.096903 305.582736 
L 218.490509 304.350482 
L 219.884116 305.03075 
L 221.277722 306.681727 
L 222.671329 305.494513 
L 224.064935 306.196649 
L 226.852148 309.696489 
L 228.245754 308.100568 
L 229.639361 310.599351 
L 231.032967 309.676744 
L 232.426573 308.413709 
L 233.82018 310.656864 
L 235.213786 308.554656 
L 236.607393 307.188677 
L 238.000999 306.86365 
L 239.394605 300.398803 
L 240.788212 307.596138 
L 243.575425 312.702322 
L 244.969031 307.915439 
L 246.362637 307.616679 
L 247.756244 303.884826 
L 249.14985 304.548865 
L 250.543457 304.866142 
L 251.937063 304.190692 
L 253.330669 305.403912 
L 254.724276 303.956566 
L 256.117882 304.165096 
L 257.511489 302.703648 
L 258.905095 296.06546 
L 260.298701 300.248513 
L 261.692308 298.705392 
L 263.085914 297.804555 
L 264.47952 297.189649 
L 267.266733 295.286192 
L 268.66034 293.200166 
L 270.053946 292.237291 
L 272.841159 285.599917 
L 274.234765 286.247663 
L 275.628372 283.785296 
L 277.021978 283.765806 
L 278.415584 283.495486 
L 279.809191 282.026152 
L 281.202797 280.983461 
L 282.596404 281.738136 
L 283.99001 281.166359 
L 285.383616 280.929759 
L 286.777223 279.196378 
L 288.170829 274.643021 
L 289.564436 268.22296 
L 290.958042 264.677233 
L 292.351648 266.606476 
L 293.745255 268.999109 
L 295.138861 271.091029 
L 296.532468 272.320122 
L 297.926074 272.609097 
L 299.31968 273.662434 
L 300.713287 275.493725 
L 302.106893 276.605332 
L 303.5005 277.573615 
L 304.894106 276.222189 
L 306.287712 275.476738 
L 307.681319 276.697852 
L 309.074925 278.275733 
L 310.468531 278.226495 
L 311.862138 278.323729 
L 313.255744 278.566455 
L 314.649351 278.464356 
L 316.042957 278.843598 
L 317.436563 278.458363 
L 320.223776 278.385694 
L 321.617383 278.121091 
L 324.404595 278.393144 
L 325.798202 278.367597 
L 327.191808 278.670383 
L 328.585415 278.507068 
L 334.15984 278.387246 
L 335.553447 278.140985 
L 336.947053 278.230643 
L 338.340659 278.439438 
L 341.127872 278.297594 
L 343.915085 278.470263 
L 349.48951 278.439438 
L 413.595405 278.439438 
L 414.989011 278.048307 
L 416.382617 278.439438 
L 470.733267 278.383054 
L 472.126873 278.002573 
L 473.52048 278.307766 
L 474.914086 279.387652 
L 476.307692 280.097404 
L 477.701299 278.029047 
L 479.094905 277.888772 
L 480.488511 277.968078 
L 481.882118 279.210184 
L 483.275724 278.182854 
L 484.669331 277.536683 
L 486.062937 277.450826 
L 488.85015 278.315498 
L 490.243756 278.335767 
L 491.637363 278.056582 
L 493.030969 278.135016 
L 494.424575 277.949993 
L 495.818182 278.291962 
L 497.211788 278.303324 
L 498.605395 278.467004 
L 499.999001 279.232695 
L 501.392607 278.607957 
L 502.786214 278.820265 
L 504.17982 278.65285 
L 505.573427 276.678394 
L 506.967033 276.105805 
L 509.754246 278.650491 
L 511.147852 279.444971 
L 512.541459 279.053685 
L 513.935065 278.524702 
L 515.328671 279.311972 
L 516.722278 279.755994 
L 518.115884 279.466604 
L 519.509491 279.018588 
L 520.903097 277.901431 
L 522.296703 277.22391 
L 523.69031 276.826894 
L 525.083916 277.880159 
L 526.477522 278.235041 
L 527.871129 277.399029 
L 529.264735 277.203596 
L 530.658342 278.75089 
L 532.051948 278.558003 
L 533.445554 277.251169 
L 534.839161 275.216977 
L 537.626374 275.350743 
L 539.01998 274.12142 
L 540.413586 271.285535 
L 541.807193 271.712928 
L 543.200799 271.095099 
L 544.594406 271.519364 
L 545.988012 272.483344 
L 547.381618 272.849221 
L 548.775225 272.036182 
L 550.168831 271.372122 
L 551.562438 267.647877 
L 552.956044 265.97321 
L 554.34965 264.823652 
L 555.743257 265.216853 
L 557.136863 263.032206 
L 558.53047 264.22717 
L 559.924076 263.735871 
L 561.317682 264.515115 
L 562.711289 264.269298 
L 564.104895 266.138874 
L 565.498501 262.834624 
L 566.892108 256.851248 
L 568.285714 255.124763 
L 569.679321 250.757874 
L 571.072927 251.100731 
L 572.466533 251.950319 
L 573.86014 248.968609 
L 575.253746 247.27455 
L 576.647353 247.505227 
L 578.040959 246.237242 
L 579.434565 245.984746 
L 580.828172 243.369695 
L 582.221778 240.058455 
L 583.615385 241.777839 
L 585.008991 240.368466 
L 586.402597 237.293936 
L 589.18981 235.933236 
L 590.583417 234.131315 
L 591.977023 231.756964 
L 593.370629 231.923054 
L 594.764236 230.983487 
L 596.157842 229.106223 
L 597.551449 228.584165 
L 598.945055 228.951386 
L 600.338661 229.029892 
L 601.732268 230.278312 
L 603.125874 228.079515 
L 604.519481 226.519815 
L 605.913087 221.917219 
L 607.306693 223.021947 
L 608.7003 222.06452 
L 611.487512 222.363481 
L 612.881119 223.200831 
L 614.274725 219.919731 
L 615.668332 221.463806 
L 617.061938 220.84234 
L 618.455544 219.963797 
L 619.849151 218.603437 
L 621.242757 218.142149 
L 622.636364 221.049407 
L 622.636364 221.049407 
" style="fill:none;stroke:#ff7f0e;stroke-linecap:square;stroke-width:1.5;"/>
   </g>
   <g id="line2d_42">
    <path clip-path="url(#pa7af2c7152)" d="M 115.363636 300.279976 
L 116.757243 302.440688 
L 118.150849 301.525748 
L 119.544456 301.310755 
L 120.938062 303.402776 
L 123.725275 303.973783 
L 125.118881 302.762435 
L 126.512488 306.159105 
L 127.906094 308.390189 
L 129.2997 308.888 
L 130.693307 306.394194 
L 132.086913 307.180508 
L 133.480519 306.415894 
L 134.874126 307.270153 
L 136.267732 306.999891 
L 137.661339 309.837495 
L 140.448551 304.313115 
L 141.842158 305.923924 
L 143.235764 304.705491 
L 146.022977 309.241586 
L 147.416583 308.829798 
L 148.81019 305.661402 
L 150.203796 304.416672 
L 151.597403 308.473199 
L 152.991009 306.20961 
L 154.384615 306.143802 
L 155.778222 307.128394 
L 157.171828 311.271961 
L 158.565435 310.748086 
L 159.959041 304.919526 
L 161.352647 305.46725 
L 162.746254 306.553788 
L 164.13986 307.281181 
L 165.533467 304.296868 
L 166.927073 303.813138 
L 168.320679 303.910762 
L 169.714286 301.095283 
L 171.107892 305.338228 
L 172.501499 307.272535 
L 173.895105 306.258703 
L 175.288711 305.729358 
L 176.682318 306.950516 
L 178.075924 307.729149 
L 179.46953 302.173663 
L 182.256743 295.917 
L 183.65035 291.101141 
L 185.043956 294.460105 
L 186.437562 293.09538 
L 187.831169 290.379317 
L 189.224775 287.069493 
L 190.618382 286.134811 
L 192.011988 284.2143 
L 193.405594 283.464884 
L 194.799201 282.248119 
L 196.192807 285.580339 
L 197.586414 285.667779 
L 198.98002 281.585396 
L 200.373626 282.853722 
L 201.767233 278.852961 
L 204.554446 272.064105 
L 205.948052 273.378296 
L 207.341658 271.251528 
L 208.735265 268.074497 
L 210.128871 267.854455 
L 211.522478 267.379702 
L 212.916084 265.988215 
L 214.30969 263.194783 
L 215.703297 261.255682 
L 217.096903 255.913682 
L 218.490509 254.692853 
L 219.884116 250.891546 
L 222.671329 238.650751 
L 224.064935 237.076617 
L 225.458541 243.809816 
L 226.852148 245.31706 
L 228.245754 237.527373 
L 229.639361 239.124773 
L 231.032967 234.474769 
L 232.426573 233.604743 
L 233.82018 231.502511 
L 235.213786 232.919782 
L 236.607393 229.936832 
L 238.000999 230.55902 
L 239.394605 236.39084 
L 240.788212 231.918982 
L 242.181818 233.591107 
L 243.575425 228.492494 
L 244.969031 227.032088 
L 246.362637 229.24334 
L 247.756244 229.260289 
L 249.14985 231.845703 
L 250.543457 235.937421 
L 251.937063 239.178755 
L 254.724276 243.879427 
L 256.117882 240.159644 
L 257.511489 240.926866 
L 258.905095 245.044243 
L 260.298701 243.735444 
L 261.692308 248.512885 
L 263.085914 250.806119 
L 265.873127 252.67188 
L 267.266733 253.210865 
L 268.66034 255.934533 
L 270.053946 257.749834 
L 271.447552 260.656049 
L 272.841159 264.833107 
L 274.234765 264.528628 
L 275.628372 265.592961 
L 278.415584 267.391197 
L 279.809191 269.340036 
L 281.202797 270.637391 
L 282.596404 272.098494 
L 283.99001 274.967415 
L 285.383616 277.171046 
L 286.777223 275.330824 
L 288.170829 274.478908 
L 289.564436 272.680351 
L 290.958042 272.425662 
L 292.351648 273.453771 
L 293.745255 274.08201 
L 295.138861 275.728433 
L 296.532468 274.30216 
L 297.926074 275.168371 
L 299.31968 275.72813 
L 300.713287 277.237035 
L 302.106893 277.751698 
L 303.5005 278.077471 
L 304.894106 275.344564 
L 307.681319 276.787987 
L 309.074925 277.783916 
L 311.862138 278.449343 
L 313.255744 278.581979 
L 314.649351 278.485693 
L 316.042957 278.089774 
L 317.436563 278.527538 
L 318.83017 278.207864 
L 320.223776 278.362635 
L 321.617383 278.255107 
L 323.010989 277.085452 
L 324.404595 278.20422 
L 325.798202 278.13849 
L 328.585415 278.40332 
L 334.15984 278.375384 
L 335.553447 278.84033 
L 339.734266 278.381651 
L 341.127872 278.255489 
L 343.915085 278.530276 
L 346.702298 278.439438 
L 413.595405 278.439438 
L 414.989011 277.763788 
L 416.382617 278.439438 
L 456.797203 278.439438 
L 458.190809 278.295881 
L 459.584416 278.439438 
L 473.52048 278.373828 
L 476.307692 276.307291 
L 477.701299 277.756947 
L 479.094905 276.869217 
L 481.882118 277.354098 
L 483.275724 277.186325 
L 484.669331 276.487458 
L 486.062937 277.015532 
L 487.456543 278.022735 
L 488.85015 278.336292 
L 490.243756 278.512176 
L 493.030969 277.965223 
L 494.424575 278.228208 
L 495.818182 277.838165 
L 497.211788 277.971738 
L 498.605395 277.992844 
L 499.999001 278.698421 
L 501.392607 277.396219 
L 502.786214 277.885568 
L 504.17982 276.752608 
L 505.573427 278.102527 
L 506.967033 279.200336 
L 508.360639 278.340226 
L 509.754246 278.84198 
L 511.147852 279.224054 
L 512.541459 278.793775 
L 513.935065 277.375285 
L 515.328671 278.718225 
L 516.722278 279.705739 
L 518.115884 278.783157 
L 520.903097 279.188309 
L 522.296703 281.049868 
L 523.69031 279.908146 
L 525.083916 279.062893 
L 526.477522 279.030226 
L 527.871129 278.410667 
L 529.264735 277.924492 
L 530.658342 279.237179 
L 532.051948 278.307494 
L 533.445554 277.567711 
L 534.839161 276.075557 
L 536.232767 278.63197 
L 537.626374 278.230037 
L 539.01998 276.862027 
L 540.413586 274.115932 
L 541.807193 272.632286 
L 543.200799 271.596296 
L 544.594406 273.272748 
L 547.381618 273.587308 
L 548.775225 269.585924 
L 550.168831 270.652181 
L 551.562438 270.393071 
L 554.34965 271.95904 
L 555.743257 270.096169 
L 557.136863 268.871808 
L 558.53047 265.774415 
L 559.924076 264.721537 
L 561.317682 263.41858 
L 562.711289 263.169143 
L 564.104895 263.234211 
L 565.498501 265.201614 
L 566.892108 261.725094 
L 568.285714 260.523622 
L 569.679321 260.398066 
L 571.072927 262.159503 
L 572.466533 261.420406 
L 573.86014 259.600146 
L 575.253746 261.617237 
L 576.647353 260.072546 
L 578.040959 259.110674 
L 579.434565 256.27269 
L 580.828172 258.895932 
L 582.221778 256.779874 
L 583.615385 258.745957 
L 585.008991 257.331047 
L 586.402597 255.006728 
L 587.796204 255.09012 
L 589.18981 255.561815 
L 590.583417 253.920059 
L 591.977023 254.387758 
L 593.370629 255.607035 
L 594.764236 255.670226 
L 596.157842 253.913219 
L 597.551449 253.287518 
L 598.945055 253.275634 
L 600.338661 252.745729 
L 601.732268 250.893181 
L 603.125874 249.704374 
L 604.519481 249.476489 
L 605.913087 253.238862 
L 607.306693 252.832052 
L 608.7003 249.253528 
L 610.093906 250.405207 
L 611.487512 246.462552 
L 612.881119 249.204833 
L 614.274725 246.106058 
L 615.668332 244.996672 
L 617.061938 243.264475 
L 618.455544 241.973218 
L 619.849151 240.303173 
L 621.242757 236.463578 
L 622.636364 238.262827 
L 622.636364 238.262827 
" style="fill:none;stroke:#2ca02c;stroke-linecap:square;stroke-width:1.5;"/>
   </g>
   <g id="line2d_43">
    <path clip-path="url(#pa7af2c7152)" d="M 115.363636 276.144455 
L 116.757243 272.679533 
L 118.150849 272.076449 
L 119.544456 265.045506 
L 122.331668 268.622439 
L 123.725275 269.742972 
L 125.118881 266.482101 
L 126.512488 268.254439 
L 127.906094 269.285242 
L 129.2997 268.598623 
L 130.693307 265.999838 
L 132.086913 262.934589 
L 133.480519 264.62192 
L 136.267732 261.841623 
L 137.661339 263.306265 
L 139.054945 259.641102 
L 140.448551 258.010411 
L 141.842158 257.824921 
L 143.235764 256.691306 
L 144.629371 253.34708 
L 146.022977 249.338231 
L 147.416583 249.913024 
L 148.81019 231.161205 
L 150.203796 227.531298 
L 151.597403 230.295737 
L 152.991009 226.602361 
L 154.384615 228.58612 
L 155.778222 229.063728 
L 157.171828 234.436115 
L 158.565435 231.500947 
L 159.959041 231.068175 
L 161.352647 234.580439 
L 162.746254 235.751088 
L 164.13986 234.926092 
L 165.533467 237.492769 
L 166.927073 239.124836 
L 168.320679 241.741606 
L 171.107892 261.531869 
L 172.501499 280.457331 
L 173.895105 280.648309 
L 175.288711 285.672586 
L 176.682318 293.917754 
L 178.075924 292.717904 
L 179.46953 295.161734 
L 182.256743 305.98446 
L 183.65035 313.826355 
L 185.043956 320.85469 
L 186.437562 320.844647 
L 187.831169 320.588329 
L 189.224775 315.489526 
L 190.618382 320.422001 
L 192.011988 326.331633 
L 193.405594 325.304864 
L 194.799201 326.306505 
L 196.192807 331.585367 
L 197.586414 333.939749 
L 198.98002 338.823992 
L 200.373626 339.530579 
L 201.767233 332.907153 
L 203.160839 327.099281 
L 204.554446 328.952081 
L 205.948052 338.97926 
L 207.341658 329.081925 
L 208.735265 322.794833 
L 210.128871 322.130439 
L 211.522478 319.057691 
L 212.916084 318.313979 
L 214.30969 315.588887 
L 215.703297 320.868881 
L 217.096903 313.106823 
L 218.490509 307.596799 
L 219.884116 303.503692 
L 221.277722 293.95191 
L 222.671329 290.845784 
L 224.064935 286.001156 
L 225.458541 289.300301 
L 226.852148 281.014629 
L 228.245754 275.085212 
L 229.639361 271.459265 
L 231.032967 265.862837 
L 233.82018 261.529819 
L 235.213786 264.34121 
L 236.607393 257.126412 
L 238.000999 253.394924 
L 239.394605 251.950742 
L 240.788212 240.244611 
L 242.181818 239.683466 
L 243.575425 230.141668 
L 244.969031 229.785972 
L 246.362637 236.972576 
L 247.756244 235.392295 
L 249.14985 236.09341 
L 250.543457 241.99746 
L 251.937063 246.362255 
L 253.330669 249.638685 
L 254.724276 247.729813 
L 256.117882 246.872077 
L 257.511489 245.175518 
L 258.905095 250.647675 
L 260.298701 252.256895 
L 261.692308 254.274891 
L 263.085914 255.826922 
L 264.47952 257.805255 
L 265.873127 258.719076 
L 267.266733 256.346718 
L 268.66034 257.6311 
L 270.053946 260.62798 
L 271.447552 257.030667 
L 272.841159 263.107626 
L 274.234765 263.250896 
L 275.628372 264.15329 
L 277.021978 266.264787 
L 278.415584 266.893488 
L 279.809191 268.439775 
L 281.202797 270.536799 
L 282.596404 270.902065 
L 283.99001 274.040052 
L 285.383616 275.87911 
L 288.170829 277.797563 
L 289.564436 279.974137 
L 290.958042 285.000375 
L 292.351648 287.251554 
L 293.745255 285.344522 
L 295.138861 285.482469 
L 296.532468 282.601882 
L 297.926074 283.172916 
L 299.31968 281.482933 
L 300.713287 280.237649 
L 302.106893 279.803992 
L 303.5005 278.160769 
L 304.894106 277.903737 
L 306.287712 278.085615 
L 307.681319 276.39628 
L 309.074925 277.247191 
L 310.468531 277.021906 
L 311.862138 278.425979 
L 314.649351 278.446135 
L 316.042957 278.127256 
L 317.436563 278.519145 
L 318.83017 278.485803 
L 320.223776 278.216327 
L 321.617383 277.520957 
L 323.010989 278.402913 
L 324.404595 278.490701 
L 325.798202 278.366175 
L 327.191808 278.105594 
L 328.585415 278.563925 
L 332.766234 278.332624 
L 334.15984 278.399394 
L 335.553447 277.836721 
L 336.947053 278.220886 
L 338.340659 278.439438 
L 341.127872 278.170402 
L 342.521479 278.479013 
L 371.787213 278.439438 
L 413.595405 278.439438 
L 414.989011 278.302163 
L 416.382617 278.439438 
L 456.797203 278.439438 
L 458.190809 278.184156 
L 459.584416 278.439438 
L 467.946054 278.439438 
L 469.33966 278.063362 
L 472.126873 278.259897 
L 473.52048 278.398056 
L 474.914086 277.97773 
L 476.307692 277.042916 
L 477.701299 279.324818 
L 479.094905 279.007499 
L 480.488511 278.883799 
L 481.882118 277.525837 
L 483.275724 279.136829 
L 487.456543 279.330525 
L 488.85015 278.619256 
L 490.243756 278.586195 
L 493.030969 278.290594 
L 494.424575 278.274366 
L 495.818182 277.594315 
L 498.605395 278.580747 
L 499.999001 279.668604 
L 501.392607 279.05661 
L 502.786214 278.732951 
L 504.17982 275.575387 
L 505.573427 273.547977 
L 506.967033 274.539542 
L 508.360639 275.077518 
L 509.754246 276.487073 
L 511.147852 278.113401 
L 512.541459 279.239511 
L 513.935065 280.743968 
L 515.328671 279.130186 
L 516.722278 277.68686 
L 518.115884 278.590709 
L 519.509491 280.076787 
L 520.903097 278.010202 
L 522.296703 275.673251 
L 523.69031 275.937697 
L 525.083916 277.674915 
L 526.477522 277.266784 
L 527.871129 277.212366 
L 529.264735 277.579596 
L 530.658342 282.183446 
L 532.051948 280.16077 
L 533.445554 279.417844 
L 534.839161 276.179693 
L 536.232767 274.776951 
L 537.626374 278.653978 
L 540.413586 274.809997 
L 541.807193 274.140876 
L 543.200799 276.807375 
L 544.594406 278.499045 
L 545.988012 279.441212 
L 547.381618 279.025362 
L 548.775225 278.845155 
L 550.168831 278.818205 
L 551.562438 280.932839 
L 552.956044 281.025071 
L 554.34965 282.903955 
L 555.743257 280.652247 
L 557.136863 281.048705 
L 558.53047 281.610862 
L 559.924076 279.750441 
L 561.317682 279.804492 
L 562.711289 283.647552 
L 564.104895 282.705241 
L 565.498501 279.234711 
L 566.892108 277.431349 
L 568.285714 278.466927 
L 569.679321 277.250198 
L 571.072927 278.725134 
L 572.466533 279.565627 
L 573.86014 278.749607 
L 576.647353 277.557583 
L 578.040959 275.618211 
L 579.434565 271.231047 
L 580.828172 273.433326 
L 582.221778 273.350854 
L 583.615385 273.802132 
L 585.008991 276.083175 
L 586.402597 280.427612 
L 587.796204 279.835273 
L 589.18981 278.988497 
L 590.583417 279.405442 
L 591.977023 282.002278 
L 593.370629 283.03219 
L 594.764236 279.229382 
L 596.157842 280.215344 
L 597.551449 279.479259 
L 598.945055 278.378717 
L 600.338661 280.225168 
L 601.732268 281.35561 
L 603.125874 282.657964 
L 604.519481 280.892599 
L 605.913087 282.60976 
L 607.306693 284.084004 
L 608.7003 284.638097 
L 610.093906 288.99162 
L 611.487512 292.719568 
L 612.881119 290.492149 
L 614.274725 291.932357 
L 615.668332 292.502809 
L 617.061938 292.06915 
L 618.455544 288.63655 
L 619.849151 284.409482 
L 621.242757 281.16809 
L 622.636364 287.045968 
L 622.636364 287.045968 
" style="fill:none;stroke:#d62728;stroke-linecap:square;stroke-width:1.5;"/>
   </g>
   <g id="patch_9">
    <path d="M 90 345.6 
L 90 212.072727 
" style="fill:none;stroke:#000000;stroke-linecap:square;stroke-linejoin:miter;stroke-width:0.8;"/>
   </g>
   <g id="patch_10">
    <path d="M 648 345.6 
L 648 212.072727 
" style="fill:none;stroke:#000000;stroke-linecap:square;stroke-linejoin:miter;stroke-width:0.8;"/>
   </g>
   <g id="patch_11">
    <path d="M 90 345.6 
L 648 345.6 
" style="fill:none;stroke:#000000;stroke-linecap:square;stroke-linejoin:miter;stroke-width:0.8;"/>
   </g>
   <g id="patch_12">
    <path d="M 90 212.072727 
L 648 212.072727 
" style="fill:none;stroke:#000000;stroke-linecap:square;stroke-linejoin:miter;stroke-width:0.8;"/>
   </g>
   <g id="text_16">
    <!-- SNWD Eigs -->
    <defs>
     <path d="M 9.8125 72.90625 
L 55.90625 72.90625 
L 55.90625 64.59375 
L 19.671875 64.59375 
L 19.671875 43.015625 
L 54.390625 43.015625 
L 54.390625 34.71875 
L 19.671875 34.71875 
L 19.671875 8.296875 
L 56.78125 8.296875 
L 56.78125 0 
L 9.8125 0 
z
" id="DejaVuSans-45"/>
     <path d="M 9.421875 54.6875 
L 18.40625 54.6875 
L 18.40625 0 
L 9.421875 0 
z
M 9.421875 75.984375 
L 18.40625 75.984375 
L 18.40625 64.59375 
L 9.421875 64.59375 
z
" id="DejaVuSans-69"/>
     <path d="M 45.40625 27.984375 
Q 45.40625 37.75 41.375 43.109375 
Q 37.359375 48.484375 30.078125 48.484375 
Q 22.859375 48.484375 18.828125 43.109375 
Q 14.796875 37.75 14.796875 27.984375 
Q 14.796875 18.265625 18.828125 12.890625 
Q 22.859375 7.515625 30.078125 7.515625 
Q 37.359375 7.515625 41.375 12.890625 
Q 45.40625 18.265625 45.40625 27.984375 
M 54.390625 6.78125 
Q 54.390625 -7.171875 48.1875 -13.984375 
Q 42 -20.796875 29.203125 -20.796875 
Q 24.46875 -20.796875 20.265625 -20.09375 
Q 16.0625 -19.390625 12.109375 -17.921875 
L 12.109375 -9.1875 
Q 16.0625 -11.328125 19.921875 -12.34375 
Q 23.78125 -13.375 27.78125 -13.375 
Q 36.625 -13.375 41.015625 -8.765625 
Q 45.40625 -4.15625 45.40625 5.171875 
L 45.40625 9.625 
Q 42.625 4.78125 38.28125 2.390625 
Q 33.9375 0 27.875 0 
Q 17.828125 0 11.671875 7.65625 
Q 5.515625 15.328125 5.515625 27.984375 
Q 5.515625 40.671875 11.671875 48.328125 
Q 17.828125 56 27.875 56 
Q 33.9375 56 38.28125 53.609375 
Q 42.625 51.21875 45.40625 46.390625 
L 45.40625 54.6875 
L 54.390625 54.6875 
z
" id="DejaVuSans-67"/>
     <path d="M 44.28125 53.078125 
L 44.28125 44.578125 
Q 40.484375 46.53125 36.375 47.5 
Q 32.28125 48.484375 27.875 48.484375 
Q 21.1875 48.484375 17.84375 46.4375 
Q 14.5 44.390625 14.5 40.28125 
Q 14.5 37.15625 16.890625 35.375 
Q 19.28125 33.59375 26.515625 31.984375 
L 29.59375 31.296875 
Q 39.15625 29.25 43.1875 25.515625 
Q 47.21875 21.78125 47.21875 15.09375 
Q 47.21875 7.46875 41.1875 3.015625 
Q 35.15625 -1.421875 24.609375 -1.421875 
Q 20.21875 -1.421875 15.453125 -0.5625 
Q 10.6875 0.296875 5.421875 2 
L 5.421875 11.28125 
Q 10.40625 8.6875 15.234375 7.390625 
Q 20.0625 6.109375 24.8125 6.109375 
Q 31.15625 6.109375 34.5625 8.28125 
Q 37.984375 10.453125 37.984375 14.40625 
Q 37.984375 18.0625 35.515625 20.015625 
Q 33.0625 21.96875 24.703125 23.78125 
L 21.578125 24.515625 
Q 13.234375 26.265625 9.515625 29.90625 
Q 5.8125 33.546875 5.8125 39.890625 
Q 5.8125 47.609375 11.28125 51.796875 
Q 16.75 56 26.8125 56 
Q 31.78125 56 36.171875 55.265625 
Q 40.578125 54.546875 44.28125 53.078125 
" id="DejaVuSans-73"/>
    </defs>
    <g transform="translate(335.85 206.072727)scale(0.12 -0.12)">
     <use xlink:href="#DejaVuSans-53"/>
     <use x="63.476562" xlink:href="#DejaVuSans-4e"/>
     <use x="138.28125" xlink:href="#DejaVuSans-57"/>
     <use x="237.158203" xlink:href="#DejaVuSans-44"/>
     <use x="314.160156" xlink:href="#DejaVuSans-20"/>
     <use x="345.947266" xlink:href="#DejaVuSans-45"/>
     <use x="409.130859" xlink:href="#DejaVuSans-69"/>
     <use x="436.914062" xlink:href="#DejaVuSans-67"/>
     <use x="500.390625" xlink:href="#DejaVuSans-73"/>
    </g>
   </g>
   <g id="legend_2">
    <g id="patch_13">
     <path d="M 342.178906 340.6 
L 395.821094 340.6 
Q 397.821094 340.6 397.821094 338.6 
L 397.821094 280.8875 
Q 397.821094 278.8875 395.821094 278.8875 
L 342.178906 278.8875 
Q 340.178906 278.8875 340.178906 280.8875 
L 340.178906 338.6 
Q 340.178906 340.6 342.178906 340.6 
z
" style="fill:#ffffff;opacity:0.8;stroke:#cccccc;stroke-linejoin:miter;"/>
    </g>
    <g id="line2d_44">
     <path d="M 344.178906 286.985937 
L 364.178906 286.985937 
" style="fill:none;stroke:#1f77b4;stroke-linecap:square;stroke-width:1.5;"/>
    </g>
    <g id="line2d_45"/>
    <g id="text_17">
     <!-- eig1 -->
     <g transform="translate(372.178906 290.485937)scale(0.1 -0.1)">
      <use xlink:href="#DejaVuSans-65"/>
      <use x="61.523438" xlink:href="#DejaVuSans-69"/>
      <use x="89.306641" xlink:href="#DejaVuSans-67"/>
      <use x="152.783203" xlink:href="#DejaVuSans-31"/>
     </g>
    </g>
    <g id="line2d_46">
     <path d="M 344.178906 301.664062 
L 364.178906 301.664062 
" style="fill:none;stroke:#ff7f0e;stroke-linecap:square;stroke-width:1.5;"/>
    </g>
    <g id="line2d_47"/>
    <g id="text_18">
     <!-- eig2 -->
     <g transform="translate(372.178906 305.164062)scale(0.1 -0.1)">
      <use xlink:href="#DejaVuSans-65"/>
      <use x="61.523438" xlink:href="#DejaVuSans-69"/>
      <use x="89.306641" xlink:href="#DejaVuSans-67"/>
      <use x="152.783203" xlink:href="#DejaVuSans-32"/>
     </g>
    </g>
    <g id="line2d_48">
     <path d="M 344.178906 316.342187 
L 364.178906 316.342187 
" style="fill:none;stroke:#2ca02c;stroke-linecap:square;stroke-width:1.5;"/>
    </g>
    <g id="line2d_49"/>
    <g id="text_19">
     <!-- eig3 -->
     <defs>
      <path d="M 40.578125 39.3125 
Q 47.65625 37.796875 51.625 33 
Q 55.609375 28.21875 55.609375 21.1875 
Q 55.609375 10.40625 48.1875 4.484375 
Q 40.765625 -1.421875 27.09375 -1.421875 
Q 22.515625 -1.421875 17.65625 -0.515625 
Q 12.796875 0.390625 7.625 2.203125 
L 7.625 11.71875 
Q 11.71875 9.328125 16.59375 8.109375 
Q 21.484375 6.890625 26.8125 6.890625 
Q 36.078125 6.890625 40.9375 10.546875 
Q 45.796875 14.203125 45.796875 21.1875 
Q 45.796875 27.640625 41.28125 31.265625 
Q 36.765625 34.90625 28.71875 34.90625 
L 20.21875 34.90625 
L 20.21875 43.015625 
L 29.109375 43.015625 
Q 36.375 43.015625 40.234375 45.921875 
Q 44.09375 48.828125 44.09375 54.296875 
Q 44.09375 59.90625 40.109375 62.90625 
Q 36.140625 65.921875 28.71875 65.921875 
Q 24.65625 65.921875 20.015625 65.03125 
Q 15.375 64.15625 9.8125 62.3125 
L 9.8125 71.09375 
Q 15.4375 72.65625 20.34375 73.4375 
Q 25.25 74.21875 29.59375 74.21875 
Q 40.828125 74.21875 47.359375 69.109375 
Q 53.90625 64.015625 53.90625 55.328125 
Q 53.90625 49.265625 50.4375 45.09375 
Q 46.96875 40.921875 40.578125 39.3125 
" id="DejaVuSans-33"/>
     </defs>
     <g transform="translate(372.178906 319.842187)scale(0.1 -0.1)">
      <use xlink:href="#DejaVuSans-65"/>
      <use x="61.523438" xlink:href="#DejaVuSans-69"/>
      <use x="89.306641" xlink:href="#DejaVuSans-67"/>
      <use x="152.783203" xlink:href="#DejaVuSans-33"/>
     </g>
    </g>
    <g id="line2d_50">
     <path d="M 344.178906 331.020312 
L 364.178906 331.020312 
" style="fill:none;stroke:#d62728;stroke-linecap:square;stroke-width:1.5;"/>
    </g>
    <g id="line2d_51"/>
    <g id="text_20">
     <!-- eig4 -->
     <defs>
      <path d="M 37.796875 64.3125 
L 12.890625 25.390625 
L 37.796875 25.390625 
z
M 35.203125 72.90625 
L 47.609375 72.90625 
L 47.609375 25.390625 
L 58.015625 25.390625 
L 58.015625 17.1875 
L 47.609375 17.1875 
L 47.609375 0 
L 37.796875 0 
L 37.796875 17.1875 
L 4.890625 17.1875 
L 4.890625 26.703125 
z
" id="DejaVuSans-34"/>
     </defs>
     <g transform="translate(372.178906 334.520312)scale(0.1 -0.1)">
      <use xlink:href="#DejaVuSans-65"/>
      <use x="61.523438" xlink:href="#DejaVuSans-69"/>
      <use x="89.306641" xlink:href="#DejaVuSans-67"/>
      <use x="152.783203" xlink:href="#DejaVuSans-34"/>
     </g>
    </g>
   </g>
  </g>
 </g>
 <defs>
  <clipPath id="p0018c4fa11">
   <rect height="133.527273" width="558" x="90" y="51.84"/>
  </clipPath>
  <clipPath id="pa7af2c7152">
   <rect height="133.527273" width="558" x="90" y="212.072727"/>
  </clipPath>
 </defs>
</svg>
