<?xml version="1.0" encoding="utf-8" standalone="no"?>
<!DOCTYPE svg PUBLIC "-//W3C//DTD SVG 1.1//EN"
  "http://www.w3.org/Graphics/SVG/1.1/DTD/svg11.dtd">
<!-- Created with matplotlib (http://matplotlib.org/) -->
<svg height="288pt" version="1.1" viewBox="0 0 864 288" width="864pt" xmlns="http://www.w3.org/2000/svg" xmlns:xlink="http://www.w3.org/1999/xlink">
 <defs>
  <style type="text/css">
*{stroke-linecap:butt;stroke-linejoin:round;}
  </style>
 </defs>
 <g id="figure_1">
  <g id="patch_1">
   <path d="M 0 288 
L 864 288 
L 864 0 
L 0 0 
z
" style="fill:#ffffff;"/>
  </g>
  <g id="axes_1">
   <g id="patch_2">
    <path d="M 108 230.4 
L 412.363636 230.4 
L 412.363636 34.56 
L 108 34.56 
z
" style="fill:#ffffff;"/>
   </g>
   <g id="matplotlib.axis_1">
    <g id="xtick_1">
     <g id="line2d_1">
      <path clip-path="url(#p841e9cbf7a)" d="M 121.834711 230.4 
L 121.834711 34.56 
" style="fill:none;stroke:#b0b0b0;stroke-linecap:square;stroke-width:0.8;"/>
     </g>
     <g id="line2d_2">
      <defs>
       <path d="M 0 0 
L 0 3.5 
" id="m517400b465" style="stroke:#000000;stroke-width:0.8;"/>
      </defs>
      <g>
       <use style="stroke:#000000;stroke-width:0.8;" x="121.834711" xlink:href="#m517400b465" y="230.4"/>
      </g>
     </g>
     <g id="text_1">
      <!-- Jan -->
      <defs>
       <path d="M 9.8125 72.90625 
L 19.671875 72.90625 
L 19.671875 5.078125 
Q 19.671875 -8.109375 14.671875 -14.0625 
Q 9.671875 -20.015625 -1.421875 -20.015625 
L -5.171875 -20.015625 
L -5.171875 -11.71875 
L -2.09375 -11.71875 
Q 4.4375 -11.71875 7.125 -8.046875 
Q 9.8125 -4.390625 9.8125 5.078125 
z
" id="DejaVuSans-4a"/>
       <path d="M 34.28125 27.484375 
Q 23.390625 27.484375 19.1875 25 
Q 14.984375 22.515625 14.984375 16.5 
Q 14.984375 11.71875 18.140625 8.90625 
Q 21.296875 6.109375 26.703125 6.109375 
Q 34.1875 6.109375 38.703125 11.40625 
Q 43.21875 16.703125 43.21875 25.484375 
L 43.21875 27.484375 
z
M 52.203125 31.203125 
L 52.203125 0 
L 43.21875 0 
L 43.21875 8.296875 
Q 40.140625 3.328125 35.546875 0.953125 
Q 30.953125 -1.421875 24.3125 -1.421875 
Q 15.921875 -1.421875 10.953125 3.296875 
Q 6 8.015625 6 15.921875 
Q 6 25.140625 12.171875 29.828125 
Q 18.359375 34.515625 30.609375 34.515625 
L 43.21875 34.515625 
L 43.21875 35.40625 
Q 43.21875 41.609375 39.140625 45 
Q 35.0625 48.390625 27.6875 48.390625 
Q 23 48.390625 18.546875 47.265625 
Q 14.109375 46.140625 10.015625 43.890625 
L 10.015625 52.203125 
Q 14.9375 54.109375 19.578125 55.046875 
Q 24.21875 56 28.609375 56 
Q 40.484375 56 46.34375 49.84375 
Q 52.203125 43.703125 52.203125 31.203125 
" id="DejaVuSans-61"/>
       <path d="M 54.890625 33.015625 
L 54.890625 0 
L 45.90625 0 
L 45.90625 32.71875 
Q 45.90625 40.484375 42.875 44.328125 
Q 39.84375 48.1875 33.796875 48.1875 
Q 26.515625 48.1875 22.3125 43.546875 
Q 18.109375 38.921875 18.109375 30.90625 
L 18.109375 0 
L 9.078125 0 
L 9.078125 54.6875 
L 18.109375 54.6875 
L 18.109375 46.1875 
Q 21.34375 51.125 25.703125 53.5625 
Q 30.078125 56 35.796875 56 
Q 45.21875 56 50.046875 50.171875 
Q 54.890625 44.34375 54.890625 33.015625 
" id="DejaVuSans-6e"/>
      </defs>
      <g transform="translate(107.444544 251.688252)rotate(-30)scale(0.1 -0.1)">
       <use xlink:href="#DejaVuSans-4a"/>
       <use x="29.492188" xlink:href="#DejaVuSans-61"/>
       <use x="90.771484" xlink:href="#DejaVuSans-6e"/>
      </g>
     </g>
    </g>
    <g id="xtick_2">
     <g id="line2d_3">
      <path clip-path="url(#p841e9cbf7a)" d="M 190.248116 230.4 
L 190.248116 34.56 
" style="fill:none;stroke:#b0b0b0;stroke-linecap:square;stroke-width:0.8;"/>
     </g>
     <g id="line2d_4">
      <g>
       <use style="stroke:#000000;stroke-width:0.8;" x="190.248116" xlink:href="#m517400b465" y="230.4"/>
      </g>
     </g>
     <g id="text_2">
      <!-- Apr -->
      <defs>
       <path d="M 34.1875 63.1875 
L 20.796875 26.90625 
L 47.609375 26.90625 
z
M 28.609375 72.90625 
L 39.796875 72.90625 
L 67.578125 0 
L 57.328125 0 
L 50.6875 18.703125 
L 17.828125 18.703125 
L 11.1875 0 
L 0.78125 0 
z
" id="DejaVuSans-41"/>
       <path d="M 18.109375 8.203125 
L 18.109375 -20.796875 
L 9.078125 -20.796875 
L 9.078125 54.6875 
L 18.109375 54.6875 
L 18.109375 46.390625 
Q 20.953125 51.265625 25.265625 53.625 
Q 29.59375 56 35.59375 56 
Q 45.5625 56 51.78125 48.09375 
Q 58.015625 40.1875 58.015625 27.296875 
Q 58.015625 14.40625 51.78125 6.484375 
Q 45.5625 -1.421875 35.59375 -1.421875 
Q 29.59375 -1.421875 25.265625 0.953125 
Q 20.953125 3.328125 18.109375 8.203125 
M 48.6875 27.296875 
Q 48.6875 37.203125 44.609375 42.84375 
Q 40.53125 48.484375 33.40625 48.484375 
Q 26.265625 48.484375 22.1875 42.84375 
Q 18.109375 37.203125 18.109375 27.296875 
Q 18.109375 17.390625 22.1875 11.75 
Q 26.265625 6.109375 33.40625 6.109375 
Q 40.53125 6.109375 44.609375 11.75 
Q 48.6875 17.390625 48.6875 27.296875 
" id="DejaVuSans-70"/>
       <path d="M 41.109375 46.296875 
Q 39.59375 47.171875 37.8125 47.578125 
Q 36.03125 48 33.890625 48 
Q 26.265625 48 22.1875 43.046875 
Q 18.109375 38.09375 18.109375 28.8125 
L 18.109375 0 
L 9.078125 0 
L 9.078125 54.6875 
L 18.109375 54.6875 
L 18.109375 46.1875 
Q 20.953125 51.171875 25.484375 53.578125 
Q 30.03125 56 36.53125 56 
Q 37.453125 56 38.578125 55.875 
Q 39.703125 55.765625 41.0625 55.515625 
z
" id="DejaVuSans-72"/>
      </defs>
      <g transform="translate(174.226032 252.63044)rotate(-30)scale(0.1 -0.1)">
       <use xlink:href="#DejaVuSans-41"/>
       <use x="68.408203" xlink:href="#DejaVuSans-70"/>
       <use x="131.884766" xlink:href="#DejaVuSans-72"/>
      </g>
     </g>
    </g>
    <g id="xtick_3">
     <g id="line2d_5">
      <path clip-path="url(#p841e9cbf7a)" d="M 259.421669 230.4 
L 259.421669 34.56 
" style="fill:none;stroke:#b0b0b0;stroke-linecap:square;stroke-width:0.8;"/>
     </g>
     <g id="line2d_6">
      <g>
       <use style="stroke:#000000;stroke-width:0.8;" x="259.421669" xlink:href="#m517400b465" y="230.4"/>
      </g>
     </g>
     <g id="text_3">
      <!-- Jul -->
      <defs>
       <path d="M 8.5 21.578125 
L 8.5 54.6875 
L 17.484375 54.6875 
L 17.484375 21.921875 
Q 17.484375 14.15625 20.5 10.265625 
Q 23.53125 6.390625 29.59375 6.390625 
Q 36.859375 6.390625 41.078125 11.03125 
Q 45.3125 15.671875 45.3125 23.6875 
L 45.3125 54.6875 
L 54.296875 54.6875 
L 54.296875 0 
L 45.3125 0 
L 45.3125 8.40625 
Q 42.046875 3.421875 37.71875 1 
Q 33.40625 -1.421875 27.6875 -1.421875 
Q 18.265625 -1.421875 13.375 4.4375 
Q 8.5 10.296875 8.5 21.578125 
M 31.109375 56 
z
" id="DejaVuSans-75"/>
       <path d="M 9.421875 75.984375 
L 18.40625 75.984375 
L 18.40625 0 
L 9.421875 0 
z
" id="DejaVuSans-6c"/>
      </defs>
      <g transform="translate(247.932688 250.013252)rotate(-30)scale(0.1 -0.1)">
       <use xlink:href="#DejaVuSans-4a"/>
       <use x="29.492188" xlink:href="#DejaVuSans-75"/>
       <use x="92.871094" xlink:href="#DejaVuSans-6c"/>
      </g>
     </g>
    </g>
    <g id="xtick_4">
     <g id="line2d_7">
      <path clip-path="url(#p841e9cbf7a)" d="M 329.355372 230.4 
L 329.355372 34.56 
" style="fill:none;stroke:#b0b0b0;stroke-linecap:square;stroke-width:0.8;"/>
     </g>
     <g id="line2d_8">
      <g>
       <use style="stroke:#000000;stroke-width:0.8;" x="329.355372" xlink:href="#m517400b465" y="230.4"/>
      </g>
     </g>
     <g id="text_4">
      <!-- Oct -->
      <defs>
       <path d="M 39.40625 66.21875 
Q 28.65625 66.21875 22.328125 58.203125 
Q 16.015625 50.203125 16.015625 36.375 
Q 16.015625 22.609375 22.328125 14.59375 
Q 28.65625 6.59375 39.40625 6.59375 
Q 50.140625 6.59375 56.421875 14.59375 
Q 62.703125 22.609375 62.703125 36.375 
Q 62.703125 50.203125 56.421875 58.203125 
Q 50.140625 66.21875 39.40625 66.21875 
M 39.40625 74.21875 
Q 54.734375 74.21875 63.90625 63.9375 
Q 73.09375 53.65625 73.09375 36.375 
Q 73.09375 19.140625 63.90625 8.859375 
Q 54.734375 -1.421875 39.40625 -1.421875 
Q 24.03125 -1.421875 14.8125 8.828125 
Q 5.609375 19.09375 5.609375 36.375 
Q 5.609375 53.65625 14.8125 63.9375 
Q 24.03125 74.21875 39.40625 74.21875 
" id="DejaVuSans-4f"/>
       <path d="M 48.78125 52.59375 
L 48.78125 44.1875 
Q 44.96875 46.296875 41.140625 47.34375 
Q 37.3125 48.390625 33.40625 48.390625 
Q 24.65625 48.390625 19.8125 42.84375 
Q 14.984375 37.3125 14.984375 27.296875 
Q 14.984375 17.28125 19.8125 11.734375 
Q 24.65625 6.203125 33.40625 6.203125 
Q 37.3125 6.203125 41.140625 7.25 
Q 44.96875 8.296875 48.78125 10.40625 
L 48.78125 2.09375 
Q 45.015625 0.34375 40.984375 -0.53125 
Q 36.96875 -1.421875 32.421875 -1.421875 
Q 20.0625 -1.421875 12.78125 6.34375 
Q 5.515625 14.109375 5.515625 27.296875 
Q 5.515625 40.671875 12.859375 48.328125 
Q 20.21875 56 33.015625 56 
Q 37.15625 56 41.109375 55.140625 
Q 45.0625 54.296875 48.78125 52.59375 
" id="DejaVuSans-63"/>
       <path d="M 18.3125 70.21875 
L 18.3125 54.6875 
L 36.8125 54.6875 
L 36.8125 47.703125 
L 18.3125 47.703125 
L 18.3125 18.015625 
Q 18.3125 11.328125 20.140625 9.421875 
Q 21.96875 7.515625 27.59375 7.515625 
L 36.8125 7.515625 
L 36.8125 0 
L 27.59375 0 
Q 17.1875 0 13.234375 3.875 
Q 9.28125 7.765625 9.28125 18.015625 
L 9.28125 47.703125 
L 2.6875 47.703125 
L 2.6875 54.6875 
L 9.28125 54.6875 
L 9.28125 70.21875 
z
" id="DejaVuSans-74"/>
      </defs>
      <g transform="translate(313.341408 252.625752)rotate(-30)scale(0.1 -0.1)">
       <use xlink:href="#DejaVuSans-4f"/>
       <use x="78.710938" xlink:href="#DejaVuSans-63"/>
       <use x="133.691406" xlink:href="#DejaVuSans-74"/>
      </g>
     </g>
    </g>
    <g id="xtick_5">
     <g id="line2d_9">
      <path clip-path="url(#p841e9cbf7a)" d="M 399.289075 230.4 
L 399.289075 34.56 
" style="fill:none;stroke:#b0b0b0;stroke-linecap:square;stroke-width:0.8;"/>
     </g>
     <g id="line2d_10">
      <g>
       <use style="stroke:#000000;stroke-width:0.8;" x="399.289075" xlink:href="#m517400b465" y="230.4"/>
      </g>
     </g>
     <g id="text_5">
      <!-- Jan -->
      <g transform="translate(384.898908 251.688252)rotate(-30)scale(0.1 -0.1)">
       <use xlink:href="#DejaVuSans-4a"/>
       <use x="29.492188" xlink:href="#DejaVuSans-61"/>
       <use x="90.771484" xlink:href="#DejaVuSans-6e"/>
      </g>
     </g>
    </g>
   </g>
   <g id="matplotlib.axis_2">
    <g id="ytick_1">
     <g id="line2d_11">
      <path clip-path="url(#p841e9cbf7a)" d="M 108 217.726504 
L 412.363636 217.726504 
" style="fill:none;stroke:#b0b0b0;stroke-linecap:square;stroke-width:0.8;"/>
     </g>
     <g id="line2d_12">
      <defs>
       <path d="M 0 0 
L -3.5 0 
" id="md9ff78feed" style="stroke:#000000;stroke-width:0.8;"/>
      </defs>
      <g>
       <use style="stroke:#000000;stroke-width:0.8;" x="108" xlink:href="#md9ff78feed" y="217.726504"/>
      </g>
     </g>
     <g id="text_6">
      <!-- 0 -->
      <defs>
       <path d="M 31.78125 66.40625 
Q 24.171875 66.40625 20.328125 58.90625 
Q 16.5 51.421875 16.5 36.375 
Q 16.5 21.390625 20.328125 13.890625 
Q 24.171875 6.390625 31.78125 6.390625 
Q 39.453125 6.390625 43.28125 13.890625 
Q 47.125 21.390625 47.125 36.375 
Q 47.125 51.421875 43.28125 58.90625 
Q 39.453125 66.40625 31.78125 66.40625 
M 31.78125 74.21875 
Q 44.046875 74.21875 50.515625 64.515625 
Q 56.984375 54.828125 56.984375 36.375 
Q 56.984375 17.96875 50.515625 8.265625 
Q 44.046875 -1.421875 31.78125 -1.421875 
Q 19.53125 -1.421875 13.0625 8.265625 
Q 6.59375 17.96875 6.59375 36.375 
Q 6.59375 54.828125 13.0625 64.515625 
Q 19.53125 74.21875 31.78125 74.21875 
" id="DejaVuSans-30"/>
      </defs>
      <g transform="translate(94.6375 221.525722)scale(0.1 -0.1)">
       <use xlink:href="#DejaVuSans-30"/>
      </g>
     </g>
    </g>
    <g id="ytick_2">
     <g id="line2d_13">
      <path clip-path="url(#p841e9cbf7a)" d="M 108 188.02801 
L 412.363636 188.02801 
" style="fill:none;stroke:#b0b0b0;stroke-linecap:square;stroke-width:0.8;"/>
     </g>
     <g id="line2d_14">
      <g>
       <use style="stroke:#000000;stroke-width:0.8;" x="108" xlink:href="#md9ff78feed" y="188.02801"/>
      </g>
     </g>
     <g id="text_7">
      <!-- 10 -->
      <defs>
       <path d="M 12.40625 8.296875 
L 28.515625 8.296875 
L 28.515625 63.921875 
L 10.984375 60.40625 
L 10.984375 69.390625 
L 28.421875 72.90625 
L 38.28125 72.90625 
L 38.28125 8.296875 
L 54.390625 8.296875 
L 54.390625 0 
L 12.40625 0 
z
" id="DejaVuSans-31"/>
      </defs>
      <g transform="translate(88.275 191.827229)scale(0.1 -0.1)">
       <use xlink:href="#DejaVuSans-31"/>
       <use x="63.623047" xlink:href="#DejaVuSans-30"/>
      </g>
     </g>
    </g>
    <g id="ytick_3">
     <g id="line2d_15">
      <path clip-path="url(#p841e9cbf7a)" d="M 108 158.329516 
L 412.363636 158.329516 
" style="fill:none;stroke:#b0b0b0;stroke-linecap:square;stroke-width:0.8;"/>
     </g>
     <g id="line2d_16">
      <g>
       <use style="stroke:#000000;stroke-width:0.8;" x="108" xlink:href="#md9ff78feed" y="158.329516"/>
      </g>
     </g>
     <g id="text_8">
      <!-- 20 -->
      <defs>
       <path d="M 19.1875 8.296875 
L 53.609375 8.296875 
L 53.609375 0 
L 7.328125 0 
L 7.328125 8.296875 
Q 12.9375 14.109375 22.625 23.890625 
Q 32.328125 33.6875 34.8125 36.53125 
Q 39.546875 41.84375 41.421875 45.53125 
Q 43.3125 49.21875 43.3125 52.78125 
Q 43.3125 58.59375 39.234375 62.25 
Q 35.15625 65.921875 28.609375 65.921875 
Q 23.96875 65.921875 18.8125 64.3125 
Q 13.671875 62.703125 7.8125 59.421875 
L 7.8125 69.390625 
Q 13.765625 71.78125 18.9375 73 
Q 24.125 74.21875 28.421875 74.21875 
Q 39.75 74.21875 46.484375 68.546875 
Q 53.21875 62.890625 53.21875 53.421875 
Q 53.21875 48.921875 51.53125 44.890625 
Q 49.859375 40.875 45.40625 35.40625 
Q 44.1875 33.984375 37.640625 27.21875 
Q 31.109375 20.453125 19.1875 8.296875 
" id="DejaVuSans-32"/>
      </defs>
      <g transform="translate(88.275 162.128735)scale(0.1 -0.1)">
       <use xlink:href="#DejaVuSans-32"/>
       <use x="63.623047" xlink:href="#DejaVuSans-30"/>
      </g>
     </g>
    </g>
    <g id="ytick_4">
     <g id="line2d_17">
      <path clip-path="url(#p841e9cbf7a)" d="M 108 128.631022 
L 412.363636 128.631022 
" style="fill:none;stroke:#b0b0b0;stroke-linecap:square;stroke-width:0.8;"/>
     </g>
     <g id="line2d_18">
      <g>
       <use style="stroke:#000000;stroke-width:0.8;" x="108" xlink:href="#md9ff78feed" y="128.631022"/>
      </g>
     </g>
     <g id="text_9">
      <!-- 30 -->
      <defs>
       <path d="M 40.578125 39.3125 
Q 47.65625 37.796875 51.625 33 
Q 55.609375 28.21875 55.609375 21.1875 
Q 55.609375 10.40625 48.1875 4.484375 
Q 40.765625 -1.421875 27.09375 -1.421875 
Q 22.515625 -1.421875 17.65625 -0.515625 
Q 12.796875 0.390625 7.625 2.203125 
L 7.625 11.71875 
Q 11.71875 9.328125 16.59375 8.109375 
Q 21.484375 6.890625 26.8125 6.890625 
Q 36.078125 6.890625 40.9375 10.546875 
Q 45.796875 14.203125 45.796875 21.1875 
Q 45.796875 27.640625 41.28125 31.265625 
Q 36.765625 34.90625 28.71875 34.90625 
L 20.21875 34.90625 
L 20.21875 43.015625 
L 29.109375 43.015625 
Q 36.375 43.015625 40.234375 45.921875 
Q 44.09375 48.828125 44.09375 54.296875 
Q 44.09375 59.90625 40.109375 62.90625 
Q 36.140625 65.921875 28.71875 65.921875 
Q 24.65625 65.921875 20.015625 65.03125 
Q 15.375 64.15625 9.8125 62.3125 
L 9.8125 71.09375 
Q 15.4375 72.65625 20.34375 73.4375 
Q 25.25 74.21875 29.59375 74.21875 
Q 40.828125 74.21875 47.359375 69.109375 
Q 53.90625 64.015625 53.90625 55.328125 
Q 53.90625 49.265625 50.4375 45.09375 
Q 46.96875 40.921875 40.578125 39.3125 
" id="DejaVuSans-33"/>
      </defs>
      <g transform="translate(88.275 132.430241)scale(0.1 -0.1)">
       <use xlink:href="#DejaVuSans-33"/>
       <use x="63.623047" xlink:href="#DejaVuSans-30"/>
      </g>
     </g>
    </g>
    <g id="ytick_5">
     <g id="line2d_19">
      <path clip-path="url(#p841e9cbf7a)" d="M 108 98.932529 
L 412.363636 98.932529 
" style="fill:none;stroke:#b0b0b0;stroke-linecap:square;stroke-width:0.8;"/>
     </g>
     <g id="line2d_20">
      <g>
       <use style="stroke:#000000;stroke-width:0.8;" x="108" xlink:href="#md9ff78feed" y="98.932529"/>
      </g>
     </g>
     <g id="text_10">
      <!-- 40 -->
      <defs>
       <path d="M 37.796875 64.3125 
L 12.890625 25.390625 
L 37.796875 25.390625 
z
M 35.203125 72.90625 
L 47.609375 72.90625 
L 47.609375 25.390625 
L 58.015625 25.390625 
L 58.015625 17.1875 
L 47.609375 17.1875 
L 47.609375 0 
L 37.796875 0 
L 37.796875 17.1875 
L 4.890625 17.1875 
L 4.890625 26.703125 
z
" id="DejaVuSans-34"/>
      </defs>
      <g transform="translate(88.275 102.731747)scale(0.1 -0.1)">
       <use xlink:href="#DejaVuSans-34"/>
       <use x="63.623047" xlink:href="#DejaVuSans-30"/>
      </g>
     </g>
    </g>
    <g id="ytick_6">
     <g id="line2d_21">
      <path clip-path="url(#p841e9cbf7a)" d="M 108 69.234035 
L 412.363636 69.234035 
" style="fill:none;stroke:#b0b0b0;stroke-linecap:square;stroke-width:0.8;"/>
     </g>
     <g id="line2d_22">
      <g>
       <use style="stroke:#000000;stroke-width:0.8;" x="108" xlink:href="#md9ff78feed" y="69.234035"/>
      </g>
     </g>
     <g id="text_11">
      <!-- 50 -->
      <defs>
       <path d="M 10.796875 72.90625 
L 49.515625 72.90625 
L 49.515625 64.59375 
L 19.828125 64.59375 
L 19.828125 46.734375 
Q 21.96875 47.46875 24.109375 47.828125 
Q 26.265625 48.1875 28.421875 48.1875 
Q 40.625 48.1875 47.75 41.5 
Q 54.890625 34.8125 54.890625 23.390625 
Q 54.890625 11.625 47.5625 5.09375 
Q 40.234375 -1.421875 26.90625 -1.421875 
Q 22.3125 -1.421875 17.546875 -0.640625 
Q 12.796875 0.140625 7.71875 1.703125 
L 7.71875 11.625 
Q 12.109375 9.234375 16.796875 8.0625 
Q 21.484375 6.890625 26.703125 6.890625 
Q 35.15625 6.890625 40.078125 11.328125 
Q 45.015625 15.765625 45.015625 23.390625 
Q 45.015625 31 40.078125 35.4375 
Q 35.15625 39.890625 26.703125 39.890625 
Q 22.75 39.890625 18.8125 39.015625 
Q 14.890625 38.140625 10.796875 36.28125 
z
" id="DejaVuSans-35"/>
      </defs>
      <g transform="translate(88.275 73.033253)scale(0.1 -0.1)">
       <use xlink:href="#DejaVuSans-35"/>
       <use x="63.623047" xlink:href="#DejaVuSans-30"/>
      </g>
     </g>
    </g>
    <g id="ytick_7">
     <g id="line2d_23">
      <path clip-path="url(#p841e9cbf7a)" d="M 108 39.535541 
L 412.363636 39.535541 
" style="fill:none;stroke:#b0b0b0;stroke-linecap:square;stroke-width:0.8;"/>
     </g>
     <g id="line2d_24">
      <g>
       <use style="stroke:#000000;stroke-width:0.8;" x="108" xlink:href="#md9ff78feed" y="39.535541"/>
      </g>
     </g>
     <g id="text_12">
      <!-- 60 -->
      <defs>
       <path d="M 33.015625 40.375 
Q 26.375 40.375 22.484375 35.828125 
Q 18.609375 31.296875 18.609375 23.390625 
Q 18.609375 15.53125 22.484375 10.953125 
Q 26.375 6.390625 33.015625 6.390625 
Q 39.65625 6.390625 43.53125 10.953125 
Q 47.40625 15.53125 47.40625 23.390625 
Q 47.40625 31.296875 43.53125 35.828125 
Q 39.65625 40.375 33.015625 40.375 
M 52.59375 71.296875 
L 52.59375 62.3125 
Q 48.875 64.0625 45.09375 64.984375 
Q 41.3125 65.921875 37.59375 65.921875 
Q 27.828125 65.921875 22.671875 59.328125 
Q 17.53125 52.734375 16.796875 39.40625 
Q 19.671875 43.65625 24.015625 45.921875 
Q 28.375 48.1875 33.59375 48.1875 
Q 44.578125 48.1875 50.953125 41.515625 
Q 57.328125 34.859375 57.328125 23.390625 
Q 57.328125 12.15625 50.6875 5.359375 
Q 44.046875 -1.421875 33.015625 -1.421875 
Q 20.359375 -1.421875 13.671875 8.265625 
Q 6.984375 17.96875 6.984375 36.375 
Q 6.984375 53.65625 15.1875 63.9375 
Q 23.390625 74.21875 37.203125 74.21875 
Q 40.921875 74.21875 44.703125 73.484375 
Q 48.484375 72.75 52.59375 71.296875 
" id="DejaVuSans-36"/>
      </defs>
      <g transform="translate(88.275 43.33476)scale(0.1 -0.1)">
       <use xlink:href="#DejaVuSans-36"/>
       <use x="63.623047" xlink:href="#DejaVuSans-30"/>
      </g>
     </g>
    </g>
   </g>
   <g id="line2d_25">
    <path clip-path="url(#p841e9cbf7a)" d="M 121.834711 212.115291 
L 122.59486 221.498182 
L 123.355009 208.808079 
L 124.115158 208.268355 
L 125.635455 215.137493 
L 126.395604 209.522554 
L 127.155753 208.811261 
L 127.915902 209.052255 
L 128.676051 201.41173 
L 129.4362 202.658766 
L 130.196349 200.576728 
L 130.956498 201.641441 
L 131.716647 205.455617 
L 132.476796 205.623819 
L 133.236945 201.167336 
L 133.997094 201.509093 
L 135.517392 213.98829 
L 136.277541 214.452962 
L 137.03769 212.525224 
L 137.797839 208.393917 
L 138.557987 204.96389 
L 139.318136 204.405101 
L 140.078285 204.682467 
L 140.838434 198.628611 
L 141.598583 204.991741 
L 142.358732 202.83812 
L 143.118881 204.384666 
L 143.87903 207.279326 
L 144.639179 215.800864 
L 145.399328 208.929519 
L 146.159477 204.487208 
L 146.919626 210.953821 
L 147.679775 211.590019 
L 148.439924 211.713818 
L 149.200073 206.682805 
L 149.960222 203.012337 
L 150.720371 206.165539 
L 151.480519 207.87801 
L 152.240668 202.580313 
L 153.000817 208.205771 
L 153.760966 197.590102 
L 154.521115 193.97431 
L 155.281264 201.625173 
L 156.041413 207.989214 
L 156.801562 204.444457 
L 157.561711 187.623623 
L 158.32186 195.410212 
L 159.082009 197.694613 
L 159.842158 207.707461 
L 160.602307 207.706786 
L 161.362456 201.269504 
L 162.122605 201.744709 
L 162.882754 194.865151 
L 163.642903 199.787657 
L 164.403051 200.449885 
L 165.1632 196.78582 
L 165.923349 198.187774 
L 166.683498 197.249143 
L 168.203796 208.051739 
L 168.963945 200.601658 
L 169.724094 202.929737 
L 170.484243 188.358786 
L 171.244392 193.180622 
L 172.004541 182.243522 
L 173.524839 188.23098 
L 174.284988 189.080059 
L 175.045137 191.491668 
L 175.805286 194.704078 
L 176.565435 190.730056 
L 177.325584 190.92517 
L 178.085732 185.314581 
L 178.845881 181.783705 
L 179.60603 179.440103 
L 180.366179 184.226893 
L 181.126328 191.119299 
L 181.886477 176.644446 
L 182.646626 181.100676 
L 183.406775 180.810646 
L 184.166924 182.115339 
L 184.927073 181.126763 
L 185.687222 176.83072 
L 186.447371 179.940356 
L 187.20752 177.715923 
L 187.967669 178.949697 
L 188.727818 182.862246 
L 189.487967 175.376181 
L 190.248116 175.010522 
L 191.008264 167.656514 
L 191.768413 176.7999 
L 194.04886 160.534701 
L 194.809009 162.136559 
L 195.569158 166.055236 
L 196.329307 160.294179 
L 197.089456 161.732706 
L 197.849605 158.820482 
L 198.609754 166.347526 
L 199.369903 159.297524 
L 200.130052 158.416959 
L 201.65035 149.560642 
L 202.410499 152.186577 
L 203.170648 150.10244 
L 203.930796 155.519245 
L 204.690945 159.404753 
L 206.211243 150.199403 
L 206.971392 148.176828 
L 207.731541 147.61543 
L 208.49169 147.89275 
L 209.251839 150.682323 
L 210.011988 155.618351 
L 210.772137 152.020354 
L 211.532286 149.205377 
L 212.292435 151.244998 
L 213.052584 149.811286 
L 213.812733 146.353541 
L 214.572882 137.937712 
L 215.333031 137.798872 
L 216.09318 140.111628 
L 216.853328 137.722001 
L 217.613477 134.401488 
L 218.373626 135.251917 
L 219.133775 138.779601 
L 219.893924 136.308103 
L 220.654073 135.362875 
L 221.414222 135.935815 
L 222.174371 134.233459 
L 222.93452 131.110821 
L 224.454818 123.628843 
L 225.214967 125.958261 
L 225.975116 121.248208 
L 226.735265 121.149093 
L 227.495414 124.670163 
L 228.255563 121.598532 
L 229.015712 119.373681 
L 229.775861 122.183965 
L 230.536009 119.513739 
L 231.296158 119.280825 
L 232.056307 119.430796 
L 232.816456 117.233329 
L 233.576605 118.685294 
L 234.336754 114.962233 
L 235.096903 116.885534 
L 235.857052 120.208901 
L 236.617201 116.38918 
L 237.37735 116.009119 
L 238.137499 108.767725 
L 238.897648 107.298413 
L 239.657797 106.122554 
L 240.417946 108.604105 
L 241.178095 108.277664 
L 241.938244 114.939812 
L 242.698393 108.669813 
L 244.21869 105.29398 
L 244.978839 106.133611 
L 245.738988 108.5551 
L 246.499137 104.275782 
L 247.259286 101.992262 
L 248.019435 103.430286 
L 248.779584 102.71942 
L 249.539733 100.882674 
L 250.299882 97.565662 
L 251.060031 100.494408 
L 251.82018 97.517179 
L 252.580329 98.789324 
L 253.340478 97.796303 
L 254.100627 97.604133 
L 254.860776 97.124708 
L 255.620925 95.645371 
L 257.141222 88.938353 
L 257.901371 89.260382 
L 258.66152 90.812696 
L 259.421669 91.877043 
L 260.181818 86.225158 
L 260.941967 87.892476 
L 261.702116 90.393809 
L 262.462265 89.176791 
L 263.222414 85.245602 
L 263.982563 84.174494 
L 264.742712 83.489657 
L 265.502861 83.865281 
L 266.26301 78.026529 
L 267.023159 76.831507 
L 267.783308 82.517948 
L 268.543457 81.290299 
L 269.303605 78.730058 
L 270.063754 82.593639 
L 270.823903 79.583122 
L 271.584052 74.12106 
L 272.344201 76.836238 
L 273.10435 77.726798 
L 273.864499 78.799782 
L 274.624648 77.747759 
L 275.384797 76.949234 
L 276.144946 78.674376 
L 276.905095 74.168259 
L 277.665244 77.009849 
L 278.425393 75.335774 
L 279.185542 76.753427 
L 279.945691 76.204305 
L 280.70584 74.686621 
L 281.465989 75.85035 
L 282.226137 73.75241 
L 282.986286 76.801438 
L 283.746435 74.540906 
L 284.506584 75.044255 
L 285.266733 78.822043 
L 286.026882 81.837802 
L 286.787031 75.763107 
L 287.54718 81.446875 
L 288.307329 82.201586 
L 289.067478 81.75426 
L 289.827627 82.66652 
L 290.587776 84.243955 
L 291.347925 81.148177 
L 292.108074 82.506746 
L 292.868223 83.27035 
L 293.628372 85.446079 
L 294.388521 83.231297 
L 295.14867 91.332232 
L 295.908818 87.936167 
L 296.668967 85.652663 
L 297.429116 84.768803 
L 298.189265 84.805679 
L 298.949414 89.948265 
L 299.709563 93.537169 
L 300.469712 93.474632 
L 301.229861 94.171643 
L 301.99001 89.524356 
L 302.750159 89.756112 
L 303.510308 89.757241 
L 304.270457 94.557438 
L 305.030606 95.881378 
L 305.790755 98.609283 
L 306.550904 99.921138 
L 307.311053 103.18678 
L 308.071202 104.789797 
L 308.83135 104.709888 
L 309.591499 104.408396 
L 310.351648 100.048418 
L 311.111797 101.74393 
L 311.871946 100.129086 
L 312.632095 108.983824 
L 313.392244 105.193398 
L 314.912542 112.781123 
L 315.672691 120.258542 
L 316.43284 121.90627 
L 317.192989 115.775608 
L 317.953138 117.484136 
L 318.713287 119.477739 
L 319.473436 123.752302 
L 320.233585 119.977122 
L 320.993734 125.836012 
L 321.753882 127.737828 
L 322.514031 135.514963 
L 323.27418 127.229887 
L 324.034329 130.752627 
L 324.794478 129.632016 
L 325.554627 131.671587 
L 326.314776 130.806777 
L 327.074925 129.763632 
L 327.835074 132.810419 
L 328.595223 135.102399 
L 329.355372 133.475338 
L 330.115521 132.701125 
L 330.87567 134.065593 
L 331.635819 137.69219 
L 332.395968 140.61361 
L 333.156117 141.81258 
L 333.916266 140.349495 
L 334.676414 141.859383 
L 335.436563 142.23773 
L 336.196712 139.381721 
L 336.956861 141.003248 
L 337.71701 146.140642 
L 338.477159 141.641783 
L 339.237308 145.768802 
L 339.997457 145.309789 
L 340.757606 146.157221 
L 341.517755 151.086806 
L 342.277904 150.248831 
L 343.038053 151.29571 
L 343.798202 145.136883 
L 344.558351 149.339626 
L 345.3185 149.190393 
L 346.078649 154.03685 
L 346.838798 152.158337 
L 347.598947 159.569946 
L 348.359095 154.793462 
L 349.119244 160.439987 
L 349.879393 161.190302 
L 350.639542 166.454583 
L 351.399691 173.822616 
L 352.15984 172.568663 
L 353.680138 178.59375 
L 354.440287 178.951357 
L 355.200436 181.025344 
L 355.960585 173.956502 
L 357.480883 175.332356 
L 358.241032 177.743996 
L 359.001181 178.600078 
L 359.76133 170.601318 
L 360.521479 173.297271 
L 361.281627 176.753131 
L 362.041776 178.729563 
L 363.562074 195.644515 
L 364.322223 195.814133 
L 365.082372 188.711271 
L 365.842521 188.054218 
L 366.60267 185.908265 
L 367.362819 191.559792 
L 368.122968 193.699935 
L 368.883117 194.912774 
L 369.643266 193.641291 
L 370.403415 188.00014 
L 371.923713 200.85485 
L 372.683862 206.814842 
L 373.444011 198.979077 
L 374.204159 208.975471 
L 374.964308 202.181725 
L 375.724457 198.86125 
L 376.484606 199.529455 
L 377.244755 195.773007 
L 378.004904 198.843276 
L 380.285351 198.360273 
L 381.0455 210.768861 
L 382.565798 205.224168 
L 383.325947 208.585007 
L 384.086096 204.676809 
L 384.846245 207.243409 
L 385.606394 213.391337 
L 386.366543 206.730243 
L 387.126691 198.430879 
L 387.88684 205.375093 
L 388.646989 208.162544 
L 389.407138 203.603188 
L 390.167287 204.977744 
L 390.927436 204.922068 
L 391.687585 211.626734 
L 392.447734 215.959916 
L 393.207883 214.458525 
L 393.968032 204.586709 
L 394.728181 210.256102 
L 395.48833 214.16856 
L 396.248479 211.798169 
L 397.008628 211.294962 
L 397.768777 210.929235 
L 398.528926 212.469783 
L 398.528926 212.469783 
" style="fill:none;stroke:#1f77b4;stroke-linecap:square;stroke-width:1.5;"/>
   </g>
   <g id="line2d_26">
    <path clip-path="url(#p841e9cbf7a)" d="M 121.834711 180.544771 
L 122.59486 188.249018 
L 123.355009 180.900534 
L 124.115158 177.283851 
L 124.875307 176.83667 
L 125.635455 179.835322 
L 126.395604 176.133959 
L 127.155753 176.611837 
L 127.915902 177.587933 
L 128.676051 171.317102 
L 129.4362 170.374177 
L 130.196349 173.800244 
L 130.956498 170.144108 
L 131.716647 172.597941 
L 132.476796 171.293218 
L 133.236945 170.604527 
L 133.997094 171.244201 
L 134.757243 175.277163 
L 135.517392 177.181872 
L 136.277541 180.55305 
L 137.03769 179.543962 
L 137.797839 178.034656 
L 138.557987 176.034149 
L 139.318136 174.933604 
L 140.078285 175.122313 
L 140.838434 169.372843 
L 141.598583 173.681341 
L 142.358732 173.185842 
L 143.118881 175.264496 
L 143.87903 173.446962 
L 144.639179 178.529368 
L 146.159477 173.369441 
L 146.919626 177.160847 
L 147.679775 179.343154 
L 148.439924 178.41589 
L 149.200073 175.739778 
L 149.960222 175.029318 
L 150.720371 173.984725 
L 151.480519 174.549787 
L 152.240668 170.679353 
L 153.000817 174.931886 
L 153.760966 168.175143 
L 154.521115 165.502457 
L 155.281264 171.3363 
L 156.041413 175.748765 
L 156.801562 171.074613 
L 157.561711 162.770133 
L 158.32186 167.664433 
L 159.082009 168.854072 
L 159.842158 173.498265 
L 160.602307 173.634434 
L 161.362456 169.065552 
L 162.122605 170.109145 
L 162.882754 167.283895 
L 163.642903 167.320461 
L 164.403051 169.240518 
L 165.1632 165.50639 
L 165.923349 167.358497 
L 166.683498 164.990795 
L 167.443647 169.659801 
L 168.203796 173.315693 
L 168.963945 170.098318 
L 169.724094 171.002344 
L 170.484243 160.819351 
L 171.244392 164.081317 
L 172.004541 155.573597 
L 172.76469 156.248187 
L 173.524839 155.494314 
L 174.284988 157.870891 
L 175.045137 159.205865 
L 176.565435 162.38367 
L 177.325584 162.82528 
L 178.085732 153.905932 
L 178.845881 150.810563 
L 179.60603 151.642791 
L 180.366179 156.65289 
L 181.126328 158.242794 
L 181.886477 150.71541 
L 182.646626 151.836013 
L 183.406775 152.144866 
L 184.166924 151.580412 
L 184.927073 150.771006 
L 186.447371 150.716234 
L 187.20752 152.207245 
L 187.967669 152.42405 
L 188.727818 152.125087 
L 189.487967 148.560355 
L 191.008264 145.290782 
L 191.768413 151.995765 
L 193.288711 140.610835 
L 194.04886 136.910695 
L 194.809009 139.1571 
L 195.569158 143.526673 
L 196.329307 138.12176 
L 197.089456 139.945205 
L 197.849605 137.587735 
L 198.609754 141.938291 
L 199.369903 137.853987 
L 200.130052 133.147415 
L 200.890201 133.316294 
L 201.65035 129.577358 
L 202.410499 130.69029 
L 203.170648 128.65004 
L 203.930796 134.011592 
L 204.690945 135.676807 
L 205.451094 131.819959 
L 206.211243 129.644301 
L 206.971392 127.963871 
L 207.731541 124.765045 
L 208.49169 128.150248 
L 209.251839 130.748105 
L 210.011988 132.94126 
L 210.772137 131.339945 
L 211.532286 127.43365 
L 212.292435 127.380399 
L 213.052584 127.111105 
L 213.812733 126.574036 
L 214.572882 119.422511 
L 215.333031 120.337657 
L 216.09318 120.473065 
L 216.853328 119.619538 
L 217.613477 113.884473 
L 218.373626 114.7167 
L 219.133775 115.793118 
L 219.893924 117.491805 
L 221.414222 118.012137 
L 222.174371 114.89699 
L 222.93452 110.780737 
L 223.694669 109.080287 
L 224.454818 105.994289 
L 225.214967 105.934953 
L 225.975116 106.0696 
L 226.735265 103.195601 
L 227.495414 104.966556 
L 228.255563 103.24733 
L 229.015712 103.99816 
L 229.775861 105.292905 
L 230.536009 103.883292 
L 231.296158 101.543318 
L 232.056307 103.459571 
L 232.816456 100.368006 
L 233.576605 102.641037 
L 234.336754 97.524436 
L 235.096903 101.096776 
L 235.857052 102.230299 
L 236.617201 99.958828 
L 237.37735 99.025336 
L 238.137499 93.485015 
L 238.897648 92.588127 
L 239.657797 88.661292 
L 241.178095 89.294972 
L 241.938244 91.686674 
L 243.458541 88.258872 
L 244.21869 90.611777 
L 244.978839 90.095249 
L 245.738988 88.388194 
L 246.499137 86.194279 
L 247.259286 86.093103 
L 248.019435 88.822565 
L 248.779584 86.762536 
L 249.539733 85.179479 
L 250.299882 82.748979 
L 251.060031 82.401331 
L 251.82018 82.286462 
L 252.580329 81.983695 
L 253.340478 81.059421 
L 254.100627 78.306377 
L 254.860776 77.468825 
L 255.620925 75.986182 
L 256.381073 74.845103 
L 257.141222 74.656444 
L 258.66152 71.376221 
L 259.421669 73.106098 
L 260.181818 69.825875 
L 260.941967 72.139984 
L 261.702116 72.701395 
L 263.222414 67.73846 
L 263.982563 65.924904 
L 264.742712 66.562387 
L 265.502861 67.711074 
L 266.26301 64.460621 
L 267.023159 63.641224 
L 267.783308 66.763217 
L 268.543457 66.401115 
L 269.303605 61.804847 
L 270.063754 66.315914 
L 270.823903 64.660588 
L 271.584052 60.018677 
L 272.344201 60.884376 
L 273.10435 61.248 
L 273.864499 63.81619 
L 274.624648 63.562109 
L 275.384797 61.337765 
L 276.144946 62.941362 
L 276.905095 62.311486 
L 277.665244 61.328358 
L 278.425393 62.226286 
L 279.185542 61.909826 
L 279.945691 59.833062 
L 280.70584 61.444266 
L 281.465989 60.287972 
L 282.226137 59.636796 
L 282.986286 61.165842 
L 283.746435 60.928498 
L 284.506584 61.365151 
L 285.266733 64.706232 
L 286.026882 66.013148 
L 286.787031 61.231264 
L 287.54718 66.510126 
L 288.307329 64.319862 
L 289.827627 68.978433 
L 290.587776 66.328086 
L 291.347925 66.889497 
L 292.108074 68.220756 
L 292.868223 68.185763 
L 293.628372 70.274699 
L 294.388521 66.18507 
L 295.14867 72.413843 
L 295.908818 69.552016 
L 296.668967 69.742195 
L 297.429116 69.640259 
L 298.189265 68.919097 
L 298.949414 74.148283 
L 299.709563 75.669723 
L 300.469712 75.788395 
L 301.229861 75.411078 
L 301.99001 72.09434 
L 302.750159 73.624908 
L 303.510308 72.782031 
L 304.270457 75.482586 
L 305.030606 78.610665 
L 305.790755 78.94173 
L 306.550904 80.353473 
L 308.071202 84.057417 
L 308.83135 84.464402 
L 309.591499 82.858523 
L 310.351648 81.545521 
L 311.111797 82.521524 
L 311.871946 82.131998 
L 312.632095 85.873699 
L 313.392244 85.54082 
L 314.152393 89.278236 
L 314.912542 92.302096 
L 315.672691 99.9595 
L 316.43284 98.20452 
L 317.192989 95.292485 
L 317.953138 95.882043 
L 318.713287 98.339167 
L 319.473436 100.387785 
L 320.233585 98.530869 
L 320.993734 102.050718 
L 321.753882 107.963031 
L 322.514031 111.759783 
L 323.27418 106.700237 
L 324.034329 108.503142 
L 324.794478 109.689104 
L 325.554627 109.506531 
L 326.314776 111.80999 
L 327.074925 108.914007 
L 327.835074 110.680448 
L 328.595223 111.522679 
L 329.355372 112.140903 
L 330.115521 112.457363 
L 330.87567 115.396022 
L 331.635819 115.8167 
L 332.395968 114.742564 
L 333.156117 118.206881 
L 333.916266 115.850933 
L 334.676414 116.531777 
L 335.436563 119.131156 
L 336.196712 117.851625 
L 336.956861 116.307365 
L 337.71701 120.123895 
L 338.477159 119.220921 
L 339.237308 124.3786 
L 339.997457 124.244713 
L 340.757606 123.990633 
L 341.517755 128.26968 
L 342.277904 128.801423 
L 343.038053 130.354813 
L 343.798202 125.016843 
L 345.3185 127.283788 
L 346.078649 131.873209 
L 346.838798 131.714219 
L 347.598947 136.770722 
L 348.359095 133.478328 
L 349.119244 138.374319 
L 349.879393 134.906198 
L 350.639542 136.528053 
L 351.399691 141.011734 
L 352.15984 142.077502 
L 352.919989 147.75171 
L 353.680138 149.443943 
L 354.440287 150.011808 
L 355.200436 150.43705 
L 355.960585 146.688224 
L 356.720734 144.640367 
L 357.480883 145.429994 
L 358.241032 148.182277 
L 359.001181 148.619691 
L 359.76133 144.982982 
L 360.521479 145.550948 
L 361.281627 146.890575 
L 362.041776 148.596109 
L 362.801925 154.354756 
L 363.562074 160.994317 
L 364.322223 159.12599 
L 365.082372 155.457039 
L 365.842521 157.417413 
L 366.60267 156.588229 
L 367.362819 158.943417 
L 368.883117 165.280211 
L 369.643266 165.03526 
L 370.403415 156.440878 
L 371.163564 160.56375 
L 371.923713 168.609526 
L 372.683862 172.514951 
L 373.444011 170.116892 
L 374.204159 173.435531 
L 374.964308 167.875348 
L 375.724457 167.058774 
L 376.484606 165.586781 
L 377.244755 164.893766 
L 378.004904 165.945169 
L 378.765053 169.185628 
L 379.525202 168.300848 
L 380.285351 168.281972 
L 381.0455 176.872513 
L 381.805649 172.601034 
L 382.565798 172.091811 
L 384.086096 174.082092 
L 384.846245 174.321364 
L 385.606394 173.666777 
L 386.366543 176.011721 
L 387.126691 172.174679 
L 387.88684 172.079471 
L 388.646989 177.578482 
L 389.407138 174.349872 
L 390.167287 174.437269 
L 390.927436 173.042808 
L 392.447734 181.294031 
L 393.207883 180.338334 
L 393.968032 174.062837 
L 394.728181 178.846226 
L 395.48833 180.518947 
L 396.248479 180.632002 
L 397.008628 178.857342 
L 397.768777 179.068191 
L 398.528926 180.384738 
L 398.528926 180.384738 
" style="fill:none;stroke:#ff7f0e;stroke-linecap:square;stroke-width:1.5;"/>
   </g>
   <g id="line2d_27">
    <path clip-path="url(#p841e9cbf7a)" d="M 121.834711 148.974251 
L 122.59486 154.999855 
L 123.355009 152.99299 
L 124.115158 146.299346 
L 124.875307 142.142634 
L 125.635455 144.533151 
L 126.395604 142.745363 
L 127.915902 146.123612 
L 128.676051 141.222474 
L 129.4362 138.089587 
L 130.196349 147.02376 
L 130.956498 138.646775 
L 131.716647 139.740264 
L 132.476796 136.962617 
L 133.236945 140.041717 
L 133.997094 140.979308 
L 134.757243 142.990302 
L 135.517392 140.375455 
L 136.277541 146.653138 
L 137.03769 146.5627 
L 137.797839 147.675394 
L 138.557987 147.104409 
L 139.318136 145.462106 
L 140.078285 145.562159 
L 140.838434 140.117076 
L 141.598583 142.370941 
L 142.358732 143.533563 
L 143.118881 146.144326 
L 143.87903 139.614598 
L 145.399328 142.72782 
L 146.159477 142.251674 
L 146.919626 143.367872 
L 147.679775 147.096289 
L 148.439924 145.117963 
L 149.200073 144.796751 
L 149.960222 147.0463 
L 150.720371 141.803911 
L 151.480519 141.221565 
L 152.240668 138.778393 
L 153.000817 141.658002 
L 153.760966 138.760184 
L 154.521115 137.030605 
L 155.281264 141.047427 
L 156.041413 143.508317 
L 156.801562 137.704768 
L 157.561711 137.916643 
L 158.32186 139.918655 
L 159.082009 140.013531 
L 159.842158 139.289069 
L 160.602307 139.562082 
L 161.362456 136.8616 
L 162.122605 138.473582 
L 162.882754 139.702639 
L 163.642903 134.853265 
L 164.403051 138.03115 
L 165.1632 134.22696 
L 165.923349 136.529221 
L 166.683498 132.732448 
L 167.443647 136.628055 
L 168.203796 138.579646 
L 168.963945 139.594977 
L 169.724094 139.074951 
L 170.484243 133.279916 
L 171.244392 134.982012 
L 172.004541 128.903671 
L 172.76469 127.449364 
L 173.524839 122.757648 
L 174.284988 126.661723 
L 175.805286 127.117197 
L 176.565435 134.037283 
L 177.325584 134.72539 
L 178.085732 122.497282 
L 178.845881 119.837422 
L 179.60603 123.845478 
L 180.366179 129.078888 
L 181.126328 125.36629 
L 181.886477 124.786374 
L 182.646626 122.571351 
L 183.406775 123.479085 
L 184.166924 121.045484 
L 184.927073 120.415249 
L 185.687222 124.708249 
L 186.447371 121.492113 
L 187.20752 126.698566 
L 187.967669 125.898402 
L 188.727818 121.387928 
L 189.487967 121.744529 
L 190.248116 119.007973 
L 191.768413 127.191629 
L 192.528562 122.047695 
L 193.288711 115.696075 
L 194.04886 113.286688 
L 194.809009 116.17764 
L 195.569158 120.99811 
L 196.329307 115.949342 
L 197.089456 118.157704 
L 197.849605 116.354988 
L 198.609754 117.529055 
L 199.369903 116.41045 
L 200.130052 107.877871 
L 200.890201 112.87282 
L 201.65035 109.594073 
L 202.410499 109.194004 
L 203.170648 107.197641 
L 203.930796 112.50394 
L 204.690945 111.948862 
L 205.451094 108.870426 
L 206.211243 109.089199 
L 206.971392 107.750914 
L 207.731541 101.914661 
L 208.49169 108.407745 
L 209.251839 110.813887 
L 210.011988 110.264168 
L 210.772137 110.659535 
L 211.532286 105.661922 
L 212.292435 103.5158 
L 213.052584 104.410923 
L 213.812733 106.794532 
L 214.572882 100.907311 
L 215.333031 102.876442 
L 216.09318 100.834502 
L 216.853328 101.517074 
L 217.613477 93.367457 
L 218.373626 94.181483 
L 219.133775 92.806636 
L 219.893924 98.675507 
L 220.654073 100.223225 
L 221.414222 100.088459 
L 222.93452 90.450652 
L 223.694669 90.843927 
L 225.214967 85.911645 
L 225.975116 90.890992 
L 226.735265 85.24211 
L 227.495414 85.26295 
L 228.255563 84.896128 
L 229.015712 88.62264 
L 230.536009 88.252844 
L 231.296158 83.805812 
L 232.056307 87.488345 
L 232.816456 83.502684 
L 233.576605 86.59678 
L 234.336754 80.08664 
L 235.096903 85.308017 
L 235.857052 84.251696 
L 236.617201 83.528476 
L 237.37735 82.041554 
L 238.137499 78.202306 
L 238.897648 77.877841 
L 239.657797 71.200031 
L 240.417946 69.260112 
L 241.178095 70.31228 
L 241.938244 68.433536 
L 242.698393 71.342676 
L 243.458541 69.615941 
L 244.21869 75.929574 
L 244.978839 74.056887 
L 245.738988 68.221288 
L 246.499137 68.112775 
L 247.259286 70.193944 
L 248.019435 74.214844 
L 248.779584 70.805652 
L 250.299882 67.932297 
L 251.060031 64.308254 
L 251.82018 67.055745 
L 252.580329 65.178067 
L 253.340478 64.322539 
L 254.100627 59.008621 
L 254.860776 57.812942 
L 255.620925 56.326993 
L 256.381073 57.653182 
L 257.141222 60.374535 
L 257.901371 56.717512 
L 258.66152 51.939746 
L 259.421669 54.335152 
L 260.181818 53.426591 
L 260.941967 56.387491 
L 261.702116 55.00898 
L 262.462265 51.26002 
L 263.222414 50.231318 
L 263.982563 47.675315 
L 265.502861 51.556867 
L 266.26301 50.894712 
L 267.023159 50.450941 
L 268.543457 51.511931 
L 269.303605 44.879636 
L 270.063754 50.038189 
L 270.823903 49.738055 
L 271.584052 45.916294 
L 272.344201 44.932515 
L 273.10435 44.769202 
L 273.864499 48.832597 
L 274.624648 49.376459 
L 275.384797 45.726296 
L 276.144946 47.208348 
L 276.905095 50.454713 
L 277.665244 45.646866 
L 278.425393 49.116797 
L 279.185542 47.066226 
L 279.945691 43.461818 
L 280.70584 48.20191 
L 281.465989 44.725594 
L 282.226137 45.521182 
L 282.986286 45.530246 
L 283.746435 47.316089 
L 284.506584 47.686047 
L 285.266733 50.59042 
L 286.026882 50.188494 
L 286.787031 46.699422 
L 287.54718 51.573377 
L 288.307329 46.438139 
L 289.067478 51.374268 
L 289.827627 55.290346 
L 290.587776 48.412217 
L 291.347925 52.630817 
L 292.108074 53.934766 
L 292.868223 53.101176 
L 293.628372 55.103319 
L 294.388521 49.138844 
L 295.14867 53.495453 
L 295.908818 51.167864 
L 296.668967 53.831728 
L 297.429116 54.511714 
L 298.189265 53.032515 
L 298.949414 58.348302 
L 299.709563 57.802276 
L 300.469712 58.102158 
L 301.229861 56.650513 
L 301.99001 54.664325 
L 302.750159 57.493705 
L 303.510308 55.806821 
L 304.270457 56.407733 
L 305.030606 61.339951 
L 305.790755 59.274177 
L 306.550904 60.785809 
L 307.311053 61.036212 
L 308.071202 63.325038 
L 308.83135 64.218916 
L 309.591499 61.30865 
L 310.351648 63.042624 
L 311.111797 63.299119 
L 311.871946 64.134909 
L 312.632095 62.763573 
L 313.392244 65.888243 
L 314.152393 69.777133 
L 314.912542 71.82307 
L 315.672691 79.660458 
L 316.43284 74.502769 
L 317.192989 74.809363 
L 317.953138 74.27995 
L 318.713287 77.200595 
L 319.473436 77.023268 
L 320.233585 77.084615 
L 320.993734 78.265424 
L 321.753882 88.188234 
L 322.514031 88.004602 
L 323.27418 86.170586 
L 324.034329 86.253657 
L 324.794478 89.746191 
L 325.554627 87.341476 
L 326.314776 92.813204 
L 327.074925 88.064381 
L 327.835074 88.550477 
L 328.595223 87.942959 
L 329.355372 90.806468 
L 330.115521 92.2136 
L 330.87567 96.726451 
L 331.635819 93.941211 
L 332.395968 88.871519 
L 333.156117 94.601183 
L 333.916266 91.352371 
L 334.676414 91.204171 
L 335.436563 96.024581 
L 336.196712 96.32153 
L 336.956861 91.611481 
L 338.477159 96.800059 
L 339.237308 102.988398 
L 339.997457 103.179637 
L 340.757606 101.824044 
L 341.517755 105.452555 
L 343.038053 109.413916 
L 343.798202 104.896804 
L 344.558351 103.09185 
L 345.3185 105.377183 
L 346.078649 109.709568 
L 346.838798 111.270101 
L 347.598947 113.971499 
L 348.359095 112.163194 
L 349.119244 116.308651 
L 349.879393 108.622095 
L 350.639542 106.601522 
L 351.399691 108.200852 
L 352.15984 111.586341 
L 352.919989 119.875255 
L 353.680138 120.294137 
L 354.440287 121.072259 
L 355.200436 119.848756 
L 355.960585 119.419946 
L 356.720734 114.644909 
L 357.480883 115.527631 
L 358.241032 118.620559 
L 359.001181 118.639304 
L 359.76133 119.364646 
L 360.521479 117.804625 
L 361.281627 117.02802 
L 362.041776 118.462654 
L 362.801925 121.317226 
L 363.562074 126.344119 
L 364.322223 122.437846 
L 365.082372 122.202807 
L 365.842521 126.780608 
L 366.60267 127.268193 
L 367.362819 126.327041 
L 368.122968 130.348727 
L 368.883117 135.647649 
L 369.643266 136.429228 
L 370.403415 124.881615 
L 371.163564 126.305887 
L 371.923713 136.364202 
L 372.683862 138.215061 
L 373.444011 141.254707 
L 374.204159 137.895591 
L 374.964308 133.568971 
L 375.724457 135.256297 
L 376.484606 131.644108 
L 377.244755 134.014524 
L 378.004904 133.047062 
L 378.765053 139.652679 
L 379.525202 138.007476 
L 380.285351 138.203672 
L 381.0455 142.976165 
L 381.805649 137.242378 
L 382.565798 138.959454 
L 383.325947 137.518098 
L 384.086096 143.487376 
L 384.846245 141.399319 
L 385.606394 133.942218 
L 386.366543 145.293198 
L 387.126691 145.918479 
L 387.88684 138.783849 
L 388.646989 146.99442 
L 389.407138 145.096555 
L 390.167287 143.896794 
L 390.927436 141.163547 
L 391.687585 142.453041 
L 392.447734 146.628146 
L 393.207883 146.218143 
L 393.968032 143.538966 
L 394.728181 147.436349 
L 395.48833 146.869333 
L 396.248479 149.465836 
L 397.008628 146.419721 
L 397.768777 147.207147 
L 398.528926 148.299692 
L 398.528926 148.299692 
" style="fill:none;stroke:#2ca02c;stroke-linecap:square;stroke-width:1.5;"/>
   </g>
   <g id="patch_3">
    <path d="M 108 230.4 
L 108 34.56 
" style="fill:none;stroke:#000000;stroke-linecap:square;stroke-linejoin:miter;stroke-width:0.8;"/>
   </g>
   <g id="patch_4">
    <path d="M 412.363636 230.4 
L 412.363636 34.56 
" style="fill:none;stroke:#000000;stroke-linecap:square;stroke-linejoin:miter;stroke-width:0.8;"/>
   </g>
   <g id="patch_5">
    <path d="M 108 230.4 
L 412.363636 230.4 
" style="fill:none;stroke:#000000;stroke-linecap:square;stroke-linejoin:miter;stroke-width:0.8;"/>
   </g>
   <g id="patch_6">
    <path d="M 108 34.56 
L 412.363636 34.56 
" style="fill:none;stroke:#000000;stroke-linecap:square;stroke-linejoin:miter;stroke-width:0.8;"/>
   </g>
   <g id="text_13">
    <!-- Mean+-std   TMIN of USW00024057 -->
    <defs>
     <path d="M 9.8125 72.90625 
L 24.515625 72.90625 
L 43.109375 23.296875 
L 61.8125 72.90625 
L 76.515625 72.90625 
L 76.515625 0 
L 66.890625 0 
L 66.890625 64.015625 
L 48.09375 14.015625 
L 38.1875 14.015625 
L 19.390625 64.015625 
L 19.390625 0 
L 9.8125 0 
z
" id="DejaVuSans-4d"/>
     <path d="M 56.203125 29.59375 
L 56.203125 25.203125 
L 14.890625 25.203125 
Q 15.484375 15.921875 20.484375 11.0625 
Q 25.484375 6.203125 34.421875 6.203125 
Q 39.59375 6.203125 44.453125 7.46875 
Q 49.3125 8.734375 54.109375 11.28125 
L 54.109375 2.78125 
Q 49.265625 0.734375 44.1875 -0.34375 
Q 39.109375 -1.421875 33.890625 -1.421875 
Q 20.796875 -1.421875 13.15625 6.1875 
Q 5.515625 13.8125 5.515625 26.8125 
Q 5.515625 40.234375 12.765625 48.109375 
Q 20.015625 56 32.328125 56 
Q 43.359375 56 49.78125 48.890625 
Q 56.203125 41.796875 56.203125 29.59375 
M 47.21875 32.234375 
Q 47.125 39.59375 43.09375 43.984375 
Q 39.0625 48.390625 32.421875 48.390625 
Q 24.90625 48.390625 20.390625 44.140625 
Q 15.875 39.890625 15.1875 32.171875 
z
" id="DejaVuSans-65"/>
     <path d="M 46 62.703125 
L 46 35.5 
L 73.1875 35.5 
L 73.1875 27.203125 
L 46 27.203125 
L 46 0 
L 37.796875 0 
L 37.796875 27.203125 
L 10.59375 27.203125 
L 10.59375 35.5 
L 37.796875 35.5 
L 37.796875 62.703125 
z
" id="DejaVuSans-2b"/>
     <path d="M 4.890625 31.390625 
L 31.203125 31.390625 
L 31.203125 23.390625 
L 4.890625 23.390625 
z
" id="DejaVuSans-2d"/>
     <path d="M 44.28125 53.078125 
L 44.28125 44.578125 
Q 40.484375 46.53125 36.375 47.5 
Q 32.28125 48.484375 27.875 48.484375 
Q 21.1875 48.484375 17.84375 46.4375 
Q 14.5 44.390625 14.5 40.28125 
Q 14.5 37.15625 16.890625 35.375 
Q 19.28125 33.59375 26.515625 31.984375 
L 29.59375 31.296875 
Q 39.15625 29.25 43.1875 25.515625 
Q 47.21875 21.78125 47.21875 15.09375 
Q 47.21875 7.46875 41.1875 3.015625 
Q 35.15625 -1.421875 24.609375 -1.421875 
Q 20.21875 -1.421875 15.453125 -0.5625 
Q 10.6875 0.296875 5.421875 2 
L 5.421875 11.28125 
Q 10.40625 8.6875 15.234375 7.390625 
Q 20.0625 6.109375 24.8125 6.109375 
Q 31.15625 6.109375 34.5625 8.28125 
Q 37.984375 10.453125 37.984375 14.40625 
Q 37.984375 18.0625 35.515625 20.015625 
Q 33.0625 21.96875 24.703125 23.78125 
L 21.578125 24.515625 
Q 13.234375 26.265625 9.515625 29.90625 
Q 5.8125 33.546875 5.8125 39.890625 
Q 5.8125 47.609375 11.28125 51.796875 
Q 16.75 56 26.8125 56 
Q 31.78125 56 36.171875 55.265625 
Q 40.578125 54.546875 44.28125 53.078125 
" id="DejaVuSans-73"/>
     <path d="M 45.40625 46.390625 
L 45.40625 75.984375 
L 54.390625 75.984375 
L 54.390625 0 
L 45.40625 0 
L 45.40625 8.203125 
Q 42.578125 3.328125 38.25 0.953125 
Q 33.9375 -1.421875 27.875 -1.421875 
Q 17.96875 -1.421875 11.734375 6.484375 
Q 5.515625 14.40625 5.515625 27.296875 
Q 5.515625 40.1875 11.734375 48.09375 
Q 17.96875 56 27.875 56 
Q 33.9375 56 38.25 53.625 
Q 42.578125 51.265625 45.40625 46.390625 
M 14.796875 27.296875 
Q 14.796875 17.390625 18.875 11.75 
Q 22.953125 6.109375 30.078125 6.109375 
Q 37.203125 6.109375 41.296875 11.75 
Q 45.40625 17.390625 45.40625 27.296875 
Q 45.40625 37.203125 41.296875 42.84375 
Q 37.203125 48.484375 30.078125 48.484375 
Q 22.953125 48.484375 18.875 42.84375 
Q 14.796875 37.203125 14.796875 27.296875 
" id="DejaVuSans-64"/>
     <path id="DejaVuSans-20"/>
     <path d="M -0.296875 72.90625 
L 61.375 72.90625 
L 61.375 64.59375 
L 35.5 64.59375 
L 35.5 0 
L 25.59375 0 
L 25.59375 64.59375 
L -0.296875 64.59375 
z
" id="DejaVuSans-54"/>
     <path d="M 9.8125 72.90625 
L 19.671875 72.90625 
L 19.671875 0 
L 9.8125 0 
z
" id="DejaVuSans-49"/>
     <path d="M 9.8125 72.90625 
L 23.09375 72.90625 
L 55.421875 11.921875 
L 55.421875 72.90625 
L 64.984375 72.90625 
L 64.984375 0 
L 51.703125 0 
L 19.390625 60.984375 
L 19.390625 0 
L 9.8125 0 
z
" id="DejaVuSans-4e"/>
     <path d="M 30.609375 48.390625 
Q 23.390625 48.390625 19.1875 42.75 
Q 14.984375 37.109375 14.984375 27.296875 
Q 14.984375 17.484375 19.15625 11.84375 
Q 23.34375 6.203125 30.609375 6.203125 
Q 37.796875 6.203125 41.984375 11.859375 
Q 46.1875 17.53125 46.1875 27.296875 
Q 46.1875 37.015625 41.984375 42.703125 
Q 37.796875 48.390625 30.609375 48.390625 
M 30.609375 56 
Q 42.328125 56 49.015625 48.375 
Q 55.71875 40.765625 55.71875 27.296875 
Q 55.71875 13.875 49.015625 6.21875 
Q 42.328125 -1.421875 30.609375 -1.421875 
Q 18.84375 -1.421875 12.171875 6.21875 
Q 5.515625 13.875 5.515625 27.296875 
Q 5.515625 40.765625 12.171875 48.375 
Q 18.84375 56 30.609375 56 
" id="DejaVuSans-6f"/>
     <path d="M 37.109375 75.984375 
L 37.109375 68.5 
L 28.515625 68.5 
Q 23.6875 68.5 21.796875 66.546875 
Q 19.921875 64.59375 19.921875 59.515625 
L 19.921875 54.6875 
L 34.71875 54.6875 
L 34.71875 47.703125 
L 19.921875 47.703125 
L 19.921875 0 
L 10.890625 0 
L 10.890625 47.703125 
L 2.296875 47.703125 
L 2.296875 54.6875 
L 10.890625 54.6875 
L 10.890625 58.5 
Q 10.890625 67.625 15.140625 71.796875 
Q 19.390625 75.984375 28.609375 75.984375 
z
" id="DejaVuSans-66"/>
     <path d="M 8.6875 72.90625 
L 18.609375 72.90625 
L 18.609375 28.609375 
Q 18.609375 16.890625 22.84375 11.734375 
Q 27.09375 6.59375 36.625 6.59375 
Q 46.09375 6.59375 50.34375 11.734375 
Q 54.59375 16.890625 54.59375 28.609375 
L 54.59375 72.90625 
L 64.5 72.90625 
L 64.5 27.390625 
Q 64.5 13.140625 57.4375 5.859375 
Q 50.390625 -1.421875 36.625 -1.421875 
Q 22.796875 -1.421875 15.734375 5.859375 
Q 8.6875 13.140625 8.6875 27.390625 
z
" id="DejaVuSans-55"/>
     <path d="M 53.515625 70.515625 
L 53.515625 60.890625 
Q 47.90625 63.578125 42.921875 64.890625 
Q 37.9375 66.21875 33.296875 66.21875 
Q 25.25 66.21875 20.875 63.09375 
Q 16.5 59.96875 16.5 54.203125 
Q 16.5 49.359375 19.40625 46.890625 
Q 22.3125 44.4375 30.421875 42.921875 
L 36.375 41.703125 
Q 47.40625 39.59375 52.65625 34.296875 
Q 57.90625 29 57.90625 20.125 
Q 57.90625 9.515625 50.796875 4.046875 
Q 43.703125 -1.421875 29.984375 -1.421875 
Q 24.8125 -1.421875 18.96875 -0.25 
Q 13.140625 0.921875 6.890625 3.21875 
L 6.890625 13.375 
Q 12.890625 10.015625 18.65625 8.296875 
Q 24.421875 6.59375 29.984375 6.59375 
Q 38.421875 6.59375 43.015625 9.90625 
Q 47.609375 13.234375 47.609375 19.390625 
Q 47.609375 24.75 44.3125 27.78125 
Q 41.015625 30.8125 33.5 32.328125 
L 27.484375 33.5 
Q 16.453125 35.6875 11.515625 40.375 
Q 6.59375 45.0625 6.59375 53.421875 
Q 6.59375 63.09375 13.40625 68.65625 
Q 20.21875 74.21875 32.171875 74.21875 
Q 37.3125 74.21875 42.625 73.28125 
Q 47.953125 72.359375 53.515625 70.515625 
" id="DejaVuSans-53"/>
     <path d="M 3.328125 72.90625 
L 13.28125 72.90625 
L 28.609375 11.28125 
L 43.890625 72.90625 
L 54.984375 72.90625 
L 70.3125 11.28125 
L 85.59375 72.90625 
L 95.609375 72.90625 
L 77.296875 0 
L 64.890625 0 
L 49.515625 63.28125 
L 33.984375 0 
L 21.578125 0 
z
" id="DejaVuSans-57"/>
     <path d="M 8.203125 72.90625 
L 55.078125 72.90625 
L 55.078125 68.703125 
L 28.609375 0 
L 18.3125 0 
L 43.21875 64.59375 
L 8.203125 64.59375 
z
" id="DejaVuSans-37"/>
    </defs>
    <g transform="translate(152.263381 28.56)scale(0.12 -0.12)">
     <use xlink:href="#DejaVuSans-4d"/>
     <use x="86.279297" xlink:href="#DejaVuSans-65"/>
     <use x="147.802734" xlink:href="#DejaVuSans-61"/>
     <use x="209.082031" xlink:href="#DejaVuSans-6e"/>
     <use x="272.460938" xlink:href="#DejaVuSans-2b"/>
     <use x="356.25" xlink:href="#DejaVuSans-2d"/>
     <use x="392.333984" xlink:href="#DejaVuSans-73"/>
     <use x="444.433594" xlink:href="#DejaVuSans-74"/>
     <use x="483.642578" xlink:href="#DejaVuSans-64"/>
     <use x="547.119141" xlink:href="#DejaVuSans-20"/>
     <use x="578.90625" xlink:href="#DejaVuSans-20"/>
     <use x="610.693359" xlink:href="#DejaVuSans-20"/>
     <use x="642.480469" xlink:href="#DejaVuSans-54"/>
     <use x="703.564453" xlink:href="#DejaVuSans-4d"/>
     <use x="789.84375" xlink:href="#DejaVuSans-49"/>
     <use x="819.335938" xlink:href="#DejaVuSans-4e"/>
     <use x="894.140625" xlink:href="#DejaVuSans-20"/>
     <use x="925.927734" xlink:href="#DejaVuSans-6f"/>
     <use x="987.109375" xlink:href="#DejaVuSans-66"/>
     <use x="1022.314453" xlink:href="#DejaVuSans-20"/>
     <use x="1054.101562" xlink:href="#DejaVuSans-55"/>
     <use x="1127.294922" xlink:href="#DejaVuSans-53"/>
     <use x="1190.771484" xlink:href="#DejaVuSans-57"/>
     <use x="1289.648438" xlink:href="#DejaVuSans-30"/>
     <use x="1353.271484" xlink:href="#DejaVuSans-30"/>
     <use x="1416.894531" xlink:href="#DejaVuSans-30"/>
     <use x="1480.517578" xlink:href="#DejaVuSans-32"/>
     <use x="1544.140625" xlink:href="#DejaVuSans-34"/>
     <use x="1607.763672" xlink:href="#DejaVuSans-30"/>
     <use x="1671.386719" xlink:href="#DejaVuSans-35"/>
     <use x="1735.009766" xlink:href="#DejaVuSans-37"/>
    </g>
   </g>
   <g id="legend_1">
    <g id="patch_7">
     <path d="M 367.001136 86.594375 
L 405.363636 86.594375 
Q 407.363636 86.594375 407.363636 84.594375 
L 407.363636 41.56 
Q 407.363636 39.56 405.363636 39.56 
L 367.001136 39.56 
Q 365.001136 39.56 365.001136 41.56 
L 365.001136 84.594375 
Q 365.001136 86.594375 367.001136 86.594375 
z
" style="fill:#ffffff;opacity:0.8;stroke:#cccccc;stroke-linejoin:miter;"/>
    </g>
    <g id="line2d_28">
     <path d="M 369.001136 47.658438 
L 389.001136 47.658438 
" style="fill:none;stroke:#1f77b4;stroke-linecap:square;stroke-width:1.5;"/>
    </g>
    <g id="line2d_29"/>
    <g id="text_14">
     <!-- 0 -->
     <g transform="translate(397.001136 51.158438)scale(0.1 -0.1)">
      <use xlink:href="#DejaVuSans-30"/>
     </g>
    </g>
    <g id="line2d_30">
     <path d="M 369.001136 62.336563 
L 389.001136 62.336563 
" style="fill:none;stroke:#ff7f0e;stroke-linecap:square;stroke-width:1.5;"/>
    </g>
    <g id="line2d_31"/>
    <g id="text_15">
     <!-- 1 -->
     <g transform="translate(397.001136 65.836563)scale(0.1 -0.1)">
      <use xlink:href="#DejaVuSans-31"/>
     </g>
    </g>
    <g id="line2d_32">
     <path d="M 369.001136 77.014688 
L 389.001136 77.014688 
" style="fill:none;stroke:#2ca02c;stroke-linecap:square;stroke-width:1.5;"/>
    </g>
    <g id="line2d_33"/>
    <g id="text_16">
     <!-- 2 -->
     <g transform="translate(397.001136 80.514688)scale(0.1 -0.1)">
      <use xlink:href="#DejaVuSans-32"/>
     </g>
    </g>
   </g>
  </g>
  <g id="axes_2">
   <g id="patch_8">
    <path d="M 473.236364 230.4 
L 777.6 230.4 
L 777.6 34.56 
L 473.236364 34.56 
z
" style="fill:#ffffff;"/>
   </g>
   <g id="matplotlib.axis_3">
    <g id="xtick_6">
     <g id="line2d_34">
      <path clip-path="url(#pe29ac5a209)" d="M 487.071074 230.4 
L 487.071074 34.56 
" style="fill:none;stroke:#b0b0b0;stroke-linecap:square;stroke-width:0.8;"/>
     </g>
     <g id="line2d_35">
      <g>
       <use style="stroke:#000000;stroke-width:0.8;" x="487.071074" xlink:href="#m517400b465" y="230.4"/>
      </g>
     </g>
     <g id="text_17">
      <!-- Jan -->
      <g transform="translate(472.680908 251.688252)rotate(-30)scale(0.1 -0.1)">
       <use xlink:href="#DejaVuSans-4a"/>
       <use x="29.492188" xlink:href="#DejaVuSans-61"/>
       <use x="90.771484" xlink:href="#DejaVuSans-6e"/>
      </g>
     </g>
    </g>
    <g id="xtick_7">
     <g id="line2d_36">
      <path clip-path="url(#pe29ac5a209)" d="M 555.484479 230.4 
L 555.484479 34.56 
" style="fill:none;stroke:#b0b0b0;stroke-linecap:square;stroke-width:0.8;"/>
     </g>
     <g id="line2d_37">
      <g>
       <use style="stroke:#000000;stroke-width:0.8;" x="555.484479" xlink:href="#m517400b465" y="230.4"/>
      </g>
     </g>
     <g id="text_18">
      <!-- Apr -->
      <g transform="translate(539.462396 252.63044)rotate(-30)scale(0.1 -0.1)">
       <use xlink:href="#DejaVuSans-41"/>
       <use x="68.408203" xlink:href="#DejaVuSans-70"/>
       <use x="131.884766" xlink:href="#DejaVuSans-72"/>
      </g>
     </g>
    </g>
    <g id="xtick_8">
     <g id="line2d_38">
      <path clip-path="url(#pe29ac5a209)" d="M 624.658033 230.4 
L 624.658033 34.56 
" style="fill:none;stroke:#b0b0b0;stroke-linecap:square;stroke-width:0.8;"/>
     </g>
     <g id="line2d_39">
      <g>
       <use style="stroke:#000000;stroke-width:0.8;" x="624.658033" xlink:href="#m517400b465" y="230.4"/>
      </g>
     </g>
     <g id="text_19">
      <!-- Jul -->
      <g transform="translate(613.169051 250.013252)rotate(-30)scale(0.1 -0.1)">
       <use xlink:href="#DejaVuSans-4a"/>
       <use x="29.492188" xlink:href="#DejaVuSans-75"/>
       <use x="92.871094" xlink:href="#DejaVuSans-6c"/>
      </g>
     </g>
    </g>
    <g id="xtick_9">
     <g id="line2d_40">
      <path clip-path="url(#pe29ac5a209)" d="M 694.591736 230.4 
L 694.591736 34.56 
" style="fill:none;stroke:#b0b0b0;stroke-linecap:square;stroke-width:0.8;"/>
     </g>
     <g id="line2d_41">
      <g>
       <use style="stroke:#000000;stroke-width:0.8;" x="694.591736" xlink:href="#m517400b465" y="230.4"/>
      </g>
     </g>
     <g id="text_20">
      <!-- Oct -->
      <g transform="translate(678.577771 252.625752)rotate(-30)scale(0.1 -0.1)">
       <use xlink:href="#DejaVuSans-4f"/>
       <use x="78.710938" xlink:href="#DejaVuSans-63"/>
       <use x="133.691406" xlink:href="#DejaVuSans-74"/>
      </g>
     </g>
    </g>
    <g id="xtick_10">
     <g id="line2d_42">
      <path clip-path="url(#pe29ac5a209)" d="M 764.525438 230.4 
L 764.525438 34.56 
" style="fill:none;stroke:#b0b0b0;stroke-linecap:square;stroke-width:0.8;"/>
     </g>
     <g id="line2d_43">
      <g>
       <use style="stroke:#000000;stroke-width:0.8;" x="764.525438" xlink:href="#m517400b465" y="230.4"/>
      </g>
     </g>
     <g id="text_21">
      <!-- Jan -->
      <g transform="translate(750.135272 251.688252)rotate(-30)scale(0.1 -0.1)">
       <use xlink:href="#DejaVuSans-4a"/>
       <use x="29.492188" xlink:href="#DejaVuSans-61"/>
       <use x="90.771484" xlink:href="#DejaVuSans-6e"/>
      </g>
     </g>
    </g>
   </g>
   <g id="matplotlib.axis_4">
    <g id="ytick_8">
     <g id="line2d_44">
      <path clip-path="url(#pe29ac5a209)" d="M 473.236364 222.811939 
L 777.6 222.811939 
" style="fill:none;stroke:#b0b0b0;stroke-linecap:square;stroke-width:0.8;"/>
     </g>
     <g id="line2d_45">
      <g>
       <use style="stroke:#000000;stroke-width:0.8;" x="473.236364" xlink:href="#md9ff78feed" y="222.811939"/>
      </g>
     </g>
     <g id="text_22">
      <!-- 20 -->
      <g transform="translate(453.511364 226.611158)scale(0.1 -0.1)">
       <use xlink:href="#DejaVuSans-32"/>
       <use x="63.623047" xlink:href="#DejaVuSans-30"/>
      </g>
     </g>
    </g>
    <g id="ytick_9">
     <g id="line2d_46">
      <path clip-path="url(#pe29ac5a209)" d="M 473.236364 197.767447 
L 777.6 197.767447 
" style="fill:none;stroke:#b0b0b0;stroke-linecap:square;stroke-width:0.8;"/>
     </g>
     <g id="line2d_47">
      <g>
       <use style="stroke:#000000;stroke-width:0.8;" x="473.236364" xlink:href="#md9ff78feed" y="197.767447"/>
      </g>
     </g>
     <g id="text_23">
      <!-- 30 -->
      <g transform="translate(453.511364 201.566666)scale(0.1 -0.1)">
       <use xlink:href="#DejaVuSans-33"/>
       <use x="63.623047" xlink:href="#DejaVuSans-30"/>
      </g>
     </g>
    </g>
    <g id="ytick_10">
     <g id="line2d_48">
      <path clip-path="url(#pe29ac5a209)" d="M 473.236364 172.722955 
L 777.6 172.722955 
" style="fill:none;stroke:#b0b0b0;stroke-linecap:square;stroke-width:0.8;"/>
     </g>
     <g id="line2d_49">
      <g>
       <use style="stroke:#000000;stroke-width:0.8;" x="473.236364" xlink:href="#md9ff78feed" y="172.722955"/>
      </g>
     </g>
     <g id="text_24">
      <!-- 40 -->
      <g transform="translate(453.511364 176.522174)scale(0.1 -0.1)">
       <use xlink:href="#DejaVuSans-34"/>
       <use x="63.623047" xlink:href="#DejaVuSans-30"/>
      </g>
     </g>
    </g>
    <g id="ytick_11">
     <g id="line2d_50">
      <path clip-path="url(#pe29ac5a209)" d="M 473.236364 147.678463 
L 777.6 147.678463 
" style="fill:none;stroke:#b0b0b0;stroke-linecap:square;stroke-width:0.8;"/>
     </g>
     <g id="line2d_51">
      <g>
       <use style="stroke:#000000;stroke-width:0.8;" x="473.236364" xlink:href="#md9ff78feed" y="147.678463"/>
      </g>
     </g>
     <g id="text_25">
      <!-- 50 -->
      <g transform="translate(453.511364 151.477682)scale(0.1 -0.1)">
       <use xlink:href="#DejaVuSans-35"/>
       <use x="63.623047" xlink:href="#DejaVuSans-30"/>
      </g>
     </g>
    </g>
    <g id="ytick_12">
     <g id="line2d_52">
      <path clip-path="url(#pe29ac5a209)" d="M 473.236364 122.633971 
L 777.6 122.633971 
" style="fill:none;stroke:#b0b0b0;stroke-linecap:square;stroke-width:0.8;"/>
     </g>
     <g id="line2d_53">
      <g>
       <use style="stroke:#000000;stroke-width:0.8;" x="473.236364" xlink:href="#md9ff78feed" y="122.633971"/>
      </g>
     </g>
     <g id="text_26">
      <!-- 60 -->
      <g transform="translate(453.511364 126.43319)scale(0.1 -0.1)">
       <use xlink:href="#DejaVuSans-36"/>
       <use x="63.623047" xlink:href="#DejaVuSans-30"/>
      </g>
     </g>
    </g>
    <g id="ytick_13">
     <g id="line2d_54">
      <path clip-path="url(#pe29ac5a209)" d="M 473.236364 97.589479 
L 777.6 97.589479 
" style="fill:none;stroke:#b0b0b0;stroke-linecap:square;stroke-width:0.8;"/>
     </g>
     <g id="line2d_55">
      <g>
       <use style="stroke:#000000;stroke-width:0.8;" x="473.236364" xlink:href="#md9ff78feed" y="97.589479"/>
      </g>
     </g>
     <g id="text_27">
      <!-- 70 -->
      <g transform="translate(453.511364 101.388698)scale(0.1 -0.1)">
       <use xlink:href="#DejaVuSans-37"/>
       <use x="63.623047" xlink:href="#DejaVuSans-30"/>
      </g>
     </g>
    </g>
    <g id="ytick_14">
     <g id="line2d_56">
      <path clip-path="url(#pe29ac5a209)" d="M 473.236364 72.544987 
L 777.6 72.544987 
" style="fill:none;stroke:#b0b0b0;stroke-linecap:square;stroke-width:0.8;"/>
     </g>
     <g id="line2d_57">
      <g>
       <use style="stroke:#000000;stroke-width:0.8;" x="473.236364" xlink:href="#md9ff78feed" y="72.544987"/>
      </g>
     </g>
     <g id="text_28">
      <!-- 80 -->
      <defs>
       <path d="M 31.78125 34.625 
Q 24.75 34.625 20.71875 30.859375 
Q 16.703125 27.09375 16.703125 20.515625 
Q 16.703125 13.921875 20.71875 10.15625 
Q 24.75 6.390625 31.78125 6.390625 
Q 38.8125 6.390625 42.859375 10.171875 
Q 46.921875 13.96875 46.921875 20.515625 
Q 46.921875 27.09375 42.890625 30.859375 
Q 38.875 34.625 31.78125 34.625 
M 21.921875 38.8125 
Q 15.578125 40.375 12.03125 44.71875 
Q 8.5 49.078125 8.5 55.328125 
Q 8.5 64.0625 14.71875 69.140625 
Q 20.953125 74.21875 31.78125 74.21875 
Q 42.671875 74.21875 48.875 69.140625 
Q 55.078125 64.0625 55.078125 55.328125 
Q 55.078125 49.078125 51.53125 44.71875 
Q 48 40.375 41.703125 38.8125 
Q 48.828125 37.15625 52.796875 32.3125 
Q 56.78125 27.484375 56.78125 20.515625 
Q 56.78125 9.90625 50.3125 4.234375 
Q 43.84375 -1.421875 31.78125 -1.421875 
Q 19.734375 -1.421875 13.25 4.234375 
Q 6.78125 9.90625 6.78125 20.515625 
Q 6.78125 27.484375 10.78125 32.3125 
Q 14.796875 37.15625 21.921875 38.8125 
M 18.3125 54.390625 
Q 18.3125 48.734375 21.84375 45.5625 
Q 25.390625 42.390625 31.78125 42.390625 
Q 38.140625 42.390625 41.71875 45.5625 
Q 45.3125 48.734375 45.3125 54.390625 
Q 45.3125 60.0625 41.71875 63.234375 
Q 38.140625 66.40625 31.78125 66.40625 
Q 25.390625 66.40625 21.84375 63.234375 
Q 18.3125 60.0625 18.3125 54.390625 
" id="DejaVuSans-38"/>
      </defs>
      <g transform="translate(453.511364 76.344206)scale(0.1 -0.1)">
       <use xlink:href="#DejaVuSans-38"/>
       <use x="63.623047" xlink:href="#DejaVuSans-30"/>
      </g>
     </g>
    </g>
    <g id="ytick_15">
     <g id="line2d_58">
      <path clip-path="url(#pe29ac5a209)" d="M 473.236364 47.500495 
L 777.6 47.500495 
" style="fill:none;stroke:#b0b0b0;stroke-linecap:square;stroke-width:0.8;"/>
     </g>
     <g id="line2d_59">
      <g>
       <use style="stroke:#000000;stroke-width:0.8;" x="473.236364" xlink:href="#md9ff78feed" y="47.500495"/>
      </g>
     </g>
     <g id="text_29">
      <!-- 90 -->
      <defs>
       <path d="M 10.984375 1.515625 
L 10.984375 10.5 
Q 14.703125 8.734375 18.5 7.8125 
Q 22.3125 6.890625 25.984375 6.890625 
Q 35.75 6.890625 40.890625 13.453125 
Q 46.046875 20.015625 46.78125 33.40625 
Q 43.953125 29.203125 39.59375 26.953125 
Q 35.25 24.703125 29.984375 24.703125 
Q 19.046875 24.703125 12.671875 31.3125 
Q 6.296875 37.9375 6.296875 49.421875 
Q 6.296875 60.640625 12.9375 67.421875 
Q 19.578125 74.21875 30.609375 74.21875 
Q 43.265625 74.21875 49.921875 64.515625 
Q 56.59375 54.828125 56.59375 36.375 
Q 56.59375 19.140625 48.40625 8.859375 
Q 40.234375 -1.421875 26.421875 -1.421875 
Q 22.703125 -1.421875 18.890625 -0.6875 
Q 15.09375 0.046875 10.984375 1.515625 
M 30.609375 32.421875 
Q 37.25 32.421875 41.125 36.953125 
Q 45.015625 41.5 45.015625 49.421875 
Q 45.015625 57.28125 41.125 61.84375 
Q 37.25 66.40625 30.609375 66.40625 
Q 23.96875 66.40625 20.09375 61.84375 
Q 16.21875 57.28125 16.21875 49.421875 
Q 16.21875 41.5 20.09375 36.953125 
Q 23.96875 32.421875 30.609375 32.421875 
" id="DejaVuSans-39"/>
      </defs>
      <g transform="translate(453.511364 51.299714)scale(0.1 -0.1)">
       <use xlink:href="#DejaVuSans-39"/>
       <use x="63.623047" xlink:href="#DejaVuSans-30"/>
      </g>
     </g>
    </g>
   </g>
   <g id="line2d_60">
    <path clip-path="url(#pe29ac5a209)" d="M 487.071074 219.047722 
L 487.831223 220.357341 
L 488.591372 218.408725 
L 489.351521 221.498182 
L 490.11167 217.780698 
L 490.871819 213.170812 
L 491.631968 217.211888 
L 492.392117 216.778365 
L 493.152266 213.372152 
L 493.912415 208.045831 
L 494.672564 209.860477 
L 495.432713 210.555307 
L 496.192862 211.918843 
L 496.953011 212.418197 
L 497.71316 209.798628 
L 498.473309 209.348062 
L 499.233457 213.944343 
L 499.993606 211.819378 
L 500.753755 213.055413 
L 501.513904 217.050489 
L 502.274053 214.085655 
L 503.034202 218.247577 
L 503.794351 215.880704 
L 504.5545 213.998098 
L 505.314649 209.613571 
L 506.074798 209.430861 
L 506.834947 212.533005 
L 507.595096 208.980016 
L 508.355245 215.154796 
L 509.115394 210.447262 
L 509.875543 212.65998 
L 510.635692 213.467559 
L 511.395841 215.896676 
L 512.155989 215.766214 
L 512.916138 212.464897 
L 513.676287 210.499064 
L 514.436436 214.742034 
L 515.196585 208.743282 
L 515.956734 211.942873 
L 516.716883 211.22484 
L 517.477032 212.376001 
L 518.237181 212.052521 
L 518.99733 204.041049 
L 519.757479 205.528103 
L 520.517628 208.83207 
L 521.277777 212.909784 
L 522.037926 207.96952 
L 522.798075 206.736976 
L 523.558224 204.900586 
L 525.078521 208.866971 
L 525.83867 209.699759 
L 526.598819 205.740644 
L 527.358968 209.277196 
L 528.119117 204.712528 
L 528.879266 204.619681 
L 529.639415 202.298525 
L 530.399564 205.533459 
L 531.159713 203.416681 
L 531.919862 201.854345 
L 532.680011 209.146677 
L 533.44016 208.707903 
L 534.200309 213.394592 
L 534.960458 205.056007 
L 535.720607 198.140284 
L 536.480756 195.861686 
L 537.240905 191.324939 
L 538.001053 190.548103 
L 538.761202 198.210455 
L 539.521351 196.5396 
L 540.2815 199.021146 
L 541.041649 196.328826 
L 541.801798 200.501666 
L 543.322096 186.710013 
L 544.082245 188.145318 
L 544.842394 194.193607 
L 545.602543 191.415972 
L 546.362692 193.138932 
L 547.122841 187.174149 
L 547.88299 186.793085 
L 548.643139 191.832499 
L 549.403288 188.816445 
L 550.163437 191.879566 
L 550.923586 188.428974 
L 551.683734 187.802965 
L 552.443883 194.481254 
L 553.204032 191.434534 
L 553.964181 191.545961 
L 554.72433 181.998435 
L 555.484479 177.396947 
L 556.244628 185.375902 
L 557.004777 187.803499 
L 557.764926 182.609029 
L 558.525075 173.223884 
L 559.285224 172.943881 
L 560.045373 178.449968 
L 560.805522 174.23017 
L 561.565671 176.823744 
L 562.32582 175.186407 
L 563.085969 178.946801 
L 563.846118 171.922558 
L 564.606266 167.279341 
L 565.366415 160.00315 
L 566.126564 158.572396 
L 566.886713 162.608375 
L 567.646862 157.772799 
L 568.407011 163.644393 
L 569.16716 173.774859 
L 569.927309 169.955347 
L 570.687458 163.727961 
L 572.207756 156.801563 
L 572.967905 154.468059 
L 573.728054 156.874908 
L 574.488203 164.999415 
L 575.248352 162.490107 
L 576.008501 157.780386 
L 576.76865 161.587178 
L 577.528798 160.89838 
L 578.288947 155.798703 
L 579.049096 154.276301 
L 580.569394 145.708886 
L 581.329543 146.811524 
L 582.089692 150.08308 
L 582.849841 146.002105 
L 583.60999 148.364817 
L 584.370139 145.324487 
L 585.130288 143.108395 
L 585.890437 146.625159 
L 586.650586 147.65536 
L 587.410735 146.237985 
L 588.931033 133.205045 
L 589.691182 137.014987 
L 590.45133 134.444014 
L 591.211479 129.485464 
L 591.971628 133.479447 
L 592.731777 127.786417 
L 593.491926 127.519252 
L 594.252075 135.963576 
L 595.012224 132.002665 
L 596.532522 127.349026 
L 597.292671 125.815149 
L 598.05282 125.393353 
L 598.812969 122.808996 
L 599.573118 121.801605 
L 600.333267 128.150924 
L 601.093416 125.429776 
L 601.853565 117.937087 
L 602.613714 114.199459 
L 603.373863 111.295533 
L 604.134011 117.021425 
L 604.89416 113.321953 
L 605.654309 113.665923 
L 606.414458 116.547416 
L 607.174607 121.468981 
L 607.934756 117.662068 
L 608.694905 113.284576 
L 609.455054 114.031598 
L 610.975352 111.80167 
L 611.735501 109.319478 
L 612.49565 107.790919 
L 613.255799 110.564989 
L 614.015948 109.50083 
L 614.776097 106.505742 
L 615.536246 95.392913 
L 616.296395 92.30383 
L 617.056543 98.036848 
L 617.816692 93.251138 
L 618.576841 93.442056 
L 619.33699 94.905241 
L 620.097139 97.273102 
L 620.857288 94.531546 
L 622.377586 84.906369 
L 623.137735 85.356911 
L 623.897884 87.998783 
L 624.658033 79.02115 
L 625.418182 82.872637 
L 626.178331 82.001212 
L 626.93848 84.91817 
L 628.458778 75.099508 
L 629.218927 80.251425 
L 629.979075 78.283158 
L 630.739224 75.579323 
L 631.499373 75.107855 
L 632.259522 77.560276 
L 633.019671 79.250255 
L 634.539969 75.90742 
L 636.060267 70.887068 
L 636.820416 72.609921 
L 637.580565 73.686038 
L 638.340714 77.072049 
L 639.100863 77.788577 
L 639.861012 77.284418 
L 640.621161 76.286955 
L 641.38131 78.458593 
L 642.141459 78.473066 
L 642.901607 76.874335 
L 643.661756 80.184793 
L 644.421905 76.746525 
L 645.182054 74.114849 
L 645.942203 78.763716 
L 646.702352 76.634916 
L 647.462501 78.035366 
L 648.22265 74.53116 
L 648.982799 79.422931 
L 649.742948 78.609769 
L 650.503097 79.674996 
L 651.263246 74.792539 
L 652.023395 75.327246 
L 652.783544 73.810137 
L 653.543693 75.609105 
L 654.303842 81.019811 
L 655.063991 80.795186 
L 655.824139 79.392653 
L 656.584288 83.026796 
L 657.344437 81.839378 
L 658.104586 88.029237 
L 658.864735 88.469454 
L 659.624884 86.553693 
L 660.385033 86.791216 
L 661.145182 88.538289 
L 661.905331 88.560471 
L 662.66548 89.291816 
L 663.425629 85.8838 
L 664.185778 84.980147 
L 664.945927 90.775382 
L 665.706076 87.488952 
L 666.466225 85.35075 
L 667.226374 87.441397 
L 667.986523 90.697724 
L 668.746672 85.971958 
L 669.50682 87.893395 
L 670.266969 92.286192 
L 671.027118 95.447868 
L 671.787267 100.366174 
L 672.547416 102.568401 
L 673.307565 98.092325 
L 674.067714 101.394045 
L 674.827863 92.120096 
L 675.588012 101.089029 
L 676.348161 100.518524 
L 677.10831 103.025921 
L 677.868459 102.027691 
L 678.628608 105.783065 
L 679.388757 114.013427 
L 680.148906 124.944075 
L 681.669204 116.668576 
L 682.429352 114.291591 
L 683.189501 119.211733 
L 683.94965 125.514562 
L 684.709799 126.413002 
L 685.469948 128.933327 
L 686.230097 132.788148 
L 686.990246 140.114431 
L 687.750395 134.91672 
L 688.510544 133.08365 
L 689.270693 133.160323 
L 690.030842 127.812157 
L 690.790991 127.684591 
L 691.55114 124.601667 
L 692.311289 132.868169 
L 693.071438 132.818867 
L 693.831587 132.483629 
L 694.591736 130.222174 
L 695.351884 130.186807 
L 696.112033 138.570525 
L 696.872182 141.840637 
L 697.632331 142.005849 
L 698.39248 141.331285 
L 699.152629 142.43856 
L 699.912778 151.245032 
L 700.672927 149.947015 
L 701.433076 150.412155 
L 702.193225 149.024173 
L 702.953374 151.397305 
L 703.713523 151.174082 
L 704.473672 155.739235 
L 705.233821 150.522793 
L 705.99397 155.523689 
L 706.754119 156.26675 
L 707.514268 160.340095 
L 708.274416 151.180202 
L 709.034565 154.634126 
L 709.794714 158.712919 
L 710.554863 164.910691 
L 711.315012 161.875736 
L 712.075161 166.100121 
L 712.83531 167.460734 
L 713.595459 167.072816 
L 714.355608 166.07459 
L 715.115757 172.166976 
L 715.875906 183.083814 
L 716.636055 186.174009 
L 717.396204 184.316833 
L 718.156353 186.922905 
L 718.916502 192.954429 
L 720.4368 181.818251 
L 721.196949 184.892568 
L 721.957097 183.92999 
L 722.717246 183.237368 
L 723.477395 184.075619 
L 724.237544 186.096502 
L 724.997693 188.540762 
L 725.757842 186.819197 
L 727.27814 191.224461 
L 728.038289 194.332911 
L 728.798438 201.849294 
L 729.558587 199.89448 
L 730.318736 198.822056 
L 731.078885 200.449902 
L 731.839034 203.224391 
L 732.599183 195.550705 
L 733.359332 199.556634 
L 734.119481 204.665673 
L 734.879629 202.262277 
L 735.639778 200.5365 
L 736.399927 200.753872 
L 737.160076 209.008972 
L 737.920225 212.645186 
L 738.680374 214.38334 
L 739.440523 212.299867 
L 740.200672 206.54025 
L 740.960821 203.917165 
L 741.72097 205.401295 
L 742.481119 204.602527 
L 743.241268 208.148415 
L 744.001417 206.152352 
L 744.761566 207.273308 
L 745.521715 206.529822 
L 746.281864 213.896201 
L 747.042013 213.919591 
L 747.802161 209.238253 
L 748.56231 209.648207 
L 749.322459 214.437933 
L 750.082608 213.577017 
L 750.842757 218.598826 
L 752.363055 213.888084 
L 753.123204 213.427972 
L 753.883353 212.406115 
L 754.643502 212.222252 
L 755.403651 210.44848 
L 756.1638 205.360163 
L 756.923949 216.775249 
L 757.684098 215.33001 
L 758.444247 215.401946 
L 759.204396 215.197872 
L 759.964545 215.316537 
L 760.724693 217.812047 
L 761.484842 218.050733 
L 762.244991 217.214856 
L 763.00514 219.900824 
L 763.765289 219.680059 
L 763.765289 219.680059 
" style="fill:none;stroke:#1f77b4;stroke-linecap:square;stroke-width:1.5;"/>
   </g>
   <g id="line2d_61">
    <path clip-path="url(#pe29ac5a209)" d="M 487.071074 197.594148 
L 487.831223 198.03648 
L 488.591372 196.675943 
L 489.351521 198.979876 
L 490.11167 195.341262 
L 490.871819 193.375049 
L 491.631968 192.880836 
L 492.392117 194.42796 
L 493.152266 193.207217 
L 493.912415 188.28926 
L 494.672564 189.113302 
L 495.432713 188.552555 
L 496.192862 190.094198 
L 496.953011 190.593896 
L 497.71316 189.677731 
L 498.473309 190.259592 
L 499.233457 192.24121 
L 499.993606 191.958664 
L 500.753755 192.116244 
L 501.513904 192.399186 
L 502.274053 192.444829 
L 503.034202 196.4937 
L 503.794351 193.81383 
L 504.5545 193.876698 
L 506.074798 189.649269 
L 506.834947 191.777595 
L 507.595096 191.057964 
L 508.355245 193.356804 
L 509.115394 188.499128 
L 509.875543 190.277714 
L 510.635692 190.914538 
L 511.395841 193.643481 
L 512.155989 193.122476 
L 512.916138 190.271641 
L 513.676287 189.394618 
L 514.436436 191.138881 
L 515.196585 188.091403 
L 515.956734 188.745114 
L 516.716883 188.303368 
L 517.477032 189.116662 
L 518.237181 189.264524 
L 518.99733 184.896386 
L 519.757479 185.048889 
L 520.517628 188.199016 
L 521.277777 190.167357 
L 522.037926 185.651113 
L 522.798075 185.521082 
L 524.318373 184.784095 
L 525.078521 185.89954 
L 525.83867 185.340144 
L 526.598819 183.037129 
L 527.358968 185.907238 
L 528.119117 181.166849 
L 529.639415 180.755631 
L 530.399564 183.76946 
L 531.159713 181.194075 
L 531.919862 179.322338 
L 532.680011 183.159464 
L 533.44016 183.191765 
L 534.200309 186.251086 
L 534.960458 181.66815 
L 535.720607 175.313495 
L 536.480756 174.194971 
L 537.240905 171.473339 
L 538.001053 167.607748 
L 538.761202 172.403377 
L 539.521351 170.222419 
L 540.2815 171.778569 
L 541.041649 170.384817 
L 541.801798 173.16906 
L 542.561947 168.291906 
L 543.322096 161.45489 
L 544.842394 167.01167 
L 545.602543 165.706385 
L 546.362692 165.927249 
L 547.122841 161.00422 
L 547.88299 159.263497 
L 548.643139 160.519539 
L 549.403288 161.298362 
L 550.163437 160.936519 
L 550.923586 159.04856 
L 551.683734 161.380539 
L 552.443883 165.510475 
L 553.204032 164.123042 
L 553.964181 159.701776 
L 554.72433 154.208945 
L 555.484479 150.520987 
L 556.244628 158.034335 
L 557.004777 158.021505 
L 558.525075 147.279445 
L 559.285224 146.647559 
L 560.045373 151.014307 
L 560.805522 148.395028 
L 561.565671 148.043481 
L 562.32582 147.270464 
L 563.085969 148.998687 
L 564.606266 141.027303 
L 565.366415 134.873312 
L 566.126564 134.57501 
L 566.886713 136.895988 
L 567.646862 132.12958 
L 568.407011 135.242179 
L 569.16716 143.813374 
L 570.687458 136.285272 
L 571.447607 132.226448 
L 572.207756 129.464754 
L 572.967905 130.199922 
L 573.728054 131.544524 
L 574.488203 135.713046 
L 575.248352 135.806065 
L 576.008501 131.577241 
L 576.76865 132.781994 
L 577.528798 132.215542 
L 578.288947 128.497359 
L 579.049096 126.69472 
L 580.569394 121.167483 
L 581.329543 120.994275 
L 582.089692 121.656312 
L 582.849841 120.008918 
L 583.60999 122.255481 
L 584.370139 119.182655 
L 585.130288 119.004316 
L 585.890437 121.572916 
L 587.410735 118.030506 
L 588.931033 110.814797 
L 589.691182 110.841762 
L 590.45133 109.744782 
L 591.211479 106.053542 
L 591.971628 106.659126 
L 592.731777 104.570375 
L 593.491926 104.971959 
L 594.252075 110.925158 
L 595.012224 108.419426 
L 595.772373 108.022973 
L 596.532522 106.671956 
L 597.292671 104.094375 
L 598.05282 102.683056 
L 598.812969 100.555814 
L 599.573118 102.234001 
L 600.333267 104.834676 
L 601.093416 103.186662 
L 601.853565 98.51169 
L 602.613714 94.593634 
L 603.373863 92.254694 
L 604.134011 93.673711 
L 604.89416 91.060205 
L 605.654309 90.693263 
L 606.414458 91.681186 
L 607.174607 94.470465 
L 607.934756 92.710165 
L 608.694905 92.744807 
L 609.455054 90.788206 
L 610.215203 89.315302 
L 610.975352 87.339456 
L 611.735501 86.174477 
L 612.49565 86.427231 
L 613.255799 87.248362 
L 614.015948 87.321494 
L 614.776097 83.679009 
L 615.536246 77.79381 
L 616.296395 77.048377 
L 617.056543 78.332677 
L 618.576841 71.871403 
L 619.33699 72.573213 
L 620.097139 75.179021 
L 620.857288 72.981213 
L 621.617437 71.77646 
L 622.377586 68.393144 
L 623.137735 67.492466 
L 623.897884 69.464463 
L 624.658033 65.016243 
L 625.418182 65.417828 
L 626.178331 66.023412 
L 626.93848 67.953069 
L 627.698629 64.061679 
L 628.458778 61.426362 
L 629.218927 64.674961 
L 629.979075 64.569753 
L 630.739224 62.270587 
L 632.259522 63.584396 
L 633.019671 63.771717 
L 633.77982 61.511041 
L 634.539969 60.705306 
L 635.300118 60.176703 
L 636.060267 57.174443 
L 636.820416 59.730213 
L 637.580565 60.512853 
L 638.340714 62.342436 
L 639.100863 62.67602 
L 639.861012 60.965758 
L 640.621161 61.91904 
L 641.38131 62.350134 
L 642.141459 62.534888 
L 643.661756 64.920017 
L 645.182054 61.942134 
L 645.942203 63.069906 
L 646.702352 62.945454 
L 647.462501 63.294434 
L 648.22265 62.629832 
L 648.982799 63.997528 
L 649.742948 66.176091 
L 650.503097 66.458354 
L 651.263246 62.188474 
L 652.023395 63.048095 
L 652.783544 62.446317 
L 654.303842 65.66036 
L 655.063991 65.650054 
L 655.824139 65.304922 
L 656.584288 67.820918 
L 657.344437 68.149371 
L 658.104586 69.855783 
L 659.624884 71.064385 
L 660.385033 70.053368 
L 661.145182 71.773894 
L 661.905331 72.029214 
L 662.66548 73.19676 
L 663.425629 71.318423 
L 664.185778 71.202951 
L 664.945927 73.319929 
L 665.706076 71.575026 
L 666.466225 70.363858 
L 667.226374 70.453669 
L 667.986523 74.473362 
L 668.746672 73.373816 
L 669.50682 74.071777 
L 670.266969 75.760228 
L 671.787267 80.751164 
L 672.547416 80.490711 
L 673.307565 79.092223 
L 674.067714 79.845354 
L 674.827863 76.748151 
L 675.588012 82.809123 
L 676.348161 83.42882 
L 677.10831 85.248545 
L 677.868459 85.3242 
L 678.628608 86.497797 
L 679.388757 91.686318 
L 680.148906 97.970535 
L 680.909055 96.888952 
L 681.669204 96.415518 
L 682.429352 94.711672 
L 683.189501 94.996502 
L 683.94965 98.778836 
L 684.709799 100.678984 
L 685.469948 103.002528 
L 686.230097 109.012179 
L 686.990246 113.650286 
L 687.750395 109.113538 
L 688.510544 106.924711 
L 689.270693 107.706068 
L 690.030842 104.086677 
L 690.790991 104.554978 
L 691.55114 102.210906 
L 692.311289 104.705637 
L 693.071438 106.306788 
L 693.831587 107.225086 
L 694.591736 106.387127 
L 695.351884 108.559274 
L 696.112033 113.420626 
L 696.872182 116.647414 
L 697.632331 118.161374 
L 698.39248 117.690506 
L 699.152629 118.177411 
L 699.912778 123.05865 
L 700.672927 123.254951 
L 701.433076 121.001332 
L 702.193225 120.955785 
L 703.713523 127.624266 
L 704.473672 128.76166 
L 705.233821 127.109776 
L 705.99397 129.888791 
L 706.754119 131.085204 
L 707.514268 132.696673 
L 708.274416 129.055471 
L 709.794714 134.045124 
L 710.554863 139.287532 
L 711.315012 137.869156 
L 712.075161 141.209491 
L 712.83531 141.978018 
L 714.355608 142.935791 
L 715.115757 144.557524 
L 716.636055 154.212227 
L 718.156353 159.253842 
L 718.916502 162.380555 
L 719.676651 160.574067 
L 720.4368 154.645887 
L 721.196949 156.867431 
L 721.957097 155.560036 
L 722.717246 156.624299 
L 723.477395 159.885087 
L 724.237544 161.05584 
L 724.997693 161.468971 
L 725.757842 161.203793 
L 726.517991 161.324632 
L 727.27814 164.890778 
L 728.038289 167.859037 
L 728.798438 173.308652 
L 729.558587 171.698466 
L 730.318736 171.778013 
L 731.839034 176.886345 
L 732.599183 172.514903 
L 733.359332 174.73216 
L 734.119481 179.956605 
L 734.879629 178.661399 
L 735.639778 175.53597 
L 736.399927 176.557893 
L 737.160076 184.341904 
L 737.920225 188.149593 
L 738.680374 189.803119 
L 739.440523 185.990666 
L 740.200672 181.442873 
L 741.72097 181.613621 
L 742.481119 182.478567 
L 743.241268 184.490145 
L 744.001417 185.372546 
L 745.521715 186.671496 
L 746.281864 190.542867 
L 747.042013 189.372954 
L 747.802161 186.947787 
L 748.56231 187.787409 
L 749.322459 191.281796 
L 750.082608 190.622593 
L 750.842757 193.666544 
L 751.602906 192.390055 
L 752.363055 192.018953 
L 753.123204 189.362988 
L 753.883353 189.505868 
L 754.643502 193.244714 
L 755.403651 191.319435 
L 756.1638 188.436239 
L 756.923949 195.674879 
L 757.684098 195.692763 
L 759.204396 193.901336 
L 759.964545 194.011415 
L 760.724693 196.415368 
L 761.484842 196.1438 
L 762.244991 196.364664 
L 763.00514 197.757012 
L 763.765289 197.842338 
L 763.765289 197.842338 
" style="fill:none;stroke:#ff7f0e;stroke-linecap:square;stroke-width:1.5;"/>
   </g>
   <g id="line2d_62">
    <path clip-path="url(#pe29ac5a209)" d="M 487.071074 176.140574 
L 487.831223 175.715618 
L 488.591372 174.943161 
L 489.351521 176.461571 
L 490.11167 172.901825 
L 490.871819 173.579287 
L 491.631968 168.549784 
L 492.392117 172.077556 
L 493.152266 173.042283 
L 493.912415 168.532689 
L 494.672564 168.366126 
L 495.432713 166.549803 
L 496.192862 168.269553 
L 496.953011 168.769595 
L 497.71316 169.556835 
L 498.473309 171.171122 
L 499.233457 170.538077 
L 499.993606 172.097949 
L 500.753755 171.177074 
L 501.513904 167.747884 
L 502.274053 170.804004 
L 503.034202 174.739822 
L 503.794351 171.746956 
L 504.5545 173.755298 
L 505.314649 173.792963 
L 506.074798 169.867678 
L 506.834947 171.022185 
L 507.595096 173.135912 
L 508.355245 171.558813 
L 509.115394 166.550993 
L 509.875543 167.895447 
L 510.635692 168.361517 
L 511.395841 171.390287 
L 512.155989 170.478739 
L 512.916138 168.078386 
L 513.676287 168.290172 
L 514.436436 167.535728 
L 515.196585 167.439525 
L 515.956734 165.547355 
L 516.716883 165.381896 
L 517.477032 165.857323 
L 518.237181 166.476526 
L 518.99733 165.751723 
L 519.757479 164.569674 
L 520.517628 167.565962 
L 521.277777 167.42493 
L 522.037926 163.332706 
L 522.798075 164.305188 
L 523.558224 165.481551 
L 524.318373 162.796604 
L 525.078521 162.932109 
L 525.83867 160.98053 
L 526.598819 160.333613 
L 527.358968 162.537279 
L 528.119117 157.621169 
L 528.879266 157.294287 
L 529.639415 159.212737 
L 530.399564 162.00546 
L 531.159713 158.971469 
L 531.919862 156.790331 
L 533.44016 157.675626 
L 534.200309 159.107581 
L 534.960458 158.280292 
L 535.720607 152.486706 
L 536.480756 152.528256 
L 537.240905 151.621739 
L 538.001053 144.667393 
L 538.761202 146.596298 
L 539.521351 143.905238 
L 540.2815 144.535992 
L 541.041649 144.440807 
L 541.801798 145.836454 
L 542.561947 142.770059 
L 543.322096 136.199768 
L 544.082245 139.951179 
L 544.842394 139.829733 
L 545.602543 139.996798 
L 546.362692 138.715566 
L 547.122841 134.834291 
L 547.88299 131.733909 
L 548.643139 129.206579 
L 549.403288 133.780279 
L 550.163437 129.993472 
L 550.923586 129.668145 
L 551.683734 134.958114 
L 552.443883 136.539696 
L 553.204032 136.811549 
L 553.964181 127.857591 
L 554.72433 126.419454 
L 555.484479 123.645027 
L 556.244628 130.692767 
L 557.004777 128.23951 
L 557.764926 123.277618 
L 558.525075 121.335005 
L 559.285224 120.351237 
L 560.045373 123.578646 
L 560.805522 122.559886 
L 561.565671 119.263219 
L 562.32582 119.35452 
L 563.085969 119.050574 
L 563.846118 118.280489 
L 564.606266 114.775264 
L 565.366415 109.743474 
L 566.126564 110.577625 
L 566.886713 111.183601 
L 567.646862 106.486361 
L 568.407011 106.839965 
L 569.16716 113.85189 
L 569.927309 110.464694 
L 570.687458 108.842583 
L 571.447607 104.026349 
L 572.207756 102.127944 
L 572.967905 105.931786 
L 574.488203 106.426678 
L 575.248352 109.122023 
L 576.008501 105.374096 
L 576.76865 103.97681 
L 577.528798 103.532704 
L 579.049096 99.113139 
L 579.809245 97.666309 
L 580.569394 96.626079 
L 581.329543 95.177026 
L 582.089692 93.229544 
L 582.849841 94.015731 
L 583.60999 96.146145 
L 584.370139 93.040824 
L 585.890437 96.520673 
L 586.650586 92.090477 
L 587.410735 89.823027 
L 588.170884 88.775408 
L 588.931033 88.424549 
L 589.691182 84.668536 
L 590.45133 85.04555 
L 591.971628 79.838805 
L 592.731777 81.354332 
L 593.491926 82.424666 
L 594.252075 85.88674 
L 595.012224 84.836186 
L 595.772373 86.39231 
L 596.532522 85.994887 
L 597.292671 82.373601 
L 598.05282 79.97276 
L 598.812969 78.302633 
L 599.573118 82.666396 
L 600.333267 81.518428 
L 601.093416 80.943549 
L 601.853565 79.086294 
L 602.613714 74.987809 
L 603.373863 73.213855 
L 604.134011 70.325997 
L 604.89416 68.798458 
L 606.414458 66.814955 
L 607.174607 67.471948 
L 607.934756 67.758262 
L 608.694905 72.205038 
L 609.455054 67.544814 
L 610.215203 65.725707 
L 610.975352 62.877242 
L 611.735501 63.029476 
L 612.49565 65.063543 
L 613.255799 63.931735 
L 614.015948 65.142157 
L 614.776097 60.852275 
L 615.536246 60.194706 
L 616.296395 61.792924 
L 617.056543 58.628505 
L 617.816692 57.106903 
L 618.576841 50.300751 
L 619.33699 50.241186 
L 620.097139 53.08494 
L 620.857288 51.430879 
L 621.617437 54.177883 
L 623.137735 49.628021 
L 623.897884 50.930143 
L 624.658033 51.011337 
L 625.418182 47.963018 
L 626.178331 50.045611 
L 626.93848 50.987968 
L 627.698629 48.170864 
L 628.458778 47.753215 
L 629.218927 49.098496 
L 629.979075 50.856349 
L 630.739224 48.961851 
L 631.499373 50.760471 
L 633.019671 48.293178 
L 633.77982 45.326856 
L 634.539969 45.503192 
L 635.300118 47.01926 
L 636.060267 43.461818 
L 636.820416 46.850505 
L 637.580565 47.339669 
L 638.340714 47.612822 
L 639.100863 47.563463 
L 639.861012 44.647099 
L 640.621161 47.551125 
L 641.38131 46.241675 
L 642.141459 46.596711 
L 642.901607 50.397526 
L 643.661756 49.65524 
L 644.421905 49.955249 
L 645.182054 49.76942 
L 645.942203 47.376097 
L 646.702352 49.255991 
L 647.462501 48.553503 
L 648.22265 50.728503 
L 648.982799 48.572125 
L 649.742948 53.742412 
L 650.503097 53.241712 
L 651.263246 49.584408 
L 652.023395 50.768944 
L 652.783544 51.082498 
L 653.543693 52.711495 
L 654.303842 50.30091 
L 655.063991 50.504921 
L 655.824139 51.217191 
L 656.584288 52.615041 
L 657.344437 54.459363 
L 658.104586 51.68233 
L 658.864735 52.599545 
L 659.624884 55.575078 
L 660.385033 53.31552 
L 661.145182 55.009498 
L 661.905331 55.497957 
L 662.66548 57.101704 
L 663.425629 56.753045 
L 664.185778 57.425756 
L 664.945927 55.864476 
L 666.466225 55.376966 
L 667.226374 53.465941 
L 667.986523 58.249 
L 668.746672 60.775674 
L 669.50682 60.250159 
L 670.266969 59.234263 
L 671.027118 61.107787 
L 671.787267 61.136154 
L 672.547416 58.413022 
L 673.307565 60.09212 
L 674.067714 58.296662 
L 675.588012 64.529217 
L 676.348161 66.339117 
L 677.868459 68.620709 
L 678.628608 67.212529 
L 679.388757 69.359208 
L 680.148906 70.996995 
L 680.909055 72.911409 
L 681.669204 76.162461 
L 682.429352 75.131752 
L 683.189501 70.78127 
L 683.94965 72.043109 
L 684.709799 74.944966 
L 685.469948 77.071729 
L 686.230097 85.236211 
L 686.990246 87.186141 
L 687.750395 83.310356 
L 688.510544 80.765771 
L 689.270693 82.251813 
L 690.030842 80.361197 
L 690.790991 81.425366 
L 691.55114 79.820146 
L 692.311289 76.543105 
L 693.071438 79.79471 
L 693.831587 81.966544 
L 694.591736 82.55208 
L 695.351884 86.931742 
L 696.112033 88.270727 
L 697.632331 94.316898 
L 698.39248 94.049728 
L 699.152629 93.916263 
L 699.912778 94.872267 
L 700.672927 96.562887 
L 701.433076 91.590509 
L 702.193225 92.887397 
L 702.953374 96.921652 
L 703.713523 104.07445 
L 704.473672 101.784085 
L 705.233821 103.696759 
L 705.99397 104.253892 
L 706.754119 105.903658 
L 707.514268 105.053252 
L 709.034565 108.593488 
L 709.794714 109.377329 
L 710.554863 113.664372 
L 711.315012 113.862577 
L 712.075161 116.318861 
L 712.83531 116.495303 
L 713.595459 117.944276 
L 714.355608 119.796991 
L 715.115757 116.948072 
L 715.875906 116.054163 
L 717.396204 129.172972 
L 718.156353 131.58478 
L 718.916502 131.806681 
L 719.676651 133.745793 
L 720.4368 127.473523 
L 721.196949 128.842293 
L 721.957097 127.190083 
L 722.717246 130.01123 
L 723.477395 135.694555 
L 724.237544 136.015177 
L 724.997693 134.397181 
L 725.757842 135.588389 
L 726.517991 133.664929 
L 727.27814 138.557094 
L 728.038289 141.385164 
L 728.798438 144.76801 
L 729.558587 143.502451 
L 730.318736 144.73397 
L 731.078885 148.374192 
L 731.839034 150.5483 
L 732.599183 149.479101 
L 733.359332 149.907685 
L 734.119481 155.247537 
L 734.879629 155.060522 
L 735.639778 150.53544 
L 736.399927 152.361913 
L 737.160076 159.674835 
L 737.920225 163.653999 
L 738.680374 165.222898 
L 739.440523 159.681465 
L 740.200672 156.345496 
L 740.960821 159.216417 
L 741.72097 157.825947 
L 742.481119 160.354607 
L 743.241268 160.831876 
L 744.001417 164.592739 
L 744.761566 164.7386 
L 745.521715 166.813169 
L 746.281864 167.189533 
L 747.042013 164.826318 
L 747.802161 164.657321 
L 748.56231 165.926612 
L 749.322459 168.125659 
L 750.082608 167.668168 
L 750.842757 168.734262 
L 751.602906 168.536871 
L 752.363055 170.149823 
L 753.123204 165.298004 
L 753.883353 166.605622 
L 754.643502 174.267176 
L 755.403651 172.19039 
L 756.1638 171.512316 
L 756.923949 174.574509 
L 757.684098 176.055517 
L 759.204396 172.6048 
L 759.964545 172.706293 
L 760.724693 175.01869 
L 761.484842 174.236866 
L 762.244991 175.514471 
L 763.00514 175.6132 
L 763.765289 176.004617 
L 763.765289 176.004617 
" style="fill:none;stroke:#2ca02c;stroke-linecap:square;stroke-width:1.5;"/>
   </g>
   <g id="patch_9">
    <path d="M 473.236364 230.4 
L 473.236364 34.56 
" style="fill:none;stroke:#000000;stroke-linecap:square;stroke-linejoin:miter;stroke-width:0.8;"/>
   </g>
   <g id="patch_10">
    <path d="M 777.6 230.4 
L 777.6 34.56 
" style="fill:none;stroke:#000000;stroke-linecap:square;stroke-linejoin:miter;stroke-width:0.8;"/>
   </g>
   <g id="patch_11">
    <path d="M 473.236364 230.4 
L 777.6 230.4 
" style="fill:none;stroke:#000000;stroke-linecap:square;stroke-linejoin:miter;stroke-width:0.8;"/>
   </g>
   <g id="patch_12">
    <path d="M 473.236364 34.56 
L 777.6 34.56 
" style="fill:none;stroke:#000000;stroke-linecap:square;stroke-linejoin:miter;stroke-width:0.8;"/>
   </g>
   <g id="text_30">
    <!-- Mean+-std   TMAX of USW00024057 -->
    <defs>
     <path d="M 6.296875 72.90625 
L 16.890625 72.90625 
L 35.015625 45.796875 
L 53.21875 72.90625 
L 63.8125 72.90625 
L 40.375 37.890625 
L 65.375 0 
L 54.78125 0 
L 34.28125 31 
L 13.625 0 
L 2.984375 0 
L 29 38.921875 
z
" id="DejaVuSans-58"/>
    </defs>
    <g transform="translate(515.544119 28.56)scale(0.12 -0.12)">
     <use xlink:href="#DejaVuSans-4d"/>
     <use x="86.279297" xlink:href="#DejaVuSans-65"/>
     <use x="147.802734" xlink:href="#DejaVuSans-61"/>
     <use x="209.082031" xlink:href="#DejaVuSans-6e"/>
     <use x="272.460938" xlink:href="#DejaVuSans-2b"/>
     <use x="356.25" xlink:href="#DejaVuSans-2d"/>
     <use x="392.333984" xlink:href="#DejaVuSans-73"/>
     <use x="444.433594" xlink:href="#DejaVuSans-74"/>
     <use x="483.642578" xlink:href="#DejaVuSans-64"/>
     <use x="547.119141" xlink:href="#DejaVuSans-20"/>
     <use x="578.90625" xlink:href="#DejaVuSans-20"/>
     <use x="610.693359" xlink:href="#DejaVuSans-20"/>
     <use x="642.480469" xlink:href="#DejaVuSans-54"/>
     <use x="703.564453" xlink:href="#DejaVuSans-4d"/>
     <use x="789.84375" xlink:href="#DejaVuSans-41"/>
     <use x="858.251953" xlink:href="#DejaVuSans-58"/>
     <use x="926.757812" xlink:href="#DejaVuSans-20"/>
     <use x="958.544922" xlink:href="#DejaVuSans-6f"/>
     <use x="1019.726562" xlink:href="#DejaVuSans-66"/>
     <use x="1054.931641" xlink:href="#DejaVuSans-20"/>
     <use x="1086.71875" xlink:href="#DejaVuSans-55"/>
     <use x="1159.912109" xlink:href="#DejaVuSans-53"/>
     <use x="1223.388672" xlink:href="#DejaVuSans-57"/>
     <use x="1322.265625" xlink:href="#DejaVuSans-30"/>
     <use x="1385.888672" xlink:href="#DejaVuSans-30"/>
     <use x="1449.511719" xlink:href="#DejaVuSans-30"/>
     <use x="1513.134766" xlink:href="#DejaVuSans-32"/>
     <use x="1576.757812" xlink:href="#DejaVuSans-34"/>
     <use x="1640.380859" xlink:href="#DejaVuSans-30"/>
     <use x="1704.003906" xlink:href="#DejaVuSans-35"/>
     <use x="1767.626953" xlink:href="#DejaVuSans-37"/>
    </g>
   </g>
   <g id="legend_2">
    <g id="patch_13">
     <path d="M 732.2375 86.594375 
L 770.6 86.594375 
Q 772.6 86.594375 772.6 84.594375 
L 772.6 41.56 
Q 772.6 39.56 770.6 39.56 
L 732.2375 39.56 
Q 730.2375 39.56 730.2375 41.56 
L 730.2375 84.594375 
Q 730.2375 86.594375 732.2375 86.594375 
z
" style="fill:#ffffff;opacity:0.8;stroke:#cccccc;stroke-linejoin:miter;"/>
    </g>
    <g id="line2d_63">
     <path d="M 734.2375 47.658438 
L 754.2375 47.658438 
" style="fill:none;stroke:#1f77b4;stroke-linecap:square;stroke-width:1.5;"/>
    </g>
    <g id="line2d_64"/>
    <g id="text_31">
     <!-- 0 -->
     <g transform="translate(762.2375 51.158438)scale(0.1 -0.1)">
      <use xlink:href="#DejaVuSans-30"/>
     </g>
    </g>
    <g id="line2d_65">
     <path d="M 734.2375 62.336563 
L 754.2375 62.336563 
" style="fill:none;stroke:#ff7f0e;stroke-linecap:square;stroke-width:1.5;"/>
    </g>
    <g id="line2d_66"/>
    <g id="text_32">
     <!-- 1 -->
     <g transform="translate(762.2375 65.836563)scale(0.1 -0.1)">
      <use xlink:href="#DejaVuSans-31"/>
     </g>
    </g>
    <g id="line2d_67">
     <path d="M 734.2375 77.014688 
L 754.2375 77.014688 
" style="fill:none;stroke:#2ca02c;stroke-linecap:square;stroke-width:1.5;"/>
    </g>
    <g id="line2d_68"/>
    <g id="text_33">
     <!-- 2 -->
     <g transform="translate(762.2375 80.514688)scale(0.1 -0.1)">
      <use xlink:href="#DejaVuSans-32"/>
     </g>
    </g>
   </g>
  </g>
 </g>
 <defs>
  <clipPath id="p841e9cbf7a">
   <rect height="195.84" width="304.363636" x="108" y="34.56"/>
  </clipPath>
  <clipPath id="pe29ac5a209">
   <rect height="195.84" width="304.363636" x="473.236364" y="34.56"/>
  </clipPath>
 </defs>
</svg>
