<?xml version="1.0" encoding="utf-8" standalone="no"?>
<!DOCTYPE svg PUBLIC "-//W3C//DTD SVG 1.1//EN"
  "http://www.w3.org/Graphics/SVG/1.1/DTD/svg11.dtd">
<!-- Created with matplotlib (http://matplotlib.org/) -->
<svg height="432pt" version="1.1" viewBox="0 0 576 432" width="576pt" xmlns="http://www.w3.org/2000/svg" xmlns:xlink="http://www.w3.org/1999/xlink">
 <defs>
  <style type="text/css">
*{stroke-linecap:butt;stroke-linejoin:round;}
  </style>
 </defs>
 <g id="figure_1">
  <g id="patch_1">
   <path d="M 0 432 
L 576 432 
L 576 0 
L 0 0 
z
" style="fill:#ffffff;"/>
  </g>
  <g id="axes_1">
   <g id="patch_2">
    <path d="M 72 345.6 
L 518.4 345.6 
L 518.4 51.84 
L 72 51.84 
z
" style="fill:#ffffff;"/>
   </g>
   <g id="matplotlib.axis_1">
    <g id="xtick_1">
     <g id="line2d_1">
      <path clip-path="url(#p7dbace37fe)" d="M 92.290909 345.6 
L 92.290909 51.84 
" style="fill:none;stroke:#b0b0b0;stroke-linecap:square;stroke-width:0.8;"/>
     </g>
     <g id="line2d_2">
      <defs>
       <path d="M 0 0 
L 0 3.5 
" id="me3b9183eda" style="stroke:#000000;stroke-width:0.8;"/>
      </defs>
      <g>
       <use style="stroke:#000000;stroke-width:0.8;" x="92.290909" xlink:href="#me3b9183eda" y="345.6"/>
      </g>
     </g>
     <g id="text_1">
      <!-- Jan -->
      <defs>
       <path d="M 9.8125 72.90625 
L 19.671875 72.90625 
L 19.671875 5.078125 
Q 19.671875 -8.109375 14.671875 -14.0625 
Q 9.671875 -20.015625 -1.421875 -20.015625 
L -5.171875 -20.015625 
L -5.171875 -11.71875 
L -2.09375 -11.71875 
Q 4.4375 -11.71875 7.125 -8.046875 
Q 9.8125 -4.390625 9.8125 5.078125 
z
" id="DejaVuSans-4a"/>
       <path d="M 34.28125 27.484375 
Q 23.390625 27.484375 19.1875 25 
Q 14.984375 22.515625 14.984375 16.5 
Q 14.984375 11.71875 18.140625 8.90625 
Q 21.296875 6.109375 26.703125 6.109375 
Q 34.1875 6.109375 38.703125 11.40625 
Q 43.21875 16.703125 43.21875 25.484375 
L 43.21875 27.484375 
z
M 52.203125 31.203125 
L 52.203125 0 
L 43.21875 0 
L 43.21875 8.296875 
Q 40.140625 3.328125 35.546875 0.953125 
Q 30.953125 -1.421875 24.3125 -1.421875 
Q 15.921875 -1.421875 10.953125 3.296875 
Q 6 8.015625 6 15.921875 
Q 6 25.140625 12.171875 29.828125 
Q 18.359375 34.515625 30.609375 34.515625 
L 43.21875 34.515625 
L 43.21875 35.40625 
Q 43.21875 41.609375 39.140625 45 
Q 35.0625 48.390625 27.6875 48.390625 
Q 23 48.390625 18.546875 47.265625 
Q 14.109375 46.140625 10.015625 43.890625 
L 10.015625 52.203125 
Q 14.9375 54.109375 19.578125 55.046875 
Q 24.21875 56 28.609375 56 
Q 40.484375 56 46.34375 49.84375 
Q 52.203125 43.703125 52.203125 31.203125 
" id="DejaVuSans-61"/>
       <path d="M 54.890625 33.015625 
L 54.890625 0 
L 45.90625 0 
L 45.90625 32.71875 
Q 45.90625 40.484375 42.875 44.328125 
Q 39.84375 48.1875 33.796875 48.1875 
Q 26.515625 48.1875 22.3125 43.546875 
Q 18.109375 38.921875 18.109375 30.90625 
L 18.109375 0 
L 9.078125 0 
L 9.078125 54.6875 
L 18.109375 54.6875 
L 18.109375 46.1875 
Q 21.34375 51.125 25.703125 53.5625 
Q 30.078125 56 35.796875 56 
Q 45.21875 56 50.046875 50.171875 
Q 54.890625 44.34375 54.890625 33.015625 
" id="DejaVuSans-6e"/>
      </defs>
      <g transform="translate(77.900742 366.888252)rotate(-30)scale(0.1 -0.1)">
       <use xlink:href="#DejaVuSans-4a"/>
       <use x="29.492188" xlink:href="#DejaVuSans-61"/>
       <use x="90.771484" xlink:href="#DejaVuSans-6e"/>
      </g>
     </g>
    </g>
    <g id="xtick_2">
     <g id="line2d_3">
      <path clip-path="url(#p7dbace37fe)" d="M 192.630569 345.6 
L 192.630569 51.84 
" style="fill:none;stroke:#b0b0b0;stroke-linecap:square;stroke-width:0.8;"/>
     </g>
     <g id="line2d_4">
      <g>
       <use style="stroke:#000000;stroke-width:0.8;" x="192.630569" xlink:href="#me3b9183eda" y="345.6"/>
      </g>
     </g>
     <g id="text_2">
      <!-- Apr -->
      <defs>
       <path d="M 34.1875 63.1875 
L 20.796875 26.90625 
L 47.609375 26.90625 
z
M 28.609375 72.90625 
L 39.796875 72.90625 
L 67.578125 0 
L 57.328125 0 
L 50.6875 18.703125 
L 17.828125 18.703125 
L 11.1875 0 
L 0.78125 0 
z
" id="DejaVuSans-41"/>
       <path d="M 18.109375 8.203125 
L 18.109375 -20.796875 
L 9.078125 -20.796875 
L 9.078125 54.6875 
L 18.109375 54.6875 
L 18.109375 46.390625 
Q 20.953125 51.265625 25.265625 53.625 
Q 29.59375 56 35.59375 56 
Q 45.5625 56 51.78125 48.09375 
Q 58.015625 40.1875 58.015625 27.296875 
Q 58.015625 14.40625 51.78125 6.484375 
Q 45.5625 -1.421875 35.59375 -1.421875 
Q 29.59375 -1.421875 25.265625 0.953125 
Q 20.953125 3.328125 18.109375 8.203125 
M 48.6875 27.296875 
Q 48.6875 37.203125 44.609375 42.84375 
Q 40.53125 48.484375 33.40625 48.484375 
Q 26.265625 48.484375 22.1875 42.84375 
Q 18.109375 37.203125 18.109375 27.296875 
Q 18.109375 17.390625 22.1875 11.75 
Q 26.265625 6.109375 33.40625 6.109375 
Q 40.53125 6.109375 44.609375 11.75 
Q 48.6875 17.390625 48.6875 27.296875 
" id="DejaVuSans-70"/>
       <path d="M 41.109375 46.296875 
Q 39.59375 47.171875 37.8125 47.578125 
Q 36.03125 48 33.890625 48 
Q 26.265625 48 22.1875 43.046875 
Q 18.109375 38.09375 18.109375 28.8125 
L 18.109375 0 
L 9.078125 0 
L 9.078125 54.6875 
L 18.109375 54.6875 
L 18.109375 46.1875 
Q 20.953125 51.171875 25.484375 53.578125 
Q 30.03125 56 36.53125 56 
Q 37.453125 56 38.578125 55.875 
Q 39.703125 55.765625 41.0625 55.515625 
z
" id="DejaVuSans-72"/>
      </defs>
      <g transform="translate(176.608486 367.83044)rotate(-30)scale(0.1 -0.1)">
       <use xlink:href="#DejaVuSans-41"/>
       <use x="68.408203" xlink:href="#DejaVuSans-70"/>
       <use x="131.884766" xlink:href="#DejaVuSans-72"/>
      </g>
     </g>
    </g>
    <g id="xtick_3">
     <g id="line2d_5">
      <path clip-path="url(#p7dbace37fe)" d="M 294.085115 345.6 
L 294.085115 51.84 
" style="fill:none;stroke:#b0b0b0;stroke-linecap:square;stroke-width:0.8;"/>
     </g>
     <g id="line2d_6">
      <g>
       <use style="stroke:#000000;stroke-width:0.8;" x="294.085115" xlink:href="#me3b9183eda" y="345.6"/>
      </g>
     </g>
     <g id="text_3">
      <!-- Jul -->
      <defs>
       <path d="M 8.5 21.578125 
L 8.5 54.6875 
L 17.484375 54.6875 
L 17.484375 21.921875 
Q 17.484375 14.15625 20.5 10.265625 
Q 23.53125 6.390625 29.59375 6.390625 
Q 36.859375 6.390625 41.078125 11.03125 
Q 45.3125 15.671875 45.3125 23.6875 
L 45.3125 54.6875 
L 54.296875 54.6875 
L 54.296875 0 
L 45.3125 0 
L 45.3125 8.40625 
Q 42.046875 3.421875 37.71875 1 
Q 33.40625 -1.421875 27.6875 -1.421875 
Q 18.265625 -1.421875 13.375 4.4375 
Q 8.5 10.296875 8.5 21.578125 
M 31.109375 56 
z
" id="DejaVuSans-75"/>
       <path d="M 9.421875 75.984375 
L 18.40625 75.984375 
L 18.40625 0 
L 9.421875 0 
z
" id="DejaVuSans-6c"/>
      </defs>
      <g transform="translate(282.596133 365.213252)rotate(-30)scale(0.1 -0.1)">
       <use xlink:href="#DejaVuSans-4a"/>
       <use x="29.492188" xlink:href="#DejaVuSans-75"/>
       <use x="92.871094" xlink:href="#DejaVuSans-6c"/>
      </g>
     </g>
    </g>
    <g id="xtick_4">
     <g id="line2d_7">
      <path clip-path="url(#p7dbace37fe)" d="M 396.654545 345.6 
L 396.654545 51.84 
" style="fill:none;stroke:#b0b0b0;stroke-linecap:square;stroke-width:0.8;"/>
     </g>
     <g id="line2d_8">
      <g>
       <use style="stroke:#000000;stroke-width:0.8;" x="396.654545" xlink:href="#me3b9183eda" y="345.6"/>
      </g>
     </g>
     <g id="text_4">
      <!-- Oct -->
      <defs>
       <path d="M 39.40625 66.21875 
Q 28.65625 66.21875 22.328125 58.203125 
Q 16.015625 50.203125 16.015625 36.375 
Q 16.015625 22.609375 22.328125 14.59375 
Q 28.65625 6.59375 39.40625 6.59375 
Q 50.140625 6.59375 56.421875 14.59375 
Q 62.703125 22.609375 62.703125 36.375 
Q 62.703125 50.203125 56.421875 58.203125 
Q 50.140625 66.21875 39.40625 66.21875 
M 39.40625 74.21875 
Q 54.734375 74.21875 63.90625 63.9375 
Q 73.09375 53.65625 73.09375 36.375 
Q 73.09375 19.140625 63.90625 8.859375 
Q 54.734375 -1.421875 39.40625 -1.421875 
Q 24.03125 -1.421875 14.8125 8.828125 
Q 5.609375 19.09375 5.609375 36.375 
Q 5.609375 53.65625 14.8125 63.9375 
Q 24.03125 74.21875 39.40625 74.21875 
" id="DejaVuSans-4f"/>
       <path d="M 48.78125 52.59375 
L 48.78125 44.1875 
Q 44.96875 46.296875 41.140625 47.34375 
Q 37.3125 48.390625 33.40625 48.390625 
Q 24.65625 48.390625 19.8125 42.84375 
Q 14.984375 37.3125 14.984375 27.296875 
Q 14.984375 17.28125 19.8125 11.734375 
Q 24.65625 6.203125 33.40625 6.203125 
Q 37.3125 6.203125 41.140625 7.25 
Q 44.96875 8.296875 48.78125 10.40625 
L 48.78125 2.09375 
Q 45.015625 0.34375 40.984375 -0.53125 
Q 36.96875 -1.421875 32.421875 -1.421875 
Q 20.0625 -1.421875 12.78125 6.34375 
Q 5.515625 14.109375 5.515625 27.296875 
Q 5.515625 40.671875 12.859375 48.328125 
Q 20.21875 56 33.015625 56 
Q 37.15625 56 41.109375 55.140625 
Q 45.0625 54.296875 48.78125 52.59375 
" id="DejaVuSans-63"/>
       <path d="M 18.3125 70.21875 
L 18.3125 54.6875 
L 36.8125 54.6875 
L 36.8125 47.703125 
L 18.3125 47.703125 
L 18.3125 18.015625 
Q 18.3125 11.328125 20.140625 9.421875 
Q 21.96875 7.515625 27.59375 7.515625 
L 36.8125 7.515625 
L 36.8125 0 
L 27.59375 0 
Q 17.1875 0 13.234375 3.875 
Q 9.28125 7.765625 9.28125 18.015625 
L 9.28125 47.703125 
L 2.6875 47.703125 
L 2.6875 54.6875 
L 9.28125 54.6875 
L 9.28125 70.21875 
z
" id="DejaVuSans-74"/>
      </defs>
      <g transform="translate(380.640581 367.825752)rotate(-30)scale(0.1 -0.1)">
       <use xlink:href="#DejaVuSans-4f"/>
       <use x="78.710938" xlink:href="#DejaVuSans-63"/>
       <use x="133.691406" xlink:href="#DejaVuSans-74"/>
      </g>
     </g>
    </g>
    <g id="xtick_5">
     <g id="line2d_9">
      <path clip-path="url(#p7dbace37fe)" d="M 499.223976 345.6 
L 499.223976 51.84 
" style="fill:none;stroke:#b0b0b0;stroke-linecap:square;stroke-width:0.8;"/>
     </g>
     <g id="line2d_10">
      <g>
       <use style="stroke:#000000;stroke-width:0.8;" x="499.223976" xlink:href="#me3b9183eda" y="345.6"/>
      </g>
     </g>
     <g id="text_5">
      <!-- Jan -->
      <g transform="translate(484.833809 366.888252)rotate(-30)scale(0.1 -0.1)">
       <use xlink:href="#DejaVuSans-4a"/>
       <use x="29.492188" xlink:href="#DejaVuSans-61"/>
       <use x="90.771484" xlink:href="#DejaVuSans-6e"/>
      </g>
     </g>
    </g>
   </g>
   <g id="matplotlib.axis_2">
    <g id="ytick_1">
     <g id="line2d_11">
      <path clip-path="url(#p7dbace37fe)" d="M 72 333.344629 
L 518.4 333.344629 
" style="fill:none;stroke:#b0b0b0;stroke-linecap:square;stroke-width:0.8;"/>
     </g>
     <g id="line2d_12">
      <defs>
       <path d="M 0 0 
L -3.5 0 
" id="mfbe206acdf" style="stroke:#000000;stroke-width:0.8;"/>
      </defs>
      <g>
       <use style="stroke:#000000;stroke-width:0.8;" x="72" xlink:href="#mfbe206acdf" y="333.344629"/>
      </g>
     </g>
     <g id="text_6">
      <!-- −4 -->
      <defs>
       <path d="M 10.59375 35.5 
L 73.1875 35.5 
L 73.1875 27.203125 
L 10.59375 27.203125 
z
" id="DejaVuSans-2212"/>
       <path d="M 37.796875 64.3125 
L 12.890625 25.390625 
L 37.796875 25.390625 
z
M 35.203125 72.90625 
L 47.609375 72.90625 
L 47.609375 25.390625 
L 58.015625 25.390625 
L 58.015625 17.1875 
L 47.609375 17.1875 
L 47.609375 0 
L 37.796875 0 
L 37.796875 17.1875 
L 4.890625 17.1875 
L 4.890625 26.703125 
z
" id="DejaVuSans-34"/>
      </defs>
      <g transform="translate(50.257812 337.143848)scale(0.1 -0.1)">
       <use xlink:href="#DejaVuSans-2212"/>
       <use x="83.789062" xlink:href="#DejaVuSans-34"/>
      </g>
     </g>
    </g>
    <g id="ytick_2">
     <g id="line2d_13">
      <path clip-path="url(#p7dbace37fe)" d="M 72 288.449309 
L 518.4 288.449309 
" style="fill:none;stroke:#b0b0b0;stroke-linecap:square;stroke-width:0.8;"/>
     </g>
     <g id="line2d_14">
      <g>
       <use style="stroke:#000000;stroke-width:0.8;" x="72" xlink:href="#mfbe206acdf" y="288.449309"/>
      </g>
     </g>
     <g id="text_7">
      <!-- −2 -->
      <defs>
       <path d="M 19.1875 8.296875 
L 53.609375 8.296875 
L 53.609375 0 
L 7.328125 0 
L 7.328125 8.296875 
Q 12.9375 14.109375 22.625 23.890625 
Q 32.328125 33.6875 34.8125 36.53125 
Q 39.546875 41.84375 41.421875 45.53125 
Q 43.3125 49.21875 43.3125 52.78125 
Q 43.3125 58.59375 39.234375 62.25 
Q 35.15625 65.921875 28.609375 65.921875 
Q 23.96875 65.921875 18.8125 64.3125 
Q 13.671875 62.703125 7.8125 59.421875 
L 7.8125 69.390625 
Q 13.765625 71.78125 18.9375 73 
Q 24.125 74.21875 28.421875 74.21875 
Q 39.75 74.21875 46.484375 68.546875 
Q 53.21875 62.890625 53.21875 53.421875 
Q 53.21875 48.921875 51.53125 44.890625 
Q 49.859375 40.875 45.40625 35.40625 
Q 44.1875 33.984375 37.640625 27.21875 
Q 31.109375 20.453125 19.1875 8.296875 
" id="DejaVuSans-32"/>
      </defs>
      <g transform="translate(50.257812 292.248528)scale(0.1 -0.1)">
       <use xlink:href="#DejaVuSans-2212"/>
       <use x="83.789062" xlink:href="#DejaVuSans-32"/>
      </g>
     </g>
    </g>
    <g id="ytick_3">
     <g id="line2d_15">
      <path clip-path="url(#p7dbace37fe)" d="M 72 243.553989 
L 518.4 243.553989 
" style="fill:none;stroke:#b0b0b0;stroke-linecap:square;stroke-width:0.8;"/>
     </g>
     <g id="line2d_16">
      <g>
       <use style="stroke:#000000;stroke-width:0.8;" x="72" xlink:href="#mfbe206acdf" y="243.553989"/>
      </g>
     </g>
     <g id="text_8">
      <!-- 0 -->
      <defs>
       <path d="M 31.78125 66.40625 
Q 24.171875 66.40625 20.328125 58.90625 
Q 16.5 51.421875 16.5 36.375 
Q 16.5 21.390625 20.328125 13.890625 
Q 24.171875 6.390625 31.78125 6.390625 
Q 39.453125 6.390625 43.28125 13.890625 
Q 47.125 21.390625 47.125 36.375 
Q 47.125 51.421875 43.28125 58.90625 
Q 39.453125 66.40625 31.78125 66.40625 
M 31.78125 74.21875 
Q 44.046875 74.21875 50.515625 64.515625 
Q 56.984375 54.828125 56.984375 36.375 
Q 56.984375 17.96875 50.515625 8.265625 
Q 44.046875 -1.421875 31.78125 -1.421875 
Q 19.53125 -1.421875 13.0625 8.265625 
Q 6.59375 17.96875 6.59375 36.375 
Q 6.59375 54.828125 13.0625 64.515625 
Q 19.53125 74.21875 31.78125 74.21875 
" id="DejaVuSans-30"/>
      </defs>
      <g transform="translate(58.6375 247.353208)scale(0.1 -0.1)">
       <use xlink:href="#DejaVuSans-30"/>
      </g>
     </g>
    </g>
    <g id="ytick_4">
     <g id="line2d_17">
      <path clip-path="url(#p7dbace37fe)" d="M 72 198.658669 
L 518.4 198.658669 
" style="fill:none;stroke:#b0b0b0;stroke-linecap:square;stroke-width:0.8;"/>
     </g>
     <g id="line2d_18">
      <g>
       <use style="stroke:#000000;stroke-width:0.8;" x="72" xlink:href="#mfbe206acdf" y="198.658669"/>
      </g>
     </g>
     <g id="text_9">
      <!-- 2 -->
      <g transform="translate(58.6375 202.457888)scale(0.1 -0.1)">
       <use xlink:href="#DejaVuSans-32"/>
      </g>
     </g>
    </g>
    <g id="ytick_5">
     <g id="line2d_19">
      <path clip-path="url(#p7dbace37fe)" d="M 72 153.76335 
L 518.4 153.76335 
" style="fill:none;stroke:#b0b0b0;stroke-linecap:square;stroke-width:0.8;"/>
     </g>
     <g id="line2d_20">
      <g>
       <use style="stroke:#000000;stroke-width:0.8;" x="72" xlink:href="#mfbe206acdf" y="153.76335"/>
      </g>
     </g>
     <g id="text_10">
      <!-- 4 -->
      <g transform="translate(58.6375 157.562568)scale(0.1 -0.1)">
       <use xlink:href="#DejaVuSans-34"/>
      </g>
     </g>
    </g>
    <g id="ytick_6">
     <g id="line2d_21">
      <path clip-path="url(#p7dbace37fe)" d="M 72 108.86803 
L 518.4 108.86803 
" style="fill:none;stroke:#b0b0b0;stroke-linecap:square;stroke-width:0.8;"/>
     </g>
     <g id="line2d_22">
      <g>
       <use style="stroke:#000000;stroke-width:0.8;" x="72" xlink:href="#mfbe206acdf" y="108.86803"/>
      </g>
     </g>
     <g id="text_11">
      <!-- 6 -->
      <defs>
       <path d="M 33.015625 40.375 
Q 26.375 40.375 22.484375 35.828125 
Q 18.609375 31.296875 18.609375 23.390625 
Q 18.609375 15.53125 22.484375 10.953125 
Q 26.375 6.390625 33.015625 6.390625 
Q 39.65625 6.390625 43.53125 10.953125 
Q 47.40625 15.53125 47.40625 23.390625 
Q 47.40625 31.296875 43.53125 35.828125 
Q 39.65625 40.375 33.015625 40.375 
M 52.59375 71.296875 
L 52.59375 62.3125 
Q 48.875 64.0625 45.09375 64.984375 
Q 41.3125 65.921875 37.59375 65.921875 
Q 27.828125 65.921875 22.671875 59.328125 
Q 17.53125 52.734375 16.796875 39.40625 
Q 19.671875 43.65625 24.015625 45.921875 
Q 28.375 48.1875 33.59375 48.1875 
Q 44.578125 48.1875 50.953125 41.515625 
Q 57.328125 34.859375 57.328125 23.390625 
Q 57.328125 12.15625 50.6875 5.359375 
Q 44.046875 -1.421875 33.015625 -1.421875 
Q 20.359375 -1.421875 13.671875 8.265625 
Q 6.984375 17.96875 6.984375 36.375 
Q 6.984375 53.65625 15.1875 63.9375 
Q 23.390625 74.21875 37.203125 74.21875 
Q 40.921875 74.21875 44.703125 73.484375 
Q 48.484375 72.75 52.59375 71.296875 
" id="DejaVuSans-36"/>
      </defs>
      <g transform="translate(58.6375 112.667249)scale(0.1 -0.1)">
       <use xlink:href="#DejaVuSans-36"/>
      </g>
     </g>
    </g>
    <g id="ytick_7">
     <g id="line2d_23">
      <path clip-path="url(#p7dbace37fe)" d="M 72 63.97271 
L 518.4 63.97271 
" style="fill:none;stroke:#b0b0b0;stroke-linecap:square;stroke-width:0.8;"/>
     </g>
     <g id="line2d_24">
      <g>
       <use style="stroke:#000000;stroke-width:0.8;" x="72" xlink:href="#mfbe206acdf" y="63.97271"/>
      </g>
     </g>
     <g id="text_12">
      <!-- 8 -->
      <defs>
       <path d="M 31.78125 34.625 
Q 24.75 34.625 20.71875 30.859375 
Q 16.703125 27.09375 16.703125 20.515625 
Q 16.703125 13.921875 20.71875 10.15625 
Q 24.75 6.390625 31.78125 6.390625 
Q 38.8125 6.390625 42.859375 10.171875 
Q 46.921875 13.96875 46.921875 20.515625 
Q 46.921875 27.09375 42.890625 30.859375 
Q 38.875 34.625 31.78125 34.625 
M 21.921875 38.8125 
Q 15.578125 40.375 12.03125 44.71875 
Q 8.5 49.078125 8.5 55.328125 
Q 8.5 64.0625 14.71875 69.140625 
Q 20.953125 74.21875 31.78125 74.21875 
Q 42.671875 74.21875 48.875 69.140625 
Q 55.078125 64.0625 55.078125 55.328125 
Q 55.078125 49.078125 51.53125 44.71875 
Q 48 40.375 41.703125 38.8125 
Q 48.828125 37.15625 52.796875 32.3125 
Q 56.78125 27.484375 56.78125 20.515625 
Q 56.78125 9.90625 50.3125 4.234375 
Q 43.84375 -1.421875 31.78125 -1.421875 
Q 19.734375 -1.421875 13.25 4.234375 
Q 6.78125 9.90625 6.78125 20.515625 
Q 6.78125 27.484375 10.78125 32.3125 
Q 14.796875 37.15625 21.921875 38.8125 
M 18.3125 54.390625 
Q 18.3125 48.734375 21.84375 45.5625 
Q 25.390625 42.390625 31.78125 42.390625 
Q 38.140625 42.390625 41.71875 45.5625 
Q 45.3125 48.734375 45.3125 54.390625 
Q 45.3125 60.0625 41.71875 63.234375 
Q 38.140625 66.40625 31.78125 66.40625 
Q 25.390625 66.40625 21.84375 63.234375 
Q 18.3125 60.0625 18.3125 54.390625 
" id="DejaVuSans-38"/>
      </defs>
      <g transform="translate(58.6375 67.771929)scale(0.1 -0.1)">
       <use xlink:href="#DejaVuSans-38"/>
      </g>
     </g>
    </g>
   </g>
   <g id="line2d_25">
    <path clip-path="url(#p7dbace37fe)" d="M 92.290909 303.314992 
L 93.405794 301.681436 
L 94.520679 290.520094 
L 95.635564 293.363496 
L 96.75045 303.845068 
L 97.865335 290.346813 
L 98.98022 290.469448 
L 100.095105 291.483668 
L 101.20999 299.386902 
L 102.324875 310.301006 
L 103.43976 298.26435 
L 104.554645 297.519078 
L 105.66953 289.546346 
L 106.784416 299.031594 
L 107.899301 298.980204 
L 109.014186 289.968308 
L 110.129071 297.054236 
L 111.243956 297.040439 
L 112.358841 299.907267 
L 113.473726 315.845817 
L 114.588611 327.484497 
L 115.703497 303.405968 
L 116.818382 293.854426 
L 117.933267 292.899205 
L 119.048152 290.647541 
L 120.163037 283.100007 
L 121.277922 306.071836 
L 122.392807 288.895263 
L 123.507692 285.919132 
L 124.622577 296.868314 
L 125.737463 297.616929 
L 126.852348 320.198622 
L 127.967233 301.227739 
L 129.082118 286.203209 
L 130.197003 288.698912 
L 131.311888 282.747292 
L 132.426773 283.878809 
L 133.541658 300.433673 
L 134.656543 308.081256 
L 135.771429 286.990495 
L 136.886314 294.314441 
L 138.001199 292.916862 
L 139.116084 291.927518 
L 140.230969 296.992528 
L 141.345854 303.821588 
L 142.460739 295.458583 
L 143.575624 301.020239 
L 144.690509 304.031436 
L 145.805395 299.702506 
L 146.92028 291.023245 
L 148.035165 294.593519 
L 149.15005 294.147747 
L 150.264935 294.121301 
L 151.37982 283.026681 
L 152.494705 295.681894 
L 153.60959 290.829064 
L 154.724476 281.283466 
L 155.839361 280.354293 
L 156.954246 289.452198 
L 158.069131 293.747457 
L 159.184016 299.218352 
L 160.298901 294.351812 
L 161.413786 312.338835 
L 162.528671 302.103596 
L 163.643556 282.368379 
L 164.758442 294.089189 
L 165.873327 298.161164 
L 166.988212 288.413981 
L 168.103097 304.222333 
L 169.217982 303.585902 
L 170.332867 293.838827 
L 171.447752 290.149917 
L 172.562637 280.008291 
L 173.677522 286.799816 
L 174.792408 288.979517 
L 175.907293 296.788677 
L 177.022178 295.127675 
L 178.137063 285.550193 
L 179.251948 293.833337 
L 180.366833 303.421816 
L 181.481718 289.52341 
L 182.596603 302.167012 
L 183.711489 285.423697 
L 184.826374 291.467192 
L 185.941259 292.453198 
L 187.056144 289.95576 
L 188.171029 292.244052 
L 189.285914 285.566946 
L 190.400799 285.463131 
L 191.515684 294.911123 
L 192.630569 283.913566 
L 193.745455 291.89008 
L 194.86034 284.911631 
L 195.975225 293.851999 
L 197.09011 288.264023 
L 198.204995 299.156929 
L 199.31988 284.893571 
L 200.434765 286.787722 
L 201.54965 288.454407 
L 202.664535 285.923088 
L 203.779421 291.310174 
L 204.894306 287.047277 
L 206.009191 281.73105 
L 207.124076 282.103043 
L 208.238961 301.530064 
L 209.353846 293.738499 
L 210.468731 293.109261 
L 211.583616 289.51135 
L 212.698501 289.357775 
L 213.813387 312.364774 
L 214.928272 292.474421 
L 216.043157 292.422083 
L 217.158042 295.058115 
L 218.272927 283.812524 
L 219.387812 291.636231 
L 220.502697 290.890144 
L 221.617582 308.769895 
L 222.732468 300.534315 
L 223.847353 286.504005 
L 224.962238 288.242774 
L 226.077123 290.388483 
L 227.192008 284.274588 
L 228.306893 293.02425 
L 229.421778 287.025489 
L 231.651548 315.099216 
L 232.766434 307.720334 
L 233.881319 298.590711 
L 234.996204 304.99737 
L 236.111089 309.765993 
L 237.225974 301.570357 
L 238.340859 301.120566 
L 239.455744 294.587393 
L 240.570629 282.456747 
L 241.685514 303.864102 
L 242.8004 322.919902 
L 243.915285 307.560157 
L 245.03017 300.479543 
L 246.145055 304.517211 
L 247.25994 291.127326 
L 248.374825 313.222055 
L 249.48971 290.74904 
L 250.604595 283.675792 
L 251.719481 305.984552 
L 252.834366 291.041893 
L 253.949251 306.887524 
L 255.064136 300.984851 
L 256.179021 302.162345 
L 257.293906 293.906836 
L 258.408791 298.384941 
L 259.523676 306.054237 
L 260.638561 309.890784 
L 261.753447 299.292205 
L 262.868332 301.08558 
L 263.983217 294.099945 
L 265.098102 305.327598 
L 266.212987 321.665385 
L 267.327872 309.945885 
L 268.442757 309.790767 
L 269.557642 301.957598 
L 270.672527 321.546206 
L 271.787413 291.056683 
L 272.902298 287.760678 
L 274.017183 288.50986 
L 275.132068 305.590999 
L 276.246953 291.544907 
L 277.361838 297.601301 
L 278.476723 288.586546 
L 279.591608 296.030561 
L 280.706494 295.126353 
L 281.821379 302.89304 
L 282.936264 296.53803 
L 284.051149 297.521222 
L 285.166034 291.258526 
L 286.280919 296.379125 
L 287.395804 295.337475 
L 288.510689 298.06565 
L 289.625574 293.796305 
L 290.74046 288.056378 
L 291.855345 284.013633 
L 292.97023 280.459597 
L 294.085115 286.657083 
L 295.2 285.311364 
L 296.314885 290.756501 
L 297.42977 288.097172 
L 298.544655 276.968079 
L 299.65954 278.409486 
L 300.774426 272.389326 
L 301.889311 274.264254 
L 303.004196 290.650954 
L 304.119081 289.394283 
L 305.233966 278.476093 
L 306.348851 291.432908 
L 307.463736 295.525135 
L 308.578621 286.319392 
L 309.693506 275.221868 
L 310.808392 276.275632 
L 311.923277 291.029184 
L 313.038162 286.998809 
L 314.153047 290.013576 
L 315.267932 295.875982 
L 316.382817 296.978183 
L 317.497702 297.670839 
L 318.612587 301.36107 
L 319.727473 297.784133 
L 320.842358 290.413254 
L 321.957243 279.034566 
L 323.072128 288.557537 
L 324.187013 288.680692 
L 325.301898 304.72203 
L 326.416783 305.359916 
L 327.531668 288.520847 
L 328.646553 302.03421 
L 329.761439 287.549482 
L 330.876324 295.624505 
L 331.991209 289.070095 
L 333.106094 290.303904 
L 334.220979 274.207541 
L 336.450749 283.849839 
L 337.565634 282.164447 
L 339.795405 304.193248 
L 340.91029 285.250749 
L 342.025175 297.785457 
L 343.14006 297.23726 
L 344.254945 285.324759 
L 345.36983 294.022645 
L 346.484715 287.181726 
L 347.5996 285.503728 
L 348.714486 296.711522 
L 349.829371 305.961228 
L 350.944256 295.283592 
L 352.059141 299.477155 
L 353.174026 299.127672 
L 354.288911 277.697468 
L 355.403796 284.565791 
L 356.518681 287.894634 
L 357.633566 274.919039 
L 358.748452 283.662374 
L 359.863337 287.592455 
L 360.978222 280.994086 
L 362.093107 291.938191 
L 363.207992 295.516208 
L 364.322877 291.514242 
L 365.437762 283.52262 
L 366.552647 280.36647 
L 367.667532 290.824056 
L 368.782418 309.000185 
L 369.897303 305.025716 
L 371.012188 299.847035 
L 372.127073 318.349163 
L 373.241958 292.164689 
L 374.356843 305.675034 
L 375.471728 309.367129 
L 376.586613 288.645871 
L 377.701499 294.594451 
L 378.816384 296.274621 
L 379.931269 293.215195 
L 381.046154 297.446699 
L 382.161039 310.627388 
L 384.390809 298.048473 
L 385.505694 304.106487 
L 386.620579 290.907867 
L 387.735465 289.962248 
L 388.85035 280.224359 
L 389.965235 288.720006 
L 391.08012 312.1431 
L 392.195005 289.539833 
L 393.30989 284.944016 
L 394.424775 286.36026 
L 395.53966 305.371655 
L 396.654545 307.109347 
L 397.769431 295.85956 
L 398.884316 294.851248 
L 399.999201 301.988143 
L 401.114086 307.535215 
L 402.228971 303.377081 
L 403.343856 297.10864 
L 404.458741 287.096432 
L 405.573626 288.170761 
L 406.688511 302.790027 
L 407.803397 300.178709 
L 408.918282 287.700087 
L 410.033167 283.065634 
L 411.148052 289.335727 
L 412.262937 294.274401 
L 413.377822 294.443806 
L 414.492707 292.832107 
L 415.607592 290.80878 
L 416.722478 299.714604 
L 417.837363 292.399589 
L 418.952248 300.413356 
L 420.067133 289.654228 
L 421.182018 295.967944 
L 422.296903 299.570136 
L 423.411788 309.822745 
L 424.526673 325.370502 
L 425.641558 294.994644 
L 426.756444 292.865183 
L 427.871329 295.936327 
L 428.986214 294.009607 
L 430.101099 288.172085 
L 431.215984 285.723641 
L 432.330869 301.848473 
L 433.445754 290.33511 
L 434.560639 293.007758 
L 435.675524 280.665236 
L 436.79041 294.943564 
L 437.905295 285.396097 
L 439.02018 287.665338 
L 440.135065 294.213831 
L 441.24995 290.179762 
L 442.364835 288.921796 
L 443.47972 289.821989 
L 444.594605 290.576016 
L 445.709491 295.704687 
L 446.824376 287.109924 
L 447.939261 294.078086 
L 449.054146 292.764188 
L 450.169031 326.420122 
L 451.283916 314.947427 
L 452.398801 296.94241 
L 453.513686 294.840718 
L 454.628571 308.459413 
L 455.743457 300.826717 
L 456.858342 302.03466 
L 457.973227 296.233889 
L 459.088112 298.875828 
L 460.202997 297.906457 
L 461.317882 286.345096 
L 462.432767 285.169807 
L 463.547652 294.825023 
L 464.662537 306.674847 
L 465.777423 307.905082 
L 466.892308 310.942251 
L 468.007193 299.065918 
L 469.122078 296.134242 
L 470.236963 287.984433 
L 471.351848 293.574241 
L 472.466733 294.930506 
L 473.581618 293.091628 
L 474.696503 309.229007 
L 475.811389 309.349796 
L 476.926274 326.648366 
L 478.041159 289.147611 
L 479.156044 285.348597 
L 480.270929 291.303604 
L 481.385814 277.187813 
L 484.73047 291.490987 
L 485.845355 303.642952 
L 486.96024 305.785156 
L 488.075125 332.247273 
L 489.19001 320.849556 
L 490.304895 295.854533 
L 491.41978 316.325827 
L 492.534665 292.308796 
L 493.64955 298.49035 
L 494.764436 292.611404 
L 495.879321 302.437114 
L 496.994206 295.62395 
L 498.109091 307.531084 
L 498.109091 307.531084 
" style="fill:none;stroke:#1f77b4;stroke-linecap:square;stroke-width:1.5;"/>
   </g>
   <g id="line2d_26">
    <path clip-path="url(#p7dbace37fe)" d="M 92.290909 213.146451 
L 93.405794 207.463534 
L 94.520679 219.108058 
L 95.635564 218.09301 
L 96.75045 211.122789 
L 97.865335 219.36311 
L 98.98022 218.596906 
L 100.095105 211.312548 
L 101.20999 214.229541 
L 102.324875 210.521971 
L 103.43976 212.841295 
L 104.554645 212.565252 
L 105.66953 213.577933 
L 106.784416 206.078592 
L 107.899301 202.765884 
L 109.014186 207.003484 
L 110.129071 209.485302 
L 111.243956 211.024139 
L 112.358841 210.2358 
L 113.473726 205.522104 
L 114.588611 202.008086 
L 115.703497 208.541937 
L 116.818382 208.782382 
L 117.933267 214.695505 
L 119.048152 213.577611 
L 120.163037 219.866238 
L 121.277922 210.439685 
L 123.507692 220.397779 
L 124.622577 217.99577 
L 125.737463 214.287345 
L 126.852348 212.879867 
L 127.967233 218.303253 
L 129.082118 219.330548 
L 130.197003 220.643346 
L 131.311888 223.723463 
L 132.426773 217.618984 
L 133.541658 213.455189 
L 134.656543 213.894721 
L 135.771429 216.725746 
L 136.886314 211.549288 
L 138.001199 216.512067 
L 140.230969 207.548665 
L 141.345854 207.163833 
L 142.460739 216.153463 
L 143.575624 210.689683 
L 144.690509 209.99071 
L 145.805395 213.199116 
L 146.92028 211.711148 
L 148.035165 211.299001 
L 149.15005 218.148889 
L 150.264935 215.010604 
L 151.37982 218.592389 
L 152.494705 217.155815 
L 153.60959 219.545501 
L 155.839361 226.774045 
L 156.954246 224.688215 
L 158.069131 215.466154 
L 159.184016 211.157358 
L 160.298901 217.957569 
L 161.413786 216.637125 
L 162.528671 212.824919 
L 163.643556 220.590771 
L 164.758442 222.346057 
L 165.873327 216.90809 
L 166.988212 221.087182 
L 168.103097 222.932899 
L 169.217982 218.251412 
L 170.332867 220.532667 
L 171.447752 217.078274 
L 172.562637 221.089929 
L 173.677522 222.211671 
L 174.792408 215.182447 
L 175.907293 205.87002 
L 177.022178 217.308113 
L 178.137063 221.590405 
L 179.251948 222.178114 
L 180.366833 218.35875 
L 181.481718 221.296784 
L 182.596603 210.717068 
L 183.711489 216.887637 
L 184.826374 217.783216 
L 185.941259 211.509071 
L 187.056144 218.216138 
L 188.171029 214.255008 
L 189.285914 218.914457 
L 190.400799 221.458145 
L 191.515684 221.353897 
L 192.630569 219.615836 
L 193.745455 208.095439 
L 194.86034 222.956931 
L 195.975225 221.259869 
L 197.09011 214.488104 
L 198.204995 208.770734 
L 199.31988 221.769579 
L 200.434765 221.856504 
L 201.54965 217.68451 
L 202.664535 222.68942 
L 203.779421 224.227147 
L 204.894306 224.667438 
L 206.009191 227.188327 
L 207.124076 222.313625 
L 208.238961 218.027423 
L 209.353846 221.537705 
L 210.468731 218.318516 
L 211.583616 214.098652 
L 212.698501 218.451838 
L 213.813387 212.073289 
L 214.928272 219.792875 
L 216.043157 213.06773 
L 217.158042 210.55756 
L 218.272927 217.121268 
L 220.502697 216.20383 
L 222.732468 203.298311 
L 223.847353 216.958422 
L 224.962238 215.387245 
L 226.077123 218.127734 
L 227.192008 221.79993 
L 228.306893 219.693379 
L 230.536663 217.434766 
L 231.651548 214.680164 
L 232.766434 210.476139 
L 233.881319 210.96801 
L 234.996204 205.970797 
L 236.111089 201.884939 
L 237.225974 201.665647 
L 238.340859 208.815767 
L 239.455744 219.023479 
L 240.570629 225.661531 
L 241.685514 210.692908 
L 242.8004 194.056315 
L 243.915285 205.090897 
L 245.03017 211.770218 
L 246.145055 211.104766 
L 247.25994 212.281967 
L 248.374825 202.531437 
L 249.48971 217.45485 
L 250.604595 218.703068 
L 251.719481 204.451133 
L 252.834366 217.894002 
L 253.949251 207.358004 
L 255.064136 206.792646 
L 256.179021 203.268922 
L 257.293906 211.853366 
L 258.408791 210.664781 
L 259.523676 206.25427 
L 260.638561 202.639041 
L 261.753447 204.697812 
L 262.868332 203.306073 
L 263.983217 215.875366 
L 265.098102 202.709635 
L 266.212987 195.637185 
L 267.327872 191.255713 
L 268.442757 199.452148 
L 269.557642 203.452295 
L 270.672527 197.119148 
L 271.787413 216.41249 
L 272.902298 221.660811 
L 274.017183 220.616834 
L 275.132068 216.835927 
L 277.361838 217.149878 
L 278.476723 225.532247 
L 279.591608 225.326812 
L 280.706494 226.024608 
L 281.821379 224.74138 
L 282.936264 220.501245 
L 284.051149 226.914527 
L 285.166034 230.281424 
L 286.280919 224.373664 
L 287.395804 226.797188 
L 288.510689 221.871846 
L 289.625574 224.698476 
L 290.74046 229.798557 
L 291.855345 229.901471 
L 292.97023 231.94818 
L 294.085115 233.161302 
L 295.2 232.536024 
L 297.42977 230.491765 
L 298.544655 233.812337 
L 299.65954 234.785502 
L 300.774426 236.399477 
L 301.889311 236.910989 
L 303.004196 231.578288 
L 304.119081 228.076801 
L 305.233966 233.226028 
L 307.463736 229.872391 
L 308.578621 232.209696 
L 309.693506 235.405303 
L 310.808392 235.497831 
L 311.923277 231.913643 
L 313.038162 233.681961 
L 314.153047 232.157542 
L 315.267932 227.874077 
L 316.382817 227.33019 
L 317.497702 225.207021 
L 318.612587 225.747022 
L 319.727473 226.853371 
L 320.842358 229.416885 
L 321.957243 232.589732 
L 323.072128 228.491169 
L 324.187013 228.25648 
L 325.301898 222.248642 
L 326.416783 225.582818 
L 327.531668 227.029097 
L 328.646553 223.572637 
L 329.761439 231.718619 
L 330.876324 226.782647 
L 331.991209 229.986102 
L 333.106094 229.607266 
L 334.220979 236.916566 
L 335.335864 234.01422 
L 336.450749 232.002456 
L 337.565634 231.368463 
L 338.680519 229.296103 
L 339.795405 226.677648 
L 340.91029 229.046726 
L 342.025175 227.520328 
L 343.14006 228.759653 
L 344.254945 229.799309 
L 345.36983 227.169909 
L 346.484715 230.197742 
L 347.5996 229.426407 
L 348.714486 224.902026 
L 349.829371 223.435278 
L 350.944256 223.331785 
L 352.059141 222.788225 
L 353.174026 221.222988 
L 354.288911 232.500112 
L 355.403796 232.152664 
L 356.518681 232.072682 
L 357.633566 234.108604 
L 358.748452 234.581304 
L 359.863337 231.051759 
L 360.978222 231.427711 
L 362.093107 224.548273 
L 363.207992 226.448715 
L 364.322877 226.374314 
L 365.437762 231.869575 
L 366.552647 231.305156 
L 368.782418 224.514715 
L 369.897303 225.429849 
L 371.012188 224.421223 
L 372.127073 217.59387 
L 373.241958 223.862335 
L 374.356843 220.808251 
L 375.471728 220.348897 
L 376.586613 227.512571 
L 377.701499 228.971068 
L 378.816384 227.171203 
L 379.931269 228.718009 
L 381.046154 219.059424 
L 382.161039 217.880448 
L 383.275924 220.420219 
L 384.390809 217.497581 
L 385.505694 219.019784 
L 386.620579 232.676632 
L 387.735465 227.964372 
L 388.85035 231.908394 
L 389.965235 229.735189 
L 391.08012 222.964831 
L 392.195005 228.924764 
L 393.30989 231.32094 
L 394.424775 226.823606 
L 395.53966 216.644911 
L 396.654545 217.277761 
L 397.769431 221.065712 
L 398.884316 216.782127 
L 399.999201 217.288431 
L 401.114086 215.563689 
L 402.228971 219.632765 
L 403.343856 219.218256 
L 404.458741 224.783501 
L 405.573626 225.413196 
L 406.688511 221.138472 
L 407.803397 215.363909 
L 410.033167 229.76335 
L 411.148052 225.713042 
L 412.262937 223.539863 
L 413.377822 225.979346 
L 414.492707 227.192795 
L 415.607592 227.065916 
L 416.722478 225.804019 
L 417.837363 227.496477 
L 418.952248 225.175886 
L 420.067133 224.634377 
L 421.182018 218.015325 
L 422.296903 221.481988 
L 423.411788 222.933488 
L 424.526673 213.015424 
L 425.641558 219.856999 
L 426.756444 216.687315 
L 427.871329 220.274882 
L 428.986214 214.145442 
L 430.101099 222.598808 
L 431.215984 224.69444 
L 432.330869 218.945353 
L 433.445754 222.656962 
L 434.560639 217.547656 
L 435.675524 225.030875 
L 436.79041 218.041276 
L 437.905295 222.940555 
L 439.02018 214.145124 
L 440.135065 214.51442 
L 441.24995 215.91049 
L 442.364835 219.434001 
L 443.47972 213.70427 
L 444.594605 214.097164 
L 445.709491 210.183857 
L 446.824376 220.462299 
L 447.939261 219.572565 
L 450.169031 201.347855 
L 451.283916 213.538288 
L 452.398801 214.123604 
L 453.513686 218.046433 
L 454.628571 207.846709 
L 455.743457 211.620566 
L 456.858342 204.920106 
L 457.973227 214.531424 
L 459.088112 205.526088 
L 460.202997 216.82746 
L 461.317882 220.476053 
L 462.432767 220.323774 
L 463.547652 213.824355 
L 464.662537 205.936409 
L 465.777423 201.035986 
L 466.892308 201.848838 
L 468.007193 210.56143 
L 469.122078 214.184068 
L 470.236963 214.183123 
L 471.351848 211.367613 
L 472.466733 217.759137 
L 473.581618 214.333479 
L 474.696503 215.944777 
L 475.811389 214.871326 
L 476.926274 210.445841 
L 478.041159 215.119644 
L 479.156044 219.256497 
L 480.270929 221.299588 
L 481.385814 224.739532 
L 482.500699 221.632615 
L 483.615584 220.252393 
L 484.73047 217.189634 
L 485.845355 213.127727 
L 486.96024 211.121197 
L 488.075125 199.141786 
L 489.19001 207.668168 
L 490.304895 212.284943 
L 491.41978 206.501507 
L 492.534665 217.111198 
L 494.764436 209.526397 
L 495.879321 211.759325 
L 496.994206 207.805577 
L 498.109091 207.992545 
L 498.109091 207.992545 
" style="fill:none;stroke:#ff7f0e;stroke-linecap:square;stroke-width:1.5;"/>
   </g>
   <g id="line2d_27">
    <path clip-path="url(#p7dbace37fe)" d="M 92.290909 122.977909 
L 93.405794 113.245632 
L 94.520679 147.696022 
L 95.635564 142.822523 
L 96.75045 118.400511 
L 97.865335 148.379408 
L 98.98022 146.724364 
L 100.095105 131.141428 
L 101.20999 129.072181 
L 102.324875 110.742936 
L 103.43976 127.418239 
L 104.554645 127.611426 
L 105.66953 137.609519 
L 106.784416 113.125591 
L 107.899301 106.551563 
L 109.014186 124.03866 
L 110.129071 121.916368 
L 111.243956 125.007839 
L 112.358841 120.564333 
L 113.473726 95.198392 
L 114.588611 76.531676 
L 115.703497 113.677905 
L 116.818382 123.710337 
L 117.933267 136.491805 
L 119.048152 136.507681 
L 120.163037 156.63247 
L 121.277922 114.807533 
L 122.392807 141.912114 
L 123.507692 154.876426 
L 124.622577 139.123227 
L 125.737463 130.957761 
L 126.852348 105.561112 
L 127.967233 135.378768 
L 129.082118 152.457887 
L 130.197003 152.587781 
L 131.311888 164.699634 
L 132.426773 151.359159 
L 133.541658 126.476704 
L 134.656543 119.708185 
L 135.771429 146.460996 
L 136.886314 128.784135 
L 138.001199 140.107272 
L 139.116084 132.122351 
L 140.230969 118.104802 
L 141.345854 110.506079 
L 142.460739 136.848343 
L 143.575624 120.359126 
L 144.690509 115.949984 
L 145.805395 126.695725 
L 146.92028 132.399051 
L 148.035165 128.004484 
L 149.15005 142.150032 
L 150.264935 135.899908 
L 151.37982 154.158097 
L 152.494705 138.629735 
L 153.60959 148.261937 
L 154.724476 164.771682 
L 155.839361 173.193797 
L 156.954246 159.924232 
L 158.069131 137.18485 
L 159.184016 123.096364 
L 160.298901 141.563326 
L 161.413786 120.935416 
L 162.528671 123.546242 
L 163.643556 158.813164 
L 164.758442 150.602924 
L 165.873327 135.655017 
L 166.988212 153.760383 
L 168.103097 141.643465 
L 169.217982 132.916923 
L 170.332867 147.226506 
L 171.447752 144.006631 
L 172.562637 162.171567 
L 173.677522 157.623525 
L 174.792408 141.385377 
L 175.907293 114.951362 
L 177.022178 139.48855 
L 178.137063 157.630618 
L 179.251948 150.52289 
L 180.366833 133.295683 
L 181.481718 153.070158 
L 182.596603 119.267123 
L 183.711489 148.351576 
L 184.826374 144.099239 
L 185.941259 130.564943 
L 187.056144 146.476515 
L 188.171029 136.265963 
L 189.285914 152.261969 
L 190.400799 157.45316 
L 191.515684 147.796671 
L 192.630569 155.318105 
L 193.745455 124.300799 
L 194.86034 161.002231 
L 195.975225 148.667739 
L 197.09011 140.712185 
L 198.204995 118.384538 
L 199.31988 158.645587 
L 200.434765 156.925286 
L 201.54965 146.914613 
L 202.664535 159.455752 
L 203.779421 157.144121 
L 204.894306 162.287599 
L 206.009191 172.645604 
L 207.124076 162.524208 
L 208.238961 134.524782 
L 209.353846 149.336911 
L 210.468731 143.52777 
L 211.583616 138.685954 
L 212.698501 147.5459 
L 213.813387 111.781805 
L 214.928272 147.111328 
L 216.043157 133.713378 
L 217.158042 126.057005 
L 218.272927 150.430013 
L 219.387812 141.700371 
L 220.502697 141.517515 
L 221.617582 110.315541 
L 222.732468 106.062308 
L 223.847353 147.412838 
L 224.962238 142.531715 
L 226.077123 145.866986 
L 227.192008 159.325272 
L 228.306893 146.362508 
L 229.421778 150.226699 
L 231.651548 114.261112 
L 232.766434 113.231943 
L 233.881319 123.345308 
L 234.996204 106.944225 
L 236.111089 94.003884 
L 237.225974 101.760937 
L 238.340859 116.510968 
L 240.570629 168.866316 
L 242.8004 65.192727 
L 243.915285 102.621637 
L 245.03017 123.060894 
L 246.145055 117.692321 
L 247.25994 133.436608 
L 248.374825 91.84082 
L 249.48971 144.16066 
L 250.604595 153.730344 
L 251.719481 102.917714 
L 252.834366 144.74611 
L 253.949251 107.828485 
L 255.064136 112.600441 
L 256.179021 104.3755 
L 257.293906 129.799897 
L 258.408791 122.94462 
L 259.523676 106.454302 
L 260.638561 95.387298 
L 261.753447 110.103419 
L 262.868332 105.526567 
L 263.983217 137.650786 
L 265.098102 100.091673 
L 266.212987 69.608986 
L 267.327872 72.565541 
L 269.557642 104.946992 
L 270.672527 72.69209 
L 271.787413 141.768297 
L 272.902298 155.560943 
L 274.017183 152.723808 
L 275.132068 128.080855 
L 276.246953 142.466096 
L 277.361838 136.698455 
L 278.476723 162.477948 
L 279.591608 154.623063 
L 280.706494 156.922864 
L 281.821379 146.589719 
L 282.936264 144.464459 
L 285.166034 169.304321 
L 286.280919 152.368202 
L 287.395804 158.256902 
L 288.510689 145.678042 
L 289.625574 155.600648 
L 290.74046 171.540735 
L 291.855345 175.789309 
L 292.97023 183.436763 
L 294.085115 179.665522 
L 295.2 179.760684 
L 296.314885 172.205271 
L 297.42977 172.886357 
L 298.544655 190.656596 
L 299.65954 191.161517 
L 300.774426 200.409628 
L 301.889311 199.557724 
L 303.004196 172.505623 
L 304.119081 166.75932 
L 305.233966 187.975962 
L 306.348851 171.623098 
L 307.463736 164.219647 
L 308.578621 178.1 
L 309.693506 195.588739 
L 310.808392 194.72003 
L 311.923277 172.798102 
L 313.038162 180.365113 
L 314.153047 174.301508 
L 315.267932 159.872172 
L 316.382817 157.682197 
L 317.497702 152.743202 
L 318.612587 150.132975 
L 319.727473 155.922609 
L 320.842358 168.420515 
L 321.957243 186.144898 
L 323.072128 168.424802 
L 324.187013 167.832268 
L 325.301898 139.775253 
L 326.416783 145.80572 
L 327.531668 165.537347 
L 328.646553 145.111065 
L 329.761439 175.887756 
L 330.876324 157.940789 
L 331.991209 170.902109 
L 333.106094 168.910629 
L 334.220979 199.625591 
L 335.335864 189.04632 
L 336.450749 180.155073 
L 337.565634 180.572478 
L 339.795405 149.162049 
L 340.91029 172.842704 
L 342.025175 157.255198 
L 343.14006 160.282045 
L 344.254945 174.27386 
L 345.36983 160.317173 
L 346.484715 173.213758 
L 347.5996 173.349087 
L 348.714486 153.09253 
L 349.829371 140.909328 
L 350.944256 151.379979 
L 352.059141 146.099294 
L 353.174026 143.318303 
L 354.288911 187.302756 
L 355.403796 179.739537 
L 356.518681 176.250729 
L 357.633566 193.298168 
L 358.748452 185.500234 
L 359.863337 174.511063 
L 360.978222 181.861336 
L 362.093107 157.158354 
L 363.207992 157.381222 
L 364.322877 161.234385 
L 365.437762 180.21653 
L 366.552647 182.243843 
L 367.667532 165.177705 
L 368.782418 140.029246 
L 369.897303 145.833982 
L 371.012188 148.995411 
L 372.127073 116.838577 
L 373.241958 155.559981 
L 374.356843 135.941469 
L 375.471728 131.330666 
L 376.586613 166.379272 
L 377.701499 163.347684 
L 378.816384 158.067784 
L 379.931269 164.220824 
L 381.046154 140.67215 
L 382.161039 125.133507 
L 383.275924 136.347335 
L 384.390809 136.946688 
L 385.505694 133.93308 
L 386.620579 174.445397 
L 387.735465 165.966497 
L 388.85035 183.592429 
L 389.965235 170.750372 
L 391.08012 133.786563 
L 392.195005 168.309695 
L 393.30989 177.697865 
L 394.424775 167.286952 
L 395.53966 127.918167 
L 396.654545 127.446176 
L 397.769431 146.271865 
L 398.884316 138.713007 
L 399.999201 132.58872 
L 401.114086 123.592164 
L 402.228971 135.888448 
L 403.343856 141.327872 
L 404.458741 162.47057 
L 405.573626 162.655631 
L 406.688511 139.486916 
L 407.803397 130.54911 
L 408.918282 156.994044 
L 410.033167 176.461067 
L 411.148052 162.090356 
L 412.262937 152.805324 
L 413.377822 157.514887 
L 414.492707 161.553483 
L 415.607592 163.323052 
L 416.722478 151.893433 
L 417.837363 162.593366 
L 418.952248 149.938416 
L 420.067133 159.614526 
L 421.182018 140.062706 
L 422.296903 143.39384 
L 423.411788 136.04423 
L 424.526673 100.660346 
L 425.641558 144.719354 
L 426.756444 140.509447 
L 427.871329 144.613437 
L 428.986214 134.281277 
L 430.101099 157.02553 
L 431.215984 163.665238 
L 432.330869 136.042233 
L 433.445754 154.978814 
L 434.560639 142.087554 
L 435.675524 169.396514 
L 436.79041 141.138989 
L 437.905295 160.485014 
L 439.02018 140.62491 
L 440.135065 134.815008 
L 441.24995 141.641218 
L 442.364835 149.946206 
L 443.47972 137.586551 
L 444.594605 137.618313 
L 445.709491 124.663027 
L 446.824376 153.814673 
L 447.939261 145.067045 
L 449.054146 128.603311 
L 450.169031 76.275589 
L 451.283916 112.129149 
L 452.398801 131.304797 
L 453.513686 141.252149 
L 454.628571 107.234005 
L 455.743457 122.414416 
L 456.858342 107.805552 
L 457.973227 132.828959 
L 459.088112 112.176349 
L 460.202997 135.748463 
L 461.317882 154.607011 
L 462.432767 155.47774 
L 463.547652 132.823687 
L 464.662537 105.197971 
L 465.777423 94.166889 
L 466.892308 92.755426 
L 468.007193 122.056942 
L 469.122078 132.233894 
L 470.236963 140.381812 
L 471.351848 129.160985 
L 472.466733 140.587768 
L 473.581618 135.57533 
L 474.696503 122.660547 
L 475.811389 120.392856 
L 476.926274 94.243315 
L 478.041159 141.091676 
L 479.156044 153.164397 
L 480.270929 151.295573 
L 481.385814 172.291251 
L 482.500699 161.165744 
L 483.615584 153.425839 
L 484.73047 142.888282 
L 485.845355 122.612501 
L 486.96024 116.457239 
L 488.075125 66.036299 
L 489.19001 94.486781 
L 490.304895 128.715352 
L 491.41978 96.677187 
L 492.534665 141.9136 
L 493.64955 127.857909 
L 494.764436 126.441389 
L 495.879321 121.081536 
L 496.994206 119.987204 
L 498.109091 108.454005 
L 498.109091 108.454005 
" style="fill:none;stroke:#2ca02c;stroke-linecap:square;stroke-width:1.5;"/>
   </g>
   <g id="patch_3">
    <path d="M 72 345.6 
L 72 51.84 
" style="fill:none;stroke:#000000;stroke-linecap:square;stroke-linejoin:miter;stroke-width:0.8;"/>
   </g>
   <g id="patch_4">
    <path d="M 518.4 345.6 
L 518.4 51.84 
" style="fill:none;stroke:#000000;stroke-linecap:square;stroke-linejoin:miter;stroke-width:0.8;"/>
   </g>
   <g id="patch_5">
    <path d="M 72 345.6 
L 518.4 345.6 
" style="fill:none;stroke:#000000;stroke-linecap:square;stroke-linejoin:miter;stroke-width:0.8;"/>
   </g>
   <g id="patch_6">
    <path d="M 72 51.84 
L 518.4 51.84 
" style="fill:none;stroke:#000000;stroke-linecap:square;stroke-linejoin:miter;stroke-width:0.8;"/>
   </g>
   <g id="text_13">
    <!-- Mean+-std   PRCP -->
    <defs>
     <path d="M 9.8125 72.90625 
L 24.515625 72.90625 
L 43.109375 23.296875 
L 61.8125 72.90625 
L 76.515625 72.90625 
L 76.515625 0 
L 66.890625 0 
L 66.890625 64.015625 
L 48.09375 14.015625 
L 38.1875 14.015625 
L 19.390625 64.015625 
L 19.390625 0 
L 9.8125 0 
z
" id="DejaVuSans-4d"/>
     <path d="M 56.203125 29.59375 
L 56.203125 25.203125 
L 14.890625 25.203125 
Q 15.484375 15.921875 20.484375 11.0625 
Q 25.484375 6.203125 34.421875 6.203125 
Q 39.59375 6.203125 44.453125 7.46875 
Q 49.3125 8.734375 54.109375 11.28125 
L 54.109375 2.78125 
Q 49.265625 0.734375 44.1875 -0.34375 
Q 39.109375 -1.421875 33.890625 -1.421875 
Q 20.796875 -1.421875 13.15625 6.1875 
Q 5.515625 13.8125 5.515625 26.8125 
Q 5.515625 40.234375 12.765625 48.109375 
Q 20.015625 56 32.328125 56 
Q 43.359375 56 49.78125 48.890625 
Q 56.203125 41.796875 56.203125 29.59375 
M 47.21875 32.234375 
Q 47.125 39.59375 43.09375 43.984375 
Q 39.0625 48.390625 32.421875 48.390625 
Q 24.90625 48.390625 20.390625 44.140625 
Q 15.875 39.890625 15.1875 32.171875 
z
" id="DejaVuSans-65"/>
     <path d="M 46 62.703125 
L 46 35.5 
L 73.1875 35.5 
L 73.1875 27.203125 
L 46 27.203125 
L 46 0 
L 37.796875 0 
L 37.796875 27.203125 
L 10.59375 27.203125 
L 10.59375 35.5 
L 37.796875 35.5 
L 37.796875 62.703125 
z
" id="DejaVuSans-2b"/>
     <path d="M 4.890625 31.390625 
L 31.203125 31.390625 
L 31.203125 23.390625 
L 4.890625 23.390625 
z
" id="DejaVuSans-2d"/>
     <path d="M 44.28125 53.078125 
L 44.28125 44.578125 
Q 40.484375 46.53125 36.375 47.5 
Q 32.28125 48.484375 27.875 48.484375 
Q 21.1875 48.484375 17.84375 46.4375 
Q 14.5 44.390625 14.5 40.28125 
Q 14.5 37.15625 16.890625 35.375 
Q 19.28125 33.59375 26.515625 31.984375 
L 29.59375 31.296875 
Q 39.15625 29.25 43.1875 25.515625 
Q 47.21875 21.78125 47.21875 15.09375 
Q 47.21875 7.46875 41.1875 3.015625 
Q 35.15625 -1.421875 24.609375 -1.421875 
Q 20.21875 -1.421875 15.453125 -0.5625 
Q 10.6875 0.296875 5.421875 2 
L 5.421875 11.28125 
Q 10.40625 8.6875 15.234375 7.390625 
Q 20.0625 6.109375 24.8125 6.109375 
Q 31.15625 6.109375 34.5625 8.28125 
Q 37.984375 10.453125 37.984375 14.40625 
Q 37.984375 18.0625 35.515625 20.015625 
Q 33.0625 21.96875 24.703125 23.78125 
L 21.578125 24.515625 
Q 13.234375 26.265625 9.515625 29.90625 
Q 5.8125 33.546875 5.8125 39.890625 
Q 5.8125 47.609375 11.28125 51.796875 
Q 16.75 56 26.8125 56 
Q 31.78125 56 36.171875 55.265625 
Q 40.578125 54.546875 44.28125 53.078125 
" id="DejaVuSans-73"/>
     <path d="M 45.40625 46.390625 
L 45.40625 75.984375 
L 54.390625 75.984375 
L 54.390625 0 
L 45.40625 0 
L 45.40625 8.203125 
Q 42.578125 3.328125 38.25 0.953125 
Q 33.9375 -1.421875 27.875 -1.421875 
Q 17.96875 -1.421875 11.734375 6.484375 
Q 5.515625 14.40625 5.515625 27.296875 
Q 5.515625 40.1875 11.734375 48.09375 
Q 17.96875 56 27.875 56 
Q 33.9375 56 38.25 53.625 
Q 42.578125 51.265625 45.40625 46.390625 
M 14.796875 27.296875 
Q 14.796875 17.390625 18.875 11.75 
Q 22.953125 6.109375 30.078125 6.109375 
Q 37.203125 6.109375 41.296875 11.75 
Q 45.40625 17.390625 45.40625 27.296875 
Q 45.40625 37.203125 41.296875 42.84375 
Q 37.203125 48.484375 30.078125 48.484375 
Q 22.953125 48.484375 18.875 42.84375 
Q 14.796875 37.203125 14.796875 27.296875 
" id="DejaVuSans-64"/>
     <path id="DejaVuSans-20"/>
     <path d="M 19.671875 64.796875 
L 19.671875 37.40625 
L 32.078125 37.40625 
Q 38.96875 37.40625 42.71875 40.96875 
Q 46.484375 44.53125 46.484375 51.125 
Q 46.484375 57.671875 42.71875 61.234375 
Q 38.96875 64.796875 32.078125 64.796875 
z
M 9.8125 72.90625 
L 32.078125 72.90625 
Q 44.34375 72.90625 50.609375 67.359375 
Q 56.890625 61.8125 56.890625 51.125 
Q 56.890625 40.328125 50.609375 34.8125 
Q 44.34375 29.296875 32.078125 29.296875 
L 19.671875 29.296875 
L 19.671875 0 
L 9.8125 0 
z
" id="DejaVuSans-50"/>
     <path d="M 44.390625 34.1875 
Q 47.5625 33.109375 50.5625 29.59375 
Q 53.5625 26.078125 56.59375 19.921875 
L 66.609375 0 
L 56 0 
L 46.6875 18.703125 
Q 43.0625 26.03125 39.671875 28.421875 
Q 36.28125 30.8125 30.421875 30.8125 
L 19.671875 30.8125 
L 19.671875 0 
L 9.8125 0 
L 9.8125 72.90625 
L 32.078125 72.90625 
Q 44.578125 72.90625 50.734375 67.671875 
Q 56.890625 62.453125 56.890625 51.90625 
Q 56.890625 45.015625 53.6875 40.46875 
Q 50.484375 35.9375 44.390625 34.1875 
M 19.671875 64.796875 
L 19.671875 38.921875 
L 32.078125 38.921875 
Q 39.203125 38.921875 42.84375 42.21875 
Q 46.484375 45.515625 46.484375 51.90625 
Q 46.484375 58.296875 42.84375 61.546875 
Q 39.203125 64.796875 32.078125 64.796875 
z
" id="DejaVuSans-52"/>
     <path d="M 64.40625 67.28125 
L 64.40625 56.890625 
Q 59.421875 61.53125 53.78125 63.8125 
Q 48.140625 66.109375 41.796875 66.109375 
Q 29.296875 66.109375 22.65625 58.46875 
Q 16.015625 50.828125 16.015625 36.375 
Q 16.015625 21.96875 22.65625 14.328125 
Q 29.296875 6.6875 41.796875 6.6875 
Q 48.140625 6.6875 53.78125 8.984375 
Q 59.421875 11.28125 64.40625 15.921875 
L 64.40625 5.609375 
Q 59.234375 2.09375 53.4375 0.328125 
Q 47.65625 -1.421875 41.21875 -1.421875 
Q 24.65625 -1.421875 15.125 8.703125 
Q 5.609375 18.84375 5.609375 36.375 
Q 5.609375 53.953125 15.125 64.078125 
Q 24.65625 74.21875 41.21875 74.21875 
Q 47.75 74.21875 53.53125 72.484375 
Q 59.328125 70.75 64.40625 67.28125 
" id="DejaVuSans-43"/>
    </defs>
    <g transform="translate(241.062187 45.84)scale(0.12 -0.12)">
     <use xlink:href="#DejaVuSans-4d"/>
     <use x="86.279297" xlink:href="#DejaVuSans-65"/>
     <use x="147.802734" xlink:href="#DejaVuSans-61"/>
     <use x="209.082031" xlink:href="#DejaVuSans-6e"/>
     <use x="272.460938" xlink:href="#DejaVuSans-2b"/>
     <use x="356.25" xlink:href="#DejaVuSans-2d"/>
     <use x="392.333984" xlink:href="#DejaVuSans-73"/>
     <use x="444.433594" xlink:href="#DejaVuSans-74"/>
     <use x="483.642578" xlink:href="#DejaVuSans-64"/>
     <use x="547.119141" xlink:href="#DejaVuSans-20"/>
     <use x="578.90625" xlink:href="#DejaVuSans-20"/>
     <use x="610.693359" xlink:href="#DejaVuSans-20"/>
     <use x="642.480469" xlink:href="#DejaVuSans-50"/>
     <use x="702.783203" xlink:href="#DejaVuSans-52"/>
     <use x="772.1875" xlink:href="#DejaVuSans-43"/>
     <use x="842.011719" xlink:href="#DejaVuSans-50"/>
    </g>
   </g>
   <g id="legend_1">
    <g id="patch_7">
     <path d="M 79 103.874375 
L 159.609375 103.874375 
Q 161.609375 103.874375 161.609375 101.874375 
L 161.609375 58.84 
Q 161.609375 56.84 159.609375 56.84 
L 79 56.84 
Q 77 56.84 77 58.84 
L 77 101.874375 
Q 77 103.874375 79 103.874375 
z
" style="fill:#ffffff;opacity:0.8;stroke:#cccccc;stroke-linejoin:miter;"/>
    </g>
    <g id="line2d_28">
     <path d="M 81 64.938437 
L 101 64.938437 
" style="fill:none;stroke:#1f77b4;stroke-linecap:square;stroke-width:1.5;"/>
    </g>
    <g id="line2d_29"/>
    <g id="text_14">
     <!-- avg + std -->
     <defs>
      <path d="M 2.984375 54.6875 
L 12.5 54.6875 
L 29.59375 8.796875 
L 46.6875 54.6875 
L 56.203125 54.6875 
L 35.6875 0 
L 23.484375 0 
z
" id="DejaVuSans-76"/>
      <path d="M 45.40625 27.984375 
Q 45.40625 37.75 41.375 43.109375 
Q 37.359375 48.484375 30.078125 48.484375 
Q 22.859375 48.484375 18.828125 43.109375 
Q 14.796875 37.75 14.796875 27.984375 
Q 14.796875 18.265625 18.828125 12.890625 
Q 22.859375 7.515625 30.078125 7.515625 
Q 37.359375 7.515625 41.375 12.890625 
Q 45.40625 18.265625 45.40625 27.984375 
M 54.390625 6.78125 
Q 54.390625 -7.171875 48.1875 -13.984375 
Q 42 -20.796875 29.203125 -20.796875 
Q 24.46875 -20.796875 20.265625 -20.09375 
Q 16.0625 -19.390625 12.109375 -17.921875 
L 12.109375 -9.1875 
Q 16.0625 -11.328125 19.921875 -12.34375 
Q 23.78125 -13.375 27.78125 -13.375 
Q 36.625 -13.375 41.015625 -8.765625 
Q 45.40625 -4.15625 45.40625 5.171875 
L 45.40625 9.625 
Q 42.625 4.78125 38.28125 2.390625 
Q 33.9375 0 27.875 0 
Q 17.828125 0 11.671875 7.65625 
Q 5.515625 15.328125 5.515625 27.984375 
Q 5.515625 40.671875 11.671875 48.328125 
Q 17.828125 56 27.875 56 
Q 33.9375 56 38.28125 53.609375 
Q 42.625 51.21875 45.40625 46.390625 
L 45.40625 54.6875 
L 54.390625 54.6875 
z
" id="DejaVuSans-67"/>
     </defs>
     <g transform="translate(109 68.438437)scale(0.1 -0.1)">
      <use xlink:href="#DejaVuSans-61"/>
      <use x="61.279297" xlink:href="#DejaVuSans-76"/>
      <use x="120.458984" xlink:href="#DejaVuSans-67"/>
      <use x="183.935547" xlink:href="#DejaVuSans-20"/>
      <use x="215.722656" xlink:href="#DejaVuSans-2b"/>
      <use x="299.511719" xlink:href="#DejaVuSans-20"/>
      <use x="331.298828" xlink:href="#DejaVuSans-73"/>
      <use x="383.398438" xlink:href="#DejaVuSans-74"/>
      <use x="422.607422" xlink:href="#DejaVuSans-64"/>
     </g>
    </g>
    <g id="line2d_30">
     <path d="M 81 79.616562 
L 101 79.616562 
" style="fill:none;stroke:#ff7f0e;stroke-linecap:square;stroke-width:1.5;"/>
    </g>
    <g id="line2d_31"/>
    <g id="text_15">
     <!-- avg -->
     <g transform="translate(109 83.116562)scale(0.1 -0.1)">
      <use xlink:href="#DejaVuSans-61"/>
      <use x="61.279297" xlink:href="#DejaVuSans-76"/>
      <use x="120.458984" xlink:href="#DejaVuSans-67"/>
     </g>
    </g>
    <g id="line2d_32">
     <path d="M 81 94.294687 
L 101 94.294687 
" style="fill:none;stroke:#2ca02c;stroke-linecap:square;stroke-width:1.5;"/>
    </g>
    <g id="line2d_33"/>
    <g id="text_16">
     <!-- avg - std -->
     <g transform="translate(109 97.794687)scale(0.1 -0.1)">
      <use xlink:href="#DejaVuSans-61"/>
      <use x="61.279297" xlink:href="#DejaVuSans-76"/>
      <use x="120.458984" xlink:href="#DejaVuSans-67"/>
      <use x="183.935547" xlink:href="#DejaVuSans-20"/>
      <use x="215.722656" xlink:href="#DejaVuSans-2d"/>
      <use x="251.806641" xlink:href="#DejaVuSans-20"/>
      <use x="283.59375" xlink:href="#DejaVuSans-73"/>
      <use x="335.693359" xlink:href="#DejaVuSans-74"/>
      <use x="374.902344" xlink:href="#DejaVuSans-64"/>
     </g>
    </g>
   </g>
  </g>
 </g>
 <defs>
  <clipPath id="p7dbace37fe">
   <rect height="293.76" width="446.4" x="72" y="51.84"/>
  </clipPath>
 </defs>
</svg>
