<?xml version="1.0" encoding="utf-8" standalone="no"?>
<!DOCTYPE svg PUBLIC "-//W3C//DTD SVG 1.1//EN"
  "http://www.w3.org/Graphics/SVG/1.1/DTD/svg11.dtd">
<!-- Created with matplotlib (http://matplotlib.org/) -->
<svg height="432pt" version="1.1" viewBox="0 0 720 432" width="720pt" xmlns="http://www.w3.org/2000/svg" xmlns:xlink="http://www.w3.org/1999/xlink">
 <defs>
  <style type="text/css">
*{stroke-linecap:butt;stroke-linejoin:round;}
  </style>
 </defs>
 <g id="figure_1">
  <g id="patch_1">
   <path d="M 0 432 
L 720 432 
L 720 0 
L 0 0 
z
" style="fill:#ffffff;"/>
  </g>
  <g id="axes_1">
   <g id="patch_2">
    <path d="M 90 185.367273 
L 648 185.367273 
L 648 51.84 
L 90 51.84 
z
" style="fill:#ffffff;"/>
   </g>
   <g id="matplotlib.axis_1">
    <g id="xtick_1">
     <g id="line2d_1">
      <path clip-path="url(#pd6a9703258)" d="M 115.363636 185.367273 
L 115.363636 51.84 
" style="fill:none;stroke:#b0b0b0;stroke-linecap:square;stroke-width:0.8;"/>
     </g>
     <g id="line2d_2">
      <defs>
       <path d="M 0 0 
L 0 3.5 
" id="me35b1eb413" style="stroke:#000000;stroke-width:0.8;"/>
      </defs>
      <g>
       <use style="stroke:#000000;stroke-width:0.8;" x="115.363636" xlink:href="#me35b1eb413" y="185.367273"/>
      </g>
     </g>
    </g>
    <g id="xtick_2">
     <g id="line2d_3">
      <path clip-path="url(#pd6a9703258)" d="M 240.788212 185.367273 
L 240.788212 51.84 
" style="fill:none;stroke:#b0b0b0;stroke-linecap:square;stroke-width:0.8;"/>
     </g>
     <g id="line2d_4">
      <g>
       <use style="stroke:#000000;stroke-width:0.8;" x="240.788212" xlink:href="#me35b1eb413" y="185.367273"/>
      </g>
     </g>
    </g>
    <g id="xtick_3">
     <g id="line2d_5">
      <path clip-path="url(#pd6a9703258)" d="M 367.606394 185.367273 
L 367.606394 51.84 
" style="fill:none;stroke:#b0b0b0;stroke-linecap:square;stroke-width:0.8;"/>
     </g>
     <g id="line2d_6">
      <g>
       <use style="stroke:#000000;stroke-width:0.8;" x="367.606394" xlink:href="#me35b1eb413" y="185.367273"/>
      </g>
     </g>
    </g>
    <g id="xtick_4">
     <g id="line2d_7">
      <path clip-path="url(#pd6a9703258)" d="M 495.818182 185.367273 
L 495.818182 51.84 
" style="fill:none;stroke:#b0b0b0;stroke-linecap:square;stroke-width:0.8;"/>
     </g>
     <g id="line2d_8">
      <g>
       <use style="stroke:#000000;stroke-width:0.8;" x="495.818182" xlink:href="#me35b1eb413" y="185.367273"/>
      </g>
     </g>
    </g>
    <g id="xtick_5">
     <g id="line2d_9">
      <path clip-path="url(#pd6a9703258)" d="M 624.02997 185.367273 
L 624.02997 51.84 
" style="fill:none;stroke:#b0b0b0;stroke-linecap:square;stroke-width:0.8;"/>
     </g>
     <g id="line2d_10">
      <g>
       <use style="stroke:#000000;stroke-width:0.8;" x="624.02997" xlink:href="#me35b1eb413" y="185.367273"/>
      </g>
     </g>
    </g>
   </g>
   <g id="matplotlib.axis_2">
    <g id="ytick_1">
     <g id="line2d_11">
      <path clip-path="url(#pd6a9703258)" d="M 90 161.634626 
L 648 161.634626 
" style="fill:none;stroke:#b0b0b0;stroke-linecap:square;stroke-width:0.8;"/>
     </g>
     <g id="line2d_12">
      <defs>
       <path d="M 0 0 
L -3.5 0 
" id="mefa22221ed" style="stroke:#000000;stroke-width:0.8;"/>
      </defs>
      <g>
       <use style="stroke:#000000;stroke-width:0.8;" x="90" xlink:href="#mefa22221ed" y="161.634626"/>
      </g>
     </g>
     <g id="text_1">
      <!-- 5 -->
      <defs>
       <path d="M 10.796875 72.90625 
L 49.515625 72.90625 
L 49.515625 64.59375 
L 19.828125 64.59375 
L 19.828125 46.734375 
Q 21.96875 47.46875 24.109375 47.828125 
Q 26.265625 48.1875 28.421875 48.1875 
Q 40.625 48.1875 47.75 41.5 
Q 54.890625 34.8125 54.890625 23.390625 
Q 54.890625 11.625 47.5625 5.09375 
Q 40.234375 -1.421875 26.90625 -1.421875 
Q 22.3125 -1.421875 17.546875 -0.640625 
Q 12.796875 0.140625 7.71875 1.703125 
L 7.71875 11.625 
Q 12.109375 9.234375 16.796875 8.0625 
Q 21.484375 6.890625 26.703125 6.890625 
Q 35.15625 6.890625 40.078125 11.328125 
Q 45.015625 15.765625 45.015625 23.390625 
Q 45.015625 31 40.078125 35.4375 
Q 35.15625 39.890625 26.703125 39.890625 
Q 22.75 39.890625 18.8125 39.015625 
Q 14.890625 38.140625 10.796875 36.28125 
z
" id="DejaVuSans-35"/>
      </defs>
      <g transform="translate(76.6375 165.433845)scale(0.1 -0.1)">
       <use xlink:href="#DejaVuSans-35"/>
      </g>
     </g>
    </g>
    <g id="ytick_2">
     <g id="line2d_13">
      <path clip-path="url(#pd6a9703258)" d="M 90 126.325949 
L 648 126.325949 
" style="fill:none;stroke:#b0b0b0;stroke-linecap:square;stroke-width:0.8;"/>
     </g>
     <g id="line2d_14">
      <g>
       <use style="stroke:#000000;stroke-width:0.8;" x="90" xlink:href="#mefa22221ed" y="126.325949"/>
      </g>
     </g>
     <g id="text_2">
      <!-- 10 -->
      <defs>
       <path d="M 12.40625 8.296875 
L 28.515625 8.296875 
L 28.515625 63.921875 
L 10.984375 60.40625 
L 10.984375 69.390625 
L 28.421875 72.90625 
L 38.28125 72.90625 
L 38.28125 8.296875 
L 54.390625 8.296875 
L 54.390625 0 
L 12.40625 0 
z
" id="DejaVuSans-31"/>
       <path d="M 31.78125 66.40625 
Q 24.171875 66.40625 20.328125 58.90625 
Q 16.5 51.421875 16.5 36.375 
Q 16.5 21.390625 20.328125 13.890625 
Q 24.171875 6.390625 31.78125 6.390625 
Q 39.453125 6.390625 43.28125 13.890625 
Q 47.125 21.390625 47.125 36.375 
Q 47.125 51.421875 43.28125 58.90625 
Q 39.453125 66.40625 31.78125 66.40625 
M 31.78125 74.21875 
Q 44.046875 74.21875 50.515625 64.515625 
Q 56.984375 54.828125 56.984375 36.375 
Q 56.984375 17.96875 50.515625 8.265625 
Q 44.046875 -1.421875 31.78125 -1.421875 
Q 19.53125 -1.421875 13.0625 8.265625 
Q 6.59375 17.96875 6.59375 36.375 
Q 6.59375 54.828125 13.0625 64.515625 
Q 19.53125 74.21875 31.78125 74.21875 
" id="DejaVuSans-30"/>
      </defs>
      <g transform="translate(70.275 130.125167)scale(0.1 -0.1)">
       <use xlink:href="#DejaVuSans-31"/>
       <use x="63.623047" xlink:href="#DejaVuSans-30"/>
      </g>
     </g>
    </g>
    <g id="ytick_3">
     <g id="line2d_15">
      <path clip-path="url(#pd6a9703258)" d="M 90 91.017271 
L 648 91.017271 
" style="fill:none;stroke:#b0b0b0;stroke-linecap:square;stroke-width:0.8;"/>
     </g>
     <g id="line2d_16">
      <g>
       <use style="stroke:#000000;stroke-width:0.8;" x="90" xlink:href="#mefa22221ed" y="91.017271"/>
      </g>
     </g>
     <g id="text_3">
      <!-- 15 -->
      <g transform="translate(70.275 94.81649)scale(0.1 -0.1)">
       <use xlink:href="#DejaVuSans-31"/>
       <use x="63.623047" xlink:href="#DejaVuSans-35"/>
      </g>
     </g>
    </g>
    <g id="ytick_4">
     <g id="line2d_17">
      <path clip-path="url(#pd6a9703258)" d="M 90 55.708593 
L 648 55.708593 
" style="fill:none;stroke:#b0b0b0;stroke-linecap:square;stroke-width:0.8;"/>
     </g>
     <g id="line2d_18">
      <g>
       <use style="stroke:#000000;stroke-width:0.8;" x="90" xlink:href="#mefa22221ed" y="55.708593"/>
      </g>
     </g>
     <g id="text_4">
      <!-- 20 -->
      <defs>
       <path d="M 19.1875 8.296875 
L 53.609375 8.296875 
L 53.609375 0 
L 7.328125 0 
L 7.328125 8.296875 
Q 12.9375 14.109375 22.625 23.890625 
Q 32.328125 33.6875 34.8125 36.53125 
Q 39.546875 41.84375 41.421875 45.53125 
Q 43.3125 49.21875 43.3125 52.78125 
Q 43.3125 58.59375 39.234375 62.25 
Q 35.15625 65.921875 28.609375 65.921875 
Q 23.96875 65.921875 18.8125 64.3125 
Q 13.671875 62.703125 7.8125 59.421875 
L 7.8125 69.390625 
Q 13.765625 71.78125 18.9375 73 
Q 24.125 74.21875 28.421875 74.21875 
Q 39.75 74.21875 46.484375 68.546875 
Q 53.21875 62.890625 53.21875 53.421875 
Q 53.21875 48.921875 51.53125 44.890625 
Q 49.859375 40.875 45.40625 35.40625 
Q 44.1875 33.984375 37.640625 27.21875 
Q 31.109375 20.453125 19.1875 8.296875 
" id="DejaVuSans-32"/>
      </defs>
      <g transform="translate(70.275 59.507812)scale(0.1 -0.1)">
       <use xlink:href="#DejaVuSans-32"/>
       <use x="63.623047" xlink:href="#DejaVuSans-30"/>
      </g>
     </g>
    </g>
   </g>
   <g id="line2d_19">
    <path clip-path="url(#pd6a9703258)" d="M 115.363636 116.105493 
L 116.757243 100.997576 
L 118.150849 131.954302 
L 119.544456 129.255818 
L 120.938062 110.725631 
L 122.331668 132.632354 
L 123.725275 130.595416 
L 125.118881 111.230101 
L 126.512488 118.984867 
L 127.906094 109.128369 
L 129.2997 115.294242 
L 130.693307 114.560389 
L 132.086913 117.252579 
L 133.480519 97.315738 
L 134.874126 88.508971 
L 136.267732 99.774545 
L 137.661339 106.372405 
L 139.054945 110.463371 
L 140.448551 108.367588 
L 141.842158 95.836327 
L 143.235764 86.494383 
L 144.629371 103.864488 
L 146.022977 104.503706 
L 147.416583 120.223623 
L 148.81019 117.251724 
L 150.203796 133.96991 
L 151.597403 108.909612 
L 154.384615 135.383 
L 155.778222 128.997309 
L 157.171828 119.138538 
L 158.565435 115.396786 
L 159.959041 129.814746 
L 161.352647 132.545789 
L 162.746254 136.035835 
L 164.13986 144.22426 
L 165.533467 127.99563 
L 166.927073 116.926267 
L 168.320679 118.094754 
L 169.714286 125.620975 
L 171.107892 111.85947 
L 172.501499 125.052915 
L 175.288711 101.223897 
L 176.682318 100.200828 
L 178.075924 124.099574 
L 179.46953 109.574226 
L 180.863137 107.716022 
L 182.256743 116.245502 
L 183.65035 112.289771 
L 185.043956 111.194087 
L 186.437562 129.404372 
L 187.831169 121.061307 
L 189.224775 130.583406 
L 190.618382 126.764305 
L 192.011988 133.117235 
L 194.799201 152.33417 
L 196.192807 146.789035 
L 197.586414 122.272375 
L 198.98002 110.817531 
L 200.373626 128.895752 
L 201.767233 125.385379 
L 203.160839 115.250709 
L 204.554446 135.896065 
L 205.948052 140.562455 
L 207.341658 126.105734 
L 208.735265 137.215763 
L 210.128871 142.122563 
L 211.522478 129.676928 
L 212.916084 135.741596 
L 214.30969 126.558164 
L 215.703297 137.223065 
L 217.096903 140.205192 
L 218.490509 121.518148 
L 219.884116 96.761252 
L 221.277722 127.169185 
L 222.671329 138.553572 
L 224.064935 140.115982 
L 225.458541 129.962282 
L 226.852148 137.772986 
L 228.245754 109.647029 
L 229.639361 126.051359 
L 231.032967 128.432237 
L 232.426573 111.752553 
L 233.82018 129.583152 
L 235.213786 119.05257 
L 236.607393 131.439619 
L 238.000999 138.201961 
L 239.394605 137.924819 
L 240.788212 133.304219 
L 242.181818 102.677485 
L 243.575425 142.186451 
L 244.969031 137.674847 
L 246.362637 119.672251 
L 247.756244 104.47274 
L 249.14985 139.0299 
L 250.543457 139.260988 
L 251.937063 128.16983 
L 253.330669 141.47528 
L 254.724276 145.563295 
L 256.117882 146.733798 
L 257.511489 153.435529 
L 258.905095 140.476236 
L 260.298701 129.081457 
L 261.692308 138.41347 
L 263.085914 129.855321 
L 264.47952 118.636901 
L 265.873127 130.209754 
L 267.266733 113.252517 
L 268.66034 133.774873 
L 270.053946 115.896216 
L 271.447552 109.222981 
L 272.841159 126.672463 
L 275.628372 124.233472 
L 278.415584 89.924419 
L 279.809191 126.239539 
L 281.202797 122.062598 
L 282.596404 129.348132 
L 283.99001 139.110589 
L 285.383616 133.510367 
L 286.777223 130.673012 
L 288.170829 127.505892 
L 289.564436 120.182837 
L 290.958042 109.006524 
L 292.351648 110.314153 
L 293.745255 97.029168 
L 295.138861 86.166997 
L 296.532468 85.584015 
L 297.926074 104.592461 
L 299.31968 131.729451 
L 300.713287 149.376575 
L 302.106893 109.582801 
L 303.5005 65.354763 
L 304.894106 94.689971 
L 306.287712 112.446808 
L 307.681319 110.677717 
L 309.074925 113.807282 
L 310.468531 87.885701 
L 311.862138 127.559283 
L 313.255744 130.877645 
L 314.649351 92.989171 
L 316.042957 128.726759 
L 317.436563 100.717028 
L 318.83017 99.214035 
L 320.223776 89.846289 
L 321.617383 112.667855 
L 323.010989 109.508025 
L 324.404595 97.782773 
L 325.798202 88.171763 
L 327.191808 93.644963 
L 328.585415 89.945055 
L 329.979021 123.360258 
L 331.372627 88.359436 
L 332.766234 69.557475 
L 334.15984 57.909421 
L 335.553447 79.699473 
L 336.947053 90.333781 
L 338.340659 73.497242 
L 339.734266 124.788192 
L 341.127872 138.740742 
L 342.521479 135.965352 
L 343.915085 125.91389 
L 346.702298 126.748522 
L 348.095904 149.032876 
L 349.48951 148.486731 
L 350.883117 150.341809 
L 352.276723 146.930371 
L 353.67033 135.65806 
L 355.063936 152.707639 
L 356.457542 161.658463 
L 357.851149 145.952806 
L 359.244755 152.395696 
L 360.638362 139.301776 
L 362.031968 146.816314 
L 363.425574 160.374772 
L 364.819181 160.648367 
L 366.212787 166.089501 
L 367.606394 169.314561 
L 369 167.652272 
L 371.787213 162.217651 
L 373.180819 171.045324 
L 374.574426 173.632461 
L 375.968032 177.923182 
L 377.361638 179.283026 
L 378.755245 165.106151 
L 380.148851 155.797521 
L 381.542458 169.486632 
L 384.32967 160.571058 
L 385.723277 166.784736 
L 387.116883 175.280191 
L 388.51049 175.526175 
L 389.904096 165.997685 
L 391.297702 170.698722 
L 392.691309 166.646085 
L 394.084915 155.258582 
L 395.478521 153.81267 
L 396.872128 148.168268 
L 398.265734 149.603851 
L 399.659341 152.545057 
L 401.052947 159.360104 
L 402.446553 167.795053 
L 403.84016 156.899109 
L 405.233766 156.275194 
L 406.627373 140.303479 
L 408.020979 149.167318 
L 409.414585 153.01222 
L 410.808192 143.823294 
L 412.201798 165.479217 
L 413.595405 152.357038 
L 414.989011 160.873357 
L 416.382617 159.86623 
L 417.776224 179.297851 
L 419.16983 171.582025 
L 420.563437 166.233792 
L 421.957043 164.548334 
L 423.350649 159.039009 
L 424.744256 152.077902 
L 426.137862 158.376047 
L 427.531469 154.318147 
L 428.925075 157.612867 
L 430.318681 160.376773 
L 431.712288 153.386566 
L 433.105894 161.435996 
L 434.4995 159.38542 
L 435.893107 147.357446 
L 437.286713 143.458127 
L 438.68032 143.182995 
L 440.073926 141.737949 
L 441.467532 137.576799 
L 442.861139 167.556801 
L 444.254745 166.633117 
L 445.648352 166.420485 
L 447.041958 171.832942 
L 448.435564 173.089607 
L 449.829171 163.706384 
L 451.222777 164.705845 
L 452.616384 146.417 
L 454.00999 151.469287 
L 455.403596 151.271492 
L 456.797203 165.880531 
L 458.190809 164.380035 
L 460.978022 146.327789 
L 462.371628 148.760653 
L 463.765235 146.079241 
L 465.158841 127.928865 
L 466.552448 144.59345 
L 467.946054 136.474231 
L 469.33966 135.253048 
L 470.733267 154.297527 
L 472.126873 158.174909 
L 473.52048 153.390005 
L 474.914086 157.502159 
L 476.307692 131.825011 
L 477.701299 128.690726 
L 479.094905 135.442655 
L 480.488511 127.672882 
L 481.882118 131.719628 
L 483.275724 168.026075 
L 484.669331 155.498631 
L 486.062937 165.98373 
L 487.456543 160.20631 
L 488.85015 142.207454 
L 490.243756 158.051812 
L 491.637363 164.421997 
L 493.030969 152.465927 
L 494.424575 125.406077 
L 495.818182 127.088497 
L 497.211788 137.158686 
L 498.605395 125.770865 
L 499.999001 127.116863 
L 501.392607 122.531672 
L 502.786214 133.349225 
L 504.17982 132.247261 
L 505.573427 147.042351 
L 506.967033 148.716382 
L 508.360639 137.352115 
L 509.754246 122.000561 
L 512.541459 160.281176 
L 513.935065 149.513515 
L 515.328671 143.736163 
L 516.722278 150.22148 
L 518.115884 153.447408 
L 519.509491 153.110102 
L 520.903097 149.755376 
L 522.296703 154.254741 
L 523.69031 148.085498 
L 525.083916 146.645907 
L 526.477522 129.049295 
L 527.871129 138.265347 
L 529.264735 142.124128 
L 530.658342 115.757162 
L 532.051948 133.945346 
L 533.445554 125.518808 
L 534.839161 135.05628 
L 536.232767 118.761291 
L 537.626374 141.234388 
L 539.01998 146.805582 
L 540.413586 131.521754 
L 541.807193 141.388989 
L 543.200799 127.806007 
L 544.594406 147.699988 
L 545.988012 129.118285 
L 547.381618 142.142917 
L 548.775225 118.760446 
L 550.168831 119.74221 
L 551.562438 123.453634 
L 552.956044 132.820815 
L 554.34965 117.588445 
L 555.743257 118.632946 
L 557.136863 108.229499 
L 558.53047 135.554523 
L 559.924076 133.189186 
L 562.711289 84.739172 
L 564.104895 117.147185 
L 565.498501 118.703234 
L 566.892108 129.131996 
L 568.285714 102.01624 
L 569.679321 112.048962 
L 571.072927 94.235926 
L 572.466533 119.787417 
L 573.86014 95.846918 
L 575.253746 125.89138 
L 576.647353 135.59109 
L 578.040959 135.186257 
L 579.434565 117.907688 
L 580.828172 96.937747 
L 582.221778 83.910074 
L 583.615385 86.071025 
L 585.008991 109.23327 
L 586.402597 118.863977 
L 587.796204 118.861464 
L 589.18981 111.37649 
L 590.583417 128.368224 
L 591.977023 119.261184 
L 593.370629 123.544786 
L 594.764236 120.69104 
L 596.157842 108.925978 
L 597.551449 121.351186 
L 598.945055 132.348926 
L 600.338661 137.780441 
L 601.732268 146.925459 
L 603.125874 138.665785 
L 604.519481 134.996495 
L 605.913087 126.854212 
L 607.306693 116.055716 
L 608.7003 110.721399 
L 610.093906 78.874382 
L 611.487512 101.541594 
L 612.881119 113.815192 
L 614.274725 98.440048 
L 615.668332 126.645691 
L 618.455544 106.481654 
L 619.849151 112.417848 
L 621.242757 101.906891 
L 622.636364 102.403941 
L 622.636364 102.403941 
" style="fill:none;stroke:#1f77b4;stroke-linecap:square;stroke-width:1.5;"/>
   </g>
   <g id="patch_3">
    <path d="M 90 185.367273 
L 90 51.84 
" style="fill:none;stroke:#000000;stroke-linecap:square;stroke-linejoin:miter;stroke-width:0.8;"/>
   </g>
   <g id="patch_4">
    <path d="M 648 185.367273 
L 648 51.84 
" style="fill:none;stroke:#000000;stroke-linecap:square;stroke-linejoin:miter;stroke-width:0.8;"/>
   </g>
   <g id="patch_5">
    <path d="M 90 185.367273 
L 648 185.367273 
" style="fill:none;stroke:#000000;stroke-linecap:square;stroke-linejoin:miter;stroke-width:0.8;"/>
   </g>
   <g id="patch_6">
    <path d="M 90 51.84 
L 648 51.84 
" style="fill:none;stroke:#000000;stroke-linecap:square;stroke-linejoin:miter;stroke-width:0.8;"/>
   </g>
   <g id="text_5">
    <!-- PRCP Mean -->
    <defs>
     <path d="M 19.671875 64.796875 
L 19.671875 37.40625 
L 32.078125 37.40625 
Q 38.96875 37.40625 42.71875 40.96875 
Q 46.484375 44.53125 46.484375 51.125 
Q 46.484375 57.671875 42.71875 61.234375 
Q 38.96875 64.796875 32.078125 64.796875 
z
M 9.8125 72.90625 
L 32.078125 72.90625 
Q 44.34375 72.90625 50.609375 67.359375 
Q 56.890625 61.8125 56.890625 51.125 
Q 56.890625 40.328125 50.609375 34.8125 
Q 44.34375 29.296875 32.078125 29.296875 
L 19.671875 29.296875 
L 19.671875 0 
L 9.8125 0 
z
" id="DejaVuSans-50"/>
     <path d="M 44.390625 34.1875 
Q 47.5625 33.109375 50.5625 29.59375 
Q 53.5625 26.078125 56.59375 19.921875 
L 66.609375 0 
L 56 0 
L 46.6875 18.703125 
Q 43.0625 26.03125 39.671875 28.421875 
Q 36.28125 30.8125 30.421875 30.8125 
L 19.671875 30.8125 
L 19.671875 0 
L 9.8125 0 
L 9.8125 72.90625 
L 32.078125 72.90625 
Q 44.578125 72.90625 50.734375 67.671875 
Q 56.890625 62.453125 56.890625 51.90625 
Q 56.890625 45.015625 53.6875 40.46875 
Q 50.484375 35.9375 44.390625 34.1875 
M 19.671875 64.796875 
L 19.671875 38.921875 
L 32.078125 38.921875 
Q 39.203125 38.921875 42.84375 42.21875 
Q 46.484375 45.515625 46.484375 51.90625 
Q 46.484375 58.296875 42.84375 61.546875 
Q 39.203125 64.796875 32.078125 64.796875 
z
" id="DejaVuSans-52"/>
     <path d="M 64.40625 67.28125 
L 64.40625 56.890625 
Q 59.421875 61.53125 53.78125 63.8125 
Q 48.140625 66.109375 41.796875 66.109375 
Q 29.296875 66.109375 22.65625 58.46875 
Q 16.015625 50.828125 16.015625 36.375 
Q 16.015625 21.96875 22.65625 14.328125 
Q 29.296875 6.6875 41.796875 6.6875 
Q 48.140625 6.6875 53.78125 8.984375 
Q 59.421875 11.28125 64.40625 15.921875 
L 64.40625 5.609375 
Q 59.234375 2.09375 53.4375 0.328125 
Q 47.65625 -1.421875 41.21875 -1.421875 
Q 24.65625 -1.421875 15.125 8.703125 
Q 5.609375 18.84375 5.609375 36.375 
Q 5.609375 53.953125 15.125 64.078125 
Q 24.65625 74.21875 41.21875 74.21875 
Q 47.75 74.21875 53.53125 72.484375 
Q 59.328125 70.75 64.40625 67.28125 
" id="DejaVuSans-43"/>
     <path id="DejaVuSans-20"/>
     <path d="M 9.8125 72.90625 
L 24.515625 72.90625 
L 43.109375 23.296875 
L 61.8125 72.90625 
L 76.515625 72.90625 
L 76.515625 0 
L 66.890625 0 
L 66.890625 64.015625 
L 48.09375 14.015625 
L 38.1875 14.015625 
L 19.390625 64.015625 
L 19.390625 0 
L 9.8125 0 
z
" id="DejaVuSans-4d"/>
     <path d="M 56.203125 29.59375 
L 56.203125 25.203125 
L 14.890625 25.203125 
Q 15.484375 15.921875 20.484375 11.0625 
Q 25.484375 6.203125 34.421875 6.203125 
Q 39.59375 6.203125 44.453125 7.46875 
Q 49.3125 8.734375 54.109375 11.28125 
L 54.109375 2.78125 
Q 49.265625 0.734375 44.1875 -0.34375 
Q 39.109375 -1.421875 33.890625 -1.421875 
Q 20.796875 -1.421875 13.15625 6.1875 
Q 5.515625 13.8125 5.515625 26.8125 
Q 5.515625 40.234375 12.765625 48.109375 
Q 20.015625 56 32.328125 56 
Q 43.359375 56 49.78125 48.890625 
Q 56.203125 41.796875 56.203125 29.59375 
M 47.21875 32.234375 
Q 47.125 39.59375 43.09375 43.984375 
Q 39.0625 48.390625 32.421875 48.390625 
Q 24.90625 48.390625 20.390625 44.140625 
Q 15.875 39.890625 15.1875 32.171875 
z
" id="DejaVuSans-65"/>
     <path d="M 34.28125 27.484375 
Q 23.390625 27.484375 19.1875 25 
Q 14.984375 22.515625 14.984375 16.5 
Q 14.984375 11.71875 18.140625 8.90625 
Q 21.296875 6.109375 26.703125 6.109375 
Q 34.1875 6.109375 38.703125 11.40625 
Q 43.21875 16.703125 43.21875 25.484375 
L 43.21875 27.484375 
z
M 52.203125 31.203125 
L 52.203125 0 
L 43.21875 0 
L 43.21875 8.296875 
Q 40.140625 3.328125 35.546875 0.953125 
Q 30.953125 -1.421875 24.3125 -1.421875 
Q 15.921875 -1.421875 10.953125 3.296875 
Q 6 8.015625 6 15.921875 
Q 6 25.140625 12.171875 29.828125 
Q 18.359375 34.515625 30.609375 34.515625 
L 43.21875 34.515625 
L 43.21875 35.40625 
Q 43.21875 41.609375 39.140625 45 
Q 35.0625 48.390625 27.6875 48.390625 
Q 23 48.390625 18.546875 47.265625 
Q 14.109375 46.140625 10.015625 43.890625 
L 10.015625 52.203125 
Q 14.9375 54.109375 19.578125 55.046875 
Q 24.21875 56 28.609375 56 
Q 40.484375 56 46.34375 49.84375 
Q 52.203125 43.703125 52.203125 31.203125 
" id="DejaVuSans-61"/>
     <path d="M 54.890625 33.015625 
L 54.890625 0 
L 45.90625 0 
L 45.90625 32.71875 
Q 45.90625 40.484375 42.875 44.328125 
Q 39.84375 48.1875 33.796875 48.1875 
Q 26.515625 48.1875 22.3125 43.546875 
Q 18.109375 38.921875 18.109375 30.90625 
L 18.109375 0 
L 9.078125 0 
L 9.078125 54.6875 
L 18.109375 54.6875 
L 18.109375 46.1875 
Q 21.34375 51.125 25.703125 53.5625 
Q 30.078125 56 35.796875 56 
Q 45.21875 56 50.046875 50.171875 
Q 54.890625 44.34375 54.890625 33.015625 
" id="DejaVuSans-6e"/>
    </defs>
    <g transform="translate(335.155312 45.84)scale(0.12 -0.12)">
     <use xlink:href="#DejaVuSans-50"/>
     <use x="60.302734" xlink:href="#DejaVuSans-52"/>
     <use x="129.707031" xlink:href="#DejaVuSans-43"/>
     <use x="199.53125" xlink:href="#DejaVuSans-50"/>
     <use x="259.833984" xlink:href="#DejaVuSans-20"/>
     <use x="291.621094" xlink:href="#DejaVuSans-4d"/>
     <use x="377.900391" xlink:href="#DejaVuSans-65"/>
     <use x="439.423828" xlink:href="#DejaVuSans-61"/>
     <use x="500.703125" xlink:href="#DejaVuSans-6e"/>
    </g>
   </g>
   <g id="legend_1">
    <g id="patch_7">
     <path d="M 581.753125 74.518125 
L 641 74.518125 
Q 643 74.518125 643 72.518125 
L 643 58.84 
Q 643 56.84 641 56.84 
L 581.753125 56.84 
Q 579.753125 56.84 579.753125 58.84 
L 579.753125 72.518125 
Q 579.753125 74.518125 581.753125 74.518125 
z
" style="fill:#ffffff;opacity:0.8;stroke:#cccccc;stroke-linejoin:miter;"/>
    </g>
    <g id="line2d_20">
     <path d="M 583.753125 64.938437 
L 603.753125 64.938437 
" style="fill:none;stroke:#1f77b4;stroke-linecap:square;stroke-width:1.5;"/>
    </g>
    <g id="line2d_21"/>
    <g id="text_6">
     <!-- Mean -->
     <g transform="translate(611.753125 68.438437)scale(0.1 -0.1)">
      <use xlink:href="#DejaVuSans-4d"/>
      <use x="86.279297" xlink:href="#DejaVuSans-65"/>
      <use x="147.802734" xlink:href="#DejaVuSans-61"/>
      <use x="209.082031" xlink:href="#DejaVuSans-6e"/>
     </g>
    </g>
   </g>
  </g>
  <g id="axes_2">
   <g id="patch_8">
    <path d="M 90 345.6 
L 648 345.6 
L 648 212.072727 
L 90 212.072727 
z
" style="fill:#ffffff;"/>
   </g>
   <g id="matplotlib.axis_3">
    <g id="xtick_6">
     <g id="line2d_22">
      <path clip-path="url(#pf9205840cf)" d="M 115.363636 345.6 
L 115.363636 212.072727 
" style="fill:none;stroke:#b0b0b0;stroke-linecap:square;stroke-width:0.8;"/>
     </g>
     <g id="line2d_23">
      <g>
       <use style="stroke:#000000;stroke-width:0.8;" x="115.363636" xlink:href="#me35b1eb413" y="345.6"/>
      </g>
     </g>
     <g id="text_7">
      <!-- Jan -->
      <defs>
       <path d="M 9.8125 72.90625 
L 19.671875 72.90625 
L 19.671875 5.078125 
Q 19.671875 -8.109375 14.671875 -14.0625 
Q 9.671875 -20.015625 -1.421875 -20.015625 
L -5.171875 -20.015625 
L -5.171875 -11.71875 
L -2.09375 -11.71875 
Q 4.4375 -11.71875 7.125 -8.046875 
Q 9.8125 -4.390625 9.8125 5.078125 
z
" id="DejaVuSans-4a"/>
      </defs>
      <g transform="translate(100.97347 366.888252)rotate(-30)scale(0.1 -0.1)">
       <use xlink:href="#DejaVuSans-4a"/>
       <use x="29.492188" xlink:href="#DejaVuSans-61"/>
       <use x="90.771484" xlink:href="#DejaVuSans-6e"/>
      </g>
     </g>
    </g>
    <g id="xtick_7">
     <g id="line2d_24">
      <path clip-path="url(#pf9205840cf)" d="M 240.788212 345.6 
L 240.788212 212.072727 
" style="fill:none;stroke:#b0b0b0;stroke-linecap:square;stroke-width:0.8;"/>
     </g>
     <g id="line2d_25">
      <g>
       <use style="stroke:#000000;stroke-width:0.8;" x="240.788212" xlink:href="#me35b1eb413" y="345.6"/>
      </g>
     </g>
     <g id="text_8">
      <!-- Apr -->
      <defs>
       <path d="M 34.1875 63.1875 
L 20.796875 26.90625 
L 47.609375 26.90625 
z
M 28.609375 72.90625 
L 39.796875 72.90625 
L 67.578125 0 
L 57.328125 0 
L 50.6875 18.703125 
L 17.828125 18.703125 
L 11.1875 0 
L 0.78125 0 
z
" id="DejaVuSans-41"/>
       <path d="M 18.109375 8.203125 
L 18.109375 -20.796875 
L 9.078125 -20.796875 
L 9.078125 54.6875 
L 18.109375 54.6875 
L 18.109375 46.390625 
Q 20.953125 51.265625 25.265625 53.625 
Q 29.59375 56 35.59375 56 
Q 45.5625 56 51.78125 48.09375 
Q 58.015625 40.1875 58.015625 27.296875 
Q 58.015625 14.40625 51.78125 6.484375 
Q 45.5625 -1.421875 35.59375 -1.421875 
Q 29.59375 -1.421875 25.265625 0.953125 
Q 20.953125 3.328125 18.109375 8.203125 
M 48.6875 27.296875 
Q 48.6875 37.203125 44.609375 42.84375 
Q 40.53125 48.484375 33.40625 48.484375 
Q 26.265625 48.484375 22.1875 42.84375 
Q 18.109375 37.203125 18.109375 27.296875 
Q 18.109375 17.390625 22.1875 11.75 
Q 26.265625 6.109375 33.40625 6.109375 
Q 40.53125 6.109375 44.609375 11.75 
Q 48.6875 17.390625 48.6875 27.296875 
" id="DejaVuSans-70"/>
       <path d="M 41.109375 46.296875 
Q 39.59375 47.171875 37.8125 47.578125 
Q 36.03125 48 33.890625 48 
Q 26.265625 48 22.1875 43.046875 
Q 18.109375 38.09375 18.109375 28.8125 
L 18.109375 0 
L 9.078125 0 
L 9.078125 54.6875 
L 18.109375 54.6875 
L 18.109375 46.1875 
Q 20.953125 51.171875 25.484375 53.578125 
Q 30.03125 56 36.53125 56 
Q 37.453125 56 38.578125 55.875 
Q 39.703125 55.765625 41.0625 55.515625 
z
" id="DejaVuSans-72"/>
      </defs>
      <g transform="translate(224.766129 367.83044)rotate(-30)scale(0.1 -0.1)">
       <use xlink:href="#DejaVuSans-41"/>
       <use x="68.408203" xlink:href="#DejaVuSans-70"/>
       <use x="131.884766" xlink:href="#DejaVuSans-72"/>
      </g>
     </g>
    </g>
    <g id="xtick_8">
     <g id="line2d_26">
      <path clip-path="url(#pf9205840cf)" d="M 367.606394 345.6 
L 367.606394 212.072727 
" style="fill:none;stroke:#b0b0b0;stroke-linecap:square;stroke-width:0.8;"/>
     </g>
     <g id="line2d_27">
      <g>
       <use style="stroke:#000000;stroke-width:0.8;" x="367.606394" xlink:href="#me35b1eb413" y="345.6"/>
      </g>
     </g>
     <g id="text_9">
      <!-- Jul -->
      <defs>
       <path d="M 8.5 21.578125 
L 8.5 54.6875 
L 17.484375 54.6875 
L 17.484375 21.921875 
Q 17.484375 14.15625 20.5 10.265625 
Q 23.53125 6.390625 29.59375 6.390625 
Q 36.859375 6.390625 41.078125 11.03125 
Q 45.3125 15.671875 45.3125 23.6875 
L 45.3125 54.6875 
L 54.296875 54.6875 
L 54.296875 0 
L 45.3125 0 
L 45.3125 8.40625 
Q 42.046875 3.421875 37.71875 1 
Q 33.40625 -1.421875 27.6875 -1.421875 
Q 18.265625 -1.421875 13.375 4.4375 
Q 8.5 10.296875 8.5 21.578125 
M 31.109375 56 
z
" id="DejaVuSans-75"/>
       <path d="M 9.421875 75.984375 
L 18.40625 75.984375 
L 18.40625 0 
L 9.421875 0 
z
" id="DejaVuSans-6c"/>
      </defs>
      <g transform="translate(356.117412 365.213252)rotate(-30)scale(0.1 -0.1)">
       <use xlink:href="#DejaVuSans-4a"/>
       <use x="29.492188" xlink:href="#DejaVuSans-75"/>
       <use x="92.871094" xlink:href="#DejaVuSans-6c"/>
      </g>
     </g>
    </g>
    <g id="xtick_9">
     <g id="line2d_28">
      <path clip-path="url(#pf9205840cf)" d="M 495.818182 345.6 
L 495.818182 212.072727 
" style="fill:none;stroke:#b0b0b0;stroke-linecap:square;stroke-width:0.8;"/>
     </g>
     <g id="line2d_29">
      <g>
       <use style="stroke:#000000;stroke-width:0.8;" x="495.818182" xlink:href="#me35b1eb413" y="345.6"/>
      </g>
     </g>
     <g id="text_10">
      <!-- Oct -->
      <defs>
       <path d="M 39.40625 66.21875 
Q 28.65625 66.21875 22.328125 58.203125 
Q 16.015625 50.203125 16.015625 36.375 
Q 16.015625 22.609375 22.328125 14.59375 
Q 28.65625 6.59375 39.40625 6.59375 
Q 50.140625 6.59375 56.421875 14.59375 
Q 62.703125 22.609375 62.703125 36.375 
Q 62.703125 50.203125 56.421875 58.203125 
Q 50.140625 66.21875 39.40625 66.21875 
M 39.40625 74.21875 
Q 54.734375 74.21875 63.90625 63.9375 
Q 73.09375 53.65625 73.09375 36.375 
Q 73.09375 19.140625 63.90625 8.859375 
Q 54.734375 -1.421875 39.40625 -1.421875 
Q 24.03125 -1.421875 14.8125 8.828125 
Q 5.609375 19.09375 5.609375 36.375 
Q 5.609375 53.65625 14.8125 63.9375 
Q 24.03125 74.21875 39.40625 74.21875 
" id="DejaVuSans-4f"/>
       <path d="M 48.78125 52.59375 
L 48.78125 44.1875 
Q 44.96875 46.296875 41.140625 47.34375 
Q 37.3125 48.390625 33.40625 48.390625 
Q 24.65625 48.390625 19.8125 42.84375 
Q 14.984375 37.3125 14.984375 27.296875 
Q 14.984375 17.28125 19.8125 11.734375 
Q 24.65625 6.203125 33.40625 6.203125 
Q 37.3125 6.203125 41.140625 7.25 
Q 44.96875 8.296875 48.78125 10.40625 
L 48.78125 2.09375 
Q 45.015625 0.34375 40.984375 -0.53125 
Q 36.96875 -1.421875 32.421875 -1.421875 
Q 20.0625 -1.421875 12.78125 6.34375 
Q 5.515625 14.109375 5.515625 27.296875 
Q 5.515625 40.671875 12.859375 48.328125 
Q 20.21875 56 33.015625 56 
Q 37.15625 56 41.109375 55.140625 
Q 45.0625 54.296875 48.78125 52.59375 
" id="DejaVuSans-63"/>
       <path d="M 18.3125 70.21875 
L 18.3125 54.6875 
L 36.8125 54.6875 
L 36.8125 47.703125 
L 18.3125 47.703125 
L 18.3125 18.015625 
Q 18.3125 11.328125 20.140625 9.421875 
Q 21.96875 7.515625 27.59375 7.515625 
L 36.8125 7.515625 
L 36.8125 0 
L 27.59375 0 
Q 17.1875 0 13.234375 3.875 
Q 9.28125 7.765625 9.28125 18.015625 
L 9.28125 47.703125 
L 2.6875 47.703125 
L 2.6875 54.6875 
L 9.28125 54.6875 
L 9.28125 70.21875 
z
" id="DejaVuSans-74"/>
      </defs>
      <g transform="translate(479.804218 367.825752)rotate(-30)scale(0.1 -0.1)">
       <use xlink:href="#DejaVuSans-4f"/>
       <use x="78.710938" xlink:href="#DejaVuSans-63"/>
       <use x="133.691406" xlink:href="#DejaVuSans-74"/>
      </g>
     </g>
    </g>
    <g id="xtick_10">
     <g id="line2d_30">
      <path clip-path="url(#pf9205840cf)" d="M 624.02997 345.6 
L 624.02997 212.072727 
" style="fill:none;stroke:#b0b0b0;stroke-linecap:square;stroke-width:0.8;"/>
     </g>
     <g id="line2d_31">
      <g>
       <use style="stroke:#000000;stroke-width:0.8;" x="624.02997" xlink:href="#me35b1eb413" y="345.6"/>
      </g>
     </g>
     <g id="text_11">
      <!-- Jan -->
      <g transform="translate(609.639803 366.888252)rotate(-30)scale(0.1 -0.1)">
       <use xlink:href="#DejaVuSans-4a"/>
       <use x="29.492188" xlink:href="#DejaVuSans-61"/>
       <use x="90.771484" xlink:href="#DejaVuSans-6e"/>
      </g>
     </g>
    </g>
   </g>
   <g id="matplotlib.axis_4">
    <g id="ytick_5">
     <g id="line2d_32">
      <path clip-path="url(#pf9205840cf)" d="M 90 333.122874 
L 648 333.122874 
" style="fill:none;stroke:#b0b0b0;stroke-linecap:square;stroke-width:0.8;"/>
     </g>
     <g id="line2d_33">
      <g>
       <use style="stroke:#000000;stroke-width:0.8;" x="90" xlink:href="#mefa22221ed" y="333.122874"/>
      </g>
     </g>
     <g id="text_12">
      <!-- −0.2 -->
      <defs>
       <path d="M 10.59375 35.5 
L 73.1875 35.5 
L 73.1875 27.203125 
L 10.59375 27.203125 
z
" id="DejaVuSans-2212"/>
       <path d="M 10.6875 12.40625 
L 21 12.40625 
L 21 0 
L 10.6875 0 
z
" id="DejaVuSans-2e"/>
      </defs>
      <g transform="translate(58.717187 336.922093)scale(0.1 -0.1)">
       <use xlink:href="#DejaVuSans-2212"/>
       <use x="83.789062" xlink:href="#DejaVuSans-30"/>
       <use x="147.412109" xlink:href="#DejaVuSans-2e"/>
       <use x="179.199219" xlink:href="#DejaVuSans-32"/>
      </g>
     </g>
    </g>
    <g id="ytick_6">
     <g id="line2d_34">
      <path clip-path="url(#pf9205840cf)" d="M 90 294.131786 
L 648 294.131786 
" style="fill:none;stroke:#b0b0b0;stroke-linecap:square;stroke-width:0.8;"/>
     </g>
     <g id="line2d_35">
      <g>
       <use style="stroke:#000000;stroke-width:0.8;" x="90" xlink:href="#mefa22221ed" y="294.131786"/>
      </g>
     </g>
     <g id="text_13">
      <!-- 0.0 -->
      <g transform="translate(67.096875 297.931005)scale(0.1 -0.1)">
       <use xlink:href="#DejaVuSans-30"/>
       <use x="63.623047" xlink:href="#DejaVuSans-2e"/>
       <use x="95.410156" xlink:href="#DejaVuSans-30"/>
      </g>
     </g>
    </g>
    <g id="ytick_7">
     <g id="line2d_36">
      <path clip-path="url(#pf9205840cf)" d="M 90 255.140698 
L 648 255.140698 
" style="fill:none;stroke:#b0b0b0;stroke-linecap:square;stroke-width:0.8;"/>
     </g>
     <g id="line2d_37">
      <g>
       <use style="stroke:#000000;stroke-width:0.8;" x="90" xlink:href="#mefa22221ed" y="255.140698"/>
      </g>
     </g>
     <g id="text_14">
      <!-- 0.2 -->
      <g transform="translate(67.096875 258.939917)scale(0.1 -0.1)">
       <use xlink:href="#DejaVuSans-30"/>
       <use x="63.623047" xlink:href="#DejaVuSans-2e"/>
       <use x="95.410156" xlink:href="#DejaVuSans-32"/>
      </g>
     </g>
    </g>
    <g id="ytick_8">
     <g id="line2d_38">
      <path clip-path="url(#pf9205840cf)" d="M 90 216.14961 
L 648 216.14961 
" style="fill:none;stroke:#b0b0b0;stroke-linecap:square;stroke-width:0.8;"/>
     </g>
     <g id="line2d_39">
      <g>
       <use style="stroke:#000000;stroke-width:0.8;" x="90" xlink:href="#mefa22221ed" y="216.14961"/>
      </g>
     </g>
     <g id="text_15">
      <!-- 0.4 -->
      <defs>
       <path d="M 37.796875 64.3125 
L 12.890625 25.390625 
L 37.796875 25.390625 
z
M 35.203125 72.90625 
L 47.609375 72.90625 
L 47.609375 25.390625 
L 58.015625 25.390625 
L 58.015625 17.1875 
L 47.609375 17.1875 
L 47.609375 0 
L 37.796875 0 
L 37.796875 17.1875 
L 4.890625 17.1875 
L 4.890625 26.703125 
z
" id="DejaVuSans-34"/>
      </defs>
      <g transform="translate(67.096875 219.948829)scale(0.1 -0.1)">
       <use xlink:href="#DejaVuSans-30"/>
       <use x="63.623047" xlink:href="#DejaVuSans-2e"/>
       <use x="95.410156" xlink:href="#DejaVuSans-34"/>
      </g>
     </g>
    </g>
   </g>
   <g id="line2d_40">
    <path clip-path="url(#pf9205840cf)" d="M 115.363636 306.906233 
L 116.757243 300.753481 
L 118.150849 302.95863 
L 119.544456 306.24712 
L 122.331668 298.703605 
L 123.725275 306.781291 
L 125.118881 306.596637 
L 126.512488 314.557546 
L 127.906094 323.409388 
L 129.2997 309.468806 
L 130.693307 302.9176 
L 132.086913 309.813597 
L 133.480519 309.459129 
L 134.874126 310.031609 
L 136.267732 309.64142 
L 137.661339 306.354571 
L 139.054945 301.571369 
L 140.448551 305.375785 
L 141.842158 310.683414 
L 143.235764 309.334768 
L 144.629371 305.323214 
L 146.022977 297.286606 
L 147.416583 305.114751 
L 148.81019 301.985764 
L 150.203796 304.163323 
L 151.597403 313.299971 
L 152.991009 302.310159 
L 154.384615 301.415822 
L 155.778222 301.827846 
L 157.171828 304.179219 
L 158.565435 307.002593 
L 159.959041 298.291249 
L 161.352647 296.329843 
L 162.746254 293.83026 
L 164.13986 297.870745 
L 165.533467 297.732623 
L 166.927073 296.883419 
L 168.320679 291.961178 
L 169.714286 299.136076 
L 171.107892 297.976272 
L 172.501499 293.994198 
L 173.895105 301.460505 
L 175.288711 315.458828 
L 176.682318 308.383686 
L 178.075924 306.983493 
L 179.46953 306.944092 
L 180.863137 312.635498 
L 182.256743 310.41522 
L 183.65035 312.730072 
L 185.043956 305.816665 
L 186.437562 311.925504 
L 187.831169 305.442846 
L 189.224775 302.107549 
L 190.618382 302.2343 
L 192.011988 297.415513 
L 194.799201 297.361025 
L 196.192807 298.291187 
L 197.586414 304.269842 
L 198.98002 299.696665 
L 200.373626 312.479731 
L 201.767233 318.73143 
L 203.160839 310.567647 
L 204.554446 298.296251 
L 205.948052 297.33855 
L 207.341658 301.173856 
L 208.735265 300.964424 
L 210.128871 317.309448 
L 211.522478 315.904547 
L 212.916084 308.099632 
L 214.30969 303.939868 
L 215.703297 305.187786 
L 217.096903 304.961629 
L 218.490509 301.126372 
L 219.884116 307.923543 
L 221.277722 306.531368 
L 222.671329 300.076151 
L 224.064935 305.52761 
L 225.458541 309.29769 
L 226.852148 303.146756 
L 228.245754 311.082521 
L 229.639361 306.478546 
L 231.032967 304.069311 
L 232.426573 300.858651 
L 233.82018 300.535041 
L 235.213786 309.240673 
L 236.607393 300.892618 
L 238.000999 296.219249 
L 239.394605 304.518208 
L 240.788212 303.115417 
L 242.181818 308.787635 
L 243.575425 301.745495 
L 244.969031 303.806379 
L 246.362637 297.556604 
L 247.756244 299.609193 
L 249.14985 300.207033 
L 250.543457 298.881788 
L 251.937063 298.639285 
L 253.330669 300.842342 
L 254.724276 305.35491 
L 256.117882 300.736152 
L 257.511489 299.96983 
L 258.905095 298.109992 
L 260.298701 297.607241 
L 261.692308 300.706142 
L 263.085914 299.753806 
L 264.47952 305.4103 
L 265.873127 301.293385 
L 267.266733 303.764239 
L 268.66034 298.533281 
L 270.053946 300.436045 
L 271.447552 299.428701 
L 272.841159 302.509561 
L 274.234765 301.069272 
L 275.628372 296.811526 
L 277.021978 307.182007 
L 278.415584 296.800002 
L 279.809191 304.14444 
L 281.202797 299.323501 
L 282.596404 301.02559 
L 283.99001 300.559731 
L 285.383616 303.225567 
L 286.777223 303.896489 
L 288.170829 315.55786 
L 289.564436 317.515904 
L 290.958042 302.229258 
L 292.351648 301.461138 
L 293.745255 306.97462 
L 295.138861 308.015213 
L 296.532468 309.354228 
L 299.31968 300.576126 
L 300.713287 303.10767 
L 302.106893 304.525936 
L 303.5005 323.402001 
L 304.894106 317.189593 
L 306.287712 308.71333 
L 307.681319 298.936554 
L 309.074925 296.026278 
L 310.468531 299.470471 
L 313.255744 298.774937 
L 314.649351 299.382808 
L 316.042957 300.187647 
L 317.436563 310.835715 
L 318.83017 300.919341 
L 320.223776 305.508529 
L 321.617383 300.313461 
L 324.404595 298.285744 
L 325.798202 299.658378 
L 328.585415 308.836268 
L 329.979021 310.170585 
L 331.372627 316.087545 
L 332.766234 318.35043 
L 334.15984 305.368554 
L 335.553447 303.484947 
L 336.947053 304.585526 
L 338.340659 301.584415 
L 339.734266 298.137736 
L 341.127872 297.635915 
L 342.521479 296.954858 
L 343.915085 299.22559 
L 345.308691 296.968817 
L 348.095904 297.649379 
L 349.48951 299.002004 
L 350.883117 299.978149 
L 352.276723 297.946703 
L 353.67033 299.793795 
L 355.063936 294.822472 
L 356.457542 295.65006 
L 357.851149 295.459198 
L 359.244755 295.789113 
L 360.638362 296.329349 
L 362.031968 297.912834 
L 363.425574 299.785813 
L 364.819181 296.049805 
L 366.212787 297.163094 
L 367.606394 299.780799 
L 369 298.835821 
L 370.393606 301.624877 
L 371.787213 298.263455 
L 373.180819 295.464645 
L 374.574426 295.005754 
L 375.968032 296.737562 
L 377.361638 295.677139 
L 378.755245 300.713362 
L 380.148851 300.263906 
L 381.542458 296.200696 
L 384.32967 292.745331 
L 385.723277 293.86183 
L 387.116883 295.193906 
L 388.51049 297.972914 
L 389.904096 299.736047 
L 391.297702 296.958366 
L 392.691309 296.257049 
L 394.084915 296.184889 
L 395.478521 300.0897 
L 396.872128 295.984431 
L 398.265734 299.542584 
L 399.659341 300.627991 
L 402.446553 298.59711 
L 403.84016 298.580489 
L 405.233766 299.253489 
L 406.627373 300.343552 
L 408.020979 294.03832 
L 409.414585 293.789532 
L 410.808192 293.999735 
L 412.201798 292.692946 
L 413.595405 293.640293 
L 414.989011 298.184425 
L 416.382617 294.671021 
L 417.776224 293.93114 
L 419.16983 297.382591 
L 420.563437 297.417561 
L 421.957043 296.491097 
L 423.350649 300.068995 
L 424.744256 301.753255 
L 426.137862 296.040103 
L 427.531469 293.622414 
L 428.925075 293.723127 
L 430.318681 297.489801 
L 431.712288 299.425505 
L 433.105894 298.327758 
L 434.4995 297.840444 
L 435.893107 298.87056 
L 437.286713 297.765073 
L 438.68032 304.03823 
L 440.073926 296.69108 
L 441.467532 295.186118 
L 442.861139 297.311408 
L 444.254745 296.446043 
L 445.648352 295.067871 
L 447.041958 298.104491 
L 448.435564 295.800912 
L 449.829171 295.587717 
L 452.616384 296.980519 
L 454.00999 296.170324 
L 455.403596 296.785047 
L 456.797203 295.705349 
L 458.190809 296.704348 
L 459.584416 295.161262 
L 460.978022 292.735514 
L 462.371628 294.735553 
L 463.765235 298.465684 
L 465.158841 300.296643 
L 466.552448 298.230017 
L 467.946054 296.707668 
L 469.33966 298.046608 
L 472.126873 295.095754 
L 473.52048 297.383958 
L 474.914086 300.442116 
L 476.307692 303.038998 
L 477.701299 295.008442 
L 479.094905 298.585039 
L 480.488511 298.43752 
L 481.882118 299.385258 
L 483.275724 296.81769 
L 484.669331 292.83478 
L 486.062937 296.426515 
L 488.85015 296.134387 
L 490.243756 297.275142 
L 491.637363 298.988214 
L 493.030969 297.813113 
L 494.424575 294.296735 
L 495.818182 296.934045 
L 497.211788 295.808235 
L 498.605395 297.433293 
L 499.999001 295.479745 
L 501.392607 292.176493 
L 504.17982 293.101632 
L 505.573427 296.107427 
L 506.967033 295.056652 
L 508.360639 294.429688 
L 509.754246 294.683585 
L 511.147852 295.50557 
L 512.541459 298.326161 
L 513.935065 299.067738 
L 515.328671 296.227708 
L 516.722278 295.360306 
L 518.115884 294.105445 
L 519.509491 295.478264 
L 520.903097 290.009211 
L 522.296703 292.355645 
L 523.69031 292.420526 
L 525.083916 297.142183 
L 526.477522 300.145953 
L 529.264735 309.667197 
L 530.658342 311.999906 
L 532.051948 295.373764 
L 533.445554 297.861641 
L 534.839161 298.434857 
L 536.232767 298.249611 
L 537.626374 294.559429 
L 539.01998 298.784733 
L 540.413586 299.03775 
L 541.807193 297.08585 
L 543.200799 299.758571 
L 544.594406 300.531908 
L 545.988012 304.614915 
L 547.381618 301.004201 
L 548.775225 304.359505 
L 550.168831 303.113822 
L 551.562438 298.263017 
L 552.956044 304.983963 
L 554.34965 306.811841 
L 555.743257 301.7255 
L 557.136863 297.574975 
L 558.53047 297.496938 
L 559.924076 299.535594 
L 561.317682 307.948469 
L 562.711289 328.790612 
L 564.104895 315.497604 
L 565.498501 304.110823 
L 566.892108 302.673607 
L 568.285714 315.045584 
L 569.679321 302.234354 
L 571.072927 307.957811 
L 572.466533 312.77318 
L 575.253746 306.282172 
L 576.647353 310.863471 
L 578.040959 301.343034 
L 579.434565 307.98184 
L 580.828172 323.917875 
L 582.221778 306.909925 
L 583.615385 305.331733 
L 585.008991 316.262017 
L 586.402597 314.945456 
L 587.796204 308.770338 
L 589.18981 303.607976 
L 590.583417 307.86573 
L 591.977023 308.099266 
L 593.370629 314.470045 
L 594.764236 305.733087 
L 596.157842 333.212859 
L 597.551449 307.68519 
L 598.945055 297.742814 
L 600.338661 304.696238 
L 601.732268 298.955523 
L 603.125874 297.523067 
L 604.519481 300.819561 
L 605.913087 298.786848 
L 607.306693 312.435264 
L 608.7003 316.047056 
L 610.093906 322.715052 
L 611.487512 311.765299 
L 612.881119 299.930958 
L 614.274725 304.401019 
L 615.668332 309.528786 
L 617.061938 313.148788 
L 618.455544 308.025223 
L 619.849151 314.504688 
L 621.242757 310.964719 
L 622.636364 308.924295 
L 622.636364 308.924295 
" style="fill:none;stroke:#1f77b4;stroke-linecap:square;stroke-width:1.5;"/>
   </g>
   <g id="line2d_41">
    <path clip-path="url(#pf9205840cf)" d="M 115.363636 300.811782 
L 116.757243 294.197307 
L 118.150849 285.170146 
L 119.544456 288.526879 
L 120.938062 302.088949 
L 122.331668 297.998235 
L 123.725275 303.033454 
L 125.118881 303.47496 
L 126.512488 313.511706 
L 127.906094 313.325255 
L 129.2997 311.146528 
L 130.693307 301.398337 
L 132.086913 304.715249 
L 133.480519 312.123797 
L 134.874126 295.806924 
L 136.267732 296.958593 
L 137.661339 284.780345 
L 139.054945 287.742517 
L 140.448551 277.948008 
L 141.842158 286.492707 
L 143.235764 283.498179 
L 144.629371 299.958429 
L 146.022977 294.308097 
L 147.416583 284.193965 
L 148.81019 295.673224 
L 150.203796 298.136352 
L 151.597403 276.772789 
L 152.991009 281.393997 
L 154.384615 288.495932 
L 155.778222 294.096233 
L 157.171828 303.95222 
L 158.565435 307.891559 
L 159.959041 296.859396 
L 161.352647 293.901869 
L 162.746254 290.353093 
L 164.13986 288.140126 
L 165.533467 287.008159 
L 166.927073 290.256889 
L 168.320679 294.90075 
L 169.714286 302.395089 
L 171.107892 305.799392 
L 172.501499 297.672562 
L 173.895105 300.396956 
L 175.288711 303.501437 
L 176.682318 302.489965 
L 178.075924 297.8837 
L 179.46953 303.832311 
L 180.863137 311.095759 
L 182.256743 309.717651 
L 183.65035 303.858753 
L 185.043956 295.393959 
L 186.437562 293.253981 
L 187.831169 295.20024 
L 189.224775 296.423616 
L 190.618382 294.944407 
L 192.011988 294.594438 
L 193.405594 294.397188 
L 194.799201 291.498698 
L 196.192807 294.88038 
L 197.586414 293.306541 
L 198.98002 298.444147 
L 200.373626 304.78498 
L 201.767233 290.886635 
L 203.160839 280.88872 
L 204.554446 291.69036 
L 205.948052 297.673287 
L 207.341658 302.287019 
L 208.735265 304.215685 
L 210.128871 316.731082 
L 211.522478 313.779212 
L 212.916084 286.814954 
L 214.30969 295.344998 
L 217.096903 302.821978 
L 218.490509 303.589252 
L 219.884116 307.049915 
L 221.277722 298.704074 
L 222.671329 297.576535 
L 224.064935 300.933434 
L 225.458541 308.694693 
L 226.852148 299.24895 
L 228.245754 292.130269 
L 229.639361 303.060163 
L 231.032967 307.069341 
L 232.426573 295.390307 
L 233.82018 292.637516 
L 235.213786 281.524331 
L 236.607393 291.157309 
L 238.000999 291.225362 
L 239.394605 288.355213 
L 240.788212 296.259042 
L 242.181818 288.881311 
L 243.575425 291.135277 
L 244.969031 300.302325 
L 246.362637 297.669806 
L 247.756244 297.138132 
L 249.14985 301.526267 
L 250.543457 302.407899 
L 251.937063 307.098123 
L 253.330669 295.018858 
L 254.724276 292.211645 
L 256.117882 295.706494 
L 257.511489 295.548521 
L 260.298701 302.399905 
L 261.692308 292.579128 
L 263.085914 289.080877 
L 264.47952 289.857065 
L 265.873127 290.81218 
L 267.266733 287.543668 
L 268.66034 292.531711 
L 270.053946 290.605085 
L 271.447552 285.344641 
L 272.841159 293.505514 
L 274.234765 302.778083 
L 275.628372 296.600025 
L 277.021978 299.421274 
L 278.415584 301.475398 
L 279.809191 308.024015 
L 281.202797 301.166619 
L 282.596404 299.696675 
L 283.99001 299.946955 
L 285.383616 311.575259 
L 286.777223 311.265547 
L 288.170829 322.57335 
L 289.564436 329.19613 
L 290.958042 309.059487 
L 292.351648 303.844514 
L 293.745255 303.431528 
L 295.138861 307.287088 
L 296.532468 303.37626 
L 297.926074 302.295418 
L 299.31968 297.706631 
L 300.713287 291.59689 
L 302.106893 287.35654 
L 303.5005 259.252455 
L 304.894106 278.388406 
L 306.287712 278.380932 
L 307.681319 285.607911 
L 310.468531 304.58002 
L 313.255744 294.403123 
L 314.649351 295.915078 
L 316.042957 293.784082 
L 317.436563 277.797811 
L 318.83017 280.505323 
L 320.223776 272.220162 
L 321.617383 285.731682 
L 323.010989 292.205542 
L 324.404595 297.681112 
L 325.798202 298.890599 
L 327.191808 305.353983 
L 328.585415 318.243272 
L 329.979021 306.813847 
L 331.372627 326.397564 
L 332.766234 339.530579 
L 334.15984 316.148504 
L 335.553447 312.02039 
L 336.947053 305.729843 
L 338.340659 307.980575 
L 339.734266 303.695224 
L 341.127872 298.290755 
L 342.521479 296.454794 
L 343.915085 298.816084 
L 345.308691 291.203708 
L 346.702298 289.74384 
L 348.095904 295.402658 
L 349.48951 302.82973 
L 350.883117 305.534169 
L 352.276723 302.729872 
L 353.67033 304.208714 
L 356.457542 294.860271 
L 357.851149 292.939995 
L 359.244755 292.278071 
L 360.638362 293.243443 
L 362.031968 293.182364 
L 364.819181 288.959498 
L 366.212787 291.608678 
L 367.606394 294.658499 
L 369 296.524401 
L 370.393606 302.824754 
L 371.787213 298.686276 
L 373.180819 293.785538 
L 374.574426 294.012091 
L 375.968032 294.836793 
L 377.361638 295.03855 
L 378.755245 299.493559 
L 380.148851 297.593203 
L 381.542458 295.294683 
L 382.936064 296.170774 
L 384.32967 296.527024 
L 385.723277 292.601993 
L 387.116883 292.728984 
L 388.51049 290.916574 
L 389.904096 291.459853 
L 391.297702 292.655102 
L 392.691309 296.446034 
L 394.084915 296.705814 
L 395.478521 296.497755 
L 396.872128 298.312161 
L 398.265734 306.871145 
L 399.659341 299.03173 
L 401.052947 298.566049 
L 403.84016 296.792039 
L 405.233766 295.073876 
L 406.627373 289.760967 
L 408.020979 293.856806 
L 409.414585 295.81373 
L 410.808192 298.302866 
L 412.201798 296.066845 
L 413.595405 295.823881 
L 414.989011 300.093997 
L 416.382617 298.6937 
L 417.776224 295.145861 
L 419.16983 297.573206 
L 421.957043 295.861005 
L 423.350649 300.104822 
L 424.744256 304.955756 
L 426.137862 296.5028 
L 427.531469 296.126977 
L 428.925075 297.813409 
L 431.712288 303.439647 
L 433.105894 300.343408 
L 434.4995 299.267378 
L 435.893107 299.342003 
L 437.286713 303.241405 
L 438.68032 311.112819 
L 440.073926 298.858772 
L 441.467532 301.935902 
L 442.861139 298.839508 
L 444.254745 295.116806 
L 445.648352 293.522852 
L 447.041958 293.402292 
L 448.435564 292.53669 
L 449.829171 293.203874 
L 451.222777 294.313267 
L 452.616384 298.865116 
L 454.00999 294.20858 
L 455.403596 297.599636 
L 456.797203 295.717721 
L 458.190809 298.347103 
L 459.584416 294.735265 
L 460.978022 295.548259 
L 462.371628 295.907185 
L 463.765235 295.806161 
L 465.158841 298.703462 
L 466.552448 296.700653 
L 467.946054 298.33865 
L 469.33966 293.477933 
L 470.733267 294.689997 
L 472.126873 297.211974 
L 473.52048 288.41795 
L 474.914086 283.795484 
L 476.307692 294.554296 
L 477.701299 300.637954 
L 479.094905 292.69205 
L 480.488511 296.294375 
L 481.882118 297.1016 
L 483.275724 294.812339 
L 484.669331 294.098059 
L 486.062937 294.150669 
L 487.456543 291.376913 
L 488.85015 293.148494 
L 490.243756 297.77193 
L 491.637363 292.65185 
L 493.030969 296.84051 
L 494.424575 299.014434 
L 495.818182 292.506501 
L 497.211788 293.957926 
L 498.605395 297.844778 
L 499.999001 299.934968 
L 501.392607 301.753843 
L 502.786214 299.88201 
L 504.17982 298.717312 
L 505.573427 298.088114 
L 506.967033 296.701661 
L 508.360639 294.651419 
L 509.754246 293.715586 
L 511.147852 298.448076 
L 512.541459 299.887914 
L 513.935065 304.144331 
L 515.328671 301.459041 
L 516.722278 295.317352 
L 518.115884 296.31889 
L 519.509491 293.380697 
L 520.903097 294.685766 
L 522.296703 294.457233 
L 523.69031 292.826604 
L 525.083916 294.998739 
L 526.477522 290.344473 
L 527.871129 278.896225 
L 529.264735 280.611674 
L 530.658342 294.686067 
L 532.051948 294.048429 
L 533.445554 296.551961 
L 534.839161 291.00269 
L 536.232767 284.615256 
L 537.626374 291.204865 
L 539.01998 292.392292 
L 540.413586 288.585388 
L 541.807193 294.055019 
L 543.200799 295.014922 
L 544.594406 296.810732 
L 545.988012 296.59907 
L 547.381618 293.856242 
L 548.775225 296.925535 
L 550.168831 295.983325 
L 551.562438 292.920139 
L 552.956044 301.780002 
L 554.34965 300.521789 
L 555.743257 293.070864 
L 557.136863 284.467161 
L 558.53047 289.18814 
L 559.924076 292.163766 
L 561.317682 284.462073 
L 562.711289 246.044771 
L 564.104895 266.762634 
L 565.498501 283.705731 
L 566.892108 290.438076 
L 568.285714 277.764669 
L 569.679321 292.336764 
L 571.072927 294.139394 
L 572.466533 291.549644 
L 573.86014 299.558481 
L 575.253746 291.094079 
L 576.647353 291.349301 
L 578.040959 287.374847 
L 579.434565 295.312908 
L 580.828172 277.653209 
L 582.221778 290.592704 
L 583.615385 285.546556 
L 585.008991 302.362269 
L 586.402597 281.600924 
L 587.796204 289.54208 
L 589.18981 286.901424 
L 590.583417 292.850457 
L 591.977023 288.526841 
L 593.370629 274.272957 
L 594.764236 282.897513 
L 596.157842 324.510068 
L 597.551449 292.633921 
L 598.945055 289.935331 
L 600.338661 285.619864 
L 601.732268 293.027726 
L 603.125874 291.556583 
L 604.519481 289.317313 
L 605.913087 282.390062 
L 607.306693 266.785743 
L 608.7003 262.443811 
L 610.093906 244.618397 
L 611.487512 255.647734 
L 612.881119 279.669939 
L 614.274725 277.490232 
L 615.668332 273.912075 
L 617.061938 263.916833 
L 618.455544 279.477231 
L 619.849151 272.205043 
L 621.242757 286.656251 
L 622.636364 285.030676 
L 622.636364 285.030676 
" style="fill:none;stroke:#ff7f0e;stroke-linecap:square;stroke-width:1.5;"/>
   </g>
   <g id="line2d_42">
    <path clip-path="url(#pf9205840cf)" d="M 115.363636 270.734592 
L 116.757243 283.325191 
L 118.150849 291.536573 
L 119.544456 293.841815 
L 120.938062 291.197084 
L 122.331668 300.617722 
L 123.725275 303.123299 
L 125.118881 308.920759 
L 126.512488 302.169586 
L 127.906094 314.1663 
L 129.2997 299.102143 
L 130.693307 304.109273 
L 132.086913 302.199395 
L 133.480519 303.078241 
L 134.874126 308.399271 
L 136.267732 295.934025 
L 137.661339 301.687148 
L 140.448551 277.23567 
L 141.842158 238.948993 
L 143.235764 218.142149 
L 144.629371 246.082933 
L 146.022977 277.247202 
L 147.416583 295.208829 
L 148.81019 289.581392 
L 150.203796 289.040466 
L 151.597403 286.161979 
L 152.991009 291.138682 
L 154.384615 292.019052 
L 155.778222 297.221584 
L 157.171828 293.632349 
L 159.959041 295.976952 
L 161.352647 296.358848 
L 162.746254 294.454144 
L 164.13986 296.022382 
L 165.533467 292.933094 
L 166.927073 300.308916 
L 168.320679 295.4046 
L 169.714286 290.007413 
L 171.107892 286.244957 
L 172.501499 291.31265 
L 173.895105 291.292207 
L 175.288711 299.784242 
L 176.682318 292.540444 
L 178.075924 286.63346 
L 179.46953 290.5582 
L 180.863137 290.481543 
L 182.256743 286.272405 
L 183.65035 274.040568 
L 185.043956 284.564537 
L 186.437562 280.393699 
L 187.831169 286.9053 
L 189.224775 285.454267 
L 190.618382 282.180347 
L 192.011988 288.968988 
L 193.405594 294.113004 
L 194.799201 296.829488 
L 196.192807 296.722504 
L 197.586414 296.789119 
L 198.98002 300.772069 
L 200.373626 317.168507 
L 201.767233 323.862441 
L 204.554446 300.686629 
L 205.948052 293.848884 
L 207.341658 290.302 
L 208.735265 298.139678 
L 210.128871 309.71472 
L 211.522478 309.241254 
L 212.916084 298.303575 
L 214.30969 295.254847 
L 217.096903 286.986107 
L 218.490509 284.428232 
L 219.884116 264.24008 
L 221.277722 281.852581 
L 224.064935 304.875357 
L 225.458541 309.285703 
L 226.852148 303.749429 
L 228.245754 314.299338 
L 231.032967 286.883454 
L 232.426573 289.449179 
L 233.82018 290.454649 
L 235.213786 290.060142 
L 236.607393 289.505626 
L 238.000999 294.845097 
L 239.394605 289.603099 
L 240.788212 281.347135 
L 242.181818 283.05444 
L 243.575425 289.245621 
L 244.969031 286.719794 
L 246.362637 290.527925 
L 247.756244 295.577381 
L 249.14985 297.630224 
L 250.543457 295.470489 
L 251.937063 292.382015 
L 253.330669 285.847482 
L 254.724276 285.172602 
L 256.117882 287.724786 
L 257.511489 292.610353 
L 258.905095 296.219907 
L 260.298701 296.323411 
L 261.692308 299.986042 
L 263.085914 291.3865 
L 264.47952 299.644886 
L 265.873127 298.847963 
L 267.266733 305.12722 
L 268.66034 297.25199 
L 270.053946 290.886469 
L 271.447552 293.607808 
L 272.841159 299.548972 
L 274.234765 306.023062 
L 275.628372 298.253553 
L 277.021978 293.310075 
L 278.415584 283.864878 
L 279.809191 293.668332 
L 281.202797 296.330559 
L 282.596404 298.426678 
L 283.99001 298.767958 
L 285.383616 285.014792 
L 286.777223 285.933369 
L 288.170829 292.929882 
L 289.564436 291.052546 
L 290.958042 305.709486 
L 292.351648 308.357824 
L 293.745255 314.379553 
L 295.138861 307.049963 
L 296.532468 316.380407 
L 297.926074 312.841433 
L 299.31968 302.060225 
L 300.713287 300.074856 
L 302.106893 294.737535 
L 303.5005 311.878471 
L 304.894106 311.859369 
L 306.287712 304.762393 
L 307.681319 303.103647 
L 310.468531 290.016533 
L 311.862138 298.240934 
L 313.255744 299.604367 
L 314.649351 296.720744 
L 316.042957 297.192497 
L 317.436563 299.924939 
L 318.83017 285.685184 
L 320.223776 290.544344 
L 323.010989 298.891965 
L 324.404595 295.03324 
L 325.798202 283.143216 
L 327.191808 277.085285 
L 328.585415 279.327412 
L 329.979021 300.32981 
L 331.372627 277.474756 
L 332.766234 246.025475 
L 334.15984 254.439433 
L 335.553447 285.467983 
L 336.947053 292.803428 
L 338.340659 279.237602 
L 339.734266 287.53673 
L 341.127872 287.189345 
L 342.521479 279.12693 
L 343.915085 286.327831 
L 345.308691 286.39458 
L 346.702298 286.871903 
L 348.095904 290.525203 
L 349.48951 296.59093 
L 350.883117 298.292369 
L 352.276723 288.45804 
L 353.67033 287.846762 
L 355.063936 287.667331 
L 356.457542 288.599654 
L 357.851149 287.617666 
L 359.244755 293.744559 
L 360.638362 297.442411 
L 362.031968 298.433502 
L 363.425574 294.98725 
L 364.819181 294.285323 
L 366.212787 295.282799 
L 367.606394 295.782399 
L 369 296.06736 
L 370.393606 294.643927 
L 371.787213 287.279796 
L 373.180819 292.307285 
L 374.574426 292.403535 
L 375.968032 292.803355 
L 377.361638 293.947401 
L 378.755245 299.031194 
L 380.148851 296.314802 
L 381.542458 294.800585 
L 382.936064 293.607881 
L 384.32967 291.928781 
L 385.723277 290.948193 
L 387.116883 292.701286 
L 388.51049 290.740141 
L 389.904096 290.586437 
L 391.297702 294.728425 
L 392.691309 297.370421 
L 394.084915 296.898784 
L 395.478521 296.052113 
L 396.872128 292.598627 
L 398.265734 283.380946 
L 399.659341 289.281096 
L 401.052947 292.986492 
L 402.446553 289.504194 
L 403.84016 288.396518 
L 405.233766 292.405913 
L 406.627373 295.491969 
L 408.020979 298.072204 
L 409.414585 297.654366 
L 410.808192 298.46238 
L 412.201798 294.89809 
L 414.989011 292.006933 
L 416.382617 288.68898 
L 417.776224 292.325897 
L 419.16983 287.10842 
L 420.563437 291.582861 
L 421.957043 291.259963 
L 423.350649 289.750616 
L 424.744256 281.037419 
L 426.137862 290.480255 
L 427.531469 292.588407 
L 428.925075 286.408047 
L 430.318681 297.716223 
L 431.712288 299.918039 
L 433.105894 293.104229 
L 434.4995 293.519553 
L 435.893107 295.628798 
L 437.286713 285.381024 
L 438.68032 278.518172 
L 440.073926 294.970434 
L 441.467532 296.789994 
L 442.861139 295.449027 
L 444.254745 296.831365 
L 445.648352 297.993252 
L 447.041958 297.276888 
L 448.435564 294.475577 
L 449.829171 294.872817 
L 451.222777 291.421096 
L 452.616384 292.774024 
L 454.00999 292.303545 
L 455.403596 296.304264 
L 456.797203 296.134827 
L 458.190809 298.583187 
L 459.584416 292.927058 
L 460.978022 298.584958 
L 462.371628 301.686231 
L 463.765235 303.670991 
L 465.158841 306.633814 
L 466.552448 302.517155 
L 467.946054 301.915764 
L 469.33966 302.526421 
L 470.733267 300.556599 
L 472.126873 295.386957 
L 473.52048 292.22217 
L 474.914086 296.137845 
L 476.307692 296.6782 
L 477.701299 293.913943 
L 479.094905 290.04357 
L 480.488511 285.412747 
L 481.882118 293.727537 
L 483.275724 296.586463 
L 486.062937 292.944975 
L 487.456543 293.969646 
L 488.85015 290.415768 
L 490.243756 291.136321 
L 491.637363 296.261843 
L 493.030969 296.578249 
L 494.424575 294.564847 
L 495.818182 295.520041 
L 497.211788 294.828721 
L 498.605395 297.443786 
L 499.999001 295.736179 
L 501.392607 282.836884 
L 504.17982 291.602845 
L 505.573427 290.710358 
L 506.967033 292.838836 
L 508.360639 291.908979 
L 509.754246 294.101081 
L 513.935065 287.679492 
L 515.328671 294.121614 
L 516.722278 292.352288 
L 518.115884 291.22385 
L 519.509491 293.865752 
L 520.903097 288.325703 
L 522.296703 289.069323 
L 525.083916 299.851376 
L 526.477522 294.345524 
L 527.871129 289.856666 
L 529.264735 298.022952 
L 530.658342 316.094529 
L 532.051948 303.495608 
L 533.445554 285.891112 
L 534.839161 293.69819 
L 536.232767 286.778756 
L 537.626374 297.333626 
L 539.01998 298.158834 
L 540.413586 295.569009 
L 541.807193 297.446633 
L 543.200799 292.992821 
L 544.594406 299.505696 
L 545.988012 301.983789 
L 547.381618 293.826298 
L 548.775225 300.034836 
L 550.168831 295.713794 
L 551.562438 294.430136 
L 552.956044 300.233961 
L 554.34965 307.311245 
L 555.743257 307.131768 
L 557.136863 305.892248 
L 558.53047 296.736594 
L 559.924076 295.022229 
L 561.317682 305.186688 
L 562.711289 287.476422 
L 564.104895 276.269785 
L 565.498501 297.431552 
L 566.892108 295.708164 
L 568.285714 298.755206 
L 569.679321 292.760694 
L 571.072927 305.104902 
L 572.466533 301.991703 
L 573.86014 314.35706 
L 575.253746 301.823166 
L 576.647353 300.483661 
L 578.040959 295.915188 
L 579.434565 289.158138 
L 580.828172 298.324546 
L 582.221778 301.23526 
L 583.615385 297.387007 
L 585.008991 294.986864 
L 586.402597 296.084442 
L 587.796204 300.485149 
L 589.18981 295.679396 
L 590.583417 274.892645 
L 591.977023 291.354776 
L 594.764236 298.935191 
L 596.157842 320.788788 
L 597.551449 300.474601 
L 598.945055 298.497125 
L 601.732268 289.951434 
L 603.125874 292.159614 
L 604.519481 293.572749 
L 605.913087 286.526085 
L 607.306693 282.220008 
L 608.7003 280.222456 
L 610.093906 271.518871 
L 611.487512 274.367502 
L 614.274725 295.099518 
L 615.668332 294.613875 
L 617.061938 290.942113 
L 618.455544 299.458736 
L 619.849151 298.903105 
L 621.242757 309.260784 
L 622.636364 305.332209 
L 622.636364 305.332209 
" style="fill:none;stroke:#2ca02c;stroke-linecap:square;stroke-width:1.5;"/>
   </g>
   <g id="patch_9">
    <path d="M 90 345.6 
L 90 212.072727 
" style="fill:none;stroke:#000000;stroke-linecap:square;stroke-linejoin:miter;stroke-width:0.8;"/>
   </g>
   <g id="patch_10">
    <path d="M 648 345.6 
L 648 212.072727 
" style="fill:none;stroke:#000000;stroke-linecap:square;stroke-linejoin:miter;stroke-width:0.8;"/>
   </g>
   <g id="patch_11">
    <path d="M 90 345.6 
L 648 345.6 
" style="fill:none;stroke:#000000;stroke-linecap:square;stroke-linejoin:miter;stroke-width:0.8;"/>
   </g>
   <g id="patch_12">
    <path d="M 90 212.072727 
L 648 212.072727 
" style="fill:none;stroke:#000000;stroke-linecap:square;stroke-linejoin:miter;stroke-width:0.8;"/>
   </g>
   <g id="text_16">
    <!-- PRCP Eigs -->
    <defs>
     <path d="M 9.8125 72.90625 
L 55.90625 72.90625 
L 55.90625 64.59375 
L 19.671875 64.59375 
L 19.671875 43.015625 
L 54.390625 43.015625 
L 54.390625 34.71875 
L 19.671875 34.71875 
L 19.671875 8.296875 
L 56.78125 8.296875 
L 56.78125 0 
L 9.8125 0 
z
" id="DejaVuSans-45"/>
     <path d="M 9.421875 54.6875 
L 18.40625 54.6875 
L 18.40625 0 
L 9.421875 0 
z
M 9.421875 75.984375 
L 18.40625 75.984375 
L 18.40625 64.59375 
L 9.421875 64.59375 
z
" id="DejaVuSans-69"/>
     <path d="M 45.40625 27.984375 
Q 45.40625 37.75 41.375 43.109375 
Q 37.359375 48.484375 30.078125 48.484375 
Q 22.859375 48.484375 18.828125 43.109375 
Q 14.796875 37.75 14.796875 27.984375 
Q 14.796875 18.265625 18.828125 12.890625 
Q 22.859375 7.515625 30.078125 7.515625 
Q 37.359375 7.515625 41.375 12.890625 
Q 45.40625 18.265625 45.40625 27.984375 
M 54.390625 6.78125 
Q 54.390625 -7.171875 48.1875 -13.984375 
Q 42 -20.796875 29.203125 -20.796875 
Q 24.46875 -20.796875 20.265625 -20.09375 
Q 16.0625 -19.390625 12.109375 -17.921875 
L 12.109375 -9.1875 
Q 16.0625 -11.328125 19.921875 -12.34375 
Q 23.78125 -13.375 27.78125 -13.375 
Q 36.625 -13.375 41.015625 -8.765625 
Q 45.40625 -4.15625 45.40625 5.171875 
L 45.40625 9.625 
Q 42.625 4.78125 38.28125 2.390625 
Q 33.9375 0 27.875 0 
Q 17.828125 0 11.671875 7.65625 
Q 5.515625 15.328125 5.515625 27.984375 
Q 5.515625 40.671875 11.671875 48.328125 
Q 17.828125 56 27.875 56 
Q 33.9375 56 38.28125 53.609375 
Q 42.625 51.21875 45.40625 46.390625 
L 45.40625 54.6875 
L 54.390625 54.6875 
z
" id="DejaVuSans-67"/>
     <path d="M 44.28125 53.078125 
L 44.28125 44.578125 
Q 40.484375 46.53125 36.375 47.5 
Q 32.28125 48.484375 27.875 48.484375 
Q 21.1875 48.484375 17.84375 46.4375 
Q 14.5 44.390625 14.5 40.28125 
Q 14.5 37.15625 16.890625 35.375 
Q 19.28125 33.59375 26.515625 31.984375 
L 29.59375 31.296875 
Q 39.15625 29.25 43.1875 25.515625 
Q 47.21875 21.78125 47.21875 15.09375 
Q 47.21875 7.46875 41.1875 3.015625 
Q 35.15625 -1.421875 24.609375 -1.421875 
Q 20.21875 -1.421875 15.453125 -0.5625 
Q 10.6875 0.296875 5.421875 2 
L 5.421875 11.28125 
Q 10.40625 8.6875 15.234375 7.390625 
Q 20.0625 6.109375 24.8125 6.109375 
Q 31.15625 6.109375 34.5625 8.28125 
Q 37.984375 10.453125 37.984375 14.40625 
Q 37.984375 18.0625 35.515625 20.015625 
Q 33.0625 21.96875 24.703125 23.78125 
L 21.578125 24.515625 
Q 13.234375 26.265625 9.515625 29.90625 
Q 5.8125 33.546875 5.8125 39.890625 
Q 5.8125 47.609375 11.28125 51.796875 
Q 16.75 56 26.8125 56 
Q 31.78125 56 36.171875 55.265625 
Q 40.578125 54.546875 44.28125 53.078125 
" id="DejaVuSans-73"/>
    </defs>
    <g transform="translate(339.110625 206.072727)scale(0.12 -0.12)">
     <use xlink:href="#DejaVuSans-50"/>
     <use x="60.302734" xlink:href="#DejaVuSans-52"/>
     <use x="129.707031" xlink:href="#DejaVuSans-43"/>
     <use x="199.53125" xlink:href="#DejaVuSans-50"/>
     <use x="259.833984" xlink:href="#DejaVuSans-20"/>
     <use x="291.621094" xlink:href="#DejaVuSans-45"/>
     <use x="354.804688" xlink:href="#DejaVuSans-69"/>
     <use x="382.587891" xlink:href="#DejaVuSans-67"/>
     <use x="446.064453" xlink:href="#DejaVuSans-73"/>
    </g>
   </g>
   <g id="legend_2">
    <g id="patch_13">
     <path d="M 342.178906 264.107102 
L 395.821094 264.107102 
Q 397.821094 264.107102 397.821094 262.107102 
L 397.821094 219.072727 
Q 397.821094 217.072727 395.821094 217.072727 
L 342.178906 217.072727 
Q 340.178906 217.072727 340.178906 219.072727 
L 340.178906 262.107102 
Q 340.178906 264.107102 342.178906 264.107102 
z
" style="fill:#ffffff;opacity:0.8;stroke:#cccccc;stroke-linejoin:miter;"/>
    </g>
    <g id="line2d_43">
     <path d="M 344.178906 225.171165 
L 364.178906 225.171165 
" style="fill:none;stroke:#1f77b4;stroke-linecap:square;stroke-width:1.5;"/>
    </g>
    <g id="line2d_44"/>
    <g id="text_17">
     <!-- eig1 -->
     <g transform="translate(372.178906 228.671165)scale(0.1 -0.1)">
      <use xlink:href="#DejaVuSans-65"/>
      <use x="61.523438" xlink:href="#DejaVuSans-69"/>
      <use x="89.306641" xlink:href="#DejaVuSans-67"/>
      <use x="152.783203" xlink:href="#DejaVuSans-31"/>
     </g>
    </g>
    <g id="line2d_45">
     <path d="M 344.178906 239.84929 
L 364.178906 239.84929 
" style="fill:none;stroke:#ff7f0e;stroke-linecap:square;stroke-width:1.5;"/>
    </g>
    <g id="line2d_46"/>
    <g id="text_18">
     <!-- eig2 -->
     <g transform="translate(372.178906 243.34929)scale(0.1 -0.1)">
      <use xlink:href="#DejaVuSans-65"/>
      <use x="61.523438" xlink:href="#DejaVuSans-69"/>
      <use x="89.306641" xlink:href="#DejaVuSans-67"/>
      <use x="152.783203" xlink:href="#DejaVuSans-32"/>
     </g>
    </g>
    <g id="line2d_47">
     <path d="M 344.178906 254.527415 
L 364.178906 254.527415 
" style="fill:none;stroke:#2ca02c;stroke-linecap:square;stroke-width:1.5;"/>
    </g>
    <g id="line2d_48"/>
    <g id="text_19">
     <!-- eig3 -->
     <defs>
      <path d="M 40.578125 39.3125 
Q 47.65625 37.796875 51.625 33 
Q 55.609375 28.21875 55.609375 21.1875 
Q 55.609375 10.40625 48.1875 4.484375 
Q 40.765625 -1.421875 27.09375 -1.421875 
Q 22.515625 -1.421875 17.65625 -0.515625 
Q 12.796875 0.390625 7.625 2.203125 
L 7.625 11.71875 
Q 11.71875 9.328125 16.59375 8.109375 
Q 21.484375 6.890625 26.8125 6.890625 
Q 36.078125 6.890625 40.9375 10.546875 
Q 45.796875 14.203125 45.796875 21.1875 
Q 45.796875 27.640625 41.28125 31.265625 
Q 36.765625 34.90625 28.71875 34.90625 
L 20.21875 34.90625 
L 20.21875 43.015625 
L 29.109375 43.015625 
Q 36.375 43.015625 40.234375 45.921875 
Q 44.09375 48.828125 44.09375 54.296875 
Q 44.09375 59.90625 40.109375 62.90625 
Q 36.140625 65.921875 28.71875 65.921875 
Q 24.65625 65.921875 20.015625 65.03125 
Q 15.375 64.15625 9.8125 62.3125 
L 9.8125 71.09375 
Q 15.4375 72.65625 20.34375 73.4375 
Q 25.25 74.21875 29.59375 74.21875 
Q 40.828125 74.21875 47.359375 69.109375 
Q 53.90625 64.015625 53.90625 55.328125 
Q 53.90625 49.265625 50.4375 45.09375 
Q 46.96875 40.921875 40.578125 39.3125 
" id="DejaVuSans-33"/>
     </defs>
     <g transform="translate(372.178906 258.027415)scale(0.1 -0.1)">
      <use xlink:href="#DejaVuSans-65"/>
      <use x="61.523438" xlink:href="#DejaVuSans-69"/>
      <use x="89.306641" xlink:href="#DejaVuSans-67"/>
      <use x="152.783203" xlink:href="#DejaVuSans-33"/>
     </g>
    </g>
   </g>
  </g>
 </g>
 <defs>
  <clipPath id="pd6a9703258">
   <rect height="133.527273" width="558" x="90" y="51.84"/>
  </clipPath>
  <clipPath id="pf9205840cf">
   <rect height="133.527273" width="558" x="90" y="212.072727"/>
  </clipPath>
 </defs>
</svg>
