<?xml version="1.0" encoding="utf-8" standalone="no"?>
<!DOCTYPE svg PUBLIC "-//W3C//DTD SVG 1.1//EN"
  "http://www.w3.org/Graphics/SVG/1.1/DTD/svg11.dtd">
<!-- Created with matplotlib (http://matplotlib.org/) -->
<svg height="648pt" version="1.1" viewBox="0 0 864 648" width="864pt" xmlns="http://www.w3.org/2000/svg" xmlns:xlink="http://www.w3.org/1999/xlink">
 <defs>
  <style type="text/css">
*{stroke-linecap:butt;stroke-linejoin:round;}
  </style>
 </defs>
 <g id="figure_1">
  <g id="patch_1">
   <path d="M 0 648 
L 864 648 
L 864 0 
L 0 0 
z
" style="fill:#ffffff;"/>
  </g>
  <g id="axes_1">
   <g id="patch_2">
    <path d="M 108 278.050909 
L 777.6 278.050909 
L 777.6 77.76 
L 108 77.76 
z
" style="fill:#ffffff;"/>
   </g>
   <g id="matplotlib.axis_1">
    <g id="xtick_1">
     <g id="line2d_1">
      <path clip-path="url(#pbd5c64cd1f)" d="M 138.436364 278.050909 
L 138.436364 77.76 
" style="fill:none;stroke:#b0b0b0;stroke-linecap:square;stroke-width:0.8;"/>
     </g>
     <g id="line2d_2">
      <defs>
       <path d="M 0 0 
L 0 3.5 
" id="m6794fd52c5" style="stroke:#000000;stroke-width:0.8;"/>
      </defs>
      <g>
       <use style="stroke:#000000;stroke-width:0.8;" x="138.436364" xlink:href="#m6794fd52c5" y="278.050909"/>
      </g>
     </g>
    </g>
    <g id="xtick_2">
     <g id="line2d_3">
      <path clip-path="url(#pbd5c64cd1f)" d="M 288.945854 278.050909 
L 288.945854 77.76 
" style="fill:none;stroke:#b0b0b0;stroke-linecap:square;stroke-width:0.8;"/>
     </g>
     <g id="line2d_4">
      <g>
       <use style="stroke:#000000;stroke-width:0.8;" x="288.945854" xlink:href="#m6794fd52c5" y="278.050909"/>
      </g>
     </g>
    </g>
    <g id="xtick_3">
     <g id="line2d_5">
      <path clip-path="url(#pbd5c64cd1f)" d="M 441.127672 278.050909 
L 441.127672 77.76 
" style="fill:none;stroke:#b0b0b0;stroke-linecap:square;stroke-width:0.8;"/>
     </g>
     <g id="line2d_6">
      <g>
       <use style="stroke:#000000;stroke-width:0.8;" x="441.127672" xlink:href="#m6794fd52c5" y="278.050909"/>
      </g>
     </g>
    </g>
    <g id="xtick_4">
     <g id="line2d_7">
      <path clip-path="url(#pbd5c64cd1f)" d="M 594.981818 278.050909 
L 594.981818 77.76 
" style="fill:none;stroke:#b0b0b0;stroke-linecap:square;stroke-width:0.8;"/>
     </g>
     <g id="line2d_8">
      <g>
       <use style="stroke:#000000;stroke-width:0.8;" x="594.981818" xlink:href="#m6794fd52c5" y="278.050909"/>
      </g>
     </g>
    </g>
    <g id="xtick_5">
     <g id="line2d_9">
      <path clip-path="url(#pbd5c64cd1f)" d="M 748.835964 278.050909 
L 748.835964 77.76 
" style="fill:none;stroke:#b0b0b0;stroke-linecap:square;stroke-width:0.8;"/>
     </g>
     <g id="line2d_10">
      <g>
       <use style="stroke:#000000;stroke-width:0.8;" x="748.835964" xlink:href="#m6794fd52c5" y="278.050909"/>
      </g>
     </g>
    </g>
   </g>
   <g id="matplotlib.axis_2">
    <g id="ytick_1">
     <g id="line2d_11">
      <path clip-path="url(#pbd5c64cd1f)" d="M 108 268.946777 
L 777.6 268.946777 
" style="fill:none;stroke:#b0b0b0;stroke-linecap:square;stroke-width:0.8;"/>
     </g>
     <g id="line2d_12">
      <defs>
       <path d="M 0 0 
L -3.5 0 
" id="mdf12fac491" style="stroke:#000000;stroke-width:0.8;"/>
      </defs>
      <g>
       <use style="stroke:#000000;stroke-width:0.8;" x="108" xlink:href="#mdf12fac491" y="268.946777"/>
      </g>
     </g>
     <g id="text_1">
      <!-- 0 -->
      <defs>
       <path d="M 31.78125 66.40625 
Q 24.171875 66.40625 20.328125 58.90625 
Q 16.5 51.421875 16.5 36.375 
Q 16.5 21.390625 20.328125 13.890625 
Q 24.171875 6.390625 31.78125 6.390625 
Q 39.453125 6.390625 43.28125 13.890625 
Q 47.125 21.390625 47.125 36.375 
Q 47.125 51.421875 43.28125 58.90625 
Q 39.453125 66.40625 31.78125 66.40625 
M 31.78125 74.21875 
Q 44.046875 74.21875 50.515625 64.515625 
Q 56.984375 54.828125 56.984375 36.375 
Q 56.984375 17.96875 50.515625 8.265625 
Q 44.046875 -1.421875 31.78125 -1.421875 
Q 19.53125 -1.421875 13.0625 8.265625 
Q 6.59375 17.96875 6.59375 36.375 
Q 6.59375 54.828125 13.0625 64.515625 
Q 19.53125 74.21875 31.78125 74.21875 
" id="DejaVuSans-30"/>
      </defs>
      <g transform="translate(94.6375 272.745996)scale(0.1 -0.1)">
       <use xlink:href="#DejaVuSans-30"/>
      </g>
     </g>
    </g>
    <g id="ytick_2">
     <g id="line2d_13">
      <path clip-path="url(#pbd5c64cd1f)" d="M 108 246.577116 
L 777.6 246.577116 
" style="fill:none;stroke:#b0b0b0;stroke-linecap:square;stroke-width:0.8;"/>
     </g>
     <g id="line2d_14">
      <g>
       <use style="stroke:#000000;stroke-width:0.8;" x="108" xlink:href="#mdf12fac491" y="246.577116"/>
      </g>
     </g>
     <g id="text_2">
      <!-- 25 -->
      <defs>
       <path d="M 19.1875 8.296875 
L 53.609375 8.296875 
L 53.609375 0 
L 7.328125 0 
L 7.328125 8.296875 
Q 12.9375 14.109375 22.625 23.890625 
Q 32.328125 33.6875 34.8125 36.53125 
Q 39.546875 41.84375 41.421875 45.53125 
Q 43.3125 49.21875 43.3125 52.78125 
Q 43.3125 58.59375 39.234375 62.25 
Q 35.15625 65.921875 28.609375 65.921875 
Q 23.96875 65.921875 18.8125 64.3125 
Q 13.671875 62.703125 7.8125 59.421875 
L 7.8125 69.390625 
Q 13.765625 71.78125 18.9375 73 
Q 24.125 74.21875 28.421875 74.21875 
Q 39.75 74.21875 46.484375 68.546875 
Q 53.21875 62.890625 53.21875 53.421875 
Q 53.21875 48.921875 51.53125 44.890625 
Q 49.859375 40.875 45.40625 35.40625 
Q 44.1875 33.984375 37.640625 27.21875 
Q 31.109375 20.453125 19.1875 8.296875 
" id="DejaVuSans-32"/>
       <path d="M 10.796875 72.90625 
L 49.515625 72.90625 
L 49.515625 64.59375 
L 19.828125 64.59375 
L 19.828125 46.734375 
Q 21.96875 47.46875 24.109375 47.828125 
Q 26.265625 48.1875 28.421875 48.1875 
Q 40.625 48.1875 47.75 41.5 
Q 54.890625 34.8125 54.890625 23.390625 
Q 54.890625 11.625 47.5625 5.09375 
Q 40.234375 -1.421875 26.90625 -1.421875 
Q 22.3125 -1.421875 17.546875 -0.640625 
Q 12.796875 0.140625 7.71875 1.703125 
L 7.71875 11.625 
Q 12.109375 9.234375 16.796875 8.0625 
Q 21.484375 6.890625 26.703125 6.890625 
Q 35.15625 6.890625 40.078125 11.328125 
Q 45.015625 15.765625 45.015625 23.390625 
Q 45.015625 31 40.078125 35.4375 
Q 35.15625 39.890625 26.703125 39.890625 
Q 22.75 39.890625 18.8125 39.015625 
Q 14.890625 38.140625 10.796875 36.28125 
z
" id="DejaVuSans-35"/>
      </defs>
      <g transform="translate(88.275 250.376334)scale(0.1 -0.1)">
       <use xlink:href="#DejaVuSans-32"/>
       <use x="63.623047" xlink:href="#DejaVuSans-35"/>
      </g>
     </g>
    </g>
    <g id="ytick_3">
     <g id="line2d_15">
      <path clip-path="url(#pbd5c64cd1f)" d="M 108 224.207454 
L 777.6 224.207454 
" style="fill:none;stroke:#b0b0b0;stroke-linecap:square;stroke-width:0.8;"/>
     </g>
     <g id="line2d_16">
      <g>
       <use style="stroke:#000000;stroke-width:0.8;" x="108" xlink:href="#mdf12fac491" y="224.207454"/>
      </g>
     </g>
     <g id="text_3">
      <!-- 50 -->
      <g transform="translate(88.275 228.006673)scale(0.1 -0.1)">
       <use xlink:href="#DejaVuSans-35"/>
       <use x="63.623047" xlink:href="#DejaVuSans-30"/>
      </g>
     </g>
    </g>
    <g id="ytick_4">
     <g id="line2d_17">
      <path clip-path="url(#pbd5c64cd1f)" d="M 108 201.837793 
L 777.6 201.837793 
" style="fill:none;stroke:#b0b0b0;stroke-linecap:square;stroke-width:0.8;"/>
     </g>
     <g id="line2d_18">
      <g>
       <use style="stroke:#000000;stroke-width:0.8;" x="108" xlink:href="#mdf12fac491" y="201.837793"/>
      </g>
     </g>
     <g id="text_4">
      <!-- 75 -->
      <defs>
       <path d="M 8.203125 72.90625 
L 55.078125 72.90625 
L 55.078125 68.703125 
L 28.609375 0 
L 18.3125 0 
L 43.21875 64.59375 
L 8.203125 64.59375 
z
" id="DejaVuSans-37"/>
      </defs>
      <g transform="translate(88.275 205.637012)scale(0.1 -0.1)">
       <use xlink:href="#DejaVuSans-37"/>
       <use x="63.623047" xlink:href="#DejaVuSans-35"/>
      </g>
     </g>
    </g>
    <g id="ytick_5">
     <g id="line2d_19">
      <path clip-path="url(#pbd5c64cd1f)" d="M 108 179.468132 
L 777.6 179.468132 
" style="fill:none;stroke:#b0b0b0;stroke-linecap:square;stroke-width:0.8;"/>
     </g>
     <g id="line2d_20">
      <g>
       <use style="stroke:#000000;stroke-width:0.8;" x="108" xlink:href="#mdf12fac491" y="179.468132"/>
      </g>
     </g>
     <g id="text_5">
      <!-- 100 -->
      <defs>
       <path d="M 12.40625 8.296875 
L 28.515625 8.296875 
L 28.515625 63.921875 
L 10.984375 60.40625 
L 10.984375 69.390625 
L 28.421875 72.90625 
L 38.28125 72.90625 
L 38.28125 8.296875 
L 54.390625 8.296875 
L 54.390625 0 
L 12.40625 0 
z
" id="DejaVuSans-31"/>
      </defs>
      <g transform="translate(81.9125 183.267351)scale(0.1 -0.1)">
       <use xlink:href="#DejaVuSans-31"/>
       <use x="63.623047" xlink:href="#DejaVuSans-30"/>
       <use x="127.246094" xlink:href="#DejaVuSans-30"/>
      </g>
     </g>
    </g>
    <g id="ytick_6">
     <g id="line2d_21">
      <path clip-path="url(#pbd5c64cd1f)" d="M 108 157.098471 
L 777.6 157.098471 
" style="fill:none;stroke:#b0b0b0;stroke-linecap:square;stroke-width:0.8;"/>
     </g>
     <g id="line2d_22">
      <g>
       <use style="stroke:#000000;stroke-width:0.8;" x="108" xlink:href="#mdf12fac491" y="157.098471"/>
      </g>
     </g>
     <g id="text_6">
      <!-- 125 -->
      <g transform="translate(81.9125 160.89769)scale(0.1 -0.1)">
       <use xlink:href="#DejaVuSans-31"/>
       <use x="63.623047" xlink:href="#DejaVuSans-32"/>
       <use x="127.246094" xlink:href="#DejaVuSans-35"/>
      </g>
     </g>
    </g>
    <g id="ytick_7">
     <g id="line2d_23">
      <path clip-path="url(#pbd5c64cd1f)" d="M 108 134.72881 
L 777.6 134.72881 
" style="fill:none;stroke:#b0b0b0;stroke-linecap:square;stroke-width:0.8;"/>
     </g>
     <g id="line2d_24">
      <g>
       <use style="stroke:#000000;stroke-width:0.8;" x="108" xlink:href="#mdf12fac491" y="134.72881"/>
      </g>
     </g>
     <g id="text_7">
      <!-- 150 -->
      <g transform="translate(81.9125 138.528028)scale(0.1 -0.1)">
       <use xlink:href="#DejaVuSans-31"/>
       <use x="63.623047" xlink:href="#DejaVuSans-35"/>
       <use x="127.246094" xlink:href="#DejaVuSans-30"/>
      </g>
     </g>
    </g>
    <g id="ytick_8">
     <g id="line2d_25">
      <path clip-path="url(#pbd5c64cd1f)" d="M 108 112.359149 
L 777.6 112.359149 
" style="fill:none;stroke:#b0b0b0;stroke-linecap:square;stroke-width:0.8;"/>
     </g>
     <g id="line2d_26">
      <g>
       <use style="stroke:#000000;stroke-width:0.8;" x="108" xlink:href="#mdf12fac491" y="112.359149"/>
      </g>
     </g>
     <g id="text_8">
      <!-- 175 -->
      <g transform="translate(81.9125 116.158367)scale(0.1 -0.1)">
       <use xlink:href="#DejaVuSans-31"/>
       <use x="63.623047" xlink:href="#DejaVuSans-37"/>
       <use x="127.246094" xlink:href="#DejaVuSans-35"/>
      </g>
     </g>
    </g>
    <g id="ytick_9">
     <g id="line2d_27">
      <path clip-path="url(#pbd5c64cd1f)" d="M 108 89.989487 
L 777.6 89.989487 
" style="fill:none;stroke:#b0b0b0;stroke-linecap:square;stroke-width:0.8;"/>
     </g>
     <g id="line2d_28">
      <g>
       <use style="stroke:#000000;stroke-width:0.8;" x="108" xlink:href="#mdf12fac491" y="89.989487"/>
      </g>
     </g>
     <g id="text_9">
      <!-- 200 -->
      <g transform="translate(81.9125 93.788706)scale(0.1 -0.1)">
       <use xlink:href="#DejaVuSans-32"/>
       <use x="63.623047" xlink:href="#DejaVuSans-30"/>
       <use x="127.246094" xlink:href="#DejaVuSans-30"/>
      </g>
     </g>
    </g>
   </g>
   <g id="line2d_29">
    <path clip-path="url(#pbd5c64cd1f)" d="M 138.436364 138.593287 
L 140.108691 134.81366 
L 141.781019 134.48097 
L 143.453347 131.542725 
L 145.125674 126.732665 
L 146.798002 124.833122 
L 148.47033 125.841565 
L 150.142657 121.702522 
L 151.814985 120.732582 
L 153.487313 118.935957 
L 155.15964 114.30238 
L 156.831968 113.203095 
L 158.504296 115.785217 
L 160.176623 116.786345 
L 161.848951 114.992989 
L 163.521279 112.233399 
L 165.193606 113.641562 
L 168.538262 107.449822 
L 170.210589 105.289817 
L 171.882917 102.542484 
L 173.555245 101.470711 
L 175.227572 95.296884 
L 176.8999 97.941708 
L 178.572228 95.31625 
L 180.244555 93.154602 
L 181.916883 88.057504 
L 183.589211 86.864132 
L 185.261538 90.379611 
L 186.933866 89.056551 
L 188.606194 87.534471 
L 190.278521 93.828221 
L 191.950849 93.370071 
L 193.623177 92.731656 
L 195.295504 90.73556 
L 196.967832 94.004748 
L 198.64016 96.169659 
L 200.312488 95.448444 
L 201.984815 95.13009 
L 203.657143 96.528376 
L 205.329471 96.275592 
L 207.001798 97.504361 
L 208.674126 97.449154 
L 210.346454 98.9988 
L 212.018781 99.796851 
L 213.691109 101.379968 
L 215.363437 101.294432 
L 217.035764 101.620874 
L 218.708092 105.241795 
L 222.052747 107.495267 
L 223.725075 108.44173 
L 225.397403 109.254206 
L 227.06973 110.46839 
L 228.742058 111.124729 
L 230.414386 115.136418 
L 232.086713 115.888025 
L 233.759041 118.215933 
L 235.431369 121.22529 
L 238.776024 117.599097 
L 240.448352 119.852369 
L 242.120679 123.43244 
L 243.793007 127.516388 
L 245.465335 127.489323 
L 247.137662 134.004965 
L 250.482318 144.282741 
L 252.154645 147.007177 
L 253.826973 148.569859 
L 257.171628 152.126982 
L 258.843956 157.350742 
L 260.516284 158.373135 
L 262.188611 165.425296 
L 263.860939 166.24128 
L 265.533267 169.473767 
L 267.205594 173.725766 
L 268.877922 177.281868 
L 270.55025 182.522272 
L 272.222577 184.053002 
L 275.567233 190.611032 
L 277.23956 194.122909 
L 278.911888 195.989899 
L 280.584216 197.448459 
L 282.256543 203.258011 
L 283.928871 205.148912 
L 285.601199 208.503459 
L 287.273526 213.004827 
L 288.945854 216.764495 
L 290.618182 220.240622 
L 292.290509 221.722207 
L 293.962837 226.72868 
L 295.635165 231.307992 
L 297.307493 233.104304 
L 302.324476 243.44943 
L 303.996803 244.760796 
L 305.669131 248.05733 
L 307.341459 249.343996 
L 309.013786 252.031324 
L 310.686114 253.965216 
L 312.358442 255.265834 
L 314.030769 257.130044 
L 315.703097 258.391732 
L 319.047752 260.536275 
L 320.72008 261.986599 
L 325.737063 264.364262 
L 327.409391 264.909226 
L 329.081718 265.614778 
L 330.754046 264.971217 
L 332.426374 265.703074 
L 334.098701 266.037094 
L 335.771029 267.024371 
L 337.443357 267.066098 
L 339.115684 267.480611 
L 340.788012 268.250652 
L 342.46034 268.45666 
L 344.132667 267.825483 
L 345.804995 267.847353 
L 347.477323 268.560428 
L 349.14965 268.152303 
L 350.821978 268.620962 
L 352.494306 268.601028 
L 354.166633 268.703401 
L 355.838961 268.622276 
L 357.511289 268.865433 
L 360.855944 268.885787 
L 362.528272 268.541076 
L 364.200599 268.844951 
L 365.872927 268.68228 
L 367.545255 268.885732 
L 369.217582 268.784016 
L 370.88991 268.885951 
L 374.234565 268.845133 
L 377.579221 268.946777 
L 568.224575 268.946777 
L 569.896903 268.702453 
L 573.241558 268.885951 
L 576.586214 268.946777 
L 578.258541 268.763971 
L 583.275524 268.946777 
L 586.62018 268.946777 
L 588.292507 268.825015 
L 589.964835 268.946777 
L 593.309491 268.845843 
L 594.981818 268.535418 
L 598.326474 268.885067 
L 599.998801 268.906215 
L 601.671129 268.659341 
L 603.343457 268.63851 
L 605.015784 268.803189 
L 606.688112 268.657454 
L 608.36044 268.885067 
L 613.377423 268.32612 
L 615.04975 268.762125 
L 616.722078 268.86558 
L 620.066733 268.475922 
L 625.083716 268.389369 
L 626.756044 267.851702 
L 628.428372 267.585499 
L 630.100699 268.205196 
L 631.773027 267.557977 
L 633.445355 267.329782 
L 635.117682 267.497958 
L 638.462338 267.325335 
L 640.134665 267.109416 
L 641.806993 267.153092 
L 645.151648 266.072865 
L 646.823976 265.669979 
L 648.496304 266.157342 
L 650.168631 266.305846 
L 651.840959 265.776817 
L 653.513287 265.746068 
L 655.185614 266.435153 
L 656.857942 266.487345 
L 658.53027 264.971955 
L 660.202597 263.831962 
L 661.874925 262.991961 
L 663.547253 262.900165 
L 666.891908 260.158461 
L 668.564236 256.466644 
L 670.236563 255.985203 
L 671.908891 255.95418 
L 673.581219 254.415611 
L 675.253546 253.48237 
L 676.925874 254.268313 
L 678.598202 252.606877 
L 680.270529 251.278676 
L 681.942857 247.027805 
L 683.615185 245.303 
L 685.287512 242.86417 
L 691.976823 230.921316 
L 693.649151 228.884514 
L 695.321479 227.275659 
L 696.993806 224.628875 
L 698.666134 221.604669 
L 700.338462 218.884191 
L 702.010789 214.72966 
L 703.683117 211.016598 
L 705.355445 208.723315 
L 707.027772 204.351437 
L 708.7001 202.01964 
L 710.372428 200.310941 
L 712.044755 201.549876 
L 713.717083 199.7803 
L 715.389411 198.568381 
L 717.061738 194.699252 
L 718.734066 191.269571 
L 720.406394 190.853224 
L 722.078721 190.967731 
L 723.751049 188.196359 
L 727.095704 178.660103 
L 728.768032 178.048609 
L 732.112687 173.939752 
L 735.457343 167.876268 
L 737.12967 161.728991 
L 738.801998 159.196412 
L 740.474326 156.209736 
L 742.146653 153.651695 
L 743.818981 150.573841 
L 745.491309 144.327586 
L 747.163636 140.856265 
L 747.163636 140.856265 
" style="fill:none;stroke:#1f77b4;stroke-linecap:square;stroke-width:1.5;"/>
   </g>
   <g id="patch_3">
    <path d="M 108 278.050909 
L 108 77.76 
" style="fill:none;stroke:#000000;stroke-linecap:square;stroke-linejoin:miter;stroke-width:0.8;"/>
   </g>
   <g id="patch_4">
    <path d="M 777.6 278.050909 
L 777.6 77.76 
" style="fill:none;stroke:#000000;stroke-linecap:square;stroke-linejoin:miter;stroke-width:0.8;"/>
   </g>
   <g id="patch_5">
    <path d="M 108 278.050909 
L 777.6 278.050909 
" style="fill:none;stroke:#000000;stroke-linecap:square;stroke-linejoin:miter;stroke-width:0.8;"/>
   </g>
   <g id="patch_6">
    <path d="M 108 77.76 
L 777.6 77.76 
" style="fill:none;stroke:#000000;stroke-linecap:square;stroke-linejoin:miter;stroke-width:0.8;"/>
   </g>
   <g id="text_10">
    <!-- SNWD Mean -->
    <defs>
     <path d="M 53.515625 70.515625 
L 53.515625 60.890625 
Q 47.90625 63.578125 42.921875 64.890625 
Q 37.9375 66.21875 33.296875 66.21875 
Q 25.25 66.21875 20.875 63.09375 
Q 16.5 59.96875 16.5 54.203125 
Q 16.5 49.359375 19.40625 46.890625 
Q 22.3125 44.4375 30.421875 42.921875 
L 36.375 41.703125 
Q 47.40625 39.59375 52.65625 34.296875 
Q 57.90625 29 57.90625 20.125 
Q 57.90625 9.515625 50.796875 4.046875 
Q 43.703125 -1.421875 29.984375 -1.421875 
Q 24.8125 -1.421875 18.96875 -0.25 
Q 13.140625 0.921875 6.890625 3.21875 
L 6.890625 13.375 
Q 12.890625 10.015625 18.65625 8.296875 
Q 24.421875 6.59375 29.984375 6.59375 
Q 38.421875 6.59375 43.015625 9.90625 
Q 47.609375 13.234375 47.609375 19.390625 
Q 47.609375 24.75 44.3125 27.78125 
Q 41.015625 30.8125 33.5 32.328125 
L 27.484375 33.5 
Q 16.453125 35.6875 11.515625 40.375 
Q 6.59375 45.0625 6.59375 53.421875 
Q 6.59375 63.09375 13.40625 68.65625 
Q 20.21875 74.21875 32.171875 74.21875 
Q 37.3125 74.21875 42.625 73.28125 
Q 47.953125 72.359375 53.515625 70.515625 
" id="DejaVuSans-53"/>
     <path d="M 9.8125 72.90625 
L 23.09375 72.90625 
L 55.421875 11.921875 
L 55.421875 72.90625 
L 64.984375 72.90625 
L 64.984375 0 
L 51.703125 0 
L 19.390625 60.984375 
L 19.390625 0 
L 9.8125 0 
z
" id="DejaVuSans-4e"/>
     <path d="M 3.328125 72.90625 
L 13.28125 72.90625 
L 28.609375 11.28125 
L 43.890625 72.90625 
L 54.984375 72.90625 
L 70.3125 11.28125 
L 85.59375 72.90625 
L 95.609375 72.90625 
L 77.296875 0 
L 64.890625 0 
L 49.515625 63.28125 
L 33.984375 0 
L 21.578125 0 
z
" id="DejaVuSans-57"/>
     <path d="M 19.671875 64.796875 
L 19.671875 8.109375 
L 31.59375 8.109375 
Q 46.6875 8.109375 53.6875 14.9375 
Q 60.6875 21.78125 60.6875 36.53125 
Q 60.6875 51.171875 53.6875 57.984375 
Q 46.6875 64.796875 31.59375 64.796875 
z
M 9.8125 72.90625 
L 30.078125 72.90625 
Q 51.265625 72.90625 61.171875 64.09375 
Q 71.09375 55.28125 71.09375 36.53125 
Q 71.09375 17.671875 61.125 8.828125 
Q 51.171875 0 30.078125 0 
L 9.8125 0 
z
" id="DejaVuSans-44"/>
     <path id="DejaVuSans-20"/>
     <path d="M 9.8125 72.90625 
L 24.515625 72.90625 
L 43.109375 23.296875 
L 61.8125 72.90625 
L 76.515625 72.90625 
L 76.515625 0 
L 66.890625 0 
L 66.890625 64.015625 
L 48.09375 14.015625 
L 38.1875 14.015625 
L 19.390625 64.015625 
L 19.390625 0 
L 9.8125 0 
z
" id="DejaVuSans-4d"/>
     <path d="M 56.203125 29.59375 
L 56.203125 25.203125 
L 14.890625 25.203125 
Q 15.484375 15.921875 20.484375 11.0625 
Q 25.484375 6.203125 34.421875 6.203125 
Q 39.59375 6.203125 44.453125 7.46875 
Q 49.3125 8.734375 54.109375 11.28125 
L 54.109375 2.78125 
Q 49.265625 0.734375 44.1875 -0.34375 
Q 39.109375 -1.421875 33.890625 -1.421875 
Q 20.796875 -1.421875 13.15625 6.1875 
Q 5.515625 13.8125 5.515625 26.8125 
Q 5.515625 40.234375 12.765625 48.109375 
Q 20.015625 56 32.328125 56 
Q 43.359375 56 49.78125 48.890625 
Q 56.203125 41.796875 56.203125 29.59375 
M 47.21875 32.234375 
Q 47.125 39.59375 43.09375 43.984375 
Q 39.0625 48.390625 32.421875 48.390625 
Q 24.90625 48.390625 20.390625 44.140625 
Q 15.875 39.890625 15.1875 32.171875 
z
" id="DejaVuSans-65"/>
     <path d="M 34.28125 27.484375 
Q 23.390625 27.484375 19.1875 25 
Q 14.984375 22.515625 14.984375 16.5 
Q 14.984375 11.71875 18.140625 8.90625 
Q 21.296875 6.109375 26.703125 6.109375 
Q 34.1875 6.109375 38.703125 11.40625 
Q 43.21875 16.703125 43.21875 25.484375 
L 43.21875 27.484375 
z
M 52.203125 31.203125 
L 52.203125 0 
L 43.21875 0 
L 43.21875 8.296875 
Q 40.140625 3.328125 35.546875 0.953125 
Q 30.953125 -1.421875 24.3125 -1.421875 
Q 15.921875 -1.421875 10.953125 3.296875 
Q 6 8.015625 6 15.921875 
Q 6 25.140625 12.171875 29.828125 
Q 18.359375 34.515625 30.609375 34.515625 
L 43.21875 34.515625 
L 43.21875 35.40625 
Q 43.21875 41.609375 39.140625 45 
Q 35.0625 48.390625 27.6875 48.390625 
Q 23 48.390625 18.546875 47.265625 
Q 14.109375 46.140625 10.015625 43.890625 
L 10.015625 52.203125 
Q 14.9375 54.109375 19.578125 55.046875 
Q 24.21875 56 28.609375 56 
Q 40.484375 56 46.34375 49.84375 
Q 52.203125 43.703125 52.203125 31.203125 
" id="DejaVuSans-61"/>
     <path d="M 54.890625 33.015625 
L 54.890625 0 
L 45.90625 0 
L 45.90625 32.71875 
Q 45.90625 40.484375 42.875 44.328125 
Q 39.84375 48.1875 33.796875 48.1875 
Q 26.515625 48.1875 22.3125 43.546875 
Q 18.109375 38.921875 18.109375 30.90625 
L 18.109375 0 
L 9.078125 0 
L 9.078125 54.6875 
L 18.109375 54.6875 
L 18.109375 46.1875 
Q 21.34375 51.125 25.703125 53.5625 
Q 30.078125 56 35.796875 56 
Q 45.21875 56 50.046875 50.171875 
Q 54.890625 44.34375 54.890625 33.015625 
" id="DejaVuSans-6e"/>
    </defs>
    <g transform="translate(405.694687 71.76)scale(0.12 -0.12)">
     <use xlink:href="#DejaVuSans-53"/>
     <use x="63.476562" xlink:href="#DejaVuSans-4e"/>
     <use x="138.28125" xlink:href="#DejaVuSans-57"/>
     <use x="237.158203" xlink:href="#DejaVuSans-44"/>
     <use x="314.160156" xlink:href="#DejaVuSans-20"/>
     <use x="345.947266" xlink:href="#DejaVuSans-4d"/>
     <use x="432.226562" xlink:href="#DejaVuSans-65"/>
     <use x="493.75" xlink:href="#DejaVuSans-61"/>
     <use x="555.029297" xlink:href="#DejaVuSans-6e"/>
    </g>
   </g>
   <g id="legend_1">
    <g id="patch_7">
     <path d="M 711.353125 100.438125 
L 770.6 100.438125 
Q 772.6 100.438125 772.6 98.438125 
L 772.6 84.76 
Q 772.6 82.76 770.6 82.76 
L 711.353125 82.76 
Q 709.353125 82.76 709.353125 84.76 
L 709.353125 98.438125 
Q 709.353125 100.438125 711.353125 100.438125 
z
" style="fill:#ffffff;opacity:0.8;stroke:#cccccc;stroke-linejoin:miter;"/>
    </g>
    <g id="line2d_30">
     <path d="M 713.353125 90.858438 
L 733.353125 90.858438 
" style="fill:none;stroke:#1f77b4;stroke-linecap:square;stroke-width:1.5;"/>
    </g>
    <g id="line2d_31"/>
    <g id="text_11">
     <!-- Mean -->
     <g transform="translate(741.353125 94.358438)scale(0.1 -0.1)">
      <use xlink:href="#DejaVuSans-4d"/>
      <use x="86.279297" xlink:href="#DejaVuSans-65"/>
      <use x="147.802734" xlink:href="#DejaVuSans-61"/>
      <use x="209.082031" xlink:href="#DejaVuSans-6e"/>
     </g>
    </g>
   </g>
  </g>
  <g id="axes_2">
   <g id="patch_8">
    <path d="M 108 518.4 
L 777.6 518.4 
L 777.6 318.109091 
L 108 318.109091 
z
" style="fill:#ffffff;"/>
   </g>
   <g id="matplotlib.axis_3">
    <g id="xtick_6">
     <g id="line2d_32">
      <path clip-path="url(#p6d625b7f48)" d="M 138.436364 518.4 
L 138.436364 318.109091 
" style="fill:none;stroke:#b0b0b0;stroke-linecap:square;stroke-width:0.8;"/>
     </g>
     <g id="line2d_33">
      <g>
       <use style="stroke:#000000;stroke-width:0.8;" x="138.436364" xlink:href="#m6794fd52c5" y="518.4"/>
      </g>
     </g>
     <g id="text_12">
      <!-- Jan -->
      <defs>
       <path d="M 9.8125 72.90625 
L 19.671875 72.90625 
L 19.671875 5.078125 
Q 19.671875 -8.109375 14.671875 -14.0625 
Q 9.671875 -20.015625 -1.421875 -20.015625 
L -5.171875 -20.015625 
L -5.171875 -11.71875 
L -2.09375 -11.71875 
Q 4.4375 -11.71875 7.125 -8.046875 
Q 9.8125 -4.390625 9.8125 5.078125 
z
" id="DejaVuSans-4a"/>
      </defs>
      <g transform="translate(124.046197 539.688252)rotate(-30)scale(0.1 -0.1)">
       <use xlink:href="#DejaVuSans-4a"/>
       <use x="29.492188" xlink:href="#DejaVuSans-61"/>
       <use x="90.771484" xlink:href="#DejaVuSans-6e"/>
      </g>
     </g>
    </g>
    <g id="xtick_7">
     <g id="line2d_34">
      <path clip-path="url(#p6d625b7f48)" d="M 288.945854 518.4 
L 288.945854 318.109091 
" style="fill:none;stroke:#b0b0b0;stroke-linecap:square;stroke-width:0.8;"/>
     </g>
     <g id="line2d_35">
      <g>
       <use style="stroke:#000000;stroke-width:0.8;" x="288.945854" xlink:href="#m6794fd52c5" y="518.4"/>
      </g>
     </g>
     <g id="text_13">
      <!-- Apr -->
      <defs>
       <path d="M 34.1875 63.1875 
L 20.796875 26.90625 
L 47.609375 26.90625 
z
M 28.609375 72.90625 
L 39.796875 72.90625 
L 67.578125 0 
L 57.328125 0 
L 50.6875 18.703125 
L 17.828125 18.703125 
L 11.1875 0 
L 0.78125 0 
z
" id="DejaVuSans-41"/>
       <path d="M 18.109375 8.203125 
L 18.109375 -20.796875 
L 9.078125 -20.796875 
L 9.078125 54.6875 
L 18.109375 54.6875 
L 18.109375 46.390625 
Q 20.953125 51.265625 25.265625 53.625 
Q 29.59375 56 35.59375 56 
Q 45.5625 56 51.78125 48.09375 
Q 58.015625 40.1875 58.015625 27.296875 
Q 58.015625 14.40625 51.78125 6.484375 
Q 45.5625 -1.421875 35.59375 -1.421875 
Q 29.59375 -1.421875 25.265625 0.953125 
Q 20.953125 3.328125 18.109375 8.203125 
M 48.6875 27.296875 
Q 48.6875 37.203125 44.609375 42.84375 
Q 40.53125 48.484375 33.40625 48.484375 
Q 26.265625 48.484375 22.1875 42.84375 
Q 18.109375 37.203125 18.109375 27.296875 
Q 18.109375 17.390625 22.1875 11.75 
Q 26.265625 6.109375 33.40625 6.109375 
Q 40.53125 6.109375 44.609375 11.75 
Q 48.6875 17.390625 48.6875 27.296875 
" id="DejaVuSans-70"/>
       <path d="M 41.109375 46.296875 
Q 39.59375 47.171875 37.8125 47.578125 
Q 36.03125 48 33.890625 48 
Q 26.265625 48 22.1875 43.046875 
Q 18.109375 38.09375 18.109375 28.8125 
L 18.109375 0 
L 9.078125 0 
L 9.078125 54.6875 
L 18.109375 54.6875 
L 18.109375 46.1875 
Q 20.953125 51.171875 25.484375 53.578125 
Q 30.03125 56 36.53125 56 
Q 37.453125 56 38.578125 55.875 
Q 39.703125 55.765625 41.0625 55.515625 
z
" id="DejaVuSans-72"/>
      </defs>
      <g transform="translate(272.923771 540.63044)rotate(-30)scale(0.1 -0.1)">
       <use xlink:href="#DejaVuSans-41"/>
       <use x="68.408203" xlink:href="#DejaVuSans-70"/>
       <use x="131.884766" xlink:href="#DejaVuSans-72"/>
      </g>
     </g>
    </g>
    <g id="xtick_8">
     <g id="line2d_36">
      <path clip-path="url(#p6d625b7f48)" d="M 441.127672 518.4 
L 441.127672 318.109091 
" style="fill:none;stroke:#b0b0b0;stroke-linecap:square;stroke-width:0.8;"/>
     </g>
     <g id="line2d_37">
      <g>
       <use style="stroke:#000000;stroke-width:0.8;" x="441.127672" xlink:href="#m6794fd52c5" y="518.4"/>
      </g>
     </g>
     <g id="text_14">
      <!-- Jul -->
      <defs>
       <path d="M 8.5 21.578125 
L 8.5 54.6875 
L 17.484375 54.6875 
L 17.484375 21.921875 
Q 17.484375 14.15625 20.5 10.265625 
Q 23.53125 6.390625 29.59375 6.390625 
Q 36.859375 6.390625 41.078125 11.03125 
Q 45.3125 15.671875 45.3125 23.6875 
L 45.3125 54.6875 
L 54.296875 54.6875 
L 54.296875 0 
L 45.3125 0 
L 45.3125 8.40625 
Q 42.046875 3.421875 37.71875 1 
Q 33.40625 -1.421875 27.6875 -1.421875 
Q 18.265625 -1.421875 13.375 4.4375 
Q 8.5 10.296875 8.5 21.578125 
M 31.109375 56 
z
" id="DejaVuSans-75"/>
       <path d="M 9.421875 75.984375 
L 18.40625 75.984375 
L 18.40625 0 
L 9.421875 0 
z
" id="DejaVuSans-6c"/>
      </defs>
      <g transform="translate(429.638691 538.013252)rotate(-30)scale(0.1 -0.1)">
       <use xlink:href="#DejaVuSans-4a"/>
       <use x="29.492188" xlink:href="#DejaVuSans-75"/>
       <use x="92.871094" xlink:href="#DejaVuSans-6c"/>
      </g>
     </g>
    </g>
    <g id="xtick_9">
     <g id="line2d_38">
      <path clip-path="url(#p6d625b7f48)" d="M 594.981818 518.4 
L 594.981818 318.109091 
" style="fill:none;stroke:#b0b0b0;stroke-linecap:square;stroke-width:0.8;"/>
     </g>
     <g id="line2d_39">
      <g>
       <use style="stroke:#000000;stroke-width:0.8;" x="594.981818" xlink:href="#m6794fd52c5" y="518.4"/>
      </g>
     </g>
     <g id="text_15">
      <!-- Oct -->
      <defs>
       <path d="M 39.40625 66.21875 
Q 28.65625 66.21875 22.328125 58.203125 
Q 16.015625 50.203125 16.015625 36.375 
Q 16.015625 22.609375 22.328125 14.59375 
Q 28.65625 6.59375 39.40625 6.59375 
Q 50.140625 6.59375 56.421875 14.59375 
Q 62.703125 22.609375 62.703125 36.375 
Q 62.703125 50.203125 56.421875 58.203125 
Q 50.140625 66.21875 39.40625 66.21875 
M 39.40625 74.21875 
Q 54.734375 74.21875 63.90625 63.9375 
Q 73.09375 53.65625 73.09375 36.375 
Q 73.09375 19.140625 63.90625 8.859375 
Q 54.734375 -1.421875 39.40625 -1.421875 
Q 24.03125 -1.421875 14.8125 8.828125 
Q 5.609375 19.09375 5.609375 36.375 
Q 5.609375 53.65625 14.8125 63.9375 
Q 24.03125 74.21875 39.40625 74.21875 
" id="DejaVuSans-4f"/>
       <path d="M 48.78125 52.59375 
L 48.78125 44.1875 
Q 44.96875 46.296875 41.140625 47.34375 
Q 37.3125 48.390625 33.40625 48.390625 
Q 24.65625 48.390625 19.8125 42.84375 
Q 14.984375 37.3125 14.984375 27.296875 
Q 14.984375 17.28125 19.8125 11.734375 
Q 24.65625 6.203125 33.40625 6.203125 
Q 37.3125 6.203125 41.140625 7.25 
Q 44.96875 8.296875 48.78125 10.40625 
L 48.78125 2.09375 
Q 45.015625 0.34375 40.984375 -0.53125 
Q 36.96875 -1.421875 32.421875 -1.421875 
Q 20.0625 -1.421875 12.78125 6.34375 
Q 5.515625 14.109375 5.515625 27.296875 
Q 5.515625 40.671875 12.859375 48.328125 
Q 20.21875 56 33.015625 56 
Q 37.15625 56 41.109375 55.140625 
Q 45.0625 54.296875 48.78125 52.59375 
" id="DejaVuSans-63"/>
       <path d="M 18.3125 70.21875 
L 18.3125 54.6875 
L 36.8125 54.6875 
L 36.8125 47.703125 
L 18.3125 47.703125 
L 18.3125 18.015625 
Q 18.3125 11.328125 20.140625 9.421875 
Q 21.96875 7.515625 27.59375 7.515625 
L 36.8125 7.515625 
L 36.8125 0 
L 27.59375 0 
Q 17.1875 0 13.234375 3.875 
Q 9.28125 7.765625 9.28125 18.015625 
L 9.28125 47.703125 
L 2.6875 47.703125 
L 2.6875 54.6875 
L 9.28125 54.6875 
L 9.28125 70.21875 
z
" id="DejaVuSans-74"/>
      </defs>
      <g transform="translate(578.967854 540.625752)rotate(-30)scale(0.1 -0.1)">
       <use xlink:href="#DejaVuSans-4f"/>
       <use x="78.710938" xlink:href="#DejaVuSans-63"/>
       <use x="133.691406" xlink:href="#DejaVuSans-74"/>
      </g>
     </g>
    </g>
    <g id="xtick_10">
     <g id="line2d_40">
      <path clip-path="url(#p6d625b7f48)" d="M 748.835964 518.4 
L 748.835964 318.109091 
" style="fill:none;stroke:#b0b0b0;stroke-linecap:square;stroke-width:0.8;"/>
     </g>
     <g id="line2d_41">
      <g>
       <use style="stroke:#000000;stroke-width:0.8;" x="748.835964" xlink:href="#m6794fd52c5" y="518.4"/>
      </g>
     </g>
     <g id="text_16">
      <!-- Jan -->
      <g transform="translate(734.445797 539.688252)rotate(-30)scale(0.1 -0.1)">
       <use xlink:href="#DejaVuSans-4a"/>
       <use x="29.492188" xlink:href="#DejaVuSans-61"/>
       <use x="90.771484" xlink:href="#DejaVuSans-6e"/>
      </g>
     </g>
    </g>
   </g>
   <g id="matplotlib.axis_4">
    <g id="ytick_10">
     <g id="line2d_42">
      <path clip-path="url(#p6d625b7f48)" d="M 108 505.519566 
L 777.6 505.519566 
" style="fill:none;stroke:#b0b0b0;stroke-linecap:square;stroke-width:0.8;"/>
     </g>
     <g id="line2d_43">
      <g>
       <use style="stroke:#000000;stroke-width:0.8;" x="108" xlink:href="#mdf12fac491" y="505.519566"/>
      </g>
     </g>
     <g id="text_17">
      <!-- −0.15 -->
      <defs>
       <path d="M 10.59375 35.5 
L 73.1875 35.5 
L 73.1875 27.203125 
L 10.59375 27.203125 
z
" id="DejaVuSans-2212"/>
       <path d="M 10.6875 12.40625 
L 21 12.40625 
L 21 0 
L 10.6875 0 
z
" id="DejaVuSans-2e"/>
      </defs>
      <g transform="translate(70.354687 509.318785)scale(0.1 -0.1)">
       <use xlink:href="#DejaVuSans-2212"/>
       <use x="83.789062" xlink:href="#DejaVuSans-30"/>
       <use x="147.412109" xlink:href="#DejaVuSans-2e"/>
       <use x="179.199219" xlink:href="#DejaVuSans-31"/>
       <use x="242.822266" xlink:href="#DejaVuSans-35"/>
      </g>
     </g>
    </g>
    <g id="ytick_11">
     <g id="line2d_44">
      <path clip-path="url(#p6d625b7f48)" d="M 108 480.344917 
L 777.6 480.344917 
" style="fill:none;stroke:#b0b0b0;stroke-linecap:square;stroke-width:0.8;"/>
     </g>
     <g id="line2d_45">
      <g>
       <use style="stroke:#000000;stroke-width:0.8;" x="108" xlink:href="#mdf12fac491" y="480.344917"/>
      </g>
     </g>
     <g id="text_18">
      <!-- −0.10 -->
      <g transform="translate(70.354687 484.144136)scale(0.1 -0.1)">
       <use xlink:href="#DejaVuSans-2212"/>
       <use x="83.789062" xlink:href="#DejaVuSans-30"/>
       <use x="147.412109" xlink:href="#DejaVuSans-2e"/>
       <use x="179.199219" xlink:href="#DejaVuSans-31"/>
       <use x="242.822266" xlink:href="#DejaVuSans-30"/>
      </g>
     </g>
    </g>
    <g id="ytick_12">
     <g id="line2d_46">
      <path clip-path="url(#p6d625b7f48)" d="M 108 455.170268 
L 777.6 455.170268 
" style="fill:none;stroke:#b0b0b0;stroke-linecap:square;stroke-width:0.8;"/>
     </g>
     <g id="line2d_47">
      <g>
       <use style="stroke:#000000;stroke-width:0.8;" x="108" xlink:href="#mdf12fac491" y="455.170268"/>
      </g>
     </g>
     <g id="text_19">
      <!-- −0.05 -->
      <g transform="translate(70.354687 458.969486)scale(0.1 -0.1)">
       <use xlink:href="#DejaVuSans-2212"/>
       <use x="83.789062" xlink:href="#DejaVuSans-30"/>
       <use x="147.412109" xlink:href="#DejaVuSans-2e"/>
       <use x="179.199219" xlink:href="#DejaVuSans-30"/>
       <use x="242.822266" xlink:href="#DejaVuSans-35"/>
      </g>
     </g>
    </g>
    <g id="ytick_13">
     <g id="line2d_48">
      <path clip-path="url(#p6d625b7f48)" d="M 108 429.995619 
L 777.6 429.995619 
" style="fill:none;stroke:#b0b0b0;stroke-linecap:square;stroke-width:0.8;"/>
     </g>
     <g id="line2d_49">
      <g>
       <use style="stroke:#000000;stroke-width:0.8;" x="108" xlink:href="#mdf12fac491" y="429.995619"/>
      </g>
     </g>
     <g id="text_20">
      <!-- 0.00 -->
      <g transform="translate(78.734375 433.794837)scale(0.1 -0.1)">
       <use xlink:href="#DejaVuSans-30"/>
       <use x="63.623047" xlink:href="#DejaVuSans-2e"/>
       <use x="95.410156" xlink:href="#DejaVuSans-30"/>
       <use x="159.033203" xlink:href="#DejaVuSans-30"/>
      </g>
     </g>
    </g>
    <g id="ytick_14">
     <g id="line2d_50">
      <path clip-path="url(#p6d625b7f48)" d="M 108 404.82097 
L 777.6 404.82097 
" style="fill:none;stroke:#b0b0b0;stroke-linecap:square;stroke-width:0.8;"/>
     </g>
     <g id="line2d_51">
      <g>
       <use style="stroke:#000000;stroke-width:0.8;" x="108" xlink:href="#mdf12fac491" y="404.82097"/>
      </g>
     </g>
     <g id="text_21">
      <!-- 0.05 -->
      <g transform="translate(78.734375 408.620188)scale(0.1 -0.1)">
       <use xlink:href="#DejaVuSans-30"/>
       <use x="63.623047" xlink:href="#DejaVuSans-2e"/>
       <use x="95.410156" xlink:href="#DejaVuSans-30"/>
       <use x="159.033203" xlink:href="#DejaVuSans-35"/>
      </g>
     </g>
    </g>
    <g id="ytick_15">
     <g id="line2d_52">
      <path clip-path="url(#p6d625b7f48)" d="M 108 379.64632 
L 777.6 379.64632 
" style="fill:none;stroke:#b0b0b0;stroke-linecap:square;stroke-width:0.8;"/>
     </g>
     <g id="line2d_53">
      <g>
       <use style="stroke:#000000;stroke-width:0.8;" x="108" xlink:href="#mdf12fac491" y="379.64632"/>
      </g>
     </g>
     <g id="text_22">
      <!-- 0.10 -->
      <g transform="translate(78.734375 383.445539)scale(0.1 -0.1)">
       <use xlink:href="#DejaVuSans-30"/>
       <use x="63.623047" xlink:href="#DejaVuSans-2e"/>
       <use x="95.410156" xlink:href="#DejaVuSans-31"/>
       <use x="159.033203" xlink:href="#DejaVuSans-30"/>
      </g>
     </g>
    </g>
    <g id="ytick_16">
     <g id="line2d_54">
      <path clip-path="url(#p6d625b7f48)" d="M 108 354.471671 
L 777.6 354.471671 
" style="fill:none;stroke:#b0b0b0;stroke-linecap:square;stroke-width:0.8;"/>
     </g>
     <g id="line2d_55">
      <g>
       <use style="stroke:#000000;stroke-width:0.8;" x="108" xlink:href="#mdf12fac491" y="354.471671"/>
      </g>
     </g>
     <g id="text_23">
      <!-- 0.15 -->
      <g transform="translate(78.734375 358.27089)scale(0.1 -0.1)">
       <use xlink:href="#DejaVuSans-30"/>
       <use x="63.623047" xlink:href="#DejaVuSans-2e"/>
       <use x="95.410156" xlink:href="#DejaVuSans-31"/>
       <use x="159.033203" xlink:href="#DejaVuSans-35"/>
      </g>
     </g>
    </g>
    <g id="ytick_17">
     <g id="line2d_56">
      <path clip-path="url(#p6d625b7f48)" d="M 108 329.297022 
L 777.6 329.297022 
" style="fill:none;stroke:#b0b0b0;stroke-linecap:square;stroke-width:0.8;"/>
     </g>
     <g id="line2d_57">
      <g>
       <use style="stroke:#000000;stroke-width:0.8;" x="108" xlink:href="#mdf12fac491" y="329.297022"/>
      </g>
     </g>
     <g id="text_24">
      <!-- 0.20 -->
      <g transform="translate(78.734375 333.096241)scale(0.1 -0.1)">
       <use xlink:href="#DejaVuSans-30"/>
       <use x="63.623047" xlink:href="#DejaVuSans-2e"/>
       <use x="95.410156" xlink:href="#DejaVuSans-32"/>
       <use x="159.033203" xlink:href="#DejaVuSans-30"/>
      </g>
     </g>
    </g>
   </g>
   <g id="line2d_58">
    <path clip-path="url(#p6d625b7f48)" d="M 138.436364 467.763941 
L 140.108691 467.456035 
L 141.781019 467.541021 
L 143.453347 468.420944 
L 145.125674 469.452481 
L 146.798002 470.066279 
L 148.47033 469.824674 
L 150.142657 470.505255 
L 151.814985 470.843247 
L 153.487313 471.961988 
L 155.15964 474.178566 
L 156.831968 474.924394 
L 158.504296 474.647172 
L 160.176623 474.10436 
L 163.521279 475.412355 
L 165.193606 474.429887 
L 166.865934 475.489602 
L 168.538262 478.414239 
L 170.210589 478.110372 
L 171.882917 479.714898 
L 173.555245 481.859665 
L 175.227572 483.562638 
L 176.8999 482.046335 
L 178.572228 482.78506 
L 180.244555 482.982122 
L 181.916883 484.352057 
L 183.589211 484.023026 
L 185.261538 483.390943 
L 188.606194 484.411588 
L 190.278521 482.893635 
L 191.950849 484.176956 
L 193.623177 483.926417 
L 195.295504 485.244713 
L 196.967832 484.740114 
L 200.312488 485.42241 
L 201.984815 487.455762 
L 203.657143 487.840857 
L 205.329471 488.489185 
L 207.001798 487.93015 
L 208.674126 488.317619 
L 210.346454 488.27474 
L 212.018781 487.954697 
L 213.691109 488.123007 
L 215.363437 489.309431 
L 217.035764 488.985288 
L 218.708092 488.926019 
L 220.38042 489.230211 
L 222.052747 489.22911 
L 223.725075 489.698331 
L 225.397403 489.192433 
L 227.06973 489.508946 
L 228.742058 489.291986 
L 230.414386 486.715048 
L 232.086713 487.285081 
L 233.759041 488.524456 
L 235.431369 488.107651 
L 237.103696 488.105868 
L 238.776024 487.97684 
L 240.448352 487.648571 
L 242.120679 487.044099 
L 243.793007 486.172579 
L 245.465335 487.95552 
L 247.137662 485.871667 
L 248.80999 485.573436 
L 250.482318 484.016994 
L 252.154645 484.092336 
L 253.826973 481.930348 
L 255.499301 481.946563 
L 257.171628 482.894504 
L 258.843956 481.367908 
L 260.516284 481.494555 
L 262.188611 479.629017 
L 263.860939 479.655591 
L 265.533267 477.977527 
L 267.205594 477.417371 
L 268.877922 476.398434 
L 270.55025 474.507788 
L 272.222577 474.303242 
L 273.894905 473.427099 
L 275.567233 472.003674 
L 278.911888 469.983883 
L 280.584216 469.536843 
L 282.256543 466.608412 
L 283.928871 465.888654 
L 285.601199 464.168806 
L 288.945854 460.150217 
L 290.618182 457.9429 
L 292.290509 457.395993 
L 293.962837 455.669267 
L 295.635165 453.451584 
L 297.307493 452.095499 
L 298.97982 450.557849 
L 300.652148 448.119423 
L 302.324476 446.459492 
L 303.996803 446.125947 
L 305.669131 444.342947 
L 307.341459 443.387802 
L 309.013786 441.536622 
L 310.686114 440.405235 
L 312.358442 438.684413 
L 314.030769 437.752802 
L 315.703097 437.242172 
L 320.72008 434.669689 
L 322.392408 434.458965 
L 324.064735 433.57592 
L 325.737063 432.968488 
L 327.409391 432.614689 
L 329.081718 432.576044 
L 332.426374 431.876284 
L 334.098701 431.765112 
L 335.771029 430.971382 
L 337.443357 430.612093 
L 340.788012 430.508713 
L 342.46034 430.376334 
L 344.132667 430.36955 
L 345.804995 430.53609 
L 347.477323 430.254495 
L 359.183616 429.994658 
L 380.923876 429.995619 
L 605.015784 430.004817 
L 606.688112 430.170446 
L 610.032767 429.995774 
L 611.705095 430.066015 
L 615.04975 429.996547 
L 625.083716 430.05029 
L 626.756044 430.064474 
L 628.428372 429.930622 
L 635.117682 430.154172 
L 636.79001 430.193041 
L 638.462338 430.090969 
L 641.806993 430.114174 
L 643.479321 430.379299 
L 646.823976 430.469874 
L 650.168631 430.239994 
L 653.513287 430.403007 
L 656.857942 430.379338 
L 658.53027 430.81649 
L 660.202597 431.02446 
L 661.874925 431.389884 
L 663.547253 431.6329 
L 666.891908 432.611846 
L 668.564236 433.624012 
L 670.236563 433.338259 
L 671.908891 433.58388 
L 673.581219 434.016797 
L 678.598202 434.538336 
L 681.942857 434.660875 
L 683.615185 435.116747 
L 685.287512 435.454084 
L 686.95984 436.705647 
L 688.632168 437.283853 
L 690.304496 438.305457 
L 691.976823 438.454094 
L 695.321479 439.081393 
L 696.993806 440.102942 
L 698.666134 441.284863 
L 700.338462 442.649672 
L 702.010789 442.982752 
L 703.683117 443.18894 
L 705.355445 443.651265 
L 707.027772 446.233244 
L 708.7001 446.765727 
L 710.372428 446.308364 
L 712.044755 446.278142 
L 713.717083 447.228114 
L 715.389411 448.353511 
L 720.406394 448.75638 
L 722.078721 449.533403 
L 723.751049 449.987349 
L 725.423377 450.957113 
L 728.768032 452.530169 
L 730.44036 452.280433 
L 732.112687 452.201236 
L 733.785015 452.785062 
L 735.457343 452.399309 
L 737.12967 454.136592 
L 738.801998 453.908369 
L 740.474326 455.258554 
L 742.146653 455.579309 
L 743.818981 455.559101 
L 745.491309 456.256442 
L 747.163636 456.797715 
L 747.163636 456.797715 
" style="fill:none;stroke:#1f77b4;stroke-linecap:square;stroke-width:1.5;"/>
   </g>
   <g id="line2d_59">
    <path clip-path="url(#p6d625b7f48)" d="M 138.436364 423.840065 
L 140.108691 421.572395 
L 141.781019 419.52904 
L 143.453347 418.948484 
L 145.125674 422.646036 
L 146.798002 428.40698 
L 150.142657 429.301293 
L 151.814985 428.355694 
L 153.487313 424.572412 
L 155.15964 428.259873 
L 156.831968 426.190221 
L 158.504296 427.164288 
L 160.176623 428.38252 
L 161.848951 430.94585 
L 163.521279 427.994667 
L 165.193606 427.067873 
L 166.865934 432.435767 
L 168.538262 430.348917 
L 170.210589 430.58033 
L 171.882917 428.389799 
L 173.555245 429.745656 
L 175.227572 430.362731 
L 176.8999 433.740947 
L 178.572228 433.840825 
L 180.244555 435.117224 
L 181.916883 434.748699 
L 183.589211 433.549093 
L 185.261538 434.123702 
L 186.933866 430.832712 
L 188.606194 429.688246 
L 190.278521 435.126704 
L 191.950849 434.512722 
L 193.623177 437.926637 
L 195.295504 435.136235 
L 196.967832 435.769758 
L 198.64016 434.836876 
L 200.312488 435.450507 
L 201.984815 433.918318 
L 203.657143 435.713558 
L 205.329471 437.920668 
L 208.674126 437.537592 
L 210.346454 439.14902 
L 212.018781 436.622477 
L 213.691109 440.040587 
L 215.363437 441.684615 
L 217.035764 444.551518 
L 218.708092 442.665411 
L 220.38042 444.838838 
L 222.052747 444.806394 
L 223.725075 445.048056 
L 225.397403 449.383914 
L 227.06973 447.45815 
L 228.742058 449.533939 
L 230.414386 448.975967 
L 232.086713 443.98977 
L 233.759041 447.24018 
L 235.431369 443.924682 
L 237.103696 447.648771 
L 238.776024 449.06676 
L 240.448352 448.19053 
L 242.120679 445.731442 
L 243.793007 441.266814 
L 245.465335 445.412462 
L 247.137662 444.056295 
L 248.80999 446.515193 
L 250.482318 451.918079 
L 252.154645 452.722542 
L 253.826973 451.962545 
L 255.499301 453.453394 
L 257.171628 452.350298 
L 258.843956 455.341166 
L 260.516284 455.410908 
L 262.188611 456.533615 
L 263.860939 452.82875 
L 265.533267 452.523844 
L 267.205594 451.528457 
L 268.877922 452.252168 
L 270.55025 451.460271 
L 272.222577 458.544817 
L 273.894905 458.403461 
L 275.567233 460.116092 
L 277.23956 458.756642 
L 278.911888 458.789869 
L 280.584216 456.655982 
L 282.256543 452.896632 
L 283.928871 453.260827 
L 285.601199 452.127344 
L 287.273526 452.752636 
L 288.945854 450.432968 
L 290.618182 449.279914 
L 292.290509 447.450622 
L 293.962837 449.44839 
L 295.635165 449.380347 
L 297.307493 446.176131 
L 298.97982 447.951008 
L 300.652148 445.358218 
L 302.324476 446.846751 
L 303.996803 446.458949 
L 305.669131 446.73053 
L 307.341459 443.996078 
L 309.013786 442.322865 
L 310.686114 441.709191 
L 312.358442 439.888567 
L 314.030769 440.491973 
L 315.703097 440.955622 
L 319.047752 435.96286 
L 320.72008 436.285471 
L 322.392408 434.978538 
L 324.064735 433.487894 
L 325.737063 434.235534 
L 327.409391 435.390984 
L 329.081718 434.756715 
L 330.754046 435.845344 
L 332.426374 435.450881 
L 334.098701 434.592474 
L 335.771029 432.809963 
L 337.443357 431.513817 
L 339.115684 431.713684 
L 340.788012 431.657135 
L 342.46034 431.223491 
L 344.132667 431.446695 
L 345.804995 431.790131 
L 347.477323 431.069559 
L 349.14965 431.033781 
L 352.494306 430.687535 
L 354.166633 430.375746 
L 355.838961 429.665167 
L 357.511289 429.941847 
L 360.855944 429.953111 
L 362.528272 430.145715 
L 364.200599 429.921408 
L 365.872927 429.421926 
L 367.545255 429.892616 
L 369.217582 429.717367 
L 370.88991 429.900408 
L 372.562238 429.734034 
L 374.234565 430.014278 
L 384.268531 429.995619 
L 399.319481 429.995619 
L 464.54026 429.995619 
L 576.586214 429.995619 
L 578.258541 429.854806 
L 583.275524 429.995619 
L 586.62018 429.995619 
L 588.292507 430.269909 
L 589.964835 429.995619 
L 593.309491 429.970936 
L 594.981818 429.108153 
L 596.654146 429.722501 
L 599.998801 430.004361 
L 603.343457 430.103811 
L 606.688112 429.841788 
L 608.36044 430.04182 
L 610.032767 429.819054 
L 613.377423 429.766616 
L 615.04975 429.947107 
L 616.722078 429.923547 
L 620.066733 430.0237 
L 623.411389 429.507166 
L 625.083716 430.04223 
L 626.756044 430.058641 
L 628.428372 430.195832 
L 630.100699 429.716563 
L 631.773027 428.893126 
L 633.445355 428.377405 
L 635.117682 428.713195 
L 636.79001 428.171106 
L 640.134665 428.954137 
L 641.806993 428.827533 
L 645.151648 428.801537 
L 646.823976 428.692639 
L 648.496304 429.074331 
L 650.168631 428.845352 
L 651.840959 429.530689 
L 653.513287 428.770952 
L 655.185614 427.87271 
L 656.857942 428.225764 
L 658.53027 428.145667 
L 660.202597 426.919206 
L 663.547253 427.005568 
L 665.21958 425.412985 
L 666.891908 424.090614 
L 668.564236 423.121887 
L 670.236563 423.399407 
L 671.908891 422.878848 
L 673.581219 421.421744 
L 675.253546 419.158601 
L 676.925874 418.682014 
L 678.598202 414.721334 
L 680.270529 412.84693 
L 681.942857 409.907044 
L 683.615185 408.692728 
L 685.287512 408.149619 
L 686.95984 401.10942 
L 688.632168 400.097966 
L 690.304496 399.777228 
L 691.976823 397.800689 
L 693.649151 390.73285 
L 695.321479 389.332781 
L 696.993806 384.548762 
L 698.666134 378.539811 
L 700.338462 369.807687 
L 702.010789 365.171557 
L 703.683117 363.434758 
L 705.355445 359.711065 
L 707.027772 356.830328 
L 708.7001 354.496041 
L 710.372428 355.004218 
L 712.044755 356.640314 
L 713.717083 352.615371 
L 715.389411 350.13644 
L 717.061738 348.838411 
L 718.734066 346.189379 
L 720.406394 346.446429 
L 722.078721 345.534095 
L 723.751049 345.543001 
L 725.423377 343.074138 
L 727.095704 338.49055 
L 730.44036 335.009131 
L 732.112687 337.77449 
L 733.785015 334.683744 
L 735.457343 333.347349 
L 737.12967 336.860246 
L 738.801998 336.808665 
L 740.474326 334.711074 
L 742.146653 333.1839 
L 743.818981 328.382875 
L 745.491309 327.213223 
L 747.163636 327.640336 
L 747.163636 327.640336 
" style="fill:none;stroke:#ff7f0e;stroke-linecap:square;stroke-width:1.5;"/>
   </g>
   <g id="line2d_60">
    <path clip-path="url(#p6d625b7f48)" d="M 138.436364 481.156491 
L 140.108691 483.230676 
L 141.781019 484.395466 
L 143.453347 486.321101 
L 145.125674 491.549523 
L 146.798002 489.984726 
L 148.47033 489.214443 
L 150.142657 486.616759 
L 151.814985 486.316923 
L 153.487313 485.514758 
L 155.15964 484.573336 
L 156.831968 484.167304 
L 158.504296 482.830176 
L 160.176623 487.142425 
L 161.848951 487.646218 
L 163.521279 489.92727 
L 165.193606 489.422379 
L 166.865934 482.989072 
L 168.538262 471.017048 
L 170.210589 469.146904 
L 171.882917 469.929011 
L 173.555245 464.042432 
L 175.227572 471.550044 
L 176.8999 472.451124 
L 178.572228 471.296281 
L 180.244555 471.480732 
L 181.916883 472.544791 
L 183.589211 475.365159 
L 185.261538 469.920357 
L 186.933866 468.578934 
L 188.606194 466.708895 
L 190.278521 475.164833 
L 191.950849 471.964026 
L 193.623177 475.035648 
L 195.295504 472.625757 
L 196.967832 469.964576 
L 198.64016 471.508557 
L 200.312488 471.019494 
L 201.984815 465.265954 
L 203.657143 468.594834 
L 205.329471 462.51126 
L 207.001798 463.530242 
L 208.674126 459.934571 
L 210.346454 462.059855 
L 212.018781 455.120512 
L 213.691109 460.83957 
L 215.363437 454.6612 
L 217.035764 451.092573 
L 218.708092 444.826732 
L 220.38042 434.492431 
L 222.052747 432.363486 
L 223.725075 430.882677 
L 225.397403 428.1646 
L 227.06973 426.166078 
L 228.742058 424.887391 
L 230.414386 425.684746 
L 232.086713 421.617046 
L 233.759041 419.830936 
L 235.431369 417.639439 
L 237.103696 415.071308 
L 238.776024 413.115174 
L 240.448352 409.385175 
L 242.120679 406.352222 
L 243.793007 407.584372 
L 245.465335 402.353399 
L 247.137662 405.669454 
L 248.80999 397.67106 
L 250.482318 395.784908 
L 252.154645 389.608574 
L 253.826973 388.863533 
L 255.499301 383.530749 
L 257.171628 377.621813 
L 258.843956 374.864546 
L 260.516284 374.368314 
L 262.188611 371.552903 
L 263.860939 370.724811 
L 265.533267 366.86633 
L 267.205594 365.024745 
L 268.877922 367.669558 
L 270.55025 362.957983 
L 272.222577 361.017568 
L 273.894905 358.096392 
L 275.567233 357.716695 
L 277.23956 356.851681 
L 278.911888 357.518646 
L 280.584216 355.126277 
L 282.256543 357.489146 
L 283.928871 358.742622 
L 285.601199 357.623597 
L 287.273526 361.050351 
L 288.945854 361.131085 
L 290.618182 366.786971 
L 292.290509 363.964536 
L 293.962837 365.331606 
L 297.307493 372.614052 
L 298.97982 373.242342 
L 300.652148 379.929426 
L 302.324476 381.742649 
L 303.996803 383.173748 
L 305.669131 386.107766 
L 309.013786 397.268085 
L 310.686114 397.081339 
L 312.358442 401.679278 
L 314.030769 402.983452 
L 315.703097 405.781233 
L 317.375425 408.181243 
L 319.047752 409.507354 
L 320.72008 412.117159 
L 322.392408 410.834852 
L 324.064735 413.85725 
L 325.737063 416.308984 
L 327.409391 418.243462 
L 329.081718 418.200393 
L 330.754046 419.237013 
L 334.098701 420.908057 
L 335.771029 424.210125 
L 337.443357 425.783584 
L 342.46034 427.756867 
L 344.132667 427.418724 
L 345.804995 427.393014 
L 347.477323 428.33001 
L 350.821978 429.074047 
L 352.494306 428.899182 
L 355.838961 429.874836 
L 357.511289 430.092317 
L 362.528272 429.910567 
L 364.200599 429.923895 
L 365.872927 429.538844 
L 367.545255 429.914171 
L 369.217582 429.673296 
L 370.88991 429.897983 
L 372.562238 430.627548 
L 374.234565 430.021896 
L 382.596204 429.995619 
L 568.224575 429.995619 
L 569.896903 430.237664 
L 571.569231 430.083599 
L 578.258541 430.019172 
L 579.930869 429.870263 
L 583.275524 429.995619 
L 596.654146 429.914461 
L 598.326474 429.872461 
L 599.998801 429.99524 
L 601.671129 430.361238 
L 603.343457 430.116043 
L 605.015784 430.022387 
L 606.688112 429.731566 
L 608.36044 429.999503 
L 610.032767 429.852516 
L 611.705095 430.031221 
L 613.377423 430.05355 
L 615.04975 429.934841 
L 618.394406 429.906908 
L 621.739061 429.611905 
L 623.411389 430.176743 
L 625.083716 430.979969 
L 626.756044 431.593696 
L 628.428372 430.586961 
L 630.100699 429.853345 
L 631.773027 429.426794 
L 633.445355 429.561807 
L 635.117682 429.548505 
L 636.79001 429.291061 
L 638.462338 429.277753 
L 640.134665 430.141573 
L 641.806993 430.354903 
L 645.151648 430.233494 
L 646.823976 429.393912 
L 648.496304 430.165723 
L 650.168631 429.811703 
L 651.840959 429.141356 
L 653.513287 427.721701 
L 655.185614 428.809025 
L 656.857942 428.81853 
L 658.53027 429.711845 
L 660.202597 429.705556 
L 661.874925 428.402232 
L 663.547253 427.555556 
L 665.21958 425.68828 
L 668.564236 422.396691 
L 671.908891 425.698542 
L 673.581219 422.672041 
L 675.253546 420.95103 
L 676.925874 419.817863 
L 678.598202 419.362447 
L 680.270529 418.172005 
L 681.942857 419.676611 
L 683.615185 420.095593 
L 685.287512 419.715736 
L 686.95984 416.922073 
L 688.632168 417.995337 
L 690.304496 418.062297 
L 691.976823 417.332578 
L 693.649151 417.230709 
L 695.321479 415.637265 
L 696.993806 417.856785 
L 698.666134 415.674036 
L 700.338462 414.800325 
L 702.010789 415.122492 
L 703.683117 413.865316 
L 705.355445 414.005645 
L 707.027772 414.554891 
L 708.7001 417.26007 
L 712.044755 411.456673 
L 713.717083 410.871925 
L 715.389411 408.892757 
L 718.734066 407.60909 
L 720.406394 409.054173 
L 722.078721 411.159435 
L 723.751049 412.916202 
L 725.423377 412.439389 
L 727.095704 413.385994 
L 728.768032 410.580434 
L 730.44036 408.317957 
L 732.112687 409.924283 
L 733.785015 409.898527 
L 735.457343 411.883403 
L 737.12967 411.91817 
L 738.801998 411.705878 
L 740.474326 410.631885 
L 742.146653 410.726639 
L 743.818981 409.818251 
L 745.491309 408.393671 
L 747.163636 412.623142 
L 747.163636 412.623142 
" style="fill:none;stroke:#2ca02c;stroke-linecap:square;stroke-width:1.5;"/>
   </g>
   <g id="line2d_61">
    <path clip-path="url(#p6d625b7f48)" d="M 138.436364 482.908392 
L 140.108691 486.303226 
L 141.781019 483.216633 
L 145.125674 487.774784 
L 146.798002 486.57252 
L 148.47033 487.657642 
L 150.142657 486.427632 
L 151.814985 489.726054 
L 153.487313 493.30794 
L 155.15964 486.714243 
L 156.831968 485.966554 
L 158.504296 481.852014 
L 160.176623 475.487969 
L 161.848951 465.729266 
L 163.521279 471.744683 
L 165.193606 462.70531 
L 166.865934 463.437221 
L 168.538262 464.387802 
L 170.210589 455.478558 
L 171.882917 455.359768 
L 173.555245 446.949743 
L 175.227572 456.746919 
L 176.8999 457.473871 
L 178.572228 453.97962 
L 180.244555 459.468655 
L 181.916883 451.554491 
L 183.589211 449.559596 
L 185.261538 449.274558 
L 186.933866 440.573514 
L 188.606194 447.001155 
L 190.278521 460.596152 
L 191.950849 460.546622 
L 193.623177 461.729192 
L 195.295504 459.544965 
L 196.967832 455.315833 
L 198.64016 428.451094 
L 200.312488 420.612196 
L 201.984815 420.684795 
L 203.657143 414.834859 
L 205.329471 407.79082 
L 207.001798 397.05701 
L 208.674126 394.316145 
L 210.346454 407.590364 
L 213.691109 393.329996 
L 215.363437 397.783502 
L 217.035764 386.239127 
L 218.708092 385.678192 
L 220.38042 376.262999 
L 222.052747 377.20827 
L 223.725075 378.46676 
L 225.397403 372.630205 
L 227.06973 372.617281 
L 228.742058 365.485249 
L 230.414386 367.19184 
L 232.086713 364.308519 
L 233.759041 365.245243 
L 235.431369 369.21398 
L 237.103696 367.359342 
L 238.776024 367.356966 
L 240.448352 367.861676 
L 242.120679 368.618322 
L 243.793007 368.68199 
L 245.465335 374.787247 
L 247.137662 371.759691 
L 248.80999 376.897007 
L 250.482318 379.691907 
L 252.154645 382.100987 
L 253.826973 378.38055 
L 255.499301 378.898297 
L 257.171628 385.317009 
L 258.843956 391.250789 
L 260.516284 390.577525 
L 262.188611 399.953499 
L 263.860939 407.329368 
L 265.533267 413.101031 
L 267.205594 420.014116 
L 268.877922 424.728376 
L 270.55025 428.597354 
L 272.222577 463.873506 
L 273.894905 472.371858 
L 275.567233 477.537695 
L 277.23956 479.255406 
L 278.911888 483.74308 
L 280.584216 484.987441 
L 282.256543 482.12509 
L 283.928871 495.724146 
L 285.601199 495.473871 
L 287.273526 496.628702 
L 288.945854 500.115496 
L 290.618182 498.190307 
L 292.290509 509.295868 
L 293.962837 505.588229 
L 295.635165 502.344301 
L 297.307493 504.395983 
L 300.652148 498.789156 
L 302.324476 495.314431 
L 303.996803 499.318863 
L 305.669131 493.961182 
L 307.341459 489.509301 
L 309.013786 480.97329 
L 310.686114 476.734519 
L 312.358442 470.489459 
L 314.030769 465.043623 
L 315.703097 463.47932 
L 317.375425 460.509961 
L 319.047752 455.972899 
L 320.72008 450.025211 
L 322.392408 451.762203 
L 324.064735 447.341831 
L 325.737063 444.29866 
L 327.409391 443.827422 
L 329.081718 444.341996 
L 332.426374 440.444357 
L 334.098701 439.637678 
L 335.771029 435.325309 
L 337.443357 433.901065 
L 339.115684 433.893469 
L 340.788012 433.181887 
L 342.46034 432.05646 
L 344.132667 432.020385 
L 345.804995 431.81307 
L 347.477323 432.053774 
L 350.821978 431.424164 
L 352.494306 431.314429 
L 354.166633 430.523423 
L 355.838961 430.030505 
L 357.511289 429.931896 
L 360.855944 430.035688 
L 362.528272 429.325685 
L 364.200599 430.027679 
L 365.872927 430.223598 
L 367.545255 430.063133 
L 369.217582 430.207788 
L 370.88991 430.044036 
L 372.562238 430.257606 
L 374.234565 429.947958 
L 379.251548 429.995619 
L 568.224575 429.995619 
L 569.896903 430.191857 
L 573.241558 429.90997 
L 576.586214 429.995619 
L 581.603197 430.019677 
L 591.637163 429.958614 
L 593.309491 430.024294 
L 594.981818 430.290133 
L 596.654146 429.968444 
L 599.998801 430.018044 
L 605.015784 430.045831 
L 606.688112 429.754239 
L 608.36044 430.063377 
L 610.032767 429.750105 
L 611.705095 429.64394 
L 615.04975 429.870469 
L 616.722078 429.989263 
L 618.394406 429.916338 
L 620.066733 430.143854 
L 621.739061 429.889916 
L 623.411389 429.884505 
L 625.083716 430.174418 
L 626.756044 430.29706 
L 631.773027 429.769098 
L 633.445355 429.893263 
L 635.117682 429.895875 
L 636.79001 430.742239 
L 638.462338 430.134135 
L 640.134665 430.518648 
L 641.806993 430.731575 
L 643.479321 430.143381 
L 645.151648 429.737961 
L 646.823976 430.397369 
L 648.496304 430.825087 
L 650.168631 430.308771 
L 651.840959 429.538302 
L 653.513287 427.585099 
L 656.857942 430.859758 
L 658.53027 428.984628 
L 660.202597 426.487847 
L 661.874925 425.802657 
L 663.547253 427.435552 
L 665.21958 425.944612 
L 666.891908 424.633052 
L 668.564236 427.344571 
L 670.236563 427.213622 
L 671.908891 428.044135 
L 673.581219 429.606069 
L 675.253546 428.538409 
L 676.925874 431.499078 
L 678.598202 430.055741 
L 680.270529 430.760901 
L 681.942857 430.000927 
L 683.615185 429.837823 
L 685.287512 429.240485 
L 686.95984 426.471378 
L 690.304496 431.881725 
L 691.976823 432.649804 
L 693.649151 431.056132 
L 695.321479 432.064124 
L 696.993806 431.236533 
L 698.666134 433.753184 
L 700.338462 432.490398 
L 702.010789 431.383584 
L 703.683117 428.488127 
L 705.355445 434.334001 
L 707.027772 435.4526 
L 710.372428 431.313184 
L 712.044755 432.018017 
L 713.717083 433.03089 
L 715.389411 435.629002 
L 717.061738 434.903287 
L 720.406394 432.640229 
L 722.078721 432.372318 
L 723.751049 426.374361 
L 725.423377 423.813923 
L 727.095704 424.003829 
L 728.768032 424.469046 
L 730.44036 425.65525 
L 732.112687 426.300511 
L 733.785015 430.409166 
L 735.457343 429.32025 
L 737.12967 431.367198 
L 738.801998 424.619172 
L 740.474326 428.233549 
L 742.146653 427.109144 
L 743.818981 425.602971 
L 745.491309 426.752178 
L 747.163636 433.080596 
L 747.163636 433.080596 
" style="fill:none;stroke:#d62728;stroke-linecap:square;stroke-width:1.5;"/>
   </g>
   <g id="patch_9">
    <path d="M 108 518.4 
L 108 318.109091 
" style="fill:none;stroke:#000000;stroke-linecap:square;stroke-linejoin:miter;stroke-width:0.8;"/>
   </g>
   <g id="patch_10">
    <path d="M 777.6 518.4 
L 777.6 318.109091 
" style="fill:none;stroke:#000000;stroke-linecap:square;stroke-linejoin:miter;stroke-width:0.8;"/>
   </g>
   <g id="patch_11">
    <path d="M 108 518.4 
L 777.6 518.4 
" style="fill:none;stroke:#000000;stroke-linecap:square;stroke-linejoin:miter;stroke-width:0.8;"/>
   </g>
   <g id="patch_12">
    <path d="M 108 318.109091 
L 777.6 318.109091 
" style="fill:none;stroke:#000000;stroke-linecap:square;stroke-linejoin:miter;stroke-width:0.8;"/>
   </g>
   <g id="text_25">
    <!-- SNWD Eigs -->
    <defs>
     <path d="M 9.8125 72.90625 
L 55.90625 72.90625 
L 55.90625 64.59375 
L 19.671875 64.59375 
L 19.671875 43.015625 
L 54.390625 43.015625 
L 54.390625 34.71875 
L 19.671875 34.71875 
L 19.671875 8.296875 
L 56.78125 8.296875 
L 56.78125 0 
L 9.8125 0 
z
" id="DejaVuSans-45"/>
     <path d="M 9.421875 54.6875 
L 18.40625 54.6875 
L 18.40625 0 
L 9.421875 0 
z
M 9.421875 75.984375 
L 18.40625 75.984375 
L 18.40625 64.59375 
L 9.421875 64.59375 
z
" id="DejaVuSans-69"/>
     <path d="M 45.40625 27.984375 
Q 45.40625 37.75 41.375 43.109375 
Q 37.359375 48.484375 30.078125 48.484375 
Q 22.859375 48.484375 18.828125 43.109375 
Q 14.796875 37.75 14.796875 27.984375 
Q 14.796875 18.265625 18.828125 12.890625 
Q 22.859375 7.515625 30.078125 7.515625 
Q 37.359375 7.515625 41.375 12.890625 
Q 45.40625 18.265625 45.40625 27.984375 
M 54.390625 6.78125 
Q 54.390625 -7.171875 48.1875 -13.984375 
Q 42 -20.796875 29.203125 -20.796875 
Q 24.46875 -20.796875 20.265625 -20.09375 
Q 16.0625 -19.390625 12.109375 -17.921875 
L 12.109375 -9.1875 
Q 16.0625 -11.328125 19.921875 -12.34375 
Q 23.78125 -13.375 27.78125 -13.375 
Q 36.625 -13.375 41.015625 -8.765625 
Q 45.40625 -4.15625 45.40625 5.171875 
L 45.40625 9.625 
Q 42.625 4.78125 38.28125 2.390625 
Q 33.9375 0 27.875 0 
Q 17.828125 0 11.671875 7.65625 
Q 5.515625 15.328125 5.515625 27.984375 
Q 5.515625 40.671875 11.671875 48.328125 
Q 17.828125 56 27.875 56 
Q 33.9375 56 38.28125 53.609375 
Q 42.625 51.21875 45.40625 46.390625 
L 45.40625 54.6875 
L 54.390625 54.6875 
z
" id="DejaVuSans-67"/>
     <path d="M 44.28125 53.078125 
L 44.28125 44.578125 
Q 40.484375 46.53125 36.375 47.5 
Q 32.28125 48.484375 27.875 48.484375 
Q 21.1875 48.484375 17.84375 46.4375 
Q 14.5 44.390625 14.5 40.28125 
Q 14.5 37.15625 16.890625 35.375 
Q 19.28125 33.59375 26.515625 31.984375 
L 29.59375 31.296875 
Q 39.15625 29.25 43.1875 25.515625 
Q 47.21875 21.78125 47.21875 15.09375 
Q 47.21875 7.46875 41.1875 3.015625 
Q 35.15625 -1.421875 24.609375 -1.421875 
Q 20.21875 -1.421875 15.453125 -0.5625 
Q 10.6875 0.296875 5.421875 2 
L 5.421875 11.28125 
Q 10.40625 8.6875 15.234375 7.390625 
Q 20.0625 6.109375 24.8125 6.109375 
Q 31.15625 6.109375 34.5625 8.28125 
Q 37.984375 10.453125 37.984375 14.40625 
Q 37.984375 18.0625 35.515625 20.015625 
Q 33.0625 21.96875 24.703125 23.78125 
L 21.578125 24.515625 
Q 13.234375 26.265625 9.515625 29.90625 
Q 5.8125 33.546875 5.8125 39.890625 
Q 5.8125 47.609375 11.28125 51.796875 
Q 16.75 56 26.8125 56 
Q 31.78125 56 36.171875 55.265625 
Q 40.578125 54.546875 44.28125 53.078125 
" id="DejaVuSans-73"/>
    </defs>
    <g transform="translate(409.65 312.109091)scale(0.12 -0.12)">
     <use xlink:href="#DejaVuSans-53"/>
     <use x="63.476562" xlink:href="#DejaVuSans-4e"/>
     <use x="138.28125" xlink:href="#DejaVuSans-57"/>
     <use x="237.158203" xlink:href="#DejaVuSans-44"/>
     <use x="314.160156" xlink:href="#DejaVuSans-20"/>
     <use x="345.947266" xlink:href="#DejaVuSans-45"/>
     <use x="409.130859" xlink:href="#DejaVuSans-69"/>
     <use x="436.914062" xlink:href="#DejaVuSans-67"/>
     <use x="500.390625" xlink:href="#DejaVuSans-73"/>
    </g>
   </g>
   <g id="legend_2">
    <g id="patch_13">
     <path d="M 115 384.821591 
L 168.642188 384.821591 
Q 170.642188 384.821591 170.642188 382.821591 
L 170.642188 325.109091 
Q 170.642188 323.109091 168.642188 323.109091 
L 115 323.109091 
Q 113 323.109091 113 325.109091 
L 113 382.821591 
Q 113 384.821591 115 384.821591 
z
" style="fill:#ffffff;opacity:0.8;stroke:#cccccc;stroke-linejoin:miter;"/>
    </g>
    <g id="line2d_62">
     <path d="M 117 331.207528 
L 137 331.207528 
" style="fill:none;stroke:#1f77b4;stroke-linecap:square;stroke-width:1.5;"/>
    </g>
    <g id="line2d_63"/>
    <g id="text_26">
     <!-- eig1 -->
     <g transform="translate(145 334.707528)scale(0.1 -0.1)">
      <use xlink:href="#DejaVuSans-65"/>
      <use x="61.523438" xlink:href="#DejaVuSans-69"/>
      <use x="89.306641" xlink:href="#DejaVuSans-67"/>
      <use x="152.783203" xlink:href="#DejaVuSans-31"/>
     </g>
    </g>
    <g id="line2d_64">
     <path d="M 117 345.885653 
L 137 345.885653 
" style="fill:none;stroke:#ff7f0e;stroke-linecap:square;stroke-width:1.5;"/>
    </g>
    <g id="line2d_65"/>
    <g id="text_27">
     <!-- eig2 -->
     <g transform="translate(145 349.385653)scale(0.1 -0.1)">
      <use xlink:href="#DejaVuSans-65"/>
      <use x="61.523438" xlink:href="#DejaVuSans-69"/>
      <use x="89.306641" xlink:href="#DejaVuSans-67"/>
      <use x="152.783203" xlink:href="#DejaVuSans-32"/>
     </g>
    </g>
    <g id="line2d_66">
     <path d="M 117 360.563778 
L 137 360.563778 
" style="fill:none;stroke:#2ca02c;stroke-linecap:square;stroke-width:1.5;"/>
    </g>
    <g id="line2d_67"/>
    <g id="text_28">
     <!-- eig3 -->
     <defs>
      <path d="M 40.578125 39.3125 
Q 47.65625 37.796875 51.625 33 
Q 55.609375 28.21875 55.609375 21.1875 
Q 55.609375 10.40625 48.1875 4.484375 
Q 40.765625 -1.421875 27.09375 -1.421875 
Q 22.515625 -1.421875 17.65625 -0.515625 
Q 12.796875 0.390625 7.625 2.203125 
L 7.625 11.71875 
Q 11.71875 9.328125 16.59375 8.109375 
Q 21.484375 6.890625 26.8125 6.890625 
Q 36.078125 6.890625 40.9375 10.546875 
Q 45.796875 14.203125 45.796875 21.1875 
Q 45.796875 27.640625 41.28125 31.265625 
Q 36.765625 34.90625 28.71875 34.90625 
L 20.21875 34.90625 
L 20.21875 43.015625 
L 29.109375 43.015625 
Q 36.375 43.015625 40.234375 45.921875 
Q 44.09375 48.828125 44.09375 54.296875 
Q 44.09375 59.90625 40.109375 62.90625 
Q 36.140625 65.921875 28.71875 65.921875 
Q 24.65625 65.921875 20.015625 65.03125 
Q 15.375 64.15625 9.8125 62.3125 
L 9.8125 71.09375 
Q 15.4375 72.65625 20.34375 73.4375 
Q 25.25 74.21875 29.59375 74.21875 
Q 40.828125 74.21875 47.359375 69.109375 
Q 53.90625 64.015625 53.90625 55.328125 
Q 53.90625 49.265625 50.4375 45.09375 
Q 46.96875 40.921875 40.578125 39.3125 
" id="DejaVuSans-33"/>
     </defs>
     <g transform="translate(145 364.063778)scale(0.1 -0.1)">
      <use xlink:href="#DejaVuSans-65"/>
      <use x="61.523438" xlink:href="#DejaVuSans-69"/>
      <use x="89.306641" xlink:href="#DejaVuSans-67"/>
      <use x="152.783203" xlink:href="#DejaVuSans-33"/>
     </g>
    </g>
    <g id="line2d_68">
     <path d="M 117 375.241903 
L 137 375.241903 
" style="fill:none;stroke:#d62728;stroke-linecap:square;stroke-width:1.5;"/>
    </g>
    <g id="line2d_69"/>
    <g id="text_29">
     <!-- eig4 -->
     <defs>
      <path d="M 37.796875 64.3125 
L 12.890625 25.390625 
L 37.796875 25.390625 
z
M 35.203125 72.90625 
L 47.609375 72.90625 
L 47.609375 25.390625 
L 58.015625 25.390625 
L 58.015625 17.1875 
L 47.609375 17.1875 
L 47.609375 0 
L 37.796875 0 
L 37.796875 17.1875 
L 4.890625 17.1875 
L 4.890625 26.703125 
z
" id="DejaVuSans-34"/>
     </defs>
     <g transform="translate(145 378.741903)scale(0.1 -0.1)">
      <use xlink:href="#DejaVuSans-65"/>
      <use x="61.523438" xlink:href="#DejaVuSans-69"/>
      <use x="89.306641" xlink:href="#DejaVuSans-67"/>
      <use x="152.783203" xlink:href="#DejaVuSans-34"/>
     </g>
    </g>
   </g>
  </g>
 </g>
 <defs>
  <clipPath id="pbd5c64cd1f">
   <rect height="200.290909" width="669.6" x="108" y="77.76"/>
  </clipPath>
  <clipPath id="p6d625b7f48">
   <rect height="200.290909" width="669.6" x="108" y="318.109091"/>
  </clipPath>
 </defs>
</svg>
