<?xml version="1.0" encoding="utf-8" standalone="no"?>
<!DOCTYPE svg PUBLIC "-//W3C//DTD SVG 1.1//EN"
  "http://www.w3.org/Graphics/SVG/1.1/DTD/svg11.dtd">
<!-- Created with matplotlib (http://matplotlib.org/) -->
<svg height="360pt" version="1.1" viewBox="0 0 1440 360" width="1440pt" xmlns="http://www.w3.org/2000/svg" xmlns:xlink="http://www.w3.org/1999/xlink">
 <defs>
  <style type="text/css">
*{stroke-linecap:butt;stroke-linejoin:round;}
  </style>
 </defs>
 <g id="figure_1">
  <g id="patch_1">
   <path d="M 0 360 
L 1440 360 
L 1440 0 
L 0 0 
z
" style="fill:#ffffff;"/>
  </g>
  <g id="axes_1">
   <g id="patch_2">
    <path d="M 180 166.745455 
L 687.272727 166.745455 
L 687.272727 43.2 
L 180 43.2 
z
" style="fill:#ffffff;"/>
   </g>
   <g id="matplotlib.axis_1">
    <g id="xtick_1">
     <g id="line2d_1">
      <path clip-path="url(#p0a120b9a1a)" d="M 203.057851 166.745455 
L 203.057851 43.2 
" style="fill:none;stroke:#b0b0b0;stroke-linecap:square;stroke-width:0.8;"/>
     </g>
     <g id="line2d_2">
      <defs>
       <path d="M 0 0 
L 0 3.5 
" id="mc07e1a72b6" style="stroke:#000000;stroke-width:0.8;"/>
      </defs>
      <g>
       <use style="stroke:#000000;stroke-width:0.8;" x="203.057851" xlink:href="#mc07e1a72b6" y="166.745455"/>
      </g>
     </g>
     <g id="text_1">
      <!-- 0 -->
      <defs>
       <path d="M 31.78125 66.40625 
Q 24.171875 66.40625 20.328125 58.90625 
Q 16.5 51.421875 16.5 36.375 
Q 16.5 21.390625 20.328125 13.890625 
Q 24.171875 6.390625 31.78125 6.390625 
Q 39.453125 6.390625 43.28125 13.890625 
Q 47.125 21.390625 47.125 36.375 
Q 47.125 51.421875 43.28125 58.90625 
Q 39.453125 66.40625 31.78125 66.40625 
M 31.78125 74.21875 
Q 44.046875 74.21875 50.515625 64.515625 
Q 56.984375 54.828125 56.984375 36.375 
Q 56.984375 17.96875 50.515625 8.265625 
Q 44.046875 -1.421875 31.78125 -1.421875 
Q 19.53125 -1.421875 13.0625 8.265625 
Q 6.59375 17.96875 6.59375 36.375 
Q 6.59375 54.828125 13.0625 64.515625 
Q 19.53125 74.21875 31.78125 74.21875 
" id="DejaVuSans-30"/>
      </defs>
      <g transform="translate(199.876601 181.343892)scale(0.1 -0.1)">
       <use xlink:href="#DejaVuSans-30"/>
      </g>
     </g>
    </g>
    <g id="xtick_2">
     <g id="line2d_3">
      <path clip-path="url(#p0a120b9a1a)" d="M 265.376368 166.745455 
L 265.376368 43.2 
" style="fill:none;stroke:#b0b0b0;stroke-linecap:square;stroke-width:0.8;"/>
     </g>
     <g id="line2d_4">
      <g>
       <use style="stroke:#000000;stroke-width:0.8;" x="265.376368" xlink:href="#mc07e1a72b6" y="166.745455"/>
      </g>
     </g>
     <g id="text_2">
      <!-- 10 -->
      <defs>
       <path d="M 12.40625 8.296875 
L 28.515625 8.296875 
L 28.515625 63.921875 
L 10.984375 60.40625 
L 10.984375 69.390625 
L 28.421875 72.90625 
L 38.28125 72.90625 
L 38.28125 8.296875 
L 54.390625 8.296875 
L 54.390625 0 
L 12.40625 0 
z
" id="DejaVuSans-31"/>
      </defs>
      <g transform="translate(259.013868 181.343892)scale(0.1 -0.1)">
       <use xlink:href="#DejaVuSans-31"/>
       <use x="63.623047" xlink:href="#DejaVuSans-30"/>
      </g>
     </g>
    </g>
    <g id="xtick_3">
     <g id="line2d_5">
      <path clip-path="url(#p0a120b9a1a)" d="M 327.694885 166.745455 
L 327.694885 43.2 
" style="fill:none;stroke:#b0b0b0;stroke-linecap:square;stroke-width:0.8;"/>
     </g>
     <g id="line2d_6">
      <g>
       <use style="stroke:#000000;stroke-width:0.8;" x="327.694885" xlink:href="#mc07e1a72b6" y="166.745455"/>
      </g>
     </g>
     <g id="text_3">
      <!-- 20 -->
      <defs>
       <path d="M 19.1875 8.296875 
L 53.609375 8.296875 
L 53.609375 0 
L 7.328125 0 
L 7.328125 8.296875 
Q 12.9375 14.109375 22.625 23.890625 
Q 32.328125 33.6875 34.8125 36.53125 
Q 39.546875 41.84375 41.421875 45.53125 
Q 43.3125 49.21875 43.3125 52.78125 
Q 43.3125 58.59375 39.234375 62.25 
Q 35.15625 65.921875 28.609375 65.921875 
Q 23.96875 65.921875 18.8125 64.3125 
Q 13.671875 62.703125 7.8125 59.421875 
L 7.8125 69.390625 
Q 13.765625 71.78125 18.9375 73 
Q 24.125 74.21875 28.421875 74.21875 
Q 39.75 74.21875 46.484375 68.546875 
Q 53.21875 62.890625 53.21875 53.421875 
Q 53.21875 48.921875 51.53125 44.890625 
Q 49.859375 40.875 45.40625 35.40625 
Q 44.1875 33.984375 37.640625 27.21875 
Q 31.109375 20.453125 19.1875 8.296875 
" id="DejaVuSans-32"/>
      </defs>
      <g transform="translate(321.332385 181.343892)scale(0.1 -0.1)">
       <use xlink:href="#DejaVuSans-32"/>
       <use x="63.623047" xlink:href="#DejaVuSans-30"/>
      </g>
     </g>
    </g>
    <g id="xtick_4">
     <g id="line2d_7">
      <path clip-path="url(#p0a120b9a1a)" d="M 390.013402 166.745455 
L 390.013402 43.2 
" style="fill:none;stroke:#b0b0b0;stroke-linecap:square;stroke-width:0.8;"/>
     </g>
     <g id="line2d_8">
      <g>
       <use style="stroke:#000000;stroke-width:0.8;" x="390.013402" xlink:href="#mc07e1a72b6" y="166.745455"/>
      </g>
     </g>
     <g id="text_4">
      <!-- 30 -->
      <defs>
       <path d="M 40.578125 39.3125 
Q 47.65625 37.796875 51.625 33 
Q 55.609375 28.21875 55.609375 21.1875 
Q 55.609375 10.40625 48.1875 4.484375 
Q 40.765625 -1.421875 27.09375 -1.421875 
Q 22.515625 -1.421875 17.65625 -0.515625 
Q 12.796875 0.390625 7.625 2.203125 
L 7.625 11.71875 
Q 11.71875 9.328125 16.59375 8.109375 
Q 21.484375 6.890625 26.8125 6.890625 
Q 36.078125 6.890625 40.9375 10.546875 
Q 45.796875 14.203125 45.796875 21.1875 
Q 45.796875 27.640625 41.28125 31.265625 
Q 36.765625 34.90625 28.71875 34.90625 
L 20.21875 34.90625 
L 20.21875 43.015625 
L 29.109375 43.015625 
Q 36.375 43.015625 40.234375 45.921875 
Q 44.09375 48.828125 44.09375 54.296875 
Q 44.09375 59.90625 40.109375 62.90625 
Q 36.140625 65.921875 28.71875 65.921875 
Q 24.65625 65.921875 20.015625 65.03125 
Q 15.375 64.15625 9.8125 62.3125 
L 9.8125 71.09375 
Q 15.4375 72.65625 20.34375 73.4375 
Q 25.25 74.21875 29.59375 74.21875 
Q 40.828125 74.21875 47.359375 69.109375 
Q 53.90625 64.015625 53.90625 55.328125 
Q 53.90625 49.265625 50.4375 45.09375 
Q 46.96875 40.921875 40.578125 39.3125 
" id="DejaVuSans-33"/>
      </defs>
      <g transform="translate(383.650902 181.343892)scale(0.1 -0.1)">
       <use xlink:href="#DejaVuSans-33"/>
       <use x="63.623047" xlink:href="#DejaVuSans-30"/>
      </g>
     </g>
    </g>
    <g id="xtick_5">
     <g id="line2d_9">
      <path clip-path="url(#p0a120b9a1a)" d="M 452.331919 166.745455 
L 452.331919 43.2 
" style="fill:none;stroke:#b0b0b0;stroke-linecap:square;stroke-width:0.8;"/>
     </g>
     <g id="line2d_10">
      <g>
       <use style="stroke:#000000;stroke-width:0.8;" x="452.331919" xlink:href="#mc07e1a72b6" y="166.745455"/>
      </g>
     </g>
     <g id="text_5">
      <!-- 40 -->
      <defs>
       <path d="M 37.796875 64.3125 
L 12.890625 25.390625 
L 37.796875 25.390625 
z
M 35.203125 72.90625 
L 47.609375 72.90625 
L 47.609375 25.390625 
L 58.015625 25.390625 
L 58.015625 17.1875 
L 47.609375 17.1875 
L 47.609375 0 
L 37.796875 0 
L 37.796875 17.1875 
L 4.890625 17.1875 
L 4.890625 26.703125 
z
" id="DejaVuSans-34"/>
      </defs>
      <g transform="translate(445.969419 181.343892)scale(0.1 -0.1)">
       <use xlink:href="#DejaVuSans-34"/>
       <use x="63.623047" xlink:href="#DejaVuSans-30"/>
      </g>
     </g>
    </g>
    <g id="xtick_6">
     <g id="line2d_11">
      <path clip-path="url(#p0a120b9a1a)" d="M 514.650436 166.745455 
L 514.650436 43.2 
" style="fill:none;stroke:#b0b0b0;stroke-linecap:square;stroke-width:0.8;"/>
     </g>
     <g id="line2d_12">
      <g>
       <use style="stroke:#000000;stroke-width:0.8;" x="514.650436" xlink:href="#mc07e1a72b6" y="166.745455"/>
      </g>
     </g>
     <g id="text_6">
      <!-- 50 -->
      <defs>
       <path d="M 10.796875 72.90625 
L 49.515625 72.90625 
L 49.515625 64.59375 
L 19.828125 64.59375 
L 19.828125 46.734375 
Q 21.96875 47.46875 24.109375 47.828125 
Q 26.265625 48.1875 28.421875 48.1875 
Q 40.625 48.1875 47.75 41.5 
Q 54.890625 34.8125 54.890625 23.390625 
Q 54.890625 11.625 47.5625 5.09375 
Q 40.234375 -1.421875 26.90625 -1.421875 
Q 22.3125 -1.421875 17.546875 -0.640625 
Q 12.796875 0.140625 7.71875 1.703125 
L 7.71875 11.625 
Q 12.109375 9.234375 16.796875 8.0625 
Q 21.484375 6.890625 26.703125 6.890625 
Q 35.15625 6.890625 40.078125 11.328125 
Q 45.015625 15.765625 45.015625 23.390625 
Q 45.015625 31 40.078125 35.4375 
Q 35.15625 39.890625 26.703125 39.890625 
Q 22.75 39.890625 18.8125 39.015625 
Q 14.890625 38.140625 10.796875 36.28125 
z
" id="DejaVuSans-35"/>
      </defs>
      <g transform="translate(508.287936 181.343892)scale(0.1 -0.1)">
       <use xlink:href="#DejaVuSans-35"/>
       <use x="63.623047" xlink:href="#DejaVuSans-30"/>
      </g>
     </g>
    </g>
    <g id="xtick_7">
     <g id="line2d_13">
      <path clip-path="url(#p0a120b9a1a)" d="M 576.968952 166.745455 
L 576.968952 43.2 
" style="fill:none;stroke:#b0b0b0;stroke-linecap:square;stroke-width:0.8;"/>
     </g>
     <g id="line2d_14">
      <g>
       <use style="stroke:#000000;stroke-width:0.8;" x="576.968952" xlink:href="#mc07e1a72b6" y="166.745455"/>
      </g>
     </g>
     <g id="text_7">
      <!-- 60 -->
      <defs>
       <path d="M 33.015625 40.375 
Q 26.375 40.375 22.484375 35.828125 
Q 18.609375 31.296875 18.609375 23.390625 
Q 18.609375 15.53125 22.484375 10.953125 
Q 26.375 6.390625 33.015625 6.390625 
Q 39.65625 6.390625 43.53125 10.953125 
Q 47.40625 15.53125 47.40625 23.390625 
Q 47.40625 31.296875 43.53125 35.828125 
Q 39.65625 40.375 33.015625 40.375 
M 52.59375 71.296875 
L 52.59375 62.3125 
Q 48.875 64.0625 45.09375 64.984375 
Q 41.3125 65.921875 37.59375 65.921875 
Q 27.828125 65.921875 22.671875 59.328125 
Q 17.53125 52.734375 16.796875 39.40625 
Q 19.671875 43.65625 24.015625 45.921875 
Q 28.375 48.1875 33.59375 48.1875 
Q 44.578125 48.1875 50.953125 41.515625 
Q 57.328125 34.859375 57.328125 23.390625 
Q 57.328125 12.15625 50.6875 5.359375 
Q 44.046875 -1.421875 33.015625 -1.421875 
Q 20.359375 -1.421875 13.671875 8.265625 
Q 6.984375 17.96875 6.984375 36.375 
Q 6.984375 53.65625 15.1875 63.9375 
Q 23.390625 74.21875 37.203125 74.21875 
Q 40.921875 74.21875 44.703125 73.484375 
Q 48.484375 72.75 52.59375 71.296875 
" id="DejaVuSans-36"/>
      </defs>
      <g transform="translate(570.606452 181.343892)scale(0.1 -0.1)">
       <use xlink:href="#DejaVuSans-36"/>
       <use x="63.623047" xlink:href="#DejaVuSans-30"/>
      </g>
     </g>
    </g>
    <g id="xtick_8">
     <g id="line2d_15">
      <path clip-path="url(#p0a120b9a1a)" d="M 639.287469 166.745455 
L 639.287469 43.2 
" style="fill:none;stroke:#b0b0b0;stroke-linecap:square;stroke-width:0.8;"/>
     </g>
     <g id="line2d_16">
      <g>
       <use style="stroke:#000000;stroke-width:0.8;" x="639.287469" xlink:href="#mc07e1a72b6" y="166.745455"/>
      </g>
     </g>
     <g id="text_8">
      <!-- 70 -->
      <defs>
       <path d="M 8.203125 72.90625 
L 55.078125 72.90625 
L 55.078125 68.703125 
L 28.609375 0 
L 18.3125 0 
L 43.21875 64.59375 
L 8.203125 64.59375 
z
" id="DejaVuSans-37"/>
      </defs>
      <g transform="translate(632.924969 181.343892)scale(0.1 -0.1)">
       <use xlink:href="#DejaVuSans-37"/>
       <use x="63.623047" xlink:href="#DejaVuSans-30"/>
      </g>
     </g>
    </g>
   </g>
   <g id="matplotlib.axis_2">
    <g id="ytick_1">
     <g id="line2d_17">
      <path clip-path="url(#p0a120b9a1a)" d="M 180 147.144703 
L 687.272727 147.144703 
" style="fill:none;stroke:#b0b0b0;stroke-linecap:square;stroke-width:0.8;"/>
     </g>
     <g id="line2d_18">
      <defs>
       <path d="M 0 0 
L -3.5 0 
" id="m01e299e546" style="stroke:#000000;stroke-width:0.8;"/>
      </defs>
      <g>
       <use style="stroke:#000000;stroke-width:0.8;" x="180" xlink:href="#m01e299e546" y="147.144703"/>
      </g>
     </g>
     <g id="text_9">
      <!-- −0.2 -->
      <defs>
       <path d="M 10.59375 35.5 
L 73.1875 35.5 
L 73.1875 27.203125 
L 10.59375 27.203125 
z
" id="DejaVuSans-2212"/>
       <path d="M 10.6875 12.40625 
L 21 12.40625 
L 21 0 
L 10.6875 0 
z
" id="DejaVuSans-2e"/>
      </defs>
      <g transform="translate(148.717187 150.943922)scale(0.1 -0.1)">
       <use xlink:href="#DejaVuSans-2212"/>
       <use x="83.789062" xlink:href="#DejaVuSans-30"/>
       <use x="147.412109" xlink:href="#DejaVuSans-2e"/>
       <use x="179.199219" xlink:href="#DejaVuSans-32"/>
      </g>
     </g>
    </g>
    <g id="ytick_2">
     <g id="line2d_19">
      <path clip-path="url(#p0a120b9a1a)" d="M 180 126.249679 
L 687.272727 126.249679 
" style="fill:none;stroke:#b0b0b0;stroke-linecap:square;stroke-width:0.8;"/>
     </g>
     <g id="line2d_20">
      <g>
       <use style="stroke:#000000;stroke-width:0.8;" x="180" xlink:href="#m01e299e546" y="126.249679"/>
      </g>
     </g>
     <g id="text_10">
      <!-- −0.1 -->
      <g transform="translate(148.717187 130.048898)scale(0.1 -0.1)">
       <use xlink:href="#DejaVuSans-2212"/>
       <use x="83.789062" xlink:href="#DejaVuSans-30"/>
       <use x="147.412109" xlink:href="#DejaVuSans-2e"/>
       <use x="179.199219" xlink:href="#DejaVuSans-31"/>
      </g>
     </g>
    </g>
    <g id="ytick_3">
     <g id="line2d_21">
      <path clip-path="url(#p0a120b9a1a)" d="M 180 105.354655 
L 687.272727 105.354655 
" style="fill:none;stroke:#b0b0b0;stroke-linecap:square;stroke-width:0.8;"/>
     </g>
     <g id="line2d_22">
      <g>
       <use style="stroke:#000000;stroke-width:0.8;" x="180" xlink:href="#m01e299e546" y="105.354655"/>
      </g>
     </g>
     <g id="text_11">
      <!-- 0.0 -->
      <g transform="translate(157.096875 109.153874)scale(0.1 -0.1)">
       <use xlink:href="#DejaVuSans-30"/>
       <use x="63.623047" xlink:href="#DejaVuSans-2e"/>
       <use x="95.410156" xlink:href="#DejaVuSans-30"/>
      </g>
     </g>
    </g>
    <g id="ytick_4">
     <g id="line2d_23">
      <path clip-path="url(#p0a120b9a1a)" d="M 180 84.459631 
L 687.272727 84.459631 
" style="fill:none;stroke:#b0b0b0;stroke-linecap:square;stroke-width:0.8;"/>
     </g>
     <g id="line2d_24">
      <g>
       <use style="stroke:#000000;stroke-width:0.8;" x="180" xlink:href="#m01e299e546" y="84.459631"/>
      </g>
     </g>
     <g id="text_12">
      <!-- 0.1 -->
      <g transform="translate(157.096875 88.25885)scale(0.1 -0.1)">
       <use xlink:href="#DejaVuSans-30"/>
       <use x="63.623047" xlink:href="#DejaVuSans-2e"/>
       <use x="95.410156" xlink:href="#DejaVuSans-31"/>
      </g>
     </g>
    </g>
    <g id="ytick_5">
     <g id="line2d_25">
      <path clip-path="url(#p0a120b9a1a)" d="M 180 63.564607 
L 687.272727 63.564607 
" style="fill:none;stroke:#b0b0b0;stroke-linecap:square;stroke-width:0.8;"/>
     </g>
     <g id="line2d_26">
      <g>
       <use style="stroke:#000000;stroke-width:0.8;" x="180" xlink:href="#m01e299e546" y="63.564607"/>
      </g>
     </g>
     <g id="text_13">
      <!-- 0.2 -->
      <g transform="translate(157.096875 67.363826)scale(0.1 -0.1)">
       <use xlink:href="#DejaVuSans-30"/>
       <use x="63.623047" xlink:href="#DejaVuSans-2e"/>
       <use x="95.410156" xlink:href="#DejaVuSans-32"/>
      </g>
     </g>
    </g>
   </g>
   <g id="line2d_27">
    <path clip-path="url(#p0a120b9a1a)" d="M 203.057851 121.318771 
L 209.289703 119.526099 
L 215.521555 117.340078 
L 221.753406 117.336545 
L 227.985258 113.726348 
L 234.21711 113.575737 
L 240.448961 111.599267 
L 246.680813 110.407181 
L 252.912665 110.052947 
L 259.144516 106.45509 
L 265.376368 105.977767 
L 271.60822 104.368404 
L 277.840071 104.202075 
L 284.071923 103.658856 
L 290.303775 103.383138 
L 296.535627 102.898341 
L 302.767478 102.650599 
L 308.99933 102.082992 
L 315.231182 101.910695 
L 321.463033 101.26074 
L 327.694885 101.09338 
L 333.926737 100.81205 
L 340.158588 100.169178 
L 346.39044 100.039083 
L 352.622292 99.701649 
L 358.854143 97.901235 
L 365.085995 97.814772 
L 371.317847 96.25359 
L 377.549698 94.716425 
L 383.78155 94.478971 
L 390.013402 94.321089 
L 396.245254 93.385436 
L 402.477105 92.243709 
L 408.708957 92.111131 
L 414.940809 91.68265 
L 421.17266 91.492092 
L 427.404512 91.47169 
L 433.636364 90.599424 
L 439.868215 90.502588 
L 446.100067 88.492937 
L 452.331919 87.82188 
L 458.56377 87.602682 
L 464.795622 86.647835 
L 471.027474 86.611417 
L 477.259325 85.864154 
L 483.491177 84.256426 
L 489.723029 83.994341 
L 495.954881 83.406028 
L 502.186732 82.671836 
L 508.418584 82.016116 
L 514.650436 78.579661 
L 520.882287 78.440629 
L 527.114139 77.8863 
L 533.345991 77.85366 
L 539.577842 77.643104 
L 545.809694 77.523353 
L 552.041546 76.719715 
L 558.273397 76.622784 
L 564.505249 76.355993 
L 570.737101 74.5342 
L 576.968952 72.550201 
L 583.200804 70.191661 
L 589.432656 69.648367 
L 595.664507 69.471895 
L 601.896359 69.436908 
L 608.128211 66.866592 
L 614.360063 65.957287 
L 620.591914 61.045547 
L 626.823766 59.983967 
L 633.055618 59.735602 
L 639.287469 57.786597 
L 645.519321 57.593487 
L 651.751173 57.587867 
L 657.983024 52.726005 
L 664.214876 48.815702 
" style="fill:none;stroke:#1f77b4;stroke-linecap:square;stroke-width:1.5;"/>
   </g>
   <g id="line2d_28">
    <path clip-path="url(#p0a120b9a1a)" d="M 203.057851 94.907081 
L 209.289703 90.087904 
L 215.521555 102.910442 
L 221.753406 96.692627 
L 227.985258 112.517021 
L 234.21711 112.993367 
L 240.448961 87.796693 
L 246.680813 99.052471 
L 252.912665 111.385831 
L 259.144516 71.546256 
L 265.376368 84.19581 
L 271.60822 72.875119 
L 277.840071 97.510173 
L 284.071923 60.369645 
L 290.303775 97.032283 
L 296.535627 92.525838 
L 302.767478 75.723368 
L 308.99933 86.62631 
L 315.231182 92.082612 
L 321.463033 78.492047 
L 327.694885 99.068096 
L 333.926737 95.087568 
L 340.158588 88.434496 
L 346.39044 73.883459 
L 352.622292 72.499273 
L 358.854143 73.302573 
L 365.085995 70.162532 
L 371.317847 81.016451 
L 377.549698 85.263223 
L 383.78155 53.221279 
L 390.013402 91.564999 
L 396.245254 73.749651 
L 402.477105 91.194511 
L 408.708957 96.231041 
L 414.940809 79.039367 
L 421.17266 93.772939 
L 427.404512 72.269452 
L 433.636364 60.806038 
L 439.868215 68.497055 
L 446.100067 82.904203 
L 452.331919 89.036282 
L 458.56377 72.331213 
L 464.795622 58.091377 
L 471.027474 71.897709 
L 477.259325 98.04675 
L 483.491177 86.330421 
L 489.723029 85.117803 
L 495.954881 89.208903 
L 502.186732 102.608347 
L 508.418584 105.294419 
L 514.650436 82.350763 
L 520.882287 84.35113 
L 527.114139 83.063764 
L 533.345991 97.306473 
L 539.577842 96.426956 
L 545.809694 104.738171 
L 552.041546 99.248423 
L 558.273397 123.961747 
L 564.505249 92.678225 
L 570.737101 80.260031 
L 576.968952 78.886672 
L 583.200804 124.498816 
L 589.432656 132.661788 
L 595.664507 103.06029 
L 601.896359 100.791319 
L 608.128211 92.541445 
L 614.360063 149.471656 
L 620.591914 120.69663 
L 626.823766 147.895791 
L 633.055618 138.559496 
L 639.287469 104.553793 
L 645.519321 120.2885 
L 651.751173 125.27485 
L 657.983024 149.793117 
L 664.214876 145.955504 
" style="fill:none;stroke:#ff7f0e;stroke-linecap:square;stroke-width:1.5;"/>
   </g>
   <g id="line2d_29">
    <path clip-path="url(#p0a120b9a1a)" d="M 203.057851 77.109072 
L 209.289703 62.198696 
L 215.521555 88.995414 
L 221.753406 72.278497 
L 227.985258 104.726542 
L 234.21711 106.585986 
L 240.448961 74.189426 
L 246.680813 88.221044 
L 252.912665 109.866255 
L 259.144516 109.084717 
L 265.376368 76.769831 
L 271.60822 60.188605 
L 277.840071 149.815812 
L 284.071923 73.088056 
L 290.303775 146.81365 
L 296.535627 146.068191 
L 302.767478 78.951947 
L 308.99933 80.294388 
L 315.231182 95.553493 
L 321.463033 76.228306 
L 327.694885 152.088345 
L 333.926737 145.411725 
L 340.158588 93.890166 
L 346.39044 95.144189 
L 352.622292 113.757464 
L 358.854143 82.600336 
L 365.085995 105.340272 
L 371.317847 96.946699 
L 377.549698 107.226426 
L 383.78155 76.657554 
L 390.013402 144.227431 
L 396.245254 95.401553 
L 402.477105 148.266289 
L 408.708957 146.448397 
L 414.940809 116.002343 
L 421.17266 146.744844 
L 427.404512 98.263136 
L 433.636364 97.171364 
L 439.868215 102.863334 
L 446.100067 89.115644 
L 452.331919 129.5052 
L 458.56377 97.038206 
L 464.795622 84.214931 
L 471.027474 104.571799 
L 477.259325 92.008051 
L 483.491177 122.532279 
L 489.723029 87.368773 
L 495.954881 113.318212 
L 502.186732 150.847118 
L 508.418584 124.868536 
L 514.650436 91.34432 
L 520.882287 119.8131 
L 527.114139 116.732425 
L 533.345991 120.916601 
L 539.577842 108.860501 
L 545.809694 72.585666 
L 552.041546 108.486405 
L 558.273397 77.943532 
L 564.505249 113.818387 
L 570.737101 115.702333 
L 576.968952 120.049452 
L 583.200804 66.634014 
L 589.432656 96.438728 
L 595.664507 116.645621 
L 601.896359 111.865843 
L 608.128211 142.760417 
L 614.360063 82.480342 
L 620.591914 101.675521 
L 626.823766 78.510526 
L 633.055618 102.847299 
L 639.287469 121.872773 
L 645.519321 105.630798 
L 651.751173 101.748353 
L 657.983024 74.817753 
L 664.214876 75.4753 
" style="fill:none;stroke:#2ca02c;stroke-linecap:square;stroke-width:1.5;"/>
   </g>
   <g id="line2d_30">
    <path clip-path="url(#p0a120b9a1a)" d="M 203.057851 90.185259 
L 209.289703 99.886334 
L 215.521555 94.032958 
L 221.753406 86.821263 
L 227.985258 106.761744 
L 234.21711 108.33517 
L 240.448961 67.845881 
L 246.680813 100.656932 
L 252.912665 106.209355 
L 259.144516 70.403895 
L 265.376368 121.327238 
L 271.60822 107.221826 
L 277.840071 87.77641 
L 284.071923 72.372811 
L 290.303775 85.855887 
L 296.535627 89.559408 
L 302.767478 158.417795 
L 308.99933 123.88675 
L 315.231182 127.148857 
L 321.463033 92.500473 
L 327.694885 89.774622 
L 333.926737 88.158856 
L 340.158588 109.580244 
L 346.39044 91.942038 
L 352.622292 91.058211 
L 358.854143 144.295092 
L 365.085995 65.9847 
L 371.317847 145.084267 
L 377.549698 86.086652 
L 383.78155 93.901494 
L 390.013402 114.959077 
L 396.245254 153.835008 
L 402.477105 111.518181 
L 408.708957 107.730029 
L 414.940809 69.125105 
L 421.17266 106.148367 
L 427.404512 64.265948 
L 433.636364 161.129752 
L 439.868215 122.813918 
L 446.100067 64.115458 
L 452.331919 74.38564 
L 458.56377 145.923787 
L 464.795622 71.590603 
L 471.027474 103.250951 
L 477.259325 85.93428 
L 483.491177 97.814541 
L 489.723029 67.970777 
L 495.954881 123.914474 
L 502.186732 86.221665 
L 508.418584 97.0427 
L 514.650436 94.731838 
L 520.882287 83.3986 
L 527.114139 126.234338 
L 533.345991 71.014372 
L 539.577842 69.037057 
L 545.809694 97.204756 
L 552.041546 140.771955 
L 558.273397 103.93748 
L 564.505249 88.989414 
L 570.737101 130.563011 
L 576.968952 140.443586 
L 583.200804 117.837138 
L 589.432656 104.362547 
L 595.664507 142.978076 
L 601.896359 124.309838 
L 608.128211 140.947789 
L 614.360063 101.298018 
L 620.591914 89.380897 
L 626.823766 97.552639 
L 633.055618 104.681126 
L 639.287469 117.407312 
L 645.519321 99.559028 
L 651.751173 104.287381 
L 657.983024 94.420665 
L 664.214876 87.687936 
" style="fill:none;stroke:#d62728;stroke-linecap:square;stroke-width:1.5;"/>
   </g>
   <g id="patch_3">
    <path d="M 180 166.745455 
L 180 43.2 
" style="fill:none;stroke:#000000;stroke-linecap:square;stroke-linejoin:miter;stroke-width:0.8;"/>
   </g>
   <g id="patch_4">
    <path d="M 687.272727 166.745455 
L 687.272727 43.2 
" style="fill:none;stroke:#000000;stroke-linecap:square;stroke-linejoin:miter;stroke-width:0.8;"/>
   </g>
   <g id="patch_5">
    <path d="M 180 166.745455 
L 687.272727 166.745455 
" style="fill:none;stroke:#000000;stroke-linecap:square;stroke-linejoin:miter;stroke-width:0.8;"/>
   </g>
   <g id="patch_6">
    <path d="M 180 43.2 
L 687.272727 43.2 
" style="fill:none;stroke:#000000;stroke-linecap:square;stroke-linejoin:miter;stroke-width:0.8;"/>
   </g>
   <g id="legend_1">
    <g id="patch_7">
     <path d="M 406.81527 161.745455 
L 460.457457 161.745455 
Q 462.457457 161.745455 462.457457 159.745455 
L 462.457457 102.032955 
Q 462.457457 100.032955 460.457457 100.032955 
L 406.81527 100.032955 
Q 404.81527 100.032955 404.81527 102.032955 
L 404.81527 159.745455 
Q 404.81527 161.745455 406.81527 161.745455 
z
" style="fill:#ffffff;opacity:0.8;stroke:#cccccc;stroke-linejoin:miter;"/>
    </g>
    <g id="line2d_31">
     <path d="M 408.81527 108.131392 
L 428.81527 108.131392 
" style="fill:none;stroke:#1f77b4;stroke-linecap:square;stroke-width:1.5;"/>
    </g>
    <g id="line2d_32"/>
    <g id="text_14">
     <!-- egi1 -->
     <defs>
      <path d="M 56.203125 29.59375 
L 56.203125 25.203125 
L 14.890625 25.203125 
Q 15.484375 15.921875 20.484375 11.0625 
Q 25.484375 6.203125 34.421875 6.203125 
Q 39.59375 6.203125 44.453125 7.46875 
Q 49.3125 8.734375 54.109375 11.28125 
L 54.109375 2.78125 
Q 49.265625 0.734375 44.1875 -0.34375 
Q 39.109375 -1.421875 33.890625 -1.421875 
Q 20.796875 -1.421875 13.15625 6.1875 
Q 5.515625 13.8125 5.515625 26.8125 
Q 5.515625 40.234375 12.765625 48.109375 
Q 20.015625 56 32.328125 56 
Q 43.359375 56 49.78125 48.890625 
Q 56.203125 41.796875 56.203125 29.59375 
M 47.21875 32.234375 
Q 47.125 39.59375 43.09375 43.984375 
Q 39.0625 48.390625 32.421875 48.390625 
Q 24.90625 48.390625 20.390625 44.140625 
Q 15.875 39.890625 15.1875 32.171875 
z
" id="DejaVuSans-65"/>
      <path d="M 45.40625 27.984375 
Q 45.40625 37.75 41.375 43.109375 
Q 37.359375 48.484375 30.078125 48.484375 
Q 22.859375 48.484375 18.828125 43.109375 
Q 14.796875 37.75 14.796875 27.984375 
Q 14.796875 18.265625 18.828125 12.890625 
Q 22.859375 7.515625 30.078125 7.515625 
Q 37.359375 7.515625 41.375 12.890625 
Q 45.40625 18.265625 45.40625 27.984375 
M 54.390625 6.78125 
Q 54.390625 -7.171875 48.1875 -13.984375 
Q 42 -20.796875 29.203125 -20.796875 
Q 24.46875 -20.796875 20.265625 -20.09375 
Q 16.0625 -19.390625 12.109375 -17.921875 
L 12.109375 -9.1875 
Q 16.0625 -11.328125 19.921875 -12.34375 
Q 23.78125 -13.375 27.78125 -13.375 
Q 36.625 -13.375 41.015625 -8.765625 
Q 45.40625 -4.15625 45.40625 5.171875 
L 45.40625 9.625 
Q 42.625 4.78125 38.28125 2.390625 
Q 33.9375 0 27.875 0 
Q 17.828125 0 11.671875 7.65625 
Q 5.515625 15.328125 5.515625 27.984375 
Q 5.515625 40.671875 11.671875 48.328125 
Q 17.828125 56 27.875 56 
Q 33.9375 56 38.28125 53.609375 
Q 42.625 51.21875 45.40625 46.390625 
L 45.40625 54.6875 
L 54.390625 54.6875 
z
" id="DejaVuSans-67"/>
      <path d="M 9.421875 54.6875 
L 18.40625 54.6875 
L 18.40625 0 
L 9.421875 0 
z
M 9.421875 75.984375 
L 18.40625 75.984375 
L 18.40625 64.59375 
L 9.421875 64.59375 
z
" id="DejaVuSans-69"/>
     </defs>
     <g transform="translate(436.81527 111.631392)scale(0.1 -0.1)">
      <use xlink:href="#DejaVuSans-65"/>
      <use x="61.523438" xlink:href="#DejaVuSans-67"/>
      <use x="125" xlink:href="#DejaVuSans-69"/>
      <use x="152.783203" xlink:href="#DejaVuSans-31"/>
     </g>
    </g>
    <g id="line2d_33">
     <path d="M 408.81527 122.809517 
L 428.81527 122.809517 
" style="fill:none;stroke:#ff7f0e;stroke-linecap:square;stroke-width:1.5;"/>
    </g>
    <g id="line2d_34"/>
    <g id="text_15">
     <!-- egi2 -->
     <g transform="translate(436.81527 126.309517)scale(0.1 -0.1)">
      <use xlink:href="#DejaVuSans-65"/>
      <use x="61.523438" xlink:href="#DejaVuSans-67"/>
      <use x="125" xlink:href="#DejaVuSans-69"/>
      <use x="152.783203" xlink:href="#DejaVuSans-32"/>
     </g>
    </g>
    <g id="line2d_35">
     <path d="M 408.81527 137.487642 
L 428.81527 137.487642 
" style="fill:none;stroke:#2ca02c;stroke-linecap:square;stroke-width:1.5;"/>
    </g>
    <g id="line2d_36"/>
    <g id="text_16">
     <!-- egi3 -->
     <g transform="translate(436.81527 140.987642)scale(0.1 -0.1)">
      <use xlink:href="#DejaVuSans-65"/>
      <use x="61.523438" xlink:href="#DejaVuSans-67"/>
      <use x="125" xlink:href="#DejaVuSans-69"/>
      <use x="152.783203" xlink:href="#DejaVuSans-33"/>
     </g>
    </g>
    <g id="line2d_37">
     <path d="M 408.81527 152.165767 
L 428.81527 152.165767 
" style="fill:none;stroke:#d62728;stroke-linecap:square;stroke-width:1.5;"/>
    </g>
    <g id="line2d_38"/>
    <g id="text_17">
     <!-- egi4 -->
     <g transform="translate(436.81527 155.665767)scale(0.1 -0.1)">
      <use xlink:href="#DejaVuSans-65"/>
      <use x="61.523438" xlink:href="#DejaVuSans-67"/>
      <use x="125" xlink:href="#DejaVuSans-69"/>
      <use x="152.783203" xlink:href="#DejaVuSans-34"/>
     </g>
    </g>
   </g>
  </g>
  <g id="axes_2">
   <g id="patch_8">
    <path d="M 788.727273 166.745455 
L 1296 166.745455 
L 1296 43.2 
L 788.727273 43.2 
z
" style="fill:#ffffff;"/>
   </g>
   <g id="matplotlib.axis_3">
    <g id="xtick_9">
     <g id="line2d_39">
      <path clip-path="url(#p3b327afd8f)" d="M 811.785124 166.745455 
L 811.785124 43.2 
" style="fill:none;stroke:#b0b0b0;stroke-linecap:square;stroke-width:0.8;"/>
     </g>
     <g id="line2d_40">
      <g>
       <use style="stroke:#000000;stroke-width:0.8;" x="811.785124" xlink:href="#mc07e1a72b6" y="166.745455"/>
      </g>
     </g>
     <g id="text_18">
      <!-- 0 -->
      <g transform="translate(808.603874 181.343892)scale(0.1 -0.1)">
       <use xlink:href="#DejaVuSans-30"/>
      </g>
     </g>
    </g>
    <g id="xtick_10">
     <g id="line2d_41">
      <path clip-path="url(#p3b327afd8f)" d="M 874.103641 166.745455 
L 874.103641 43.2 
" style="fill:none;stroke:#b0b0b0;stroke-linecap:square;stroke-width:0.8;"/>
     </g>
     <g id="line2d_42">
      <g>
       <use style="stroke:#000000;stroke-width:0.8;" x="874.103641" xlink:href="#mc07e1a72b6" y="166.745455"/>
      </g>
     </g>
     <g id="text_19">
      <!-- 10 -->
      <g transform="translate(867.741141 181.343892)scale(0.1 -0.1)">
       <use xlink:href="#DejaVuSans-31"/>
       <use x="63.623047" xlink:href="#DejaVuSans-30"/>
      </g>
     </g>
    </g>
    <g id="xtick_11">
     <g id="line2d_43">
      <path clip-path="url(#p3b327afd8f)" d="M 936.422158 166.745455 
L 936.422158 43.2 
" style="fill:none;stroke:#b0b0b0;stroke-linecap:square;stroke-width:0.8;"/>
     </g>
     <g id="line2d_44">
      <g>
       <use style="stroke:#000000;stroke-width:0.8;" x="936.422158" xlink:href="#mc07e1a72b6" y="166.745455"/>
      </g>
     </g>
     <g id="text_20">
      <!-- 20 -->
      <g transform="translate(930.059658 181.343892)scale(0.1 -0.1)">
       <use xlink:href="#DejaVuSans-32"/>
       <use x="63.623047" xlink:href="#DejaVuSans-30"/>
      </g>
     </g>
    </g>
    <g id="xtick_12">
     <g id="line2d_45">
      <path clip-path="url(#p3b327afd8f)" d="M 998.740675 166.745455 
L 998.740675 43.2 
" style="fill:none;stroke:#b0b0b0;stroke-linecap:square;stroke-width:0.8;"/>
     </g>
     <g id="line2d_46">
      <g>
       <use style="stroke:#000000;stroke-width:0.8;" x="998.740675" xlink:href="#mc07e1a72b6" y="166.745455"/>
      </g>
     </g>
     <g id="text_21">
      <!-- 30 -->
      <g transform="translate(992.378175 181.343892)scale(0.1 -0.1)">
       <use xlink:href="#DejaVuSans-33"/>
       <use x="63.623047" xlink:href="#DejaVuSans-30"/>
      </g>
     </g>
    </g>
    <g id="xtick_13">
     <g id="line2d_47">
      <path clip-path="url(#p3b327afd8f)" d="M 1061.059191 166.745455 
L 1061.059191 43.2 
" style="fill:none;stroke:#b0b0b0;stroke-linecap:square;stroke-width:0.8;"/>
     </g>
     <g id="line2d_48">
      <g>
       <use style="stroke:#000000;stroke-width:0.8;" x="1061.059191" xlink:href="#mc07e1a72b6" y="166.745455"/>
      </g>
     </g>
     <g id="text_22">
      <!-- 40 -->
      <g transform="translate(1054.696691 181.343892)scale(0.1 -0.1)">
       <use xlink:href="#DejaVuSans-34"/>
       <use x="63.623047" xlink:href="#DejaVuSans-30"/>
      </g>
     </g>
    </g>
    <g id="xtick_14">
     <g id="line2d_49">
      <path clip-path="url(#p3b327afd8f)" d="M 1123.377708 166.745455 
L 1123.377708 43.2 
" style="fill:none;stroke:#b0b0b0;stroke-linecap:square;stroke-width:0.8;"/>
     </g>
     <g id="line2d_50">
      <g>
       <use style="stroke:#000000;stroke-width:0.8;" x="1123.377708" xlink:href="#mc07e1a72b6" y="166.745455"/>
      </g>
     </g>
     <g id="text_23">
      <!-- 50 -->
      <g transform="translate(1117.015208 181.343892)scale(0.1 -0.1)">
       <use xlink:href="#DejaVuSans-35"/>
       <use x="63.623047" xlink:href="#DejaVuSans-30"/>
      </g>
     </g>
    </g>
    <g id="xtick_15">
     <g id="line2d_51">
      <path clip-path="url(#p3b327afd8f)" d="M 1185.696225 166.745455 
L 1185.696225 43.2 
" style="fill:none;stroke:#b0b0b0;stroke-linecap:square;stroke-width:0.8;"/>
     </g>
     <g id="line2d_52">
      <g>
       <use style="stroke:#000000;stroke-width:0.8;" x="1185.696225" xlink:href="#mc07e1a72b6" y="166.745455"/>
      </g>
     </g>
     <g id="text_24">
      <!-- 60 -->
      <g transform="translate(1179.333725 181.343892)scale(0.1 -0.1)">
       <use xlink:href="#DejaVuSans-36"/>
       <use x="63.623047" xlink:href="#DejaVuSans-30"/>
      </g>
     </g>
    </g>
    <g id="xtick_16">
     <g id="line2d_53">
      <path clip-path="url(#p3b327afd8f)" d="M 1248.014742 166.745455 
L 1248.014742 43.2 
" style="fill:none;stroke:#b0b0b0;stroke-linecap:square;stroke-width:0.8;"/>
     </g>
     <g id="line2d_54">
      <g>
       <use style="stroke:#000000;stroke-width:0.8;" x="1248.014742" xlink:href="#mc07e1a72b6" y="166.745455"/>
      </g>
     </g>
     <g id="text_25">
      <!-- 70 -->
      <g transform="translate(1241.652242 181.343892)scale(0.1 -0.1)">
       <use xlink:href="#DejaVuSans-37"/>
       <use x="63.623047" xlink:href="#DejaVuSans-30"/>
      </g>
     </g>
    </g>
   </g>
   <g id="matplotlib.axis_4">
    <g id="ytick_6">
     <g id="line2d_55">
      <path clip-path="url(#p3b327afd8f)" d="M 788.727273 147.144703 
L 1296 147.144703 
" style="fill:none;stroke:#b0b0b0;stroke-linecap:square;stroke-width:0.8;"/>
     </g>
     <g id="line2d_56">
      <g>
       <use style="stroke:#000000;stroke-width:0.8;" x="788.727273" xlink:href="#m01e299e546" y="147.144703"/>
      </g>
     </g>
    </g>
    <g id="ytick_7">
     <g id="line2d_57">
      <path clip-path="url(#p3b327afd8f)" d="M 788.727273 126.249679 
L 1296 126.249679 
" style="fill:none;stroke:#b0b0b0;stroke-linecap:square;stroke-width:0.8;"/>
     </g>
     <g id="line2d_58">
      <g>
       <use style="stroke:#000000;stroke-width:0.8;" x="788.727273" xlink:href="#m01e299e546" y="126.249679"/>
      </g>
     </g>
    </g>
    <g id="ytick_8">
     <g id="line2d_59">
      <path clip-path="url(#p3b327afd8f)" d="M 788.727273 105.354655 
L 1296 105.354655 
" style="fill:none;stroke:#b0b0b0;stroke-linecap:square;stroke-width:0.8;"/>
     </g>
     <g id="line2d_60">
      <g>
       <use style="stroke:#000000;stroke-width:0.8;" x="788.727273" xlink:href="#m01e299e546" y="105.354655"/>
      </g>
     </g>
    </g>
    <g id="ytick_9">
     <g id="line2d_61">
      <path clip-path="url(#p3b327afd8f)" d="M 788.727273 84.459631 
L 1296 84.459631 
" style="fill:none;stroke:#b0b0b0;stroke-linecap:square;stroke-width:0.8;"/>
     </g>
     <g id="line2d_62">
      <g>
       <use style="stroke:#000000;stroke-width:0.8;" x="788.727273" xlink:href="#m01e299e546" y="84.459631"/>
      </g>
     </g>
    </g>
    <g id="ytick_10">
     <g id="line2d_63">
      <path clip-path="url(#p3b327afd8f)" d="M 788.727273 63.564607 
L 1296 63.564607 
" style="fill:none;stroke:#b0b0b0;stroke-linecap:square;stroke-width:0.8;"/>
     </g>
     <g id="line2d_64">
      <g>
       <use style="stroke:#000000;stroke-width:0.8;" x="788.727273" xlink:href="#m01e299e546" y="63.564607"/>
      </g>
     </g>
    </g>
   </g>
   <g id="line2d_65">
    <path clip-path="url(#p3b327afd8f)" d="M 811.785124 52.726005 
L 818.016976 65.957287 
L 824.248827 59.983967 
L 830.480679 48.815702 
L 836.712531 59.735602 
L 842.944382 69.648367 
L 849.176234 57.587867 
L 855.408086 70.191661 
L 861.639937 76.622784 
L 867.871789 61.045547 
L 874.103641 57.593487 
L 880.335493 113.575737 
L 886.567344 113.726348 
L 892.799196 110.052947 
L 899.031048 82.016116 
L 905.262899 77.523353 
L 911.494751 57.786597 
L 917.726603 69.471895 
L 923.958454 117.340078 
L 930.190306 82.671836 
L 936.422158 69.436908 
L 942.654009 76.719715 
L 948.885861 101.09338 
L 955.117713 110.407181 
L 961.349564 85.864154 
L 967.581416 104.202075 
L 973.813268 77.85366 
L 980.045119 103.383138 
L 986.276971 117.336545 
L 992.508823 77.643104 
L 998.740675 92.111131 
L 1004.972526 100.81205 
L 1011.204378 121.318771 
L 1017.43623 91.492092 
L 1023.668081 76.355993 
L 1029.899933 66.866592 
L 1036.131785 102.898341 
L 1042.363636 101.910695 
L 1048.595488 94.321089 
L 1054.82734 92.243709 
L 1061.059191 119.526099 
L 1067.291043 83.406028 
L 1073.522895 87.82188 
L 1079.754746 100.169178 
L 1085.986598 111.599267 
L 1092.21845 102.082992 
L 1098.450302 84.256426 
L 1104.682153 94.716425 
L 1110.914005 83.994341 
L 1117.145857 78.440629 
L 1123.377708 105.977767 
L 1129.60956 77.8863 
L 1135.841412 88.492937 
L 1142.073263 78.579661 
L 1148.305115 96.25359 
L 1154.536967 74.5342 
L 1160.768818 91.68265 
L 1167.00067 72.550201 
L 1173.232522 101.26074 
L 1179.464373 102.650599 
L 1185.696225 100.039083 
L 1191.928077 93.385436 
L 1198.159929 97.901235 
L 1204.39178 104.368404 
L 1210.623632 99.701649 
L 1216.855484 87.602682 
L 1223.087335 91.47169 
L 1229.319187 86.611417 
L 1235.551039 106.45509 
L 1241.78289 97.814772 
L 1248.014742 90.502588 
L 1254.246594 90.599424 
L 1260.478445 103.658856 
L 1266.710297 86.647835 
L 1272.942149 94.478971 
" style="fill:none;stroke:#1f77b4;stroke-linecap:square;stroke-width:1.5;"/>
   </g>
   <g id="line2d_66">
    <path clip-path="url(#p3b327afd8f)" d="M 811.785124 149.793117 
L 818.016976 149.471656 
L 824.248827 147.895791 
L 830.480679 145.955504 
L 836.712531 138.559496 
L 842.944382 132.661788 
L 849.176234 125.27485 
L 855.408086 124.498816 
L 861.639937 123.961747 
L 867.871789 120.69663 
L 874.103641 120.2885 
L 880.335493 112.993367 
L 886.567344 112.517021 
L 892.799196 111.385831 
L 899.031048 105.294419 
L 905.262899 104.738171 
L 911.494751 104.553793 
L 917.726603 103.06029 
L 923.958454 102.910442 
L 930.190306 102.608347 
L 936.422158 100.791319 
L 942.654009 99.248423 
L 948.885861 99.068096 
L 955.117713 99.052471 
L 961.349564 98.04675 
L 967.581416 97.510173 
L 973.813268 97.306473 
L 980.045119 97.032283 
L 986.276971 96.692627 
L 992.508823 96.426956 
L 998.740675 96.231041 
L 1004.972526 95.087568 
L 1011.204378 94.907081 
L 1017.43623 93.772939 
L 1023.668081 92.678225 
L 1029.899933 92.541445 
L 1036.131785 92.525838 
L 1042.363636 92.082612 
L 1048.595488 91.564999 
L 1054.82734 91.194511 
L 1061.059191 90.087904 
L 1067.291043 89.208903 
L 1073.522895 89.036282 
L 1079.754746 88.434496 
L 1085.986598 87.796693 
L 1092.21845 86.62631 
L 1098.450302 86.330421 
L 1104.682153 85.263223 
L 1110.914005 85.117803 
L 1117.145857 84.35113 
L 1123.377708 84.19581 
L 1129.60956 83.063764 
L 1135.841412 82.904203 
L 1142.073263 82.350763 
L 1148.305115 81.016451 
L 1154.536967 80.260031 
L 1160.768818 79.039367 
L 1167.00067 78.886672 
L 1173.232522 78.492047 
L 1179.464373 75.723368 
L 1185.696225 73.883459 
L 1191.928077 73.749651 
L 1198.159929 73.302573 
L 1204.39178 72.875119 
L 1210.623632 72.499273 
L 1216.855484 72.331213 
L 1223.087335 72.269452 
L 1229.319187 71.897709 
L 1235.551039 71.546256 
L 1241.78289 70.162532 
L 1248.014742 68.497055 
L 1254.246594 60.806038 
L 1260.478445 60.369645 
L 1266.710297 58.091377 
L 1272.942149 53.221279 
" style="fill:none;stroke:#ff7f0e;stroke-linecap:square;stroke-width:1.5;"/>
   </g>
   <g id="line2d_67">
    <path clip-path="url(#p3b327afd8f)" d="M 811.785124 74.817753 
L 818.016976 82.480342 
L 824.248827 78.510526 
L 830.480679 75.4753 
L 836.712531 102.847299 
L 842.944382 96.438728 
L 849.176234 101.748353 
L 855.408086 66.634014 
L 861.639937 77.943532 
L 867.871789 101.675521 
L 874.103641 105.630798 
L 880.335493 106.585986 
L 886.567344 104.726542 
L 892.799196 109.866255 
L 899.031048 124.868536 
L 905.262899 72.585666 
L 911.494751 121.872773 
L 917.726603 116.645621 
L 923.958454 88.995414 
L 930.190306 150.847118 
L 936.422158 111.865843 
L 942.654009 108.486405 
L 948.885861 152.088345 
L 955.117713 88.221044 
L 961.349564 92.008051 
L 967.581416 149.815812 
L 973.813268 120.916601 
L 980.045119 146.81365 
L 986.276971 72.278497 
L 992.508823 108.860501 
L 998.740675 146.448397 
L 1004.972526 145.411725 
L 1011.204378 77.109072 
L 1017.43623 146.744844 
L 1023.668081 113.818387 
L 1029.899933 142.760417 
L 1036.131785 146.068191 
L 1042.363636 95.553493 
L 1048.595488 144.227431 
L 1054.82734 148.266289 
L 1061.059191 62.198696 
L 1067.291043 113.318212 
L 1073.522895 129.5052 
L 1079.754746 93.890166 
L 1085.986598 74.189426 
L 1092.21845 80.294388 
L 1098.450302 122.532279 
L 1104.682153 107.226426 
L 1110.914005 87.368773 
L 1117.145857 119.8131 
L 1123.377708 76.769831 
L 1129.60956 116.732425 
L 1135.841412 89.115644 
L 1142.073263 91.34432 
L 1148.305115 96.946699 
L 1154.536967 115.702333 
L 1160.768818 116.002343 
L 1167.00067 120.049452 
L 1173.232522 76.228306 
L 1179.464373 78.951947 
L 1185.696225 95.144189 
L 1191.928077 95.401553 
L 1198.159929 82.600336 
L 1204.39178 60.188605 
L 1210.623632 113.757464 
L 1216.855484 97.038206 
L 1223.087335 98.263136 
L 1229.319187 104.571799 
L 1235.551039 109.084717 
L 1241.78289 105.340272 
L 1248.014742 102.863334 
L 1254.246594 97.171364 
L 1260.478445 73.088056 
L 1266.710297 84.214931 
L 1272.942149 76.657554 
" style="fill:none;stroke:#2ca02c;stroke-linecap:square;stroke-width:1.5;"/>
   </g>
   <g id="line2d_68">
    <path clip-path="url(#p3b327afd8f)" d="M 811.785124 94.420665 
L 818.016976 101.298018 
L 824.248827 97.552639 
L 830.480679 87.687936 
L 836.712531 104.681126 
L 842.944382 104.362547 
L 849.176234 104.287381 
L 855.408086 117.837138 
L 861.639937 103.93748 
L 867.871789 89.380897 
L 874.103641 99.559028 
L 880.335493 108.33517 
L 886.567344 106.761744 
L 892.799196 106.209355 
L 899.031048 97.0427 
L 905.262899 97.204756 
L 911.494751 117.407312 
L 917.726603 142.978076 
L 923.958454 94.032958 
L 930.190306 86.221665 
L 936.422158 124.309838 
L 942.654009 140.771955 
L 948.885861 89.774622 
L 955.117713 100.656932 
L 961.349564 85.93428 
L 967.581416 87.77641 
L 973.813268 71.014372 
L 980.045119 85.855887 
L 986.276971 86.821263 
L 992.508823 69.037057 
L 998.740675 107.730029 
L 1004.972526 88.158856 
L 1011.204378 90.185259 
L 1017.43623 106.148367 
L 1023.668081 88.989414 
L 1029.899933 140.947789 
L 1036.131785 89.559408 
L 1042.363636 127.148857 
L 1048.595488 114.959077 
L 1054.82734 111.518181 
L 1061.059191 99.886334 
L 1067.291043 123.914474 
L 1073.522895 74.38564 
L 1079.754746 109.580244 
L 1085.986598 67.845881 
L 1092.21845 123.88675 
L 1098.450302 97.814541 
L 1104.682153 86.086652 
L 1110.914005 67.970777 
L 1117.145857 83.3986 
L 1123.377708 121.327238 
L 1129.60956 126.234338 
L 1135.841412 64.115458 
L 1142.073263 94.731838 
L 1148.305115 145.084267 
L 1154.536967 130.563011 
L 1160.768818 69.125105 
L 1167.00067 140.443586 
L 1173.232522 92.500473 
L 1179.464373 158.417795 
L 1185.696225 91.942038 
L 1191.928077 153.835008 
L 1198.159929 144.295092 
L 1204.39178 107.221826 
L 1210.623632 91.058211 
L 1216.855484 145.923787 
L 1223.087335 64.265948 
L 1229.319187 103.250951 
L 1235.551039 70.403895 
L 1241.78289 65.9847 
L 1248.014742 122.813918 
L 1254.246594 161.129752 
L 1260.478445 72.372811 
L 1266.710297 71.590603 
L 1272.942149 93.901494 
" style="fill:none;stroke:#d62728;stroke-linecap:square;stroke-width:1.5;"/>
   </g>
   <g id="patch_9">
    <path d="M 788.727273 166.745455 
L 788.727273 43.2 
" style="fill:none;stroke:#000000;stroke-linecap:square;stroke-linejoin:miter;stroke-width:0.8;"/>
   </g>
   <g id="patch_10">
    <path d="M 1296 166.745455 
L 1296 43.2 
" style="fill:none;stroke:#000000;stroke-linecap:square;stroke-linejoin:miter;stroke-width:0.8;"/>
   </g>
   <g id="patch_11">
    <path d="M 788.727273 166.745455 
L 1296 166.745455 
" style="fill:none;stroke:#000000;stroke-linecap:square;stroke-linejoin:miter;stroke-width:0.8;"/>
   </g>
   <g id="patch_12">
    <path d="M 788.727273 43.2 
L 1296 43.2 
" style="fill:none;stroke:#000000;stroke-linecap:square;stroke-linejoin:miter;stroke-width:0.8;"/>
   </g>
   <g id="legend_2">
    <g id="patch_13">
     <path d="M 1235.357812 161.745455 
L 1289 161.745455 
Q 1291 161.745455 1291 159.745455 
L 1291 102.032955 
Q 1291 100.032955 1289 100.032955 
L 1235.357812 100.032955 
Q 1233.357812 100.032955 1233.357812 102.032955 
L 1233.357812 159.745455 
Q 1233.357812 161.745455 1235.357812 161.745455 
z
" style="fill:#ffffff;opacity:0.8;stroke:#cccccc;stroke-linejoin:miter;"/>
    </g>
    <g id="line2d_69">
     <path d="M 1237.357812 108.131392 
L 1257.357812 108.131392 
" style="fill:none;stroke:#1f77b4;stroke-linecap:square;stroke-width:1.5;"/>
    </g>
    <g id="line2d_70"/>
    <g id="text_26">
     <!-- egi1 -->
     <g transform="translate(1265.357812 111.631392)scale(0.1 -0.1)">
      <use xlink:href="#DejaVuSans-65"/>
      <use x="61.523438" xlink:href="#DejaVuSans-67"/>
      <use x="125" xlink:href="#DejaVuSans-69"/>
      <use x="152.783203" xlink:href="#DejaVuSans-31"/>
     </g>
    </g>
    <g id="line2d_71">
     <path d="M 1237.357812 122.809517 
L 1257.357812 122.809517 
" style="fill:none;stroke:#ff7f0e;stroke-linecap:square;stroke-width:1.5;"/>
    </g>
    <g id="line2d_72"/>
    <g id="text_27">
     <!-- egi2 -->
     <g transform="translate(1265.357812 126.309517)scale(0.1 -0.1)">
      <use xlink:href="#DejaVuSans-65"/>
      <use x="61.523438" xlink:href="#DejaVuSans-67"/>
      <use x="125" xlink:href="#DejaVuSans-69"/>
      <use x="152.783203" xlink:href="#DejaVuSans-32"/>
     </g>
    </g>
    <g id="line2d_73">
     <path d="M 1237.357812 137.487642 
L 1257.357812 137.487642 
" style="fill:none;stroke:#2ca02c;stroke-linecap:square;stroke-width:1.5;"/>
    </g>
    <g id="line2d_74"/>
    <g id="text_28">
     <!-- egi3 -->
     <g transform="translate(1265.357812 140.987642)scale(0.1 -0.1)">
      <use xlink:href="#DejaVuSans-65"/>
      <use x="61.523438" xlink:href="#DejaVuSans-67"/>
      <use x="125" xlink:href="#DejaVuSans-69"/>
      <use x="152.783203" xlink:href="#DejaVuSans-33"/>
     </g>
    </g>
    <g id="line2d_75">
     <path d="M 1237.357812 152.165767 
L 1257.357812 152.165767 
" style="fill:none;stroke:#d62728;stroke-linecap:square;stroke-width:1.5;"/>
    </g>
    <g id="line2d_76"/>
    <g id="text_29">
     <!-- egi4 -->
     <g transform="translate(1265.357812 155.665767)scale(0.1 -0.1)">
      <use xlink:href="#DejaVuSans-65"/>
      <use x="61.523438" xlink:href="#DejaVuSans-67"/>
      <use x="125" xlink:href="#DejaVuSans-69"/>
      <use x="152.783203" xlink:href="#DejaVuSans-34"/>
     </g>
    </g>
   </g>
  </g>
  <g id="axes_3">
   <g id="patch_14">
    <path d="M 180 315 
L 687.272727 315 
L 687.272727 191.454545 
L 180 191.454545 
z
" style="fill:#ffffff;"/>
   </g>
   <g id="matplotlib.axis_5">
    <g id="xtick_17">
     <g id="line2d_77">
      <path clip-path="url(#p3b5de86eb1)" d="M 203.057851 315 
L 203.057851 191.454545 
" style="fill:none;stroke:#b0b0b0;stroke-linecap:square;stroke-width:0.8;"/>
     </g>
     <g id="line2d_78">
      <g>
       <use style="stroke:#000000;stroke-width:0.8;" x="203.057851" xlink:href="#mc07e1a72b6" y="315"/>
      </g>
     </g>
     <g id="text_30">
      <!-- 0 -->
      <g transform="translate(199.876601 329.598437)scale(0.1 -0.1)">
       <use xlink:href="#DejaVuSans-30"/>
      </g>
     </g>
    </g>
    <g id="xtick_18">
     <g id="line2d_79">
      <path clip-path="url(#p3b5de86eb1)" d="M 265.376368 315 
L 265.376368 191.454545 
" style="fill:none;stroke:#b0b0b0;stroke-linecap:square;stroke-width:0.8;"/>
     </g>
     <g id="line2d_80">
      <g>
       <use style="stroke:#000000;stroke-width:0.8;" x="265.376368" xlink:href="#mc07e1a72b6" y="315"/>
      </g>
     </g>
     <g id="text_31">
      <!-- 10 -->
      <g transform="translate(259.013868 329.598437)scale(0.1 -0.1)">
       <use xlink:href="#DejaVuSans-31"/>
       <use x="63.623047" xlink:href="#DejaVuSans-30"/>
      </g>
     </g>
    </g>
    <g id="xtick_19">
     <g id="line2d_81">
      <path clip-path="url(#p3b5de86eb1)" d="M 327.694885 315 
L 327.694885 191.454545 
" style="fill:none;stroke:#b0b0b0;stroke-linecap:square;stroke-width:0.8;"/>
     </g>
     <g id="line2d_82">
      <g>
       <use style="stroke:#000000;stroke-width:0.8;" x="327.694885" xlink:href="#mc07e1a72b6" y="315"/>
      </g>
     </g>
     <g id="text_32">
      <!-- 20 -->
      <g transform="translate(321.332385 329.598437)scale(0.1 -0.1)">
       <use xlink:href="#DejaVuSans-32"/>
       <use x="63.623047" xlink:href="#DejaVuSans-30"/>
      </g>
     </g>
    </g>
    <g id="xtick_20">
     <g id="line2d_83">
      <path clip-path="url(#p3b5de86eb1)" d="M 390.013402 315 
L 390.013402 191.454545 
" style="fill:none;stroke:#b0b0b0;stroke-linecap:square;stroke-width:0.8;"/>
     </g>
     <g id="line2d_84">
      <g>
       <use style="stroke:#000000;stroke-width:0.8;" x="390.013402" xlink:href="#mc07e1a72b6" y="315"/>
      </g>
     </g>
     <g id="text_33">
      <!-- 30 -->
      <g transform="translate(383.650902 329.598437)scale(0.1 -0.1)">
       <use xlink:href="#DejaVuSans-33"/>
       <use x="63.623047" xlink:href="#DejaVuSans-30"/>
      </g>
     </g>
    </g>
    <g id="xtick_21">
     <g id="line2d_85">
      <path clip-path="url(#p3b5de86eb1)" d="M 452.331919 315 
L 452.331919 191.454545 
" style="fill:none;stroke:#b0b0b0;stroke-linecap:square;stroke-width:0.8;"/>
     </g>
     <g id="line2d_86">
      <g>
       <use style="stroke:#000000;stroke-width:0.8;" x="452.331919" xlink:href="#mc07e1a72b6" y="315"/>
      </g>
     </g>
     <g id="text_34">
      <!-- 40 -->
      <g transform="translate(445.969419 329.598437)scale(0.1 -0.1)">
       <use xlink:href="#DejaVuSans-34"/>
       <use x="63.623047" xlink:href="#DejaVuSans-30"/>
      </g>
     </g>
    </g>
    <g id="xtick_22">
     <g id="line2d_87">
      <path clip-path="url(#p3b5de86eb1)" d="M 514.650436 315 
L 514.650436 191.454545 
" style="fill:none;stroke:#b0b0b0;stroke-linecap:square;stroke-width:0.8;"/>
     </g>
     <g id="line2d_88">
      <g>
       <use style="stroke:#000000;stroke-width:0.8;" x="514.650436" xlink:href="#mc07e1a72b6" y="315"/>
      </g>
     </g>
     <g id="text_35">
      <!-- 50 -->
      <g transform="translate(508.287936 329.598437)scale(0.1 -0.1)">
       <use xlink:href="#DejaVuSans-35"/>
       <use x="63.623047" xlink:href="#DejaVuSans-30"/>
      </g>
     </g>
    </g>
    <g id="xtick_23">
     <g id="line2d_89">
      <path clip-path="url(#p3b5de86eb1)" d="M 576.968952 315 
L 576.968952 191.454545 
" style="fill:none;stroke:#b0b0b0;stroke-linecap:square;stroke-width:0.8;"/>
     </g>
     <g id="line2d_90">
      <g>
       <use style="stroke:#000000;stroke-width:0.8;" x="576.968952" xlink:href="#mc07e1a72b6" y="315"/>
      </g>
     </g>
     <g id="text_36">
      <!-- 60 -->
      <g transform="translate(570.606452 329.598437)scale(0.1 -0.1)">
       <use xlink:href="#DejaVuSans-36"/>
       <use x="63.623047" xlink:href="#DejaVuSans-30"/>
      </g>
     </g>
    </g>
    <g id="xtick_24">
     <g id="line2d_91">
      <path clip-path="url(#p3b5de86eb1)" d="M 639.287469 315 
L 639.287469 191.454545 
" style="fill:none;stroke:#b0b0b0;stroke-linecap:square;stroke-width:0.8;"/>
     </g>
     <g id="line2d_92">
      <g>
       <use style="stroke:#000000;stroke-width:0.8;" x="639.287469" xlink:href="#mc07e1a72b6" y="315"/>
      </g>
     </g>
     <g id="text_37">
      <!-- 70 -->
      <g transform="translate(632.924969 329.598437)scale(0.1 -0.1)">
       <use xlink:href="#DejaVuSans-37"/>
       <use x="63.623047" xlink:href="#DejaVuSans-30"/>
      </g>
     </g>
    </g>
   </g>
   <g id="matplotlib.axis_6">
    <g id="ytick_11">
     <g id="line2d_93">
      <path clip-path="url(#p3b5de86eb1)" d="M 180 295.399248 
L 687.272727 295.399248 
" style="fill:none;stroke:#b0b0b0;stroke-linecap:square;stroke-width:0.8;"/>
     </g>
     <g id="line2d_94">
      <g>
       <use style="stroke:#000000;stroke-width:0.8;" x="180" xlink:href="#m01e299e546" y="295.399248"/>
      </g>
     </g>
     <g id="text_38">
      <!-- −0.2 -->
      <g transform="translate(148.717187 299.198467)scale(0.1 -0.1)">
       <use xlink:href="#DejaVuSans-2212"/>
       <use x="83.789062" xlink:href="#DejaVuSans-30"/>
       <use x="147.412109" xlink:href="#DejaVuSans-2e"/>
       <use x="179.199219" xlink:href="#DejaVuSans-32"/>
      </g>
     </g>
    </g>
    <g id="ytick_12">
     <g id="line2d_95">
      <path clip-path="url(#p3b5de86eb1)" d="M 180 274.504224 
L 687.272727 274.504224 
" style="fill:none;stroke:#b0b0b0;stroke-linecap:square;stroke-width:0.8;"/>
     </g>
     <g id="line2d_96">
      <g>
       <use style="stroke:#000000;stroke-width:0.8;" x="180" xlink:href="#m01e299e546" y="274.504224"/>
      </g>
     </g>
     <g id="text_39">
      <!-- −0.1 -->
      <g transform="translate(148.717187 278.303443)scale(0.1 -0.1)">
       <use xlink:href="#DejaVuSans-2212"/>
       <use x="83.789062" xlink:href="#DejaVuSans-30"/>
       <use x="147.412109" xlink:href="#DejaVuSans-2e"/>
       <use x="179.199219" xlink:href="#DejaVuSans-31"/>
      </g>
     </g>
    </g>
    <g id="ytick_13">
     <g id="line2d_97">
      <path clip-path="url(#p3b5de86eb1)" d="M 180 253.609201 
L 687.272727 253.609201 
" style="fill:none;stroke:#b0b0b0;stroke-linecap:square;stroke-width:0.8;"/>
     </g>
     <g id="line2d_98">
      <g>
       <use style="stroke:#000000;stroke-width:0.8;" x="180" xlink:href="#m01e299e546" y="253.609201"/>
      </g>
     </g>
     <g id="text_40">
      <!-- 0.0 -->
      <g transform="translate(157.096875 257.408419)scale(0.1 -0.1)">
       <use xlink:href="#DejaVuSans-30"/>
       <use x="63.623047" xlink:href="#DejaVuSans-2e"/>
       <use x="95.410156" xlink:href="#DejaVuSans-30"/>
      </g>
     </g>
    </g>
    <g id="ytick_14">
     <g id="line2d_99">
      <path clip-path="url(#p3b5de86eb1)" d="M 180 232.714177 
L 687.272727 232.714177 
" style="fill:none;stroke:#b0b0b0;stroke-linecap:square;stroke-width:0.8;"/>
     </g>
     <g id="line2d_100">
      <g>
       <use style="stroke:#000000;stroke-width:0.8;" x="180" xlink:href="#m01e299e546" y="232.714177"/>
      </g>
     </g>
     <g id="text_41">
      <!-- 0.1 -->
      <g transform="translate(157.096875 236.513395)scale(0.1 -0.1)">
       <use xlink:href="#DejaVuSans-30"/>
       <use x="63.623047" xlink:href="#DejaVuSans-2e"/>
       <use x="95.410156" xlink:href="#DejaVuSans-31"/>
      </g>
     </g>
    </g>
    <g id="ytick_15">
     <g id="line2d_101">
      <path clip-path="url(#p3b5de86eb1)" d="M 180 211.819153 
L 687.272727 211.819153 
" style="fill:none;stroke:#b0b0b0;stroke-linecap:square;stroke-width:0.8;"/>
     </g>
     <g id="line2d_102">
      <g>
       <use style="stroke:#000000;stroke-width:0.8;" x="180" xlink:href="#m01e299e546" y="211.819153"/>
      </g>
     </g>
     <g id="text_42">
      <!-- 0.2 -->
      <g transform="translate(157.096875 215.618371)scale(0.1 -0.1)">
       <use xlink:href="#DejaVuSans-30"/>
       <use x="63.623047" xlink:href="#DejaVuSans-2e"/>
       <use x="95.410156" xlink:href="#DejaVuSans-32"/>
      </g>
     </g>
    </g>
   </g>
   <g id="line2d_103">
    <path clip-path="url(#p3b5de86eb1)" d="M 203.057851 249.347925 
L 209.289703 230.926381 
L 215.521555 252.45662 
L 221.753406 240.498255 
L 227.985258 251.637684 
L 234.21711 239.746638 
L 240.448961 240.365676 
L 246.680813 251.152887 
L 252.912665 249.066596 
L 259.144516 242.575635 
L 265.376368 215.121138 
L 271.60822 236.076426 
L 277.840071 230.270661 
L 284.071923 232.510972 
L 290.303775 206.041143 
L 296.535627 226.108205 
L 302.767478 220.804747 
L 308.99933 226.695174 
L 315.231182 226.140845 
L 321.463033 217.726441 
L 327.694885 239.937196 
L 333.926737 222.788745 
L 340.158588 224.610539 
L 346.39044 247.956195 
L 352.622292 231.660573 
L 358.854143 217.691454 
L 365.085995 258.307493 
L 371.317847 254.709636 
L 377.549698 225.89765 
L 383.78155 224.974261 
L 390.013402 242.97097 
L 396.245254 261.830282 
L 402.477105 205.848032 
L 408.708957 246.069318 
L 414.940809 261.980894 
L 421.17266 234.865963 
L 427.404512 238.757134 
L 433.636364 207.990147 
L 439.868215 205.842413 
L 446.100067 209.300093 
L 452.331919 239.726236 
L 458.56377 238.853969 
L 464.795622 235.857227 
L 471.027474 244.508135 
L 477.259325 217.902913 
L 483.491177 250.16524 
L 489.723029 241.639981 
L 495.954881 248.293628 
L 502.186732 248.423724 
L 508.418584 234.1187 
L 514.650436 226.834207 
L 520.882287 236.747482 
L 527.114139 265.594623 
L 533.345991 258.661727 
L 539.577842 232.248886 
L 545.809694 234.90238 
L 552.041546 246.15578 
L 558.273397 214.211833 
L 564.505249 250.337537 
L 570.737101 250.905145 
L 576.968952 208.238512 
L 583.200804 224.87733 
L 589.432656 269.573316 
L 595.664507 254.232313 
L 601.896359 242.733517 
L 608.128211 249.515285 
L 614.360063 197.070248 
L 620.591914 200.980551 
L 626.823766 259.853813 
L 633.055618 251.913401 
L 639.287469 225.777898 
L 645.519321 265.591091 
L 651.751173 218.446207 
L 657.983024 267.780645 
L 664.214876 252.622949 
" style="fill:none;stroke:#1f77b4;stroke-linecap:square;stroke-width:1.5;"/>
   </g>
   <g id="line2d_104">
    <path clip-path="url(#p3b5de86eb1)" d="M 203.057851 247.322641 
L 209.289703 250.862892 
L 215.521555 245.764719 
L 221.753406 239.449057 
L 227.985258 245.286829 
L 234.21711 242.027485 
L 240.448961 244.485587 
L 246.680813 240.780383 
L 252.912665 243.342113 
L 259.144516 239.819545 
L 265.376368 240.795991 
L 271.60822 237.290827 
L 277.840071 253.548965 
L 284.071923 234.584966 
L 290.303775 252.808338 
L 296.535627 245.561019 
L 302.767478 227.141217 
L 308.99933 232.605676 
L 315.231182 231.31831 
L 321.463033 251.314836 
L 327.694885 227.293913 
L 333.926737 228.514577 
L 340.158588 240.932771 
L 346.39044 220.753819 
L 352.622292 237.463448 
L 358.854143 249.045865 
L 365.085995 259.640376 
L 371.317847 219.800801 
L 377.549698 244.681501 
L 383.78155 247.502969 
L 390.013402 233.517768 
L 396.245254 261.247912 
L 402.477105 268.543045 
L 408.708957 218.417077 
L 414.940809 260.771567 
L 421.17266 220.152255 
L 427.404512 216.7516 
L 433.636364 286.814041 
L 439.868215 273.529395 
L 446.100067 268.951175 
L 452.331919 220.523997 
L 458.56377 209.060583 
L 464.795622 220.585758 
L 471.027474 229.270996 
L 477.259325 280.916333 
L 483.491177 240.337158 
L 489.723029 222.004197 
L 495.954881 222.138004 
L 502.186732 236.689041 
L 508.418584 246.301296 
L 514.650436 230.605309 
L 520.882287 231.158749 
L 527.114139 251.164987 
L 533.345991 247.307016 
L 539.577842 233.372348 
L 545.809694 206.345923 
L 552.041546 221.557118 
L 558.273397 297.726202 
L 564.505249 234.880856 
L 570.737101 223.977914 
L 576.968952 296.150336 
L 583.200804 272.216292 
L 589.432656 243.161626 
L 595.664507 232.450356 
L 601.896359 201.475824 
L 608.128211 226.746592 
L 614.360063 294.21005 
L 620.591914 298.047663 
L 626.823766 236.051238 
L 633.055618 208.624191 
L 639.287469 252.992716 
L 645.519321 244.947172 
L 651.751173 272.753362 
L 657.983024 238.342449 
L 664.214876 221.129664 
" style="fill:none;stroke:#ff7f0e;stroke-linecap:square;stroke-width:1.5;"/>
   </g>
   <g id="line2d_105">
    <path clip-path="url(#p3b5de86eb1)" d="M 203.057851 300.342891 
L 209.289703 299.101664 
L 215.521555 298.070357 
L 221.753406 296.520834 
L 227.985258 295.068195 
L 234.21711 294.999389 
L 240.448961 294.702943 
L 246.680813 294.322736 
L 252.912665 293.666271 
L 259.144516 292.481976 
L 265.376368 291.014963 
L 271.60822 277.759745 
L 277.840071 273.123082 
L 284.071923 270.786825 
L 290.303775 270.127318 
L 296.535627 269.171146 
L 302.767478 268.303998 
L 308.99933 268.067646 
L 315.231182 264.98697 
L 321.463033 264.900166 
L 327.694885 264.256889 
L 333.926737 263.956879 
L 340.158588 262.072932 
L 346.39044 262.01201 
L 352.622292 261.572757 
L 358.854143 260.120388 
L 365.085995 258.1208 
L 371.317847 257.339263 
L 377.549698 257.115046 
L 383.78155 256.740951 
L 390.013402 255.480971 
L 396.245254 254.840531 
L 402.477105 253.885343 
L 408.708957 253.594817 
L 414.940809 252.981088 
L 421.17266 252.826345 
L 427.404512 251.117879 
L 433.636364 251.101845 
L 439.868215 250.002899 
L 446.100067 249.930067 
L 452.331919 246.517681 
L 458.56377 245.425909 
L 464.795622 245.292752 
L 471.027474 245.201245 
L 477.259325 244.693273 
L 483.491177 243.808038 
L 489.723029 243.656098 
L 495.954881 243.398734 
L 502.186732 242.144712 
L 508.418584 240.262596 
L 514.650436 239.598865 
L 520.882287 237.37019 
L 527.114139 237.249959 
L 533.345991 236.475589 
L 539.577842 235.623319 
L 545.809694 232.469476 
L 552.041546 230.854881 
L 558.273397 230.734887 
L 564.505249 228.548934 
L 570.737101 227.206493 
L 576.968952 226.765072 
L 583.200804 226.198078 
L 589.432656 225.363617 
L 595.664507 225.024376 
L 601.896359 224.912099 
L 608.128211 224.482851 
L 614.360063 223.729845 
L 620.591914 223.072298 
L 626.823766 222.443971 
L 633.055618 221.342601 
L 639.287469 220.840212 
L 645.519321 220.533042 
L 651.751173 214.88856 
L 657.983024 210.453242 
L 664.214876 208.443151 
" style="fill:none;stroke:#2ca02c;stroke-linecap:square;stroke-width:1.5;"/>
   </g>
   <g id="line2d_106">
    <path clip-path="url(#p3b5de86eb1)" d="M 203.057851 238.029167 
L 209.289703 234.47621 
L 215.521555 236.030956 
L 221.753406 259.772727 
L 227.985258 234.110432 
L 234.21711 254.402912 
L 240.448961 255.984575 
L 246.680813 237.813954 
L 252.912665 236.413401 
L 259.144516 263.213622 
L 265.376368 289.202334 
L 271.60822 222.640186 
L 277.840071 245.297246 
L 284.071923 246.069087 
L 290.303775 265.661857 
L 296.535627 219.268917 
L 302.767478 288.698131 
L 308.99933 231.653146 
L 315.231182 274.488884 
L 321.463033 291.232621 
L 327.694885 217.37965 
L 333.926737 278.817556 
L 340.158588 237.24396 
L 346.39044 239.312756 
L 352.622292 272.16902 
L 358.854143 272.564384 
L 365.085995 254.4639 
L 371.317847 218.65844 
L 377.549698 217.291603 
L 383.78155 289.0265 
L 390.013402 234.341198 
L 396.245254 256.589715 
L 402.477105 247.813574 
L 408.708957 214.239246 
L 414.940809 255.016289 
L 421.17266 251.505497 
L 427.404512 271.068463 
L 433.636364 252.935671 
L 439.868215 252.541927 
L 446.100067 237.635443 
L 452.331919 212.520493 
L 458.56377 309.384298 
L 464.795622 294.178333 
L 471.027474 293.338813 
L 477.259325 252.617093 
L 483.491177 275.403402 
L 489.723029 302.089554 
L 495.954881 240.196583 
L 502.186732 257.834789 
L 508.418584 234.188825 
L 514.650436 242.986384 
L 520.882287 212.370004 
L 527.114139 242.287503 
L 533.345991 248.911478 
L 539.577842 216.225323 
L 545.809694 219.845149 
L 552.041546 292.549637 
L 558.273397 249.552564 
L 564.505249 272.141296 
L 570.737101 306.672341 
L 576.968952 245.807184 
L 583.200804 252.192025 
L 589.432656 238.439805 
L 595.664507 269.581783 
L 601.896359 242.15604 
L 608.128211 240.755019 
L 614.360063 235.942481 
L 620.591914 242.67521 
L 626.823766 216.100426 
L 633.055618 220.627356 
L 639.287469 245.459302 
L 645.519321 235.075809 
L 651.751173 266.091683 
L 657.983024 248.140879 
L 664.214876 255.476372 
" style="fill:none;stroke:#d62728;stroke-linecap:square;stroke-width:1.5;"/>
   </g>
   <g id="patch_15">
    <path d="M 180 315 
L 180 191.454545 
" style="fill:none;stroke:#000000;stroke-linecap:square;stroke-linejoin:miter;stroke-width:0.8;"/>
   </g>
   <g id="patch_16">
    <path d="M 687.272727 315 
L 687.272727 191.454545 
" style="fill:none;stroke:#000000;stroke-linecap:square;stroke-linejoin:miter;stroke-width:0.8;"/>
   </g>
   <g id="patch_17">
    <path d="M 180 315 
L 687.272727 315 
" style="fill:none;stroke:#000000;stroke-linecap:square;stroke-linejoin:miter;stroke-width:0.8;"/>
   </g>
   <g id="patch_18">
    <path d="M 180 191.454545 
L 687.272727 191.454545 
" style="fill:none;stroke:#000000;stroke-linecap:square;stroke-linejoin:miter;stroke-width:0.8;"/>
   </g>
   <g id="legend_3">
    <g id="patch_19">
     <path d="M 626.63054 310 
L 680.272727 310 
Q 682.272727 310 682.272727 308 
L 682.272727 250.2875 
Q 682.272727 248.2875 680.272727 248.2875 
L 626.63054 248.2875 
Q 624.63054 248.2875 624.63054 250.2875 
L 624.63054 308 
Q 624.63054 310 626.63054 310 
z
" style="fill:#ffffff;opacity:0.8;stroke:#cccccc;stroke-linejoin:miter;"/>
    </g>
    <g id="line2d_107">
     <path d="M 628.63054 256.385937 
L 648.63054 256.385937 
" style="fill:none;stroke:#1f77b4;stroke-linecap:square;stroke-width:1.5;"/>
    </g>
    <g id="line2d_108"/>
    <g id="text_43">
     <!-- egi1 -->
     <g transform="translate(656.63054 259.885937)scale(0.1 -0.1)">
      <use xlink:href="#DejaVuSans-65"/>
      <use x="61.523438" xlink:href="#DejaVuSans-67"/>
      <use x="125" xlink:href="#DejaVuSans-69"/>
      <use x="152.783203" xlink:href="#DejaVuSans-31"/>
     </g>
    </g>
    <g id="line2d_109">
     <path d="M 628.63054 271.064062 
L 648.63054 271.064062 
" style="fill:none;stroke:#ff7f0e;stroke-linecap:square;stroke-width:1.5;"/>
    </g>
    <g id="line2d_110"/>
    <g id="text_44">
     <!-- egi2 -->
     <g transform="translate(656.63054 274.564062)scale(0.1 -0.1)">
      <use xlink:href="#DejaVuSans-65"/>
      <use x="61.523438" xlink:href="#DejaVuSans-67"/>
      <use x="125" xlink:href="#DejaVuSans-69"/>
      <use x="152.783203" xlink:href="#DejaVuSans-32"/>
     </g>
    </g>
    <g id="line2d_111">
     <path d="M 628.63054 285.742187 
L 648.63054 285.742187 
" style="fill:none;stroke:#2ca02c;stroke-linecap:square;stroke-width:1.5;"/>
    </g>
    <g id="line2d_112"/>
    <g id="text_45">
     <!-- egi3 -->
     <g transform="translate(656.63054 289.242187)scale(0.1 -0.1)">
      <use xlink:href="#DejaVuSans-65"/>
      <use x="61.523438" xlink:href="#DejaVuSans-67"/>
      <use x="125" xlink:href="#DejaVuSans-69"/>
      <use x="152.783203" xlink:href="#DejaVuSans-33"/>
     </g>
    </g>
    <g id="line2d_113">
     <path d="M 628.63054 300.420312 
L 648.63054 300.420312 
" style="fill:none;stroke:#d62728;stroke-linecap:square;stroke-width:1.5;"/>
    </g>
    <g id="line2d_114"/>
    <g id="text_46">
     <!-- egi4 -->
     <g transform="translate(656.63054 303.920312)scale(0.1 -0.1)">
      <use xlink:href="#DejaVuSans-65"/>
      <use x="61.523438" xlink:href="#DejaVuSans-67"/>
      <use x="125" xlink:href="#DejaVuSans-69"/>
      <use x="152.783203" xlink:href="#DejaVuSans-34"/>
     </g>
    </g>
   </g>
  </g>
  <g id="axes_4">
   <g id="patch_20">
    <path d="M 788.727273 315 
L 1296 315 
L 1296 191.454545 
L 788.727273 191.454545 
z
" style="fill:#ffffff;"/>
   </g>
   <g id="matplotlib.axis_7">
    <g id="xtick_25">
     <g id="line2d_115">
      <path clip-path="url(#p9304526986)" d="M 811.785124 315 
L 811.785124 191.454545 
" style="fill:none;stroke:#b0b0b0;stroke-linecap:square;stroke-width:0.8;"/>
     </g>
     <g id="line2d_116">
      <g>
       <use style="stroke:#000000;stroke-width:0.8;" x="811.785124" xlink:href="#mc07e1a72b6" y="315"/>
      </g>
     </g>
     <g id="text_47">
      <!-- 0 -->
      <g transform="translate(808.603874 329.598437)scale(0.1 -0.1)">
       <use xlink:href="#DejaVuSans-30"/>
      </g>
     </g>
    </g>
    <g id="xtick_26">
     <g id="line2d_117">
      <path clip-path="url(#p9304526986)" d="M 874.103641 315 
L 874.103641 191.454545 
" style="fill:none;stroke:#b0b0b0;stroke-linecap:square;stroke-width:0.8;"/>
     </g>
     <g id="line2d_118">
      <g>
       <use style="stroke:#000000;stroke-width:0.8;" x="874.103641" xlink:href="#mc07e1a72b6" y="315"/>
      </g>
     </g>
     <g id="text_48">
      <!-- 10 -->
      <g transform="translate(867.741141 329.598437)scale(0.1 -0.1)">
       <use xlink:href="#DejaVuSans-31"/>
       <use x="63.623047" xlink:href="#DejaVuSans-30"/>
      </g>
     </g>
    </g>
    <g id="xtick_27">
     <g id="line2d_119">
      <path clip-path="url(#p9304526986)" d="M 936.422158 315 
L 936.422158 191.454545 
" style="fill:none;stroke:#b0b0b0;stroke-linecap:square;stroke-width:0.8;"/>
     </g>
     <g id="line2d_120">
      <g>
       <use style="stroke:#000000;stroke-width:0.8;" x="936.422158" xlink:href="#mc07e1a72b6" y="315"/>
      </g>
     </g>
     <g id="text_49">
      <!-- 20 -->
      <g transform="translate(930.059658 329.598437)scale(0.1 -0.1)">
       <use xlink:href="#DejaVuSans-32"/>
       <use x="63.623047" xlink:href="#DejaVuSans-30"/>
      </g>
     </g>
    </g>
    <g id="xtick_28">
     <g id="line2d_121">
      <path clip-path="url(#p9304526986)" d="M 998.740675 315 
L 998.740675 191.454545 
" style="fill:none;stroke:#b0b0b0;stroke-linecap:square;stroke-width:0.8;"/>
     </g>
     <g id="line2d_122">
      <g>
       <use style="stroke:#000000;stroke-width:0.8;" x="998.740675" xlink:href="#mc07e1a72b6" y="315"/>
      </g>
     </g>
     <g id="text_50">
      <!-- 30 -->
      <g transform="translate(992.378175 329.598437)scale(0.1 -0.1)">
       <use xlink:href="#DejaVuSans-33"/>
       <use x="63.623047" xlink:href="#DejaVuSans-30"/>
      </g>
     </g>
    </g>
    <g id="xtick_29">
     <g id="line2d_123">
      <path clip-path="url(#p9304526986)" d="M 1061.059191 315 
L 1061.059191 191.454545 
" style="fill:none;stroke:#b0b0b0;stroke-linecap:square;stroke-width:0.8;"/>
     </g>
     <g id="line2d_124">
      <g>
       <use style="stroke:#000000;stroke-width:0.8;" x="1061.059191" xlink:href="#mc07e1a72b6" y="315"/>
      </g>
     </g>
     <g id="text_51">
      <!-- 40 -->
      <g transform="translate(1054.696691 329.598437)scale(0.1 -0.1)">
       <use xlink:href="#DejaVuSans-34"/>
       <use x="63.623047" xlink:href="#DejaVuSans-30"/>
      </g>
     </g>
    </g>
    <g id="xtick_30">
     <g id="line2d_125">
      <path clip-path="url(#p9304526986)" d="M 1123.377708 315 
L 1123.377708 191.454545 
" style="fill:none;stroke:#b0b0b0;stroke-linecap:square;stroke-width:0.8;"/>
     </g>
     <g id="line2d_126">
      <g>
       <use style="stroke:#000000;stroke-width:0.8;" x="1123.377708" xlink:href="#mc07e1a72b6" y="315"/>
      </g>
     </g>
     <g id="text_52">
      <!-- 50 -->
      <g transform="translate(1117.015208 329.598437)scale(0.1 -0.1)">
       <use xlink:href="#DejaVuSans-35"/>
       <use x="63.623047" xlink:href="#DejaVuSans-30"/>
      </g>
     </g>
    </g>
    <g id="xtick_31">
     <g id="line2d_127">
      <path clip-path="url(#p9304526986)" d="M 1185.696225 315 
L 1185.696225 191.454545 
" style="fill:none;stroke:#b0b0b0;stroke-linecap:square;stroke-width:0.8;"/>
     </g>
     <g id="line2d_128">
      <g>
       <use style="stroke:#000000;stroke-width:0.8;" x="1185.696225" xlink:href="#mc07e1a72b6" y="315"/>
      </g>
     </g>
     <g id="text_53">
      <!-- 60 -->
      <g transform="translate(1179.333725 329.598437)scale(0.1 -0.1)">
       <use xlink:href="#DejaVuSans-36"/>
       <use x="63.623047" xlink:href="#DejaVuSans-30"/>
      </g>
     </g>
    </g>
    <g id="xtick_32">
     <g id="line2d_129">
      <path clip-path="url(#p9304526986)" d="M 1248.014742 315 
L 1248.014742 191.454545 
" style="fill:none;stroke:#b0b0b0;stroke-linecap:square;stroke-width:0.8;"/>
     </g>
     <g id="line2d_130">
      <g>
       <use style="stroke:#000000;stroke-width:0.8;" x="1248.014742" xlink:href="#mc07e1a72b6" y="315"/>
      </g>
     </g>
     <g id="text_54">
      <!-- 70 -->
      <g transform="translate(1241.652242 329.598437)scale(0.1 -0.1)">
       <use xlink:href="#DejaVuSans-37"/>
       <use x="63.623047" xlink:href="#DejaVuSans-30"/>
      </g>
     </g>
    </g>
   </g>
   <g id="matplotlib.axis_8">
    <g id="ytick_16">
     <g id="line2d_131">
      <path clip-path="url(#p9304526986)" d="M 788.727273 295.399248 
L 1296 295.399248 
" style="fill:none;stroke:#b0b0b0;stroke-linecap:square;stroke-width:0.8;"/>
     </g>
     <g id="line2d_132">
      <g>
       <use style="stroke:#000000;stroke-width:0.8;" x="788.727273" xlink:href="#m01e299e546" y="295.399248"/>
      </g>
     </g>
    </g>
    <g id="ytick_17">
     <g id="line2d_133">
      <path clip-path="url(#p9304526986)" d="M 788.727273 274.504224 
L 1296 274.504224 
" style="fill:none;stroke:#b0b0b0;stroke-linecap:square;stroke-width:0.8;"/>
     </g>
     <g id="line2d_134">
      <g>
       <use style="stroke:#000000;stroke-width:0.8;" x="788.727273" xlink:href="#m01e299e546" y="274.504224"/>
      </g>
     </g>
    </g>
    <g id="ytick_18">
     <g id="line2d_135">
      <path clip-path="url(#p9304526986)" d="M 788.727273 253.609201 
L 1296 253.609201 
" style="fill:none;stroke:#b0b0b0;stroke-linecap:square;stroke-width:0.8;"/>
     </g>
     <g id="line2d_136">
      <g>
       <use style="stroke:#000000;stroke-width:0.8;" x="788.727273" xlink:href="#m01e299e546" y="253.609201"/>
      </g>
     </g>
    </g>
    <g id="ytick_19">
     <g id="line2d_137">
      <path clip-path="url(#p9304526986)" d="M 788.727273 232.714177 
L 1296 232.714177 
" style="fill:none;stroke:#b0b0b0;stroke-linecap:square;stroke-width:0.8;"/>
     </g>
     <g id="line2d_138">
      <g>
       <use style="stroke:#000000;stroke-width:0.8;" x="788.727273" xlink:href="#m01e299e546" y="232.714177"/>
      </g>
     </g>
    </g>
    <g id="ytick_20">
     <g id="line2d_139">
      <path clip-path="url(#p9304526986)" d="M 788.727273 211.819153 
L 1296 211.819153 
" style="fill:none;stroke:#b0b0b0;stroke-linecap:square;stroke-width:0.8;"/>
     </g>
     <g id="line2d_140">
      <g>
       <use style="stroke:#000000;stroke-width:0.8;" x="788.727273" xlink:href="#m01e299e546" y="211.819153"/>
      </g>
     </g>
    </g>
   </g>
   <g id="line2d_141">
    <path clip-path="url(#p9304526986)" d="M 811.785124 238.853969 
L 818.016976 250.905145 
L 824.248827 241.639981 
L 830.480679 235.857227 
L 836.712531 244.508135 
L 842.944382 246.15578 
L 849.176234 217.726441 
L 855.408086 215.121138 
L 861.639937 224.974261 
L 867.871789 220.804747 
L 874.103641 222.788745 
L 880.335493 250.16524 
L 886.567344 226.140845 
L 892.799196 217.691454 
L 899.031048 231.660573 
L 905.262899 250.337537 
L 911.494751 238.757134 
L 917.726603 254.232313 
L 923.958454 218.446207 
L 930.190306 206.041143 
L 936.422158 242.575635 
L 942.654009 240.498255 
L 948.885861 248.423724 
L 955.117713 261.830282 
L 961.349564 240.365676 
L 967.581416 252.622949 
L 973.813268 261.980894 
L 980.045119 258.307493 
L 986.276971 239.746638 
L 992.508823 207.990147 
L 998.740675 217.902913 
L 1004.972526 205.842413 
L 1011.204378 224.87733 
L 1017.43623 234.865963 
L 1023.668081 214.211833 
L 1029.899933 258.661727 
L 1036.131785 267.780645 
L 1042.363636 205.848032 
L 1048.595488 232.510972 
L 1054.82734 208.238512 
L 1061.059191 225.777898 
L 1067.291043 230.270661 
L 1073.522895 226.834207 
L 1079.754746 200.980551 
L 1085.986598 265.594623 
L 1092.21845 242.733517 
L 1098.450302 249.515285 
L 1104.682153 248.293628 
L 1110.914005 247.956195 
L 1117.145857 269.573316 
L 1123.377708 249.347925 
L 1129.60956 251.152887 
L 1135.841412 209.300093 
L 1142.073263 224.610539 
L 1148.305115 249.066596 
L 1154.536967 252.45662 
L 1160.768818 197.070248 
L 1167.00067 265.591091 
L 1173.232522 230.926381 
L 1179.464373 242.97097 
L 1185.696225 234.1187 
L 1191.928077 251.637684 
L 1198.159929 226.695174 
L 1204.39178 236.076426 
L 1210.623632 251.913401 
L 1216.855484 234.90238 
L 1223.087335 226.108205 
L 1229.319187 254.709636 
L 1235.551039 239.937196 
L 1241.78289 225.89765 
L 1248.014742 232.248886 
L 1254.246594 259.853813 
L 1260.478445 246.069318 
L 1266.710297 239.726236 
L 1272.942149 236.747482 
" style="fill:none;stroke:#1f77b4;stroke-linecap:square;stroke-width:1.5;"/>
   </g>
   <g id="line2d_142">
    <path clip-path="url(#p9304526986)" d="M 811.785124 209.060583 
L 818.016976 223.977914 
L 824.248827 222.004197 
L 830.480679 220.585758 
L 836.712531 229.270996 
L 842.944382 221.557118 
L 849.176234 251.314836 
L 855.408086 240.795991 
L 861.639937 247.502969 
L 867.871789 227.141217 
L 874.103641 228.514577 
L 880.335493 240.337158 
L 886.567344 231.31831 
L 892.799196 249.045865 
L 899.031048 237.463448 
L 905.262899 234.880856 
L 911.494751 216.7516 
L 917.726603 232.450356 
L 923.958454 272.753362 
L 930.190306 252.808338 
L 936.422158 239.819545 
L 942.654009 239.449057 
L 948.885861 236.689041 
L 955.117713 261.247912 
L 961.349564 244.485587 
L 967.581416 221.129664 
L 973.813268 260.771567 
L 980.045119 259.640376 
L 986.276971 242.027485 
L 992.508823 286.814041 
L 998.740675 280.916333 
L 1004.972526 273.529395 
L 1011.204378 272.216292 
L 1017.43623 220.152255 
L 1023.668081 297.726202 
L 1029.899933 247.307016 
L 1036.131785 238.342449 
L 1042.363636 268.543045 
L 1048.595488 234.584966 
L 1054.82734 296.150336 
L 1061.059191 252.992716 
L 1067.291043 253.548965 
L 1073.522895 230.605309 
L 1079.754746 298.047663 
L 1085.986598 251.164987 
L 1092.21845 201.475824 
L 1098.450302 226.746592 
L 1104.682153 222.138004 
L 1110.914005 220.753819 
L 1117.145857 243.161626 
L 1123.377708 247.322641 
L 1129.60956 240.780383 
L 1135.841412 268.951175 
L 1142.073263 240.932771 
L 1148.305115 243.342113 
L 1154.536967 245.764719 
L 1160.768818 294.21005 
L 1167.00067 244.947172 
L 1173.232522 250.862892 
L 1179.464373 233.517768 
L 1185.696225 246.301296 
L 1191.928077 245.286829 
L 1198.159929 232.605676 
L 1204.39178 237.290827 
L 1210.623632 208.624191 
L 1216.855484 206.345923 
L 1223.087335 245.561019 
L 1229.319187 219.800801 
L 1235.551039 227.293913 
L 1241.78289 244.681501 
L 1248.014742 233.372348 
L 1254.246594 236.051238 
L 1260.478445 218.417077 
L 1266.710297 220.523997 
L 1272.942149 231.158749 
" style="fill:none;stroke:#ff7f0e;stroke-linecap:square;stroke-width:1.5;"/>
   </g>
   <g id="line2d_143">
    <path clip-path="url(#p9304526986)" d="M 811.785124 245.425909 
L 818.016976 227.206493 
L 824.248827 243.656098 
L 830.480679 245.292752 
L 836.712531 245.201245 
L 842.944382 230.854881 
L 849.176234 264.900166 
L 855.408086 291.014963 
L 861.639937 256.740951 
L 867.871789 268.303998 
L 874.103641 263.956879 
L 880.335493 243.808038 
L 886.567344 264.98697 
L 892.799196 260.120388 
L 899.031048 261.572757 
L 905.262899 228.548934 
L 911.494751 251.117879 
L 917.726603 225.024376 
L 923.958454 214.88856 
L 930.190306 270.127318 
L 936.422158 292.481976 
L 942.654009 296.520834 
L 948.885861 242.144712 
L 955.117713 254.840531 
L 961.349564 294.702943 
L 967.581416 208.443151 
L 973.813268 252.981088 
L 980.045119 258.1208 
L 986.276971 294.999389 
L 992.508823 251.101845 
L 998.740675 244.693273 
L 1004.972526 250.002899 
L 1011.204378 226.198078 
L 1017.43623 252.826345 
L 1023.668081 230.734887 
L 1029.899933 236.475589 
L 1036.131785 210.453242 
L 1042.363636 253.885343 
L 1048.595488 270.786825 
L 1054.82734 226.765072 
L 1061.059191 220.840212 
L 1067.291043 273.123082 
L 1073.522895 239.598865 
L 1079.754746 223.072298 
L 1085.986598 237.249959 
L 1092.21845 224.912099 
L 1098.450302 224.482851 
L 1104.682153 243.398734 
L 1110.914005 262.01201 
L 1117.145857 225.363617 
L 1123.377708 300.342891 
L 1129.60956 294.322736 
L 1135.841412 249.930067 
L 1142.073263 262.072932 
L 1148.305115 293.666271 
L 1154.536967 298.070357 
L 1160.768818 223.729845 
L 1167.00067 220.533042 
L 1173.232522 299.101664 
L 1179.464373 255.480971 
L 1185.696225 240.262596 
L 1191.928077 295.068195 
L 1198.159929 268.067646 
L 1204.39178 277.759745 
L 1210.623632 221.342601 
L 1216.855484 232.469476 
L 1223.087335 269.171146 
L 1229.319187 257.339263 
L 1235.551039 264.256889 
L 1241.78289 257.115046 
L 1248.014742 235.623319 
L 1254.246594 222.443971 
L 1260.478445 253.594817 
L 1266.710297 246.517681 
L 1272.942149 237.37019 
" style="fill:none;stroke:#2ca02c;stroke-linecap:square;stroke-width:1.5;"/>
   </g>
   <g id="line2d_144">
    <path clip-path="url(#p9304526986)" d="M 811.785124 309.384298 
L 818.016976 306.672341 
L 824.248827 302.089554 
L 830.480679 294.178333 
L 836.712531 293.338813 
L 842.944382 292.549637 
L 849.176234 291.232621 
L 855.408086 289.202334 
L 861.639937 289.0265 
L 867.871789 288.698131 
L 874.103641 278.817556 
L 880.335493 275.403402 
L 886.567344 274.488884 
L 892.799196 272.564384 
L 899.031048 272.16902 
L 905.262899 272.141296 
L 911.494751 271.068463 
L 917.726603 269.581783 
L 923.958454 266.091683 
L 930.190306 265.661857 
L 936.422158 263.213622 
L 942.654009 259.772727 
L 948.885861 257.834789 
L 955.117713 256.589715 
L 961.349564 255.984575 
L 967.581416 255.476372 
L 973.813268 255.016289 
L 980.045119 254.4639 
L 986.276971 254.402912 
L 992.508823 252.935671 
L 998.740675 252.617093 
L 1004.972526 252.541927 
L 1011.204378 252.192025 
L 1017.43623 251.505497 
L 1023.668081 249.552564 
L 1029.899933 248.911478 
L 1036.131785 248.140879 
L 1042.363636 247.813574 
L 1048.595488 246.069087 
L 1054.82734 245.807184 
L 1061.059191 245.459302 
L 1067.291043 245.297246 
L 1073.522895 242.986384 
L 1079.754746 242.67521 
L 1085.986598 242.287503 
L 1092.21845 242.15604 
L 1098.450302 240.755019 
L 1104.682153 240.196583 
L 1110.914005 239.312756 
L 1117.145857 238.439805 
L 1123.377708 238.029167 
L 1129.60956 237.813954 
L 1135.841412 237.635443 
L 1142.073263 237.24396 
L 1148.305115 236.413401 
L 1154.536967 236.030956 
L 1160.768818 235.942481 
L 1167.00067 235.075809 
L 1173.232522 234.47621 
L 1179.464373 234.341198 
L 1185.696225 234.188825 
L 1191.928077 234.110432 
L 1198.159929 231.653146 
L 1204.39178 222.640186 
L 1210.623632 220.627356 
L 1216.855484 219.845149 
L 1223.087335 219.268917 
L 1229.319187 218.65844 
L 1235.551039 217.37965 
L 1241.78289 217.291603 
L 1248.014742 216.225323 
L 1254.246594 216.100426 
L 1260.478445 214.239246 
L 1266.710297 212.520493 
L 1272.942149 212.370004 
" style="fill:none;stroke:#d62728;stroke-linecap:square;stroke-width:1.5;"/>
   </g>
   <g id="patch_21">
    <path d="M 788.727273 315 
L 788.727273 191.454545 
" style="fill:none;stroke:#000000;stroke-linecap:square;stroke-linejoin:miter;stroke-width:0.8;"/>
   </g>
   <g id="patch_22">
    <path d="M 1296 315 
L 1296 191.454545 
" style="fill:none;stroke:#000000;stroke-linecap:square;stroke-linejoin:miter;stroke-width:0.8;"/>
   </g>
   <g id="patch_23">
    <path d="M 788.727273 315 
L 1296 315 
" style="fill:none;stroke:#000000;stroke-linecap:square;stroke-linejoin:miter;stroke-width:0.8;"/>
   </g>
   <g id="patch_24">
    <path d="M 788.727273 191.454545 
L 1296 191.454545 
" style="fill:none;stroke:#000000;stroke-linecap:square;stroke-linejoin:miter;stroke-width:0.8;"/>
   </g>
   <g id="legend_4">
    <g id="patch_25">
     <path d="M 1235.357812 310 
L 1289 310 
Q 1291 310 1291 308 
L 1291 250.2875 
Q 1291 248.2875 1289 248.2875 
L 1235.357812 248.2875 
Q 1233.357812 248.2875 1233.357812 250.2875 
L 1233.357812 308 
Q 1233.357812 310 1235.357812 310 
z
" style="fill:#ffffff;opacity:0.8;stroke:#cccccc;stroke-linejoin:miter;"/>
    </g>
    <g id="line2d_145">
     <path d="M 1237.357812 256.385937 
L 1257.357812 256.385937 
" style="fill:none;stroke:#1f77b4;stroke-linecap:square;stroke-width:1.5;"/>
    </g>
    <g id="line2d_146"/>
    <g id="text_55">
     <!-- egi1 -->
     <g transform="translate(1265.357812 259.885937)scale(0.1 -0.1)">
      <use xlink:href="#DejaVuSans-65"/>
      <use x="61.523438" xlink:href="#DejaVuSans-67"/>
      <use x="125" xlink:href="#DejaVuSans-69"/>
      <use x="152.783203" xlink:href="#DejaVuSans-31"/>
     </g>
    </g>
    <g id="line2d_147">
     <path d="M 1237.357812 271.064062 
L 1257.357812 271.064062 
" style="fill:none;stroke:#ff7f0e;stroke-linecap:square;stroke-width:1.5;"/>
    </g>
    <g id="line2d_148"/>
    <g id="text_56">
     <!-- egi2 -->
     <g transform="translate(1265.357812 274.564062)scale(0.1 -0.1)">
      <use xlink:href="#DejaVuSans-65"/>
      <use x="61.523438" xlink:href="#DejaVuSans-67"/>
      <use x="125" xlink:href="#DejaVuSans-69"/>
      <use x="152.783203" xlink:href="#DejaVuSans-32"/>
     </g>
    </g>
    <g id="line2d_149">
     <path d="M 1237.357812 285.742187 
L 1257.357812 285.742187 
" style="fill:none;stroke:#2ca02c;stroke-linecap:square;stroke-width:1.5;"/>
    </g>
    <g id="line2d_150"/>
    <g id="text_57">
     <!-- egi3 -->
     <g transform="translate(1265.357812 289.242187)scale(0.1 -0.1)">
      <use xlink:href="#DejaVuSans-65"/>
      <use x="61.523438" xlink:href="#DejaVuSans-67"/>
      <use x="125" xlink:href="#DejaVuSans-69"/>
      <use x="152.783203" xlink:href="#DejaVuSans-33"/>
     </g>
    </g>
    <g id="line2d_151">
     <path d="M 1237.357812 300.420312 
L 1257.357812 300.420312 
" style="fill:none;stroke:#d62728;stroke-linecap:square;stroke-width:1.5;"/>
    </g>
    <g id="line2d_152"/>
    <g id="text_58">
     <!-- egi4 -->
     <g transform="translate(1265.357812 303.920312)scale(0.1 -0.1)">
      <use xlink:href="#DejaVuSans-65"/>
      <use x="61.523438" xlink:href="#DejaVuSans-67"/>
      <use x="125" xlink:href="#DejaVuSans-69"/>
      <use x="152.783203" xlink:href="#DejaVuSans-34"/>
     </g>
    </g>
   </g>
  </g>
 </g>
 <defs>
  <clipPath id="p0a120b9a1a">
   <rect height="123.545455" width="507.272727" x="180" y="43.2"/>
  </clipPath>
  <clipPath id="p3b327afd8f">
   <rect height="123.545455" width="507.272727" x="788.727273" y="43.2"/>
  </clipPath>
  <clipPath id="p3b5de86eb1">
   <rect height="123.545455" width="507.272727" x="180" y="191.454545"/>
  </clipPath>
  <clipPath id="p9304526986">
   <rect height="123.545455" width="507.272727" x="788.727273" y="191.454545"/>
  </clipPath>
 </defs>
</svg>
