<?xml version="1.0" encoding="utf-8" standalone="no"?>
<!DOCTYPE svg PUBLIC "-//W3C//DTD SVG 1.1//EN"
  "http://www.w3.org/Graphics/SVG/1.1/DTD/svg11.dtd">
<!-- Created with matplotlib (http://matplotlib.org/) -->
<svg height="432pt" version="1.1" viewBox="0 0 1152 432" width="1152pt" xmlns="http://www.w3.org/2000/svg" xmlns:xlink="http://www.w3.org/1999/xlink">
 <defs>
  <style type="text/css">
*{stroke-linecap:butt;stroke-linejoin:round;}
  </style>
 </defs>
 <g id="figure_1">
  <g id="patch_1">
   <path d="M 0 432 
L 1152 432 
L 1152 0 
L 0 0 
z
" style="fill:#ffffff;"/>
  </g>
  <g id="axes_1">
   <g id="patch_2">
    <path d="M 144 345.6 
L 549.818182 345.6 
L 549.818182 51.84 
L 144 51.84 
z
" style="fill:#ffffff;"/>
   </g>
   <g id="matplotlib.axis_1">
    <g id="xtick_1">
     <g id="line2d_1">
      <path clip-path="url(#p9cd274e959)" d="M 162.446281 345.6 
L 162.446281 51.84 
" style="fill:none;stroke:#b0b0b0;stroke-linecap:square;stroke-width:0.8;"/>
     </g>
     <g id="line2d_2">
      <defs>
       <path d="M 0 0 
L 0 3.5 
" id="m3a21102010" style="stroke:#000000;stroke-width:0.8;"/>
      </defs>
      <g>
       <use style="stroke:#000000;stroke-width:0.8;" x="162.446281" xlink:href="#m3a21102010" y="345.6"/>
      </g>
     </g>
     <g id="text_1">
      <!-- Jan -->
      <defs>
       <path d="M 9.8125 72.90625 
L 19.671875 72.90625 
L 19.671875 5.078125 
Q 19.671875 -8.109375 14.671875 -14.0625 
Q 9.671875 -20.015625 -1.421875 -20.015625 
L -5.171875 -20.015625 
L -5.171875 -11.71875 
L -2.09375 -11.71875 
Q 4.4375 -11.71875 7.125 -8.046875 
Q 9.8125 -4.390625 9.8125 5.078125 
z
" id="DejaVuSans-4a"/>
       <path d="M 34.28125 27.484375 
Q 23.390625 27.484375 19.1875 25 
Q 14.984375 22.515625 14.984375 16.5 
Q 14.984375 11.71875 18.140625 8.90625 
Q 21.296875 6.109375 26.703125 6.109375 
Q 34.1875 6.109375 38.703125 11.40625 
Q 43.21875 16.703125 43.21875 25.484375 
L 43.21875 27.484375 
z
M 52.203125 31.203125 
L 52.203125 0 
L 43.21875 0 
L 43.21875 8.296875 
Q 40.140625 3.328125 35.546875 0.953125 
Q 30.953125 -1.421875 24.3125 -1.421875 
Q 15.921875 -1.421875 10.953125 3.296875 
Q 6 8.015625 6 15.921875 
Q 6 25.140625 12.171875 29.828125 
Q 18.359375 34.515625 30.609375 34.515625 
L 43.21875 34.515625 
L 43.21875 35.40625 
Q 43.21875 41.609375 39.140625 45 
Q 35.0625 48.390625 27.6875 48.390625 
Q 23 48.390625 18.546875 47.265625 
Q 14.109375 46.140625 10.015625 43.890625 
L 10.015625 52.203125 
Q 14.9375 54.109375 19.578125 55.046875 
Q 24.21875 56 28.609375 56 
Q 40.484375 56 46.34375 49.84375 
Q 52.203125 43.703125 52.203125 31.203125 
" id="DejaVuSans-61"/>
       <path d="M 54.890625 33.015625 
L 54.890625 0 
L 45.90625 0 
L 45.90625 32.71875 
Q 45.90625 40.484375 42.875 44.328125 
Q 39.84375 48.1875 33.796875 48.1875 
Q 26.515625 48.1875 22.3125 43.546875 
Q 18.109375 38.921875 18.109375 30.90625 
L 18.109375 0 
L 9.078125 0 
L 9.078125 54.6875 
L 18.109375 54.6875 
L 18.109375 46.1875 
Q 21.34375 51.125 25.703125 53.5625 
Q 30.078125 56 35.796875 56 
Q 45.21875 56 50.046875 50.171875 
Q 54.890625 44.34375 54.890625 33.015625 
" id="DejaVuSans-6e"/>
      </defs>
      <g transform="translate(148.056114 366.888252)rotate(-30)scale(0.1 -0.1)">
       <use xlink:href="#DejaVuSans-4a"/>
       <use x="29.492188" xlink:href="#DejaVuSans-61"/>
       <use x="90.771484" xlink:href="#DejaVuSans-6e"/>
      </g>
     </g>
    </g>
    <g id="xtick_2">
     <g id="line2d_3">
      <path clip-path="url(#p9cd274e959)" d="M 253.664154 345.6 
L 253.664154 51.84 
" style="fill:none;stroke:#b0b0b0;stroke-linecap:square;stroke-width:0.8;"/>
     </g>
     <g id="line2d_4">
      <g>
       <use style="stroke:#000000;stroke-width:0.8;" x="253.664154" xlink:href="#m3a21102010" y="345.6"/>
      </g>
     </g>
     <g id="text_2">
      <!-- Apr -->
      <defs>
       <path d="M 34.1875 63.1875 
L 20.796875 26.90625 
L 47.609375 26.90625 
z
M 28.609375 72.90625 
L 39.796875 72.90625 
L 67.578125 0 
L 57.328125 0 
L 50.6875 18.703125 
L 17.828125 18.703125 
L 11.1875 0 
L 0.78125 0 
z
" id="DejaVuSans-41"/>
       <path d="M 18.109375 8.203125 
L 18.109375 -20.796875 
L 9.078125 -20.796875 
L 9.078125 54.6875 
L 18.109375 54.6875 
L 18.109375 46.390625 
Q 20.953125 51.265625 25.265625 53.625 
Q 29.59375 56 35.59375 56 
Q 45.5625 56 51.78125 48.09375 
Q 58.015625 40.1875 58.015625 27.296875 
Q 58.015625 14.40625 51.78125 6.484375 
Q 45.5625 -1.421875 35.59375 -1.421875 
Q 29.59375 -1.421875 25.265625 0.953125 
Q 20.953125 3.328125 18.109375 8.203125 
M 48.6875 27.296875 
Q 48.6875 37.203125 44.609375 42.84375 
Q 40.53125 48.484375 33.40625 48.484375 
Q 26.265625 48.484375 22.1875 42.84375 
Q 18.109375 37.203125 18.109375 27.296875 
Q 18.109375 17.390625 22.1875 11.75 
Q 26.265625 6.109375 33.40625 6.109375 
Q 40.53125 6.109375 44.609375 11.75 
Q 48.6875 17.390625 48.6875 27.296875 
" id="DejaVuSans-70"/>
       <path d="M 41.109375 46.296875 
Q 39.59375 47.171875 37.8125 47.578125 
Q 36.03125 48 33.890625 48 
Q 26.265625 48 22.1875 43.046875 
Q 18.109375 38.09375 18.109375 28.8125 
L 18.109375 0 
L 9.078125 0 
L 9.078125 54.6875 
L 18.109375 54.6875 
L 18.109375 46.1875 
Q 20.953125 51.171875 25.484375 53.578125 
Q 30.03125 56 36.53125 56 
Q 37.453125 56 38.578125 55.875 
Q 39.703125 55.765625 41.0625 55.515625 
z
" id="DejaVuSans-72"/>
      </defs>
      <g transform="translate(237.642071 367.83044)rotate(-30)scale(0.1 -0.1)">
       <use xlink:href="#DejaVuSans-41"/>
       <use x="68.408203" xlink:href="#DejaVuSans-70"/>
       <use x="131.884766" xlink:href="#DejaVuSans-72"/>
      </g>
     </g>
    </g>
    <g id="xtick_3">
     <g id="line2d_5">
      <path clip-path="url(#p9cd274e959)" d="M 345.895559 345.6 
L 345.895559 51.84 
" style="fill:none;stroke:#b0b0b0;stroke-linecap:square;stroke-width:0.8;"/>
     </g>
     <g id="line2d_6">
      <g>
       <use style="stroke:#000000;stroke-width:0.8;" x="345.895559" xlink:href="#m3a21102010" y="345.6"/>
      </g>
     </g>
     <g id="text_3">
      <!-- Jul -->
      <defs>
       <path d="M 8.5 21.578125 
L 8.5 54.6875 
L 17.484375 54.6875 
L 17.484375 21.921875 
Q 17.484375 14.15625 20.5 10.265625 
Q 23.53125 6.390625 29.59375 6.390625 
Q 36.859375 6.390625 41.078125 11.03125 
Q 45.3125 15.671875 45.3125 23.6875 
L 45.3125 54.6875 
L 54.296875 54.6875 
L 54.296875 0 
L 45.3125 0 
L 45.3125 8.40625 
Q 42.046875 3.421875 37.71875 1 
Q 33.40625 -1.421875 27.6875 -1.421875 
Q 18.265625 -1.421875 13.375 4.4375 
Q 8.5 10.296875 8.5 21.578125 
M 31.109375 56 
z
" id="DejaVuSans-75"/>
       <path d="M 9.421875 75.984375 
L 18.40625 75.984375 
L 18.40625 0 
L 9.421875 0 
z
" id="DejaVuSans-6c"/>
      </defs>
      <g transform="translate(334.406577 365.213252)rotate(-30)scale(0.1 -0.1)">
       <use xlink:href="#DejaVuSans-4a"/>
       <use x="29.492188" xlink:href="#DejaVuSans-75"/>
       <use x="92.871094" xlink:href="#DejaVuSans-6c"/>
      </g>
     </g>
    </g>
    <g id="xtick_4">
     <g id="line2d_7">
      <path clip-path="url(#p9cd274e959)" d="M 439.140496 345.6 
L 439.140496 51.84 
" style="fill:none;stroke:#b0b0b0;stroke-linecap:square;stroke-width:0.8;"/>
     </g>
     <g id="line2d_8">
      <g>
       <use style="stroke:#000000;stroke-width:0.8;" x="439.140496" xlink:href="#m3a21102010" y="345.6"/>
      </g>
     </g>
     <g id="text_4">
      <!-- Oct -->
      <defs>
       <path d="M 39.40625 66.21875 
Q 28.65625 66.21875 22.328125 58.203125 
Q 16.015625 50.203125 16.015625 36.375 
Q 16.015625 22.609375 22.328125 14.59375 
Q 28.65625 6.59375 39.40625 6.59375 
Q 50.140625 6.59375 56.421875 14.59375 
Q 62.703125 22.609375 62.703125 36.375 
Q 62.703125 50.203125 56.421875 58.203125 
Q 50.140625 66.21875 39.40625 66.21875 
M 39.40625 74.21875 
Q 54.734375 74.21875 63.90625 63.9375 
Q 73.09375 53.65625 73.09375 36.375 
Q 73.09375 19.140625 63.90625 8.859375 
Q 54.734375 -1.421875 39.40625 -1.421875 
Q 24.03125 -1.421875 14.8125 8.828125 
Q 5.609375 19.09375 5.609375 36.375 
Q 5.609375 53.65625 14.8125 63.9375 
Q 24.03125 74.21875 39.40625 74.21875 
" id="DejaVuSans-4f"/>
       <path d="M 48.78125 52.59375 
L 48.78125 44.1875 
Q 44.96875 46.296875 41.140625 47.34375 
Q 37.3125 48.390625 33.40625 48.390625 
Q 24.65625 48.390625 19.8125 42.84375 
Q 14.984375 37.3125 14.984375 27.296875 
Q 14.984375 17.28125 19.8125 11.734375 
Q 24.65625 6.203125 33.40625 6.203125 
Q 37.3125 6.203125 41.140625 7.25 
Q 44.96875 8.296875 48.78125 10.40625 
L 48.78125 2.09375 
Q 45.015625 0.34375 40.984375 -0.53125 
Q 36.96875 -1.421875 32.421875 -1.421875 
Q 20.0625 -1.421875 12.78125 6.34375 
Q 5.515625 14.109375 5.515625 27.296875 
Q 5.515625 40.671875 12.859375 48.328125 
Q 20.21875 56 33.015625 56 
Q 37.15625 56 41.109375 55.140625 
Q 45.0625 54.296875 48.78125 52.59375 
" id="DejaVuSans-63"/>
       <path d="M 18.3125 70.21875 
L 18.3125 54.6875 
L 36.8125 54.6875 
L 36.8125 47.703125 
L 18.3125 47.703125 
L 18.3125 18.015625 
Q 18.3125 11.328125 20.140625 9.421875 
Q 21.96875 7.515625 27.59375 7.515625 
L 36.8125 7.515625 
L 36.8125 0 
L 27.59375 0 
Q 17.1875 0 13.234375 3.875 
Q 9.28125 7.765625 9.28125 18.015625 
L 9.28125 47.703125 
L 2.6875 47.703125 
L 2.6875 54.6875 
L 9.28125 54.6875 
L 9.28125 70.21875 
z
" id="DejaVuSans-74"/>
      </defs>
      <g transform="translate(423.126532 367.825752)rotate(-30)scale(0.1 -0.1)">
       <use xlink:href="#DejaVuSans-4f"/>
       <use x="78.710938" xlink:href="#DejaVuSans-63"/>
       <use x="133.691406" xlink:href="#DejaVuSans-74"/>
      </g>
     </g>
    </g>
    <g id="xtick_5">
     <g id="line2d_9">
      <path clip-path="url(#p9cd274e959)" d="M 532.385433 345.6 
L 532.385433 51.84 
" style="fill:none;stroke:#b0b0b0;stroke-linecap:square;stroke-width:0.8;"/>
     </g>
     <g id="line2d_10">
      <g>
       <use style="stroke:#000000;stroke-width:0.8;" x="532.385433" xlink:href="#m3a21102010" y="345.6"/>
      </g>
     </g>
     <g id="text_5">
      <!-- Jan -->
      <g transform="translate(517.995266 366.888252)rotate(-30)scale(0.1 -0.1)">
       <use xlink:href="#DejaVuSans-4a"/>
       <use x="29.492188" xlink:href="#DejaVuSans-61"/>
       <use x="90.771484" xlink:href="#DejaVuSans-6e"/>
      </g>
     </g>
    </g>
   </g>
   <g id="matplotlib.axis_2">
    <g id="ytick_1">
     <g id="line2d_11">
      <path clip-path="url(#p9cd274e959)" d="M 144 331.541519 
L 549.818182 331.541519 
" style="fill:none;stroke:#b0b0b0;stroke-linecap:square;stroke-width:0.8;"/>
     </g>
     <g id="line2d_12">
      <defs>
       <path d="M 0 0 
L -3.5 0 
" id="m4ee96595d5" style="stroke:#000000;stroke-width:0.8;"/>
      </defs>
      <g>
       <use style="stroke:#000000;stroke-width:0.8;" x="144" xlink:href="#m4ee96595d5" y="331.541519"/>
      </g>
     </g>
     <g id="text_6">
      <!-- 0 -->
      <defs>
       <path d="M 31.78125 66.40625 
Q 24.171875 66.40625 20.328125 58.90625 
Q 16.5 51.421875 16.5 36.375 
Q 16.5 21.390625 20.328125 13.890625 
Q 24.171875 6.390625 31.78125 6.390625 
Q 39.453125 6.390625 43.28125 13.890625 
Q 47.125 21.390625 47.125 36.375 
Q 47.125 51.421875 43.28125 58.90625 
Q 39.453125 66.40625 31.78125 66.40625 
M 31.78125 74.21875 
Q 44.046875 74.21875 50.515625 64.515625 
Q 56.984375 54.828125 56.984375 36.375 
Q 56.984375 17.96875 50.515625 8.265625 
Q 44.046875 -1.421875 31.78125 -1.421875 
Q 19.53125 -1.421875 13.0625 8.265625 
Q 6.59375 17.96875 6.59375 36.375 
Q 6.59375 54.828125 13.0625 64.515625 
Q 19.53125 74.21875 31.78125 74.21875 
" id="DejaVuSans-30"/>
      </defs>
      <g transform="translate(130.6375 335.340737)scale(0.1 -0.1)">
       <use xlink:href="#DejaVuSans-30"/>
      </g>
     </g>
    </g>
    <g id="ytick_2">
     <g id="line2d_13">
      <path clip-path="url(#p9cd274e959)" d="M 144 286.865498 
L 549.818182 286.865498 
" style="fill:none;stroke:#b0b0b0;stroke-linecap:square;stroke-width:0.8;"/>
     </g>
     <g id="line2d_14">
      <g>
       <use style="stroke:#000000;stroke-width:0.8;" x="144" xlink:href="#m4ee96595d5" y="286.865498"/>
      </g>
     </g>
     <g id="text_7">
      <!-- 10 -->
      <defs>
       <path d="M 12.40625 8.296875 
L 28.515625 8.296875 
L 28.515625 63.921875 
L 10.984375 60.40625 
L 10.984375 69.390625 
L 28.421875 72.90625 
L 38.28125 72.90625 
L 38.28125 8.296875 
L 54.390625 8.296875 
L 54.390625 0 
L 12.40625 0 
z
" id="DejaVuSans-31"/>
      </defs>
      <g transform="translate(124.275 290.664717)scale(0.1 -0.1)">
       <use xlink:href="#DejaVuSans-31"/>
       <use x="63.623047" xlink:href="#DejaVuSans-30"/>
      </g>
     </g>
    </g>
    <g id="ytick_3">
     <g id="line2d_15">
      <path clip-path="url(#p9cd274e959)" d="M 144 242.189478 
L 549.818182 242.189478 
" style="fill:none;stroke:#b0b0b0;stroke-linecap:square;stroke-width:0.8;"/>
     </g>
     <g id="line2d_16">
      <g>
       <use style="stroke:#000000;stroke-width:0.8;" x="144" xlink:href="#m4ee96595d5" y="242.189478"/>
      </g>
     </g>
     <g id="text_8">
      <!-- 20 -->
      <defs>
       <path d="M 19.1875 8.296875 
L 53.609375 8.296875 
L 53.609375 0 
L 7.328125 0 
L 7.328125 8.296875 
Q 12.9375 14.109375 22.625 23.890625 
Q 32.328125 33.6875 34.8125 36.53125 
Q 39.546875 41.84375 41.421875 45.53125 
Q 43.3125 49.21875 43.3125 52.78125 
Q 43.3125 58.59375 39.234375 62.25 
Q 35.15625 65.921875 28.609375 65.921875 
Q 23.96875 65.921875 18.8125 64.3125 
Q 13.671875 62.703125 7.8125 59.421875 
L 7.8125 69.390625 
Q 13.765625 71.78125 18.9375 73 
Q 24.125 74.21875 28.421875 74.21875 
Q 39.75 74.21875 46.484375 68.546875 
Q 53.21875 62.890625 53.21875 53.421875 
Q 53.21875 48.921875 51.53125 44.890625 
Q 49.859375 40.875 45.40625 35.40625 
Q 44.1875 33.984375 37.640625 27.21875 
Q 31.109375 20.453125 19.1875 8.296875 
" id="DejaVuSans-32"/>
      </defs>
      <g transform="translate(124.275 245.988697)scale(0.1 -0.1)">
       <use xlink:href="#DejaVuSans-32"/>
       <use x="63.623047" xlink:href="#DejaVuSans-30"/>
      </g>
     </g>
    </g>
    <g id="ytick_4">
     <g id="line2d_17">
      <path clip-path="url(#p9cd274e959)" d="M 144 197.513458 
L 549.818182 197.513458 
" style="fill:none;stroke:#b0b0b0;stroke-linecap:square;stroke-width:0.8;"/>
     </g>
     <g id="line2d_18">
      <g>
       <use style="stroke:#000000;stroke-width:0.8;" x="144" xlink:href="#m4ee96595d5" y="197.513458"/>
      </g>
     </g>
     <g id="text_9">
      <!-- 30 -->
      <defs>
       <path d="M 40.578125 39.3125 
Q 47.65625 37.796875 51.625 33 
Q 55.609375 28.21875 55.609375 21.1875 
Q 55.609375 10.40625 48.1875 4.484375 
Q 40.765625 -1.421875 27.09375 -1.421875 
Q 22.515625 -1.421875 17.65625 -0.515625 
Q 12.796875 0.390625 7.625 2.203125 
L 7.625 11.71875 
Q 11.71875 9.328125 16.59375 8.109375 
Q 21.484375 6.890625 26.8125 6.890625 
Q 36.078125 6.890625 40.9375 10.546875 
Q 45.796875 14.203125 45.796875 21.1875 
Q 45.796875 27.640625 41.28125 31.265625 
Q 36.765625 34.90625 28.71875 34.90625 
L 20.21875 34.90625 
L 20.21875 43.015625 
L 29.109375 43.015625 
Q 36.375 43.015625 40.234375 45.921875 
Q 44.09375 48.828125 44.09375 54.296875 
Q 44.09375 59.90625 40.109375 62.90625 
Q 36.140625 65.921875 28.71875 65.921875 
Q 24.65625 65.921875 20.015625 65.03125 
Q 15.375 64.15625 9.8125 62.3125 
L 9.8125 71.09375 
Q 15.4375 72.65625 20.34375 73.4375 
Q 25.25 74.21875 29.59375 74.21875 
Q 40.828125 74.21875 47.359375 69.109375 
Q 53.90625 64.015625 53.90625 55.328125 
Q 53.90625 49.265625 50.4375 45.09375 
Q 46.96875 40.921875 40.578125 39.3125 
" id="DejaVuSans-33"/>
      </defs>
      <g transform="translate(124.275 201.312676)scale(0.1 -0.1)">
       <use xlink:href="#DejaVuSans-33"/>
       <use x="63.623047" xlink:href="#DejaVuSans-30"/>
      </g>
     </g>
    </g>
    <g id="ytick_5">
     <g id="line2d_19">
      <path clip-path="url(#p9cd274e959)" d="M 144 152.837437 
L 549.818182 152.837437 
" style="fill:none;stroke:#b0b0b0;stroke-linecap:square;stroke-width:0.8;"/>
     </g>
     <g id="line2d_20">
      <g>
       <use style="stroke:#000000;stroke-width:0.8;" x="144" xlink:href="#m4ee96595d5" y="152.837437"/>
      </g>
     </g>
     <g id="text_10">
      <!-- 40 -->
      <defs>
       <path d="M 37.796875 64.3125 
L 12.890625 25.390625 
L 37.796875 25.390625 
z
M 35.203125 72.90625 
L 47.609375 72.90625 
L 47.609375 25.390625 
L 58.015625 25.390625 
L 58.015625 17.1875 
L 47.609375 17.1875 
L 47.609375 0 
L 37.796875 0 
L 37.796875 17.1875 
L 4.890625 17.1875 
L 4.890625 26.703125 
z
" id="DejaVuSans-34"/>
      </defs>
      <g transform="translate(124.275 156.636656)scale(0.1 -0.1)">
       <use xlink:href="#DejaVuSans-34"/>
       <use x="63.623047" xlink:href="#DejaVuSans-30"/>
      </g>
     </g>
    </g>
    <g id="ytick_6">
     <g id="line2d_21">
      <path clip-path="url(#p9cd274e959)" d="M 144 108.161417 
L 549.818182 108.161417 
" style="fill:none;stroke:#b0b0b0;stroke-linecap:square;stroke-width:0.8;"/>
     </g>
     <g id="line2d_22">
      <g>
       <use style="stroke:#000000;stroke-width:0.8;" x="144" xlink:href="#m4ee96595d5" y="108.161417"/>
      </g>
     </g>
     <g id="text_11">
      <!-- 50 -->
      <defs>
       <path d="M 10.796875 72.90625 
L 49.515625 72.90625 
L 49.515625 64.59375 
L 19.828125 64.59375 
L 19.828125 46.734375 
Q 21.96875 47.46875 24.109375 47.828125 
Q 26.265625 48.1875 28.421875 48.1875 
Q 40.625 48.1875 47.75 41.5 
Q 54.890625 34.8125 54.890625 23.390625 
Q 54.890625 11.625 47.5625 5.09375 
Q 40.234375 -1.421875 26.90625 -1.421875 
Q 22.3125 -1.421875 17.546875 -0.640625 
Q 12.796875 0.140625 7.71875 1.703125 
L 7.71875 11.625 
Q 12.109375 9.234375 16.796875 8.0625 
Q 21.484375 6.890625 26.703125 6.890625 
Q 35.15625 6.890625 40.078125 11.328125 
Q 45.015625 15.765625 45.015625 23.390625 
Q 45.015625 31 40.078125 35.4375 
Q 35.15625 39.890625 26.703125 39.890625 
Q 22.75 39.890625 18.8125 39.015625 
Q 14.890625 38.140625 10.796875 36.28125 
z
" id="DejaVuSans-35"/>
      </defs>
      <g transform="translate(124.275 111.960636)scale(0.1 -0.1)">
       <use xlink:href="#DejaVuSans-35"/>
       <use x="63.623047" xlink:href="#DejaVuSans-30"/>
      </g>
     </g>
    </g>
    <g id="ytick_7">
     <g id="line2d_23">
      <path clip-path="url(#p9cd274e959)" d="M 144 63.485396 
L 549.818182 63.485396 
" style="fill:none;stroke:#b0b0b0;stroke-linecap:square;stroke-width:0.8;"/>
     </g>
     <g id="line2d_24">
      <g>
       <use style="stroke:#000000;stroke-width:0.8;" x="144" xlink:href="#m4ee96595d5" y="63.485396"/>
      </g>
     </g>
     <g id="text_12">
      <!-- 60 -->
      <defs>
       <path d="M 33.015625 40.375 
Q 26.375 40.375 22.484375 35.828125 
Q 18.609375 31.296875 18.609375 23.390625 
Q 18.609375 15.53125 22.484375 10.953125 
Q 26.375 6.390625 33.015625 6.390625 
Q 39.65625 6.390625 43.53125 10.953125 
Q 47.40625 15.53125 47.40625 23.390625 
Q 47.40625 31.296875 43.53125 35.828125 
Q 39.65625 40.375 33.015625 40.375 
M 52.59375 71.296875 
L 52.59375 62.3125 
Q 48.875 64.0625 45.09375 64.984375 
Q 41.3125 65.921875 37.59375 65.921875 
Q 27.828125 65.921875 22.671875 59.328125 
Q 17.53125 52.734375 16.796875 39.40625 
Q 19.671875 43.65625 24.015625 45.921875 
Q 28.375 48.1875 33.59375 48.1875 
Q 44.578125 48.1875 50.953125 41.515625 
Q 57.328125 34.859375 57.328125 23.390625 
Q 57.328125 12.15625 50.6875 5.359375 
Q 44.046875 -1.421875 33.015625 -1.421875 
Q 20.359375 -1.421875 13.671875 8.265625 
Q 6.984375 17.96875 6.984375 36.375 
Q 6.984375 53.65625 15.1875 63.9375 
Q 23.390625 74.21875 37.203125 74.21875 
Q 40.921875 74.21875 44.703125 73.484375 
Q 48.484375 72.75 52.59375 71.296875 
" id="DejaVuSans-36"/>
      </defs>
      <g transform="translate(124.275 67.284615)scale(0.1 -0.1)">
       <use xlink:href="#DejaVuSans-36"/>
       <use x="63.623047" xlink:href="#DejaVuSans-30"/>
      </g>
     </g>
    </g>
   </g>
   <g id="line2d_25">
    <path clip-path="url(#p9cd274e959)" d="M 162.446281 329.352415 
L 163.459813 331.402628 
L 164.473345 332.247273 
L 165.486877 329.528734 
L 166.500409 327.352499 
L 167.513941 327.109757 
L 168.527473 329.389999 
L 169.541004 323.105954 
L 171.568068 319.190142 
L 172.5816 323.733236 
L 173.595132 324.263994 
L 174.608664 322.695999 
L 175.622196 316.091971 
L 176.635728 316.766282 
L 177.64926 322.382929 
L 178.662792 322.010445 
L 180.689856 319.775543 
L 182.716919 327.236444 
L 183.730451 327.317755 
L 185.757515 320.072842 
L 186.771047 315.161162 
L 187.784579 319.792833 
L 188.798111 323.473916 
L 189.811643 326.353197 
L 190.825175 330.156293 
L 191.838707 327.250079 
L 192.852239 325.029697 
L 193.865771 321.473681 
L 194.879303 324.454123 
L 195.892834 324.002433 
L 196.906366 320.471238 
L 197.919898 317.892214 
L 198.93343 319.660092 
L 199.946962 313.052015 
L 200.960494 318.020735 
L 201.974026 317.01258 
L 202.987558 316.214723 
L 204.00109 313.454033 
L 205.014622 310.269959 
L 206.028154 311.600533 
L 207.041686 312.201403 
L 208.055218 314.143603 
L 209.068749 310.46028 
L 211.095813 302.163311 
L 212.109345 302.964281 
L 213.122877 307.630234 
L 214.136409 305.327755 
L 215.149941 299.369342 
L 216.163473 298.847332 
L 217.177005 299.846728 
L 218.190537 300.342082 
L 219.204069 307.185211 
L 220.217601 306.000835 
L 221.231133 306.651106 
L 222.244664 298.049926 
L 223.258196 295.262985 
L 224.271728 296.668918 
L 225.28526 298.280686 
L 226.298792 292.208715 
L 227.312324 289.489468 
L 228.325856 290.428871 
L 229.339388 282.847517 
L 230.35292 278.795905 
L 231.366452 277.980243 
L 232.379984 280.192218 
L 233.393516 281.488626 
L 234.407047 277.224128 
L 235.420579 278.589114 
L 236.434111 277.124537 
L 237.447643 269.256116 
L 238.461175 264.173138 
L 239.474707 266.879563 
L 240.488239 266.390003 
L 241.501771 272.60745 
L 242.515303 263.685988 
L 243.528835 259.953119 
L 244.542367 258.017355 
L 245.555899 259.027522 
L 246.569431 258.951604 
L 247.582962 259.566077 
L 248.596494 262.427369 
L 249.610026 261.476014 
L 250.623558 260.787962 
L 251.63709 258.037382 
L 252.650622 252.215023 
L 253.664154 250.417489 
L 254.677686 249.86795 
L 255.691218 251.970526 
L 256.70475 246.114152 
L 257.718282 242.924035 
L 258.731814 242.399263 
L 259.745346 244.050596 
L 260.758877 243.155041 
L 261.772409 238.653067 
L 262.785941 241.318102 
L 263.799473 240.299239 
L 264.813005 234.615201 
L 265.826537 234.395469 
L 266.840069 231.916176 
L 267.853601 234.797013 
L 268.867133 233.85126 
L 269.880665 227.459864 
L 270.894197 226.626893 
L 271.907729 231.91781 
L 272.921261 234.135904 
L 273.934792 227.443071 
L 274.948324 221.705831 
L 275.961856 220.783989 
L 276.975388 221.652736 
L 277.98892 220.16235 
L 279.002452 223.704892 
L 280.015984 222.02389 
L 281.029516 218.552934 
L 282.043048 219.991136 
L 283.05658 222.462607 
L 285.083644 215.765896 
L 286.097176 212.351926 
L 287.110707 212.15886 
L 288.124239 212.194689 
L 289.137771 210.242293 
L 290.151303 207.193731 
L 291.164835 206.538681 
L 292.178367 207.462483 
L 293.191899 205.963378 
L 294.205431 206.068925 
L 295.218963 206.424081 
L 296.232495 204.208356 
L 297.246027 200.632164 
L 298.259559 194.601106 
L 299.273091 193.065579 
L 300.286622 194.59332 
L 301.300154 191.501487 
L 302.313686 192.420276 
L 303.327218 190.99783 
L 304.34075 192.105549 
L 305.354282 189.132039 
L 306.367814 190.526131 
L 307.381346 186.822838 
L 308.394878 187.495479 
L 309.40841 185.104997 
L 310.421942 183.79079 
L 311.435474 183.622227 
L 312.449006 183.268826 
L 313.462537 186.140513 
L 314.476069 187.157005 
L 315.489601 182.006964 
L 316.503133 179.182763 
L 317.516665 175.512795 
L 318.530197 174.455077 
L 319.543729 174.705228 
L 320.557261 176.159651 
L 321.570793 179.408991 
L 322.584325 178.480421 
L 323.597857 176.027388 
L 326.638452 171.157436 
L 327.651984 172.558006 
L 328.665516 171.097546 
L 329.679048 168.068498 
L 330.69258 165.944887 
L 331.706112 169.892646 
L 332.719644 169.40532 
L 333.733176 166.425793 
L 335.76024 164.476938 
L 336.773772 160.957316 
L 337.787304 160.908814 
L 338.800836 158.571302 
L 339.814367 160.282698 
L 340.827899 160.475898 
L 341.841431 160.553464 
L 342.854963 158.039991 
L 343.868495 156.044147 
L 344.882027 160.275147 
L 345.895559 154.775338 
L 346.909091 150.874729 
L 347.922623 152.052961 
L 348.936155 153.446702 
L 349.949687 151.045475 
L 350.963219 147.575725 
L 351.976751 148.236845 
L 352.990282 148.418295 
L 355.017346 139.069986 
L 356.030878 141.620936 
L 358.057942 140.666281 
L 359.071474 140.585081 
L 360.085006 139.05525 
L 361.098538 137.007802 
L 362.11207 135.936504 
L 363.125602 139.324229 
L 364.139134 136.736216 
L 365.152666 136.003389 
L 366.166197 138.152065 
L 367.179729 136.055204 
L 368.193261 134.985863 
L 369.206793 132.922446 
L 370.220325 132.165168 
L 371.233857 132.814572 
L 372.247389 132.894969 
L 373.260921 133.735872 
L 374.274453 129.395571 
L 375.287985 132.020796 
L 376.301517 134.246 
L 377.315049 135.198273 
L 378.328581 138.358067 
L 379.342112 138.594221 
L 380.355644 139.215697 
L 381.369176 137.870417 
L 382.382708 140.896723 
L 383.39624 140.593288 
L 384.409772 144.328118 
L 385.423304 144.965981 
L 386.436836 141.793805 
L 387.450368 140.508884 
L 388.4639 143.446407 
L 389.477432 145.313636 
L 390.490964 145.401477 
L 391.504496 146.701061 
L 392.518027 148.937686 
L 393.531559 149.670589 
L 394.545091 148.195238 
L 395.558623 151.101921 
L 396.572155 150.403206 
L 397.585687 150.437853 
L 399.612751 157.077131 
L 400.626283 158.807664 
L 401.639815 161.715764 
L 402.653347 159.417612 
L 403.666879 160.781779 
L 404.68041 160.076219 
L 405.693942 159.850126 
L 406.707474 163.989066 
L 407.721006 170.019825 
L 408.734538 168.609971 
L 409.74807 168.567941 
L 410.761602 171.382432 
L 411.775134 170.951972 
L 412.788666 170.831562 
L 413.802198 172.838932 
L 414.81573 173.733611 
L 415.829262 176.673341 
L 416.842794 181.451098 
L 417.856325 180.450834 
L 418.869857 178.685597 
L 420.896921 188.275309 
L 421.910453 190.758759 
L 422.923985 190.23337 
L 423.937517 188.399867 
L 424.951049 189.314336 
L 425.964581 194.904291 
L 426.978113 195.596829 
L 427.991645 195.039688 
L 430.018709 204.779027 
L 431.03224 201.414683 
L 432.045772 201.023693 
L 433.059304 200.222314 
L 434.072836 201.917637 
L 435.086368 201.593191 
L 436.0999 203.321372 
L 437.113432 203.312724 
L 438.126964 202.812122 
L 439.140496 201.729642 
L 440.154028 205.848087 
L 441.16756 207.02814 
L 442.181092 212.909038 
L 443.194624 216.580237 
L 444.208155 217.494594 
L 445.221687 216.107998 
L 446.235219 216.594603 
L 447.248751 215.431689 
L 448.262283 218.984555 
L 450.289347 219.389339 
L 451.302879 221.264913 
L 452.316411 222.835971 
L 453.329943 225.338115 
L 454.343475 225.745963 
L 455.357007 232.443929 
L 456.370539 232.78461 
L 457.38407 231.227667 
L 458.397602 232.818559 
L 459.411134 234.854968 
L 460.424666 234.822026 
L 461.438198 236.076571 
L 462.45173 238.441278 
L 464.478794 238.533321 
L 465.492326 241.468151 
L 466.505858 242.354061 
L 468.532922 255.403642 
L 469.546454 257.927728 
L 470.559985 262.036815 
L 471.573517 270.503529 
L 472.587049 265.92699 
L 473.600581 260.420533 
L 474.614113 259.537688 
L 475.627645 258.924168 
L 476.641177 260.420447 
L 477.654709 258.541722 
L 478.668241 262.141608 
L 479.681773 262.896269 
L 480.695305 263.065316 
L 481.708837 264.287375 
L 482.722369 266.852759 
L 483.7359 270.748243 
L 484.749432 280.07937 
L 485.762964 275.345105 
L 486.776496 272.242219 
L 487.790028 273.51525 
L 488.80356 278.650126 
L 489.817092 280.639898 
L 490.830624 286.999103 
L 491.844156 291.30974 
L 492.857688 295.112934 
L 493.87122 292.89293 
L 494.884752 291.718106 
L 495.898284 296.674841 
L 496.911815 303.012518 
L 497.925347 301.083769 
L 498.938879 303.67676 
L 499.952411 302.574136 
L 500.965943 300.281501 
L 501.979475 295.080108 
L 502.993007 296.74369 
L 504.006539 302.966987 
L 505.020071 304.490745 
L 506.033603 305.518969 
L 507.047135 308.635788 
L 508.060667 312.550834 
L 509.074199 315.217173 
L 510.08773 312.8478 
L 511.101262 315.54369 
L 512.114794 315.69813 
L 513.128326 313.97019 
L 514.141858 318.784954 
L 515.15539 320.137261 
L 516.168922 320.34629 
L 517.182454 319.728813 
L 518.195986 321.50435 
L 519.209518 321.446819 
L 520.22305 322.546256 
L 521.236582 314.712427 
L 522.250114 316.753788 
L 523.263645 320.725054 
L 524.277177 322.709042 
L 525.290709 322.475179 
L 526.304241 327.553143 
L 527.317773 324.675124 
L 528.331305 319.686077 
L 529.344837 321.18884 
L 530.358369 322.442275 
L 531.371901 326.655714 
L 531.371901 326.655714 
" style="fill:none;stroke:#1f77b4;stroke-linecap:square;stroke-width:1.5;"/>
   </g>
   <g id="line2d_26">
    <path clip-path="url(#p9cd274e959)" d="M 162.446281 278.091891 
L 163.459813 279.915637 
L 164.473345 280.257742 
L 165.486877 276.536722 
L 166.500409 274.463967 
L 167.513941 275.100205 
L 168.527473 276.211277 
L 169.541004 271.479378 
L 170.554536 270.877679 
L 171.568068 268.425713 
L 172.5816 271.382393 
L 173.595132 272.03693 
L 174.608664 268.693324 
L 175.622196 262.962864 
L 176.635728 264.004611 
L 177.64926 269.141539 
L 178.662792 269.053045 
L 179.676324 268.775652 
L 180.689856 268.630187 
L 181.703388 270.756146 
L 182.716919 273.953357 
L 183.730451 275.647816 
L 184.743983 273.065227 
L 186.771047 265.934031 
L 189.811643 275.590573 
L 190.825175 277.344279 
L 191.838707 273.613504 
L 192.852239 271.291475 
L 193.865771 269.322283 
L 194.879303 272.067853 
L 195.892834 269.973044 
L 196.906366 268.942893 
L 197.919898 267.30981 
L 198.93343 267.605153 
L 199.946962 262.611539 
L 200.960494 266.220353 
L 201.974026 265.078325 
L 202.987558 263.613423 
L 204.00109 261.078091 
L 205.014622 260.206108 
L 206.028154 260.392144 
L 207.041686 261.716262 
L 208.055218 261.77715 
L 209.068749 258.461949 
L 210.082281 254.445966 
L 211.095813 253.471837 
L 212.109345 253.955072 
L 213.122877 256.110859 
L 214.136409 254.91738 
L 215.149941 250.847078 
L 216.163473 251.394884 
L 217.177005 252.492542 
L 218.190537 253.115685 
L 219.204069 257.632754 
L 220.217601 255.793834 
L 221.231133 255.562476 
L 222.244664 248.265487 
L 223.258196 247.994167 
L 224.271728 248.424148 
L 225.28526 249.126733 
L 226.298792 246.036383 
L 227.312324 243.624131 
L 228.325856 244.644633 
L 229.339388 238.920263 
L 230.35292 235.960733 
L 231.366452 233.569142 
L 232.379984 234.948584 
L 233.393516 237.120608 
L 234.407047 232.836796 
L 235.420579 234.505621 
L 236.434111 234.06839 
L 237.447643 227.392738 
L 238.461175 225.617339 
L 239.474707 227.372228 
L 240.488239 226.710444 
L 241.501771 229.15331 
L 243.528835 220.685964 
L 244.542367 218.026163 
L 245.555899 221.146136 
L 246.569431 221.030318 
L 247.582962 221.853099 
L 248.596494 223.617285 
L 249.610026 222.107068 
L 250.623558 222.716952 
L 251.63709 220.807858 
L 252.650622 216.210888 
L 253.664154 212.249591 
L 254.677686 213.324237 
L 255.691218 217.139998 
L 256.70475 211.856384 
L 257.718282 207.661247 
L 258.731814 207.116864 
L 259.745346 209.073764 
L 260.758877 208.523259 
L 261.772409 205.195126 
L 262.785941 206.502488 
L 263.799473 206.254938 
L 264.813005 202.490085 
L 265.826537 200.484005 
L 266.840069 199.25196 
L 267.853601 201.613225 
L 268.867133 199.619175 
L 269.880665 193.630651 
L 270.894197 193.707033 
L 271.907729 196.591765 
L 272.921261 196.411461 
L 273.934792 191.133631 
L 274.948324 187.69845 
L 275.961856 186.733489 
L 276.975388 189.385876 
L 277.98892 189.113527 
L 279.002452 190.712693 
L 280.015984 189.486236 
L 281.029516 186.82037 
L 282.043048 187.901422 
L 283.05658 188.347997 
L 284.070112 186.699353 
L 286.097176 180.054006 
L 287.110707 180.364897 
L 288.124239 179.447324 
L 289.137771 176.828686 
L 290.151303 172.95889 
L 291.164835 174.001881 
L 292.178367 173.944518 
L 293.191899 173.31912 
L 294.205431 173.678113 
L 295.218963 173.005007 
L 296.232495 169.523451 
L 297.246027 166.677618 
L 298.259559 162.804642 
L 299.273091 161.952918 
L 300.286622 162.929795 
L 301.300154 158.368757 
L 302.313686 157.539236 
L 303.327218 157.934332 
L 304.34075 160.664501 
L 305.354282 157.96769 
L 306.367814 157.13631 
L 308.394878 152.817225 
L 309.40841 152.201886 
L 310.421942 151.957155 
L 311.435474 151.873196 
L 312.449006 150.491658 
L 313.462537 152.900321 
L 314.476069 154.154762 
L 315.489601 150.056673 
L 316.503133 148.76311 
L 317.516665 144.0086 
L 318.530197 142.944755 
L 319.543729 143.445327 
L 320.557261 142.542524 
L 321.570793 145.044938 
L 322.584325 144.443601 
L 323.597857 143.264855 
L 324.611389 143.319143 
L 325.624921 142.402718 
L 326.638452 139.581424 
L 328.665516 138.585105 
L 329.679048 135.420082 
L 330.69258 135.165605 
L 331.706112 136.989691 
L 332.719644 136.263663 
L 333.733176 132.465277 
L 334.746708 131.249348 
L 335.76024 130.85547 
L 337.787304 125.891653 
L 338.800836 125.144373 
L 339.814367 125.90646 
L 341.841431 125.159329 
L 342.854963 125.619175 
L 343.868495 121.664652 
L 344.882027 124.442033 
L 345.895559 121.77827 
L 347.922623 118.197778 
L 348.936155 118.97628 
L 349.949687 116.651506 
L 350.963219 113.335643 
L 351.976751 113.666032 
L 352.990282 114.75879 
L 354.003814 110.880705 
L 355.017346 107.992614 
L 356.030878 109.146586 
L 357.04441 108.089392 
L 358.057942 105.831085 
L 359.071474 105.867873 
L 360.085006 105.764932 
L 361.098538 103.50772 
L 362.11207 102.019499 
L 363.125602 104.479436 
L 364.139134 101.999583 
L 365.152666 103.076511 
L 366.166197 104.458151 
L 367.179729 102.581595 
L 368.193261 100.25795 
L 369.206793 99.265835 
L 370.220325 100.534192 
L 371.233857 101.575268 
L 372.247389 100.317 
L 373.260921 100.773238 
L 374.274453 97.294149 
L 375.287985 100.693107 
L 376.301517 101.213997 
L 377.315049 102.319591 
L 378.328581 104.926545 
L 379.342112 104.659151 
L 380.355644 107.342206 
L 381.369176 106.785932 
L 382.382708 108.226037 
L 383.39624 107.320369 
L 384.409772 108.509098 
L 385.423304 110.290557 
L 386.436836 108.91719 
L 387.450368 108.837507 
L 388.4639 111.266782 
L 389.477432 113.190358 
L 390.490964 112.504364 
L 391.504496 111.963424 
L 392.518027 115.283738 
L 393.531559 116.492764 
L 394.545091 114.792901 
L 395.558623 116.877665 
L 396.572155 117.423164 
L 397.585687 117.003832 
L 398.599219 121.325126 
L 399.612751 123.165908 
L 400.626283 122.519244 
L 401.639815 125.502682 
L 402.653347 123.701791 
L 403.666879 124.503446 
L 404.68041 126.479766 
L 405.693942 126.033559 
L 407.721006 132.45007 
L 408.734538 134.341949 
L 409.74807 132.733855 
L 410.761602 135.10294 
L 411.775134 134.266608 
L 412.788666 134.867055 
L 413.802198 137.477066 
L 414.81573 139.060968 
L 415.829262 139.690266 
L 416.842794 146.35018 
L 417.856325 146.188521 
L 418.869857 144.209124 
L 419.883389 148.946391 
L 420.896921 152.793701 
L 421.910453 153.672907 
L 422.923985 155.591054 
L 423.937517 153.458625 
L 424.951049 152.71297 
L 425.964581 158.190882 
L 427.991645 160.846506 
L 429.005177 166.650154 
L 430.018709 169.349381 
L 431.03224 167.181866 
L 432.045772 166.27473 
L 433.059304 164.004532 
L 434.072836 165.326317 
L 436.0999 166.474736 
L 437.113432 167.40088 
L 438.126964 167.227269 
L 439.140496 165.642492 
L 440.154028 170.613258 
L 441.16756 173.642267 
L 442.181092 178.192511 
L 443.194624 179.515726 
L 444.208155 182.655395 
L 445.221687 182.438954 
L 446.235219 183.846176 
L 447.248751 183.082894 
L 448.262283 185.627959 
L 449.275815 184.285793 
L 450.289347 185.340294 
L 451.302879 186.981863 
L 452.316411 189.170101 
L 453.329943 190.186904 
L 454.343475 191.604474 
L 455.357007 196.850058 
L 456.370539 199.223551 
L 457.38407 197.085674 
L 458.397602 197.673892 
L 459.411134 200.441315 
L 460.424666 200.831223 
L 461.438198 201.838678 
L 462.45173 203.730997 
L 463.465262 204.290417 
L 464.478794 204.698001 
L 465.492326 207.396553 
L 466.505858 207.558652 
L 467.51939 210.633642 
L 468.532922 214.974379 
L 470.559985 220.391027 
L 471.573517 225.367222 
L 472.587049 223.546536 
L 473.600581 220.366334 
L 474.614113 220.382923 
L 475.627645 217.915972 
L 476.641177 218.974939 
L 477.654709 221.196705 
L 478.668241 223.814304 
L 479.681773 223.280462 
L 480.695305 224.664557 
L 481.708837 224.326247 
L 482.722369 224.94676 
L 483.7359 228.522387 
L 484.749432 235.45193 
L 485.762964 233.416398 
L 486.776496 230.199697 
L 487.790028 231.366228 
L 488.80356 235.576308 
L 489.817092 236.053983 
L 491.844156 245.940248 
L 492.857688 248.908079 
L 493.87122 245.724884 
L 494.884752 244.014391 
L 496.911815 254.054405 
L 498.938879 254.550513 
L 499.952411 250.398657 
L 500.965943 252.333737 
L 501.979475 250.114012 
L 502.993007 250.341798 
L 504.006539 256.133826 
L 505.020071 257.988719 
L 506.033603 257.111375 
L 507.047135 259.362037 
L 508.060667 262.231263 
L 509.074199 263.477439 
L 510.08773 262.461465 
L 511.101262 263.555473 
L 513.128326 263.322785 
L 514.141858 267.098693 
L 515.15539 270.385429 
L 516.168922 270.596677 
L 517.182454 271.679485 
L 518.195986 274.172857 
L 519.209518 272.314177 
L 520.22305 269.985111 
L 521.236582 263.663629 
L 522.250114 265.894857 
L 523.263645 270.210601 
L 524.277177 272.680916 
L 525.290709 271.700443 
L 526.304241 276.159055 
L 527.317773 273.756716 
L 528.331305 269.319095 
L 529.344837 269.91977 
L 531.371901 275.507557 
L 531.371901 275.507557 
" style="fill:none;stroke:#ff7f0e;stroke-linecap:square;stroke-width:1.5;"/>
   </g>
   <g id="line2d_27">
    <path clip-path="url(#p9cd274e959)" d="M 162.446281 226.831366 
L 163.459813 228.428645 
L 164.473345 228.268212 
L 165.486877 223.544711 
L 166.500409 221.575436 
L 167.513941 223.090653 
L 168.527473 223.032554 
L 169.541004 219.852803 
L 170.554536 220.718732 
L 171.568068 217.661285 
L 172.5816 219.031551 
L 173.595132 219.809866 
L 175.622196 209.833757 
L 176.635728 211.242939 
L 177.64926 215.90015 
L 178.662792 216.095645 
L 179.676324 216.632343 
L 180.689856 217.484832 
L 181.703388 217.903977 
L 182.716919 220.67027 
L 183.730451 223.977877 
L 184.743983 222.351713 
L 185.757515 219.263701 
L 186.771047 216.706899 
L 187.784579 218.297175 
L 188.798111 221.137766 
L 189.811643 224.827949 
L 190.825175 224.532266 
L 191.838707 219.976929 
L 192.852239 217.553252 
L 193.865771 217.170885 
L 194.879303 219.681583 
L 195.892834 215.943654 
L 196.906366 217.414548 
L 197.919898 216.727407 
L 198.93343 215.550215 
L 199.946962 212.171063 
L 200.960494 214.419971 
L 201.974026 213.14407 
L 204.00109 208.702149 
L 205.014622 210.142257 
L 206.028154 209.183755 
L 207.041686 211.23112 
L 208.055218 209.410696 
L 209.068749 206.463618 
L 210.082281 202.795238 
L 211.095813 204.780363 
L 212.109345 204.945862 
L 213.122877 204.591484 
L 214.136409 204.507005 
L 215.149941 202.324813 
L 216.163473 203.942436 
L 217.177005 205.138357 
L 218.190537 205.889289 
L 219.204069 208.080297 
L 220.217601 205.586833 
L 221.231133 204.473847 
L 222.244664 198.481048 
L 223.258196 200.725349 
L 224.271728 200.179378 
L 226.298792 199.864051 
L 227.312324 197.758794 
L 228.325856 198.860395 
L 229.339388 194.993008 
L 230.35292 193.125561 
L 231.366452 189.15804 
L 232.379984 189.70495 
L 233.393516 192.752591 
L 234.407047 188.449465 
L 235.420579 190.422128 
L 236.434111 191.012243 
L 237.447643 185.52936 
L 238.461175 187.061541 
L 239.474707 187.864893 
L 240.488239 187.030885 
L 241.501771 185.699171 
L 242.515303 185.789523 
L 243.528835 181.418809 
L 244.542367 178.03497 
L 245.555899 183.264749 
L 246.569431 183.109032 
L 247.582962 184.140122 
L 248.596494 184.807202 
L 249.610026 182.738122 
L 250.623558 184.645941 
L 251.63709 183.578334 
L 252.650622 180.206752 
L 253.664154 174.081692 
L 254.677686 176.780524 
L 255.691218 182.30947 
L 257.718282 172.398459 
L 258.731814 171.834465 
L 259.745346 174.096933 
L 260.758877 173.891476 
L 261.772409 171.737184 
L 262.785941 171.686874 
L 263.799473 172.210637 
L 264.813005 170.364969 
L 265.826537 166.572541 
L 266.840069 166.587745 
L 267.853601 168.429437 
L 268.867133 165.387089 
L 269.880665 159.801439 
L 270.894197 160.787172 
L 271.907729 161.26572 
L 272.921261 158.687017 
L 273.934792 154.824191 
L 275.961856 152.682988 
L 276.975388 157.119016 
L 277.98892 158.064704 
L 279.002452 157.720495 
L 280.015984 156.948582 
L 281.029516 155.087805 
L 282.043048 155.811709 
L 283.05658 154.233388 
L 284.070112 154.484448 
L 285.083644 150.657297 
L 286.097176 147.756086 
L 287.110707 148.570934 
L 288.124239 146.699959 
L 289.137771 143.41508 
L 290.151303 138.724049 
L 291.164835 141.46508 
L 292.178367 140.426553 
L 293.191899 140.674861 
L 294.205431 141.287302 
L 295.218963 139.585933 
L 296.232495 134.838546 
L 297.246027 132.723073 
L 298.259559 131.008177 
L 299.273091 130.840258 
L 300.286622 131.266271 
L 301.300154 125.236027 
L 302.313686 122.658195 
L 303.327218 124.870835 
L 304.34075 129.223454 
L 305.354282 126.80334 
L 306.367814 123.746489 
L 307.381346 123.281494 
L 308.394878 118.138971 
L 309.40841 119.298774 
L 310.421942 120.123521 
L 311.435474 120.124165 
L 312.449006 117.71449 
L 313.462537 119.660129 
L 314.476069 121.152518 
L 315.489601 118.106382 
L 316.503133 118.343457 
L 317.516665 112.504404 
L 318.530197 111.434434 
L 319.543729 112.185426 
L 320.557261 108.925396 
L 321.570793 110.680886 
L 322.584325 110.406782 
L 323.597857 110.502322 
L 324.611389 112.180421 
L 325.624921 111.853741 
L 326.638452 108.005411 
L 327.651984 105.573063 
L 328.665516 106.072664 
L 329.679048 102.771665 
L 330.69258 104.386322 
L 331.706112 104.086737 
L 332.719644 103.122006 
L 333.733176 98.504761 
L 334.746708 97.009269 
L 335.76024 97.234002 
L 336.773772 95.589014 
L 337.787304 90.874493 
L 338.800836 91.717444 
L 339.814367 91.530222 
L 341.841431 89.765193 
L 342.854963 93.19836 
L 343.868495 87.285158 
L 344.882027 88.608919 
L 345.895559 88.781202 
L 346.909091 89.113272 
L 347.922623 84.342595 
L 348.936155 84.505858 
L 349.949687 82.257538 
L 350.963219 79.09556 
L 351.976751 79.09522 
L 352.990282 81.099285 
L 354.003814 77.995387 
L 355.017346 76.915241 
L 356.030878 76.672236 
L 357.04441 74.984598 
L 358.057942 70.995889 
L 359.071474 71.150665 
L 360.085006 72.474614 
L 361.098538 70.007637 
L 362.11207 68.102493 
L 363.125602 69.634644 
L 364.139134 67.26295 
L 365.152666 70.149633 
L 366.166197 70.764236 
L 367.179729 69.107986 
L 368.193261 65.530036 
L 369.206793 65.609224 
L 370.220325 68.903215 
L 371.233857 70.335965 
L 372.247389 67.73903 
L 373.260921 67.810603 
L 374.274453 65.192727 
L 375.287985 69.365419 
L 376.301517 68.181993 
L 377.315049 69.44091 
L 378.328581 71.495023 
L 379.342112 70.724081 
L 380.355644 75.468714 
L 381.369176 75.701446 
L 382.382708 75.555352 
L 384.409772 72.690077 
L 385.423304 75.615134 
L 386.436836 76.040576 
L 387.450368 77.16613 
L 389.477432 81.06708 
L 390.490964 79.607251 
L 391.504496 77.225788 
L 392.518027 81.62979 
L 393.531559 83.314938 
L 394.545091 81.390564 
L 395.558623 82.653409 
L 396.572155 84.443122 
L 397.585687 83.569812 
L 398.599219 88.76488 
L 399.612751 89.254684 
L 400.626283 86.230825 
L 401.639815 89.2896 
L 402.653347 87.985969 
L 403.666879 88.225113 
L 404.68041 92.883313 
L 405.693942 92.216993 
L 406.707474 94.600482 
L 407.721006 94.880315 
L 408.734538 100.073926 
L 409.74807 96.89977 
L 410.761602 98.823448 
L 411.775134 97.581243 
L 412.788666 98.902548 
L 413.802198 102.1152 
L 414.81573 104.388324 
L 415.829262 102.70719 
L 416.842794 111.249262 
L 417.856325 111.926207 
L 418.869857 109.732651 
L 419.883389 114.458002 
L 420.896921 117.312093 
L 421.910453 116.587054 
L 422.923985 120.948738 
L 424.951049 116.111604 
L 425.964581 121.477473 
L 426.978113 123.542209 
L 427.991645 126.653324 
L 429.005177 133.555716 
L 430.018709 133.919735 
L 431.03224 132.949049 
L 432.045772 131.525767 
L 433.059304 127.786749 
L 434.072836 128.734998 
L 435.086368 130.258276 
L 436.0999 129.628099 
L 437.113432 131.489036 
L 438.126964 131.642416 
L 439.140496 129.555343 
L 440.154028 135.378429 
L 441.16756 140.256393 
L 442.181092 143.475985 
L 443.194624 142.451215 
L 444.208155 147.816196 
L 445.221687 148.76991 
L 446.235219 151.09775 
L 447.248751 150.734099 
L 448.262283 152.271363 
L 449.275815 149.412054 
L 450.289347 151.291249 
L 451.302879 152.698813 
L 452.316411 155.504231 
L 453.329943 155.035693 
L 454.343475 157.462986 
L 455.357007 161.256187 
L 456.370539 165.662491 
L 457.38407 162.943681 
L 458.397602 162.529226 
L 459.411134 166.027662 
L 461.438198 167.600785 
L 462.45173 169.020716 
L 463.465262 170.077523 
L 464.478794 170.862682 
L 465.492326 173.324956 
L 467.51939 172.16215 
L 468.532922 174.545117 
L 469.546454 177.409853 
L 471.573517 180.230915 
L 472.587049 181.166082 
L 473.600581 180.312135 
L 474.614113 181.228159 
L 475.627645 176.907775 
L 476.641177 177.52943 
L 477.654709 183.851688 
L 478.668241 185.487 
L 479.681773 183.664654 
L 480.695305 186.263798 
L 481.708837 184.36512 
L 482.722369 183.040761 
L 483.7359 186.29653 
L 484.749432 190.82449 
L 485.762964 191.48769 
L 486.776496 188.157175 
L 487.790028 189.217206 
L 488.80356 192.50249 
L 489.817092 191.468067 
L 490.830624 194.495801 
L 491.844156 200.570757 
L 492.857688 202.703224 
L 493.87122 198.556838 
L 494.884752 196.310677 
L 496.911815 205.096291 
L 497.925347 207.632639 
L 498.938879 205.424266 
L 499.952411 198.223178 
L 500.965943 204.385972 
L 501.979475 205.147916 
L 502.993007 203.939906 
L 504.006539 209.300665 
L 505.020071 211.486693 
L 506.033603 208.703782 
L 507.047135 210.088286 
L 508.060667 211.911692 
L 509.074199 211.737704 
L 510.08773 212.075129 
L 512.114794 211.135943 
L 513.128326 212.675379 
L 514.141858 215.412433 
L 515.15539 220.633598 
L 516.168922 220.847064 
L 517.182454 223.630158 
L 518.195986 226.841365 
L 519.209518 223.181534 
L 520.22305 217.423965 
L 521.236582 212.614832 
L 522.250114 215.035927 
L 523.263645 219.696148 
L 524.277177 222.652791 
L 525.290709 220.925706 
L 526.304241 224.764968 
L 527.317773 222.838308 
L 528.331305 218.952113 
L 529.344837 218.6507 
L 530.358369 222.69329 
L 531.371901 224.359401 
L 531.371901 224.359401 
" style="fill:none;stroke:#2ca02c;stroke-linecap:square;stroke-width:1.5;"/>
   </g>
   <g id="patch_3">
    <path d="M 144 345.6 
L 144 51.84 
" style="fill:none;stroke:#000000;stroke-linecap:square;stroke-linejoin:miter;stroke-width:0.8;"/>
   </g>
   <g id="patch_4">
    <path d="M 549.818182 345.6 
L 549.818182 51.84 
" style="fill:none;stroke:#000000;stroke-linecap:square;stroke-linejoin:miter;stroke-width:0.8;"/>
   </g>
   <g id="patch_5">
    <path d="M 144 345.6 
L 549.818182 345.6 
" style="fill:none;stroke:#000000;stroke-linecap:square;stroke-linejoin:miter;stroke-width:0.8;"/>
   </g>
   <g id="patch_6">
    <path d="M 144 51.84 
L 549.818182 51.84 
" style="fill:none;stroke:#000000;stroke-linecap:square;stroke-linejoin:miter;stroke-width:0.8;"/>
   </g>
   <g id="text_13">
    <!-- Mean+-std   TMIN -->
    <defs>
     <path d="M 9.8125 72.90625 
L 24.515625 72.90625 
L 43.109375 23.296875 
L 61.8125 72.90625 
L 76.515625 72.90625 
L 76.515625 0 
L 66.890625 0 
L 66.890625 64.015625 
L 48.09375 14.015625 
L 38.1875 14.015625 
L 19.390625 64.015625 
L 19.390625 0 
L 9.8125 0 
z
" id="DejaVuSans-4d"/>
     <path d="M 56.203125 29.59375 
L 56.203125 25.203125 
L 14.890625 25.203125 
Q 15.484375 15.921875 20.484375 11.0625 
Q 25.484375 6.203125 34.421875 6.203125 
Q 39.59375 6.203125 44.453125 7.46875 
Q 49.3125 8.734375 54.109375 11.28125 
L 54.109375 2.78125 
Q 49.265625 0.734375 44.1875 -0.34375 
Q 39.109375 -1.421875 33.890625 -1.421875 
Q 20.796875 -1.421875 13.15625 6.1875 
Q 5.515625 13.8125 5.515625 26.8125 
Q 5.515625 40.234375 12.765625 48.109375 
Q 20.015625 56 32.328125 56 
Q 43.359375 56 49.78125 48.890625 
Q 56.203125 41.796875 56.203125 29.59375 
M 47.21875 32.234375 
Q 47.125 39.59375 43.09375 43.984375 
Q 39.0625 48.390625 32.421875 48.390625 
Q 24.90625 48.390625 20.390625 44.140625 
Q 15.875 39.890625 15.1875 32.171875 
z
" id="DejaVuSans-65"/>
     <path d="M 46 62.703125 
L 46 35.5 
L 73.1875 35.5 
L 73.1875 27.203125 
L 46 27.203125 
L 46 0 
L 37.796875 0 
L 37.796875 27.203125 
L 10.59375 27.203125 
L 10.59375 35.5 
L 37.796875 35.5 
L 37.796875 62.703125 
z
" id="DejaVuSans-2b"/>
     <path d="M 4.890625 31.390625 
L 31.203125 31.390625 
L 31.203125 23.390625 
L 4.890625 23.390625 
z
" id="DejaVuSans-2d"/>
     <path d="M 44.28125 53.078125 
L 44.28125 44.578125 
Q 40.484375 46.53125 36.375 47.5 
Q 32.28125 48.484375 27.875 48.484375 
Q 21.1875 48.484375 17.84375 46.4375 
Q 14.5 44.390625 14.5 40.28125 
Q 14.5 37.15625 16.890625 35.375 
Q 19.28125 33.59375 26.515625 31.984375 
L 29.59375 31.296875 
Q 39.15625 29.25 43.1875 25.515625 
Q 47.21875 21.78125 47.21875 15.09375 
Q 47.21875 7.46875 41.1875 3.015625 
Q 35.15625 -1.421875 24.609375 -1.421875 
Q 20.21875 -1.421875 15.453125 -0.5625 
Q 10.6875 0.296875 5.421875 2 
L 5.421875 11.28125 
Q 10.40625 8.6875 15.234375 7.390625 
Q 20.0625 6.109375 24.8125 6.109375 
Q 31.15625 6.109375 34.5625 8.28125 
Q 37.984375 10.453125 37.984375 14.40625 
Q 37.984375 18.0625 35.515625 20.015625 
Q 33.0625 21.96875 24.703125 23.78125 
L 21.578125 24.515625 
Q 13.234375 26.265625 9.515625 29.90625 
Q 5.8125 33.546875 5.8125 39.890625 
Q 5.8125 47.609375 11.28125 51.796875 
Q 16.75 56 26.8125 56 
Q 31.78125 56 36.171875 55.265625 
Q 40.578125 54.546875 44.28125 53.078125 
" id="DejaVuSans-73"/>
     <path d="M 45.40625 46.390625 
L 45.40625 75.984375 
L 54.390625 75.984375 
L 54.390625 0 
L 45.40625 0 
L 45.40625 8.203125 
Q 42.578125 3.328125 38.25 0.953125 
Q 33.9375 -1.421875 27.875 -1.421875 
Q 17.96875 -1.421875 11.734375 6.484375 
Q 5.515625 14.40625 5.515625 27.296875 
Q 5.515625 40.1875 11.734375 48.09375 
Q 17.96875 56 27.875 56 
Q 33.9375 56 38.25 53.625 
Q 42.578125 51.265625 45.40625 46.390625 
M 14.796875 27.296875 
Q 14.796875 17.390625 18.875 11.75 
Q 22.953125 6.109375 30.078125 6.109375 
Q 37.203125 6.109375 41.296875 11.75 
Q 45.40625 17.390625 45.40625 27.296875 
Q 45.40625 37.203125 41.296875 42.84375 
Q 37.203125 48.484375 30.078125 48.484375 
Q 22.953125 48.484375 18.875 42.84375 
Q 14.796875 37.203125 14.796875 27.296875 
" id="DejaVuSans-64"/>
     <path id="DejaVuSans-20"/>
     <path d="M -0.296875 72.90625 
L 61.375 72.90625 
L 61.375 64.59375 
L 35.5 64.59375 
L 35.5 0 
L 25.59375 0 
L 25.59375 64.59375 
L -0.296875 64.59375 
z
" id="DejaVuSans-54"/>
     <path d="M 9.8125 72.90625 
L 19.671875 72.90625 
L 19.671875 0 
L 9.8125 0 
z
" id="DejaVuSans-49"/>
     <path d="M 9.8125 72.90625 
L 23.09375 72.90625 
L 55.421875 11.921875 
L 55.421875 72.90625 
L 64.984375 72.90625 
L 64.984375 0 
L 51.703125 0 
L 19.390625 60.984375 
L 19.390625 0 
L 9.8125 0 
z
" id="DejaVuSans-4e"/>
    </defs>
    <g transform="translate(293.260653 45.84)scale(0.12 -0.12)">
     <use xlink:href="#DejaVuSans-4d"/>
     <use x="86.279297" xlink:href="#DejaVuSans-65"/>
     <use x="147.802734" xlink:href="#DejaVuSans-61"/>
     <use x="209.082031" xlink:href="#DejaVuSans-6e"/>
     <use x="272.460938" xlink:href="#DejaVuSans-2b"/>
     <use x="356.25" xlink:href="#DejaVuSans-2d"/>
     <use x="392.333984" xlink:href="#DejaVuSans-73"/>
     <use x="444.433594" xlink:href="#DejaVuSans-74"/>
     <use x="483.642578" xlink:href="#DejaVuSans-64"/>
     <use x="547.119141" xlink:href="#DejaVuSans-20"/>
     <use x="578.90625" xlink:href="#DejaVuSans-20"/>
     <use x="610.693359" xlink:href="#DejaVuSans-20"/>
     <use x="642.480469" xlink:href="#DejaVuSans-54"/>
     <use x="703.564453" xlink:href="#DejaVuSans-4d"/>
     <use x="789.84375" xlink:href="#DejaVuSans-49"/>
     <use x="819.335938" xlink:href="#DejaVuSans-4e"/>
    </g>
   </g>
   <g id="legend_1">
    <g id="patch_7">
     <path d="M 462.208807 103.874375 
L 542.818182 103.874375 
Q 544.818182 103.874375 544.818182 101.874375 
L 544.818182 58.84 
Q 544.818182 56.84 542.818182 56.84 
L 462.208807 56.84 
Q 460.208807 56.84 460.208807 58.84 
L 460.208807 101.874375 
Q 460.208807 103.874375 462.208807 103.874375 
z
" style="fill:#ffffff;opacity:0.8;stroke:#cccccc;stroke-linejoin:miter;"/>
    </g>
    <g id="line2d_28">
     <path d="M 464.208807 64.938437 
L 484.208807 64.938437 
" style="fill:none;stroke:#1f77b4;stroke-linecap:square;stroke-width:1.5;"/>
    </g>
    <g id="line2d_29"/>
    <g id="text_14">
     <!-- avg - std -->
     <defs>
      <path d="M 2.984375 54.6875 
L 12.5 54.6875 
L 29.59375 8.796875 
L 46.6875 54.6875 
L 56.203125 54.6875 
L 35.6875 0 
L 23.484375 0 
z
" id="DejaVuSans-76"/>
      <path d="M 45.40625 27.984375 
Q 45.40625 37.75 41.375 43.109375 
Q 37.359375 48.484375 30.078125 48.484375 
Q 22.859375 48.484375 18.828125 43.109375 
Q 14.796875 37.75 14.796875 27.984375 
Q 14.796875 18.265625 18.828125 12.890625 
Q 22.859375 7.515625 30.078125 7.515625 
Q 37.359375 7.515625 41.375 12.890625 
Q 45.40625 18.265625 45.40625 27.984375 
M 54.390625 6.78125 
Q 54.390625 -7.171875 48.1875 -13.984375 
Q 42 -20.796875 29.203125 -20.796875 
Q 24.46875 -20.796875 20.265625 -20.09375 
Q 16.0625 -19.390625 12.109375 -17.921875 
L 12.109375 -9.1875 
Q 16.0625 -11.328125 19.921875 -12.34375 
Q 23.78125 -13.375 27.78125 -13.375 
Q 36.625 -13.375 41.015625 -8.765625 
Q 45.40625 -4.15625 45.40625 5.171875 
L 45.40625 9.625 
Q 42.625 4.78125 38.28125 2.390625 
Q 33.9375 0 27.875 0 
Q 17.828125 0 11.671875 7.65625 
Q 5.515625 15.328125 5.515625 27.984375 
Q 5.515625 40.671875 11.671875 48.328125 
Q 17.828125 56 27.875 56 
Q 33.9375 56 38.28125 53.609375 
Q 42.625 51.21875 45.40625 46.390625 
L 45.40625 54.6875 
L 54.390625 54.6875 
z
" id="DejaVuSans-67"/>
     </defs>
     <g transform="translate(492.208807 68.438437)scale(0.1 -0.1)">
      <use xlink:href="#DejaVuSans-61"/>
      <use x="61.279297" xlink:href="#DejaVuSans-76"/>
      <use x="120.458984" xlink:href="#DejaVuSans-67"/>
      <use x="183.935547" xlink:href="#DejaVuSans-20"/>
      <use x="215.722656" xlink:href="#DejaVuSans-2d"/>
      <use x="251.806641" xlink:href="#DejaVuSans-20"/>
      <use x="283.59375" xlink:href="#DejaVuSans-73"/>
      <use x="335.693359" xlink:href="#DejaVuSans-74"/>
      <use x="374.902344" xlink:href="#DejaVuSans-64"/>
     </g>
    </g>
    <g id="line2d_30">
     <path d="M 464.208807 79.616562 
L 484.208807 79.616562 
" style="fill:none;stroke:#ff7f0e;stroke-linecap:square;stroke-width:1.5;"/>
    </g>
    <g id="line2d_31"/>
    <g id="text_15">
     <!-- avg -->
     <g transform="translate(492.208807 83.116562)scale(0.1 -0.1)">
      <use xlink:href="#DejaVuSans-61"/>
      <use x="61.279297" xlink:href="#DejaVuSans-76"/>
      <use x="120.458984" xlink:href="#DejaVuSans-67"/>
     </g>
    </g>
    <g id="line2d_32">
     <path d="M 464.208807 94.294687 
L 484.208807 94.294687 
" style="fill:none;stroke:#2ca02c;stroke-linecap:square;stroke-width:1.5;"/>
    </g>
    <g id="line2d_33"/>
    <g id="text_16">
     <!-- avg + std -->
     <g transform="translate(492.208807 97.794687)scale(0.1 -0.1)">
      <use xlink:href="#DejaVuSans-61"/>
      <use x="61.279297" xlink:href="#DejaVuSans-76"/>
      <use x="120.458984" xlink:href="#DejaVuSans-67"/>
      <use x="183.935547" xlink:href="#DejaVuSans-20"/>
      <use x="215.722656" xlink:href="#DejaVuSans-2b"/>
      <use x="299.511719" xlink:href="#DejaVuSans-20"/>
      <use x="331.298828" xlink:href="#DejaVuSans-73"/>
      <use x="383.398438" xlink:href="#DejaVuSans-74"/>
      <use x="422.607422" xlink:href="#DejaVuSans-64"/>
     </g>
    </g>
   </g>
  </g>
  <g id="axes_2">
   <g id="patch_8">
    <path d="M 630.981818 345.6 
L 1036.8 345.6 
L 1036.8 51.84 
L 630.981818 51.84 
z
" style="fill:#ffffff;"/>
   </g>
   <g id="matplotlib.axis_3">
    <g id="xtick_6">
     <g id="line2d_34">
      <path clip-path="url(#p0a80ec209a)" d="M 649.428099 345.6 
L 649.428099 51.84 
" style="fill:none;stroke:#b0b0b0;stroke-linecap:square;stroke-width:0.8;"/>
     </g>
     <g id="line2d_35">
      <g>
       <use style="stroke:#000000;stroke-width:0.8;" x="649.428099" xlink:href="#m3a21102010" y="345.6"/>
      </g>
     </g>
     <g id="text_17">
      <!-- Jan -->
      <g transform="translate(635.037933 366.888252)rotate(-30)scale(0.1 -0.1)">
       <use xlink:href="#DejaVuSans-4a"/>
       <use x="29.492188" xlink:href="#DejaVuSans-61"/>
       <use x="90.771484" xlink:href="#DejaVuSans-6e"/>
      </g>
     </g>
    </g>
    <g id="xtick_7">
     <g id="line2d_36">
      <path clip-path="url(#p0a80ec209a)" d="M 740.645972 345.6 
L 740.645972 51.84 
" style="fill:none;stroke:#b0b0b0;stroke-linecap:square;stroke-width:0.8;"/>
     </g>
     <g id="line2d_37">
      <g>
       <use style="stroke:#000000;stroke-width:0.8;" x="740.645972" xlink:href="#m3a21102010" y="345.6"/>
      </g>
     </g>
     <g id="text_18">
      <!-- Apr -->
      <g transform="translate(724.623889 367.83044)rotate(-30)scale(0.1 -0.1)">
       <use xlink:href="#DejaVuSans-41"/>
       <use x="68.408203" xlink:href="#DejaVuSans-70"/>
       <use x="131.884766" xlink:href="#DejaVuSans-72"/>
      </g>
     </g>
    </g>
    <g id="xtick_8">
     <g id="line2d_38">
      <path clip-path="url(#p0a80ec209a)" d="M 832.877377 345.6 
L 832.877377 51.84 
" style="fill:none;stroke:#b0b0b0;stroke-linecap:square;stroke-width:0.8;"/>
     </g>
     <g id="line2d_39">
      <g>
       <use style="stroke:#000000;stroke-width:0.8;" x="832.877377" xlink:href="#m3a21102010" y="345.6"/>
      </g>
     </g>
     <g id="text_19">
      <!-- Jul -->
      <g transform="translate(821.388396 365.213252)rotate(-30)scale(0.1 -0.1)">
       <use xlink:href="#DejaVuSans-4a"/>
       <use x="29.492188" xlink:href="#DejaVuSans-75"/>
       <use x="92.871094" xlink:href="#DejaVuSans-6c"/>
      </g>
     </g>
    </g>
    <g id="xtick_9">
     <g id="line2d_40">
      <path clip-path="url(#p0a80ec209a)" d="M 926.122314 345.6 
L 926.122314 51.84 
" style="fill:none;stroke:#b0b0b0;stroke-linecap:square;stroke-width:0.8;"/>
     </g>
     <g id="line2d_41">
      <g>
       <use style="stroke:#000000;stroke-width:0.8;" x="926.122314" xlink:href="#m3a21102010" y="345.6"/>
      </g>
     </g>
     <g id="text_20">
      <!-- Oct -->
      <g transform="translate(910.10835 367.825752)rotate(-30)scale(0.1 -0.1)">
       <use xlink:href="#DejaVuSans-4f"/>
       <use x="78.710938" xlink:href="#DejaVuSans-63"/>
       <use x="133.691406" xlink:href="#DejaVuSans-74"/>
      </g>
     </g>
    </g>
    <g id="xtick_10">
     <g id="line2d_42">
      <path clip-path="url(#p0a80ec209a)" d="M 1019.367251 345.6 
L 1019.367251 51.84 
" style="fill:none;stroke:#b0b0b0;stroke-linecap:square;stroke-width:0.8;"/>
     </g>
     <g id="line2d_43">
      <g>
       <use style="stroke:#000000;stroke-width:0.8;" x="1019.367251" xlink:href="#m3a21102010" y="345.6"/>
      </g>
     </g>
     <g id="text_21">
      <!-- Jan -->
      <g transform="translate(1004.977084 366.888252)rotate(-30)scale(0.1 -0.1)">
       <use xlink:href="#DejaVuSans-4a"/>
       <use x="29.492188" xlink:href="#DejaVuSans-61"/>
       <use x="90.771484" xlink:href="#DejaVuSans-6e"/>
      </g>
     </g>
    </g>
   </g>
   <g id="matplotlib.axis_4">
    <g id="ytick_8">
     <g id="line2d_44">
      <path clip-path="url(#p0a80ec209a)" d="M 630.981818 338.689298 
L 1036.8 338.689298 
" style="fill:none;stroke:#b0b0b0;stroke-linecap:square;stroke-width:0.8;"/>
     </g>
     <g id="line2d_45">
      <g>
       <use style="stroke:#000000;stroke-width:0.8;" x="630.981818" xlink:href="#m4ee96595d5" y="338.689298"/>
      </g>
     </g>
     <g id="text_22">
      <!-- 20 -->
      <g transform="translate(611.256818 342.488517)scale(0.1 -0.1)">
       <use xlink:href="#DejaVuSans-32"/>
       <use x="63.623047" xlink:href="#DejaVuSans-30"/>
      </g>
     </g>
    </g>
    <g id="ytick_9">
     <g id="line2d_46">
      <path clip-path="url(#p0a80ec209a)" d="M 630.981818 302.316448 
L 1036.8 302.316448 
" style="fill:none;stroke:#b0b0b0;stroke-linecap:square;stroke-width:0.8;"/>
     </g>
     <g id="line2d_47">
      <g>
       <use style="stroke:#000000;stroke-width:0.8;" x="630.981818" xlink:href="#m4ee96595d5" y="302.316448"/>
      </g>
     </g>
     <g id="text_23">
      <!-- 30 -->
      <g transform="translate(611.256818 306.115667)scale(0.1 -0.1)">
       <use xlink:href="#DejaVuSans-33"/>
       <use x="63.623047" xlink:href="#DejaVuSans-30"/>
      </g>
     </g>
    </g>
    <g id="ytick_10">
     <g id="line2d_48">
      <path clip-path="url(#p0a80ec209a)" d="M 630.981818 265.943599 
L 1036.8 265.943599 
" style="fill:none;stroke:#b0b0b0;stroke-linecap:square;stroke-width:0.8;"/>
     </g>
     <g id="line2d_49">
      <g>
       <use style="stroke:#000000;stroke-width:0.8;" x="630.981818" xlink:href="#m4ee96595d5" y="265.943599"/>
      </g>
     </g>
     <g id="text_24">
      <!-- 40 -->
      <g transform="translate(611.256818 269.742817)scale(0.1 -0.1)">
       <use xlink:href="#DejaVuSans-34"/>
       <use x="63.623047" xlink:href="#DejaVuSans-30"/>
      </g>
     </g>
    </g>
    <g id="ytick_11">
     <g id="line2d_50">
      <path clip-path="url(#p0a80ec209a)" d="M 630.981818 229.570749 
L 1036.8 229.570749 
" style="fill:none;stroke:#b0b0b0;stroke-linecap:square;stroke-width:0.8;"/>
     </g>
     <g id="line2d_51">
      <g>
       <use style="stroke:#000000;stroke-width:0.8;" x="630.981818" xlink:href="#m4ee96595d5" y="229.570749"/>
      </g>
     </g>
     <g id="text_25">
      <!-- 50 -->
      <g transform="translate(611.256818 233.369968)scale(0.1 -0.1)">
       <use xlink:href="#DejaVuSans-35"/>
       <use x="63.623047" xlink:href="#DejaVuSans-30"/>
      </g>
     </g>
    </g>
    <g id="ytick_12">
     <g id="line2d_52">
      <path clip-path="url(#p0a80ec209a)" d="M 630.981818 193.197899 
L 1036.8 193.197899 
" style="fill:none;stroke:#b0b0b0;stroke-linecap:square;stroke-width:0.8;"/>
     </g>
     <g id="line2d_53">
      <g>
       <use style="stroke:#000000;stroke-width:0.8;" x="630.981818" xlink:href="#m4ee96595d5" y="193.197899"/>
      </g>
     </g>
     <g id="text_26">
      <!-- 60 -->
      <g transform="translate(611.256818 196.997118)scale(0.1 -0.1)">
       <use xlink:href="#DejaVuSans-36"/>
       <use x="63.623047" xlink:href="#DejaVuSans-30"/>
      </g>
     </g>
    </g>
    <g id="ytick_13">
     <g id="line2d_54">
      <path clip-path="url(#p0a80ec209a)" d="M 630.981818 156.82505 
L 1036.8 156.82505 
" style="fill:none;stroke:#b0b0b0;stroke-linecap:square;stroke-width:0.8;"/>
     </g>
     <g id="line2d_55">
      <g>
       <use style="stroke:#000000;stroke-width:0.8;" x="630.981818" xlink:href="#m4ee96595d5" y="156.82505"/>
      </g>
     </g>
     <g id="text_27">
      <!-- 70 -->
      <defs>
       <path d="M 8.203125 72.90625 
L 55.078125 72.90625 
L 55.078125 68.703125 
L 28.609375 0 
L 18.3125 0 
L 43.21875 64.59375 
L 8.203125 64.59375 
z
" id="DejaVuSans-37"/>
      </defs>
      <g transform="translate(611.256818 160.624268)scale(0.1 -0.1)">
       <use xlink:href="#DejaVuSans-37"/>
       <use x="63.623047" xlink:href="#DejaVuSans-30"/>
      </g>
     </g>
    </g>
    <g id="ytick_14">
     <g id="line2d_56">
      <path clip-path="url(#p0a80ec209a)" d="M 630.981818 120.4522 
L 1036.8 120.4522 
" style="fill:none;stroke:#b0b0b0;stroke-linecap:square;stroke-width:0.8;"/>
     </g>
     <g id="line2d_57">
      <g>
       <use style="stroke:#000000;stroke-width:0.8;" x="630.981818" xlink:href="#m4ee96595d5" y="120.4522"/>
      </g>
     </g>
     <g id="text_28">
      <!-- 80 -->
      <defs>
       <path d="M 31.78125 34.625 
Q 24.75 34.625 20.71875 30.859375 
Q 16.703125 27.09375 16.703125 20.515625 
Q 16.703125 13.921875 20.71875 10.15625 
Q 24.75 6.390625 31.78125 6.390625 
Q 38.8125 6.390625 42.859375 10.171875 
Q 46.921875 13.96875 46.921875 20.515625 
Q 46.921875 27.09375 42.890625 30.859375 
Q 38.875 34.625 31.78125 34.625 
M 21.921875 38.8125 
Q 15.578125 40.375 12.03125 44.71875 
Q 8.5 49.078125 8.5 55.328125 
Q 8.5 64.0625 14.71875 69.140625 
Q 20.953125 74.21875 31.78125 74.21875 
Q 42.671875 74.21875 48.875 69.140625 
Q 55.078125 64.0625 55.078125 55.328125 
Q 55.078125 49.078125 51.53125 44.71875 
Q 48 40.375 41.703125 38.8125 
Q 48.828125 37.15625 52.796875 32.3125 
Q 56.78125 27.484375 56.78125 20.515625 
Q 56.78125 9.90625 50.3125 4.234375 
Q 43.84375 -1.421875 31.78125 -1.421875 
Q 19.734375 -1.421875 13.25 4.234375 
Q 6.78125 9.90625 6.78125 20.515625 
Q 6.78125 27.484375 10.78125 32.3125 
Q 14.796875 37.15625 21.921875 38.8125 
M 18.3125 54.390625 
Q 18.3125 48.734375 21.84375 45.5625 
Q 25.390625 42.390625 31.78125 42.390625 
Q 38.140625 42.390625 41.71875 45.5625 
Q 45.3125 48.734375 45.3125 54.390625 
Q 45.3125 60.0625 41.71875 63.234375 
Q 38.140625 66.40625 31.78125 66.40625 
Q 25.390625 66.40625 21.84375 63.234375 
Q 18.3125 60.0625 18.3125 54.390625 
" id="DejaVuSans-38"/>
      </defs>
      <g transform="translate(611.256818 124.251419)scale(0.1 -0.1)">
       <use xlink:href="#DejaVuSans-38"/>
       <use x="63.623047" xlink:href="#DejaVuSans-30"/>
      </g>
     </g>
    </g>
    <g id="ytick_15">
     <g id="line2d_58">
      <path clip-path="url(#p0a80ec209a)" d="M 630.981818 84.07935 
L 1036.8 84.07935 
" style="fill:none;stroke:#b0b0b0;stroke-linecap:square;stroke-width:0.8;"/>
     </g>
     <g id="line2d_59">
      <g>
       <use style="stroke:#000000;stroke-width:0.8;" x="630.981818" xlink:href="#m4ee96595d5" y="84.07935"/>
      </g>
     </g>
     <g id="text_29">
      <!-- 90 -->
      <defs>
       <path d="M 10.984375 1.515625 
L 10.984375 10.5 
Q 14.703125 8.734375 18.5 7.8125 
Q 22.3125 6.890625 25.984375 6.890625 
Q 35.75 6.890625 40.890625 13.453125 
Q 46.046875 20.015625 46.78125 33.40625 
Q 43.953125 29.203125 39.59375 26.953125 
Q 35.25 24.703125 29.984375 24.703125 
Q 19.046875 24.703125 12.671875 31.3125 
Q 6.296875 37.9375 6.296875 49.421875 
Q 6.296875 60.640625 12.9375 67.421875 
Q 19.578125 74.21875 30.609375 74.21875 
Q 43.265625 74.21875 49.921875 64.515625 
Q 56.59375 54.828125 56.59375 36.375 
Q 56.59375 19.140625 48.40625 8.859375 
Q 40.234375 -1.421875 26.421875 -1.421875 
Q 22.703125 -1.421875 18.890625 -0.6875 
Q 15.09375 0.046875 10.984375 1.515625 
M 30.609375 32.421875 
Q 37.25 32.421875 41.125 36.953125 
Q 45.015625 41.5 45.015625 49.421875 
Q 45.015625 57.28125 41.125 61.84375 
Q 37.25 66.40625 30.609375 66.40625 
Q 23.96875 66.40625 20.09375 61.84375 
Q 16.21875 57.28125 16.21875 49.421875 
Q 16.21875 41.5 20.09375 36.953125 
Q 23.96875 32.421875 30.609375 32.421875 
" id="DejaVuSans-39"/>
      </defs>
      <g transform="translate(611.256818 87.878569)scale(0.1 -0.1)">
       <use xlink:href="#DejaVuSans-39"/>
       <use x="63.623047" xlink:href="#DejaVuSans-30"/>
      </g>
     </g>
    </g>
   </g>
   <g id="line2d_60">
    <path clip-path="url(#p0a80ec209a)" d="M 649.428099 329.48117 
L 650.441631 331.497877 
L 651.455163 331.974559 
L 652.468695 332.247273 
L 653.482227 332.059792 
L 654.495759 330.209237 
L 655.509291 329.890749 
L 656.522823 326.946247 
L 657.536355 325.426786 
L 658.549886 322.109198 
L 659.563418 322.065445 
L 660.57695 325.504977 
L 661.590482 324.272632 
L 662.604014 320.420868 
L 663.617546 319.879297 
L 664.631078 324.070936 
L 665.64461 325.48445 
L 666.658142 323.35235 
L 667.671674 320.747664 
L 668.685206 322.943955 
L 669.698738 322.855892 
L 670.71227 324.152896 
L 671.725801 324.337254 
L 672.739333 322.415311 
L 673.752865 319.576825 
L 674.766397 321.547795 
L 675.779929 321.839539 
L 676.793461 323.120047 
L 677.806993 327.046879 
L 678.820525 326.906822 
L 679.834057 325.673646 
L 680.847589 323.814389 
L 681.861121 323.705138 
L 682.874653 322.176116 
L 683.888185 314.570651 
L 684.901716 313.323345 
L 685.915248 314.923901 
L 686.92878 312.272379 
L 687.942312 313.619339 
L 688.955844 313.306101 
L 689.969376 313.297526 
L 691.99644 310.753643 
L 693.009972 308.141205 
L 695.037036 313.58945 
L 696.050568 309.51287 
L 697.0641 307.349622 
L 698.077631 305.677897 
L 700.104695 305.181516 
L 701.118227 303.260389 
L 702.131759 301.748781 
L 703.145291 300.931438 
L 704.158823 300.282674 
L 705.172355 302.576808 
L 706.185887 306.242014 
L 707.199419 305.567867 
L 708.212951 302.304517 
L 709.226483 297.915924 
L 710.240015 298.131658 
L 711.253546 299.847409 
L 712.267078 298.169674 
L 713.28061 295.868382 
L 714.294142 292.415897 
L 716.321206 283.937925 
L 717.334738 282.605496 
L 718.34827 284.20579 
L 719.361802 284.975641 
L 720.375334 286.085498 
L 721.388866 284.973884 
L 722.402398 284.849981 
L 724.429461 275.721064 
L 725.442993 277.413632 
L 726.456525 277.469702 
L 727.470057 274.912167 
L 728.483589 273.947208 
L 729.497121 269.874017 
L 730.510653 268.907999 
L 731.524185 268.897455 
L 732.537717 270.377087 
L 733.551249 269.259883 
L 734.564781 271.299724 
L 735.578313 273.792323 
L 736.591845 271.90876 
L 737.605376 271.181789 
L 738.618908 266.336874 
L 739.63244 262.241061 
L 741.659504 263.390295 
L 742.673036 261.502609 
L 743.686568 257.378952 
L 744.7001 254.600425 
L 745.713632 255.36531 
L 746.727164 254.078038 
L 747.740696 252.02292 
L 748.754228 254.681995 
L 749.76776 252.269136 
L 750.781291 247.030442 
L 751.794823 243.815229 
L 752.808355 241.534446 
L 753.821887 241.432128 
L 754.835419 242.78857 
L 755.848951 240.665795 
L 756.862483 239.110247 
L 757.876015 244.330721 
L 758.889547 245.38933 
L 759.903079 244.405901 
L 760.916611 237.92647 
L 761.930143 234.65376 
L 762.943675 236.934475 
L 763.957206 236.159131 
L 764.970738 236.47227 
L 765.98427 238.069082 
L 766.997802 235.642068 
L 768.011334 235.821288 
L 769.024866 238.113468 
L 771.05193 231.325835 
L 772.065462 228.562392 
L 773.078994 222.3313 
L 774.092526 222.392431 
L 775.106058 223.960577 
L 776.11959 223.169007 
L 777.133121 220.17418 
L 778.146653 219.78359 
L 779.160185 221.86661 
L 780.173717 220.331065 
L 781.187249 222.850435 
L 782.200781 223.275718 
L 783.214313 212.103223 
L 784.227845 204.501533 
L 785.241377 205.505867 
L 786.254909 208.153289 
L 787.268441 205.199808 
L 788.281973 207.068765 
L 789.295504 203.63102 
L 790.309036 202.128315 
L 791.322568 204.372957 
L 792.3361 208.113454 
L 793.349632 203.699799 
L 794.363164 203.967911 
L 795.376696 200.146289 
L 796.390228 200.672606 
L 797.40376 200.620416 
L 798.417292 197.98313 
L 799.430824 199.566749 
L 800.444356 199.383115 
L 802.471419 191.388737 
L 803.484951 190.90065 
L 804.498483 193.249052 
L 805.512015 190.386525 
L 806.525547 189.990725 
L 807.539079 197.956134 
L 808.552611 198.010471 
L 809.566143 196.685811 
L 810.579675 191.288633 
L 811.593207 190.905417 
L 812.606739 185.94391 
L 814.633803 181.087624 
L 815.647334 177.975232 
L 816.660866 176.361353 
L 817.674398 178.782884 
L 818.68793 177.121426 
L 819.701462 171.283232 
L 820.714994 167.609312 
L 821.728526 165.730986 
L 822.742058 166.963005 
L 823.75559 165.769644 
L 824.769122 159.461534 
L 826.796186 160.651508 
L 827.809718 159.394655 
L 828.823249 156.42009 
L 829.836781 151.556575 
L 830.850313 153.532006 
L 831.863845 150.904116 
L 832.877377 143.897829 
L 833.890909 142.072386 
L 834.904441 145.712649 
L 835.917973 144.230588 
L 836.931505 140.102433 
L 837.945037 138.39202 
L 838.958569 136.247924 
L 840.985633 128.268688 
L 841.999164 132.038925 
L 843.012696 133.275616 
L 844.026228 130.76775 
L 845.03976 128.777281 
L 846.053292 128.107061 
L 847.066824 125.440556 
L 848.080356 124.230544 
L 849.093888 125.712189 
L 850.10742 126.545645 
L 851.120952 123.469908 
L 852.134484 124.618625 
L 853.148016 126.001801 
L 854.161548 126.831202 
L 855.175079 125.437285 
L 856.188611 122.372906 
L 857.202143 122.085788 
L 858.215675 126.00178 
L 859.229207 121.304631 
L 860.242739 118.04834 
L 861.256271 121.632007 
L 862.269803 124.338088 
L 863.283335 125.676267 
L 864.296867 123.816611 
L 866.323931 125.91189 
L 867.337463 125.436719 
L 868.350994 123.216341 
L 869.364526 121.945436 
L 870.378058 125.235429 
L 871.39159 129.363273 
L 872.405122 128.059252 
L 873.418654 124.23293 
L 874.432186 126.355799 
L 875.445718 129.298485 
L 876.45925 131.092137 
L 877.472782 131.152391 
L 878.486314 134.071872 
L 879.499846 138.576956 
L 880.513378 136.731287 
L 881.526909 138.666849 
L 882.540441 138.723236 
L 883.553973 137.631938 
L 884.567505 138.788569 
L 885.581037 140.897603 
L 886.594569 145.853581 
L 887.608101 147.75792 
L 888.621633 145.589586 
L 890.648697 143.7182 
L 891.662229 142.024117 
L 892.675761 145.386594 
L 893.689293 150.505585 
L 894.702824 153.810872 
L 895.716356 156.098553 
L 897.74342 156.019428 
L 898.756952 154.427946 
L 899.770484 158.164734 
L 900.784016 164.198965 
L 901.797548 162.67203 
L 902.81108 164.509854 
L 903.824612 167.627134 
L 904.838144 169.826557 
L 905.851676 172.312678 
L 906.865208 177.537542 
L 907.878739 177.079505 
L 908.892271 178.460657 
L 909.905803 177.487324 
L 910.919335 179.896123 
L 911.932867 187.05371 
L 912.946399 190.209862 
L 913.959931 190.058066 
L 915.986995 199.787214 
L 917.000527 195.690038 
L 918.014059 192.638589 
L 919.027591 195.128797 
L 920.041123 192.118673 
L 921.054654 189.901038 
L 922.068186 188.301771 
L 923.081718 187.911104 
L 924.09525 191.754725 
L 925.108782 196.656908 
L 926.122314 200.83156 
L 927.135846 203.497421 
L 928.149378 211.554966 
L 929.16291 217.047476 
L 930.176442 217.794313 
L 931.189974 216.378704 
L 932.203506 217.214602 
L 933.217038 221.300244 
L 934.230569 221.253656 
L 935.244101 221.900839 
L 936.257633 225.876636 
L 937.271165 226.091045 
L 939.298229 219.338233 
L 940.311761 224.099558 
L 941.325293 226.691343 
L 943.352357 229.094093 
L 944.365889 227.005173 
L 945.379421 228.466803 
L 946.392953 231.306819 
L 947.406484 237.962029 
L 948.420016 240.809359 
L 949.433548 242.78882 
L 950.44708 243.049168 
L 951.460612 243.861884 
L 952.474144 246.666039 
L 953.487676 251.073246 
L 955.51474 264.052922 
L 956.528272 265.621409 
L 957.541804 269.303833 
L 958.555336 269.261721 
L 959.568867 267.290036 
L 960.582399 267.374093 
L 961.595931 269.417401 
L 962.609463 269.0232 
L 963.622995 266.377244 
L 964.636527 270.900831 
L 966.663591 278.085115 
L 967.677123 280.134467 
L 968.690655 281.490184 
L 970.717719 287.832643 
L 971.731251 289.005963 
L 972.744782 286.3801 
L 973.758314 287.204769 
L 974.771846 288.682841 
L 975.785378 292.003551 
L 976.79891 293.78625 
L 977.812442 298.076346 
L 978.825974 301.231036 
L 979.839506 301.099411 
L 980.853038 298.725582 
L 981.86657 300.830943 
L 982.880102 307.040647 
L 983.893634 310.419585 
L 984.907166 310.68437 
L 985.920697 309.834471 
L 986.934229 308.764092 
L 987.947761 306.962975 
L 988.961293 304.764944 
L 989.974825 305.885986 
L 990.988357 308.950769 
L 993.015421 313.922057 
L 994.028953 315.350678 
L 995.042485 320.996957 
L 996.056017 320.978827 
L 997.069549 319.752745 
L 998.083081 319.869778 
L 999.096612 319.156752 
L 1000.110144 320.58542 
L 1001.123676 322.960704 
L 1002.137208 323.475182 
L 1003.15074 323.741376 
L 1004.164272 322.206602 
L 1005.177804 323.743183 
L 1006.191336 323.344363 
L 1007.204868 323.123454 
L 1008.2184 321.743724 
L 1009.231932 321.373714 
L 1010.245464 325.02911 
L 1011.258996 325.999411 
L 1012.272527 325.3237 
L 1013.286059 326.913153 
L 1014.299591 325.457449 
L 1015.313123 323.378387 
L 1017.340187 327.93149 
L 1018.353719 329.549255 
L 1018.353719 329.549255 
" style="fill:none;stroke:#1f77b4;stroke-linecap:square;stroke-width:1.5;"/>
   </g>
   <g id="line2d_61">
    <path clip-path="url(#p0a80ec209a)" d="M 649.428099 298.638606 
L 650.441631 299.296698 
L 652.468695 299.824976 
L 653.482227 298.778517 
L 654.495759 298.825728 
L 655.509291 298.321049 
L 656.522823 295.575298 
L 657.536355 294.844003 
L 658.549886 292.544072 
L 659.563418 292.830942 
L 660.57695 294.475362 
L 661.590482 293.662448 
L 662.604014 289.537878 
L 663.617546 289.284576 
L 664.631078 293.167744 
L 665.64461 293.813443 
L 666.658142 292.636097 
L 667.671674 290.866843 
L 668.685206 292.314309 
L 669.698738 292.95201 
L 670.71227 294.517634 
L 671.725801 293.107075 
L 672.739333 291.891989 
L 673.752865 289.897718 
L 674.766397 290.584368 
L 675.779929 292.345351 
L 676.793461 293.410825 
L 677.806993 295.129891 
L 680.847589 290.191208 
L 681.861121 290.545331 
L 682.874653 287.524861 
L 683.888185 282.755297 
L 684.901716 282.071794 
L 685.915248 281.780514 
L 686.92878 279.848061 
L 687.942312 281.097023 
L 688.955844 281.815679 
L 689.969376 280.972964 
L 690.982908 279.303873 
L 691.99644 279.259769 
L 693.009972 278.29792 
L 694.023504 280.334238 
L 695.037036 280.504777 
L 696.050568 277.052367 
L 697.0641 276.064996 
L 698.077631 275.656342 
L 699.091163 275.103407 
L 700.104695 273.310813 
L 701.118227 271.217548 
L 702.131759 270.285239 
L 703.145291 270.634957 
L 704.158823 268.883593 
L 705.172355 268.523776 
L 706.185887 270.495198 
L 707.199419 269.867703 
L 708.212951 267.404894 
L 709.226483 263.632965 
L 710.240015 264.444732 
L 711.253546 265.452897 
L 712.267078 264.644823 
L 713.28061 262.743808 
L 715.307674 257.486301 
L 716.321206 253.228485 
L 717.334738 249.688288 
L 718.34827 249.561778 
L 719.361802 250.641037 
L 720.375334 250.716601 
L 721.388866 249.201882 
L 722.402398 249.904007 
L 723.41593 246.077935 
L 724.429461 243.084 
L 725.442993 243.997862 
L 726.456525 243.105022 
L 727.470057 239.390136 
L 728.483589 237.007161 
L 729.497121 233.938196 
L 730.510653 232.327602 
L 731.524185 233.6209 
L 732.537717 235.374497 
L 733.551249 234.212784 
L 734.564781 236.113794 
L 735.578313 238.257854 
L 737.605376 235.775632 
L 738.618908 229.937224 
L 739.63244 225.578419 
L 740.645972 225.588134 
L 741.659504 226.306399 
L 742.673036 224.182973 
L 743.686568 220.050548 
L 744.7001 217.669033 
L 745.713632 217.813855 
L 746.727164 217.193673 
L 747.740696 215.762757 
L 748.754228 217.250342 
L 749.76776 216.156691 
L 751.794823 206.480075 
L 752.808355 204.137753 
L 753.821887 204.464194 
L 754.835419 204.946131 
L 755.848951 201.056255 
L 756.862483 198.94871 
L 757.876015 202.993683 
L 758.889547 204.147405 
L 759.903079 202.387443 
L 760.916611 197.547461 
L 761.930143 195.95493 
L 762.943675 197.631779 
L 763.957206 198.225068 
L 764.970738 197.79138 
L 765.98427 198.144862 
L 766.997802 195.658287 
L 768.011334 195.521412 
L 769.024866 196.178937 
L 770.038398 196.181497 
L 772.065462 189.098782 
L 773.078994 184.149322 
L 775.106058 182.811145 
L 776.11959 181.063478 
L 777.133121 180.786954 
L 778.146653 181.344019 
L 779.160185 181.357184 
L 780.173717 181.500766 
L 781.187249 181.886668 
L 782.200781 179.736329 
L 783.214313 172.521809 
L 784.227845 167.935418 
L 785.241377 167.923339 
L 786.254909 168.468731 
L 787.268441 166.011243 
L 788.281973 167.116673 
L 789.295504 165.453031 
L 790.309036 165.325697 
L 791.322568 166.92396 
L 792.3361 167.278621 
L 793.349632 164.039984 
L 794.363164 163.233951 
L 795.376696 160.607911 
L 796.390228 161.100223 
L 797.40376 160.099062 
L 798.417292 158.659079 
L 799.430824 159.68301 
L 800.444356 161.094603 
L 801.457888 159.082327 
L 802.471419 156.185474 
L 803.484951 154.57678 
L 804.498483 154.286878 
L 805.512015 151.297968 
L 806.525547 150.211944 
L 807.539079 154.736071 
L 808.552611 155.389589 
L 809.566143 156.262993 
L 810.579675 153.097557 
L 811.593207 152.40235 
L 812.606739 148.38043 
L 813.620271 145.022265 
L 814.633803 143.8741 
L 816.660866 140.562338 
L 817.674398 140.682361 
L 818.68793 139.900158 
L 819.701462 135.318244 
L 820.714994 132.434489 
L 821.728526 130.273723 
L 822.742058 129.253746 
L 823.75559 127.278831 
L 824.769122 123.998361 
L 826.796186 123.476818 
L 827.809718 122.850505 
L 828.823249 122.368656 
L 829.836781 118.29504 
L 830.850313 119.007438 
L 831.863845 117.319234 
L 832.877377 113.220593 
L 833.890909 111.509251 
L 834.904441 112.740242 
L 835.917973 111.839601 
L 836.931505 108.965335 
L 837.945037 107.366929 
L 838.958569 107.26224 
L 840.985633 101.250659 
L 841.999164 102.849844 
L 843.012696 104.035089 
L 844.026228 100.749785 
L 845.03976 98.885926 
L 846.053292 99.35302 
L 847.066824 97.381908 
L 848.080356 96.321023 
L 849.093888 97.201143 
L 850.10742 97.700065 
L 851.120952 96.57196 
L 852.134484 96.964368 
L 853.148016 97.123857 
L 854.161548 96.070745 
L 855.175079 95.315006 
L 856.188611 95.541115 
L 857.202143 96.015773 
L 858.215675 97.040886 
L 859.229207 94.83598 
L 860.242739 92.908583 
L 861.256271 95.28358 
L 862.269803 96.009132 
L 863.283335 97.504106 
L 864.296867 97.828487 
L 866.323931 100.062741 
L 867.337463 99.612467 
L 868.350994 97.619633 
L 869.364526 96.909778 
L 870.378058 97.778255 
L 871.39159 100.032644 
L 872.405122 100.39037 
L 873.418654 98.289882 
L 874.432186 99.328108 
L 875.445718 101.814837 
L 876.45925 102.568204 
L 877.472782 102.427445 
L 878.486314 104.481058 
L 879.499846 106.938405 
L 880.513378 106.648193 
L 881.526909 108.078694 
L 882.540441 108.626467 
L 883.553973 108.26495 
L 884.567505 108.893874 
L 885.581037 110.429393 
L 886.594569 112.881247 
L 887.608101 114.529934 
L 888.621633 112.931943 
L 889.635165 112.516538 
L 890.648697 114.028616 
L 891.662229 114.126635 
L 892.675761 115.486544 
L 893.689293 118.247622 
L 894.702824 122.55379 
L 895.716356 122.966593 
L 896.729888 122.681232 
L 897.74342 122.593177 
L 898.756952 122.677658 
L 900.784016 129.283409 
L 901.797548 128.969237 
L 902.81108 132.190857 
L 903.824612 134.324278 
L 904.838144 135.082754 
L 905.851676 137.389847 
L 906.865208 141.882556 
L 907.878739 141.664335 
L 908.892271 142.576718 
L 909.905803 142.003305 
L 910.919335 143.115244 
L 911.932867 147.536649 
L 912.946399 150.742592 
L 913.959931 151.554564 
L 914.973463 157.07772 
L 915.986995 161.067716 
L 917.000527 157.451487 
L 918.014059 154.395326 
L 919.027591 154.964607 
L 920.041123 153.280433 
L 921.054654 153.491765 
L 922.068186 151.809228 
L 923.081718 151.97406 
L 924.09525 154.935449 
L 925.108782 156.37863 
L 926.122314 159.553099 
L 927.135846 164.146513 
L 928.149378 171.120402 
L 929.16291 175.45016 
L 930.176442 177.405536 
L 931.189974 177.135677 
L 932.203506 177.441477 
L 933.217038 179.683078 
L 934.230569 179.659754 
L 935.244101 180.837925 
L 936.257633 184.138407 
L 937.271165 186.482722 
L 938.284697 186.144218 
L 939.298229 184.88451 
L 940.311761 187.959639 
L 941.325293 190.360475 
L 942.338825 191.968206 
L 943.352357 192.843174 
L 944.365889 192.46297 
L 945.379421 192.81957 
L 946.392953 195.675934 
L 947.406484 201.22907 
L 948.420016 203.632264 
L 949.433548 204.846121 
L 950.44708 204.868816 
L 951.460612 206.288451 
L 952.474144 208.989749 
L 953.487676 212.526276 
L 954.501208 218.01404 
L 955.51474 224.296843 
L 957.541804 230.619737 
L 958.555336 231.690779 
L 959.568867 230.14833 
L 960.582399 228.824927 
L 961.595931 229.84162 
L 962.609463 232.017531 
L 963.622995 232.292444 
L 964.636527 236.639272 
L 965.650059 239.33718 
L 968.690655 244.331185 
L 969.704187 247.85413 
L 970.717719 252.229553 
L 971.731251 253.544517 
L 972.744782 252.774654 
L 973.758314 254.082976 
L 974.771846 255.700497 
L 975.785378 258.020417 
L 976.79891 259.428605 
L 977.812442 262.559966 
L 978.825974 266.371313 
L 979.839506 267.357091 
L 980.853038 263.762733 
L 981.86657 265.643935 
L 982.880102 272.685406 
L 983.893634 276.329674 
L 984.907166 277.502589 
L 986.934229 274.536259 
L 987.947761 274.390384 
L 988.961293 274.638296 
L 989.974825 275.183242 
L 993.015421 282.942585 
L 994.028953 283.868816 
L 995.042485 287.440641 
L 996.056017 288.273252 
L 997.069549 286.665201 
L 998.083081 286.958601 
L 1000.110144 288.861959 
L 1001.123676 290.460474 
L 1002.137208 291.593819 
L 1003.15074 292.395195 
L 1004.164272 291.284799 
L 1005.177804 293.167924 
L 1006.191336 293.075381 
L 1007.204868 292.440865 
L 1008.2184 290.915693 
L 1009.231932 291.788756 
L 1010.245464 294.492887 
L 1011.258996 295.474626 
L 1012.272527 294.843805 
L 1013.286059 295.927742 
L 1014.299591 295.472851 
L 1015.313123 294.087385 
L 1016.326655 295.731815 
L 1017.340187 297.105712 
L 1018.353719 298.974177 
L 1018.353719 298.974177 
" style="fill:none;stroke:#ff7f0e;stroke-linecap:square;stroke-width:1.5;"/>
   </g>
   <g id="line2d_62">
    <path clip-path="url(#p0a80ec209a)" d="M 649.428099 267.796041 
L 650.441631 267.095519 
L 651.455163 267.122649 
L 652.468695 267.402678 
L 653.482227 265.497241 
L 654.495759 267.44222 
L 655.509291 266.751349 
L 656.522823 264.204349 
L 657.536355 264.26122 
L 658.549886 262.978946 
L 659.563418 263.59644 
L 660.57695 263.445748 
L 661.590482 263.052265 
L 662.604014 258.654888 
L 663.617546 258.689854 
L 664.631078 262.264553 
L 666.658142 261.919844 
L 667.671674 260.986021 
L 668.685206 261.684664 
L 669.698738 263.048128 
L 670.71227 264.882371 
L 671.725801 261.876897 
L 672.739333 261.368667 
L 673.752865 260.218611 
L 674.766397 259.620942 
L 675.779929 262.851163 
L 676.793461 263.701602 
L 677.806993 263.212904 
L 678.820525 259.979154 
L 679.834057 257.713743 
L 680.847589 256.568027 
L 681.861121 257.385523 
L 682.874653 252.873607 
L 683.888185 250.939942 
L 684.901716 250.820244 
L 685.915248 248.637128 
L 686.92878 247.423743 
L 687.942312 248.574706 
L 688.955844 250.325257 
L 689.969376 248.648401 
L 690.982908 246.505614 
L 691.99644 247.765894 
L 693.009972 248.454634 
L 694.023504 249.696926 
L 695.037036 247.420105 
L 696.050568 244.591864 
L 697.0641 244.78037 
L 698.077631 245.634787 
L 699.091163 244.807256 
L 700.104695 241.44011 
L 701.118227 239.174707 
L 702.131759 238.821698 
L 703.145291 240.338476 
L 705.172355 234.470744 
L 706.185887 234.748381 
L 707.199419 234.167539 
L 708.212951 232.505271 
L 709.226483 229.350007 
L 710.240015 230.757806 
L 711.253546 231.058385 
L 712.267078 231.119972 
L 713.28061 229.619233 
L 714.294142 227.727936 
L 715.307674 226.787754 
L 716.321206 222.519045 
L 717.334738 216.77108 
L 718.34827 214.917765 
L 719.361802 216.306434 
L 720.375334 215.347704 
L 721.388866 213.42988 
L 722.402398 214.958033 
L 723.41593 211.95219 
L 724.429461 210.446937 
L 725.442993 210.582091 
L 726.456525 208.740343 
L 727.470057 203.868105 
L 728.483589 200.067114 
L 730.510653 195.747204 
L 731.524185 198.344345 
L 732.537717 200.371907 
L 733.551249 199.165685 
L 735.578313 202.723385 
L 736.591845 202.016623 
L 737.605376 200.369476 
L 738.618908 193.537574 
L 739.63244 188.915778 
L 740.645972 188.376438 
L 741.659504 189.222504 
L 742.673036 186.863336 
L 743.686568 182.722145 
L 744.7001 180.737641 
L 745.713632 180.262399 
L 746.727164 180.309308 
L 747.740696 179.502594 
L 749.76776 180.044246 
L 750.781291 175.599862 
L 751.794823 169.144921 
L 752.808355 166.74106 
L 753.821887 167.49626 
L 754.835419 167.103692 
L 755.848951 161.446715 
L 756.862483 158.787173 
L 757.876015 161.656644 
L 758.889547 162.905479 
L 759.903079 160.368985 
L 760.916611 157.168452 
L 761.930143 157.2561 
L 762.943675 158.329084 
L 763.957206 160.291005 
L 764.970738 159.110491 
L 765.98427 158.220642 
L 766.997802 155.674506 
L 768.011334 155.221536 
L 769.024866 154.244406 
L 770.038398 157.568977 
L 771.05193 154.073228 
L 772.065462 149.635171 
L 773.078994 145.967345 
L 774.092526 144.473648 
L 776.11959 138.95795 
L 777.133121 141.399729 
L 778.146653 142.904448 
L 779.160185 140.847758 
L 780.173717 142.670467 
L 781.187249 140.922902 
L 782.200781 136.19694 
L 783.214313 132.940395 
L 784.227845 131.369303 
L 785.241377 130.34081 
L 786.254909 128.784173 
L 787.268441 126.822679 
L 788.281973 127.16458 
L 789.295504 127.275041 
L 790.309036 128.523078 
L 791.322568 129.474963 
L 792.3361 126.443787 
L 794.363164 122.499992 
L 795.376696 121.069533 
L 796.390228 121.527841 
L 797.40376 119.577707 
L 798.417292 119.335028 
L 799.430824 119.799271 
L 800.444356 122.806091 
L 801.457888 122.976025 
L 802.471419 120.98221 
L 804.498483 115.324704 
L 805.512015 112.209411 
L 806.525547 110.433163 
L 807.539079 111.516007 
L 808.552611 112.768707 
L 809.566143 115.840176 
L 811.593207 113.899283 
L 812.606739 110.81695 
L 813.620271 106.479263 
L 814.633803 106.660577 
L 815.647334 106.307869 
L 816.660866 104.763323 
L 817.674398 102.581837 
L 818.68793 102.678889 
L 819.701462 99.353256 
L 820.714994 97.259665 
L 821.728526 94.816459 
L 822.742058 91.544487 
L 823.75559 88.788017 
L 824.769122 88.535188 
L 825.782654 87.517 
L 826.796186 86.302128 
L 827.809718 86.306356 
L 828.823249 88.317223 
L 829.836781 85.033505 
L 830.850313 84.482869 
L 831.863845 83.734351 
L 832.877377 82.543357 
L 833.890909 80.946117 
L 834.904441 79.767835 
L 835.917973 79.448615 
L 837.945037 76.341838 
L 838.958569 78.276556 
L 839.972101 76.485865 
L 840.985633 74.23263 
L 841.999164 73.660762 
L 843.012696 74.794562 
L 844.026228 70.731821 
L 845.03976 68.994572 
L 846.053292 70.59898 
L 847.066824 69.323259 
L 848.080356 68.411501 
L 850.10742 68.854485 
L 851.120952 69.674011 
L 852.134484 69.310112 
L 853.148016 68.245912 
L 854.161548 65.310288 
L 855.175079 65.192727 
L 856.188611 68.709324 
L 857.202143 69.945759 
L 858.215675 68.079992 
L 859.229207 68.36733 
L 860.242739 67.768826 
L 861.256271 68.935154 
L 862.269803 67.680175 
L 863.283335 69.331945 
L 864.296867 71.840363 
L 866.323931 74.213592 
L 867.337463 73.788216 
L 868.350994 72.022925 
L 869.364526 71.87412 
L 870.378058 70.321082 
L 871.39159 70.702014 
L 872.405122 72.721489 
L 873.418654 72.346833 
L 874.432186 72.300416 
L 875.445718 74.331188 
L 877.472782 73.702499 
L 878.486314 74.890243 
L 879.499846 75.299854 
L 880.513378 76.565099 
L 882.540441 78.529698 
L 883.553973 78.897962 
L 884.567505 78.999179 
L 885.581037 79.961182 
L 886.594569 79.908913 
L 887.608101 81.301948 
L 888.621633 80.2743 
L 889.635165 80.4107 
L 890.648697 84.339032 
L 891.662229 86.229153 
L 892.675761 85.586493 
L 893.689293 85.98966 
L 894.702824 91.296708 
L 895.716356 89.834632 
L 896.729888 89.286263 
L 897.74342 89.166926 
L 898.756952 90.927369 
L 899.770484 93.780884 
L 900.784016 94.367853 
L 901.797548 95.266444 
L 902.81108 99.87186 
L 903.824612 101.021422 
L 904.838144 100.338951 
L 905.851676 102.467016 
L 906.865208 106.227569 
L 907.878739 106.249166 
L 908.892271 106.692779 
L 910.919335 106.334365 
L 911.932867 108.019587 
L 912.946399 111.275323 
L 913.959931 113.051063 
L 914.973463 119.284186 
L 915.986995 122.348218 
L 918.014059 116.152064 
L 919.027591 114.800417 
L 920.041123 114.442193 
L 921.054654 117.082492 
L 922.068186 115.316685 
L 923.081718 116.037016 
L 924.09525 118.116173 
L 925.108782 116.100351 
L 926.122314 118.274638 
L 928.149378 130.685838 
L 930.176442 137.01676 
L 931.189974 137.892651 
L 932.203506 137.668352 
L 933.217038 138.065911 
L 934.230569 138.065852 
L 935.244101 139.775011 
L 936.257633 142.400177 
L 937.271165 146.874399 
L 938.284697 149.756634 
L 939.298229 150.430788 
L 940.311761 151.81972 
L 942.338825 156.057354 
L 943.352357 156.592256 
L 944.365889 157.920768 
L 945.379421 157.172337 
L 946.392953 160.04505 
L 947.406484 164.496112 
L 948.420016 166.455169 
L 949.433548 166.903421 
L 950.44708 166.688464 
L 951.460612 168.715017 
L 953.487676 173.979307 
L 954.501208 178.301403 
L 955.51474 184.540763 
L 956.528272 189.324549 
L 957.541804 191.935641 
L 958.555336 194.119836 
L 959.568867 193.006623 
L 960.582399 190.275762 
L 961.595931 190.265838 
L 962.609463 195.011862 
L 963.622995 198.207645 
L 964.636527 202.377714 
L 965.650059 204.345625 
L 966.663591 203.943614 
L 967.677123 205.259974 
L 968.690655 207.172187 
L 969.704187 211.144428 
L 970.717719 216.626463 
L 971.731251 218.083072 
L 972.744782 219.169208 
L 974.771846 222.718153 
L 975.785378 224.037284 
L 976.79891 225.07096 
L 977.812442 227.043586 
L 978.825974 231.51159 
L 979.839506 233.614771 
L 980.853038 228.799885 
L 981.86657 230.456927 
L 982.880102 238.330164 
L 983.893634 242.239764 
L 984.907166 244.320808 
L 986.934229 240.308425 
L 987.947761 241.817793 
L 988.961293 244.511648 
L 989.974825 244.480498 
L 990.988357 246.67259 
L 992.001889 249.579414 
L 993.015421 251.963112 
L 994.028953 252.386954 
L 996.056017 255.567678 
L 997.069549 253.577656 
L 998.083081 254.047423 
L 999.096612 256.721769 
L 1000.110144 257.138498 
L 1001.123676 257.960244 
L 1002.137208 259.712455 
L 1003.15074 261.049014 
L 1004.164272 260.362995 
L 1005.177804 262.592664 
L 1006.191336 262.806398 
L 1007.204868 261.758275 
L 1008.2184 260.087662 
L 1009.231932 262.203798 
L 1010.245464 263.956664 
L 1011.258996 264.949842 
L 1012.272527 264.363911 
L 1014.299591 265.488252 
L 1015.313123 264.796383 
L 1016.326655 265.790917 
L 1017.340187 266.279933 
L 1018.353719 268.3991 
L 1018.353719 268.3991 
" style="fill:none;stroke:#2ca02c;stroke-linecap:square;stroke-width:1.5;"/>
   </g>
   <g id="patch_9">
    <path d="M 630.981818 345.6 
L 630.981818 51.84 
" style="fill:none;stroke:#000000;stroke-linecap:square;stroke-linejoin:miter;stroke-width:0.8;"/>
   </g>
   <g id="patch_10">
    <path d="M 1036.8 345.6 
L 1036.8 51.84 
" style="fill:none;stroke:#000000;stroke-linecap:square;stroke-linejoin:miter;stroke-width:0.8;"/>
   </g>
   <g id="patch_11">
    <path d="M 630.981818 345.6 
L 1036.8 345.6 
" style="fill:none;stroke:#000000;stroke-linecap:square;stroke-linejoin:miter;stroke-width:0.8;"/>
   </g>
   <g id="patch_12">
    <path d="M 630.981818 51.84 
L 1036.8 51.84 
" style="fill:none;stroke:#000000;stroke-linecap:square;stroke-linejoin:miter;stroke-width:0.8;"/>
   </g>
   <g id="text_30">
    <!-- Mean+-std   TMAX -->
    <defs>
     <path d="M 6.296875 72.90625 
L 16.890625 72.90625 
L 35.015625 45.796875 
L 53.21875 72.90625 
L 63.8125 72.90625 
L 40.375 37.890625 
L 65.375 0 
L 54.78125 0 
L 34.28125 31 
L 13.625 0 
L 2.984375 0 
L 29 38.921875 
z
" id="DejaVuSans-58"/>
    </defs>
    <g transform="translate(778.286847 45.84)scale(0.12 -0.12)">
     <use xlink:href="#DejaVuSans-4d"/>
     <use x="86.279297" xlink:href="#DejaVuSans-65"/>
     <use x="147.802734" xlink:href="#DejaVuSans-61"/>
     <use x="209.082031" xlink:href="#DejaVuSans-6e"/>
     <use x="272.460938" xlink:href="#DejaVuSans-2b"/>
     <use x="356.25" xlink:href="#DejaVuSans-2d"/>
     <use x="392.333984" xlink:href="#DejaVuSans-73"/>
     <use x="444.433594" xlink:href="#DejaVuSans-74"/>
     <use x="483.642578" xlink:href="#DejaVuSans-64"/>
     <use x="547.119141" xlink:href="#DejaVuSans-20"/>
     <use x="578.90625" xlink:href="#DejaVuSans-20"/>
     <use x="610.693359" xlink:href="#DejaVuSans-20"/>
     <use x="642.480469" xlink:href="#DejaVuSans-54"/>
     <use x="703.564453" xlink:href="#DejaVuSans-4d"/>
     <use x="789.84375" xlink:href="#DejaVuSans-41"/>
     <use x="858.251953" xlink:href="#DejaVuSans-58"/>
    </g>
   </g>
   <g id="legend_2">
    <g id="patch_13">
     <path d="M 949.190625 103.874375 
L 1029.8 103.874375 
Q 1031.8 103.874375 1031.8 101.874375 
L 1031.8 58.84 
Q 1031.8 56.84 1029.8 56.84 
L 949.190625 56.84 
Q 947.190625 56.84 947.190625 58.84 
L 947.190625 101.874375 
Q 947.190625 103.874375 949.190625 103.874375 
z
" style="fill:#ffffff;opacity:0.8;stroke:#cccccc;stroke-linejoin:miter;"/>
    </g>
    <g id="line2d_63">
     <path d="M 951.190625 64.938437 
L 971.190625 64.938437 
" style="fill:none;stroke:#1f77b4;stroke-linecap:square;stroke-width:1.5;"/>
    </g>
    <g id="line2d_64"/>
    <g id="text_31">
     <!-- avg - std -->
     <g transform="translate(979.190625 68.438437)scale(0.1 -0.1)">
      <use xlink:href="#DejaVuSans-61"/>
      <use x="61.279297" xlink:href="#DejaVuSans-76"/>
      <use x="120.458984" xlink:href="#DejaVuSans-67"/>
      <use x="183.935547" xlink:href="#DejaVuSans-20"/>
      <use x="215.722656" xlink:href="#DejaVuSans-2d"/>
      <use x="251.806641" xlink:href="#DejaVuSans-20"/>
      <use x="283.59375" xlink:href="#DejaVuSans-73"/>
      <use x="335.693359" xlink:href="#DejaVuSans-74"/>
      <use x="374.902344" xlink:href="#DejaVuSans-64"/>
     </g>
    </g>
    <g id="line2d_65">
     <path d="M 951.190625 79.616562 
L 971.190625 79.616562 
" style="fill:none;stroke:#ff7f0e;stroke-linecap:square;stroke-width:1.5;"/>
    </g>
    <g id="line2d_66"/>
    <g id="text_32">
     <!-- avg -->
     <g transform="translate(979.190625 83.116562)scale(0.1 -0.1)">
      <use xlink:href="#DejaVuSans-61"/>
      <use x="61.279297" xlink:href="#DejaVuSans-76"/>
      <use x="120.458984" xlink:href="#DejaVuSans-67"/>
     </g>
    </g>
    <g id="line2d_67">
     <path d="M 951.190625 94.294687 
L 971.190625 94.294687 
" style="fill:none;stroke:#2ca02c;stroke-linecap:square;stroke-width:1.5;"/>
    </g>
    <g id="line2d_68"/>
    <g id="text_33">
     <!-- avg + std -->
     <g transform="translate(979.190625 97.794687)scale(0.1 -0.1)">
      <use xlink:href="#DejaVuSans-61"/>
      <use x="61.279297" xlink:href="#DejaVuSans-76"/>
      <use x="120.458984" xlink:href="#DejaVuSans-67"/>
      <use x="183.935547" xlink:href="#DejaVuSans-20"/>
      <use x="215.722656" xlink:href="#DejaVuSans-2b"/>
      <use x="299.511719" xlink:href="#DejaVuSans-20"/>
      <use x="331.298828" xlink:href="#DejaVuSans-73"/>
      <use x="383.398438" xlink:href="#DejaVuSans-74"/>
      <use x="422.607422" xlink:href="#DejaVuSans-64"/>
     </g>
    </g>
   </g>
  </g>
 </g>
 <defs>
  <clipPath id="p9cd274e959">
   <rect height="293.76" width="405.818182" x="144" y="51.84"/>
  </clipPath>
  <clipPath id="p0a80ec209a">
   <rect height="293.76" width="405.818182" x="630.981818" y="51.84"/>
  </clipPath>
 </defs>
</svg>
